G04 Layer_Color=65535*
%FSLAX44Y44*%
%MOMM*%
G71*
G01*
G75*
%ADD19C,0.1270*%
%ADD20C,0.2540*%
%ADD21C,0.2000*%
%ADD22C,0.5000*%
%ADD23C,0.2032*%
%ADD24C,0.2500*%
%ADD25C,0.1500*%
%ADD26R,20.5000X8.0000*%
D19*
X1370800Y1369760D02*
G03*
X1370800Y1400240I0J15240D01*
G01*
X1269200D02*
G03*
X1269200Y1369760I0J-15240D01*
G01*
X1370800D01*
X1269200Y1400240D02*
X1370800D01*
D20*
X1560000Y465000D02*
G03*
X1560000Y465000I-450000J0D01*
G01*
X910000Y1095000D02*
G03*
X910000Y1095000I-450000J0D01*
G01*
X926000Y946500D02*
X1020000D01*
Y1043500D01*
X926000D02*
X1020000D01*
X926000Y946500D02*
Y1043500D01*
X928000Y1051500D02*
X1022000D01*
Y1148500D01*
X928000D02*
X1022000D01*
X928000Y1051500D02*
Y1148500D01*
Y1156500D02*
X1022000D01*
Y1253500D01*
X928000D02*
X1022000D01*
X928000Y1156500D02*
Y1253500D01*
Y1261500D02*
X1022000D01*
Y1358500D01*
X928000D02*
X1022000D01*
X928000Y1261500D02*
Y1358500D01*
X1510000Y1155000D02*
Y1355000D01*
X1095000Y1155000D02*
X1510000D01*
X1095000D02*
Y1249986D01*
Y1355000D01*
X1510000D01*
X1095000Y940000D02*
Y1140000D01*
X1510000D01*
Y1045014D02*
Y1140000D01*
Y940000D02*
Y1045014D01*
X1095000Y940000D02*
X1510000D01*
D21*
X1234000Y1425500D02*
Y1464500D01*
X1286000Y1425500D02*
Y1464500D01*
X1401000Y1425500D02*
Y1464500D01*
X1349000Y1425500D02*
Y1464500D01*
D22*
X1021751Y995000D02*
X1058000D01*
X1023752Y1100000D02*
X1060000D01*
X1023752Y1205000D02*
X1060000D01*
X1023752Y1310000D02*
X1060000D01*
D23*
X158960Y434760D02*
X240240D01*
Y465240D01*
X158960D02*
X240240D01*
X158960Y434760D02*
Y465240D01*
X1155240Y1393960D02*
Y1475240D01*
X1124760D02*
X1155240D01*
X1124760Y1393960D02*
Y1475240D01*
Y1393960D02*
X1155240D01*
X464760Y89760D02*
Y171040D01*
Y89760D02*
X495240D01*
Y171040D01*
X464760D02*
X495240D01*
X1468986Y1391960D02*
Y1473240D01*
Y1391960D02*
X1499466D01*
Y1473240D01*
X1468986D02*
X1499466D01*
X1278960Y1509760D02*
X1360240D01*
Y1540240D01*
X1278960D02*
X1360240D01*
X1278960Y1509760D02*
Y1540240D01*
D24*
X203741Y127611D02*
X213738D01*
Y135108D01*
X208740D01*
X213738D01*
Y142606D01*
X198743D02*
X193745D01*
X196244D01*
Y132609D01*
X198743D01*
X186247Y142606D02*
X181249D01*
X183748D01*
Y127611D01*
X186247D01*
X171252Y130110D02*
Y132609D01*
X173751D01*
X168753D01*
X171252D01*
Y140106D01*
X168753Y142606D01*
X161255Y132609D02*
Y142606D01*
Y137607D01*
X158756Y135108D01*
X156257Y132609D01*
X153758D01*
X146260Y142606D02*
X141262D01*
X143761D01*
Y127611D01*
X146260Y130110D01*
X312456Y172998D02*
Y158002D01*
X304959D01*
X302460Y160502D01*
Y165500D01*
X304959Y167999D01*
X312456D01*
X307458D02*
X302460Y172998D01*
X297461D02*
X292463D01*
X294962D01*
Y158002D01*
X297461Y160502D01*
X284965D02*
X282466Y158002D01*
X277468D01*
X274968Y160502D01*
Y170498D01*
X277468Y172998D01*
X282466D01*
X284965Y170498D01*
Y160502D01*
X269970D02*
X267471Y158002D01*
X262472D01*
X259973Y160502D01*
Y170498D01*
X262472Y172998D01*
X267471D01*
X269970Y170498D01*
Y160502D01*
X254975Y172998D02*
Y170498D01*
X252476D01*
Y172998D01*
X254975D01*
X232482D02*
X242479D01*
X232482Y163001D01*
Y160502D01*
X234981Y158002D01*
X239980D01*
X242479Y160502D01*
X227484D02*
X224985Y158002D01*
X219986D01*
X217487Y160502D01*
Y163001D01*
X219986Y165500D01*
X222485D01*
X219986D01*
X217487Y167999D01*
Y170498D01*
X219986Y172998D01*
X224985D01*
X227484Y170498D01*
X212489Y160502D02*
X209989Y158002D01*
X204991D01*
X202492Y160502D01*
Y170498D01*
X204991Y172998D01*
X209989D01*
X212489Y170498D01*
Y160502D01*
X197493Y172998D02*
Y170498D01*
X194994D01*
Y172998D01*
X197493D01*
X184998Y160502D02*
X182498Y158002D01*
X177500D01*
X175001Y160502D01*
Y170498D01*
X177500Y172998D01*
X182498D01*
X184998Y170498D01*
Y160502D01*
X162505Y172998D02*
Y158002D01*
X170002Y165500D01*
X160006D01*
X155007Y160502D02*
X152508Y158002D01*
X147510D01*
X145010Y160502D01*
Y170498D01*
X147510Y172998D01*
X152508D01*
X155007Y170498D01*
Y160502D01*
X140012Y172998D02*
Y170498D01*
X137513D01*
Y172998D01*
X140012D01*
X127516Y160502D02*
X125017Y158002D01*
X120019D01*
X117519Y160502D01*
Y170498D01*
X120019Y172998D01*
X125017D01*
X127516Y170498D01*
Y160502D01*
X112521D02*
X110022Y158002D01*
X105023D01*
X102524Y160502D01*
Y170498D01*
X105023Y172998D01*
X110022D01*
X112521Y170498D01*
Y160502D01*
X97526D02*
X95027Y158002D01*
X90028D01*
X87529Y160502D01*
Y170498D01*
X90028Y172998D01*
X95027D01*
X97526Y170498D01*
Y160502D01*
X82531Y165500D02*
X72534D01*
X67536Y160502D02*
X65036Y158002D01*
X60038D01*
X57539Y160502D01*
Y170498D01*
X60038Y172998D01*
X65036D01*
X67536Y170498D01*
Y160502D01*
X52540D02*
X50041Y158002D01*
X45043D01*
X42544Y160502D01*
Y170498D01*
X45043Y172998D01*
X50041D01*
X52540Y170498D01*
Y160502D01*
X289964Y97502D02*
X294962D01*
X297461Y100002D01*
Y109998D01*
X294962Y112498D01*
X289964D01*
X287464Y109998D01*
Y100002D01*
X289964Y97502D01*
X282466D02*
Y112498D01*
X272469D01*
X267471Y97502D02*
X257474D01*
X262472D01*
Y112498D01*
X242479Y97502D02*
X252476D01*
Y112498D01*
X242479D01*
X252476Y105000D02*
X247477D01*
X227484Y100002D02*
X229983Y97502D01*
X234981D01*
X237481Y100002D01*
Y102501D01*
X234981Y105000D01*
X229983D01*
X227484Y107499D01*
Y109998D01*
X229983Y112498D01*
X234981D01*
X237481Y109998D01*
X222486Y97502D02*
X212489D01*
X217487D01*
Y112498D01*
X192495D02*
X187497D01*
X189996D01*
Y97502D01*
X192495Y100002D01*
X170002Y97502D02*
X179999D01*
Y105000D01*
X175001Y102501D01*
X172502D01*
X170002Y105000D01*
Y109998D01*
X172502Y112498D01*
X177500D01*
X179999Y109998D01*
X165004Y112498D02*
Y109998D01*
X162505D01*
Y112498D01*
X165004D01*
X152508Y100002D02*
X150009Y97502D01*
X145010D01*
X142511Y100002D01*
Y109998D01*
X145010Y112498D01*
X150009D01*
X152508Y109998D01*
Y100002D01*
X130015Y112498D02*
Y97502D01*
X137513Y105000D01*
X127516D01*
X122518Y112498D02*
Y109998D01*
X120019D01*
Y112498D01*
X122518D01*
X100025D02*
X110022D01*
X100025Y102501D01*
Y100002D01*
X102524Y97502D01*
X107523D01*
X110022Y100002D01*
X95027D02*
X92528Y97502D01*
X87529D01*
X85030Y100002D01*
Y109998D01*
X87529Y112498D01*
X92528D01*
X95027Y109998D01*
Y100002D01*
X80032Y112498D02*
X75033D01*
X77532D01*
Y97502D01*
X80032Y100002D01*
X67536Y109998D02*
X65036Y112498D01*
X60038D01*
X57539Y109998D01*
Y100002D01*
X60038Y97502D01*
X65036D01*
X67536Y100002D01*
Y102501D01*
X65036Y105000D01*
X57539D01*
D25*
X498500Y21837D02*
X495168D01*
X496834D01*
Y31834D01*
X498500D01*
X495168D01*
X490169D02*
Y25169D01*
X485171D01*
X483505Y26835D01*
Y31834D01*
X480173Y33500D02*
X473508D01*
X463511Y31834D02*
X470176D01*
X463511Y25169D01*
Y23503D01*
X465177Y21837D01*
X468510D01*
X470176Y23503D01*
X218500Y516837D02*
X215168D01*
X216834D01*
Y526834D01*
X218500D01*
X215168D01*
X210169D02*
Y520169D01*
X205171D01*
X203505Y521836D01*
Y526834D01*
X200173Y528500D02*
X193508D01*
X190176Y526834D02*
X186844D01*
X188510D01*
Y516837D01*
X190176Y518503D01*
X1063502Y1441837D02*
X1066834D01*
X1068500Y1443503D01*
Y1450168D01*
X1066834Y1451834D01*
X1063502D01*
X1061835Y1450168D01*
Y1443503D01*
X1063502Y1441837D01*
X1058503Y1445169D02*
Y1450168D01*
X1056837Y1451834D01*
X1051839D01*
Y1445169D01*
X1046840Y1443503D02*
Y1445169D01*
X1048506D01*
X1045174D01*
X1046840D01*
Y1450168D01*
X1045174Y1451834D01*
X1040176Y1453500D02*
X1033511D01*
X1030179Y1443503D02*
X1028513Y1441837D01*
X1025181D01*
X1023514Y1443503D01*
Y1445169D01*
X1025181Y1446835D01*
X1026847D01*
X1025181D01*
X1023514Y1448502D01*
Y1450168D01*
X1025181Y1451834D01*
X1028513D01*
X1030179Y1450168D01*
X1541837Y1391498D02*
Y1388166D01*
X1543503Y1386500D01*
X1550168D01*
X1551834Y1388166D01*
Y1391498D01*
X1550168Y1393165D01*
X1543503D01*
X1541837Y1391498D01*
X1545169Y1396497D02*
X1550168D01*
X1551834Y1398163D01*
Y1403161D01*
X1545169D01*
X1543503Y1408160D02*
X1545169D01*
Y1406494D01*
Y1409826D01*
Y1408160D01*
X1550168D01*
X1551834Y1409826D01*
X1553500Y1414824D02*
Y1421489D01*
X1551834Y1429819D02*
X1541837D01*
X1546835Y1424821D01*
Y1431485D01*
X1236835Y1525169D02*
X1238502Y1523503D01*
X1241834D01*
X1243500Y1525169D01*
Y1531834D01*
X1241834Y1533500D01*
X1238502D01*
X1236835Y1531834D01*
Y1528502D01*
X1240168D01*
X1233503Y1533500D02*
Y1523503D01*
X1226839Y1533500D01*
Y1523503D01*
X1223506D02*
Y1533500D01*
X1218508D01*
X1216842Y1531834D01*
Y1525169D01*
X1218508Y1523503D01*
X1223506D01*
X80000Y1425003D02*
Y1435000D01*
X73335D01*
X70003D02*
X66671D01*
X68337D01*
Y1425003D01*
X70003Y1426669D01*
X1330000Y1465003D02*
X1323336Y1475000D01*
Y1465003D02*
X1330000Y1475000D01*
X1313339Y1465003D02*
X1320003D01*
Y1470002D01*
X1316671Y1468336D01*
X1315005D01*
X1313339Y1470002D01*
Y1473334D01*
X1315005Y1475000D01*
X1318337D01*
X1320003Y1473334D01*
X1495000Y1500003D02*
X1488336Y1510000D01*
Y1500003D02*
X1495000Y1510000D01*
X1480005D02*
Y1500003D01*
X1485003Y1505002D01*
X1478339D01*
X395000Y120003D02*
X388335Y130000D01*
Y120003D02*
X395000Y130000D01*
X385003Y121669D02*
X383337Y120003D01*
X380005D01*
X378339Y121669D01*
Y123336D01*
X380005Y125002D01*
X381671D01*
X380005D01*
X378339Y126668D01*
Y128334D01*
X380005Y130000D01*
X383337D01*
X385003Y128334D01*
X1155000Y1500003D02*
X1148335Y1510000D01*
Y1500003D02*
X1155000Y1510000D01*
X1138339D02*
X1145003D01*
X1138339Y1503336D01*
Y1501669D01*
X1140005Y1500003D01*
X1143337D01*
X1145003Y1501669D01*
X1055000Y1295000D02*
Y1285003D01*
X1050002D01*
X1048335Y1286669D01*
Y1290002D01*
X1050002Y1291668D01*
X1055000D01*
X1051668D02*
X1048335Y1295000D01*
X1045003D02*
X1041671D01*
X1043337D01*
Y1285003D01*
X1045003Y1286669D01*
X1055000Y1190000D02*
Y1180003D01*
X1050002D01*
X1048335Y1181669D01*
Y1185002D01*
X1050002Y1186668D01*
X1055000D01*
X1051668D02*
X1048335Y1190000D01*
X1038339D02*
X1045003D01*
X1038339Y1183335D01*
Y1181669D01*
X1040005Y1180003D01*
X1043337D01*
X1045003Y1181669D01*
X1413336Y1496669D02*
X1415002Y1495003D01*
X1418334D01*
X1420000Y1496669D01*
Y1503334D01*
X1418334Y1505000D01*
X1415002D01*
X1413336Y1503334D01*
X1403339Y1495003D02*
X1410003D01*
Y1500002D01*
X1406671Y1498336D01*
X1405005D01*
X1403339Y1500002D01*
Y1503334D01*
X1405005Y1505000D01*
X1408337D01*
X1410003Y1503334D01*
X1073335Y1141669D02*
X1075002Y1140003D01*
X1078334D01*
X1080000Y1141669D01*
Y1148334D01*
X1078334Y1150000D01*
X1075002D01*
X1073335Y1148334D01*
X1065005Y1150000D02*
Y1140003D01*
X1070003Y1145002D01*
X1063339D01*
X1073335Y1341669D02*
X1075002Y1340003D01*
X1078334D01*
X1080000Y1341669D01*
Y1348334D01*
X1078334Y1350000D01*
X1075002D01*
X1073335Y1348334D01*
X1070003Y1341669D02*
X1068337Y1340003D01*
X1065005D01*
X1063339Y1341669D01*
Y1343336D01*
X1065005Y1345002D01*
X1066671D01*
X1065005D01*
X1063339Y1346668D01*
Y1348334D01*
X1065005Y1350000D01*
X1068337D01*
X1070003Y1348334D01*
X1233335Y1381669D02*
X1235002Y1380003D01*
X1238334D01*
X1240000Y1381669D01*
Y1388334D01*
X1238334Y1390000D01*
X1235002D01*
X1233335Y1388334D01*
X1223339Y1390000D02*
X1230003D01*
X1223339Y1383336D01*
Y1381669D01*
X1225005Y1380003D01*
X1228337D01*
X1230003Y1381669D01*
X1228335Y1496669D02*
X1230002Y1495003D01*
X1233334D01*
X1235000Y1496669D01*
Y1503334D01*
X1233334Y1505000D01*
X1230002D01*
X1228335Y1503334D01*
X1225003Y1505000D02*
X1221671D01*
X1223337D01*
Y1495003D01*
X1225003Y1496669D01*
X200000Y360003D02*
X193335Y370000D01*
Y360003D02*
X200000Y370000D01*
X190003D02*
X186671D01*
X188337D01*
Y360003D01*
X190003Y361669D01*
X1055000Y1085000D02*
Y1075003D01*
X1050002D01*
X1048335Y1076669D01*
Y1080002D01*
X1050002Y1081668D01*
X1055000D01*
X1051668D02*
X1048335Y1085000D01*
X1045003Y1076669D02*
X1043337Y1075003D01*
X1040005D01*
X1038339Y1076669D01*
Y1078335D01*
X1040005Y1080002D01*
X1041671D01*
X1040005D01*
X1038339Y1081668D01*
Y1083334D01*
X1040005Y1085000D01*
X1043337D01*
X1045003Y1083334D01*
X1055000Y980000D02*
Y970003D01*
X1050002D01*
X1048335Y971669D01*
Y975002D01*
X1050002Y976668D01*
X1055000D01*
X1051668D02*
X1048335Y980000D01*
X1040005D02*
Y970003D01*
X1045003Y975002D01*
X1038339D01*
X615000Y405003D02*
Y415000D01*
X608335D01*
X598339D02*
X605003D01*
X598339Y408335D01*
Y406669D01*
X600005Y405003D01*
X603337D01*
X605003Y406669D01*
D26*
X177500Y240000D02*
D03*
M02*
