M48
;Layer_Color=9474304
;FILE_FORMAT=4:4
METRIC,LZ
;TYPE=PLATED
T1F00S00C0.5000
T2F00S00C1.0000
T3F00S00C1.2000
T4F00S00C1.3000
T5F00S00C1.5000
T6F00S00C5.0000
T7F00S00C8.0000
T8F00S00C10.0000
%
T01
X00426Y00066
Y00086
Y00106
Y00126
X00446
Y00106
Y00086
Y00066
X00466
Y00086
X00486
Y00066
X00506
Y00086
Y00106
Y00126
X00526
Y00106
Y00086
Y00066
X00546
Y00086
Y00106
Y00126
X00686001
Y00106
Y00086
Y00066
X00706001
Y00086
Y00106
Y00126
X00726001Y00066
X00746001
X00766001
X00786001
X00806001
Y00086
Y00106
Y00126
X00826001
Y00106
Y00086
Y00066
Y00146
X00806001
Y00166
X00786001
X00766001
X00746001
X00726001
X00706001
X00686001
Y00146
X00706001
X00726001
Y00186
X00706001
X00686001
Y00206
Y00226
Y00246
X00706001
Y00226
Y00206
X00726001
Y00226
Y00246
X00746001
Y00226
Y00206
Y00186
X00766001
Y00206
Y00226
Y00246
X00786001
Y00226
Y00206
Y00186
X00806001
Y00206
Y00226
Y00246
X00826001
Y00226
Y00206
Y00186
Y00166
X00546
Y00146
Y00186
Y00206
Y00226
Y00246
X00526
X00506
X00486
X00466
X00446
X00426
Y00226
Y00206
Y00186
Y00166
Y00146
X00446
Y00166
Y00186
Y00206
Y00226
X00466
Y00206
Y00186
X00486
Y00206
Y00226
X00506
Y00206
Y00186
Y00166
Y00146
X00526
Y00166
Y00186
Y00206
Y00226
X00306Y00386
X00286
X00266
X00246
X00226
X00206
X00186
X00166
X00146
Y00406
Y00426
Y00446
Y00466
Y00486
Y00506
X00166
Y00486
X00186
Y00466
X00206
Y00446
Y00426
X00186
X00166
Y00406
X00186
X00206
X00226
Y00426
X00246
Y00406
X00266
Y00426
Y00446
X00246
Y00466
Y00486
X00226
X00206
Y00506
X00186
X00226
X00246
X00266
Y00486
Y00466
X00286
Y00446
Y00426
Y00406
X00306
Y00426
Y00446
Y00466
Y00486
X00286
Y00506
X00306
X00126
X00106
Y00486
Y00466
Y00446
Y00426
Y00406
Y00386
X00126
Y00406
Y00426
Y00446
Y00466
Y00486
Y00586001
X00106
Y00606001
Y00626001
Y00646001
Y00666001
Y00686001
Y00706001
Y00726001
Y00746001
X00126
Y00726001
Y00706001
Y00686001
Y00666001
Y00646001
Y00626001
Y00606001
X00146
Y00586001
X00166
Y00606001
Y00626001
X00146
Y00646001
X00186Y00626001
Y00606001
Y00586001
X00206
Y00606001
Y00626001
Y00646001
X00226
Y00626001
Y00606001
Y00586001
X00246
Y00606001
Y00626001
Y00646001
Y00666001
X00226
Y00686001
Y00706001
Y00726001
X00206
Y00746001
X00186
X00166
X00146
Y00726001
X00226Y00746001
X00246
Y00726001
Y00706001
Y00686001
X00266
Y00666001
Y00646001
Y00626001
Y00606001
Y00586001
X00286
Y00606001
Y00626001
Y00646001
Y00666001
Y00686001
Y00706001
X00266
Y00726001
Y00746001
X00286
Y00726001
X00306
Y00706001
Y00686001
Y00666001
Y00646001
Y00626001
Y00606001
Y00586001
Y00746001
X01346001
Y00726001
Y00706001
X01366001
Y00726001
Y00746001
Y00766001
X01346001
Y00786001
Y00806001
Y00826001
Y00846001
Y00866001
Y00886001
Y00906001
Y00926001
X01366001
Y00906001
Y00886001
Y00866001
Y00846001
Y00826001
Y00806001
Y00786001
X01386001
Y00766001
Y00746001
Y00726001
Y00706001
X01406001
Y00726001
Y00746001
Y00766001
Y00786001
Y00806001
X01386001
Y00826001
Y00846001
Y00866001
Y00886001
Y00906001
Y00926001
X01406001
Y00906001
Y00886001
Y00866001
Y00846001
Y00826001
X01426001Y00866001
Y00886001
Y00906001
Y00926001
X01446001
Y00906001
Y00886001
Y00866001
X01466001
Y00886001
Y00906001
Y00926001
X01486001
Y00906001
Y00886001
Y00866001
X01506001
Y00846001
Y00886001
Y00906001
Y00926001
Y00786001
Y00766001
X01486001
X01466001
X01446001
X01426001
Y00746001
Y00726001
Y00706001
X01446001
Y00726001
Y00746001
X01466001
Y00726001
Y00706001
X01486001
Y00726001
Y00746001
X01506001
Y00726001
Y00706001
X00846001Y01346001
X00826001
X00806001
X00786001
X00766001
X00746001
X00726001
X00706001
X00686001
X00666001
X00646001
Y01366001
X00626001
Y01386001
Y01406001
Y01426001
Y01446001
Y01466001
Y01486001
Y01506001
Y01526001
X00646001
Y01506001
Y01486001
Y01466001
Y01446001
Y01426001
Y01406001
Y01386001
X00666001
Y01366001
X00686001
Y01386001
Y01406001
X00666001
Y01426001
Y01446001
Y01466001
Y01486001
Y01506001
Y01526001
X00686001
Y01506001
Y01486001
Y01466001
Y01446001
Y01426001
X00706001
Y01406001
Y01386001
Y01366001
X00726001
Y01386001
Y01406001
Y01426001
Y01446001
X00706001
Y01466001
X00746001Y01446001
Y01426001
Y01406001
Y01386001
Y01366001
X00766001
Y01386001
Y01406001
Y01426001
Y01446001
X00786001
Y01426001
Y01406001
Y01386001
Y01366001
X00806001
Y01386001
Y01406001
Y01426001
Y01446001
Y01466001
X00786001
X00806001Y01486001
Y01506001
Y01526001
X00826001
Y01506001
Y01486001
Y01466001
Y01446001
Y01426001
Y01406001
Y01386001
Y01366001
X00846001
Y01386001
Y01406001
Y01426001
Y01446001
Y01466001
Y01486001
Y01506001
Y01526001
X01086001Y01506001
Y01486001
Y01466001
Y01446001
Y01426001
Y01406001
Y01386001
Y01366001
X01106001
Y01386001
Y01406001
Y01426001
Y01446001
Y01466001
Y01486001
Y01506001
X01126001
Y01486001
X01146001
Y01506001
X01166001
Y01486001
Y01466001
Y01446001
Y01426001
Y01406001
Y01386001
X01146001
X01126001
Y01366001
X01146001
X01166001
X01126001Y01426001
Y01446001
X01446001
Y01426001
Y01406001
Y01386001
Y01366001
X01466001
Y01386001
Y01406001
Y01426001
Y01446001
Y01466001
X01446001
X01506001
Y01446001
Y01426001
X01486001
Y01386001
Y01366001
X01506001
Y01386001
Y01406001
T02
X012819Y01385
X013581
T03
X00973Y00995
X01075
X01077Y011
X00975
Y01205
X01077
Y0131
X00975
T04
X0149Y0104
Y01255
X01115
Y0104
T05
X0048Y00105
Y001558
X00225Y0045
X001742
X0114Y014092
Y0146
X012942Y01525
X01345
X01484226Y01458
Y014072
T06
X00765109Y00119755
X00180299Y0069511
X01455068Y00810068
X00739905Y01494746
T07
X0111Y00465
X0046Y01095
T08
X01003934Y00358934
X0111Y00252868
X01216066Y00358934
X01322132Y00465
X00897868
X00496836Y00886091
X01003934Y00571066
X0111Y00677132
X01216066Y00571066
X00582873Y01008963
X00668909Y01131836
X00546036Y01217873
X00423164Y01303909
X00337127Y01181037
X00251091Y01058164
X00373964Y00972127
M30
