G04 Layer_Color=8388736*
%FSLAX24Y24*%
%MOIN*%
G70*
G01*
G75*
%ADD24C,0.0867*%
%ADD25C,0.1030*%
%ADD26C,0.1064*%
%ADD27C,0.0880*%
%ADD28C,0.3230*%
%ADD29C,0.2836*%
%ADD30C,0.0080*%
%ADD31C,0.0552*%
D24*
X19685Y29996D02*
D03*
Y32996D02*
D03*
D25*
X7843Y15748D02*
D03*
X9843D02*
D03*
X49606Y54724D02*
D03*
X51606D02*
D03*
X8236Y50394D02*
D03*
X10236D02*
D03*
X49575Y31496D02*
D03*
X51575D02*
D03*
D26*
X14699Y42126D02*
D03*
X4199D02*
D03*
X787Y59843D02*
D03*
X52756D02*
D03*
D27*
X5118Y38189D02*
D03*
Y23425D02*
D03*
X13780Y38189D02*
D03*
Y23425D02*
D03*
D28*
X32283Y47638D02*
D03*
X33465Y16535D02*
D03*
D29*
X47343Y47638D02*
D03*
X17224D02*
D03*
X48524Y16535D02*
D03*
X18406D02*
D03*
D30*
X37106Y42913D02*
D03*
X32382D02*
D03*
X27657D02*
D03*
Y47638D02*
D03*
X37106D02*
D03*
X27657Y52362D02*
D03*
X32382D02*
D03*
X37106D02*
D03*
X28642Y11811D02*
D03*
X33366D02*
D03*
X38091D02*
D03*
X28642Y16535D02*
D03*
X38091D02*
D03*
Y21260D02*
D03*
X33366D02*
D03*
X28642D02*
D03*
D31*
X23071Y18346D02*
D03*
Y17165D02*
D03*
Y15984D02*
D03*
Y14803D02*
D03*
Y13622D02*
D03*
Y12441D02*
D03*
X21890Y18346D02*
D03*
Y17165D02*
D03*
Y15984D02*
D03*
Y14803D02*
D03*
Y13622D02*
D03*
Y12441D02*
D03*
X20709Y18346D02*
D03*
Y17165D02*
D03*
Y15984D02*
D03*
Y14803D02*
D03*
Y13622D02*
D03*
Y12441D02*
D03*
X19528Y18346D02*
D03*
Y14803D02*
D03*
Y13622D02*
D03*
Y12441D02*
D03*
X18346Y18346D02*
D03*
Y14803D02*
D03*
Y13622D02*
D03*
Y12441D02*
D03*
X17165Y18346D02*
D03*
Y14803D02*
D03*
Y13622D02*
D03*
Y12441D02*
D03*
X15984Y18346D02*
D03*
Y17165D02*
D03*
Y15984D02*
D03*
Y14803D02*
D03*
Y13622D02*
D03*
Y12441D02*
D03*
X14803Y18346D02*
D03*
Y17165D02*
D03*
Y15984D02*
D03*
Y14803D02*
D03*
Y13622D02*
D03*
Y12441D02*
D03*
X13622Y18346D02*
D03*
Y17165D02*
D03*
Y15984D02*
D03*
Y14803D02*
D03*
Y13622D02*
D03*
Y12441D02*
D03*
X12441Y18346D02*
D03*
Y17165D02*
D03*
Y15984D02*
D03*
Y14803D02*
D03*
Y13622D02*
D03*
Y12441D02*
D03*
X11260Y18346D02*
D03*
Y17165D02*
D03*
Y15984D02*
D03*
Y14803D02*
D03*
Y13622D02*
D03*
Y12441D02*
D03*
X10079Y18346D02*
D03*
Y17165D02*
D03*
Y14803D02*
D03*
Y13622D02*
D03*
Y12441D02*
D03*
X8898Y18346D02*
D03*
Y17165D02*
D03*
Y12441D02*
D03*
X7717Y18346D02*
D03*
Y17165D02*
D03*
Y14803D02*
D03*
Y13622D02*
D03*
Y12441D02*
D03*
X6535Y18346D02*
D03*
Y17165D02*
D03*
Y15984D02*
D03*
Y14803D02*
D03*
Y13622D02*
D03*
Y12441D02*
D03*
X5354Y18346D02*
D03*
Y17165D02*
D03*
Y15984D02*
D03*
Y14803D02*
D03*
Y13622D02*
D03*
Y12441D02*
D03*
X4173Y18346D02*
D03*
Y17165D02*
D03*
Y15984D02*
D03*
Y14803D02*
D03*
Y13622D02*
D03*
Y12441D02*
D03*
X2992Y18346D02*
D03*
Y17165D02*
D03*
Y15984D02*
D03*
Y14803D02*
D03*
Y13622D02*
D03*
Y12441D02*
D03*
X19528Y51417D02*
D03*
Y50236D02*
D03*
Y49055D02*
D03*
Y47874D02*
D03*
Y46693D02*
D03*
Y45512D02*
D03*
Y44331D02*
D03*
X18346Y51417D02*
D03*
Y50236D02*
D03*
Y49055D02*
D03*
Y45512D02*
D03*
Y44331D02*
D03*
X17165Y51417D02*
D03*
Y50236D02*
D03*
Y45512D02*
D03*
Y44331D02*
D03*
X15984Y51417D02*
D03*
Y50236D02*
D03*
Y49055D02*
D03*
Y45512D02*
D03*
Y44331D02*
D03*
X14803Y51417D02*
D03*
Y50236D02*
D03*
Y49055D02*
D03*
Y47874D02*
D03*
Y46693D02*
D03*
Y45512D02*
D03*
Y44331D02*
D03*
X11260Y52598D02*
D03*
Y51417D02*
D03*
Y50236D02*
D03*
Y49055D02*
D03*
Y47874D02*
D03*
X10079Y52598D02*
D03*
Y51417D02*
D03*
Y49055D02*
D03*
Y47874D02*
D03*
X8898Y52598D02*
D03*
Y51417D02*
D03*
Y49055D02*
D03*
X7717Y52598D02*
D03*
Y51417D02*
D03*
Y49055D02*
D03*
Y47874D02*
D03*
X6535Y52598D02*
D03*
Y51417D02*
D03*
Y50236D02*
D03*
Y49055D02*
D03*
Y47874D02*
D03*
X52598Y32520D02*
D03*
Y31339D02*
D03*
Y30157D02*
D03*
X51417Y33701D02*
D03*
Y32520D02*
D03*
Y30157D02*
D03*
Y28976D02*
D03*
X50236Y33701D02*
D03*
Y32520D02*
D03*
Y30157D02*
D03*
Y28976D02*
D03*
X49055Y33701D02*
D03*
Y32520D02*
D03*
Y30157D02*
D03*
Y28976D02*
D03*
X47874Y33701D02*
D03*
Y32520D02*
D03*
Y31339D02*
D03*
Y30157D02*
D03*
Y28976D02*
D03*
X46693Y33701D02*
D03*
Y32520D02*
D03*
Y31339D02*
D03*
Y30157D02*
D03*
Y28976D02*
D03*
X45512Y33701D02*
D03*
Y32520D02*
D03*
Y31339D02*
D03*
Y30157D02*
D03*
Y28976D02*
D03*
X44331Y32520D02*
D03*
Y31339D02*
D03*
Y30157D02*
D03*
X52362Y19488D02*
D03*
Y18307D02*
D03*
Y17126D02*
D03*
Y15945D02*
D03*
Y14764D02*
D03*
X51181Y20669D02*
D03*
Y19488D02*
D03*
Y18307D02*
D03*
Y17126D02*
D03*
Y15945D02*
D03*
Y14764D02*
D03*
Y13583D02*
D03*
X50000Y20669D02*
D03*
Y19488D02*
D03*
Y13583D02*
D03*
X48819Y20669D02*
D03*
Y19488D02*
D03*
Y13583D02*
D03*
X47638Y20669D02*
D03*
Y19488D02*
D03*
Y13583D02*
D03*
X46457Y20669D02*
D03*
Y19488D02*
D03*
Y13583D02*
D03*
X45276Y20669D02*
D03*
Y19488D02*
D03*
Y18307D02*
D03*
Y17126D02*
D03*
Y15945D02*
D03*
Y14764D02*
D03*
Y13583D02*
D03*
X44094Y19488D02*
D03*
Y18307D02*
D03*
Y17126D02*
D03*
Y15945D02*
D03*
Y14764D02*
D03*
X51772Y56299D02*
D03*
Y52756D02*
D03*
Y51575D02*
D03*
Y50394D02*
D03*
Y49213D02*
D03*
Y48032D02*
D03*
Y46850D02*
D03*
Y45669D02*
D03*
Y44488D02*
D03*
X50591Y56299D02*
D03*
Y52756D02*
D03*
Y50394D02*
D03*
Y49213D02*
D03*
Y48032D02*
D03*
Y46850D02*
D03*
Y45669D02*
D03*
Y44488D02*
D03*
X49409Y56299D02*
D03*
Y52756D02*
D03*
Y51575D02*
D03*
Y50394D02*
D03*
Y49213D02*
D03*
Y48032D02*
D03*
Y46850D02*
D03*
Y45669D02*
D03*
Y44488D02*
D03*
X48228Y56299D02*
D03*
Y55118D02*
D03*
Y53937D02*
D03*
Y52756D02*
D03*
Y51575D02*
D03*
Y50394D02*
D03*
Y45669D02*
D03*
Y44488D02*
D03*
X47047Y56299D02*
D03*
Y55118D02*
D03*
Y53937D02*
D03*
Y52756D02*
D03*
Y51575D02*
D03*
Y50394D02*
D03*
Y45669D02*
D03*
Y44488D02*
D03*
X45866Y56299D02*
D03*
Y55118D02*
D03*
Y53937D02*
D03*
Y52756D02*
D03*
Y51575D02*
D03*
Y50394D02*
D03*
Y45669D02*
D03*
Y44488D02*
D03*
X44685Y56299D02*
D03*
Y55118D02*
D03*
Y53937D02*
D03*
Y52756D02*
D03*
Y51575D02*
D03*
Y50394D02*
D03*
Y49213D02*
D03*
Y48032D02*
D03*
Y46850D02*
D03*
Y45669D02*
D03*
Y44488D02*
D03*
M02*
