M48
;Layer_Color=9474304
;FILE_FORMAT=2:4
INCH,LZ
;TYPE=PLATED
T1F00S00C0.0276
T2F00S00C0.0394
T3F00S00C0.0472
T4F00S00C0.0512
T5F00S00C0.0591
T6F00S00C0.0984
T7F00S00C0.1969
T8F00S00C0.2362
T9F00S00C0.3937
%
T01
X045276Y013583
X046457
X047638
X048819
X05
X051181
Y014764
X052362
Y015945
Y017126
Y018307
Y019488
X051181
Y020669
X05
Y019488
X048819
Y020669
X047638
Y019488
X046457
Y020669
X045276
Y019488
Y018307
Y017126
Y015945
Y014764
X044094
Y015945
Y017126
Y018307
Y019488
X051181Y018307
Y017126
Y015945
X023071Y015984
Y017165
Y018346
X02189
Y017165
Y015984
Y014803
X023071
Y013622
Y012441
X02189
Y013622
X020709
Y014803
Y015984
Y017165
Y018346
X019528
X018346
X017165
X015984
Y017165
Y015984
Y014803
X017165
X018346
X019528
Y013622
Y012441
X020709
X018346
Y013622
X017165
Y012441
X015984
Y013622
X014803
Y014803
Y015984
Y017165
Y018346
X013622
Y017165
Y015984
Y014803
Y013622
Y012441
X014803
X012441
Y013622
Y014803
Y015984
Y017165
Y018346
X01126
Y017165
Y015984
Y014803
Y013622
Y012441
X010079
Y013622
Y014803
Y017165
Y018346
X008898
Y017165
X007717
Y018346
X006535
Y017165
Y015984
Y014803
X007717
Y013622
Y012441
X008898
X006535
Y013622
X005354
Y014803
Y015984
Y017165
Y018346
X004173
Y017165
Y015984
Y014803
Y013622
Y012441
X005354
X002992
Y013622
Y014803
Y015984
Y017165
Y018346
X045512Y028976
X046693
X047874
X049055
X050236
X051417
Y030157
X050236
X049055
X047874
Y031339
Y03252
X049055
X050236
X051417
Y033701
X050236
X049055
X047874
X046693
Y03252
Y031339
Y030157
X045512
Y031339
Y03252
Y033701
X044331Y03252
Y031339
Y030157
X052598
Y031339
Y03252
X051772Y044488
Y045669
Y04685
Y048032
Y049213
Y050394
Y051575
X050591Y050394
Y049213
Y048032
Y04685
Y045669
Y044488
X049409
Y045669
Y04685
Y048032
Y049213
Y050394
Y051575
X048228
Y050394
X047047
Y051575
X045866
Y050394
X044685
Y051575
Y049213
Y048032
Y04685
Y045669
X045866
X047047
X048228
Y044488
X047047
X045866
X044685
X019528Y044331
Y045512
Y046693
Y047874
Y049055
Y050236
Y051417
X018346
Y050236
Y049055
X017165Y050236
Y051417
X015984
Y050236
Y049055
X014803
Y050236
Y051417
Y047874
Y046693
Y045512
X015984
X017165
X018346
Y044331
X017165
X015984
X014803
X01126Y047874
Y049055
Y050236
Y051417
X010079
X008898
X007717
X006535
Y050236
Y049055
X007717
X008898
X010079
Y047874
X007717
X006535
Y052598
X007717
X008898
X010079
X01126
X044685Y052756
X045866
X047047
X048228
X049409
X050591
X051772
Y056299
X050591
X049409
X048228
Y055118
Y053937
X047047
Y055118
Y056299
X045866
Y055118
Y053937
X044685
Y055118
Y056299
T02
X019685Y029996
Y032996
T03
X014699Y042126
X004199
T04
X005118Y023425
X01378
Y038189
X005118
T05
X007843Y015748
X009843
X049575Y031496
X051575
X010236Y050394
X008236
X049606Y054724
X051606
T06
X000787Y059843
X052756
T07
X048524Y016535
X018406
X047343Y047638
X017224
T08
X033465Y016535
X032283Y047638
T09
X038091Y011811
Y016535
X033366Y011811
X028642
Y016535
Y02126
X033366
X038091
X037106Y042913
Y047638
Y052362
X032382
X027657
Y047638
Y042913
X032382
M30
