G04 Layer_Physical_Order=1*
G04 Layer_Color=255*
%FSLAX44Y44*%
%MOMM*%
G71*
G01*
G75*
%ADD10R,5.4000X1.0500*%
%ADD11C,7.0000*%
%ADD12C,10.0000*%
%ADD13C,2.4130*%
%ADD14C,2.0320*%
%ADD15C,2.5000*%
%ADD16C,2.0000*%
%ADD17C,0.9000*%
G36*
X295000Y880000D02*
X295000Y880000D01*
X296966Y880000D01*
X300865Y879487D01*
X304664Y878469D01*
X308297Y876964D01*
X311703Y874998D01*
X314823Y872604D01*
X317604Y869823D01*
X319998Y866703D01*
X321964Y863297D01*
X323469Y859664D01*
X324487Y855865D01*
X325000Y851966D01*
X325000Y850000D01*
X325000Y384997D01*
X325000Y384997D01*
X325000Y382703D01*
X324401Y378155D01*
X323214Y373723D01*
X321458Y369485D01*
X319164Y365512D01*
X316372Y361872D01*
X313128Y358628D01*
X309488Y355836D01*
X305515Y353542D01*
X301276Y351786D01*
X296845Y350599D01*
X292297Y350000D01*
X290003Y350000D01*
X137500Y350000D01*
X135042Y350000D01*
X130168Y350642D01*
X125420Y351914D01*
X120878Y353795D01*
X116621Y356253D01*
X112721Y359245D01*
X109246Y362721D01*
X106253Y366621D01*
X103795Y370878D01*
X101914Y375420D01*
X100642Y380168D01*
X100000Y385042D01*
X100000Y387500D01*
X100000Y848803D01*
X100000Y850000D01*
X100000Y850000D01*
X100000Y850000D01*
X100000Y850000D01*
X100000Y851966D01*
X100513Y855865D01*
X101531Y859664D01*
X103036Y863297D01*
X105002Y866703D01*
X107396Y869823D01*
X110177Y872604D01*
X113297Y874997D01*
X116703Y876964D01*
X120336Y878469D01*
X124135Y879487D01*
X128034Y880000D01*
X130000Y880000D01*
X295000Y880000D01*
X295000Y880000D01*
D02*
G37*
G36*
X1129375Y1334424D02*
X1132105Y1333293D01*
X1134562Y1331651D01*
X1136651Y1329562D01*
X1138293Y1327105D01*
X1139424Y1324375D01*
X1140000Y1321477D01*
X1140000Y1320000D01*
X1140000Y1320000D01*
X1140000Y1320000D01*
X1140000Y975000D01*
X1140000Y973522D01*
X1139424Y970625D01*
X1138293Y967895D01*
X1136651Y965438D01*
X1134562Y963348D01*
X1132105Y961707D01*
X1129375Y960576D01*
X1126477Y960000D01*
X1125000Y960000D01*
X1065000Y960000D01*
X1063522Y960000D01*
X1060624Y960576D01*
X1057895Y961707D01*
X1055438Y963349D01*
X1053349Y965438D01*
X1051707Y967895D01*
X1050576Y970625D01*
X1050000Y973522D01*
X1050000Y975000D01*
X1050000Y1320000D01*
Y1321477D01*
X1050576Y1324375D01*
X1051707Y1327105D01*
X1053349Y1329562D01*
X1055438Y1331651D01*
X1057895Y1333293D01*
X1060625Y1334423D01*
X1063522Y1335000D01*
X1065000Y1335000D01*
X1065000Y1335000D01*
X1125000Y1335000D01*
X1126478Y1335000D01*
X1129375Y1334424D01*
D02*
G37*
G36*
X875000Y270000D02*
X876966D01*
X880865Y269487D01*
X884664Y268469D01*
X888297Y266964D01*
X891703Y264998D01*
X894823Y262604D01*
X897604Y259823D01*
X899998Y256703D01*
X901964Y253297D01*
X903469Y249664D01*
X904487Y245865D01*
X905000Y241966D01*
Y240000D01*
Y80000D01*
X905000Y80000D01*
X905000Y78034D01*
X904487Y74135D01*
X903469Y70336D01*
X901964Y66703D01*
X899997Y63297D01*
X897604Y60177D01*
X894823Y57396D01*
X891703Y55002D01*
X888297Y53036D01*
X884664Y51531D01*
X880865Y50513D01*
X876966Y50000D01*
X875000Y50000D01*
X435000D01*
X435000Y50000D01*
X433034Y50000D01*
X429135Y50513D01*
X425336Y51531D01*
X421703Y53036D01*
X418297Y55002D01*
X415177Y57396D01*
X412396Y60177D01*
X410002Y63297D01*
X408036Y66703D01*
X406531Y70336D01*
X405513Y74135D01*
X405000Y78034D01*
X405000Y80000D01*
X405000Y240000D01*
X405000Y240000D01*
X405000Y240000D01*
X405000Y241966D01*
X405513Y245865D01*
X406531Y249664D01*
X408036Y253297D01*
X410002Y256703D01*
X412396Y259823D01*
X415177Y262603D01*
X418297Y264998D01*
X421703Y266964D01*
X425336Y268469D01*
X429135Y269487D01*
X433034Y270000D01*
X435000Y270000D01*
X875000Y270000D01*
Y270000D01*
D02*
G37*
G36*
X1505000Y1485000D02*
X1505000Y1485000D01*
X1506477Y1485000D01*
X1509375Y1484424D01*
X1512105Y1483293D01*
X1514562Y1481651D01*
X1516651Y1479562D01*
X1518293Y1477105D01*
X1519424Y1474375D01*
X1520000Y1471477D01*
X1520000Y1470000D01*
X1520000Y1435000D01*
X1520000Y715000D01*
X1520000Y715000D01*
X1520000Y713034D01*
X1519487Y709135D01*
X1518469Y705336D01*
X1516964Y701703D01*
X1514997Y698297D01*
X1512603Y695177D01*
X1509823Y692396D01*
X1506703Y690002D01*
X1503297Y688036D01*
X1499664Y686531D01*
X1495865Y685513D01*
X1491966Y685000D01*
X1490000Y685000D01*
X1365000Y685000D01*
X1365000Y685000D01*
X1363033D01*
X1359135Y685513D01*
X1355336Y686531D01*
X1351703Y688036D01*
X1348297Y690002D01*
X1345177Y692396D01*
X1342396Y695177D01*
X1340002Y698297D01*
X1338036Y701703D01*
X1336531Y705336D01*
X1335513Y709135D01*
X1335000Y713034D01*
X1335000Y715000D01*
X1335000Y1425000D01*
X1335000Y1425000D01*
X1335052Y1426248D01*
X1335384Y1427917D01*
X1336138Y1429737D01*
X1337232Y1431375D01*
X1338625Y1432767D01*
X1340263Y1433862D01*
X1342083Y1434616D01*
X1344015Y1435000D01*
X1345000Y1435000D01*
X1423806Y1435000D01*
X1425000Y1435000D01*
X1425000Y1435000D01*
X1425000Y1435000D01*
X1426470Y1435072D01*
X1429354Y1435646D01*
X1432071Y1436771D01*
X1434516Y1438405D01*
X1436595Y1440484D01*
X1438229Y1442929D01*
X1439354Y1445646D01*
X1439928Y1448530D01*
X1440000Y1450000D01*
X1440000Y1468804D01*
X1440000Y1470000D01*
X1440000Y1470000D01*
X1440000Y1470000D01*
X1440000Y1470000D01*
X1440000Y1471477D01*
X1440576Y1474375D01*
X1441707Y1477105D01*
X1443349Y1479562D01*
X1445438Y1481651D01*
X1447895Y1483293D01*
X1450625Y1484424D01*
X1453522Y1485000D01*
X1455000Y1485000D01*
X1505000Y1485000D01*
X1505000Y1485000D01*
D02*
G37*
G36*
X1400000Y1560000D02*
X1401477Y1560000D01*
X1404375Y1559424D01*
X1407105Y1558293D01*
X1409562Y1556651D01*
X1411651Y1554562D01*
X1413293Y1552105D01*
X1414423Y1549375D01*
X1415000Y1546477D01*
X1415000Y1545000D01*
X1415000Y1475000D01*
X1415000Y1475000D01*
X1415000Y1473522D01*
X1414423Y1470624D01*
X1413292Y1467895D01*
X1411651Y1465438D01*
X1409562Y1463349D01*
X1407105Y1461707D01*
X1404375Y1460576D01*
X1401477Y1460000D01*
X1400000D01*
X1235000Y1460000D01*
X1233522D01*
X1230625Y1460576D01*
X1227895Y1461707D01*
X1225438Y1463349D01*
X1223349Y1465438D01*
X1221707Y1467895D01*
X1220576Y1470625D01*
X1220000Y1473523D01*
Y1475000D01*
X1220000Y1543804D01*
X1220000Y1545000D01*
X1220000Y1545000D01*
X1220000Y1545000D01*
X1220000Y1545000D01*
X1220000Y1546477D01*
X1220576Y1549375D01*
X1221707Y1552105D01*
X1223349Y1554562D01*
X1225438Y1556651D01*
X1227895Y1558293D01*
X1230624Y1559423D01*
X1233522Y1560000D01*
X1235000Y1560000D01*
X1400000Y1560000D01*
Y1560000D01*
D02*
G37*
G36*
X1170864Y1559487D02*
X1174663Y1558469D01*
X1178296Y1556964D01*
X1181702Y1554998D01*
X1184822Y1552604D01*
X1187604Y1549823D01*
X1189998Y1546703D01*
X1191964Y1543297D01*
X1193469Y1539663D01*
X1194487Y1535864D01*
X1195000Y1531965D01*
X1195000Y1529999D01*
Y1465000D01*
X1195064Y1463038D01*
X1195576Y1459147D01*
X1196592Y1455357D01*
X1198094Y1451731D01*
X1200056Y1448333D01*
X1202445Y1445220D01*
X1205219Y1442445D01*
X1208333Y1440056D01*
X1211731Y1438094D01*
X1215357Y1436592D01*
X1219147Y1435576D01*
X1223038Y1435064D01*
X1225000Y1435000D01*
X1290000Y1435000D01*
X1290000Y1435000D01*
X1290000Y1435000D01*
X1291477Y1435000D01*
X1294375Y1434424D01*
X1297105Y1433293D01*
X1299562Y1431651D01*
X1301651Y1429562D01*
X1303293Y1427105D01*
X1304424Y1424375D01*
X1305000Y1421477D01*
X1305000Y1420000D01*
X1305000Y1370000D01*
X1305000Y1370000D01*
Y1368523D01*
X1304424Y1365625D01*
X1303293Y1362895D01*
X1301651Y1360438D01*
X1299562Y1358349D01*
X1297105Y1356707D01*
X1294375Y1355576D01*
X1291477Y1355000D01*
X1050000D01*
X1050000Y1355000D01*
X1048038Y1354936D01*
X1044147Y1354424D01*
X1040357Y1353408D01*
X1036731Y1351906D01*
X1033333Y1349944D01*
X1030219Y1347555D01*
X1027445Y1344780D01*
X1025056Y1341667D01*
X1023094Y1338269D01*
X1021592Y1334643D01*
X1020576Y1330853D01*
X1020064Y1326962D01*
X1020000Y1325000D01*
X1020000Y955000D01*
X1019999Y954999D01*
Y953522D01*
X1019423Y950624D01*
X1018292Y947895D01*
X1016651Y945438D01*
X1014562Y943349D01*
X1012105Y941707D01*
X1009375Y940576D01*
X1006477Y940000D01*
X1005000D01*
X935000Y940000D01*
X935000Y940000D01*
X933522D01*
X930624Y940577D01*
X927895Y941707D01*
X925438Y943349D01*
X923348Y945438D01*
X921707Y947895D01*
X920576Y950625D01*
X920000Y953523D01*
Y955000D01*
X920000Y1300000D01*
X920000Y1300000D01*
X920000Y1300000D01*
X919935Y1301962D01*
X919423Y1305853D01*
X918408Y1309643D01*
X916906Y1313268D01*
X914944Y1316667D01*
X912555Y1319780D01*
X909780Y1322555D01*
X906667Y1324944D01*
X903269Y1326906D01*
X899643Y1328408D01*
X895853Y1329424D01*
X891962Y1329936D01*
X890000Y1330000D01*
X650000Y1330000D01*
X649999Y1330000D01*
X648033D01*
X644134Y1330513D01*
X640336Y1331531D01*
X636702Y1333036D01*
X633297Y1335002D01*
X630177Y1337396D01*
X627396Y1340177D01*
X625002Y1343297D01*
X623036Y1346703D01*
X621531Y1350336D01*
X620513Y1354135D01*
X620000Y1358034D01*
X620000Y1360000D01*
X620000Y1528803D01*
X620000Y1530000D01*
X620000Y1530000D01*
X620000Y1530000D01*
X620000Y1531966D01*
X620513Y1535865D01*
X621531Y1539664D01*
X623036Y1543297D01*
X625002Y1546703D01*
X627396Y1549823D01*
X630177Y1552604D01*
X633297Y1554998D01*
X636703Y1556964D01*
X640336Y1558469D01*
X644135Y1559487D01*
X648034Y1560000D01*
X650000Y1560000D01*
X1164998Y1560000D01*
X1164998Y1560000D01*
X1164998Y1560000D01*
X1166965Y1560000D01*
X1170864Y1559487D01*
D02*
G37*
%LPC*%
G36*
X181527Y688147D02*
X162758Y661341D01*
X163590Y660851D01*
X169155Y658658D01*
X174995Y657364D01*
X180965Y656999D01*
X186919Y657572D01*
X192709Y659070D01*
X198195Y661455D01*
X203239Y664668D01*
X207719Y668632D01*
X208333Y669377D01*
X181527Y688147D01*
D02*
G37*
G36*
X230000Y464226D02*
Y455000D01*
X239226D01*
X238986Y455793D01*
X237587Y458410D01*
X235704Y460704D01*
X233410Y462587D01*
X230793Y463986D01*
X230000Y464226D01*
D02*
G37*
G36*
X220000D02*
X219207Y463986D01*
X216590Y462587D01*
X214296Y460704D01*
X212413Y458410D01*
X211014Y455793D01*
X210774Y455000D01*
X220000D01*
Y464226D01*
D02*
G37*
G36*
X179634Y733222D02*
X173680Y732649D01*
X167890Y731151D01*
X162404Y728766D01*
X157360Y725552D01*
X152880Y721589D01*
X152266Y720844D01*
X179072Y702074D01*
X197841Y728880D01*
X197009Y729370D01*
X191444Y731562D01*
X185604Y732857D01*
X179634Y733222D01*
D02*
G37*
G36*
X206033Y723144D02*
X187263Y696338D01*
X214069Y677569D01*
X214559Y678401D01*
X216751Y683966D01*
X218046Y689806D01*
X218411Y695776D01*
X217838Y701729D01*
X216340Y707520D01*
X213955Y713006D01*
X210741Y718050D01*
X206778Y722530D01*
X206033Y723144D01*
D02*
G37*
G36*
X146530Y712652D02*
X146040Y711820D01*
X143848Y706255D01*
X142553Y700415D01*
X142188Y694445D01*
X142761Y688491D01*
X144259Y682701D01*
X146644Y677215D01*
X149858Y672171D01*
X153821Y667691D01*
X154566Y667077D01*
X173336Y693883D01*
X146530Y712652D01*
D02*
G37*
G36*
X220000Y445000D02*
X210774D01*
X211014Y444207D01*
X212413Y441590D01*
X214296Y439296D01*
X216590Y437413D01*
X219207Y436014D01*
X220000Y435774D01*
Y445000D01*
D02*
G37*
G36*
X188426D02*
X179200D01*
Y435774D01*
X179993Y436014D01*
X182610Y437413D01*
X184904Y439296D01*
X186787Y441590D01*
X188186Y444207D01*
X188426Y445000D01*
D02*
G37*
G36*
X169200D02*
X159974D01*
X160214Y444207D01*
X161613Y441590D01*
X163496Y439296D01*
X165790Y437413D01*
X168407Y436014D01*
X169200Y435774D01*
Y445000D01*
D02*
G37*
G36*
X179200Y464226D02*
Y455000D01*
X188426D01*
X188186Y455793D01*
X186787Y458410D01*
X184904Y460704D01*
X182610Y462587D01*
X179993Y463986D01*
X179200Y464226D01*
D02*
G37*
G36*
X169200D02*
X168407Y463986D01*
X165790Y462587D01*
X163496Y460704D01*
X161613Y458410D01*
X160214Y455793D01*
X159974Y455000D01*
X169200D01*
Y464226D01*
D02*
G37*
G36*
X239226Y445000D02*
X230000D01*
Y435774D01*
X230793Y436014D01*
X233410Y437413D01*
X235704Y439296D01*
X237587Y441590D01*
X238986Y444207D01*
X239226Y445000D01*
D02*
G37*
G36*
X475000Y150800D02*
X465774D01*
X466014Y150007D01*
X467413Y147390D01*
X469296Y145096D01*
X471590Y143213D01*
X474207Y141814D01*
X475000Y141574D01*
Y150800D01*
D02*
G37*
G36*
X765109Y157873D02*
X759146Y157403D01*
X753330Y156007D01*
X747804Y153718D01*
X742704Y150593D01*
X741969Y149966D01*
X765109Y126826D01*
X788248Y149966D01*
X787514Y150593D01*
X782414Y153718D01*
X776888Y156007D01*
X771072Y157403D01*
X765109Y157873D01*
D02*
G37*
G36*
X485000Y119226D02*
Y110000D01*
X494226D01*
X493986Y110793D01*
X492587Y113410D01*
X490704Y115704D01*
X488410Y117587D01*
X485793Y118986D01*
X485000Y119226D01*
D02*
G37*
G36*
Y170026D02*
Y160800D01*
X494226D01*
X493986Y161593D01*
X492587Y164210D01*
X490704Y166504D01*
X488410Y168387D01*
X485793Y169786D01*
X485000Y170026D01*
D02*
G37*
G36*
X475000D02*
X474207Y169786D01*
X471590Y168387D01*
X469296Y166504D01*
X467413Y164210D01*
X466014Y161593D01*
X465774Y160800D01*
X475000D01*
Y170026D01*
D02*
G37*
G36*
X494226Y150800D02*
X485000D01*
Y141574D01*
X485793Y141814D01*
X488410Y143213D01*
X490704Y145096D01*
X492587Y147390D01*
X493986Y150007D01*
X494226Y150800D01*
D02*
G37*
G36*
Y100000D02*
X485000D01*
Y90774D01*
X485793Y91014D01*
X488410Y92413D01*
X490704Y94296D01*
X492587Y96590D01*
X493986Y99207D01*
X494226Y100000D01*
D02*
G37*
G36*
X475000D02*
X465774D01*
X466014Y99207D01*
X467413Y96590D01*
X469296Y94296D01*
X471590Y92413D01*
X474207Y91014D01*
X475000Y90774D01*
Y100000D01*
D02*
G37*
G36*
X765109Y112684D02*
X741969Y89545D01*
X742704Y88917D01*
X747804Y85792D01*
X753330Y83503D01*
X759146Y82107D01*
X765109Y81638D01*
X771072Y82107D01*
X776888Y83503D01*
X782414Y85792D01*
X787514Y88917D01*
X788248Y89545D01*
X765109Y112684D01*
D02*
G37*
G36*
X475000Y119226D02*
X474207Y118986D01*
X471590Y117587D01*
X469296Y115704D01*
X467413Y113410D01*
X466014Y110793D01*
X465774Y110000D01*
X475000D01*
Y119226D01*
D02*
G37*
G36*
X734898Y142894D02*
X734271Y142160D01*
X731146Y137060D01*
X728857Y131534D01*
X727460Y125718D01*
X726991Y119755D01*
X727460Y113792D01*
X728857Y107976D01*
X731146Y102450D01*
X734271Y97350D01*
X734898Y96616D01*
X758038Y119755D01*
X734898Y142894D01*
D02*
G37*
G36*
X795319D02*
X772180Y119755D01*
X795319Y96616D01*
X795946Y97350D01*
X799072Y102450D01*
X801361Y107976D01*
X802757Y113792D01*
X803226Y119755D01*
X802757Y125718D01*
X801361Y131534D01*
X799072Y137060D01*
X795946Y142160D01*
X795319Y142894D01*
D02*
G37*
G36*
X1485000Y1035000D02*
X1477827D01*
X1478505Y1033363D01*
X1480614Y1030614D01*
X1483363Y1028505D01*
X1485000Y1027827D01*
Y1035000D01*
D02*
G37*
G36*
X1502173D02*
X1495000D01*
Y1027827D01*
X1496637Y1028505D01*
X1499386Y1030614D01*
X1501495Y1033363D01*
X1502173Y1035000D01*
D02*
G37*
G36*
X1455068Y848186D02*
X1449105Y847716D01*
X1443289Y846320D01*
X1437763Y844031D01*
X1432663Y840906D01*
X1431929Y840278D01*
X1455068Y817139D01*
X1478207Y840278D01*
X1477473Y840906D01*
X1472373Y844031D01*
X1466847Y846320D01*
X1461031Y847716D01*
X1455068Y848186D01*
D02*
G37*
G36*
X1424858Y833207D02*
X1424230Y832473D01*
X1421105Y827373D01*
X1418816Y821847D01*
X1417420Y816031D01*
X1416951Y810068D01*
X1417420Y804105D01*
X1418816Y798289D01*
X1421105Y792763D01*
X1424230Y787663D01*
X1424858Y786929D01*
X1447997Y810068D01*
X1424858Y833207D01*
D02*
G37*
G36*
X1485278Y833207D02*
X1462139Y810068D01*
X1485278Y786929D01*
X1485906Y787663D01*
X1489031Y792763D01*
X1491320Y798289D01*
X1492716Y804105D01*
X1493186Y810068D01*
X1492716Y816031D01*
X1491320Y821847D01*
X1489031Y827373D01*
X1485906Y832473D01*
X1485278Y833207D01*
D02*
G37*
G36*
X1455068Y802997D02*
X1431929Y779858D01*
X1432663Y779230D01*
X1437763Y776105D01*
X1443289Y773816D01*
X1449105Y772420D01*
X1455068Y771951D01*
X1461031Y772420D01*
X1466847Y773816D01*
X1472373Y776105D01*
X1477473Y779230D01*
X1478207Y779858D01*
X1455068Y802997D01*
D02*
G37*
G36*
X1485000Y1052173D02*
X1483363Y1051495D01*
X1480614Y1049386D01*
X1478505Y1046637D01*
X1477827Y1045000D01*
X1485000D01*
Y1052173D01*
D02*
G37*
G36*
X1353100Y1380000D02*
X1346100D01*
X1346745Y1378444D01*
X1348828Y1375728D01*
X1351544Y1373645D01*
X1353100Y1373000D01*
Y1380000D01*
D02*
G37*
G36*
X1495000Y1052173D02*
Y1045000D01*
X1502173D01*
X1501495Y1046637D01*
X1499386Y1049386D01*
X1496637Y1051495D01*
X1495000Y1052173D01*
D02*
G37*
G36*
X1489226Y1472226D02*
Y1463000D01*
X1498452D01*
X1498212Y1463793D01*
X1496813Y1466410D01*
X1494930Y1468704D01*
X1492636Y1470587D01*
X1490019Y1471986D01*
X1489226Y1472226D01*
D02*
G37*
G36*
X1479226D02*
X1478433Y1471986D01*
X1475816Y1470587D01*
X1473522Y1468704D01*
X1471640Y1466410D01*
X1470241Y1463793D01*
X1470000Y1463000D01*
X1479226D01*
Y1472226D01*
D02*
G37*
G36*
X1498452Y1402200D02*
X1489226D01*
Y1392974D01*
X1490019Y1393215D01*
X1492636Y1394613D01*
X1494930Y1396496D01*
X1496813Y1398790D01*
X1498212Y1401407D01*
X1498452Y1402200D01*
D02*
G37*
G36*
X1370000Y1411250D02*
X1345000D01*
Y1408000D01*
X1370000D01*
Y1411250D01*
D02*
G37*
G36*
X1353100Y1397000D02*
X1351544Y1396355D01*
X1348828Y1394272D01*
X1346745Y1391556D01*
X1346100Y1390000D01*
X1353100D01*
Y1397000D01*
D02*
G37*
G36*
X1370100Y1380000D02*
X1363100D01*
Y1373000D01*
X1364656Y1373645D01*
X1367372Y1375728D01*
X1369456Y1378444D01*
X1370100Y1380000D01*
D02*
G37*
G36*
X1479226Y1402200D02*
X1470000D01*
X1470241Y1401407D01*
X1471640Y1398790D01*
X1473522Y1396496D01*
X1475816Y1394613D01*
X1478433Y1393215D01*
X1479226Y1392974D01*
Y1402200D01*
D02*
G37*
G36*
X1363100Y1397000D02*
Y1390000D01*
X1370100D01*
X1369456Y1391556D01*
X1367372Y1394272D01*
X1364656Y1396355D01*
X1363100Y1397000D01*
D02*
G37*
G36*
X1405000Y1424500D02*
X1380000D01*
Y1421250D01*
X1405000D01*
Y1424500D01*
D02*
G37*
G36*
X1498452Y1453000D02*
X1489226D01*
Y1443774D01*
X1490019Y1444015D01*
X1492636Y1445414D01*
X1494930Y1447296D01*
X1496813Y1449590D01*
X1498212Y1452207D01*
X1498452Y1453000D01*
D02*
G37*
G36*
X1479226D02*
X1470000D01*
X1470241Y1452207D01*
X1471640Y1449590D01*
X1473522Y1447296D01*
X1475816Y1445414D01*
X1478433Y1444015D01*
X1479226Y1443774D01*
Y1453000D01*
D02*
G37*
G36*
X1489226Y1421426D02*
Y1412200D01*
X1498452D01*
X1498212Y1412993D01*
X1496813Y1415610D01*
X1494930Y1417904D01*
X1492636Y1419787D01*
X1490019Y1421186D01*
X1489226Y1421426D01*
D02*
G37*
G36*
X1479226D02*
X1478433Y1421186D01*
X1475816Y1419787D01*
X1473522Y1417904D01*
X1471640Y1415610D01*
X1470241Y1412993D01*
X1470000Y1412200D01*
X1479226D01*
Y1421426D01*
D02*
G37*
G36*
X1405000Y1411250D02*
X1380000D01*
Y1408000D01*
X1405000D01*
Y1411250D01*
D02*
G37*
G36*
X1370000Y1424500D02*
X1345000D01*
Y1421250D01*
X1370000D01*
Y1424500D01*
D02*
G37*
G36*
X1405000Y1468750D02*
X1380000D01*
Y1465500D01*
X1405000D01*
Y1468750D01*
D02*
G37*
G36*
X1370000D02*
X1345000D01*
Y1465500D01*
X1370000D01*
Y1468750D01*
D02*
G37*
G36*
X1290000Y1468750D02*
X1265000D01*
Y1465500D01*
X1290000D01*
Y1468750D01*
D02*
G37*
G36*
X1255000Y1482000D02*
X1230000D01*
Y1478750D01*
X1255000D01*
Y1482000D01*
D02*
G37*
G36*
Y1468750D02*
X1230000D01*
Y1465500D01*
X1255000D01*
Y1468750D01*
D02*
G37*
G36*
X1289200Y1539226D02*
X1288407Y1538986D01*
X1285790Y1537587D01*
X1283496Y1535704D01*
X1281613Y1533410D01*
X1280214Y1530793D01*
X1279974Y1530000D01*
X1289200D01*
Y1539226D01*
D02*
G37*
G36*
X1359226Y1520000D02*
X1350000D01*
Y1510774D01*
X1350793Y1511014D01*
X1353410Y1512413D01*
X1355704Y1514296D01*
X1357587Y1516590D01*
X1358986Y1519207D01*
X1359226Y1520000D01*
D02*
G37*
G36*
X1340000D02*
X1330774D01*
X1331014Y1519207D01*
X1332413Y1516590D01*
X1334296Y1514296D01*
X1336590Y1512413D01*
X1339207Y1511014D01*
X1340000Y1510774D01*
Y1520000D01*
D02*
G37*
G36*
X1350000Y1539226D02*
Y1530000D01*
X1359226D01*
X1358986Y1530793D01*
X1357587Y1533410D01*
X1355704Y1535704D01*
X1353410Y1537587D01*
X1350793Y1538986D01*
X1350000Y1539226D01*
D02*
G37*
G36*
X1340000D02*
X1339207Y1538986D01*
X1336590Y1537587D01*
X1334296Y1535704D01*
X1332413Y1533410D01*
X1331014Y1530793D01*
X1330774Y1530000D01*
X1340000D01*
Y1539226D01*
D02*
G37*
G36*
X1299200D02*
Y1530000D01*
X1308426D01*
X1308186Y1530793D01*
X1306787Y1533410D01*
X1304904Y1535704D01*
X1302610Y1537587D01*
X1299993Y1538986D01*
X1299200Y1539226D01*
D02*
G37*
G36*
X1405000Y1482000D02*
X1380000D01*
Y1478750D01*
X1405000D01*
Y1482000D01*
D02*
G37*
G36*
X1370000D02*
X1345000D01*
Y1478750D01*
X1370000D01*
Y1482000D01*
D02*
G37*
G36*
X1290000D02*
X1265000D01*
Y1478750D01*
X1290000D01*
Y1482000D01*
D02*
G37*
G36*
X1308426Y1520000D02*
X1299200D01*
Y1510774D01*
X1299993Y1511014D01*
X1302610Y1512413D01*
X1304904Y1514296D01*
X1306787Y1516590D01*
X1308186Y1519207D01*
X1308426Y1520000D01*
D02*
G37*
G36*
X1289200D02*
X1279974D01*
X1280214Y1519207D01*
X1281613Y1516590D01*
X1283496Y1514296D01*
X1285790Y1512413D01*
X1288407Y1511014D01*
X1289200Y1510774D01*
Y1520000D01*
D02*
G37*
G36*
X968000Y1009681D02*
X967040Y1009389D01*
X964347Y1007950D01*
X961987Y1006013D01*
X960050Y1003653D01*
X958611Y1000960D01*
X958319Y1000000D01*
X968000D01*
Y1009681D01*
D02*
G37*
G36*
X978000D02*
Y1000000D01*
X987681D01*
X987389Y1000960D01*
X985950Y1003653D01*
X984013Y1006013D01*
X981653Y1007950D01*
X978960Y1009389D01*
X978000Y1009681D01*
D02*
G37*
G36*
X987681Y990000D02*
X978000D01*
Y980319D01*
X978960Y980611D01*
X981653Y982050D01*
X984013Y983987D01*
X985950Y986347D01*
X987389Y989040D01*
X987681Y990000D01*
D02*
G37*
G36*
X968000D02*
X958319D01*
X958611Y989040D01*
X960050Y986347D01*
X961987Y983987D01*
X964347Y982050D01*
X967040Y980611D01*
X968000Y980319D01*
Y990000D01*
D02*
G37*
G36*
X970000Y1324681D02*
X969040Y1324389D01*
X966347Y1322950D01*
X963987Y1321013D01*
X962050Y1318653D01*
X960611Y1315960D01*
X960319Y1315000D01*
X970000D01*
Y1324681D01*
D02*
G37*
G36*
X989681Y1305000D02*
X980000D01*
Y1295319D01*
X980960Y1295611D01*
X983653Y1297050D01*
X986013Y1298987D01*
X987950Y1301347D01*
X989389Y1304040D01*
X989681Y1305000D01*
D02*
G37*
G36*
X980000Y1324681D02*
Y1315000D01*
X989681D01*
X989389Y1315960D01*
X987950Y1318653D01*
X986013Y1321013D01*
X983653Y1322950D01*
X980960Y1324389D01*
X980000Y1324681D01*
D02*
G37*
G36*
X1276900Y1380000D02*
X1269900D01*
X1270545Y1378444D01*
X1272628Y1375728D01*
X1275344Y1373645D01*
X1276900Y1373000D01*
Y1380000D01*
D02*
G37*
G36*
X970000Y1305000D02*
X960319D01*
X960611Y1304040D01*
X962050Y1301347D01*
X963987Y1298987D01*
X966347Y1297050D01*
X969040Y1295611D01*
X970000Y1295319D01*
Y1305000D01*
D02*
G37*
G36*
Y1095000D02*
X960319D01*
X960611Y1094040D01*
X962050Y1091347D01*
X963987Y1088987D01*
X966347Y1087050D01*
X969040Y1085611D01*
X970000Y1085319D01*
Y1095000D01*
D02*
G37*
G36*
X989681D02*
X980000D01*
Y1085319D01*
X980960Y1085611D01*
X983653Y1087050D01*
X986013Y1088987D01*
X987950Y1091347D01*
X989389Y1094040D01*
X989681Y1095000D01*
D02*
G37*
G36*
X980000Y1114681D02*
Y1105000D01*
X989681D01*
X989389Y1105960D01*
X987950Y1108653D01*
X986013Y1111013D01*
X983653Y1112950D01*
X980960Y1114389D01*
X980000Y1114681D01*
D02*
G37*
G36*
X970000D02*
X969040Y1114389D01*
X966347Y1112950D01*
X963987Y1111013D01*
X962050Y1108653D01*
X960611Y1105960D01*
X960319Y1105000D01*
X970000D01*
Y1114681D01*
D02*
G37*
G36*
X1293900Y1380000D02*
X1286900D01*
Y1373000D01*
X1288456Y1373645D01*
X1291172Y1375728D01*
X1293255Y1378444D01*
X1293900Y1380000D01*
D02*
G37*
G36*
X765639Y1522780D02*
X746869Y1495974D01*
X773675Y1477204D01*
X774165Y1478037D01*
X776357Y1483602D01*
X777652Y1489441D01*
X778017Y1495411D01*
X777444Y1501365D01*
X775946Y1507156D01*
X773561Y1512641D01*
X770347Y1517686D01*
X766384Y1522166D01*
X765639Y1522780D01*
D02*
G37*
G36*
X706136Y1512288D02*
X705646Y1511456D01*
X703453Y1505891D01*
X702159Y1500051D01*
X701794Y1494081D01*
X702367Y1488127D01*
X703865Y1482336D01*
X706249Y1476851D01*
X709463Y1471806D01*
X713427Y1467327D01*
X714172Y1466712D01*
X732942Y1493518D01*
X706136Y1512288D01*
D02*
G37*
G36*
X741133Y1487782D02*
X722363Y1460977D01*
X723196Y1460486D01*
X728761Y1458294D01*
X734600Y1457000D01*
X740571Y1456635D01*
X746524Y1457208D01*
X752315Y1458705D01*
X757800Y1461090D01*
X762845Y1464304D01*
X767325Y1468268D01*
X767939Y1469013D01*
X741133Y1487782D01*
D02*
G37*
G36*
X1145000Y1474226D02*
Y1465000D01*
X1154226D01*
X1153986Y1465793D01*
X1152587Y1468410D01*
X1150704Y1470704D01*
X1148410Y1472587D01*
X1145793Y1473986D01*
X1145000Y1474226D01*
D02*
G37*
G36*
X1135000Y1474226D02*
X1134207Y1473986D01*
X1131590Y1472587D01*
X1129296Y1470704D01*
X1127413Y1468410D01*
X1126014Y1465793D01*
X1125774Y1465000D01*
X1135000D01*
Y1474226D01*
D02*
G37*
G36*
X739240Y1532858D02*
X733286Y1532285D01*
X727495Y1530787D01*
X722010Y1528402D01*
X716966Y1525188D01*
X712486Y1521225D01*
X711871Y1520479D01*
X738677Y1501710D01*
X757447Y1528516D01*
X756615Y1529006D01*
X751050Y1531198D01*
X745210Y1532493D01*
X739240Y1532858D01*
D02*
G37*
G36*
X1135000Y1455000D02*
X1125774D01*
X1126014Y1454207D01*
X1127413Y1451590D01*
X1129296Y1449296D01*
X1131590Y1447413D01*
X1134207Y1446014D01*
X1135000Y1445774D01*
Y1455000D01*
D02*
G37*
G36*
X1135000Y1404200D02*
X1125774D01*
X1126014Y1403407D01*
X1127413Y1400790D01*
X1129296Y1398496D01*
X1131590Y1396613D01*
X1134207Y1395214D01*
X1135000Y1394974D01*
Y1404200D01*
D02*
G37*
G36*
X1154226D02*
X1145000D01*
Y1394974D01*
X1145793Y1395214D01*
X1148410Y1396613D01*
X1150704Y1398496D01*
X1152587Y1400790D01*
X1153986Y1403407D01*
X1154226Y1404200D01*
D02*
G37*
G36*
X1290000Y1411250D02*
X1265000D01*
Y1408000D01*
X1290000D01*
Y1411250D01*
D02*
G37*
G36*
X1255000D02*
X1230000D01*
Y1408000D01*
X1255000D01*
Y1411250D01*
D02*
G37*
G36*
X1276900Y1397000D02*
X1275344Y1396355D01*
X1272628Y1394272D01*
X1270545Y1391556D01*
X1269900Y1390000D01*
X1276900D01*
Y1397000D01*
D02*
G37*
G36*
X1286900D02*
Y1390000D01*
X1293900D01*
X1293255Y1391556D01*
X1291172Y1394272D01*
X1288456Y1396355D01*
X1286900Y1397000D01*
D02*
G37*
G36*
X1290000Y1424500D02*
X1265000D01*
Y1421250D01*
X1290000D01*
Y1424500D01*
D02*
G37*
G36*
X1255000D02*
X1230000D01*
Y1421250D01*
X1255000D01*
Y1424500D01*
D02*
G37*
G36*
X1154226Y1455000D02*
X1145000D01*
Y1445774D01*
X1145793Y1446014D01*
X1148410Y1447413D01*
X1150704Y1449296D01*
X1152587Y1451590D01*
X1153986Y1454207D01*
X1154226Y1455000D01*
D02*
G37*
G36*
X1145000Y1423426D02*
Y1414200D01*
X1154226D01*
X1153986Y1414993D01*
X1152587Y1417610D01*
X1150704Y1419904D01*
X1148410Y1421787D01*
X1145793Y1423186D01*
X1145000Y1423426D01*
D02*
G37*
G36*
X1135000D02*
X1134207Y1423186D01*
X1131590Y1421787D01*
X1129296Y1419904D01*
X1127413Y1417610D01*
X1126014Y1414993D01*
X1125774Y1414200D01*
X1135000D01*
Y1423426D01*
D02*
G37*
%LPD*%
D10*
X1375000Y1416250D02*
D03*
Y1473750D02*
D03*
X1260000D02*
D03*
Y1416250D02*
D03*
D11*
X739905Y1494746D02*
D03*
X180299Y695110D02*
D03*
X765109Y119755D02*
D03*
X1455068Y810068D02*
D03*
D12*
X460000Y1095000D02*
D03*
X1110000Y465000D02*
D03*
D13*
X1345000Y1525000D02*
D03*
X1294200D02*
D03*
X1484226Y1407200D02*
D03*
Y1458000D02*
D03*
X480000Y105000D02*
D03*
Y155800D02*
D03*
X1140000Y1460000D02*
D03*
Y1409200D02*
D03*
X225000Y450000D02*
D03*
X174200D02*
D03*
D14*
X1115000Y1040000D02*
D03*
X1490000D02*
D03*
Y1255000D02*
D03*
X1115000D02*
D03*
D15*
X975000Y1310000D02*
D03*
X1077000D02*
D03*
X975000Y1205000D02*
D03*
X1077000D02*
D03*
X975000Y1100000D02*
D03*
X1077000D02*
D03*
X973000Y995000D02*
D03*
X1075000D02*
D03*
D16*
X1358100Y1385000D02*
D03*
X1281900D02*
D03*
D17*
X1506001Y1466001D02*
D03*
Y1446001D02*
D03*
Y1426001D02*
D03*
Y1406001D02*
D03*
Y1386001D02*
D03*
Y1366001D02*
D03*
X1486001Y1426001D02*
D03*
Y1386001D02*
D03*
Y1366001D02*
D03*
X1466001Y1466001D02*
D03*
Y1446001D02*
D03*
Y1426001D02*
D03*
Y1406001D02*
D03*
Y1386001D02*
D03*
Y1366001D02*
D03*
X1446001Y1466001D02*
D03*
Y1446001D02*
D03*
Y1426001D02*
D03*
Y1406001D02*
D03*
Y1386001D02*
D03*
Y1366001D02*
D03*
X1166001Y1506001D02*
D03*
Y1486001D02*
D03*
Y1466001D02*
D03*
Y1446001D02*
D03*
Y1426001D02*
D03*
Y1406001D02*
D03*
Y1386001D02*
D03*
Y1366001D02*
D03*
X1146001Y1506001D02*
D03*
Y1486001D02*
D03*
Y1386001D02*
D03*
Y1366001D02*
D03*
X1126001Y1506001D02*
D03*
Y1486001D02*
D03*
Y1446001D02*
D03*
Y1426001D02*
D03*
Y1386001D02*
D03*
Y1366001D02*
D03*
X1106001Y1506001D02*
D03*
Y1486001D02*
D03*
Y1466001D02*
D03*
Y1446001D02*
D03*
Y1426001D02*
D03*
Y1406001D02*
D03*
Y1386001D02*
D03*
Y1366001D02*
D03*
X1086001Y1506001D02*
D03*
Y1486001D02*
D03*
Y1466001D02*
D03*
Y1446001D02*
D03*
Y1426001D02*
D03*
Y1406001D02*
D03*
Y1386001D02*
D03*
Y1366001D02*
D03*
X846001Y1526001D02*
D03*
Y1506001D02*
D03*
Y1486001D02*
D03*
Y1466001D02*
D03*
Y1446001D02*
D03*
Y1426001D02*
D03*
Y1406001D02*
D03*
Y1386001D02*
D03*
Y1366001D02*
D03*
Y1346001D02*
D03*
X826001Y1526001D02*
D03*
Y1506001D02*
D03*
Y1486001D02*
D03*
Y1466001D02*
D03*
Y1446001D02*
D03*
Y1426001D02*
D03*
Y1406001D02*
D03*
Y1386001D02*
D03*
Y1366001D02*
D03*
Y1346001D02*
D03*
X806001Y1526001D02*
D03*
Y1506001D02*
D03*
Y1486001D02*
D03*
Y1466001D02*
D03*
Y1446001D02*
D03*
Y1426001D02*
D03*
Y1406001D02*
D03*
Y1386001D02*
D03*
Y1366001D02*
D03*
Y1346001D02*
D03*
X786001Y1466001D02*
D03*
Y1446001D02*
D03*
Y1426001D02*
D03*
Y1406001D02*
D03*
Y1386001D02*
D03*
Y1366001D02*
D03*
Y1346001D02*
D03*
X766001Y1446001D02*
D03*
Y1426001D02*
D03*
Y1406001D02*
D03*
Y1386001D02*
D03*
Y1366001D02*
D03*
Y1346001D02*
D03*
X746001Y1446001D02*
D03*
Y1426001D02*
D03*
Y1406001D02*
D03*
Y1386001D02*
D03*
Y1366001D02*
D03*
Y1346001D02*
D03*
X726001Y1446001D02*
D03*
Y1426001D02*
D03*
Y1406001D02*
D03*
Y1386001D02*
D03*
Y1366001D02*
D03*
Y1346001D02*
D03*
X706001Y1466001D02*
D03*
Y1446001D02*
D03*
Y1426001D02*
D03*
Y1406001D02*
D03*
Y1386001D02*
D03*
Y1366001D02*
D03*
Y1346001D02*
D03*
X686001Y1526001D02*
D03*
Y1506001D02*
D03*
Y1486001D02*
D03*
Y1466001D02*
D03*
Y1446001D02*
D03*
Y1426001D02*
D03*
Y1406001D02*
D03*
Y1386001D02*
D03*
Y1366001D02*
D03*
Y1346001D02*
D03*
X666001Y1526001D02*
D03*
Y1506001D02*
D03*
Y1486001D02*
D03*
Y1466001D02*
D03*
Y1446001D02*
D03*
Y1426001D02*
D03*
Y1406001D02*
D03*
Y1386001D02*
D03*
Y1366001D02*
D03*
Y1346001D02*
D03*
X646001Y1526001D02*
D03*
Y1506001D02*
D03*
Y1486001D02*
D03*
Y1466001D02*
D03*
Y1446001D02*
D03*
Y1426001D02*
D03*
Y1406001D02*
D03*
Y1386001D02*
D03*
Y1366001D02*
D03*
Y1346001D02*
D03*
X626001Y1526001D02*
D03*
Y1506001D02*
D03*
Y1486001D02*
D03*
Y1466001D02*
D03*
Y1446001D02*
D03*
Y1426001D02*
D03*
Y1406001D02*
D03*
Y1386001D02*
D03*
Y1366001D02*
D03*
X1506001Y926001D02*
D03*
Y906001D02*
D03*
Y886001D02*
D03*
Y866001D02*
D03*
Y846001D02*
D03*
Y786001D02*
D03*
Y766001D02*
D03*
Y746001D02*
D03*
Y726001D02*
D03*
Y706001D02*
D03*
X1486001Y926001D02*
D03*
Y906001D02*
D03*
Y886001D02*
D03*
Y866001D02*
D03*
Y766001D02*
D03*
Y746001D02*
D03*
Y726001D02*
D03*
Y706001D02*
D03*
X1466001Y926001D02*
D03*
Y906001D02*
D03*
Y886001D02*
D03*
Y866001D02*
D03*
Y766001D02*
D03*
Y746001D02*
D03*
Y726001D02*
D03*
Y706001D02*
D03*
X1446001Y926001D02*
D03*
Y906001D02*
D03*
Y886001D02*
D03*
Y866001D02*
D03*
Y766001D02*
D03*
Y746001D02*
D03*
Y726001D02*
D03*
Y706001D02*
D03*
X1426001Y926001D02*
D03*
Y906001D02*
D03*
Y886001D02*
D03*
Y866001D02*
D03*
Y766001D02*
D03*
Y746001D02*
D03*
Y726001D02*
D03*
Y706001D02*
D03*
X1406001Y926001D02*
D03*
Y906001D02*
D03*
Y886001D02*
D03*
Y866001D02*
D03*
Y846001D02*
D03*
Y826001D02*
D03*
Y806001D02*
D03*
Y786001D02*
D03*
Y766001D02*
D03*
Y746001D02*
D03*
Y726001D02*
D03*
Y706001D02*
D03*
X1386001Y926001D02*
D03*
Y906001D02*
D03*
Y886001D02*
D03*
Y866001D02*
D03*
Y846001D02*
D03*
Y826001D02*
D03*
Y806001D02*
D03*
Y786001D02*
D03*
Y766001D02*
D03*
Y746001D02*
D03*
Y726001D02*
D03*
Y706001D02*
D03*
X1366001Y926001D02*
D03*
Y906001D02*
D03*
Y886001D02*
D03*
Y866001D02*
D03*
Y846001D02*
D03*
Y826001D02*
D03*
Y806001D02*
D03*
Y786001D02*
D03*
Y766001D02*
D03*
Y746001D02*
D03*
Y726001D02*
D03*
Y706001D02*
D03*
X1346001Y926001D02*
D03*
Y906001D02*
D03*
Y886001D02*
D03*
Y866001D02*
D03*
Y846001D02*
D03*
Y826001D02*
D03*
Y806001D02*
D03*
Y786001D02*
D03*
Y766001D02*
D03*
Y746001D02*
D03*
Y726001D02*
D03*
Y706001D02*
D03*
X306000Y746001D02*
D03*
Y726001D02*
D03*
Y706001D02*
D03*
Y686001D02*
D03*
Y666001D02*
D03*
Y646001D02*
D03*
Y626001D02*
D03*
Y606001D02*
D03*
Y586001D02*
D03*
X286000Y746001D02*
D03*
Y726001D02*
D03*
Y706001D02*
D03*
Y686001D02*
D03*
Y666001D02*
D03*
Y646001D02*
D03*
Y626001D02*
D03*
Y606001D02*
D03*
Y586001D02*
D03*
X266000Y746001D02*
D03*
Y726001D02*
D03*
Y706001D02*
D03*
Y686001D02*
D03*
Y666001D02*
D03*
Y646001D02*
D03*
Y626001D02*
D03*
Y606001D02*
D03*
Y586001D02*
D03*
X246000Y746001D02*
D03*
Y726001D02*
D03*
Y706001D02*
D03*
Y686001D02*
D03*
Y666001D02*
D03*
Y646001D02*
D03*
Y626001D02*
D03*
Y606001D02*
D03*
Y586001D02*
D03*
X226000Y746001D02*
D03*
Y726001D02*
D03*
Y706001D02*
D03*
Y686001D02*
D03*
Y666001D02*
D03*
Y646001D02*
D03*
Y626001D02*
D03*
Y606001D02*
D03*
Y586001D02*
D03*
X206000Y746001D02*
D03*
Y726001D02*
D03*
Y646001D02*
D03*
Y626001D02*
D03*
Y606001D02*
D03*
Y586001D02*
D03*
X186000Y746001D02*
D03*
Y626001D02*
D03*
Y606001D02*
D03*
Y586001D02*
D03*
X166000Y746001D02*
D03*
Y626001D02*
D03*
Y606001D02*
D03*
Y586001D02*
D03*
X146000Y746001D02*
D03*
Y726001D02*
D03*
Y646001D02*
D03*
Y626001D02*
D03*
Y606001D02*
D03*
Y586001D02*
D03*
X126000Y746001D02*
D03*
Y726001D02*
D03*
Y706001D02*
D03*
Y686001D02*
D03*
Y666001D02*
D03*
Y646001D02*
D03*
Y626001D02*
D03*
Y606001D02*
D03*
Y586001D02*
D03*
X106000Y746001D02*
D03*
Y726001D02*
D03*
Y706001D02*
D03*
Y686001D02*
D03*
Y666001D02*
D03*
Y646001D02*
D03*
Y626001D02*
D03*
Y606001D02*
D03*
Y586001D02*
D03*
X306000Y506000D02*
D03*
Y486000D02*
D03*
Y466000D02*
D03*
Y446000D02*
D03*
Y426000D02*
D03*
Y406000D02*
D03*
Y386000D02*
D03*
X286000Y506000D02*
D03*
Y486000D02*
D03*
Y466000D02*
D03*
Y446000D02*
D03*
Y426000D02*
D03*
Y406000D02*
D03*
Y386000D02*
D03*
X266000Y506000D02*
D03*
Y486000D02*
D03*
Y466000D02*
D03*
Y446000D02*
D03*
Y426000D02*
D03*
Y406000D02*
D03*
Y386000D02*
D03*
X246000Y506000D02*
D03*
Y486000D02*
D03*
Y466000D02*
D03*
Y446000D02*
D03*
Y426000D02*
D03*
Y406000D02*
D03*
Y386000D02*
D03*
X226000Y506000D02*
D03*
Y486000D02*
D03*
Y426000D02*
D03*
Y406000D02*
D03*
Y386000D02*
D03*
X206000Y506000D02*
D03*
Y486000D02*
D03*
Y466000D02*
D03*
Y446000D02*
D03*
Y426000D02*
D03*
Y406000D02*
D03*
Y386000D02*
D03*
X186000Y506000D02*
D03*
Y486000D02*
D03*
Y466000D02*
D03*
Y426000D02*
D03*
Y406000D02*
D03*
Y386000D02*
D03*
X166000Y506000D02*
D03*
Y486000D02*
D03*
Y426000D02*
D03*
Y406000D02*
D03*
Y386000D02*
D03*
X146000Y506000D02*
D03*
Y486000D02*
D03*
Y466000D02*
D03*
Y446000D02*
D03*
Y426000D02*
D03*
Y406000D02*
D03*
Y386000D02*
D03*
X126000Y506000D02*
D03*
Y486000D02*
D03*
Y466000D02*
D03*
Y446000D02*
D03*
Y426000D02*
D03*
Y406000D02*
D03*
Y386000D02*
D03*
X106000Y506000D02*
D03*
Y486000D02*
D03*
Y466000D02*
D03*
Y446000D02*
D03*
Y426000D02*
D03*
Y406000D02*
D03*
Y386000D02*
D03*
X826001Y246000D02*
D03*
Y226000D02*
D03*
Y206000D02*
D03*
Y186000D02*
D03*
Y166000D02*
D03*
Y146000D02*
D03*
Y126000D02*
D03*
Y106000D02*
D03*
Y86000D02*
D03*
Y66000D02*
D03*
X806001Y246000D02*
D03*
Y226000D02*
D03*
Y206000D02*
D03*
Y186000D02*
D03*
Y166000D02*
D03*
Y146000D02*
D03*
Y126000D02*
D03*
Y106000D02*
D03*
Y86000D02*
D03*
Y66000D02*
D03*
X786001Y246000D02*
D03*
Y226000D02*
D03*
Y206000D02*
D03*
Y186000D02*
D03*
Y166000D02*
D03*
Y66000D02*
D03*
X766001Y246000D02*
D03*
Y226000D02*
D03*
Y206000D02*
D03*
Y186000D02*
D03*
Y166000D02*
D03*
Y66000D02*
D03*
X746001Y246000D02*
D03*
Y226000D02*
D03*
Y206000D02*
D03*
Y186000D02*
D03*
Y166000D02*
D03*
Y66000D02*
D03*
X726001Y246000D02*
D03*
Y226000D02*
D03*
Y206000D02*
D03*
Y186000D02*
D03*
Y166000D02*
D03*
Y146000D02*
D03*
Y66000D02*
D03*
X706001Y246000D02*
D03*
Y226000D02*
D03*
Y206000D02*
D03*
Y186000D02*
D03*
Y166000D02*
D03*
Y146000D02*
D03*
Y126000D02*
D03*
Y106000D02*
D03*
Y86000D02*
D03*
Y66000D02*
D03*
X686001Y246000D02*
D03*
Y226000D02*
D03*
Y206000D02*
D03*
Y186000D02*
D03*
Y166000D02*
D03*
Y146000D02*
D03*
Y126000D02*
D03*
Y106000D02*
D03*
Y86000D02*
D03*
Y66000D02*
D03*
X546000Y246000D02*
D03*
Y226000D02*
D03*
Y206000D02*
D03*
Y186000D02*
D03*
Y166000D02*
D03*
Y146000D02*
D03*
Y126000D02*
D03*
Y106000D02*
D03*
Y86000D02*
D03*
Y66000D02*
D03*
X526000Y246000D02*
D03*
Y226000D02*
D03*
Y206000D02*
D03*
Y186000D02*
D03*
Y166000D02*
D03*
Y146000D02*
D03*
Y126000D02*
D03*
Y106000D02*
D03*
Y86000D02*
D03*
Y66000D02*
D03*
X506000Y246000D02*
D03*
Y226000D02*
D03*
Y206000D02*
D03*
Y186000D02*
D03*
Y166000D02*
D03*
Y146000D02*
D03*
Y126000D02*
D03*
Y106000D02*
D03*
Y86000D02*
D03*
Y66000D02*
D03*
X486000Y246000D02*
D03*
Y226000D02*
D03*
Y206000D02*
D03*
Y186000D02*
D03*
Y86000D02*
D03*
Y66000D02*
D03*
X466000Y246000D02*
D03*
Y226000D02*
D03*
Y206000D02*
D03*
Y186000D02*
D03*
Y86000D02*
D03*
Y66000D02*
D03*
X446000Y246000D02*
D03*
Y226000D02*
D03*
Y206000D02*
D03*
Y186000D02*
D03*
Y166000D02*
D03*
Y146000D02*
D03*
Y126000D02*
D03*
Y106000D02*
D03*
Y86000D02*
D03*
Y66000D02*
D03*
X426000Y246000D02*
D03*
Y226000D02*
D03*
Y206000D02*
D03*
Y186000D02*
D03*
Y166000D02*
D03*
Y146000D02*
D03*
Y126000D02*
D03*
Y106000D02*
D03*
Y86000D02*
D03*
Y66000D02*
D03*
M02*
