G04 Layer_Color=16711935*
%FSLAX44Y44*%
%MOMM*%
G71*
G01*
G75*
%ADD25C,0.2500*%
%ADD28C,7.2032*%
%ADD29C,10.2032*%
%ADD30C,0.2032*%
%ADD31C,2.6162*%
%ADD32C,2.2352*%
%ADD33C,2.7032*%
%ADD34C,2.2032*%
%ADD35C,1.1032*%
D25*
X146258Y112611D02*
X136262D01*
Y120108D01*
X141260D01*
X136262D01*
Y127606D01*
X151257D02*
X156255D01*
X153756D01*
Y117609D01*
X151257D01*
X163753Y127606D02*
X168751D01*
X166252D01*
Y112611D01*
X163753D01*
X178748Y115110D02*
Y117609D01*
X176249D01*
X181247D01*
X178748D01*
Y125106D01*
X181247Y127606D01*
X188745Y117609D02*
Y127606D01*
Y122607D01*
X191244Y120108D01*
X193743Y117609D01*
X196242D01*
X203740Y127606D02*
X208738D01*
X206239D01*
Y112611D01*
X203740Y115110D01*
X38793Y157998D02*
Y143002D01*
X46291D01*
X48790Y145502D01*
Y150500D01*
X46291Y152999D01*
X38793D01*
X43792D02*
X48790Y157998D01*
X53788D02*
X58787D01*
X56288D01*
Y143002D01*
X53788Y145502D01*
X66284D02*
X68784Y143002D01*
X73782D01*
X76281Y145502D01*
Y155498D01*
X73782Y157998D01*
X68784D01*
X66284Y155498D01*
Y145502D01*
X81280D02*
X83779Y143002D01*
X88777D01*
X91276Y145502D01*
Y155498D01*
X88777Y157998D01*
X83779D01*
X81280Y155498D01*
Y145502D01*
X96275Y157998D02*
Y155498D01*
X98774D01*
Y157998D01*
X96275D01*
X118767D02*
X108771D01*
X118767Y148001D01*
Y145502D01*
X116268Y143002D01*
X111270D01*
X108771Y145502D01*
X123766D02*
X126265Y143002D01*
X131263D01*
X133763Y145502D01*
Y148001D01*
X131263Y150500D01*
X128764D01*
X131263D01*
X133763Y152999D01*
Y155498D01*
X131263Y157998D01*
X126265D01*
X123766Y155498D01*
X138761Y145502D02*
X141260Y143002D01*
X146259D01*
X148758Y145502D01*
Y155498D01*
X146259Y157998D01*
X141260D01*
X138761Y155498D01*
Y145502D01*
X153756Y157998D02*
Y155498D01*
X156255D01*
Y157998D01*
X153756D01*
X166252Y145502D02*
X168751Y143002D01*
X173750D01*
X176249Y145502D01*
Y155498D01*
X173750Y157998D01*
X168751D01*
X166252Y155498D01*
Y145502D01*
X188745Y157998D02*
Y143002D01*
X181247Y150500D01*
X191244D01*
X196242Y145502D02*
X198742Y143002D01*
X203740D01*
X206239Y145502D01*
Y155498D01*
X203740Y157998D01*
X198742D01*
X196242Y155498D01*
Y145502D01*
X211238Y157998D02*
Y155498D01*
X213737D01*
Y157998D01*
X211238D01*
X223734Y145502D02*
X226233Y143002D01*
X231231D01*
X233730Y145502D01*
Y155498D01*
X231231Y157998D01*
X226233D01*
X223734Y155498D01*
Y145502D01*
X238729D02*
X241228Y143002D01*
X246226D01*
X248725Y145502D01*
Y155498D01*
X246226Y157998D01*
X241228D01*
X238729Y155498D01*
Y145502D01*
X253724Y157998D02*
X258722D01*
X256223D01*
Y143002D01*
X253724Y145502D01*
X266220Y150500D02*
X276217D01*
X281215Y145502D02*
X283714Y143002D01*
X288713D01*
X291212Y145502D01*
Y155498D01*
X288713Y157998D01*
X283714D01*
X281215Y155498D01*
Y145502D01*
X296210D02*
X298709Y143002D01*
X303708D01*
X306207Y145502D01*
Y155498D01*
X303708Y157998D01*
X298709D01*
X296210Y155498D01*
Y145502D01*
D28*
X739905Y1494746D02*
D03*
X180299Y695110D02*
D03*
X765109Y119755D02*
D03*
X1455068Y810068D02*
D03*
D29*
X460000Y1095000D02*
D03*
X1110000Y465000D02*
D03*
D30*
X582873Y1008963D02*
D03*
X373964Y972127D02*
D03*
X337127Y1181037D02*
D03*
X546036Y1217873D02*
D03*
X423164Y1303909D02*
D03*
X496836Y886091D02*
D03*
X251091Y1058164D02*
D03*
X668909Y1131836D02*
D03*
X1322132Y465000D02*
D03*
X897868D02*
D03*
X1110000Y252868D02*
D03*
Y677132D02*
D03*
X1216066Y571066D02*
D03*
X1003934D02*
D03*
Y358934D02*
D03*
X1216066D02*
D03*
D31*
X1345000Y1525000D02*
D03*
X1294200D02*
D03*
X1484226Y1407200D02*
D03*
Y1458000D02*
D03*
X480000Y105000D02*
D03*
Y155800D02*
D03*
X1140000Y1460000D02*
D03*
Y1409200D02*
D03*
X225000Y450000D02*
D03*
X174200D02*
D03*
D32*
X1115000Y1040000D02*
D03*
X1490000D02*
D03*
Y1255000D02*
D03*
X1115000D02*
D03*
D33*
X975000Y1310000D02*
D03*
X1077000D02*
D03*
X975000Y1205000D02*
D03*
X1077000D02*
D03*
X975000Y1100000D02*
D03*
X1077000D02*
D03*
X973000Y995000D02*
D03*
X1075000D02*
D03*
D34*
X1358100Y1385000D02*
D03*
X1281900D02*
D03*
D35*
X1506001Y1466001D02*
D03*
Y1446001D02*
D03*
Y1426001D02*
D03*
Y1406001D02*
D03*
Y1386001D02*
D03*
Y1366001D02*
D03*
X1486001Y1426001D02*
D03*
Y1386001D02*
D03*
Y1366001D02*
D03*
X1466001Y1466001D02*
D03*
Y1446001D02*
D03*
Y1426001D02*
D03*
Y1406001D02*
D03*
Y1386001D02*
D03*
Y1366001D02*
D03*
X1446001Y1466001D02*
D03*
Y1446001D02*
D03*
Y1426001D02*
D03*
Y1406001D02*
D03*
Y1386001D02*
D03*
Y1366001D02*
D03*
X1166001Y1506001D02*
D03*
Y1486001D02*
D03*
Y1466001D02*
D03*
Y1446001D02*
D03*
Y1426001D02*
D03*
Y1406001D02*
D03*
Y1386001D02*
D03*
Y1366001D02*
D03*
X1146001Y1506001D02*
D03*
Y1486001D02*
D03*
Y1386001D02*
D03*
Y1366001D02*
D03*
X1126001Y1506001D02*
D03*
Y1486001D02*
D03*
Y1446001D02*
D03*
Y1426001D02*
D03*
Y1386001D02*
D03*
Y1366001D02*
D03*
X1106001Y1506001D02*
D03*
Y1486001D02*
D03*
Y1466001D02*
D03*
Y1446001D02*
D03*
Y1426001D02*
D03*
Y1406001D02*
D03*
Y1386001D02*
D03*
Y1366001D02*
D03*
X1086001Y1506001D02*
D03*
Y1486001D02*
D03*
Y1466001D02*
D03*
Y1446001D02*
D03*
Y1426001D02*
D03*
Y1406001D02*
D03*
Y1386001D02*
D03*
Y1366001D02*
D03*
X846001Y1526001D02*
D03*
Y1506001D02*
D03*
Y1486001D02*
D03*
Y1466001D02*
D03*
Y1446001D02*
D03*
Y1426001D02*
D03*
Y1406001D02*
D03*
Y1386001D02*
D03*
Y1366001D02*
D03*
Y1346001D02*
D03*
X826001Y1526001D02*
D03*
Y1506001D02*
D03*
Y1486001D02*
D03*
Y1466001D02*
D03*
Y1446001D02*
D03*
Y1426001D02*
D03*
Y1406001D02*
D03*
Y1386001D02*
D03*
Y1366001D02*
D03*
Y1346001D02*
D03*
X806001Y1526001D02*
D03*
Y1506001D02*
D03*
Y1486001D02*
D03*
Y1466001D02*
D03*
Y1446001D02*
D03*
Y1426001D02*
D03*
Y1406001D02*
D03*
Y1386001D02*
D03*
Y1366001D02*
D03*
Y1346001D02*
D03*
X786001Y1466001D02*
D03*
Y1446001D02*
D03*
Y1426001D02*
D03*
Y1406001D02*
D03*
Y1386001D02*
D03*
Y1366001D02*
D03*
Y1346001D02*
D03*
X766001Y1446001D02*
D03*
Y1426001D02*
D03*
Y1406001D02*
D03*
Y1386001D02*
D03*
Y1366001D02*
D03*
Y1346001D02*
D03*
X746001Y1446001D02*
D03*
Y1426001D02*
D03*
Y1406001D02*
D03*
Y1386001D02*
D03*
Y1366001D02*
D03*
Y1346001D02*
D03*
X726001Y1446001D02*
D03*
Y1426001D02*
D03*
Y1406001D02*
D03*
Y1386001D02*
D03*
Y1366001D02*
D03*
Y1346001D02*
D03*
X706001Y1466001D02*
D03*
Y1446001D02*
D03*
Y1426001D02*
D03*
Y1406001D02*
D03*
Y1386001D02*
D03*
Y1366001D02*
D03*
Y1346001D02*
D03*
X686001Y1526001D02*
D03*
Y1506001D02*
D03*
Y1486001D02*
D03*
Y1466001D02*
D03*
Y1446001D02*
D03*
Y1426001D02*
D03*
Y1406001D02*
D03*
Y1386001D02*
D03*
Y1366001D02*
D03*
Y1346001D02*
D03*
X666001Y1526001D02*
D03*
Y1506001D02*
D03*
Y1486001D02*
D03*
Y1466001D02*
D03*
Y1446001D02*
D03*
Y1426001D02*
D03*
Y1406001D02*
D03*
Y1386001D02*
D03*
Y1366001D02*
D03*
Y1346001D02*
D03*
X646001Y1526001D02*
D03*
Y1506001D02*
D03*
Y1486001D02*
D03*
Y1466001D02*
D03*
Y1446001D02*
D03*
Y1426001D02*
D03*
Y1406001D02*
D03*
Y1386001D02*
D03*
Y1366001D02*
D03*
Y1346001D02*
D03*
X626001Y1526001D02*
D03*
Y1506001D02*
D03*
Y1486001D02*
D03*
Y1466001D02*
D03*
Y1446001D02*
D03*
Y1426001D02*
D03*
Y1406001D02*
D03*
Y1386001D02*
D03*
Y1366001D02*
D03*
X1506001Y926001D02*
D03*
Y906001D02*
D03*
Y886001D02*
D03*
Y866001D02*
D03*
Y846001D02*
D03*
Y786001D02*
D03*
Y766001D02*
D03*
Y746001D02*
D03*
Y726001D02*
D03*
Y706001D02*
D03*
X1486001Y926001D02*
D03*
Y906001D02*
D03*
Y886001D02*
D03*
Y866001D02*
D03*
Y766001D02*
D03*
Y746001D02*
D03*
Y726001D02*
D03*
Y706001D02*
D03*
X1466001Y926001D02*
D03*
Y906001D02*
D03*
Y886001D02*
D03*
Y866001D02*
D03*
Y766001D02*
D03*
Y746001D02*
D03*
Y726001D02*
D03*
Y706001D02*
D03*
X1446001Y926001D02*
D03*
Y906001D02*
D03*
Y886001D02*
D03*
Y866001D02*
D03*
Y766001D02*
D03*
Y746001D02*
D03*
Y726001D02*
D03*
Y706001D02*
D03*
X1426001Y926001D02*
D03*
Y906001D02*
D03*
Y886001D02*
D03*
Y866001D02*
D03*
Y766001D02*
D03*
Y746001D02*
D03*
Y726001D02*
D03*
Y706001D02*
D03*
X1406001Y926001D02*
D03*
Y906001D02*
D03*
Y886001D02*
D03*
Y866001D02*
D03*
Y846001D02*
D03*
Y826001D02*
D03*
Y806001D02*
D03*
Y786001D02*
D03*
Y766001D02*
D03*
Y746001D02*
D03*
Y726001D02*
D03*
Y706001D02*
D03*
X1386001Y926001D02*
D03*
Y906001D02*
D03*
Y886001D02*
D03*
Y866001D02*
D03*
Y846001D02*
D03*
Y826001D02*
D03*
Y806001D02*
D03*
Y786001D02*
D03*
Y766001D02*
D03*
Y746001D02*
D03*
Y726001D02*
D03*
Y706001D02*
D03*
X1366001Y926001D02*
D03*
Y906001D02*
D03*
Y886001D02*
D03*
Y866001D02*
D03*
Y846001D02*
D03*
Y826001D02*
D03*
Y806001D02*
D03*
Y786001D02*
D03*
Y766001D02*
D03*
Y746001D02*
D03*
Y726001D02*
D03*
Y706001D02*
D03*
X1346001Y926001D02*
D03*
Y906001D02*
D03*
Y886001D02*
D03*
Y866001D02*
D03*
Y846001D02*
D03*
Y826001D02*
D03*
Y806001D02*
D03*
Y786001D02*
D03*
Y766001D02*
D03*
Y746001D02*
D03*
Y726001D02*
D03*
Y706001D02*
D03*
X306000Y746001D02*
D03*
Y726001D02*
D03*
Y706001D02*
D03*
Y686001D02*
D03*
Y666001D02*
D03*
Y646001D02*
D03*
Y626001D02*
D03*
Y606001D02*
D03*
Y586001D02*
D03*
X286000Y746001D02*
D03*
Y726001D02*
D03*
Y706001D02*
D03*
Y686001D02*
D03*
Y666001D02*
D03*
Y646001D02*
D03*
Y626001D02*
D03*
Y606001D02*
D03*
Y586001D02*
D03*
X266000Y746001D02*
D03*
Y726001D02*
D03*
Y706001D02*
D03*
Y686001D02*
D03*
Y666001D02*
D03*
Y646001D02*
D03*
Y626001D02*
D03*
Y606001D02*
D03*
Y586001D02*
D03*
X246000Y746001D02*
D03*
Y726001D02*
D03*
Y706001D02*
D03*
Y686001D02*
D03*
Y666001D02*
D03*
Y646001D02*
D03*
Y626001D02*
D03*
Y606001D02*
D03*
Y586001D02*
D03*
X226000Y746001D02*
D03*
Y726001D02*
D03*
Y706001D02*
D03*
Y686001D02*
D03*
Y666001D02*
D03*
Y646001D02*
D03*
Y626001D02*
D03*
Y606001D02*
D03*
Y586001D02*
D03*
X206000Y746001D02*
D03*
Y726001D02*
D03*
Y646001D02*
D03*
Y626001D02*
D03*
Y606001D02*
D03*
Y586001D02*
D03*
X186000Y746001D02*
D03*
Y626001D02*
D03*
Y606001D02*
D03*
Y586001D02*
D03*
X166000Y746001D02*
D03*
Y626001D02*
D03*
Y606001D02*
D03*
Y586001D02*
D03*
X146000Y746001D02*
D03*
Y726001D02*
D03*
Y646001D02*
D03*
Y626001D02*
D03*
Y606001D02*
D03*
Y586001D02*
D03*
X126000Y746001D02*
D03*
Y726001D02*
D03*
Y706001D02*
D03*
Y686001D02*
D03*
Y666001D02*
D03*
Y646001D02*
D03*
Y626001D02*
D03*
Y606001D02*
D03*
Y586001D02*
D03*
X106000Y746001D02*
D03*
Y726001D02*
D03*
Y706001D02*
D03*
Y686001D02*
D03*
Y666001D02*
D03*
Y646001D02*
D03*
Y626001D02*
D03*
Y606001D02*
D03*
Y586001D02*
D03*
X306000Y506000D02*
D03*
Y486000D02*
D03*
Y466000D02*
D03*
Y446000D02*
D03*
Y426000D02*
D03*
Y406000D02*
D03*
Y386000D02*
D03*
X286000Y506000D02*
D03*
Y486000D02*
D03*
Y466000D02*
D03*
Y446000D02*
D03*
Y426000D02*
D03*
Y406000D02*
D03*
Y386000D02*
D03*
X266000Y506000D02*
D03*
Y486000D02*
D03*
Y466000D02*
D03*
Y446000D02*
D03*
Y426000D02*
D03*
Y406000D02*
D03*
Y386000D02*
D03*
X246000Y506000D02*
D03*
Y486000D02*
D03*
Y466000D02*
D03*
Y446000D02*
D03*
Y426000D02*
D03*
Y406000D02*
D03*
Y386000D02*
D03*
X226000Y506000D02*
D03*
Y486000D02*
D03*
Y426000D02*
D03*
Y406000D02*
D03*
Y386000D02*
D03*
X206000Y506000D02*
D03*
Y486000D02*
D03*
Y466000D02*
D03*
Y446000D02*
D03*
Y426000D02*
D03*
Y406000D02*
D03*
Y386000D02*
D03*
X186000Y506000D02*
D03*
Y486000D02*
D03*
Y466000D02*
D03*
Y426000D02*
D03*
Y406000D02*
D03*
Y386000D02*
D03*
X166000Y506000D02*
D03*
Y486000D02*
D03*
Y426000D02*
D03*
Y406000D02*
D03*
Y386000D02*
D03*
X146000Y506000D02*
D03*
Y486000D02*
D03*
Y466000D02*
D03*
Y446000D02*
D03*
Y426000D02*
D03*
Y406000D02*
D03*
Y386000D02*
D03*
X126000Y506000D02*
D03*
Y486000D02*
D03*
Y466000D02*
D03*
Y446000D02*
D03*
Y426000D02*
D03*
Y406000D02*
D03*
Y386000D02*
D03*
X106000Y506000D02*
D03*
Y486000D02*
D03*
Y466000D02*
D03*
Y446000D02*
D03*
Y426000D02*
D03*
Y406000D02*
D03*
Y386000D02*
D03*
X826001Y246000D02*
D03*
Y226000D02*
D03*
Y206000D02*
D03*
Y186000D02*
D03*
Y166000D02*
D03*
Y146000D02*
D03*
Y126000D02*
D03*
Y106000D02*
D03*
Y86000D02*
D03*
Y66000D02*
D03*
X806001Y246000D02*
D03*
Y226000D02*
D03*
Y206000D02*
D03*
Y186000D02*
D03*
Y166000D02*
D03*
Y146000D02*
D03*
Y126000D02*
D03*
Y106000D02*
D03*
Y86000D02*
D03*
Y66000D02*
D03*
X786001Y246000D02*
D03*
Y226000D02*
D03*
Y206000D02*
D03*
Y186000D02*
D03*
Y166000D02*
D03*
Y66000D02*
D03*
X766001Y246000D02*
D03*
Y226000D02*
D03*
Y206000D02*
D03*
Y186000D02*
D03*
Y166000D02*
D03*
Y66000D02*
D03*
X746001Y246000D02*
D03*
Y226000D02*
D03*
Y206000D02*
D03*
Y186000D02*
D03*
Y166000D02*
D03*
Y66000D02*
D03*
X726001Y246000D02*
D03*
Y226000D02*
D03*
Y206000D02*
D03*
Y186000D02*
D03*
Y166000D02*
D03*
Y146000D02*
D03*
Y66000D02*
D03*
X706001Y246000D02*
D03*
Y226000D02*
D03*
Y206000D02*
D03*
Y186000D02*
D03*
Y166000D02*
D03*
Y146000D02*
D03*
Y126000D02*
D03*
Y106000D02*
D03*
Y86000D02*
D03*
Y66000D02*
D03*
X686001Y246000D02*
D03*
Y226000D02*
D03*
Y206000D02*
D03*
Y186000D02*
D03*
Y166000D02*
D03*
Y146000D02*
D03*
Y126000D02*
D03*
Y106000D02*
D03*
Y86000D02*
D03*
Y66000D02*
D03*
X546000Y246000D02*
D03*
Y226000D02*
D03*
Y206000D02*
D03*
Y186000D02*
D03*
Y166000D02*
D03*
Y146000D02*
D03*
Y126000D02*
D03*
Y106000D02*
D03*
Y86000D02*
D03*
Y66000D02*
D03*
X526000Y246000D02*
D03*
Y226000D02*
D03*
Y206000D02*
D03*
Y186000D02*
D03*
Y166000D02*
D03*
Y146000D02*
D03*
Y126000D02*
D03*
Y106000D02*
D03*
Y86000D02*
D03*
Y66000D02*
D03*
X506000Y246000D02*
D03*
Y226000D02*
D03*
Y206000D02*
D03*
Y186000D02*
D03*
Y166000D02*
D03*
Y146000D02*
D03*
Y126000D02*
D03*
Y106000D02*
D03*
Y86000D02*
D03*
Y66000D02*
D03*
X486000Y246000D02*
D03*
Y226000D02*
D03*
Y206000D02*
D03*
Y186000D02*
D03*
Y86000D02*
D03*
Y66000D02*
D03*
X466000Y246000D02*
D03*
Y226000D02*
D03*
Y206000D02*
D03*
Y186000D02*
D03*
Y86000D02*
D03*
Y66000D02*
D03*
X446000Y246000D02*
D03*
Y226000D02*
D03*
Y206000D02*
D03*
Y186000D02*
D03*
Y166000D02*
D03*
Y146000D02*
D03*
Y126000D02*
D03*
Y106000D02*
D03*
Y86000D02*
D03*
Y66000D02*
D03*
X426000Y246000D02*
D03*
Y226000D02*
D03*
Y206000D02*
D03*
Y186000D02*
D03*
Y166000D02*
D03*
Y146000D02*
D03*
Y126000D02*
D03*
Y106000D02*
D03*
Y86000D02*
D03*
Y66000D02*
D03*
M02*
