G04 Layer_Color=32896*
%FSLAX44Y44*%
%MOMM*%
G71*
G01*
G75*
%ADD36C,0.2000*%
%ADD52C,0.6000*%
%ADD53C,0.2500*%
%ADD54C,0.1000*%
%ADD57C,0.1270*%
D36*
X367000Y-30000D02*
X375000D01*
Y-20000D01*
X345000Y-30000D02*
X353000D01*
X345000D02*
Y-20000D01*
X60000Y151000D02*
Y183000D01*
X110000Y151000D02*
Y183000D01*
X60000D02*
X110000D01*
X60000Y151000D02*
X110000D01*
X330000Y-30000D02*
X338000D01*
Y-20000D01*
X308000Y-30000D02*
X316000D01*
X308000D02*
Y-20000D01*
D52*
X103000Y161000D02*
G03*
X103000Y161000I-3000J0D01*
G01*
D53*
X343250Y-11000D02*
G03*
X343250Y-11000I-1250J0D01*
G01*
X113800Y139750D02*
G03*
X113800Y139750I-1250J0D01*
G01*
X306250Y-11000D02*
G03*
X306250Y-11000I-1250J0D01*
G01*
D54*
X242500Y548000D02*
X271500D01*
X242500Y534000D02*
Y548000D01*
Y534000D02*
X271500D01*
Y548000D01*
X255500Y537000D02*
X258500D01*
X255500Y545000D02*
X258500D01*
X296000Y475500D02*
X304000D01*
X296000Y488500D02*
X304000D01*
X316750Y472750D02*
Y491250D01*
X283250Y472750D02*
X316750D01*
X283250D02*
Y491250D01*
X316750D01*
X398000Y58500D02*
Y61500D01*
X406000Y58500D02*
Y61500D01*
X395000Y74500D02*
X409000D01*
Y45500D02*
Y74500D01*
X395000Y45500D02*
X409000D01*
X395000D02*
Y74500D01*
X379000Y52500D02*
Y55500D01*
X387000Y52500D02*
Y55500D01*
X376000Y68500D02*
X390000D01*
Y39500D02*
Y68500D01*
X376000Y39500D02*
X390000D01*
X376000D02*
Y68500D01*
X37500Y-4000D02*
X40500D01*
X37500Y4000D02*
X40500D01*
X24500Y-7000D02*
Y7000D01*
X53500D01*
Y-7000D02*
Y7000D01*
X24500Y-7000D02*
X53500D01*
X398000Y148500D02*
Y151500D01*
X406000Y148500D02*
Y151500D01*
X395000Y164500D02*
X409000D01*
Y135500D02*
Y164500D01*
X395000Y135500D02*
X409000D01*
X395000D02*
Y164500D01*
X245500Y139000D02*
X248500D01*
X245500Y131000D02*
X248500D01*
X261500Y128000D02*
Y142000D01*
X232500Y128000D02*
X261500D01*
X232500D02*
Y142000D01*
X261500D01*
X245500Y212000D02*
X248500D01*
X245500Y204000D02*
X248500D01*
X261500Y201000D02*
Y215000D01*
X232500Y201000D02*
X261500D01*
X232500D02*
Y215000D01*
X261500D01*
X380000Y130500D02*
Y133500D01*
X388000Y130500D02*
Y133500D01*
X377000Y146500D02*
X391000D01*
Y117500D02*
Y146500D01*
X377000Y117500D02*
X391000D01*
X377000D02*
Y146500D01*
X379500Y497000D02*
X382500D01*
X379500Y505000D02*
X382500D01*
X366500Y494000D02*
Y508000D01*
X395500D01*
Y494000D02*
Y508000D01*
X366500Y494000D02*
X395500D01*
X305250Y46500D02*
Y53500D01*
X318750Y46500D02*
Y53500D01*
X303000Y32000D02*
X321000D01*
X303000D02*
Y68000D01*
X321000D01*
Y32000D02*
Y68000D01*
X320750Y116500D02*
Y123500D01*
X307250Y116500D02*
Y123500D01*
X305000Y138000D02*
X323000D01*
Y102000D02*
Y138000D01*
X305000Y102000D02*
X323000D01*
X305000D02*
Y138000D01*
X120500Y245000D02*
X123500D01*
X120500Y237000D02*
X123500D01*
X136500Y234000D02*
Y248000D01*
X107500Y234000D02*
X136500D01*
X107500D02*
Y248000D01*
X136500D01*
X155000Y67500D02*
Y70500D01*
X147000Y67500D02*
Y70500D01*
X144000Y54500D02*
X158000D01*
X144000D02*
Y83500D01*
X158000D01*
Y54500D02*
Y83500D01*
X174000Y67500D02*
Y70500D01*
X166000Y67500D02*
Y70500D01*
X163000Y54500D02*
X177000D01*
X163000D02*
Y83500D01*
X177000D01*
Y54500D02*
Y83500D01*
X193000Y67500D02*
Y70500D01*
X185000Y67500D02*
Y70500D01*
X182000Y54500D02*
X196000D01*
X182000D02*
Y83500D01*
X196000D01*
Y54500D02*
Y83500D01*
X307500Y460000D02*
X310500D01*
X307500Y468000D02*
X310500D01*
X294500Y457000D02*
Y471000D01*
X323500D01*
Y457000D02*
Y471000D01*
X294500Y457000D02*
X323500D01*
X85500Y245000D02*
X88500D01*
X85500Y253000D02*
X88500D01*
X72500Y242000D02*
Y256000D01*
X101500D01*
Y242000D02*
Y256000D01*
X72500Y242000D02*
X101500D01*
X60500Y116000D02*
X63500D01*
X60500Y124000D02*
X63500D01*
X47500Y113000D02*
Y127000D01*
X76500D01*
Y113000D02*
Y127000D01*
X47500Y113000D02*
X76500D01*
X281500Y452000D02*
X284500D01*
X281500Y444000D02*
X284500D01*
X297500Y441000D02*
Y455000D01*
X268500Y441000D02*
X297500D01*
X268500D02*
Y455000D01*
X297500D01*
X310500Y526000D02*
X313500D01*
X310500Y534000D02*
X313500D01*
X297500Y523000D02*
Y537000D01*
X326500D01*
Y523000D02*
Y537000D01*
X297500Y523000D02*
X326500D01*
X104500Y479250D02*
X111500D01*
X104500Y492750D02*
X111500D01*
X126000Y477000D02*
Y495000D01*
X90000Y477000D02*
X126000D01*
X90000D02*
Y495000D01*
X126000D01*
X54500Y488500D02*
X69500D01*
X54500Y505500D02*
X69500D01*
X37250Y486000D02*
Y508000D01*
X86750D01*
Y486000D02*
Y508000D01*
X37250Y486000D02*
X86750D01*
X311500Y505250D02*
X318500D01*
X311500Y518750D02*
X318500D01*
X333000Y503000D02*
Y521000D01*
X297000Y503000D02*
X333000D01*
X297000D02*
Y521000D01*
X333000D01*
X311500Y579750D02*
X318500D01*
X311500Y566250D02*
X318500D01*
X297000Y564000D02*
Y582000D01*
X333000D01*
Y564000D02*
Y582000D01*
X297000Y564000D02*
X333000D01*
X310500Y559000D02*
X313500D01*
X310500Y551000D02*
X313500D01*
X326500Y548000D02*
Y562000D01*
X297500Y548000D02*
X326500D01*
X297500D02*
Y562000D01*
X326500D01*
X106500Y508000D02*
X109500D01*
X106500Y500000D02*
X109500D01*
X122500Y497000D02*
Y511000D01*
X93500Y497000D02*
X122500D01*
X93500D02*
Y511000D01*
X122500D01*
X245336Y558331D02*
X247002Y559997D01*
X250334D01*
X252000Y558331D01*
Y551666D01*
X250334Y550000D01*
X247002D01*
X245336Y551666D01*
X237005Y550000D02*
Y559997D01*
X242003Y554998D01*
X235339D01*
X232006Y559997D02*
X225342D01*
Y558331D01*
X232006Y551666D01*
Y550000D01*
X380003Y-3000D02*
X386668D01*
X390000Y-6332D01*
X386668Y-9664D01*
X380003D01*
Y-12997D02*
Y-19661D01*
Y-16329D01*
X390000D01*
Y-29658D02*
Y-22994D01*
X383335Y-29658D01*
X381669D01*
X380003Y-27992D01*
Y-24660D01*
X381669Y-22994D01*
X92000Y324997D02*
Y318332D01*
X88668Y315000D01*
X85336Y318332D01*
Y324997D01*
X82003D02*
Y315000D01*
X77005D01*
X75339Y316666D01*
Y323331D01*
X77005Y324997D01*
X82003D01*
X67008Y315000D02*
Y324997D01*
X72006Y319998D01*
X65342D01*
X398000Y561997D02*
Y555332D01*
X394668Y552000D01*
X391335Y555332D01*
Y561997D01*
X388003D02*
Y552000D01*
X383005D01*
X381339Y553666D01*
Y560331D01*
X383005Y561997D01*
X388003D01*
X371342Y552000D02*
X378006D01*
X371342Y558665D01*
Y560331D01*
X373008Y561997D01*
X376340D01*
X378006Y560331D01*
X278000Y477000D02*
Y486997D01*
X273002D01*
X271336Y485331D01*
Y481998D01*
X273002Y480332D01*
X278000D01*
X274668D02*
X271336Y477000D01*
X268003D02*
X264671D01*
X266337D01*
Y486997D01*
X268003Y485331D01*
X254674Y477000D02*
Y486997D01*
X259673Y481998D01*
X253008D01*
X42003Y176000D02*
X52000D01*
Y171002D01*
X50334Y169335D01*
X43669D01*
X42003Y171002D01*
Y176000D01*
Y166003D02*
X52000D01*
Y161005D01*
X50334Y159339D01*
X43669D01*
X42003Y161005D01*
Y166003D01*
X52000Y156006D02*
Y152674D01*
Y154340D01*
X42003D01*
X43669Y156006D01*
X398669Y98336D02*
X397003Y100002D01*
Y103334D01*
X398669Y105000D01*
X405334D01*
X407000Y103334D01*
Y100002D01*
X405334Y98336D01*
X407000Y90005D02*
X397003D01*
X402002Y95003D01*
Y88339D01*
X397003Y78342D02*
X398669Y81674D01*
X402002Y85006D01*
X405334D01*
X407000Y83340D01*
Y80008D01*
X405334Y78342D01*
X403668D01*
X402002Y80008D01*
Y85006D01*
X379669Y29335D02*
X378003Y31002D01*
Y34334D01*
X379669Y36000D01*
X386334D01*
X388000Y34334D01*
Y31002D01*
X386334Y29335D01*
X388000Y21005D02*
X378003D01*
X383002Y26003D01*
Y19339D01*
X378003Y9342D02*
Y16006D01*
X383002D01*
X381335Y12674D01*
Y11008D01*
X383002Y9342D01*
X386334D01*
X388000Y11008D01*
Y14340D01*
X386334Y16006D01*
X46336Y20331D02*
X48002Y21997D01*
X51334D01*
X53000Y20331D01*
Y13666D01*
X51334Y12000D01*
X48002D01*
X46336Y13666D01*
X38005Y12000D02*
Y21997D01*
X43003Y16998D01*
X36339D01*
X33006Y20331D02*
X31340Y21997D01*
X28008D01*
X26342Y20331D01*
Y18664D01*
X28008Y16998D01*
X29674D01*
X28008D01*
X26342Y15332D01*
Y13666D01*
X28008Y12000D01*
X31340D01*
X33006Y13666D01*
X406335Y176331D02*
X408002Y177997D01*
X411334D01*
X413000Y176331D01*
Y169666D01*
X411334Y168000D01*
X408002D01*
X406335Y169666D01*
X403003Y176331D02*
X401337Y177997D01*
X398005D01*
X396339Y176331D01*
Y174664D01*
X398005Y172998D01*
X399671D01*
X398005D01*
X396339Y171332D01*
Y169666D01*
X398005Y168000D01*
X401337D01*
X403003Y169666D01*
X393007D02*
X391340Y168000D01*
X388008D01*
X386342Y169666D01*
Y176331D01*
X388008Y177997D01*
X391340D01*
X393007Y176331D01*
Y174664D01*
X391340Y172998D01*
X386342D01*
X254335Y153331D02*
X256002Y154997D01*
X259334D01*
X261000Y153331D01*
Y146666D01*
X259334Y145000D01*
X256002D01*
X254335Y146666D01*
X251003Y153331D02*
X249337Y154997D01*
X246005D01*
X244339Y153331D01*
Y151664D01*
X246005Y149998D01*
X247671D01*
X246005D01*
X244339Y148332D01*
Y146666D01*
X246005Y145000D01*
X249337D01*
X251003Y146666D01*
X241007Y153331D02*
X239340Y154997D01*
X236008D01*
X234342Y153331D01*
Y151664D01*
X236008Y149998D01*
X234342Y148332D01*
Y146666D01*
X236008Y145000D01*
X239340D01*
X241007Y146666D01*
Y148332D01*
X239340Y149998D01*
X241007Y151664D01*
Y153331D01*
X239340Y149998D02*
X236008D01*
X252335Y227331D02*
X254002Y228997D01*
X257334D01*
X259000Y227331D01*
Y220666D01*
X257334Y219000D01*
X254002D01*
X252335Y220666D01*
X249003Y227331D02*
X247337Y228997D01*
X244005D01*
X242339Y227331D01*
Y225665D01*
X244005Y223998D01*
X245671D01*
X244005D01*
X242339Y222332D01*
Y220666D01*
X244005Y219000D01*
X247337D01*
X249003Y220666D01*
X239006Y228997D02*
X232342D01*
Y227331D01*
X239006Y220666D01*
Y219000D01*
X370336Y156331D02*
X372002Y157997D01*
X375334D01*
X377000Y156331D01*
Y149666D01*
X375334Y148000D01*
X372002D01*
X370336Y149666D01*
X367003Y156331D02*
X365337Y157997D01*
X362005D01*
X360339Y156331D01*
Y154664D01*
X362005Y152998D01*
X363671D01*
X362005D01*
X360339Y151332D01*
Y149666D01*
X362005Y148000D01*
X365337D01*
X367003Y149666D01*
X350342Y157997D02*
X353674Y156331D01*
X357006Y152998D01*
Y149666D01*
X355340Y148000D01*
X352008D01*
X350342Y149666D01*
Y151332D01*
X352008Y152998D01*
X357006D01*
X387336Y519331D02*
X389002Y520997D01*
X392334D01*
X394000Y519331D01*
Y512666D01*
X392334Y511000D01*
X389002D01*
X387336Y512666D01*
X384003Y519331D02*
X382337Y520997D01*
X379005D01*
X377339Y519331D01*
Y517664D01*
X379005Y515998D01*
X380671D01*
X379005D01*
X377339Y514332D01*
Y512666D01*
X379005Y511000D01*
X382337D01*
X384003Y512666D01*
X367342Y520997D02*
X374006D01*
Y515998D01*
X370674Y517664D01*
X369008D01*
X367342Y515998D01*
Y512666D01*
X369008Y511000D01*
X372340D01*
X374006Y512666D01*
X313857Y83019D02*
X315524Y84685D01*
X318856D01*
X320522Y83019D01*
Y76354D01*
X318856Y74688D01*
X315524D01*
X313857Y76354D01*
X310525Y83019D02*
X308859Y84685D01*
X305527D01*
X303861Y83019D01*
Y81353D01*
X305527Y79686D01*
X307193D01*
X305527D01*
X303861Y78020D01*
Y76354D01*
X305527Y74688D01*
X308859D01*
X310525Y76354D01*
X293864Y74688D02*
X300528D01*
X293864Y81353D01*
Y83019D01*
X295530Y84685D01*
X298862D01*
X300528Y83019D01*
X314335Y150331D02*
X316002Y151997D01*
X319334D01*
X321000Y150331D01*
Y143666D01*
X319334Y142000D01*
X316002D01*
X314335Y143666D01*
X311003Y150331D02*
X309337Y151997D01*
X306005D01*
X304339Y150331D01*
Y148665D01*
X306005Y146998D01*
X307671D01*
X306005D01*
X304339Y145332D01*
Y143666D01*
X306005Y142000D01*
X309337D01*
X311003Y143666D01*
X301006Y142000D02*
X297674D01*
X299340D01*
Y151997D01*
X301006Y150331D01*
X160336Y245331D02*
X162002Y246997D01*
X165334D01*
X167000Y245331D01*
Y238666D01*
X165334Y237000D01*
X162002D01*
X160336Y238666D01*
X150339Y237000D02*
X157003D01*
X150339Y243664D01*
Y245331D01*
X152005Y246997D01*
X155337D01*
X157003Y245331D01*
X147006Y238666D02*
X145340Y237000D01*
X142008D01*
X140342Y238666D01*
Y245331D01*
X142008Y246997D01*
X145340D01*
X147006Y245331D01*
Y243664D01*
X145340Y241998D01*
X140342D01*
X147669Y45335D02*
X146003Y47002D01*
Y50334D01*
X147669Y52000D01*
X154334D01*
X156000Y50334D01*
Y47002D01*
X154334Y45335D01*
X156000Y35339D02*
Y42003D01*
X149335Y35339D01*
X147669D01*
X146003Y37005D01*
Y40337D01*
X147669Y42003D01*
Y32006D02*
X146003Y30340D01*
Y27008D01*
X147669Y25342D01*
X149335D01*
X151002Y27008D01*
X152668Y25342D01*
X154334D01*
X156000Y27008D01*
Y30340D01*
X154334Y32006D01*
X152668D01*
X151002Y30340D01*
X149335Y32006D01*
X147669D01*
X151002Y30340D02*
Y27008D01*
X166669Y45335D02*
X165003Y47002D01*
Y50334D01*
X166669Y52000D01*
X173334D01*
X175000Y50334D01*
Y47002D01*
X173334Y45335D01*
X175000Y35339D02*
Y42003D01*
X168335Y35339D01*
X166669D01*
X165003Y37005D01*
Y40337D01*
X166669Y42003D01*
X165003Y32006D02*
Y25342D01*
X166669D01*
X173334Y32006D01*
X175000D01*
X185669Y45335D02*
X184003Y47002D01*
Y50334D01*
X185669Y52000D01*
X192334D01*
X194000Y50334D01*
Y47002D01*
X192334Y45335D01*
X194000Y35339D02*
Y42003D01*
X187335Y35339D01*
X185669D01*
X184003Y37005D01*
Y40337D01*
X185669Y42003D01*
X184003Y25342D02*
X185669Y28674D01*
X189002Y32006D01*
X192334D01*
X194000Y30340D01*
Y27008D01*
X192334Y25342D01*
X190668D01*
X189002Y27008D01*
Y32006D01*
X348335Y465331D02*
X350002Y466997D01*
X353334D01*
X355000Y465331D01*
Y458666D01*
X353334Y457000D01*
X350002D01*
X348335Y458666D01*
X338339Y457000D02*
X345003D01*
X338339Y463665D01*
Y465331D01*
X340005Y466997D01*
X343337D01*
X345003Y465331D01*
X330008Y457000D02*
Y466997D01*
X335006Y461998D01*
X328342D01*
X99335Y267331D02*
X101002Y268997D01*
X104334D01*
X106000Y267331D01*
Y260666D01*
X104334Y259000D01*
X101002D01*
X99335Y260666D01*
X89339Y259000D02*
X96003D01*
X89339Y265665D01*
Y267331D01*
X91005Y268997D01*
X94337D01*
X96003Y267331D01*
X86006D02*
X84340Y268997D01*
X81008D01*
X79342Y267331D01*
Y260666D01*
X81008Y259000D01*
X84340D01*
X86006Y260666D01*
Y267331D01*
X64335Y108331D02*
X66002Y109997D01*
X69334D01*
X71000Y108331D01*
Y101666D01*
X69334Y100000D01*
X66002D01*
X64335Y101666D01*
X61003Y100000D02*
X57671D01*
X59337D01*
Y109997D01*
X61003Y108331D01*
X46008Y109997D02*
X49340Y108331D01*
X52673Y104998D01*
Y101666D01*
X51006Y100000D01*
X47674D01*
X46008Y101666D01*
Y103332D01*
X47674Y104998D01*
X52673D01*
X287335Y436331D02*
X289002Y437997D01*
X292334D01*
X294000Y436331D01*
Y429666D01*
X292334Y428000D01*
X289002D01*
X287335Y429666D01*
X284003Y428000D02*
X280671D01*
X282337D01*
Y437997D01*
X284003Y436331D01*
X275673D02*
X274006Y437997D01*
X270674D01*
X269008Y436331D01*
Y434664D01*
X270674Y432998D01*
X272340D01*
X270674D01*
X269008Y431332D01*
Y429666D01*
X270674Y428000D01*
X274006D01*
X275673Y429666D01*
X286336Y521331D02*
X288002Y522997D01*
X291334D01*
X293000Y521331D01*
Y514666D01*
X291334Y513000D01*
X288002D01*
X286336Y514666D01*
X283003Y513000D02*
X279671D01*
X281337D01*
Y522997D01*
X283003Y521331D01*
X274673D02*
X273006Y522997D01*
X269674D01*
X268008Y521331D01*
Y514666D01*
X269674Y513000D01*
X273006D01*
X274673Y514666D01*
Y521331D01*
X109335Y471331D02*
X111002Y472997D01*
X114334D01*
X116000Y471331D01*
Y464666D01*
X114334Y463000D01*
X111002D01*
X109335Y464666D01*
X99339Y472997D02*
X102671Y471331D01*
X106003Y467998D01*
Y464666D01*
X104337Y463000D01*
X101005D01*
X99339Y464666D01*
Y466332D01*
X101005Y467998D01*
X106003D01*
X61336Y521331D02*
X63002Y522997D01*
X66334D01*
X68000Y521331D01*
Y514666D01*
X66334Y513000D01*
X63002D01*
X61336Y514666D01*
X51339Y522997D02*
X58003D01*
Y517998D01*
X54671Y519664D01*
X53005D01*
X51339Y517998D01*
Y514666D01*
X53005Y513000D01*
X56337D01*
X58003Y514666D01*
X286336Y508331D02*
X288002Y509997D01*
X291334D01*
X293000Y508331D01*
Y501666D01*
X291334Y500000D01*
X288002D01*
X286336Y501666D01*
X278005Y500000D02*
Y509997D01*
X283003Y504998D01*
X276339D01*
X322336Y593331D02*
X324002Y594997D01*
X327334D01*
X329000Y593331D01*
Y586666D01*
X327334Y585000D01*
X324002D01*
X322336Y586666D01*
X312339Y585000D02*
X319003D01*
X312339Y591665D01*
Y593331D01*
X314005Y594997D01*
X317337D01*
X319003Y593331D01*
X341335Y558331D02*
X343002Y559997D01*
X346334D01*
X348000Y558331D01*
Y551666D01*
X346334Y550000D01*
X343002D01*
X341335Y551666D01*
X338003Y550000D02*
X334671D01*
X336337D01*
Y559997D01*
X338003Y558331D01*
X100336Y523331D02*
X102002Y524997D01*
X105334D01*
X107000Y523331D01*
Y516666D01*
X105334Y515000D01*
X102002D01*
X100336Y516666D01*
X97003Y524997D02*
X90339D01*
Y523331D01*
X97003Y516666D01*
Y515000D01*
X289003Y-3000D02*
X295668D01*
X299000Y-6332D01*
X295668Y-9664D01*
X289003D01*
Y-12997D02*
Y-19661D01*
Y-16329D01*
X299000D01*
Y-22994D02*
Y-26326D01*
Y-24660D01*
X289003D01*
X290669Y-22994D01*
X2750Y317252D02*
X9414D01*
X6082Y313919D02*
Y320584D01*
X350750Y535252D02*
X357415D01*
X354082Y531919D02*
Y538584D01*
X260000Y346000D02*
Y355997D01*
X256668Y352664D01*
X253335Y355997D01*
Y346000D01*
X245005D02*
X248337D01*
X250003Y347666D01*
Y350998D01*
X248337Y352664D01*
X245005D01*
X243339Y350998D01*
Y349332D01*
X250003D01*
X238340Y352664D02*
X235008D01*
X233342Y350998D01*
Y346000D01*
X238340D01*
X240006Y347666D01*
X238340Y349332D01*
X233342D01*
X230010Y346000D02*
X225011D01*
X223345Y347666D01*
X225011Y349332D01*
X228344D01*
X230010Y350998D01*
X228344Y352664D01*
X223345D01*
X215014Y355997D02*
X218347D01*
X220013Y354331D01*
Y347666D01*
X218347Y346000D01*
X215014D01*
X213348Y347666D01*
Y354331D01*
X215014Y355997D01*
X210016Y352664D02*
Y347666D01*
X208350Y346000D01*
X203352D01*
Y352664D01*
X198353Y354331D02*
Y352664D01*
X200019D01*
X196687D01*
X198353D01*
Y347666D01*
X196687Y346000D01*
X191689Y355997D02*
Y347666D01*
X190023Y346000D01*
X186690D01*
X185024Y347666D01*
Y355997D01*
X181692D02*
X178360D01*
X180026D01*
Y346000D01*
X181692D01*
X178360D01*
X300000Y363000D02*
Y372997D01*
X295002D01*
X293335Y371331D01*
Y367998D01*
X295002Y366332D01*
X300000D01*
X296668D02*
X293335Y363000D01*
X290003D02*
X286671D01*
X288337D01*
Y372997D01*
X290003Y371331D01*
X281673D02*
X280007Y372997D01*
X276674D01*
X275008Y371331D01*
Y364666D01*
X276674Y363000D01*
X280007D01*
X281673Y364666D01*
Y371331D01*
X271676D02*
X270010Y372997D01*
X266677D01*
X265011Y371331D01*
Y364666D01*
X266677Y363000D01*
X270010D01*
X271676Y364666D01*
Y371331D01*
X261679Y363000D02*
Y364666D01*
X260013D01*
Y363000D01*
X261679D01*
X246684D02*
X253348D01*
X246684Y369664D01*
Y371331D01*
X248350Y372997D01*
X251682D01*
X253348Y371331D01*
X243352D02*
X241686Y372997D01*
X238353D01*
X236687Y371331D01*
Y369664D01*
X238353Y367998D01*
X240019D01*
X238353D01*
X236687Y366332D01*
Y364666D01*
X238353Y363000D01*
X241686D01*
X243352Y364666D01*
X233355Y371331D02*
X231689Y372997D01*
X228356D01*
X226690Y371331D01*
Y364666D01*
X228356Y363000D01*
X231689D01*
X233355Y364666D01*
Y371331D01*
X223358Y363000D02*
Y364666D01*
X221692D01*
Y363000D01*
X223358D01*
X215027Y371331D02*
X213361Y372997D01*
X210029D01*
X208363Y371331D01*
Y364666D01*
X210029Y363000D01*
X213361D01*
X215027Y364666D01*
Y371331D01*
X205031D02*
X203365Y372997D01*
X200032D01*
X198366Y371331D01*
Y369664D01*
X200032Y367998D01*
X198366Y366332D01*
Y364666D01*
X200032Y363000D01*
X203365D01*
X205031Y364666D01*
Y366332D01*
X203365Y367998D01*
X205031Y369664D01*
Y371331D01*
X203365Y367998D02*
X200032D01*
X195034Y371331D02*
X193368Y372997D01*
X190035D01*
X188369Y371331D01*
Y364666D01*
X190035Y363000D01*
X193368D01*
X195034Y364666D01*
Y371331D01*
X185037Y363000D02*
Y364666D01*
X183371D01*
Y363000D01*
X185037D01*
X176706Y371331D02*
X175040Y372997D01*
X171708D01*
X170042Y371331D01*
Y364666D01*
X171708Y363000D01*
X175040D01*
X176706Y364666D01*
Y371331D01*
X166710D02*
X165044Y372997D01*
X161711D01*
X160045Y371331D01*
Y364666D01*
X161711Y363000D01*
X165044D01*
X166710Y364666D01*
Y371331D01*
X156713Y363000D02*
X153381D01*
X155047D01*
Y372997D01*
X156713Y371331D01*
X148382Y367998D02*
X141718D01*
X138385Y371331D02*
X136719Y372997D01*
X133387D01*
X131721Y371331D01*
Y364666D01*
X133387Y363000D01*
X136719D01*
X138385Y364666D01*
Y371331D01*
X128389D02*
X126722Y372997D01*
X123390D01*
X121724Y371331D01*
Y364666D01*
X123390Y363000D01*
X126722D01*
X128389Y364666D01*
Y371331D01*
D57*
X11000Y307750D02*
X61000D01*
Y330250D01*
X11000D02*
X61000D01*
X11000Y307750D02*
Y330250D01*
X359000Y525750D02*
X409000D01*
Y548250D01*
X359000D02*
X409000D01*
X359000Y525750D02*
Y548250D01*
M02*
