G04 Layer_Color=16711935*
%FSLAX44Y44*%
%MOMM*%
G71*
G01*
G75*
%ADD38R,4.8000X6.5000*%
%ADD59R,1.2032X1.3032*%
%ADD63R,1.1032X1.7032*%
%ADD72O,0.8032X1.7532*%
%ADD73R,0.8032X1.7532*%
%ADD78R,1.6532X2.1032*%
%ADD79R,1.3032X1.2032*%
%ADD81C,2.1032*%
%ADD82R,2.1032X2.1032*%
%ADD83C,1.5632*%
%ADD84R,1.5632X1.5632*%
%ADD85R,1.6032X1.6032*%
%ADD86C,1.6032*%
%ADD87C,0.2032*%
%ADD88C,1.5032*%
%ADD89C,1.1032*%
%ADD90R,0.8032X1.2032*%
%ADD91R,1.3032X1.9532*%
%ADD92R,1.7032X1.4032*%
%ADD93R,1.4032X1.7032*%
G36*
X449000Y-50000D02*
X405000D01*
Y-15000D01*
X449000D01*
Y-50000D01*
D02*
G37*
D38*
X426000Y617500D02*
D03*
D59*
X249000Y541000D02*
D03*
X265000D02*
D03*
X31000Y0D02*
D03*
X47000D02*
D03*
X255000Y135000D02*
D03*
X239000D02*
D03*
X255000Y208000D02*
D03*
X239000D02*
D03*
X373000Y501000D02*
D03*
X389000D02*
D03*
X130000Y241000D02*
D03*
X114000D02*
D03*
X301000Y464000D02*
D03*
X317000D02*
D03*
X79000Y249000D02*
D03*
X95000D02*
D03*
X54000Y120000D02*
D03*
X70000D02*
D03*
X291000Y448000D02*
D03*
X275000D02*
D03*
X304000Y530000D02*
D03*
X320000D02*
D03*
X320000Y555000D02*
D03*
X304000D02*
D03*
X116000Y504000D02*
D03*
X100000D02*
D03*
D63*
X289500Y482000D02*
D03*
X310500D02*
D03*
D72*
X65950Y194250D02*
D03*
X78650D02*
D03*
X91350D02*
D03*
X104050D02*
D03*
X65950Y139750D02*
D03*
X78650D02*
D03*
X91350D02*
D03*
D73*
X104050D02*
D03*
D78*
X46000Y497000D02*
D03*
X78000D02*
D03*
D79*
X402000Y68000D02*
D03*
Y52000D02*
D03*
X383000Y62000D02*
D03*
Y46000D02*
D03*
X402000Y158000D02*
D03*
Y142000D02*
D03*
X384000Y140000D02*
D03*
Y124000D02*
D03*
X151000Y61000D02*
D03*
Y77000D02*
D03*
X170000Y61000D02*
D03*
Y77000D02*
D03*
X189000Y61000D02*
D03*
Y77000D02*
D03*
D81*
X401000Y337800D02*
D03*
Y312400D02*
D03*
Y236200D02*
D03*
Y261600D02*
D03*
Y287000D02*
D03*
Y363200D02*
D03*
Y388600D02*
D03*
D82*
Y210800D02*
D03*
D83*
X20000Y267000D02*
D03*
Y241600D02*
D03*
Y216200D02*
D03*
Y140000D02*
D03*
D84*
Y114600D02*
D03*
D85*
X113000Y10000D02*
D03*
Y-15000D02*
D03*
D86*
X133000Y10000D02*
D03*
X153000D02*
D03*
X173000D02*
D03*
X193000D02*
D03*
X213000D02*
D03*
X133000Y-15000D02*
D03*
X153000D02*
D03*
X173000D02*
D03*
X193000D02*
D03*
X213000D02*
D03*
D87*
X93000Y-2700D02*
D03*
X412000Y-33000D02*
D03*
Y-21000D02*
D03*
Y-45000D02*
D03*
X428000D02*
D03*
Y-21000D02*
D03*
Y-33000D02*
D03*
X444000D02*
D03*
Y-21000D02*
D03*
Y-45000D02*
D03*
X443000Y619000D02*
D03*
Y643000D02*
D03*
Y631000D02*
D03*
X427000D02*
D03*
Y643000D02*
D03*
Y619000D02*
D03*
X411000D02*
D03*
Y643000D02*
D03*
Y631000D02*
D03*
Y607000D02*
D03*
X427000D02*
D03*
X443000D02*
D03*
X411000Y594000D02*
D03*
X427000D02*
D03*
X443000D02*
D03*
D88*
X132000Y47000D02*
D03*
X18750Y286250D02*
D03*
X63000Y297000D02*
D03*
X20000Y365020D02*
D03*
X72000Y632000D02*
D03*
X122000D02*
D03*
X153000Y611000D02*
D03*
X21000Y89000D02*
D03*
X59000Y-18000D02*
D03*
X79000Y46000D02*
D03*
X135000Y67000D02*
D03*
X81000Y97000D02*
D03*
X252000Y61000D02*
D03*
X226000Y61000D02*
D03*
X220000Y253000D02*
D03*
X255000D02*
D03*
X388000Y441000D02*
D03*
X372500Y456500D02*
D03*
X414999Y553999D02*
D03*
X295000Y408000D02*
D03*
X260000D02*
D03*
X275000Y284000D02*
D03*
Y316000D02*
D03*
X52000Y352000D02*
D03*
X52000Y383000D02*
D03*
D89*
X150000Y25000D02*
D03*
X150000Y78000D02*
D03*
X206000Y95000D02*
D03*
X95000Y25000D02*
D03*
X341000Y482000D02*
D03*
X283000Y597000D02*
D03*
X277000Y541000D02*
D03*
X235000D02*
D03*
X370000Y592000D02*
D03*
X304999Y496999D02*
D03*
X370000Y389000D02*
D03*
X357000Y185000D02*
D03*
X168000Y574000D02*
D03*
Y562000D02*
D03*
Y550000D02*
D03*
X156000Y574000D02*
D03*
Y562000D02*
D03*
Y550000D02*
D03*
X144000Y562000D02*
D03*
Y550000D02*
D03*
X132000Y562000D02*
D03*
Y550000D02*
D03*
X120000Y562000D02*
D03*
Y550000D02*
D03*
X96000Y574000D02*
D03*
Y562000D02*
D03*
Y550000D02*
D03*
X84000Y574000D02*
D03*
X328000Y108000D02*
D03*
X337000Y92000D02*
D03*
Y182000D02*
D03*
X326000Y128000D02*
D03*
X354000Y528000D02*
D03*
X138000Y612000D02*
D03*
X20000Y463000D02*
D03*
X346000Y-38000D02*
D03*
X314000Y242000D02*
D03*
Y221000D02*
D03*
X371999Y117000D02*
D03*
X327000Y33000D02*
D03*
X326999Y47000D02*
D03*
X357000Y39000D02*
D03*
X354999Y127000D02*
D03*
X353000Y139000D02*
D03*
X352460Y65111D02*
D03*
X369999Y66000D02*
D03*
X403000Y53000D02*
D03*
X400000Y143000D02*
D03*
X371000Y174000D02*
D03*
X369000Y35000D02*
D03*
X382999Y70000D02*
D03*
X384000Y102000D02*
D03*
Y151000D02*
D03*
X90000Y273000D02*
D03*
X104000Y126000D02*
D03*
X54000Y139000D02*
D03*
X156000Y100000D02*
D03*
X168000D02*
D03*
X267000Y121000D02*
D03*
X229000Y123000D02*
D03*
X143000Y140000D02*
D03*
X184000D02*
D03*
X130000Y225000D02*
D03*
X116000Y226000D02*
D03*
X147000Y190000D02*
D03*
X189000D02*
D03*
X78000Y214000D02*
D03*
X91000Y211000D02*
D03*
X78000Y236000D02*
D03*
X267000Y204000D02*
D03*
X229000Y203000D02*
D03*
X115000Y516540D02*
D03*
X125000Y506000D02*
D03*
X77000Y500000D02*
D03*
X46000Y498000D02*
D03*
X291000Y556000D02*
D03*
X292000Y529000D02*
D03*
X289000Y483000D02*
D03*
X244000Y467000D02*
D03*
X410000Y537000D02*
D03*
X406000Y512000D02*
D03*
X361000Y492000D02*
D03*
X81000Y447500D02*
D03*
X81000Y434999D02*
D03*
Y422999D02*
D03*
Y410999D02*
D03*
X66000Y410000D02*
D03*
X20000Y451000D02*
D03*
X20000Y438999D02*
D03*
Y426999D02*
D03*
X20000Y415000D02*
D03*
X309000Y-36000D02*
D03*
X16000Y-31000D02*
D03*
D90*
X360000Y-35000D02*
D03*
X369500Y-11000D02*
D03*
X350500D02*
D03*
X323000Y-35000D02*
D03*
X332500Y-11000D02*
D03*
X313500D02*
D03*
D91*
X53250Y319000D02*
D03*
X18750D02*
D03*
X401250Y537000D02*
D03*
X366750D02*
D03*
D92*
X312000Y60500D02*
D03*
Y39500D02*
D03*
X314000Y109500D02*
D03*
Y130500D02*
D03*
D93*
X97500Y486000D02*
D03*
X118500D02*
D03*
X304500Y512000D02*
D03*
X325500D02*
D03*
Y573000D02*
D03*
X304500D02*
D03*
M02*
