M48
;Layer_Color=9474304
;FILE_FORMAT=4:4
METRIC,LZ
;TYPE=PLATED
T1F00S00C0.5000
T2F00S00C0.7000
T3F00S00C0.8000
T4F00S00C1.0000
T5F00S00C1.5000
%
T01
X00016Y-00031
X00095Y00025
X0015Y00025
X00327Y00033
X00357Y00039
X00369Y00035
X00346Y-00038
X00309Y-00036
X00326999Y00047
X0035246Y00065111
X00369999Y00066
X00382999Y0007
X00384Y00102
X00371999Y00117
X00354999Y00127
X00353Y00139
X00326Y00128
X00328Y00108
X00337Y00092
Y00182
X00357Y00185
X00371Y00174
X00384Y00151
X004Y00143
X00403Y00053
X00267Y00121
X00229Y00123
X00206Y00095
X00168Y001
X00156
X0015Y00078
X00143Y0014
X00184
X00189Y0019
X00147
X0013Y00225
X00116Y00226
X00104Y00126
X00229Y00203
X00267Y00204
X00314Y00221
Y00242
X0037Y00389
X00081Y00410999
Y00422999
Y00434999
X00066Y0041
X0002Y00415
X0002Y00426999
Y00438999
X0009Y00273
X00078Y00236
X00078Y00214
X00091Y00211
X00054Y00139
X00081Y004475
X00077Y005
X00046Y00498
X0002Y00463
Y00451
X00096Y0055
Y00562
Y00574
X00084
X0012Y00562
X00132
X00144
X00156
X00168
Y00574
X00156
Y0055
X00168
X00144
X00132
X0012
X00115Y0051654
X00125Y00506
X00138Y00612
X00283Y00597
X00291Y00556
X00292Y00529
X00277Y00541
X00235
X00244Y00467
X00289Y00483
X00304999Y00496999
X00341Y00482
X00361Y00492
X00354Y00528
X0041Y00537
X00406Y00512
X0037Y00592
T02
X00059Y-00018
X00079Y00046
X00412Y-00021
Y-00033
Y-00045
X00428
Y-00033
Y-00021
X00444
Y-00033
Y-00045
X00252Y00061
X00226Y00061
X00135Y00067
X00132Y00047
X0022Y00253
X00255
X00275Y00284
Y00316
X0026Y00408
X00295
X00388Y00441
X00052Y00383
X00052Y00352
X0002Y0036502
X0001875Y0028625
X00063Y00297
X00081Y00097
X00021Y00089
X00072Y00632
X00122
X00153Y00611
X00411Y00607
Y00619
Y00631
Y00643
X00427
Y00631
Y00619
Y00607
Y00594
X00443
Y00607
Y00619
Y00631
Y00643
X00411Y00594
X00414999Y00553999
X003725Y004565
T03
X00113Y-00015
X00133
X00153
X00173
X00193
X00213
Y0001
X00193
X00173
X00153
X00133
X00113
X0002Y001146
Y0014
Y002162
Y002416
Y00267
T04
X00401Y002108
Y002362
Y002616
Y00287
Y003124
Y003378
Y003632
Y003886
T05
X00093Y-000027
M30
