G04 Layer_Color=8388736*
%FSLAX44Y44*%
%MOMM*%
G71*
G01*
G75*
%ADD38R,4.8000X6.5000*%
%ADD59R,1.2032X1.3032*%
%ADD60O,0.4826X1.6032*%
%ADD61R,0.4826X1.6032*%
%ADD62R,1.7032X1.1032*%
%ADD63R,1.1032X1.7032*%
%ADD64R,0.9032X1.3032*%
%ADD65R,0.6532X1.3032*%
%ADD66R,1.7018X1.3970*%
%ADD67R,0.6532X1.2532*%
%ADD68R,2.0532X1.3032*%
%ADD69R,1.0032X1.2532*%
%ADD70R,1.2532X1.0032*%
%ADD71R,2.3876X2.8002*%
%ADD72O,0.8032X1.7532*%
%ADD73R,0.8032X1.7532*%
%ADD74O,0.8032X2.5032*%
%ADD75R,1.5532X0.6223*%
%ADD76O,1.5532X0.6223*%
%ADD77R,1.5032X0.9032*%
%ADD78R,1.6532X2.1032*%
%ADD79R,1.3032X1.2032*%
%ADD80R,1.3532X3.0032*%
%ADD81C,2.1032*%
%ADD82R,2.1032X2.1032*%
%ADD83C,1.5632*%
%ADD84R,1.5632X1.5632*%
%ADD85R,1.6032X1.6032*%
%ADD86C,1.6032*%
%ADD87C,0.2032*%
%ADD88C,1.5032*%
%ADD89C,1.1032*%
G36*
X449000Y-50000D02*
X405000D01*
Y-15000D01*
X449000D01*
Y-50000D01*
D02*
G37*
D38*
X426000Y617500D02*
D03*
D59*
X26000Y300000D02*
D03*
X42000D02*
D03*
X389000Y472000D02*
D03*
X373000D02*
D03*
X393000Y536000D02*
D03*
X377000D02*
D03*
X134000Y83000D02*
D03*
X118000D02*
D03*
X284000Y497000D02*
D03*
X268000D02*
D03*
X81000Y116000D02*
D03*
X97000D02*
D03*
X138000Y612000D02*
D03*
X122000D02*
D03*
X163000Y503000D02*
D03*
X147000D02*
D03*
X81000Y62000D02*
D03*
X97000D02*
D03*
X81000Y83000D02*
D03*
X97000D02*
D03*
X127000Y484000D02*
D03*
X111000D02*
D03*
X102000Y500000D02*
D03*
X86000D02*
D03*
D60*
X170000Y593500D02*
D03*
X165000D02*
D03*
X160000D02*
D03*
X155000D02*
D03*
X150000D02*
D03*
X145000D02*
D03*
X140000D02*
D03*
X135000D02*
D03*
X130000D02*
D03*
X125000D02*
D03*
X120000D02*
D03*
X115000D02*
D03*
X110000D02*
D03*
X105000D02*
D03*
X100000D02*
D03*
X95000D02*
D03*
X90000D02*
D03*
X85000D02*
D03*
X80000D02*
D03*
X170000Y534500D02*
D03*
X165000D02*
D03*
X160000D02*
D03*
X155000D02*
D03*
X150000D02*
D03*
X145000D02*
D03*
X140000D02*
D03*
X135000D02*
D03*
X130000D02*
D03*
X125000D02*
D03*
X120000D02*
D03*
X115000D02*
D03*
X110000D02*
D03*
X105000D02*
D03*
X100000D02*
D03*
X95000D02*
D03*
X90000D02*
D03*
X85000D02*
D03*
D61*
X80000D02*
D03*
D62*
X407000Y47500D02*
D03*
Y68500D02*
D03*
X348000Y22500D02*
D03*
Y1500D02*
D03*
X311000Y22500D02*
D03*
Y1500D02*
D03*
X406000Y141500D02*
D03*
Y162500D02*
D03*
Y103500D02*
D03*
Y124500D02*
D03*
X336000Y250500D02*
D03*
Y229500D02*
D03*
X204253Y533000D02*
D03*
Y554000D02*
D03*
X164000Y487500D02*
D03*
Y466500D02*
D03*
X204253Y594500D02*
D03*
Y573500D02*
D03*
X315000Y566500D02*
D03*
Y545500D02*
D03*
X144000Y487500D02*
D03*
Y466500D02*
D03*
D63*
X370500Y160000D02*
D03*
X349500D02*
D03*
X350500Y102000D02*
D03*
X371500D02*
D03*
X408500Y28000D02*
D03*
X387500D02*
D03*
X371500Y81000D02*
D03*
X350500D02*
D03*
X335500Y203000D02*
D03*
X356500D02*
D03*
X200500Y511000D02*
D03*
X221500D02*
D03*
X231500Y490000D02*
D03*
X252500D02*
D03*
X201500Y615000D02*
D03*
X222500D02*
D03*
D64*
X176950Y304000D02*
D03*
X151050D02*
D03*
X176950Y286000D02*
D03*
X151050D02*
D03*
X125950Y304000D02*
D03*
X100050D02*
D03*
X125950Y286000D02*
D03*
X100050D02*
D03*
D65*
X168000Y304000D02*
D03*
X160000D02*
D03*
X168000Y286000D02*
D03*
X160000D02*
D03*
X117000Y304000D02*
D03*
X109000D02*
D03*
X117000Y286000D02*
D03*
X109000D02*
D03*
D66*
X361000Y-35414D02*
D03*
Y-14586D02*
D03*
X324000Y-35414D02*
D03*
Y-14586D02*
D03*
D67*
X314000Y85500D02*
D03*
Y64500D02*
D03*
Y159500D02*
D03*
Y138500D02*
D03*
D68*
X282000Y470000D02*
D03*
Y438000D02*
D03*
X259000Y470000D02*
D03*
Y438000D02*
D03*
D69*
X161750Y452000D02*
D03*
X146250D02*
D03*
X126750Y440000D02*
D03*
X111250D02*
D03*
D70*
X127000Y454250D02*
D03*
Y469750D02*
D03*
X111000Y454250D02*
D03*
Y469750D02*
D03*
D71*
X25252Y3220D02*
D03*
X56748D02*
D03*
X25252Y38780D02*
D03*
X56748D02*
D03*
D72*
X267050Y190250D02*
D03*
X254350D02*
D03*
X241650D02*
D03*
X228950D02*
D03*
X267050Y135750D02*
D03*
X254350D02*
D03*
X241650D02*
D03*
X286050Y572250D02*
D03*
X273350D02*
D03*
X260650D02*
D03*
X247950D02*
D03*
X286050Y517750D02*
D03*
X273350D02*
D03*
X260650D02*
D03*
D73*
X228950Y135750D02*
D03*
X247950Y517750D02*
D03*
D74*
X206450Y209750D02*
D03*
X193750D02*
D03*
X181050D02*
D03*
X168350D02*
D03*
X155650D02*
D03*
X142950D02*
D03*
X130250D02*
D03*
X117550D02*
D03*
X206450Y118250D02*
D03*
X193750D02*
D03*
X181050D02*
D03*
X168350D02*
D03*
X155650D02*
D03*
X142950D02*
D03*
X130250D02*
D03*
X117550D02*
D03*
D75*
X383747Y41250D02*
D03*
X383250Y121250D02*
D03*
D76*
X383747Y47750D02*
D03*
Y54250D02*
D03*
Y60750D02*
D03*
X339248Y41250D02*
D03*
Y47750D02*
D03*
Y54250D02*
D03*
Y60750D02*
D03*
X383250Y127750D02*
D03*
Y134250D02*
D03*
Y140750D02*
D03*
X338750Y121250D02*
D03*
Y127750D02*
D03*
Y134250D02*
D03*
Y140750D02*
D03*
D77*
X395000Y511500D02*
D03*
Y492500D02*
D03*
X371000D02*
D03*
Y502000D02*
D03*
Y511500D02*
D03*
D78*
X27000Y-34000D02*
D03*
X59000D02*
D03*
X20000Y321000D02*
D03*
X52000D02*
D03*
X21000Y70000D02*
D03*
X53000D02*
D03*
X155000Y633000D02*
D03*
X123000D02*
D03*
X104000D02*
D03*
X72000D02*
D03*
D79*
X254000Y92000D02*
D03*
Y108000D02*
D03*
X185000Y532000D02*
D03*
Y516000D02*
D03*
Y599000D02*
D03*
Y615000D02*
D03*
D80*
X56750Y471000D02*
D03*
X91250D02*
D03*
D81*
X401000Y337800D02*
D03*
Y312400D02*
D03*
Y236200D02*
D03*
Y261600D02*
D03*
Y287000D02*
D03*
Y363200D02*
D03*
Y388600D02*
D03*
D82*
Y210800D02*
D03*
D83*
X20000Y267000D02*
D03*
Y241600D02*
D03*
Y216200D02*
D03*
Y140000D02*
D03*
D84*
Y114600D02*
D03*
D85*
X113000Y10000D02*
D03*
Y-15000D02*
D03*
D86*
X133000Y10000D02*
D03*
X153000D02*
D03*
X173000D02*
D03*
X193000D02*
D03*
X213000D02*
D03*
X133000Y-15000D02*
D03*
X153000D02*
D03*
X173000D02*
D03*
X193000D02*
D03*
X213000D02*
D03*
D87*
X93000Y-2700D02*
D03*
X412000Y-33000D02*
D03*
Y-21000D02*
D03*
Y-45000D02*
D03*
X428000D02*
D03*
Y-21000D02*
D03*
Y-33000D02*
D03*
X444000D02*
D03*
Y-21000D02*
D03*
Y-45000D02*
D03*
X443000Y619000D02*
D03*
Y643000D02*
D03*
Y631000D02*
D03*
X427000D02*
D03*
Y643000D02*
D03*
Y619000D02*
D03*
X411000D02*
D03*
Y643000D02*
D03*
Y631000D02*
D03*
Y607000D02*
D03*
X427000D02*
D03*
X443000D02*
D03*
X411000Y594000D02*
D03*
X427000D02*
D03*
X443000D02*
D03*
D88*
X132000Y47000D02*
D03*
X18750Y286250D02*
D03*
X63000Y297000D02*
D03*
X20000Y365020D02*
D03*
X72000Y632000D02*
D03*
X122000D02*
D03*
X153000Y611000D02*
D03*
X21000Y89000D02*
D03*
X59000Y-18000D02*
D03*
X79000Y46000D02*
D03*
X135000Y67000D02*
D03*
X81000Y97000D02*
D03*
X252000Y61000D02*
D03*
X226000Y61000D02*
D03*
X220000Y253000D02*
D03*
X255000D02*
D03*
X388000Y441000D02*
D03*
X372500Y456500D02*
D03*
X414999Y553999D02*
D03*
X295000Y408000D02*
D03*
X260000D02*
D03*
X275000Y284000D02*
D03*
Y316000D02*
D03*
X52000Y352000D02*
D03*
X52000Y383000D02*
D03*
D89*
X150000Y25000D02*
D03*
X150000Y78000D02*
D03*
X206000Y95000D02*
D03*
X95000Y25000D02*
D03*
X341000Y482000D02*
D03*
X283000Y597000D02*
D03*
X277000Y541000D02*
D03*
X235000D02*
D03*
X370000Y592000D02*
D03*
X304999Y496999D02*
D03*
X370000Y389000D02*
D03*
X357000Y185000D02*
D03*
X168000Y574000D02*
D03*
Y562000D02*
D03*
Y550000D02*
D03*
X156000Y574000D02*
D03*
Y562000D02*
D03*
Y550000D02*
D03*
X144000Y562000D02*
D03*
Y550000D02*
D03*
X132000Y562000D02*
D03*
Y550000D02*
D03*
X120000Y562000D02*
D03*
Y550000D02*
D03*
X96000Y574000D02*
D03*
Y562000D02*
D03*
Y550000D02*
D03*
X84000Y574000D02*
D03*
X328000Y108000D02*
D03*
X337000Y92000D02*
D03*
Y182000D02*
D03*
X326000Y128000D02*
D03*
X354000Y528000D02*
D03*
X138000Y612000D02*
D03*
X20000Y463000D02*
D03*
X346000Y-38000D02*
D03*
X314000Y242000D02*
D03*
Y221000D02*
D03*
X371999Y117000D02*
D03*
X327000Y33000D02*
D03*
X326999Y47000D02*
D03*
X357000Y39000D02*
D03*
X354999Y127000D02*
D03*
X353000Y139000D02*
D03*
X352460Y65111D02*
D03*
X369999Y66000D02*
D03*
X403000Y53000D02*
D03*
X400000Y143000D02*
D03*
X371000Y174000D02*
D03*
X369000Y35000D02*
D03*
X382999Y70000D02*
D03*
X384000Y102000D02*
D03*
Y151000D02*
D03*
X90000Y273000D02*
D03*
X104000Y126000D02*
D03*
X54000Y139000D02*
D03*
X156000Y100000D02*
D03*
X168000D02*
D03*
X267000Y121000D02*
D03*
X229000Y123000D02*
D03*
X143000Y140000D02*
D03*
X184000D02*
D03*
X130000Y225000D02*
D03*
X116000Y226000D02*
D03*
X147000Y190000D02*
D03*
X189000D02*
D03*
X78000Y214000D02*
D03*
X91000Y211000D02*
D03*
X78000Y236000D02*
D03*
X267000Y204000D02*
D03*
X229000Y203000D02*
D03*
X115000Y516540D02*
D03*
X125000Y506000D02*
D03*
X77000Y500000D02*
D03*
X46000Y498000D02*
D03*
X291000Y556000D02*
D03*
X292000Y529000D02*
D03*
X289000Y483000D02*
D03*
X244000Y467000D02*
D03*
X410000Y537000D02*
D03*
X406000Y512000D02*
D03*
X361000Y492000D02*
D03*
X81000Y447500D02*
D03*
X81000Y434999D02*
D03*
Y422999D02*
D03*
Y410999D02*
D03*
X66000Y410000D02*
D03*
X20000Y451000D02*
D03*
X20000Y438999D02*
D03*
Y426999D02*
D03*
X20000Y415000D02*
D03*
X309000Y-36000D02*
D03*
X16000Y-31000D02*
D03*
M02*
