G04 Layer_Color=16711935*
%FSLAX44Y44*%
%MOMM*%
G71*
G01*
G75*
%ADD111R,1.7032X1.4032*%
%ADD112R,1.2032X0.8032*%
%ADD113R,1.6532X2.1032*%
%ADD114R,1.0032X1.2532*%
%ADD115R,0.8032X1.2032*%
%ADD121R,1.3032X2.0532*%
%ADD122R,1.2532X1.0032*%
%ADD123R,1.7032X1.1032*%
%ADD124R,2.0532X1.3032*%
%ADD125R,1.1032X1.7032*%
%ADD127R,1.6732X1.2932*%
%ADD131R,2.1032X1.6532*%
%ADD147R,1.3032X1.2032*%
%ADD148R,1.4032X1.7032*%
%ADD149R,1.2032X1.3032*%
%ADD158C,1.4715*%
%ADD159R,1.4715X1.4715*%
%ADD160R,1.4715X1.4715*%
%ADD161C,2.7032*%
%ADD162R,2.7032X2.7032*%
%ADD163R,1.8532X1.8532*%
%ADD164C,1.8532*%
%ADD165C,2.6162*%
%ADD166R,1.6032X1.6032*%
%ADD167C,1.6032*%
%ADD168C,0.2032*%
%ADD169C,1.9032*%
%ADD170C,2.6032*%
%ADD171O,2.6032X2.7032*%
%ADD172C,3.2032*%
%ADD173R,3.2032X3.2032*%
%ADD174C,2.0032*%
%ADD175R,2.0032X2.0032*%
%ADD176R,1.5240X1.5240*%
%ADD177C,1.5240*%
%ADD178C,7.0032*%
%ADD179R,2.5032X3.7032*%
G04:AMPARAMS|DCode=180|XSize=2.5032mm|YSize=3.7032mm|CornerRadius=0.6766mm|HoleSize=0mm|Usage=FLASHONLY|Rotation=180.000|XOffset=0mm|YOffset=0mm|HoleType=Round|Shape=RoundedRectangle|*
%AMROUNDEDRECTD180*
21,1,2.5032,2.3500,0,0,180.0*
21,1,1.1500,3.7032,0,0,180.0*
1,1,1.3532,-0.5750,1.1750*
1,1,1.3532,0.5750,1.1750*
1,1,1.3532,0.5750,-1.1750*
1,1,1.3532,-0.5750,-1.1750*
%
%ADD180ROUNDEDRECTD180*%
%ADD181R,1.6032X1.6032*%
%ADD182C,1.0032*%
%ADD183C,1.5032*%
%ADD184C,1.1032*%
%ADD185R,1.3032X1.9532*%
%ADD186R,1.9532X1.3032*%
%ADD187R,1.4232X1.1132*%
%ADD188R,0.9032X2.0532*%
%ADD189O,0.9032X2.0532*%
%ADD190R,2.7032X2.6532*%
%ADD191R,2.6532X2.7032*%
%ADD192C,0.8032*%
G36*
X1500000Y1608000D02*
X1419000D01*
X1404000Y1623000D01*
Y1700000D01*
X1500000D01*
Y1608000D01*
D02*
G37*
D111*
X75499Y903500D02*
D03*
Y924500D02*
D03*
D112*
X674000Y499000D02*
D03*
X650000Y508500D02*
D03*
Y489500D02*
D03*
D113*
X704000Y667000D02*
D03*
X672000D02*
D03*
X705000Y616000D02*
D03*
X673000D02*
D03*
D114*
X1095000Y178000D02*
D03*
X1079500D02*
D03*
X1095000Y206000D02*
D03*
X1079500D02*
D03*
X1372750Y1552000D02*
D03*
X1357250D02*
D03*
X1444750Y1004000D02*
D03*
X1429250D02*
D03*
X1444750Y1018000D02*
D03*
X1429250D02*
D03*
X1470250Y826000D02*
D03*
X1485750D02*
D03*
X1358750Y1204000D02*
D03*
X1343250D02*
D03*
X1205750Y1295750D02*
D03*
X1190250D02*
D03*
D115*
X1107000Y1619000D02*
D03*
X1097500Y1595000D02*
D03*
X1116500D02*
D03*
X1039000Y1619000D02*
D03*
X1029500Y1595000D02*
D03*
X1048500D02*
D03*
D121*
X727000Y235000D02*
D03*
X695000D02*
D03*
X522000D02*
D03*
X554000D02*
D03*
D122*
X906500Y261500D02*
D03*
Y246000D02*
D03*
X878500D02*
D03*
Y261500D02*
D03*
X850500D02*
D03*
Y246000D02*
D03*
X822500Y261500D02*
D03*
Y246000D02*
D03*
X1009000Y155250D02*
D03*
Y170750D02*
D03*
X1375000Y1516250D02*
D03*
Y1531750D02*
D03*
X1211000Y554250D02*
D03*
Y569750D02*
D03*
X717500Y976500D02*
D03*
Y961000D02*
D03*
X731000Y976500D02*
D03*
Y961000D02*
D03*
X690000Y474750D02*
D03*
Y490250D02*
D03*
Y444250D02*
D03*
Y459750D02*
D03*
X1377000Y1171250D02*
D03*
Y1186750D02*
D03*
D123*
X1196000Y1605500D02*
D03*
Y1584500D02*
D03*
X1474000Y746500D02*
D03*
Y767500D02*
D03*
D124*
X1076000Y1632000D02*
D03*
Y1600000D02*
D03*
X686000Y259000D02*
D03*
Y291000D02*
D03*
X562000Y259000D02*
D03*
Y291000D02*
D03*
X1007000Y1636000D02*
D03*
Y1604000D02*
D03*
D125*
X1361000Y641000D02*
D03*
X1382000D02*
D03*
X645500Y447500D02*
D03*
X624500D02*
D03*
X1382500Y611001D02*
D03*
X1361501D02*
D03*
D127*
X855000Y1493900D02*
D03*
Y1512100D02*
D03*
D131*
X1017000Y63000D02*
D03*
Y31000D02*
D03*
D147*
X204500Y1051500D02*
D03*
Y1067500D02*
D03*
X32000Y922000D02*
D03*
Y906000D02*
D03*
X543250Y1548000D02*
D03*
Y1532000D02*
D03*
X194000Y1449000D02*
D03*
Y1433000D02*
D03*
X574000Y1235000D02*
D03*
Y1251000D02*
D03*
X32000Y1502000D02*
D03*
Y1486000D02*
D03*
X1288500Y426250D02*
D03*
Y442250D02*
D03*
X920500Y263000D02*
D03*
Y247000D02*
D03*
X892500Y263000D02*
D03*
Y247000D02*
D03*
X864500Y263000D02*
D03*
Y247000D02*
D03*
X836500Y263000D02*
D03*
Y247000D02*
D03*
X670000Y1099000D02*
D03*
Y1083000D02*
D03*
X657000Y1099000D02*
D03*
Y1083000D02*
D03*
X643000Y1099000D02*
D03*
Y1083000D02*
D03*
X699000Y1099000D02*
D03*
Y1083000D02*
D03*
X1208000Y1480000D02*
D03*
Y1464000D02*
D03*
X1209500Y1551000D02*
D03*
Y1535000D02*
D03*
X988000Y1410000D02*
D03*
Y1426000D02*
D03*
X1201000Y1408000D02*
D03*
Y1392000D02*
D03*
X1253000Y1322000D02*
D03*
Y1338000D02*
D03*
X1325000Y1515000D02*
D03*
Y1531000D02*
D03*
X1177000Y1375000D02*
D03*
Y1391000D02*
D03*
X1472000Y806000D02*
D03*
Y790000D02*
D03*
X1363000Y754750D02*
D03*
Y770750D02*
D03*
X1377000Y770750D02*
D03*
Y754750D02*
D03*
X1388000Y581000D02*
D03*
Y565000D02*
D03*
X1286000Y613000D02*
D03*
Y629000D02*
D03*
X1197000Y681000D02*
D03*
Y697000D02*
D03*
X616000Y1251000D02*
D03*
Y1235000D02*
D03*
X588000Y1251000D02*
D03*
Y1235000D02*
D03*
X602000Y1251000D02*
D03*
Y1235000D02*
D03*
X670000Y1251000D02*
D03*
Y1235000D02*
D03*
X711000Y1251000D02*
D03*
Y1235000D02*
D03*
X684500Y1083000D02*
D03*
Y1099000D02*
D03*
X628500Y1083000D02*
D03*
Y1099000D02*
D03*
X1330000Y1188000D02*
D03*
Y1204000D02*
D03*
X1189000Y562000D02*
D03*
Y546000D02*
D03*
X38000Y1138000D02*
D03*
Y1154000D02*
D03*
X29500Y1372000D02*
D03*
Y1356000D02*
D03*
D148*
X628000Y490000D02*
D03*
X607000D02*
D03*
X718500Y1085000D02*
D03*
X739500D02*
D03*
X600000Y1093000D02*
D03*
X579000D02*
D03*
D149*
X594000Y1143000D02*
D03*
X578000D02*
D03*
X594000Y1157000D02*
D03*
X578000D02*
D03*
X594000Y1171500D02*
D03*
X578000D02*
D03*
X878000Y1547000D02*
D03*
X894000D02*
D03*
X752000Y1668000D02*
D03*
X768000D02*
D03*
X826750Y1420000D02*
D03*
X810750D02*
D03*
X827000Y1456000D02*
D03*
X811000D02*
D03*
X726000Y1544000D02*
D03*
X742000D02*
D03*
X899000Y1668000D02*
D03*
X915000D02*
D03*
X863000Y1405000D02*
D03*
X847000D02*
D03*
X863000Y1391000D02*
D03*
X847000D02*
D03*
X633750Y1555000D02*
D03*
X617750D02*
D03*
X626250Y1667500D02*
D03*
X610250D02*
D03*
X617750Y1541250D02*
D03*
X633750D02*
D03*
X594000Y1199500D02*
D03*
X578000D02*
D03*
X169000Y1391000D02*
D03*
X185000D02*
D03*
X594000Y1214000D02*
D03*
X578000D02*
D03*
X168000Y1479000D02*
D03*
X184000D02*
D03*
X278000Y1566500D02*
D03*
X262000D02*
D03*
X466250Y1573000D02*
D03*
X450250D02*
D03*
X278000Y1584000D02*
D03*
X262000D02*
D03*
X450000Y1554000D02*
D03*
X466000D02*
D03*
X262000Y1551500D02*
D03*
X278000D02*
D03*
X393750Y1546750D02*
D03*
X377750D02*
D03*
X218000Y1550250D02*
D03*
X202000D02*
D03*
X393750Y1566750D02*
D03*
X377750D02*
D03*
X218000Y1571250D02*
D03*
X202000D02*
D03*
X1271000Y380750D02*
D03*
X1255000D02*
D03*
X1271000Y394750D02*
D03*
X1255000D02*
D03*
X1271000Y408750D02*
D03*
X1255000D02*
D03*
X1271000Y477750D02*
D03*
X1255000D02*
D03*
X1271000Y464250D02*
D03*
X1255000D02*
D03*
X1271000Y450750D02*
D03*
X1255000D02*
D03*
X1271000Y436750D02*
D03*
X1255000D02*
D03*
X743500Y1148000D02*
D03*
X727500D02*
D03*
X743500Y1168000D02*
D03*
X727500D02*
D03*
X1290500Y241250D02*
D03*
X1306500D02*
D03*
X1290500Y255000D02*
D03*
X1306500D02*
D03*
X1290500Y269000D02*
D03*
X1306500D02*
D03*
X1290500Y283250D02*
D03*
X1306500D02*
D03*
X1349500Y221250D02*
D03*
X1333500D02*
D03*
X1349500Y235250D02*
D03*
X1333500D02*
D03*
X1096500Y192000D02*
D03*
X1080500D02*
D03*
X1096500Y220000D02*
D03*
X1080500D02*
D03*
X973500Y186000D02*
D03*
X989500D02*
D03*
X973500Y171500D02*
D03*
X989500D02*
D03*
X973500Y156500D02*
D03*
X989500D02*
D03*
X880000Y279000D02*
D03*
X864000D02*
D03*
X881000Y355000D02*
D03*
X865000D02*
D03*
X108000Y777000D02*
D03*
X124000D02*
D03*
X594000Y1115000D02*
D03*
X578000D02*
D03*
X1058750Y1499000D02*
D03*
X1042750D02*
D03*
X1059500Y1555000D02*
D03*
X1043500D02*
D03*
X1005000Y1497000D02*
D03*
X989000D02*
D03*
X1007000Y1552500D02*
D03*
X991000D02*
D03*
X1025000Y1389000D02*
D03*
X1009000D02*
D03*
X1025000Y1406500D02*
D03*
X1009000D02*
D03*
X989000Y1469500D02*
D03*
X1005000D02*
D03*
X1042000Y1536500D02*
D03*
X1058000D02*
D03*
X1042750Y1481500D02*
D03*
X1058750D02*
D03*
X1042750Y1467500D02*
D03*
X1058750D02*
D03*
X1005000Y1483500D02*
D03*
X989000D02*
D03*
X991000Y1535500D02*
D03*
X1007000D02*
D03*
X727500Y1203000D02*
D03*
X743500D02*
D03*
X727500Y1231000D02*
D03*
X743500D02*
D03*
X727500Y1217000D02*
D03*
X743500D02*
D03*
X1260000Y849750D02*
D03*
X1244000D02*
D03*
X1244000Y836750D02*
D03*
X1260000D02*
D03*
X1260000Y820000D02*
D03*
X1244000D02*
D03*
X1322000Y568000D02*
D03*
X1306000D02*
D03*
X1322000Y554000D02*
D03*
X1306000D02*
D03*
X1281000Y669000D02*
D03*
X1297000D02*
D03*
X609000Y472000D02*
D03*
X625000D02*
D03*
X589000Y438000D02*
D03*
X605000D02*
D03*
X706000Y490000D02*
D03*
X722000D02*
D03*
X696000Y707000D02*
D03*
X680000D02*
D03*
X578000Y1185500D02*
D03*
X594000D02*
D03*
X743500Y1132000D02*
D03*
X727500D02*
D03*
X578000Y1077000D02*
D03*
X594000D02*
D03*
X743000Y1248000D02*
D03*
X727000D02*
D03*
X578000Y1129000D02*
D03*
X594000D02*
D03*
X743500Y1189000D02*
D03*
X727500D02*
D03*
X1271000Y422750D02*
D03*
X1255000D02*
D03*
X743500Y1104000D02*
D03*
X727500D02*
D03*
X743500Y1118000D02*
D03*
X727500D02*
D03*
D158*
X52000Y876502D02*
D03*
Y896500D02*
D03*
Y916503D02*
D03*
Y936501D02*
D03*
X720750Y1647500D02*
D03*
X740748D02*
D03*
X760751D02*
D03*
X780749D02*
D03*
X868251D02*
D03*
X888249D02*
D03*
X908252D02*
D03*
X928250D02*
D03*
X590747D02*
D03*
X610750D02*
D03*
X630748D02*
D03*
X52000Y1333999D02*
D03*
Y1354002D02*
D03*
Y1374000D02*
D03*
X365673Y1647500D02*
D03*
X385752D02*
D03*
X405750D02*
D03*
X425752D02*
D03*
X445751D02*
D03*
X1195722Y1647967D02*
D03*
X1215724D02*
D03*
X1235723D02*
D03*
X1058750Y1648000D02*
D03*
X1038752D02*
D03*
X1451500Y1416000D02*
D03*
Y1435998D02*
D03*
X1465000Y972250D02*
D03*
Y992253D02*
D03*
Y1012251D02*
D03*
X1450000Y641999D02*
D03*
Y622001D02*
D03*
Y601998D02*
D03*
Y582000D02*
D03*
X200672Y1647500D02*
D03*
X220751D02*
D03*
X240749D02*
D03*
X260752D02*
D03*
X280750D02*
D03*
X54500Y1463999D02*
D03*
Y1484002D02*
D03*
Y1504000D02*
D03*
X1452000Y845829D02*
D03*
Y825751D02*
D03*
Y805752D02*
D03*
Y785750D02*
D03*
Y765752D02*
D03*
X1451500Y1291000D02*
D03*
Y1310998D02*
D03*
X1452500Y171172D02*
D03*
Y191171D02*
D03*
Y211173D02*
D03*
Y231171D02*
D03*
Y251250D02*
D03*
Y271062D02*
D03*
Y291128D02*
D03*
D159*
X52000Y956499D02*
D03*
Y1393998D02*
D03*
X1451500Y1396002D02*
D03*
X1465000Y1032249D02*
D03*
X1450000Y562002D02*
D03*
X54500Y1523998D02*
D03*
X1452000Y745753D02*
D03*
X1451500Y1271002D02*
D03*
X1452500Y151174D02*
D03*
D160*
X800747Y1647500D02*
D03*
X948248D02*
D03*
X650747D02*
D03*
X465749D02*
D03*
X1255721Y1647967D02*
D03*
X1078748Y1648000D02*
D03*
X300748Y1647500D02*
D03*
D161*
X400000Y60000D02*
D03*
X350000D02*
D03*
X240000D02*
D03*
X190000D02*
D03*
D162*
X450000D02*
D03*
X290000D02*
D03*
D163*
X56600Y1153100D02*
D03*
D164*
X82000D02*
D03*
X56600Y1127700D02*
D03*
X82000D02*
D03*
X56600Y1102300D02*
D03*
X82000D02*
D03*
X56600Y1076900D02*
D03*
X82000D02*
D03*
X56600Y1051500D02*
D03*
X82000D02*
D03*
D165*
X808800Y721000D02*
D03*
X758000D02*
D03*
D166*
X1452500Y471750D02*
D03*
X1427500D02*
D03*
D167*
X1452500Y451750D02*
D03*
Y431750D02*
D03*
Y411750D02*
D03*
Y391750D02*
D03*
Y371750D02*
D03*
X1427500Y451750D02*
D03*
Y431750D02*
D03*
Y411750D02*
D03*
Y391750D02*
D03*
Y371750D02*
D03*
X955000Y60500D02*
D03*
X935000D02*
D03*
X915000D02*
D03*
X895000D02*
D03*
X875000D02*
D03*
X955000Y85500D02*
D03*
X935000D02*
D03*
X915000D02*
D03*
X895000D02*
D03*
X875000D02*
D03*
X1165000Y60500D02*
D03*
X1145000D02*
D03*
X1125000D02*
D03*
X1105000D02*
D03*
X1085000D02*
D03*
X1165000Y85500D02*
D03*
X1145000D02*
D03*
X1125000D02*
D03*
X1105000D02*
D03*
X1085000D02*
D03*
D168*
X1439800Y491750D02*
D03*
X690000Y60000D02*
D03*
X995000Y73200D02*
D03*
X1205000D02*
D03*
D169*
X24500Y786000D02*
D03*
Y721000D02*
D03*
X69500D02*
D03*
Y786000D02*
D03*
X505000Y105400D02*
D03*
Y54600D02*
D03*
X130000Y95400D02*
D03*
Y44600D02*
D03*
D170*
X357500Y440000D02*
D03*
X432500D02*
D03*
Y290000D02*
D03*
X357500Y240000D02*
D03*
X432500D02*
D03*
X357500Y190000D02*
D03*
X432500D02*
D03*
X42500Y440000D02*
D03*
X117500D02*
D03*
Y290000D02*
D03*
X42500Y240000D02*
D03*
X117500D02*
D03*
X42500Y190000D02*
D03*
X117500D02*
D03*
X200000Y440000D02*
D03*
X275000D02*
D03*
Y290000D02*
D03*
X200000Y240000D02*
D03*
X275000D02*
D03*
X200000Y190000D02*
D03*
X275000D02*
D03*
D171*
X357500Y290000D02*
D03*
X42500D02*
D03*
X200000D02*
D03*
D172*
X730000Y640000D02*
D03*
X650000D02*
D03*
X522000Y190000D02*
D03*
D173*
X730000D02*
D03*
D174*
X535000Y749600D02*
D03*
Y775000D02*
D03*
D175*
Y724200D02*
D03*
D176*
X194000Y1158000D02*
D03*
D177*
X270000D02*
D03*
D178*
X50000Y50000D02*
D03*
Y1650000D02*
D03*
X250000Y750000D02*
D03*
X1450000Y50000D02*
D03*
Y1650000D02*
D03*
D179*
X740000Y60000D02*
D03*
D180*
X640000D02*
D03*
X590000D02*
D03*
D181*
X975000Y60500D02*
D03*
Y85500D02*
D03*
X1185000Y60500D02*
D03*
Y85500D02*
D03*
D182*
X593000Y920000D02*
D03*
X420000Y1060000D02*
D03*
X206000Y1037000D02*
D03*
X271000Y1027000D02*
D03*
Y1074000D02*
D03*
X125000Y1097000D02*
D03*
X280000Y1101000D02*
D03*
Y1048000D02*
D03*
X127000Y735000D02*
D03*
X134000Y1088000D02*
D03*
X113000Y1140000D02*
D03*
Y1102000D02*
D03*
X130000Y791000D02*
D03*
X125000Y826000D02*
D03*
X115000Y816000D02*
D03*
X90000Y906000D02*
D03*
X115000Y931000D02*
D03*
X101000Y925000D02*
D03*
X259000Y1504000D02*
D03*
Y1285000D02*
D03*
X257000Y1249000D02*
D03*
X406000Y1285000D02*
D03*
Y1142000D02*
D03*
X395000Y1155000D02*
D03*
Y974000D02*
D03*
X385000Y1168000D02*
D03*
Y984000D02*
D03*
X375000Y1182000D02*
D03*
X218000Y1225000D02*
D03*
Y1158000D02*
D03*
X44000Y1209000D02*
D03*
X177000Y1223000D02*
D03*
X163000Y1179000D02*
D03*
X177000Y1171000D02*
D03*
X280000Y1195000D02*
D03*
X310290Y1171000D02*
D03*
X163000Y1250000D02*
D03*
X300000Y1179000D02*
D03*
X204000Y1079000D02*
D03*
X244000Y1057000D02*
D03*
X156000Y1112000D02*
D03*
X280000Y1415000D02*
D03*
X271000Y1210000D02*
D03*
X158500Y604000D02*
D03*
X181000Y615000D02*
D03*
X158500Y623500D02*
D03*
Y586000D02*
D03*
X261000Y1236000D02*
D03*
X158000Y568000D02*
D03*
X230000Y1195000D02*
D03*
X113000Y1228000D02*
D03*
X105000Y642000D02*
D03*
X75000Y1227000D02*
D03*
X293000Y1583000D02*
D03*
X289000Y1431000D02*
D03*
X322000Y1439000D02*
D03*
X270000Y1493000D02*
D03*
X181000D02*
D03*
X310000Y1614000D02*
D03*
X196000Y1458000D02*
D03*
X151000Y1492000D02*
D03*
X133000Y1442997D02*
D03*
X193000Y1413997D02*
D03*
X203000Y1420000D02*
D03*
X173000Y1404000D02*
D03*
X602000Y1536000D02*
D03*
Y1397000D02*
D03*
X548000D02*
D03*
Y1358000D02*
D03*
X560996Y1406000D02*
D03*
X458000Y1423000D02*
D03*
X448000Y1414000D02*
D03*
X215000Y1366000D02*
D03*
X138000Y1375000D02*
D03*
X126000Y1379000D02*
D03*
X159000Y1391000D02*
D03*
X1075000Y1427000D02*
D03*
X735000Y1379000D02*
D03*
X887500Y1379500D02*
D03*
X1040500Y1369500D02*
D03*
X1041250Y1458000D02*
D03*
X1026000Y1431000D02*
D03*
X888000Y1471000D02*
D03*
X970000D02*
D03*
X987000Y1510000D02*
D03*
X255000Y628000D02*
D03*
X967000Y1414000D02*
D03*
Y1458000D02*
D03*
X988998Y1438997D02*
D03*
X977000Y1449000D02*
D03*
X1201000Y1408000D02*
D03*
X988000Y1605000D02*
D03*
X1160000D02*
D03*
Y1198000D02*
D03*
X1129000Y1267000D02*
D03*
X1128540Y743460D02*
D03*
X1144000Y1257000D02*
D03*
X1238000Y1252000D02*
D03*
X1206000Y1320000D02*
D03*
X683999Y1438997D02*
D03*
X673000Y1449000D02*
D03*
X335000D02*
D03*
X633000Y1463000D02*
D03*
X617000Y1477000D02*
D03*
X557000D02*
D03*
X1220500Y1585500D02*
D03*
X1315000Y1587000D02*
D03*
Y1647967D02*
D03*
X1319000Y1476750D02*
D03*
X1277000Y1414000D02*
D03*
Y1332000D02*
D03*
X1392000Y1540000D02*
D03*
X1353000Y1514000D02*
D03*
X1407750Y1477000D02*
D03*
X1253000Y1294000D02*
D03*
Y1360000D02*
D03*
X1349000Y1321000D02*
D03*
Y1361000D02*
D03*
X1302000Y1208000D02*
D03*
X1314000Y1204000D02*
D03*
X1178000Y1130000D02*
D03*
X1098000Y413000D02*
D03*
X1168000Y414000D02*
D03*
X1053000Y1175000D02*
D03*
X1043000Y1162000D02*
D03*
X1073000Y459000D02*
D03*
X1064000Y467000D02*
D03*
X1131000Y696000D02*
D03*
X1035000Y1149000D02*
D03*
X1027000Y1136000D02*
D03*
X1018000Y1122000D02*
D03*
X1017750Y962750D02*
D03*
X1009000Y1109000D02*
D03*
X1000000Y1095000D02*
D03*
X1230000Y491000D02*
D03*
Y464000D02*
D03*
X1240000Y478000D02*
D03*
X975000Y1057000D02*
D03*
X984000Y1071000D02*
D03*
X1220000Y500000D02*
D03*
Y452000D02*
D03*
X951000Y1043000D02*
D03*
X910500Y1031000D02*
D03*
Y1018000D02*
D03*
X1240000Y656000D02*
D03*
X1194000Y637000D02*
D03*
X975000Y434000D02*
D03*
X891000Y386000D02*
D03*
X848000Y406000D02*
D03*
X1029000Y352000D02*
D03*
X1227000Y933000D02*
D03*
X1206000Y796000D02*
D03*
X1217000Y808000D02*
D03*
X1350000Y773000D02*
D03*
X1261000Y926000D02*
D03*
Y968000D02*
D03*
X1418000Y810000D02*
D03*
X1276000Y851000D02*
D03*
X1233000Y219000D02*
D03*
X1244000Y202000D02*
D03*
X1206000Y896000D02*
D03*
X1416000Y1016000D02*
D03*
X1206000Y1040000D02*
D03*
X1217000Y1024000D02*
D03*
X1206000Y985000D02*
D03*
X1217998Y954998D02*
D03*
X1015000Y412000D02*
D03*
X930998Y413999D02*
D03*
X940000Y403000D02*
D03*
X965450Y386550D02*
D03*
X1003550Y383450D02*
D03*
X1221500Y565500D02*
D03*
X722000Y535000D02*
D03*
X864000Y295000D02*
D03*
X879998Y288999D02*
D03*
X734000Y554000D02*
D03*
X952750Y385750D02*
D03*
X1032000Y230000D02*
D03*
X957000Y197000D02*
D03*
X1096000Y275000D02*
D03*
X1065000Y205000D02*
D03*
X1073000Y8000D02*
D03*
X1065000Y37000D02*
D03*
X1079500Y165500D02*
D03*
X1055000Y247000D02*
D03*
X1043000Y217000D02*
D03*
Y143000D02*
D03*
X1055000Y155000D02*
D03*
X1110000Y206000D02*
D03*
X935000Y229000D02*
D03*
X946000Y220000D02*
D03*
X911000Y211000D02*
D03*
X904000Y171000D02*
D03*
X901000Y228000D02*
D03*
X878000Y220000D02*
D03*
X883000Y195000D02*
D03*
X865000Y228000D02*
D03*
X829000Y236000D02*
D03*
X814000Y279000D02*
D03*
X928000D02*
D03*
X850000Y152000D02*
D03*
Y28000D02*
D03*
X1009000Y183000D02*
D03*
X1034000Y171000D02*
D03*
X1034040Y45000D02*
D03*
X915000Y143000D02*
D03*
X839000Y9000D02*
D03*
Y86000D02*
D03*
X1104000Y132000D02*
D03*
X895000Y133000D02*
D03*
X1125000Y122000D02*
D03*
X915000D02*
D03*
X1145000Y111000D02*
D03*
X946000Y102000D02*
D03*
X935000Y111000D02*
D03*
X1165000Y102000D02*
D03*
X875000Y19000D02*
D03*
X1085000D02*
D03*
X1105000Y28000D02*
D03*
X895000D02*
D03*
X1125000Y37000D02*
D03*
X915000Y38000D02*
D03*
X1145000Y45000D02*
D03*
X935000D02*
D03*
X1004000Y251000D02*
D03*
X1021000Y155000D02*
D03*
X999000Y240000D02*
D03*
X985000Y229000D02*
D03*
X974998Y143000D02*
D03*
X989000Y197000D02*
D03*
X973000D02*
D03*
X875000Y152000D02*
D03*
X863000D02*
D03*
X359000Y535000D02*
D03*
X337000Y518000D02*
D03*
X45000Y1195000D02*
D03*
X101000Y828000D02*
D03*
X499000Y915000D02*
D03*
X1306000Y226000D02*
D03*
X1211000Y709000D02*
D03*
X1168000Y696000D02*
D03*
Y680000D02*
D03*
X1141000D02*
D03*
X1276000Y626000D02*
D03*
Y574000D02*
D03*
X1286000Y602000D02*
D03*
X1340000Y555000D02*
D03*
X1297000Y594000D02*
D03*
X1306000Y602000D02*
D03*
Y632000D02*
D03*
X1269000Y669000D02*
D03*
X1297000Y796000D02*
D03*
Y718000D02*
D03*
X811000Y355000D02*
D03*
X433000Y691000D02*
D03*
Y755000D02*
D03*
X547000Y704000D02*
D03*
X536000Y691000D02*
D03*
X1030000Y1498500D02*
D03*
X979000Y1552500D02*
D03*
X1234000Y1392000D02*
D03*
X1208000Y1353000D02*
D03*
X221000Y642000D02*
D03*
Y604000D02*
D03*
X91000Y568000D02*
D03*
Y628000D02*
D03*
X94000Y778000D02*
D03*
X361000Y641000D02*
D03*
X605000Y454000D02*
D03*
X670000D02*
D03*
X635000Y429000D02*
D03*
X690000D02*
D03*
X695000Y1545000D02*
D03*
X505000Y839000D02*
D03*
X1376500Y796500D02*
D03*
X1401000Y773000D02*
D03*
X1351000Y755000D02*
D03*
X1260000Y796500D02*
D03*
X499000Y869000D02*
D03*
X205000Y1433997D02*
D03*
X173000Y1458000D02*
D03*
X206000Y1468000D02*
D03*
X896000Y1497000D02*
D03*
X847000Y1538000D02*
D03*
X710000Y1516000D02*
D03*
Y1490000D02*
D03*
X645000Y1539000D02*
D03*
X616000Y1574000D02*
D03*
X543000Y1463000D02*
D03*
X516000Y1531000D02*
D03*
X556000Y1561000D02*
D03*
X1332000Y264000D02*
D03*
X1438000Y241000D02*
D03*
Y263000D02*
D03*
X1362997Y221000D02*
D03*
X1362000Y239000D02*
D03*
X1270000Y261000D02*
D03*
X1269000Y278000D02*
D03*
X536000Y522000D02*
D03*
X547000Y510000D02*
D03*
X1289000D02*
D03*
X1299000Y522000D02*
D03*
X1288500Y463500D02*
D03*
X1289000Y405000D02*
D03*
X916000Y354000D02*
D03*
X1309000Y510000D02*
D03*
Y474000D02*
D03*
X1320000Y522000D02*
D03*
X1467000Y392000D02*
D03*
Y357000D02*
D03*
X1452000Y346000D02*
D03*
Y503000D02*
D03*
X1465000Y512000D02*
D03*
X1224000Y438000D02*
D03*
Y423000D02*
D03*
Y409000D02*
D03*
X1299000Y453000D02*
D03*
X1241000Y381000D02*
D03*
X1232000Y394000D02*
D03*
X1329000Y399000D02*
D03*
Y495000D02*
D03*
X1320000Y484000D02*
D03*
X1339000Y409000D02*
D03*
X1329000Y360000D02*
D03*
X992000Y1082000D02*
D03*
X1306000Y582000D02*
D03*
X1294000Y555000D02*
D03*
X1308000Y669000D02*
D03*
X1378000Y592000D02*
D03*
X1393997Y598999D02*
D03*
X1378000Y581000D02*
D03*
X1344670Y569040D02*
D03*
X1397997Y563999D02*
D03*
X1411000Y534000D02*
D03*
X1432000Y571000D02*
D03*
Y601000D02*
D03*
X1398000Y642000D02*
D03*
Y612000D02*
D03*
X1362960Y569040D02*
D03*
X1342710Y584764D02*
D03*
X1347901Y595903D02*
D03*
X1223000Y554000D02*
D03*
X1231000Y543000D02*
D03*
X1207000Y612000D02*
D03*
X673000Y1685000D02*
D03*
X989000Y1620000D02*
D03*
Y1664000D02*
D03*
X1060000Y1589000D02*
D03*
X1132000D02*
D03*
X1189000Y574000D02*
D03*
X1141000Y535000D02*
D03*
X1154000Y548000D02*
D03*
X1131000D02*
D03*
X1467000Y1348000D02*
D03*
X1480000Y1332000D02*
D03*
Y1498000D02*
D03*
X1319000Y1252000D02*
D03*
X1313000Y1241000D02*
D03*
Y1230000D02*
D03*
X1491003Y1240003D02*
D03*
X1317000Y1564000D02*
D03*
X1306000Y1547000D02*
D03*
X1130000Y1515000D02*
D03*
X1016000Y1470750D02*
D03*
X1245000Y1552000D02*
D03*
X1205998Y1522997D02*
D03*
X1225000Y1505000D02*
D03*
X1234500Y1514000D02*
D03*
X1238997Y1487997D02*
D03*
X1237000Y1470000D02*
D03*
X1206000Y1480000D02*
D03*
X1176032Y1548000D02*
D03*
X1178000Y1562000D02*
D03*
X1192000Y1570000D02*
D03*
X1207000Y1562000D02*
D03*
X1118000Y1505739D02*
D03*
Y1440000D02*
D03*
X1030000Y1485500D02*
D03*
X1190000Y1343000D02*
D03*
X1177000Y1375000D02*
D03*
X1200000D02*
D03*
X1267000Y1523000D02*
D03*
X1250000Y1460000D02*
D03*
X1265000Y1422000D02*
D03*
X1230000Y1210000D02*
D03*
X1027675Y1579540D02*
D03*
X1028000Y1561000D02*
D03*
X1020000Y1552500D02*
D03*
X1029960Y1547000D02*
D03*
X1018998Y1535997D02*
D03*
X1006000Y1511460D02*
D03*
X1019000Y1498000D02*
D03*
X1030000Y1523000D02*
D03*
X981000Y1529000D02*
D03*
X1071000Y1555000D02*
D03*
X1080000Y1543000D02*
D03*
X1186000Y1493989D02*
D03*
X1185000Y1476000D02*
D03*
X1179000Y1465000D02*
D03*
X1260997Y1435997D02*
D03*
X1259000Y1449000D02*
D03*
X1207000Y1464000D02*
D03*
X1194000Y1466000D02*
D03*
Y1538000D02*
D03*
X1143000Y1358000D02*
D03*
Y1393000D02*
D03*
X1041000Y1413000D02*
D03*
X1024000Y1377000D02*
D03*
X1052000Y1416000D02*
D03*
Y1377000D02*
D03*
X1143000Y1495000D02*
D03*
X1105000Y1483000D02*
D03*
X1223000Y261000D02*
D03*
X1257998Y251999D02*
D03*
X1266998Y236000D02*
D03*
X1206000Y236000D02*
D03*
X1197000Y252000D02*
D03*
X1214960Y244000D02*
D03*
X1088998Y440999D02*
D03*
X1079998Y449999D02*
D03*
X1145000Y141000D02*
D03*
X1144000Y155000D02*
D03*
X1188000Y227000D02*
D03*
X1097000Y1458000D02*
D03*
X1070000Y1471500D02*
D03*
X1071000Y1500000D02*
D03*
X1070000Y1532000D02*
D03*
X1058998Y1512497D02*
D03*
X1080000Y1490000D02*
D03*
X1149500Y450500D02*
D03*
X1179000Y459000D02*
D03*
X1160000Y441000D02*
D03*
X1177000Y339000D02*
D03*
X1269000D02*
D03*
X868251Y1607749D02*
D03*
X954000Y1604000D02*
D03*
X932000D02*
D03*
X1107000Y1664000D02*
D03*
X1058750Y1688750D02*
D03*
X1377000Y1586000D02*
D03*
X1413000D02*
D03*
X1484000D02*
D03*
X1426003Y1240003D02*
D03*
X1453000Y1253000D02*
D03*
X1465000Y1532000D02*
D03*
X934000Y1525000D02*
D03*
X919000Y1547220D02*
D03*
X770000Y1544000D02*
D03*
X781000Y1550000D02*
D03*
X780750Y1622000D02*
D03*
X800000D02*
D03*
X720000Y1603000D02*
D03*
X801000Y1551000D02*
D03*
X954000Y1525000D02*
D03*
X813000Y1568000D02*
D03*
X844000D02*
D03*
Y1555000D02*
D03*
X840000Y1420000D02*
D03*
X811000Y1442000D02*
D03*
X836000Y1525000D02*
D03*
X839000Y1442000D02*
D03*
X809000Y1493000D02*
D03*
X827000D02*
D03*
X836000Y1502000D02*
D03*
X796000Y1420000D02*
D03*
X776000Y1463000D02*
D03*
X804000Y1404000D02*
D03*
X908000Y1257000D02*
D03*
X834000Y1391000D02*
D03*
X908000Y1271000D02*
D03*
X1068998Y1229998D02*
D03*
X1009000Y818000D02*
D03*
X1110000Y1252000D02*
D03*
X1100000Y1230000D02*
D03*
X1088000Y1240710D02*
D03*
X1089000Y1470000D02*
D03*
X1043000Y1297000D02*
D03*
X1129250Y1327750D02*
D03*
X1142000Y1336000D02*
D03*
X1076000Y1346000D02*
D03*
X1033000Y1312000D02*
D03*
X648000Y1555000D02*
D03*
X574000Y1523000D02*
D03*
Y1422000D02*
D03*
X707000D02*
D03*
X377750Y1614000D02*
D03*
X436000Y1581000D02*
D03*
X481000Y1554000D02*
D03*
X574000Y1358000D02*
D03*
X458000Y1524000D02*
D03*
X559000Y1423000D02*
D03*
X561000Y1358000D02*
D03*
X294000Y1625000D02*
D03*
X247000Y1585000D02*
D03*
X226000Y1534000D02*
D03*
X187000Y1550000D02*
D03*
X248000Y1567000D02*
D03*
Y1550000D02*
D03*
X366000Y1547000D02*
D03*
X707000Y1336000D02*
D03*
X721040Y1370960D02*
D03*
X721000Y1336000D02*
D03*
X735250D02*
D03*
X748250D02*
D03*
X748000Y1430957D02*
D03*
X1075000Y1379000D02*
D03*
X696000Y1361000D02*
D03*
Y1414000D02*
D03*
X248000Y1515000D02*
D03*
X278000Y1542000D02*
D03*
X364000Y1490000D02*
D03*
X427000Y1626000D02*
D03*
X457000D02*
D03*
X218000Y1625000D02*
D03*
X241000Y1614000D02*
D03*
X280000Y1600000D02*
D03*
X136000Y1493000D02*
D03*
X134000Y1363000D02*
D03*
X138000Y1424997D02*
D03*
X435000Y1514000D02*
D03*
X405000Y1553000D02*
D03*
X435000Y1541000D02*
D03*
X406000Y1614000D02*
D03*
X1059998Y1200998D02*
D03*
X1050998Y1242998D02*
D03*
X1059998Y1187998D02*
D03*
X418000Y976000D02*
D03*
Y1047000D02*
D03*
X113000Y1011000D02*
D03*
X375000Y993000D02*
D03*
X178000Y1110000D02*
D03*
Y1138000D02*
D03*
X407000Y1122000D02*
D03*
X638000Y948000D02*
D03*
X623000D02*
D03*
X406000Y1004000D02*
D03*
X157000Y1209000D02*
D03*
X244000D02*
D03*
X1077998Y710999D02*
D03*
X1173000Y575000D02*
D03*
X1149998Y559999D02*
D03*
X620000Y1298000D02*
D03*
X1373000Y455000D02*
D03*
X1352000Y402000D02*
D03*
X1381040Y494000D02*
D03*
X1378000Y428000D02*
D03*
X1380997Y446999D02*
D03*
X1390000Y464000D02*
D03*
X1424386Y489000D02*
D03*
X1378000Y350000D02*
D03*
X1390000Y357000D02*
D03*
X1398000Y323000D02*
D03*
X1408000Y336000D02*
D03*
X1371000Y512000D02*
D03*
X1313500Y680000D02*
D03*
X1250000Y744000D02*
D03*
X1271000Y820000D02*
D03*
X1244000Y808000D02*
D03*
X1241998Y860998D02*
D03*
X1252998Y862998D02*
D03*
X1280000Y785000D02*
D03*
X1187000Y467000D02*
D03*
X1206000Y534000D02*
D03*
X1243000Y495000D02*
D03*
X992000Y491000D02*
D03*
X965000Y499000D02*
D03*
X984000Y500000D02*
D03*
X651000Y948000D02*
D03*
X665000Y947000D02*
D03*
X678000D02*
D03*
X691000D02*
D03*
X703000D02*
D03*
X717000D02*
D03*
X1130000Y1449000D02*
D03*
X1241000Y1436000D02*
D03*
X1144000Y1434000D02*
D03*
X985000Y444000D02*
D03*
X1100000Y572000D02*
D03*
X520000D02*
D03*
X506710Y583000D02*
D03*
X1088000D02*
D03*
X940000Y490000D02*
D03*
X1109000Y561000D02*
D03*
X921000Y478040D02*
D03*
X942000Y605000D02*
D03*
X1161998Y650999D02*
D03*
X911998Y641999D02*
D03*
X963000Y622000D02*
D03*
X951000Y453000D02*
D03*
X930000Y464000D02*
D03*
X931000Y453000D02*
D03*
X974450Y403450D02*
D03*
X894000Y490000D02*
D03*
X884000Y499000D02*
D03*
X912460Y423000D02*
D03*
X965000Y424000D02*
D03*
X894998Y452999D02*
D03*
X867000Y548000D02*
D03*
X858000Y536000D02*
D03*
X864000Y443000D02*
D03*
X848000Y562000D02*
D03*
X838000Y418000D02*
D03*
X912000Y621000D02*
D03*
X856000D02*
D03*
X826000Y418000D02*
D03*
X824000Y931000D02*
D03*
X964000Y923000D02*
D03*
X898000Y906000D02*
D03*
X1018000Y652000D02*
D03*
X1019000Y897000D02*
D03*
X963000Y742000D02*
D03*
Y911000D02*
D03*
X898000Y829000D02*
D03*
X1142000Y828000D02*
D03*
X730000Y947000D02*
D03*
X745000D02*
D03*
X745000Y915000D02*
D03*
X730000Y912000D02*
D03*
X814000Y418000D02*
D03*
X964000Y1214000D02*
D03*
X1078000Y1284000D02*
D03*
X755000Y1115000D02*
D03*
Y1095000D02*
D03*
X756000Y1152000D02*
D03*
Y1164000D02*
D03*
X755000Y1201000D02*
D03*
Y1216000D02*
D03*
Y1230000D02*
D03*
X756000Y1255000D02*
D03*
X724000Y1262000D02*
D03*
X585999Y1260997D02*
D03*
X615000Y1261000D02*
D03*
X573000D02*
D03*
X567000Y1213000D02*
D03*
X578000Y1172000D02*
D03*
Y1157000D02*
D03*
X566999Y1092998D02*
D03*
X566000Y1078000D02*
D03*
X643000Y1073000D02*
D03*
X659999Y1072998D02*
D03*
X698999D02*
D03*
X799000Y1274000D02*
D03*
X518000Y1266000D02*
D03*
X676000Y1350000D02*
D03*
X662999Y1260997D02*
D03*
X734000Y1073000D02*
D03*
X804000Y1079000D02*
D03*
X760000Y1044000D02*
D03*
X778000Y1064000D02*
D03*
X716000Y1101000D02*
D03*
X755999Y1140998D02*
D03*
X717000Y1133000D02*
D03*
X754998Y1189998D02*
D03*
X717000Y1181000D02*
D03*
X744000Y1261000D02*
D03*
X674000Y1223000D02*
D03*
X602000Y1251000D02*
D03*
X610000Y1223000D02*
D03*
X599000Y1290000D02*
D03*
Y1326000D02*
D03*
X674000Y1290000D02*
D03*
Y1327000D02*
D03*
X574000Y1235000D02*
D03*
X577500Y1185000D02*
D03*
X605000Y1194000D02*
D03*
X629999Y1072998D02*
D03*
X616000Y1088000D02*
D03*
X670999Y1072998D02*
D03*
X685000Y1083000D02*
D03*
X677000Y1111000D02*
D03*
X605000Y1136000D02*
D03*
X567000Y1120000D02*
D03*
X578000Y1127120D02*
D03*
X604000Y1362000D02*
D03*
Y1375000D02*
D03*
X617000D02*
D03*
Y1362000D02*
D03*
X630000Y1375000D02*
D03*
Y1362000D02*
D03*
X643000Y1375000D02*
D03*
Y1362000D02*
D03*
X657000Y1375000D02*
D03*
Y1362000D02*
D03*
X671000Y1375000D02*
D03*
Y1362000D02*
D03*
X448750Y1614750D02*
D03*
X335000Y1644000D02*
D03*
X261000Y1614000D02*
D03*
X202000D02*
D03*
X1481000Y1130000D02*
D03*
X1466000Y1116000D02*
D03*
X1354000D02*
D03*
X1192500Y1115500D02*
D03*
X1329000Y1130000D02*
D03*
X1220000Y1605000D02*
D03*
X1270000Y1575000D02*
D03*
X1258000Y1537000D02*
D03*
X1415000Y997000D02*
D03*
X1426000Y1167000D02*
D03*
X1354500Y1181500D02*
D03*
X1014998Y422999D02*
D03*
X1084000Y423000D02*
D03*
X1029000Y464000D02*
D03*
X1329993Y348000D02*
D03*
X1167000D02*
D03*
X1155000Y361000D02*
D03*
X452000Y704000D02*
D03*
X942000Y1342000D02*
D03*
X350000Y1501000D02*
D03*
X54000Y1227000D02*
D03*
X775000Y999000D02*
D03*
X1395000Y1215000D02*
D03*
X937000Y1406000D02*
D03*
X936000Y1431000D02*
D03*
X939000Y1383000D02*
D03*
X156000Y1479000D02*
D03*
X731000Y987000D02*
D03*
X717500D02*
D03*
X882000Y433000D02*
D03*
D183*
X245000Y962000D02*
D03*
Y931000D02*
D03*
X244000Y1478000D02*
D03*
X230000Y1463000D02*
D03*
Y946000D02*
D03*
X146000Y675000D02*
D03*
X160000Y856000D02*
D03*
X161000Y691000D02*
D03*
X202000Y674110D02*
D03*
X221000Y691000D02*
D03*
X202000Y546000D02*
D03*
X221000Y547000D02*
D03*
X449040Y962000D02*
D03*
X1176000Y778000D02*
D03*
X221000Y658000D02*
D03*
X146000Y840998D02*
D03*
X450000Y930000D02*
D03*
X435000Y909000D02*
D03*
X578000Y554000D02*
D03*
Y878000D02*
D03*
X560000Y862000D02*
D03*
X646000Y762000D02*
D03*
X539753Y1665753D02*
D03*
X34000Y1545495D02*
D03*
X645000Y1668000D02*
D03*
X13000Y1372000D02*
D03*
X27000Y1467000D02*
D03*
Y1339000D02*
D03*
X13000Y1500000D02*
D03*
X636000Y743000D02*
D03*
X729220Y707220D02*
D03*
X653000Y707000D02*
D03*
X472000Y240000D02*
D03*
X469000Y809000D02*
D03*
X468999Y792998D02*
D03*
X452000Y822000D02*
D03*
X484000Y730000D02*
D03*
X730780Y742780D02*
D03*
X728000Y763960D02*
D03*
X483000Y909000D02*
D03*
Y945000D02*
D03*
X560000Y535000D02*
D03*
X435000Y946000D02*
D03*
X645000Y808000D02*
D03*
X1193000Y765000D02*
D03*
X811000Y870960D02*
D03*
X791000Y886000D02*
D03*
X1144000Y857000D02*
D03*
X1159000Y840000D02*
D03*
X791000Y1026000D02*
D03*
X811000Y999000D02*
D03*
D184*
X452000Y776000D02*
D03*
X620000Y1120001D02*
D03*
Y1140001D02*
D03*
Y1160001D02*
D03*
Y1180001D02*
D03*
Y1200001D02*
D03*
Y1220001D02*
D03*
X640001Y1120001D02*
D03*
Y1140001D02*
D03*
Y1160001D02*
D03*
Y1180001D02*
D03*
Y1200001D02*
D03*
Y1220001D02*
D03*
Y1240001D02*
D03*
Y1260001D02*
D03*
X660001Y1120001D02*
D03*
Y1140001D02*
D03*
Y1160001D02*
D03*
Y1180001D02*
D03*
Y1200001D02*
D03*
Y1220001D02*
D03*
X680001Y1140001D02*
D03*
Y1160001D02*
D03*
Y1180001D02*
D03*
Y1200001D02*
D03*
X700001Y1120001D02*
D03*
Y1140001D02*
D03*
Y1160001D02*
D03*
Y1180001D02*
D03*
Y1200001D02*
D03*
Y1220001D02*
D03*
D185*
X377750Y415000D02*
D03*
X412250D02*
D03*
X62750Y417500D02*
D03*
X97250D02*
D03*
X217750Y415000D02*
D03*
X252250D02*
D03*
X643250Y284000D02*
D03*
X608750D02*
D03*
D186*
X1408000Y1540250D02*
D03*
Y1505750D02*
D03*
X1409000Y1200750D02*
D03*
Y1166250D02*
D03*
X359000Y612250D02*
D03*
Y577750D02*
D03*
D187*
X1224000Y622350D02*
D03*
Y589650D02*
D03*
D188*
X660400Y320000D02*
D03*
D189*
X635000D02*
D03*
X609600D02*
D03*
X584200D02*
D03*
X660400Y412000D02*
D03*
X635000D02*
D03*
X609600D02*
D03*
X584200D02*
D03*
D190*
X97000Y1461250D02*
D03*
Y1521750D02*
D03*
X94500Y1326250D02*
D03*
Y1386750D02*
D03*
D191*
X588000Y1605000D02*
D03*
X648500D02*
D03*
D192*
X1105000Y1373000D02*
D03*
X855998Y236000D02*
D03*
X104000Y1019000D02*
D03*
X890000Y414000D02*
D03*
X1119000Y633000D02*
D03*
X904000Y632000D02*
D03*
X567000Y1201000D02*
D03*
X578000Y1143000D02*
D03*
M02*
