G04 Layer_Color=32896*
%FSLAX44Y44*%
%MOMM*%
G71*
G01*
G75*
%ADD99C,0.2500*%
%ADD101C,0.1000*%
%ADD102C,0.2000*%
%ADD103C,0.6000*%
%ADD105C,0.1270*%
%ADD108C,0.1500*%
D99*
X1126250Y1595000D02*
G03*
X1126250Y1595000I-1250J0D01*
G01*
X1058250D02*
G03*
X1058250Y1595000I-1250J0D01*
G01*
X651250Y481000D02*
G03*
X651250Y481000I-1250J0D01*
G01*
X670650Y320000D02*
G03*
X670650Y320000I-1250J0D01*
G01*
X1031124Y727390D02*
X1033624Y729889D01*
X1038622D01*
X1041121Y727390D01*
Y717393D01*
X1038622Y714894D01*
X1033624D01*
X1031124Y717393D01*
X1023627Y714894D02*
X1018628D01*
X1016129Y717393D01*
Y722392D01*
X1018628Y724891D01*
X1023627D01*
X1026126Y722392D01*
Y717393D01*
X1023627Y714894D01*
X1011131D02*
Y724891D01*
X1003633D01*
X1001134Y722392D01*
Y714894D01*
X993636Y727390D02*
Y724891D01*
X996136D01*
X991137D01*
X993636D01*
Y717393D01*
X991137Y714894D01*
X983640Y724891D02*
Y714894D01*
Y719893D01*
X981141Y722392D01*
X978641Y724891D01*
X976142D01*
X966145Y714894D02*
X961147D01*
X958648Y717393D01*
Y722392D01*
X961147Y724891D01*
X966145D01*
X968645Y722392D01*
Y717393D01*
X966145Y714894D01*
X953649D02*
X948651D01*
X951150D01*
Y729889D01*
X953649D01*
X941153D02*
Y719893D01*
X936155Y714894D01*
X931157Y719893D01*
Y729889D01*
X926158Y714894D02*
Y729889D01*
X918661D01*
X916162Y727390D01*
Y722392D01*
X918661Y719893D01*
X926158D01*
X921160D02*
X916162Y714894D01*
X1106500Y679003D02*
Y693998D01*
X1099003D01*
X1096503Y691498D01*
Y686500D01*
X1099003Y684001D01*
X1106500D01*
X1101502D02*
X1096503Y679003D01*
X1091505D02*
X1086507D01*
X1089006D01*
Y693998D01*
X1091505Y691498D01*
X1079009D02*
X1076510Y693998D01*
X1071511D01*
X1069012Y691498D01*
Y681502D01*
X1071511Y679003D01*
X1076510D01*
X1079009Y681502D01*
Y691498D01*
X1064014D02*
X1061515Y693998D01*
X1056516D01*
X1054017Y691498D01*
Y681502D01*
X1056516Y679003D01*
X1061515D01*
X1064014Y681502D01*
Y691498D01*
X1049019Y679003D02*
Y681502D01*
X1046519D01*
Y679003D01*
X1049019D01*
X1026526D02*
X1036523D01*
X1026526Y688999D01*
Y691498D01*
X1029025Y693998D01*
X1034024D01*
X1036523Y691498D01*
X1021527D02*
X1019028Y693998D01*
X1014030D01*
X1011531Y691498D01*
Y688999D01*
X1014030Y686500D01*
X1016529D01*
X1014030D01*
X1011531Y684001D01*
Y681502D01*
X1014030Y679003D01*
X1019028D01*
X1021527Y681502D01*
X1006532Y691498D02*
X1004033Y693998D01*
X999035D01*
X996536Y691498D01*
Y681502D01*
X999035Y679003D01*
X1004033D01*
X1006532Y681502D01*
Y691498D01*
X991537Y679003D02*
Y681502D01*
X989038D01*
Y679003D01*
X991537D01*
X979041Y691498D02*
X976542Y693998D01*
X971544D01*
X969044Y691498D01*
Y681502D01*
X971544Y679003D01*
X976542D01*
X979041Y681502D01*
Y691498D01*
X964046D02*
X961547Y693998D01*
X956549D01*
X954049Y691498D01*
Y688999D01*
X956549Y686500D01*
X959048D01*
X956549D01*
X954049Y684001D01*
Y681502D01*
X956549Y679003D01*
X961547D01*
X964046Y681502D01*
X949051Y691498D02*
X946552Y693998D01*
X941553D01*
X939054Y691498D01*
Y681502D01*
X941553Y679003D01*
X946552D01*
X949051Y681502D01*
Y691498D01*
X934056Y679003D02*
Y681502D01*
X931557D01*
Y679003D01*
X934056D01*
X921560Y691498D02*
X919061Y693998D01*
X914062D01*
X911563Y691498D01*
Y681502D01*
X914062Y679003D01*
X919061D01*
X921560Y681502D01*
Y691498D01*
X906565D02*
X904066Y693998D01*
X899067D01*
X896568Y691498D01*
Y681502D01*
X899067Y679003D01*
X904066D01*
X906565Y681502D01*
Y691498D01*
X891570Y679003D02*
X886571D01*
X889070D01*
Y693998D01*
X891570Y691498D01*
X879074Y686500D02*
X869077D01*
X864079Y691498D02*
X861579Y693998D01*
X856581D01*
X854082Y691498D01*
Y681502D01*
X856581Y679003D01*
X861579D01*
X864079Y681502D01*
Y691498D01*
X849083D02*
X846584Y693998D01*
X841586D01*
X839087Y691498D01*
Y681502D01*
X841586Y679003D01*
X846584D01*
X849083Y681502D01*
Y691498D01*
D101*
X208500Y1058000D02*
Y1061000D01*
X200500Y1058000D02*
Y1061000D01*
X197500Y1045000D02*
X211500D01*
X197500D02*
Y1074000D01*
X211500D01*
Y1045000D02*
Y1074000D01*
X1074000Y184750D02*
X1100500D01*
X1074000Y171250D02*
Y184750D01*
Y171250D02*
X1100500D01*
Y184750D01*
X1086250Y182250D02*
X1088250D01*
X1085250Y173750D02*
X1089250D01*
X1088250Y182250D02*
X1089250D01*
X1085250D02*
X1086250D01*
X1074000Y212750D02*
X1100500D01*
X1074000Y199250D02*
Y212750D01*
Y199250D02*
X1100500D01*
Y212750D01*
X1086250Y210250D02*
X1088250D01*
X1085250Y201750D02*
X1089250D01*
X1088250Y210250D02*
X1089250D01*
X1085250D02*
X1086250D01*
X899750Y240500D02*
Y267000D01*
Y240500D02*
X913250D01*
Y267000D01*
X899750D02*
X913250D01*
X902250Y252750D02*
Y254750D01*
X910750Y251750D02*
Y255750D01*
X902250Y254750D02*
Y255750D01*
Y251750D02*
Y252750D01*
X885250Y240500D02*
Y267000D01*
X871750D02*
X885250D01*
X871750Y240500D02*
Y267000D01*
Y240500D02*
X885250D01*
X882750Y252750D02*
Y254750D01*
X874250Y251750D02*
Y255750D01*
X882750Y251750D02*
Y252750D01*
Y254750D02*
Y255750D01*
X843750Y240500D02*
Y267000D01*
Y240500D02*
X857250D01*
Y267000D01*
X843750D02*
X857250D01*
X846250Y252750D02*
Y254750D01*
X854750Y251750D02*
Y255750D01*
X846250Y254750D02*
Y255750D01*
Y251750D02*
Y252750D01*
X815750Y240500D02*
Y267000D01*
Y240500D02*
X829250D01*
Y267000D01*
X815750D02*
X829250D01*
X818250Y252750D02*
Y254750D01*
X826750Y251750D02*
Y255750D01*
X818250Y254750D02*
Y255750D01*
Y251750D02*
Y252750D01*
X1015750Y149750D02*
Y176250D01*
X1002250D02*
X1015750D01*
X1002250Y149750D02*
Y176250D01*
Y149750D02*
X1015750D01*
X1013250Y162000D02*
Y164000D01*
X1004750Y161000D02*
Y165000D01*
X1013250Y161000D02*
Y162000D01*
Y164000D02*
Y165000D01*
X1186750Y1578250D02*
Y1611750D01*
Y1578250D02*
X1205250D01*
Y1611750D01*
X1186750D02*
X1205250D01*
X1189500Y1591000D02*
Y1599000D01*
X1202500Y1591000D02*
Y1599000D01*
X1086750Y1593000D02*
Y1639000D01*
X1065250D02*
X1086750D01*
X1065250Y1593000D02*
Y1639000D01*
Y1593000D02*
X1086750D01*
X1067750Y1611500D02*
Y1620500D01*
X1084250Y1611500D02*
Y1620500D01*
X1381750Y1510750D02*
Y1537250D01*
X1368250D02*
X1381750D01*
X1368250Y1510750D02*
Y1537250D01*
Y1510750D02*
X1381750D01*
X1379250Y1523000D02*
Y1525000D01*
X1370750Y1522000D02*
Y1526000D01*
X1379250Y1522000D02*
Y1523000D01*
Y1525000D02*
Y1526000D01*
X1351750Y1558750D02*
X1378250D01*
X1351750Y1545250D02*
Y1558750D01*
Y1545250D02*
X1378250D01*
Y1558750D01*
X1364000Y1556250D02*
X1366000D01*
X1363000Y1547750D02*
X1367000D01*
X1366000Y1556250D02*
X1367000D01*
X1363000D02*
X1364000D01*
X1423750Y1010750D02*
X1450250D01*
X1423750Y997250D02*
Y1010750D01*
Y997250D02*
X1450250D01*
Y1010750D01*
X1436000Y1008250D02*
X1438000D01*
X1435000Y999750D02*
X1439000D01*
X1438000Y1008250D02*
X1439000D01*
X1435000D02*
X1436000D01*
X1423750Y1024750D02*
X1450250D01*
X1423750Y1011250D02*
Y1024750D01*
Y1011250D02*
X1450250D01*
Y1024750D01*
X1436000Y1022250D02*
X1438000D01*
X1435000Y1013750D02*
X1439000D01*
X1438000Y1022250D02*
X1439000D01*
X1435000D02*
X1436000D01*
X1483250Y740250D02*
Y773750D01*
X1464750D02*
X1483250D01*
X1464750Y740250D02*
Y773750D01*
Y740250D02*
X1483250D01*
X1480500Y753000D02*
Y761000D01*
X1467500Y753000D02*
Y761000D01*
X1464750Y819250D02*
X1491250D01*
Y832750D01*
X1464750D02*
X1491250D01*
X1464750Y819250D02*
Y832750D01*
X1477000Y821750D02*
X1479000D01*
X1476000Y830250D02*
X1480000D01*
X1476000Y821750D02*
X1477000D01*
X1479000D02*
X1480000D01*
X1217750Y548750D02*
Y575250D01*
X1204250D02*
X1217750D01*
X1204250Y548750D02*
Y575250D01*
Y548750D02*
X1217750D01*
X1215250Y561000D02*
Y563000D01*
X1206750Y560000D02*
Y564000D01*
X1215250Y560000D02*
Y561000D01*
Y563000D02*
Y564000D01*
X1354750Y631750D02*
X1388250D01*
Y650250D01*
X1354750D02*
X1388250D01*
X1354750Y631750D02*
Y650250D01*
X1367500Y634500D02*
X1375500D01*
X1367500Y647500D02*
X1375500D01*
X710750Y955500D02*
Y982000D01*
Y955500D02*
X724250D01*
Y982000D01*
X710750D02*
X724250D01*
X713250Y967750D02*
Y969750D01*
X721750Y966750D02*
Y970750D01*
X713250Y969750D02*
Y970750D01*
Y966750D02*
Y967750D01*
X724250Y955500D02*
Y982000D01*
Y955500D02*
X737750D01*
Y982000D01*
X724250D02*
X737750D01*
X726750Y967750D02*
Y969750D01*
X735250Y966750D02*
Y970750D01*
X726750Y969750D02*
Y970750D01*
Y966750D02*
Y967750D01*
X696750Y469250D02*
Y495750D01*
X683250D02*
X696750D01*
X683250Y469250D02*
Y495750D01*
Y469250D02*
X696750D01*
X694250Y481500D02*
Y483500D01*
X685750Y480500D02*
Y484500D01*
X694250Y480500D02*
Y481500D01*
Y483500D02*
Y484500D01*
X631000Y454000D02*
X639000D01*
X631000Y441000D02*
X639000D01*
X618250Y438250D02*
Y456750D01*
X651750D01*
Y438250D02*
Y456750D01*
X618250Y438250D02*
X651750D01*
X675250Y252000D02*
Y298000D01*
Y252000D02*
X696750D01*
Y298000D01*
X675250D02*
X696750D01*
X694250Y270500D02*
Y279500D01*
X677750Y270500D02*
Y279500D01*
X551250Y252000D02*
Y298000D01*
Y252000D02*
X572750D01*
Y298000D01*
X551250D02*
X572750D01*
X570250Y270500D02*
Y279500D01*
X553750Y270500D02*
Y279500D01*
X696750Y438750D02*
Y465250D01*
X683250D02*
X696750D01*
X683250Y438750D02*
Y465250D01*
Y438750D02*
X696750D01*
X694250Y451000D02*
Y453000D01*
X685750Y450000D02*
Y454000D01*
X694250Y450000D02*
Y451000D01*
Y453000D02*
Y454000D01*
X688000Y224250D02*
X734000D01*
Y245750D01*
X688000D02*
X734000D01*
X688000Y224250D02*
Y245750D01*
X706500Y243250D02*
X715500D01*
X706500Y226750D02*
X715500D01*
X515000Y245750D02*
X561000D01*
X515000Y224250D02*
Y245750D01*
Y224250D02*
X561000D01*
Y245750D01*
X533500Y226750D02*
X542500D01*
X533500Y243250D02*
X542500D01*
X82249Y910500D02*
Y917500D01*
X68749Y910500D02*
Y917500D01*
X66499Y932000D02*
X84499D01*
Y896000D02*
Y932000D01*
X66499Y896000D02*
X84499D01*
X66499D02*
Y932000D01*
X28000Y912500D02*
Y915500D01*
X36000Y912500D02*
Y915500D01*
X25000Y928500D02*
X39000D01*
Y899500D02*
Y928500D01*
X25000Y899500D02*
X39000D01*
X25000D02*
Y928500D01*
X584500Y1147000D02*
X587500D01*
X584500Y1139000D02*
X587500D01*
X600500Y1136000D02*
Y1150000D01*
X571500Y1136000D02*
X600500D01*
X571500D02*
Y1150000D01*
X600500D01*
X584500Y1161000D02*
X587500D01*
X584500Y1153000D02*
X587500D01*
X600500Y1150000D02*
Y1164000D01*
X571500Y1150000D02*
X600500D01*
X571500D02*
Y1164000D01*
X600500D01*
X584500Y1175500D02*
X587500D01*
X584500Y1167500D02*
X587500D01*
X600500Y1164500D02*
Y1178500D01*
X571500Y1164500D02*
X600500D01*
X571500D02*
Y1178500D01*
X600500D01*
X884500Y1543000D02*
X887500D01*
X884500Y1551000D02*
X887500D01*
X871500Y1540000D02*
Y1554000D01*
X900500D01*
Y1540000D02*
Y1554000D01*
X871500Y1540000D02*
X900500D01*
X758500Y1664000D02*
X761500D01*
X758500Y1672000D02*
X761500D01*
X745500Y1661000D02*
Y1675000D01*
X774500D01*
Y1661000D02*
Y1675000D01*
X745500Y1661000D02*
X774500D01*
X817250Y1424000D02*
X820250D01*
X817250Y1416000D02*
X820250D01*
X833250Y1413000D02*
Y1427000D01*
X804250Y1413000D02*
X833250D01*
X804250D02*
Y1427000D01*
X833250D01*
X817500Y1460000D02*
X820500D01*
X817500Y1452000D02*
X820500D01*
X833500Y1449000D02*
Y1463000D01*
X804500Y1449000D02*
X833500D01*
X804500D02*
Y1463000D01*
X833500D01*
X732500Y1540000D02*
X735500D01*
X732500Y1548000D02*
X735500D01*
X719500Y1537000D02*
Y1551000D01*
X748500D01*
Y1537000D02*
Y1551000D01*
X719500Y1537000D02*
X748500D01*
X905500Y1664000D02*
X908500D01*
X905500Y1672000D02*
X908500D01*
X892500Y1661000D02*
Y1675000D01*
X921500D01*
Y1661000D02*
Y1675000D01*
X892500Y1661000D02*
X921500D01*
X853500Y1409000D02*
X856500D01*
X853500Y1401000D02*
X856500D01*
X869500Y1398000D02*
Y1412000D01*
X840500Y1398000D02*
X869500D01*
X840500D02*
Y1412000D01*
X869500D01*
X853500Y1395000D02*
X856500D01*
X853500Y1387000D02*
X856500D01*
X869500Y1384000D02*
Y1398000D01*
X840500Y1384000D02*
X869500D01*
X840500D02*
Y1398000D01*
X869500D01*
X539250Y1538500D02*
Y1541500D01*
X547250Y1538500D02*
Y1541500D01*
X536250Y1554500D02*
X550250D01*
Y1525500D02*
Y1554500D01*
X536250Y1525500D02*
X550250D01*
X536250D02*
Y1554500D01*
X190000Y1439500D02*
Y1442500D01*
X198000Y1439500D02*
Y1442500D01*
X187000Y1455500D02*
X201000D01*
Y1426500D02*
Y1455500D01*
X187000Y1426500D02*
X201000D01*
X187000D02*
Y1455500D01*
X578000Y1241500D02*
Y1244500D01*
X570000Y1241500D02*
Y1244500D01*
X567000Y1228500D02*
X581000D01*
X567000D02*
Y1257500D01*
X581000D01*
Y1228500D02*
Y1257500D01*
X624250Y1559000D02*
X627250D01*
X624250Y1551000D02*
X627250D01*
X640250Y1548000D02*
Y1562000D01*
X611250Y1548000D02*
X640250D01*
X611250D02*
Y1562000D01*
X640250D01*
X616750Y1671500D02*
X619750D01*
X616750Y1663500D02*
X619750D01*
X632750Y1660500D02*
Y1674500D01*
X603750Y1660500D02*
X632750D01*
X603750D02*
Y1674500D01*
X632750D01*
X624250Y1537250D02*
X627250D01*
X624250Y1545250D02*
X627250D01*
X611250Y1534250D02*
Y1548250D01*
X640250D01*
Y1534250D02*
Y1548250D01*
X611250Y1534250D02*
X640250D01*
X584500Y1203500D02*
X587500D01*
X584500Y1195500D02*
X587500D01*
X600500Y1192500D02*
Y1206500D01*
X571500Y1192500D02*
X600500D01*
X571500D02*
Y1206500D01*
X600500D01*
X175500Y1387000D02*
X178500D01*
X175500Y1395000D02*
X178500D01*
X162500Y1384000D02*
Y1398000D01*
X191500D01*
Y1384000D02*
Y1398000D01*
X162500Y1384000D02*
X191500D01*
X584500Y1218000D02*
X587500D01*
X584500Y1210000D02*
X587500D01*
X600500Y1207000D02*
Y1221000D01*
X571500Y1207000D02*
X600500D01*
X571500D02*
Y1221000D01*
X600500D01*
X174500Y1475000D02*
X177500D01*
X174500Y1483000D02*
X177500D01*
X161500Y1472000D02*
Y1486000D01*
X190500D01*
Y1472000D02*
Y1486000D01*
X161500Y1472000D02*
X190500D01*
X28000Y1492500D02*
Y1495500D01*
X36000Y1492500D02*
Y1495500D01*
X25000Y1508500D02*
X39000D01*
Y1479500D02*
Y1508500D01*
X25000Y1479500D02*
X39000D01*
X25000D02*
Y1508500D01*
X268500Y1570500D02*
X271500D01*
X268500Y1562500D02*
X271500D01*
X284500Y1559500D02*
Y1573500D01*
X255500Y1559500D02*
X284500D01*
X255500D02*
Y1573500D01*
X284500D01*
X456750Y1577000D02*
X459750D01*
X456750Y1569000D02*
X459750D01*
X472750Y1566000D02*
Y1580000D01*
X443750Y1566000D02*
X472750D01*
X443750D02*
Y1580000D01*
X472750D01*
X268500Y1588000D02*
X271500D01*
X268500Y1580000D02*
X271500D01*
X284500Y1577000D02*
Y1591000D01*
X255500Y1577000D02*
X284500D01*
X255500D02*
Y1591000D01*
X284500D01*
X456500Y1550000D02*
X459500D01*
X456500Y1558000D02*
X459500D01*
X443500Y1547000D02*
Y1561000D01*
X472500D01*
Y1547000D02*
Y1561000D01*
X443500Y1547000D02*
X472500D01*
X268500Y1547500D02*
X271500D01*
X268500Y1555500D02*
X271500D01*
X255500Y1544500D02*
Y1558500D01*
X284500D01*
Y1544500D02*
Y1558500D01*
X255500Y1544500D02*
X284500D01*
X384250Y1550750D02*
X387250D01*
X384250Y1542750D02*
X387250D01*
X400250Y1539750D02*
Y1553750D01*
X371250Y1539750D02*
X400250D01*
X371250D02*
Y1553750D01*
X400250D01*
X208500Y1554250D02*
X211500D01*
X208500Y1546250D02*
X211500D01*
X224500Y1543250D02*
Y1557250D01*
X195500Y1543250D02*
X224500D01*
X195500D02*
Y1557250D01*
X224500D01*
X384250Y1570750D02*
X387250D01*
X384250Y1562750D02*
X387250D01*
X400250Y1559750D02*
Y1573750D01*
X371250Y1559750D02*
X400250D01*
X371250D02*
Y1573750D01*
X400250D01*
X208500Y1575250D02*
X211500D01*
X208500Y1567250D02*
X211500D01*
X224500Y1564250D02*
Y1578250D01*
X195500Y1564250D02*
X224500D01*
X195500D02*
Y1578250D01*
X224500D01*
X1261500Y384750D02*
X1264500D01*
X1261500Y376750D02*
X1264500D01*
X1277500Y373750D02*
Y387750D01*
X1248500Y373750D02*
X1277500D01*
X1248500D02*
Y387750D01*
X1277500D01*
X1261500Y398750D02*
X1264500D01*
X1261500Y390750D02*
X1264500D01*
X1277500Y387750D02*
Y401750D01*
X1248500Y387750D02*
X1277500D01*
X1248500D02*
Y401750D01*
X1277500D01*
X1261500Y412750D02*
X1264500D01*
X1261500Y404750D02*
X1264500D01*
X1277500Y401750D02*
Y415750D01*
X1248500Y401750D02*
X1277500D01*
X1248500D02*
Y415750D01*
X1277500D01*
X1292500Y432750D02*
Y435750D01*
X1284500Y432750D02*
Y435750D01*
X1281500Y419750D02*
X1295500D01*
X1281500D02*
Y448750D01*
X1295500D01*
Y419750D02*
Y448750D01*
X1261500Y481750D02*
X1264500D01*
X1261500Y473750D02*
X1264500D01*
X1277500Y470750D02*
Y484750D01*
X1248500Y470750D02*
X1277500D01*
X1248500D02*
Y484750D01*
X1277500D01*
X1261500Y468250D02*
X1264500D01*
X1261500Y460250D02*
X1264500D01*
X1277500Y457250D02*
Y471250D01*
X1248500Y457250D02*
X1277500D01*
X1248500D02*
Y471250D01*
X1277500D01*
X1261500Y454750D02*
X1264500D01*
X1261500Y446750D02*
X1264500D01*
X1277500Y443750D02*
Y457750D01*
X1248500Y443750D02*
X1277500D01*
X1248500D02*
Y457750D01*
X1277500D01*
X1261500Y440750D02*
X1264500D01*
X1261500Y432750D02*
X1264500D01*
X1277500Y429750D02*
Y443750D01*
X1248500Y429750D02*
X1277500D01*
X1248500D02*
Y443750D01*
X1277500D01*
X734000Y1152000D02*
X737000D01*
X734000Y1144000D02*
X737000D01*
X750000Y1141000D02*
Y1155000D01*
X721000Y1141000D02*
X750000D01*
X721000D02*
Y1155000D01*
X750000D01*
X734000Y1172000D02*
X737000D01*
X734000Y1164000D02*
X737000D01*
X750000Y1161000D02*
Y1175000D01*
X721000Y1161000D02*
X750000D01*
X721000D02*
Y1175000D01*
X750000D01*
X1297000Y237250D02*
X1300000D01*
X1297000Y245250D02*
X1300000D01*
X1284000Y234250D02*
Y248250D01*
X1313000D01*
Y234250D02*
Y248250D01*
X1284000Y234250D02*
X1313000D01*
X1297000Y251000D02*
X1300000D01*
X1297000Y259000D02*
X1300000D01*
X1284000Y248000D02*
Y262000D01*
X1313000D01*
Y248000D02*
Y262000D01*
X1284000Y248000D02*
X1313000D01*
X1297000Y265000D02*
X1300000D01*
X1297000Y273000D02*
X1300000D01*
X1284000Y262000D02*
Y276000D01*
X1313000D01*
Y262000D02*
Y276000D01*
X1284000Y262000D02*
X1313000D01*
X1297000Y279250D02*
X1300000D01*
X1297000Y287250D02*
X1300000D01*
X1284000Y276250D02*
Y290250D01*
X1313000D01*
Y276250D02*
Y290250D01*
X1284000Y276250D02*
X1313000D01*
X1340000Y225250D02*
X1343000D01*
X1340000Y217250D02*
X1343000D01*
X1356000Y214250D02*
Y228250D01*
X1327000Y214250D02*
X1356000D01*
X1327000D02*
Y228250D01*
X1356000D01*
X1340000Y239250D02*
X1343000D01*
X1340000Y231250D02*
X1343000D01*
X1356000Y228250D02*
Y242250D01*
X1327000Y228250D02*
X1356000D01*
X1327000D02*
Y242250D01*
X1356000D01*
X1087000Y196000D02*
X1090000D01*
X1087000Y188000D02*
X1090000D01*
X1103000Y185000D02*
Y199000D01*
X1074000Y185000D02*
X1103000D01*
X1074000D02*
Y199000D01*
X1103000D01*
X1087000Y224000D02*
X1090000D01*
X1087000Y216000D02*
X1090000D01*
X1103000Y213000D02*
Y227000D01*
X1074000Y213000D02*
X1103000D01*
X1074000D02*
Y227000D01*
X1103000D01*
X916500Y253500D02*
Y256500D01*
X924500Y253500D02*
Y256500D01*
X913500Y269500D02*
X927500D01*
Y240500D02*
Y269500D01*
X913500Y240500D02*
X927500D01*
X913500D02*
Y269500D01*
X888500Y253500D02*
Y256500D01*
X896500Y253500D02*
Y256500D01*
X885500Y269500D02*
X899500D01*
Y240500D02*
Y269500D01*
X885500Y240500D02*
X899500D01*
X885500D02*
Y269500D01*
X860500Y253500D02*
Y256500D01*
X868500Y253500D02*
Y256500D01*
X857500Y269500D02*
X871500D01*
Y240500D02*
Y269500D01*
X857500Y240500D02*
X871500D01*
X857500D02*
Y269500D01*
X832500Y253500D02*
Y256500D01*
X840500Y253500D02*
Y256500D01*
X829500Y269500D02*
X843500D01*
Y240500D02*
Y269500D01*
X829500Y240500D02*
X843500D01*
X829500D02*
Y269500D01*
X666000Y1089500D02*
Y1092500D01*
X674000Y1089500D02*
Y1092500D01*
X663000Y1105500D02*
X677000D01*
Y1076500D02*
Y1105500D01*
X663000Y1076500D02*
X677000D01*
X663000D02*
Y1105500D01*
X653000Y1089500D02*
Y1092500D01*
X661000Y1089500D02*
Y1092500D01*
X650000Y1105500D02*
X664000D01*
Y1076500D02*
Y1105500D01*
X650000Y1076500D02*
X664000D01*
X650000D02*
Y1105500D01*
X639000Y1089500D02*
Y1092500D01*
X647000Y1089500D02*
Y1092500D01*
X636000Y1105500D02*
X650000D01*
Y1076500D02*
Y1105500D01*
X636000Y1076500D02*
X650000D01*
X636000D02*
Y1105500D01*
X980000Y182000D02*
X983000D01*
X980000Y190000D02*
X983000D01*
X967000Y179000D02*
Y193000D01*
X996000D01*
Y179000D02*
Y193000D01*
X967000Y179000D02*
X996000D01*
X980000Y167500D02*
X983000D01*
X980000Y175500D02*
X983000D01*
X967000Y164500D02*
Y178500D01*
X996000D01*
Y164500D02*
Y178500D01*
X967000Y164500D02*
X996000D01*
X980000Y152500D02*
X983000D01*
X980000Y160500D02*
X983000D01*
X967000Y149500D02*
Y163500D01*
X996000D01*
Y149500D02*
Y163500D01*
X967000Y149500D02*
X996000D01*
X870500Y283000D02*
X873500D01*
X870500Y275000D02*
X873500D01*
X886500Y272000D02*
Y286000D01*
X857500Y272000D02*
X886500D01*
X857500D02*
Y286000D01*
X886500D01*
X871500Y359000D02*
X874500D01*
X871500Y351000D02*
X874500D01*
X887500Y348000D02*
Y362000D01*
X858500Y348000D02*
X887500D01*
X858500D02*
Y362000D01*
X887500D01*
X1008500Y39500D02*
Y54500D01*
X1025500Y39500D02*
Y54500D01*
X1006000Y71750D02*
X1028000D01*
Y22250D02*
Y71750D01*
X1006000Y22250D02*
X1028000D01*
X1006000D02*
Y71750D01*
X695000Y1089500D02*
Y1092500D01*
X703000Y1089500D02*
Y1092500D01*
X692000Y1105500D02*
X706000D01*
Y1076500D02*
Y1105500D01*
X692000Y1076500D02*
X706000D01*
X692000D02*
Y1105500D01*
X114500Y773000D02*
X117500D01*
X114500Y781000D02*
X117500D01*
X101500Y770000D02*
Y784000D01*
X130500D01*
Y770000D02*
Y784000D01*
X101500Y770000D02*
X130500D01*
X584500Y1119000D02*
X587500D01*
X584500Y1111000D02*
X587500D01*
X600500Y1108000D02*
Y1122000D01*
X571500Y1108000D02*
X600500D01*
X571500D02*
Y1122000D01*
X600500D01*
X1049250Y1503000D02*
X1052250D01*
X1049250Y1495000D02*
X1052250D01*
X1065250Y1492000D02*
Y1506000D01*
X1036250Y1492000D02*
X1065250D01*
X1036250D02*
Y1506000D01*
X1065250D01*
X1050000Y1559000D02*
X1053000D01*
X1050000Y1551000D02*
X1053000D01*
X1066000Y1548000D02*
Y1562000D01*
X1037000Y1548000D02*
X1066000D01*
X1037000D02*
Y1562000D01*
X1066000D01*
X995500Y1501000D02*
X998500D01*
X995500Y1493000D02*
X998500D01*
X1011500Y1490000D02*
Y1504000D01*
X982500Y1490000D02*
X1011500D01*
X982500D02*
Y1504000D01*
X1011500D01*
X997500Y1556500D02*
X1000500D01*
X997500Y1548500D02*
X1000500D01*
X1013500Y1545500D02*
Y1559500D01*
X984500Y1545500D02*
X1013500D01*
X984500D02*
Y1559500D01*
X1013500D01*
X1204000Y1470500D02*
Y1473500D01*
X1212000Y1470500D02*
Y1473500D01*
X1201000Y1486500D02*
X1215000D01*
Y1457500D02*
Y1486500D01*
X1201000Y1457500D02*
X1215000D01*
X1201000D02*
Y1486500D01*
X1205500Y1541500D02*
Y1544500D01*
X1213500Y1541500D02*
Y1544500D01*
X1202500Y1557500D02*
X1216500D01*
Y1528500D02*
Y1557500D01*
X1202500Y1528500D02*
X1216500D01*
X1202500D02*
Y1557500D01*
X992000Y1416500D02*
Y1419500D01*
X984000Y1416500D02*
Y1419500D01*
X981000Y1403500D02*
X995000D01*
X981000D02*
Y1432500D01*
X995000D01*
Y1403500D02*
Y1432500D01*
X1197000Y1398500D02*
Y1401500D01*
X1205000Y1398500D02*
Y1401500D01*
X1194000Y1414500D02*
X1208000D01*
Y1385500D02*
Y1414500D01*
X1194000Y1385500D02*
X1208000D01*
X1194000D02*
Y1414500D01*
X1015500Y1393000D02*
X1018500D01*
X1015500Y1385000D02*
X1018500D01*
X1031500Y1382000D02*
Y1396000D01*
X1002500Y1382000D02*
X1031500D01*
X1002500D02*
Y1396000D01*
X1031500D01*
X1015500Y1410500D02*
X1018500D01*
X1015500Y1402500D02*
X1018500D01*
X1031500Y1399500D02*
Y1413500D01*
X1002500Y1399500D02*
X1031500D01*
X1002500D02*
Y1413500D01*
X1031500D01*
X995500Y1465500D02*
X998500D01*
X995500Y1473500D02*
X998500D01*
X982500Y1462500D02*
Y1476500D01*
X1011500D01*
Y1462500D02*
Y1476500D01*
X982500Y1462500D02*
X1011500D01*
X1048500Y1532500D02*
X1051500D01*
X1048500Y1540500D02*
X1051500D01*
X1035500Y1529500D02*
Y1543500D01*
X1064500D01*
Y1529500D02*
Y1543500D01*
X1035500Y1529500D02*
X1064500D01*
X1049250Y1477500D02*
X1052250D01*
X1049250Y1485500D02*
X1052250D01*
X1036250Y1474500D02*
Y1488500D01*
X1065250D01*
Y1474500D02*
Y1488500D01*
X1036250Y1474500D02*
X1065250D01*
X1049250Y1463500D02*
X1052250D01*
X1049250Y1471500D02*
X1052250D01*
X1036250Y1460500D02*
Y1474500D01*
X1065250D01*
Y1460500D02*
Y1474500D01*
X1036250Y1460500D02*
X1065250D01*
X995500Y1487500D02*
X998500D01*
X995500Y1479500D02*
X998500D01*
X1011500Y1476500D02*
Y1490500D01*
X982500Y1476500D02*
X1011500D01*
X982500D02*
Y1490500D01*
X1011500D01*
X997500Y1531500D02*
X1000500D01*
X997500Y1539500D02*
X1000500D01*
X984500Y1528500D02*
Y1542500D01*
X1013500D01*
Y1528500D02*
Y1542500D01*
X984500Y1528500D02*
X1013500D01*
X1257000Y1328500D02*
Y1331500D01*
X1249000Y1328500D02*
Y1331500D01*
X1246000Y1315500D02*
X1260000D01*
X1246000D02*
Y1344500D01*
X1260000D01*
Y1315500D02*
Y1344500D01*
X1329000Y1521500D02*
Y1524500D01*
X1321000Y1521500D02*
Y1524500D01*
X1318000Y1508500D02*
X1332000D01*
X1318000D02*
Y1537500D01*
X1332000D01*
Y1508500D02*
Y1537500D01*
X1181000Y1381500D02*
Y1384500D01*
X1173000Y1381500D02*
Y1384500D01*
X1170000Y1368500D02*
X1184000D01*
X1170000D02*
Y1397500D01*
X1184000D01*
Y1368500D02*
Y1397500D01*
X734000Y1199000D02*
X737000D01*
X734000Y1207000D02*
X737000D01*
X721000Y1196000D02*
Y1210000D01*
X750000D01*
Y1196000D02*
Y1210000D01*
X721000Y1196000D02*
X750000D01*
X734000Y1227000D02*
X737000D01*
X734000Y1235000D02*
X737000D01*
X721000Y1224000D02*
Y1238000D01*
X750000D01*
Y1224000D02*
Y1238000D01*
X721000Y1224000D02*
X750000D01*
X734000Y1213000D02*
X737000D01*
X734000Y1221000D02*
X737000D01*
X721000Y1210000D02*
Y1224000D01*
X750000D01*
Y1210000D02*
Y1224000D01*
X721000Y1210000D02*
X750000D01*
X1250500Y853750D02*
X1253500D01*
X1250500Y845750D02*
X1253500D01*
X1266500Y842750D02*
Y856750D01*
X1237500Y842750D02*
X1266500D01*
X1237500D02*
Y856750D01*
X1266500D01*
X1250500Y832750D02*
X1253500D01*
X1250500Y840750D02*
X1253500D01*
X1237500Y829750D02*
Y843750D01*
X1266500D01*
Y829750D02*
Y843750D01*
X1237500Y829750D02*
X1266500D01*
X1468000Y796500D02*
Y799500D01*
X1476000Y796500D02*
Y799500D01*
X1465000Y812500D02*
X1479000D01*
Y783500D02*
Y812500D01*
X1465000Y783500D02*
X1479000D01*
X1465000D02*
Y812500D01*
X1250500Y824000D02*
X1253500D01*
X1250500Y816000D02*
X1253500D01*
X1266500Y813000D02*
Y827000D01*
X1237500Y813000D02*
X1266500D01*
X1237500D02*
Y827000D01*
X1266500D01*
X1367000Y761250D02*
Y764250D01*
X1359000Y761250D02*
Y764250D01*
X1356000Y748250D02*
X1370000D01*
X1356000D02*
Y777250D01*
X1370000D01*
Y748250D02*
Y777250D01*
X1373000Y761250D02*
Y764250D01*
X1381000Y761250D02*
Y764250D01*
X1370000Y777250D02*
X1384000D01*
Y748250D02*
Y777250D01*
X1370000Y748250D02*
X1384000D01*
X1370000D02*
Y777250D01*
X1312500Y572000D02*
X1315500D01*
X1312500Y564000D02*
X1315500D01*
X1328500Y561000D02*
Y575000D01*
X1299500Y561000D02*
X1328500D01*
X1299500D02*
Y575000D01*
X1328500D01*
X1312500Y558000D02*
X1315500D01*
X1312500Y550000D02*
X1315500D01*
X1328500Y547000D02*
Y561000D01*
X1299500Y547000D02*
X1328500D01*
X1299500D02*
Y561000D01*
X1328500D01*
X1384000Y571500D02*
Y574500D01*
X1392000Y571500D02*
Y574500D01*
X1381000Y587500D02*
X1395000D01*
Y558500D02*
Y587500D01*
X1381000Y558500D02*
X1395000D01*
X1381000D02*
Y587500D01*
X1290000Y619500D02*
Y622500D01*
X1282000Y619500D02*
Y622500D01*
X1279000Y606500D02*
X1293000D01*
X1279000D02*
Y635500D01*
X1293000D01*
Y606500D02*
Y635500D01*
X1287500Y665000D02*
X1290500D01*
X1287500Y673000D02*
X1290500D01*
X1274500Y662000D02*
Y676000D01*
X1303500D01*
Y662000D02*
Y676000D01*
X1274500Y662000D02*
X1303500D01*
X1201000Y687500D02*
Y690500D01*
X1193000Y687500D02*
Y690500D01*
X1190000Y674500D02*
X1204000D01*
X1190000D02*
Y703500D01*
X1204000D01*
Y674500D02*
Y703500D01*
X614000Y496750D02*
X621000D01*
X614000Y483250D02*
X621000D01*
X599500Y481000D02*
Y499000D01*
X635500D01*
Y481000D02*
Y499000D01*
X599500Y481000D02*
X635500D01*
X615500Y468000D02*
X618500D01*
X615500Y476000D02*
X618500D01*
X602500Y465000D02*
Y479000D01*
X631500D01*
Y465000D02*
Y479000D01*
X602500Y465000D02*
X631500D01*
X595500Y434000D02*
X598500D01*
X595500Y442000D02*
X598500D01*
X582500Y431000D02*
Y445000D01*
X611500D01*
Y431000D02*
Y445000D01*
X582500Y431000D02*
X611500D01*
X712500Y486000D02*
X715500D01*
X712500Y494000D02*
X715500D01*
X699500Y483000D02*
Y497000D01*
X728500D01*
Y483000D02*
Y497000D01*
X699500Y483000D02*
X728500D01*
X686500Y711000D02*
X689500D01*
X686500Y703000D02*
X689500D01*
X702500Y700000D02*
Y714000D01*
X673500Y700000D02*
X702500D01*
X673500D02*
Y714000D01*
X702500D01*
X680500Y675500D02*
X695500D01*
X680500Y658500D02*
X695500D01*
X712750Y656000D02*
Y678000D01*
X663250Y656000D02*
X712750D01*
X663250D02*
Y678000D01*
X712750D01*
X681500Y624500D02*
X696500D01*
X681500Y607500D02*
X696500D01*
X713750Y605000D02*
Y627000D01*
X664250Y605000D02*
X713750D01*
X664250D02*
Y627000D01*
X713750D01*
X725500Y1078250D02*
X732500D01*
X725500Y1091750D02*
X732500D01*
X747000Y1076000D02*
Y1094000D01*
X711000Y1076000D02*
X747000D01*
X711000D02*
Y1094000D01*
X747000D01*
X612000Y1241500D02*
Y1244500D01*
X620000Y1241500D02*
Y1244500D01*
X609000Y1257500D02*
X623000D01*
Y1228500D02*
Y1257500D01*
X609000Y1228500D02*
X623000D01*
X609000D02*
Y1257500D01*
X584500Y1181500D02*
X587500D01*
X584500Y1189500D02*
X587500D01*
X571500Y1178500D02*
Y1192500D01*
X600500D01*
Y1178500D02*
Y1192500D01*
X571500Y1178500D02*
X600500D01*
X734000Y1136000D02*
X737000D01*
X734000Y1128000D02*
X737000D01*
X750000Y1125000D02*
Y1139000D01*
X721000Y1125000D02*
X750000D01*
X721000D02*
Y1139000D01*
X750000D01*
X584000Y1241500D02*
Y1244500D01*
X592000Y1241500D02*
Y1244500D01*
X581000Y1257500D02*
X595000D01*
Y1228500D02*
Y1257500D01*
X581000Y1228500D02*
X595000D01*
X581000D02*
Y1257500D01*
X598000Y1241500D02*
Y1244500D01*
X606000Y1241500D02*
Y1244500D01*
X595000Y1257500D02*
X609000D01*
Y1228500D02*
Y1257500D01*
X595000Y1228500D02*
X609000D01*
X595000D02*
Y1257500D01*
X584500Y1073000D02*
X587500D01*
X584500Y1081000D02*
X587500D01*
X571500Y1070000D02*
Y1084000D01*
X600500D01*
Y1070000D02*
Y1084000D01*
X571500Y1070000D02*
X600500D01*
X586000Y1099750D02*
X593000D01*
X586000Y1086250D02*
X593000D01*
X571500Y1084000D02*
Y1102000D01*
X607500D01*
Y1084000D02*
Y1102000D01*
X571500Y1084000D02*
X607500D01*
X666000Y1241500D02*
Y1244500D01*
X674000Y1241500D02*
Y1244500D01*
X663000Y1257500D02*
X677000D01*
Y1228500D02*
Y1257500D01*
X663000Y1228500D02*
X677000D01*
X663000D02*
Y1257500D01*
X707000Y1241500D02*
Y1244500D01*
X715000Y1241500D02*
Y1244500D01*
X704000Y1257500D02*
X718000D01*
Y1228500D02*
Y1257500D01*
X704000Y1228500D02*
X718000D01*
X704000D02*
Y1257500D01*
X733500Y1252000D02*
X736500D01*
X733500Y1244000D02*
X736500D01*
X749500Y1241000D02*
Y1255000D01*
X720500Y1241000D02*
X749500D01*
X720500D02*
Y1255000D01*
X749500D01*
X688500Y1089500D02*
Y1092500D01*
X680500Y1089500D02*
Y1092500D01*
X677500Y1076500D02*
X691500D01*
X677500D02*
Y1105500D01*
X691500D01*
Y1076500D02*
Y1105500D01*
X584500Y1125000D02*
X587500D01*
X584500Y1133000D02*
X587500D01*
X571500Y1122000D02*
Y1136000D01*
X600500D01*
Y1122000D02*
Y1136000D01*
X571500Y1122000D02*
X600500D01*
X734000Y1193000D02*
X737000D01*
X734000Y1185000D02*
X737000D01*
X750000Y1182000D02*
Y1196000D01*
X721000Y1182000D02*
X750000D01*
X721000D02*
Y1196000D01*
X750000D01*
X632500Y1089500D02*
Y1092500D01*
X624500Y1089500D02*
Y1092500D01*
X621500Y1076500D02*
X635500D01*
X621500D02*
Y1105500D01*
X635500D01*
Y1076500D02*
Y1105500D01*
X1261500Y426750D02*
X1264500D01*
X1261500Y418750D02*
X1264500D01*
X1277500Y415750D02*
Y429750D01*
X1248500Y415750D02*
X1277500D01*
X1248500D02*
Y429750D01*
X1277500D01*
X721000Y1097000D02*
X750000D01*
Y1111000D01*
X721000D02*
X750000D01*
X721000Y1097000D02*
Y1111000D01*
X734000Y1108000D02*
X737000D01*
X734000Y1100000D02*
X737000D01*
X721000Y1111000D02*
X750000D01*
Y1125000D01*
X721000D02*
X750000D01*
X721000Y1111000D02*
Y1125000D01*
X734000Y1122000D02*
X737000D01*
X734000Y1114000D02*
X737000D01*
X1383750Y1165750D02*
Y1192250D01*
X1370250D02*
X1383750D01*
X1370250Y1165750D02*
Y1192250D01*
Y1165750D02*
X1383750D01*
X1381250Y1178000D02*
Y1180000D01*
X1372750Y1177000D02*
Y1181000D01*
X1381250Y1177000D02*
Y1178000D01*
Y1180000D02*
Y1181000D01*
X1337750Y1210750D02*
X1364250D01*
X1337750Y1197250D02*
Y1210750D01*
Y1197250D02*
X1364250D01*
Y1210750D01*
X1350000Y1208250D02*
X1352000D01*
X1349000Y1199750D02*
X1353000D01*
X1352000Y1208250D02*
X1353000D01*
X1349000D02*
X1350000D01*
X1334000Y1194500D02*
Y1197500D01*
X1326000Y1194500D02*
Y1197500D01*
X1323000Y1181500D02*
X1337000D01*
X1323000D02*
Y1210500D01*
X1337000D01*
Y1181500D02*
Y1210500D01*
X1184750Y1302500D02*
X1211250D01*
X1184750Y1289000D02*
Y1302500D01*
Y1289000D02*
X1211250D01*
Y1302500D01*
X1197000Y1300000D02*
X1199000D01*
X1196000Y1291500D02*
X1200000D01*
X1199000Y1300000D02*
X1200000D01*
X1196000D02*
X1197000D01*
X1017750Y1597000D02*
Y1643000D01*
X996250D02*
X1017750D01*
X996250Y1597000D02*
Y1643000D01*
Y1597000D02*
X1017750D01*
X998750Y1615500D02*
Y1624500D01*
X1015250Y1615500D02*
Y1624500D01*
X1368000Y617501D02*
X1376001D01*
X1368000Y604501D02*
X1376001D01*
X1355251Y601751D02*
Y620251D01*
X1388750D01*
Y601751D02*
Y620251D01*
X1355251Y601751D02*
X1388750D01*
X1185000Y552500D02*
Y555500D01*
X1193000Y552500D02*
Y555500D01*
X1182000Y568500D02*
X1196000D01*
Y539500D02*
Y568500D01*
X1182000Y539500D02*
X1196000D01*
X1182000D02*
Y568500D01*
X42000Y1144500D02*
Y1147500D01*
X34000Y1144500D02*
Y1147500D01*
X31000Y1131500D02*
X45000D01*
X31000D02*
Y1160500D01*
X45000D01*
Y1131500D02*
Y1160500D01*
X25500Y1362500D02*
Y1365500D01*
X33500Y1362500D02*
Y1365500D01*
X22500Y1378500D02*
X36500D01*
Y1349500D02*
Y1378500D01*
X22500Y1349500D02*
X36500D01*
X22500D02*
Y1378500D01*
D102*
X1092000Y1614000D02*
X1100000D01*
X1092000Y1604000D02*
Y1614000D01*
X1114000D02*
X1122000D01*
Y1604000D02*
Y1614000D01*
X1024000D02*
X1032000D01*
X1024000Y1604000D02*
Y1614000D01*
X1046000D02*
X1054000D01*
Y1604000D02*
Y1614000D01*
X669000Y506000D02*
Y514000D01*
X659000D02*
X669000D01*
Y484000D02*
Y492000D01*
X659000Y484000D02*
X669000D01*
X1214500Y601250D02*
Y610750D01*
X1233500Y601250D02*
Y610750D01*
X861350Y1502000D02*
Y1504000D01*
X848650Y1502000D02*
Y1504000D01*
X572800Y333250D02*
X671800D01*
X572800Y398750D02*
X671800D01*
Y333250D02*
Y398750D01*
X572800Y333250D02*
Y398750D01*
X113500Y1454000D02*
X119500D01*
X113500Y1529000D02*
X119500D01*
X74500Y1454000D02*
X80500D01*
X74500Y1529000D02*
X80500D01*
X119500Y1454000D02*
Y1529000D01*
X74500Y1454000D02*
Y1529000D01*
X111000Y1319000D02*
X117000D01*
X111000Y1394000D02*
X117000D01*
X72000Y1319000D02*
X78000D01*
X72000Y1394000D02*
X78000D01*
X117000Y1319000D02*
Y1394000D01*
X72000Y1319000D02*
Y1394000D01*
X580750Y1582500D02*
Y1588500D01*
X655750Y1582500D02*
Y1588500D01*
X580750Y1621500D02*
Y1627500D01*
X655750Y1621500D02*
Y1627500D01*
X580750Y1582500D02*
X655750D01*
X580750Y1627500D02*
X655750D01*
D103*
X664800Y343250D02*
G03*
X664800Y343250I-3000J0D01*
G01*
D105*
X370000Y426250D02*
X420000D01*
X370000Y403750D02*
Y426250D01*
Y403750D02*
X420000D01*
Y426250D01*
X55000Y428750D02*
X105000D01*
X55000Y406250D02*
Y428750D01*
Y406250D02*
X105000D01*
Y428750D01*
X1419250Y1498000D02*
Y1548000D01*
X1396750D02*
X1419250D01*
X1396750Y1498000D02*
Y1548000D01*
Y1498000D02*
X1419250D01*
X210000Y426250D02*
X260000D01*
X210000Y403750D02*
Y426250D01*
Y403750D02*
X260000D01*
Y426250D01*
X1420250Y1158500D02*
Y1208500D01*
X1397750D02*
X1420250D01*
X1397750Y1158500D02*
Y1208500D01*
Y1158500D02*
X1420250D01*
X601000Y272750D02*
X651000D01*
Y295250D01*
X601000D02*
X651000D01*
X601000Y272750D02*
Y295250D01*
X370250Y570000D02*
Y620000D01*
X347750D02*
X370250D01*
X347750Y570000D02*
Y620000D01*
Y570000D02*
X370250D01*
D108*
X790335Y1121331D02*
X792002Y1122997D01*
X795334D01*
X797000Y1121331D01*
Y1114666D01*
X795334Y1113000D01*
X792002D01*
X790335Y1114666D01*
X787003Y1113000D02*
X783671D01*
X785337D01*
Y1122997D01*
X787003Y1121331D01*
X778673D02*
X777006Y1122997D01*
X773674D01*
X772008Y1121331D01*
Y1119665D01*
X773674Y1117998D01*
X775340D01*
X773674D01*
X772008Y1116332D01*
Y1114666D01*
X773674Y1113000D01*
X777006D01*
X778673Y1114666D01*
X768676D02*
X767010Y1113000D01*
X763677D01*
X762011Y1114666D01*
Y1121331D01*
X763677Y1122997D01*
X767010D01*
X768676Y1121331D01*
Y1119665D01*
X767010Y1117998D01*
X762011D01*
X789335Y1106331D02*
X791002Y1107997D01*
X794334D01*
X796000Y1106331D01*
Y1099666D01*
X794334Y1098000D01*
X791002D01*
X789335Y1099666D01*
X786003Y1098000D02*
X782671D01*
X784337D01*
Y1107997D01*
X786003Y1106331D01*
X777673D02*
X776006Y1107997D01*
X772674D01*
X771008Y1106331D01*
Y1104665D01*
X772674Y1102998D01*
X774340D01*
X772674D01*
X771008Y1101332D01*
Y1099666D01*
X772674Y1098000D01*
X776006D01*
X777673Y1099666D01*
X767676Y1106331D02*
X766010Y1107997D01*
X762677D01*
X761011Y1106331D01*
Y1104665D01*
X762677Y1102998D01*
X761011Y1101332D01*
Y1099666D01*
X762677Y1098000D01*
X766010D01*
X767676Y1099666D01*
Y1101332D01*
X766010Y1102998D01*
X767676Y1104665D01*
Y1106331D01*
X766010Y1102998D02*
X762677D01*
X1237336Y426331D02*
X1239002Y427997D01*
X1242334D01*
X1244000Y426331D01*
Y419666D01*
X1242334Y418000D01*
X1239002D01*
X1237336Y419666D01*
X1234003Y418000D02*
X1230671D01*
X1232337D01*
Y427997D01*
X1234003Y426331D01*
X625169Y1059335D02*
X623503Y1061002D01*
Y1064334D01*
X625169Y1066000D01*
X631834D01*
X633500Y1064334D01*
Y1061002D01*
X631834Y1059335D01*
X623503Y1049339D02*
Y1056003D01*
X628502D01*
X626836Y1052671D01*
Y1051005D01*
X628502Y1049339D01*
X631834D01*
X633500Y1051005D01*
Y1054337D01*
X631834Y1056003D01*
X774335Y1192331D02*
X776002Y1193997D01*
X779334D01*
X781000Y1192331D01*
Y1185666D01*
X779334Y1184000D01*
X776002D01*
X774335Y1185666D01*
X764339Y1193997D02*
X767671Y1192331D01*
X771003Y1188998D01*
Y1185666D01*
X769337Y1184000D01*
X766005D01*
X764339Y1185666D01*
Y1187332D01*
X766005Y1188998D01*
X771003D01*
X553335Y1132331D02*
X555002Y1133997D01*
X558334D01*
X560000Y1132331D01*
Y1125666D01*
X558334Y1124000D01*
X555002D01*
X553335Y1125666D01*
X550003Y1133997D02*
X543339D01*
Y1132331D01*
X550003Y1125666D01*
Y1124000D01*
X681169Y1058335D02*
X679503Y1060002D01*
Y1063334D01*
X681169Y1065000D01*
X687834D01*
X689500Y1063334D01*
Y1060002D01*
X687834Y1058335D01*
X681169Y1055003D02*
X679503Y1053337D01*
Y1050005D01*
X681169Y1048339D01*
X682835D01*
X684502Y1050005D01*
X686168Y1048339D01*
X687834D01*
X689500Y1050005D01*
Y1053337D01*
X687834Y1055003D01*
X686168D01*
X684502Y1053337D01*
X682835Y1055003D01*
X681169D01*
X684502Y1053337D02*
Y1050005D01*
X772336Y1252331D02*
X774002Y1253997D01*
X777334D01*
X779000Y1252331D01*
Y1245666D01*
X777334Y1244000D01*
X774002D01*
X772336Y1245666D01*
X769003D02*
X767337Y1244000D01*
X764005D01*
X762339Y1245666D01*
Y1252331D01*
X764005Y1253997D01*
X767337D01*
X769003Y1252331D01*
Y1250665D01*
X767337Y1248998D01*
X762339D01*
X707669Y1286335D02*
X706003Y1288002D01*
Y1291334D01*
X707669Y1293000D01*
X714334D01*
X716000Y1291334D01*
Y1288002D01*
X714334Y1286335D01*
X716000Y1283003D02*
Y1279671D01*
Y1281337D01*
X706003D01*
X707669Y1283003D01*
Y1274673D02*
X706003Y1273006D01*
Y1269674D01*
X707669Y1268008D01*
X714334D01*
X716000Y1269674D01*
Y1273006D01*
X714334Y1274673D01*
X707669D01*
X683669Y1251336D02*
X682003Y1253002D01*
Y1256334D01*
X683669Y1258000D01*
X690334D01*
X692000Y1256334D01*
Y1253002D01*
X690334Y1251336D01*
X692000Y1248003D02*
Y1244671D01*
Y1246337D01*
X682003D01*
X683669Y1248003D01*
Y1239673D02*
X682003Y1238006D01*
Y1234674D01*
X683669Y1233008D01*
X685335D01*
X687002Y1234674D01*
Y1236340D01*
Y1234674D01*
X688668Y1233008D01*
X690334D01*
X692000Y1234674D01*
Y1238006D01*
X690334Y1239673D01*
X552836Y1098331D02*
X554502Y1099997D01*
X557834D01*
X559500Y1098331D01*
Y1091666D01*
X557834Y1090000D01*
X554502D01*
X552836Y1091666D01*
X549503Y1090000D02*
X546171D01*
X547837D01*
Y1099997D01*
X549503Y1098331D01*
X534508Y1099997D02*
X541173D01*
Y1094998D01*
X537840Y1096665D01*
X536174D01*
X534508Y1094998D01*
Y1091666D01*
X536174Y1090000D01*
X539506D01*
X541173Y1091666D01*
X553335Y1079331D02*
X555002Y1080997D01*
X558334D01*
X560000Y1079331D01*
Y1072666D01*
X558334Y1071000D01*
X555002D01*
X553335Y1072666D01*
X550003Y1071000D02*
X546671D01*
X548337D01*
Y1080997D01*
X550003Y1079331D01*
X535008Y1080997D02*
X538340Y1079331D01*
X541673Y1075998D01*
Y1072666D01*
X540006Y1071000D01*
X536674D01*
X535008Y1072666D01*
Y1074332D01*
X536674Y1075998D01*
X541673D01*
X598669Y1278335D02*
X597003Y1280002D01*
Y1283334D01*
X598669Y1285000D01*
X605334D01*
X607000Y1283334D01*
Y1280002D01*
X605334Y1278335D01*
X607000Y1275003D02*
Y1271671D01*
Y1273337D01*
X597003D01*
X598669Y1275003D01*
X597003Y1266673D02*
Y1260008D01*
X598669D01*
X605334Y1266673D01*
X607000D01*
X583669Y1286335D02*
X582003Y1288002D01*
Y1291334D01*
X583669Y1293000D01*
X590334D01*
X592000Y1291334D01*
Y1288002D01*
X590334Y1286335D01*
X592000Y1283003D02*
Y1279671D01*
Y1281337D01*
X582003D01*
X583669Y1283003D01*
Y1274673D02*
X582003Y1273006D01*
Y1269674D01*
X583669Y1268008D01*
X585336D01*
X587002Y1269674D01*
X588668Y1268008D01*
X590334D01*
X592000Y1269674D01*
Y1273006D01*
X590334Y1274673D01*
X588668D01*
X587002Y1273006D01*
X585336Y1274673D01*
X583669D01*
X587002Y1273006D02*
Y1269674D01*
X779836Y1135331D02*
X781502Y1136997D01*
X784834D01*
X786500Y1135331D01*
Y1128666D01*
X784834Y1127000D01*
X781502D01*
X779836Y1128666D01*
X776503Y1127000D02*
X773171D01*
X774837D01*
Y1136997D01*
X776503Y1135331D01*
X768173Y1128666D02*
X766507Y1127000D01*
X763174D01*
X761508Y1128666D01*
Y1135331D01*
X763174Y1136997D01*
X766507D01*
X768173Y1135331D01*
Y1133664D01*
X766507Y1131998D01*
X761508D01*
X553335Y1189331D02*
X555002Y1190997D01*
X558334D01*
X560000Y1189331D01*
Y1182666D01*
X558334Y1181000D01*
X555002D01*
X553335Y1182666D01*
X543339Y1181000D02*
X550003D01*
X543339Y1187664D01*
Y1189331D01*
X545005Y1190997D01*
X548337D01*
X550003Y1189331D01*
X540006D02*
X538340Y1190997D01*
X535008D01*
X533342Y1189331D01*
Y1182666D01*
X535008Y1181000D01*
X538340D01*
X540006Y1182666D01*
Y1189331D01*
X613419Y1285085D02*
X611753Y1286752D01*
Y1290084D01*
X613419Y1291750D01*
X620084D01*
X621750Y1290084D01*
Y1286752D01*
X620084Y1285085D01*
X621750Y1275089D02*
Y1281753D01*
X615086Y1275089D01*
X613419D01*
X611753Y1276755D01*
Y1280087D01*
X613419Y1281753D01*
X621750Y1271756D02*
Y1268424D01*
Y1270090D01*
X611753D01*
X613419Y1271756D01*
X784335Y1090331D02*
X786002Y1091997D01*
X789334D01*
X791000Y1090331D01*
Y1083666D01*
X789334Y1082000D01*
X786002D01*
X784335Y1083666D01*
X774339Y1082000D02*
X781003D01*
X774339Y1088664D01*
Y1090331D01*
X776005Y1091997D01*
X779337D01*
X781003Y1090331D01*
X764342Y1082000D02*
X771006D01*
X764342Y1088664D01*
Y1090331D01*
X766008Y1091997D01*
X769340D01*
X771006Y1090331D01*
X706033Y642289D02*
X707700Y643955D01*
X711032D01*
X712698Y642289D01*
Y635624D01*
X711032Y633958D01*
X707700D01*
X706033Y635624D01*
X696037Y633958D02*
X702701D01*
X696037Y640622D01*
Y642289D01*
X697703Y643955D01*
X701035D01*
X702701Y642289D01*
X692704D02*
X691038Y643955D01*
X687706D01*
X686040Y642289D01*
Y640622D01*
X687706Y638956D01*
X689372D01*
X687706D01*
X686040Y637290D01*
Y635624D01*
X687706Y633958D01*
X691038D01*
X692704Y635624D01*
X705017Y693343D02*
X706684Y695009D01*
X710016D01*
X711682Y693343D01*
Y686678D01*
X710016Y685012D01*
X706684D01*
X705017Y686678D01*
X695021Y685012D02*
X701685D01*
X695021Y691676D01*
Y693343D01*
X696687Y695009D01*
X700019D01*
X701685Y693343D01*
X686690Y685012D02*
Y695009D01*
X691688Y690010D01*
X685024D01*
X694857Y729395D02*
X696524Y731061D01*
X699856D01*
X701522Y729395D01*
Y722730D01*
X699856Y721064D01*
X696524D01*
X694857Y722730D01*
X684861Y721064D02*
X691525D01*
X684861Y727729D01*
Y729395D01*
X686527Y731061D01*
X689859D01*
X691525Y729395D01*
X674864Y731061D02*
X681528D01*
Y726062D01*
X678196Y727729D01*
X676530D01*
X674864Y726062D01*
Y722730D01*
X676530Y721064D01*
X679862D01*
X681528Y722730D01*
X720335Y509331D02*
X722002Y510997D01*
X725334D01*
X727000Y509331D01*
Y502666D01*
X725334Y501000D01*
X722002D01*
X720335Y502666D01*
X717003Y509331D02*
X715337Y510997D01*
X712005D01*
X710339Y509331D01*
Y507664D01*
X712005Y505998D01*
X713671D01*
X712005D01*
X710339Y504332D01*
Y502666D01*
X712005Y501000D01*
X715337D01*
X717003Y502666D01*
X707006Y509331D02*
X705340Y510997D01*
X702008D01*
X700342Y509331D01*
Y507664D01*
X702008Y505998D01*
X703674D01*
X702008D01*
X700342Y504332D01*
Y502666D01*
X702008Y501000D01*
X705340D01*
X707006Y502666D01*
X571836Y440831D02*
X573502Y442497D01*
X576834D01*
X578500Y440831D01*
Y434166D01*
X576834Y432500D01*
X573502D01*
X571836Y434166D01*
X568503Y440831D02*
X566837Y442497D01*
X563505D01*
X561839Y440831D01*
Y439165D01*
X563505Y437498D01*
X565171D01*
X563505D01*
X561839Y435832D01*
Y434166D01*
X563505Y432500D01*
X566837D01*
X568503Y434166D01*
X553508Y432500D02*
Y442497D01*
X558507Y437498D01*
X551842D01*
X591836Y475831D02*
X593502Y477497D01*
X596834D01*
X598500Y475831D01*
Y469166D01*
X596834Y467500D01*
X593502D01*
X591836Y469166D01*
X588503Y475831D02*
X586837Y477497D01*
X583505D01*
X581839Y475831D01*
Y474165D01*
X583505Y472498D01*
X585171D01*
X583505D01*
X581839Y470832D01*
Y469166D01*
X583505Y467500D01*
X586837D01*
X588503Y469166D01*
X571842Y477497D02*
X578506D01*
Y472498D01*
X575174Y474165D01*
X573508D01*
X571842Y472498D01*
Y469166D01*
X573508Y467500D01*
X576840D01*
X578506Y469166D01*
X587336Y493331D02*
X589002Y494997D01*
X592334D01*
X594000Y493331D01*
Y486666D01*
X592334Y485000D01*
X589002D01*
X587336Y486666D01*
X584003Y493331D02*
X582337Y494997D01*
X579005D01*
X577339Y493331D01*
Y491665D01*
X579005Y489998D01*
X580671D01*
X579005D01*
X577339Y488332D01*
Y486666D01*
X579005Y485000D01*
X582337D01*
X584003Y486666D01*
X567342Y494997D02*
X570674Y493331D01*
X574006Y489998D01*
Y486666D01*
X572340Y485000D01*
X569008D01*
X567342Y486666D01*
Y488332D01*
X569008Y489998D01*
X574006D01*
X1194669Y728335D02*
X1193003Y730002D01*
Y733334D01*
X1194669Y735000D01*
X1201334D01*
X1203000Y733334D01*
Y730002D01*
X1201334Y728335D01*
X1194669Y725003D02*
X1193003Y723337D01*
Y720005D01*
X1194669Y718339D01*
X1196336D01*
X1198002Y720005D01*
Y721671D01*
Y720005D01*
X1199668Y718339D01*
X1201334D01*
X1203000Y720005D01*
Y723337D01*
X1201334Y725003D01*
X1194669Y715006D02*
X1193003Y713340D01*
Y710008D01*
X1194669Y708342D01*
X1196336D01*
X1198002Y710008D01*
X1199668Y708342D01*
X1201334D01*
X1203000Y710008D01*
Y713340D01*
X1201334Y715006D01*
X1199668D01*
X1198002Y713340D01*
X1196336Y715006D01*
X1194669D01*
X1198002Y713340D02*
Y710008D01*
X1293336Y689331D02*
X1295002Y690997D01*
X1298334D01*
X1300000Y689331D01*
Y682666D01*
X1298334Y681000D01*
X1295002D01*
X1293336Y682666D01*
X1285005Y681000D02*
Y690997D01*
X1290003Y685998D01*
X1283339D01*
X1280006Y689331D02*
X1278340Y690997D01*
X1275008D01*
X1273342Y689331D01*
Y682666D01*
X1275008Y681000D01*
X1278340D01*
X1280006Y682666D01*
Y689331D01*
X1258669Y626335D02*
X1257003Y628002D01*
Y631334D01*
X1258669Y633000D01*
X1265334D01*
X1267000Y631334D01*
Y628002D01*
X1265334Y626335D01*
X1267000Y618005D02*
X1257003D01*
X1262002Y623003D01*
Y616339D01*
X1267000Y613006D02*
Y609674D01*
Y611340D01*
X1257003D01*
X1258669Y613006D01*
X1382669Y547336D02*
X1381003Y549002D01*
Y552334D01*
X1382669Y554000D01*
X1389334D01*
X1391000Y552334D01*
Y549002D01*
X1389334Y547336D01*
X1391000Y539005D02*
X1381003D01*
X1386002Y544003D01*
Y537339D01*
X1391000Y527342D02*
Y534007D01*
X1384335Y527342D01*
X1382669D01*
X1381003Y529008D01*
Y532340D01*
X1382669Y534007D01*
X1320336Y542331D02*
X1322002Y543997D01*
X1325334D01*
X1327000Y542331D01*
Y535666D01*
X1325334Y534000D01*
X1322002D01*
X1320336Y535666D01*
X1312005Y534000D02*
Y543997D01*
X1317003Y538998D01*
X1310339D01*
X1307006Y542331D02*
X1305340Y543997D01*
X1302008D01*
X1300342Y542331D01*
Y540664D01*
X1302008Y538998D01*
X1303674D01*
X1302008D01*
X1300342Y537332D01*
Y535666D01*
X1302008Y534000D01*
X1305340D01*
X1307006Y535666D01*
X1289335Y569331D02*
X1291002Y570997D01*
X1294334D01*
X1296000Y569331D01*
Y562666D01*
X1294334Y561000D01*
X1291002D01*
X1289335Y562666D01*
X1281005Y561000D02*
Y570997D01*
X1286003Y565998D01*
X1279339D01*
X1271008Y561000D02*
Y570997D01*
X1276006Y565998D01*
X1269342D01*
X1184669Y527336D02*
X1183003Y529002D01*
Y532334D01*
X1184669Y534000D01*
X1191334D01*
X1193000Y532334D01*
Y529002D01*
X1191334Y527336D01*
X1193000Y519005D02*
X1183003D01*
X1188002Y524003D01*
Y517339D01*
X1183003Y507342D02*
Y514006D01*
X1188002D01*
X1186336Y510674D01*
Y509008D01*
X1188002Y507342D01*
X1191334D01*
X1193000Y509008D01*
Y512340D01*
X1191334Y514006D01*
X18669Y1153335D02*
X17003Y1155002D01*
Y1158334D01*
X18669Y1160000D01*
X25334D01*
X27000Y1158334D01*
Y1155002D01*
X25334Y1153335D01*
X27000Y1145005D02*
X17003D01*
X22002Y1150003D01*
Y1143339D01*
X17003Y1140006D02*
Y1133342D01*
X18669D01*
X25334Y1140006D01*
X27000D01*
X1374669Y736336D02*
X1373003Y738002D01*
Y741334D01*
X1374669Y743000D01*
X1381334D01*
X1383000Y741334D01*
Y738002D01*
X1381334Y736336D01*
X1383000Y728005D02*
X1373003D01*
X1378002Y733003D01*
Y726339D01*
X1374669Y723007D02*
X1373003Y721340D01*
Y718008D01*
X1374669Y716342D01*
X1376335D01*
X1378002Y718008D01*
X1379668Y716342D01*
X1381334D01*
X1383000Y718008D01*
Y721340D01*
X1381334Y723007D01*
X1379668D01*
X1378002Y721340D01*
X1376335Y723007D01*
X1374669D01*
X1378002Y721340D02*
Y718008D01*
X1359669Y735335D02*
X1358003Y737002D01*
Y740334D01*
X1359669Y742000D01*
X1366334D01*
X1368000Y740334D01*
Y737002D01*
X1366334Y735335D01*
X1368000Y727005D02*
X1358003D01*
X1363002Y732003D01*
Y725339D01*
X1366334Y722006D02*
X1368000Y720340D01*
Y717008D01*
X1366334Y715342D01*
X1359669D01*
X1358003Y717008D01*
Y720340D01*
X1359669Y722006D01*
X1361335D01*
X1363002Y720340D01*
Y715342D01*
X1227336Y825331D02*
X1229002Y826997D01*
X1232334D01*
X1234000Y825331D01*
Y818666D01*
X1232334Y817000D01*
X1229002D01*
X1227336Y818666D01*
X1217339Y826997D02*
X1224003D01*
Y821998D01*
X1220671Y823664D01*
X1219005D01*
X1217339Y821998D01*
Y818666D01*
X1219005Y817000D01*
X1222337D01*
X1224003Y818666D01*
X1214006Y825331D02*
X1212340Y826997D01*
X1209008D01*
X1207342Y825331D01*
Y818666D01*
X1209008Y817000D01*
X1212340D01*
X1214006Y818666D01*
Y825331D01*
X1486669Y803335D02*
X1485003Y805002D01*
Y808334D01*
X1486669Y810000D01*
X1493334D01*
X1495000Y808334D01*
Y805002D01*
X1493334Y803335D01*
X1485003Y793339D02*
Y800003D01*
X1490002D01*
X1488336Y796671D01*
Y795005D01*
X1490002Y793339D01*
X1493334D01*
X1495000Y795005D01*
Y798337D01*
X1493334Y800003D01*
X1495000Y790006D02*
Y786674D01*
Y788340D01*
X1485003D01*
X1486669Y790006D01*
X1290336Y842081D02*
X1292002Y843747D01*
X1295334D01*
X1297000Y842081D01*
Y835416D01*
X1295334Y833750D01*
X1292002D01*
X1290336Y835416D01*
X1280339Y843747D02*
X1287003D01*
Y838748D01*
X1283671Y840415D01*
X1282005D01*
X1280339Y838748D01*
Y835416D01*
X1282005Y833750D01*
X1285337D01*
X1287003Y835416D01*
X1270342Y833750D02*
X1277006D01*
X1270342Y840415D01*
Y842081D01*
X1272008Y843747D01*
X1275340D01*
X1277006Y842081D01*
X1227336Y854331D02*
X1229002Y855997D01*
X1232334D01*
X1234000Y854331D01*
Y847666D01*
X1232334Y846000D01*
X1229002D01*
X1227336Y847666D01*
X1217339Y855997D02*
X1224003D01*
Y850998D01*
X1220671Y852664D01*
X1219005D01*
X1217339Y850998D01*
Y847666D01*
X1219005Y846000D01*
X1222337D01*
X1224003Y847666D01*
X1214006Y854331D02*
X1212340Y855997D01*
X1209008D01*
X1207342Y854331D01*
Y852664D01*
X1209008Y850998D01*
X1210674D01*
X1209008D01*
X1207342Y849332D01*
Y847666D01*
X1209008Y846000D01*
X1212340D01*
X1214006Y847666D01*
X783335Y1221331D02*
X785002Y1222997D01*
X788334D01*
X790000Y1221331D01*
Y1214666D01*
X788334Y1213000D01*
X785002D01*
X783335Y1214666D01*
X773339Y1222997D02*
X776671Y1221331D01*
X780003Y1217998D01*
Y1214666D01*
X778337Y1213000D01*
X775005D01*
X773339Y1214666D01*
Y1216332D01*
X775005Y1217998D01*
X780003D01*
X770006Y1221331D02*
X768340Y1222997D01*
X765008D01*
X763342Y1221331D01*
Y1219665D01*
X765008Y1217998D01*
X766674D01*
X765008D01*
X763342Y1216332D01*
Y1214666D01*
X765008Y1213000D01*
X768340D01*
X770006Y1214666D01*
X782336Y1237331D02*
X784002Y1238997D01*
X787334D01*
X789000Y1237331D01*
Y1230666D01*
X787334Y1229000D01*
X784002D01*
X782336Y1230666D01*
X772339Y1238997D02*
X775671Y1237331D01*
X779003Y1233998D01*
Y1230666D01*
X777337Y1229000D01*
X774005D01*
X772339Y1230666D01*
Y1232332D01*
X774005Y1233998D01*
X779003D01*
X764008Y1229000D02*
Y1238997D01*
X769007Y1233998D01*
X762342D01*
X782835Y1207331D02*
X784502Y1208997D01*
X787834D01*
X789500Y1207331D01*
Y1200666D01*
X787834Y1199000D01*
X784502D01*
X782835Y1200666D01*
X772839Y1208997D02*
X776171Y1207331D01*
X779503Y1203998D01*
Y1200666D01*
X777837Y1199000D01*
X774505D01*
X772839Y1200666D01*
Y1202332D01*
X774505Y1203998D01*
X779503D01*
X762842Y1208997D02*
X769507D01*
Y1203998D01*
X766174Y1205665D01*
X764508D01*
X762842Y1203998D01*
Y1200666D01*
X764508Y1199000D01*
X767840D01*
X769507Y1200666D01*
X1325669Y1169335D02*
X1324003Y1171002D01*
Y1174334D01*
X1325669Y1176000D01*
X1332334D01*
X1334000Y1174334D01*
Y1171002D01*
X1332334Y1169335D01*
X1324003Y1159339D02*
X1325669Y1162671D01*
X1329002Y1166003D01*
X1332334D01*
X1334000Y1164337D01*
Y1161005D01*
X1332334Y1159339D01*
X1330668D01*
X1329002Y1161005D01*
Y1166003D01*
X1324003Y1149342D02*
X1325669Y1152674D01*
X1329002Y1156006D01*
X1332334D01*
X1334000Y1154340D01*
Y1151008D01*
X1332334Y1149342D01*
X1330668D01*
X1329002Y1151008D01*
Y1156006D01*
X1176441Y1412925D02*
X1178108Y1414591D01*
X1181440D01*
X1183106Y1412925D01*
Y1406260D01*
X1181440Y1404594D01*
X1178108D01*
X1176441Y1406260D01*
X1166445Y1414591D02*
X1169777Y1412925D01*
X1173109Y1409592D01*
Y1406260D01*
X1171443Y1404594D01*
X1168111D01*
X1166445Y1406260D01*
Y1407926D01*
X1168111Y1409592D01*
X1173109D01*
X1163112Y1414591D02*
X1156448D01*
Y1412925D01*
X1163112Y1406260D01*
Y1404594D01*
X1336669Y1530336D02*
X1335003Y1532002D01*
Y1535334D01*
X1336669Y1537000D01*
X1343334D01*
X1345000Y1535334D01*
Y1532002D01*
X1343334Y1530336D01*
X1335003Y1520339D02*
X1336669Y1523671D01*
X1340002Y1527003D01*
X1343334D01*
X1345000Y1525337D01*
Y1522005D01*
X1343334Y1520339D01*
X1341668D01*
X1340002Y1522005D01*
Y1527003D01*
X1336669Y1517006D02*
X1335003Y1515340D01*
Y1512008D01*
X1336669Y1510342D01*
X1338336D01*
X1340002Y1512008D01*
X1341668Y1510342D01*
X1343334D01*
X1345000Y1512008D01*
Y1515340D01*
X1343334Y1517006D01*
X1341668D01*
X1340002Y1515340D01*
X1338336Y1517006D01*
X1336669D01*
X1340002Y1515340D02*
Y1512008D01*
X1234669Y1334335D02*
X1233003Y1336002D01*
Y1339334D01*
X1234669Y1341000D01*
X1241334D01*
X1243000Y1339334D01*
Y1336002D01*
X1241334Y1334335D01*
X1233003Y1331003D02*
Y1324339D01*
X1234669D01*
X1241334Y1331003D01*
X1243000D01*
Y1321006D02*
Y1317674D01*
Y1319340D01*
X1233003D01*
X1234669Y1321006D01*
X974335Y1544331D02*
X976002Y1545997D01*
X979334D01*
X981000Y1544331D01*
Y1537666D01*
X979334Y1536000D01*
X976002D01*
X974335Y1537666D01*
X971003Y1545997D02*
X964339D01*
Y1544331D01*
X971003Y1537666D01*
Y1536000D01*
X954342D02*
X961006D01*
X954342Y1542664D01*
Y1544331D01*
X956008Y1545997D01*
X959340D01*
X961006Y1544331D01*
X972336Y1487831D02*
X974002Y1489497D01*
X977334D01*
X979000Y1487831D01*
Y1481166D01*
X977334Y1479500D01*
X974002D01*
X972336Y1481166D01*
X969003Y1489497D02*
X962339D01*
Y1487831D01*
X969003Y1481166D01*
Y1479500D01*
X959006Y1487831D02*
X957340Y1489497D01*
X954008D01*
X952342Y1487831D01*
Y1486165D01*
X954008Y1484498D01*
X955674D01*
X954008D01*
X952342Y1482832D01*
Y1481166D01*
X954008Y1479500D01*
X957340D01*
X959006Y1481166D01*
X1069335Y1454331D02*
X1071002Y1455997D01*
X1074334D01*
X1076000Y1454331D01*
Y1447666D01*
X1074334Y1446000D01*
X1071002D01*
X1069335Y1447666D01*
X1066003Y1455997D02*
X1059339D01*
Y1454331D01*
X1066003Y1447666D01*
Y1446000D01*
X1049342Y1455997D02*
X1056006D01*
Y1450998D01*
X1052674Y1452664D01*
X1051008D01*
X1049342Y1450998D01*
Y1447666D01*
X1051008Y1446000D01*
X1054340D01*
X1056006Y1447666D01*
X1024669Y1471335D02*
X1023003Y1473002D01*
Y1476334D01*
X1024669Y1478000D01*
X1031334D01*
X1033000Y1476334D01*
Y1473002D01*
X1031334Y1471335D01*
X1023003Y1468003D02*
Y1461339D01*
X1024669D01*
X1031334Y1468003D01*
X1033000D01*
X1023003Y1451342D02*
X1024669Y1454674D01*
X1028002Y1458006D01*
X1031334D01*
X1033000Y1456340D01*
Y1453008D01*
X1031334Y1451342D01*
X1029668D01*
X1028002Y1453008D01*
Y1458006D01*
X1085335Y1521331D02*
X1087002Y1522997D01*
X1090334D01*
X1092000Y1521331D01*
Y1514666D01*
X1090334Y1513000D01*
X1087002D01*
X1085335Y1514666D01*
X1082003Y1522997D02*
X1075339D01*
Y1521331D01*
X1082003Y1514666D01*
Y1513000D01*
X1072006Y1522997D02*
X1065342D01*
Y1521331D01*
X1072006Y1514666D01*
Y1513000D01*
X1006336Y1457331D02*
X1008002Y1458997D01*
X1011334D01*
X1013000Y1457331D01*
Y1450666D01*
X1011334Y1449000D01*
X1008002D01*
X1006336Y1450666D01*
X1003003Y1458997D02*
X996339D01*
Y1457331D01*
X1003003Y1450666D01*
Y1449000D01*
X993006Y1457331D02*
X991340Y1458997D01*
X988008D01*
X986342Y1457331D01*
Y1455665D01*
X988008Y1453998D01*
X986342Y1452332D01*
Y1450666D01*
X988008Y1449000D01*
X991340D01*
X993006Y1450666D01*
Y1452332D01*
X991340Y1453998D01*
X993006Y1455665D01*
Y1457331D01*
X991340Y1453998D02*
X988008D01*
X1055335Y1405331D02*
X1057002Y1406997D01*
X1060334D01*
X1062000Y1405331D01*
Y1398666D01*
X1060334Y1397000D01*
X1057002D01*
X1055335Y1398666D01*
X1052003Y1406997D02*
X1045339D01*
Y1405331D01*
X1052003Y1398666D01*
Y1397000D01*
X1042007Y1398666D02*
X1040340Y1397000D01*
X1037008D01*
X1035342Y1398666D01*
Y1405331D01*
X1037008Y1406997D01*
X1040340D01*
X1042007Y1405331D01*
Y1403665D01*
X1040340Y1401998D01*
X1035342D01*
X1055335Y1391331D02*
X1057002Y1392997D01*
X1060334D01*
X1062000Y1391331D01*
Y1384666D01*
X1060334Y1383000D01*
X1057002D01*
X1055335Y1384666D01*
X1052003Y1391331D02*
X1050337Y1392997D01*
X1047005D01*
X1045339Y1391331D01*
Y1389664D01*
X1047005Y1387998D01*
X1045339Y1386332D01*
Y1384666D01*
X1047005Y1383000D01*
X1050337D01*
X1052003Y1384666D01*
Y1386332D01*
X1050337Y1387998D01*
X1052003Y1389664D01*
Y1391331D01*
X1050337Y1387998D02*
X1047005D01*
X1042007Y1391331D02*
X1040340Y1392997D01*
X1037008D01*
X1035342Y1391331D01*
Y1384666D01*
X1037008Y1383000D01*
X1040340D01*
X1042007Y1384666D01*
Y1391331D01*
X1200318Y1429943D02*
X1201984Y1431609D01*
X1205316D01*
X1206982Y1429943D01*
Y1423278D01*
X1205316Y1421612D01*
X1201984D01*
X1200318Y1423278D01*
X1196985Y1429943D02*
X1195319Y1431609D01*
X1191987D01*
X1190321Y1429943D01*
Y1428277D01*
X1191987Y1426610D01*
X1190321Y1424944D01*
Y1423278D01*
X1191987Y1421612D01*
X1195319D01*
X1196985Y1423278D01*
Y1424944D01*
X1195319Y1426610D01*
X1196985Y1428277D01*
Y1429943D01*
X1195319Y1426610D02*
X1191987D01*
X1180324Y1421612D02*
X1186988D01*
X1180324Y1428277D01*
Y1429943D01*
X1181990Y1431609D01*
X1185322D01*
X1186988Y1429943D01*
X999669Y1436335D02*
X998003Y1438002D01*
Y1441334D01*
X999669Y1443000D01*
X1006334D01*
X1008000Y1441334D01*
Y1438002D01*
X1006334Y1436335D01*
X999669Y1433003D02*
X998003Y1431337D01*
Y1428005D01*
X999669Y1426339D01*
X1001336D01*
X1003002Y1428005D01*
X1004668Y1426339D01*
X1006334D01*
X1008000Y1428005D01*
Y1431337D01*
X1006334Y1433003D01*
X1004668D01*
X1003002Y1431337D01*
X1001336Y1433003D01*
X999669D01*
X1003002Y1431337D02*
Y1428005D01*
X999669Y1423006D02*
X998003Y1421340D01*
Y1418008D01*
X999669Y1416342D01*
X1001336D01*
X1003002Y1418008D01*
Y1419674D01*
Y1418008D01*
X1004668Y1416342D01*
X1006334D01*
X1008000Y1418008D01*
Y1421340D01*
X1006334Y1423006D01*
X1220669Y1552336D02*
X1219003Y1554002D01*
Y1557334D01*
X1220669Y1559000D01*
X1227334D01*
X1229000Y1557334D01*
Y1554002D01*
X1227334Y1552336D01*
X1220669Y1549003D02*
X1219003Y1547337D01*
Y1544005D01*
X1220669Y1542339D01*
X1222336D01*
X1224002Y1544005D01*
X1225668Y1542339D01*
X1227334D01*
X1229000Y1544005D01*
Y1547337D01*
X1227334Y1549003D01*
X1225668D01*
X1224002Y1547337D01*
X1222336Y1549003D01*
X1220669D01*
X1224002Y1547337D02*
Y1544005D01*
X1229000Y1534008D02*
X1219003D01*
X1224002Y1539006D01*
Y1532342D01*
X1214335Y1497331D02*
X1216002Y1498997D01*
X1219334D01*
X1221000Y1497331D01*
Y1490666D01*
X1219334Y1489000D01*
X1216002D01*
X1214335Y1490666D01*
X1211003Y1497331D02*
X1209337Y1498997D01*
X1206005D01*
X1204339Y1497331D01*
Y1495665D01*
X1206005Y1493998D01*
X1204339Y1492332D01*
Y1490666D01*
X1206005Y1489000D01*
X1209337D01*
X1211003Y1490666D01*
Y1492332D01*
X1209337Y1493998D01*
X1211003Y1495665D01*
Y1497331D01*
X1209337Y1493998D02*
X1206005D01*
X1194342Y1498997D02*
X1201006D01*
Y1493998D01*
X1197674Y1495665D01*
X1196008D01*
X1194342Y1493998D01*
Y1490666D01*
X1196008Y1489000D01*
X1199340D01*
X1201006Y1490666D01*
X1005753Y1574977D02*
X1007420Y1576643D01*
X1010752D01*
X1012418Y1574977D01*
Y1568312D01*
X1010752Y1566646D01*
X1007420D01*
X1005753Y1568312D01*
X1002421Y1574977D02*
X1000755Y1576643D01*
X997423D01*
X995757Y1574977D01*
Y1573311D01*
X997423Y1571644D01*
X995757Y1569978D01*
Y1568312D01*
X997423Y1566646D01*
X1000755D01*
X1002421Y1568312D01*
Y1569978D01*
X1000755Y1571644D01*
X1002421Y1573311D01*
Y1574977D01*
X1000755Y1571644D02*
X997423D01*
X985760Y1576643D02*
X989092Y1574977D01*
X992424Y1571644D01*
Y1568312D01*
X990758Y1566646D01*
X987426D01*
X985760Y1568312D01*
Y1569978D01*
X987426Y1571644D01*
X992424D01*
X972336Y1504331D02*
X974002Y1505997D01*
X977334D01*
X979000Y1504331D01*
Y1497666D01*
X977334Y1496000D01*
X974002D01*
X972336Y1497666D01*
X969003Y1504331D02*
X967337Y1505997D01*
X964005D01*
X962339Y1504331D01*
Y1502664D01*
X964005Y1500998D01*
X962339Y1499332D01*
Y1497666D01*
X964005Y1496000D01*
X967337D01*
X969003Y1497666D01*
Y1499332D01*
X967337Y1500998D01*
X969003Y1502664D01*
Y1504331D01*
X967337Y1500998D02*
X964005D01*
X959006Y1505997D02*
X952342D01*
Y1504331D01*
X959006Y1497666D01*
Y1496000D01*
X1057336Y1573831D02*
X1059002Y1575497D01*
X1062334D01*
X1064000Y1573831D01*
Y1567166D01*
X1062334Y1565500D01*
X1059002D01*
X1057336Y1567166D01*
X1054003Y1573831D02*
X1052337Y1575497D01*
X1049005D01*
X1047339Y1573831D01*
Y1572164D01*
X1049005Y1570498D01*
X1047339Y1568832D01*
Y1567166D01*
X1049005Y1565500D01*
X1052337D01*
X1054003Y1567166D01*
Y1568832D01*
X1052337Y1570498D01*
X1054003Y1572164D01*
Y1573831D01*
X1052337Y1570498D02*
X1049005D01*
X1044006Y1573831D02*
X1042340Y1575497D01*
X1039008D01*
X1037342Y1573831D01*
Y1572164D01*
X1039008Y1570498D01*
X1037342Y1568832D01*
Y1567166D01*
X1039008Y1565500D01*
X1042340D01*
X1044006Y1567166D01*
Y1568832D01*
X1042340Y1570498D01*
X1044006Y1572164D01*
Y1573831D01*
X1042340Y1570498D02*
X1039008D01*
X1100335Y1506331D02*
X1102002Y1507997D01*
X1105334D01*
X1107000Y1506331D01*
Y1499666D01*
X1105334Y1498000D01*
X1102002D01*
X1100335Y1499666D01*
X1097003Y1506331D02*
X1095337Y1507997D01*
X1092005D01*
X1090339Y1506331D01*
Y1504664D01*
X1092005Y1502998D01*
X1090339Y1501332D01*
Y1499666D01*
X1092005Y1498000D01*
X1095337D01*
X1097003Y1499666D01*
Y1501332D01*
X1095337Y1502998D01*
X1097003Y1504664D01*
Y1506331D01*
X1095337Y1502998D02*
X1092005D01*
X1087006Y1499666D02*
X1085340Y1498000D01*
X1082008D01*
X1080342Y1499666D01*
Y1506331D01*
X1082008Y1507997D01*
X1085340D01*
X1087006Y1506331D01*
Y1504664D01*
X1085340Y1502998D01*
X1080342D01*
X185669Y1064335D02*
X184003Y1066002D01*
Y1069334D01*
X185669Y1071000D01*
X192334D01*
X194000Y1069334D01*
Y1066002D01*
X192334Y1064335D01*
Y1061003D02*
X194000Y1059337D01*
Y1056005D01*
X192334Y1054339D01*
X185669D01*
X184003Y1056005D01*
Y1059337D01*
X185669Y1061003D01*
X187335D01*
X189002Y1059337D01*
Y1054339D01*
X194000Y1051006D02*
Y1047674D01*
Y1049340D01*
X184003D01*
X185669Y1051006D01*
X553335Y1117331D02*
X555002Y1118997D01*
X558334D01*
X560000Y1117331D01*
Y1110666D01*
X558334Y1109000D01*
X555002D01*
X553335Y1110666D01*
X550003D02*
X548337Y1109000D01*
X545005D01*
X543339Y1110666D01*
Y1117331D01*
X545005Y1118997D01*
X548337D01*
X550003Y1117331D01*
Y1115665D01*
X548337Y1113998D01*
X543339D01*
X533342Y1109000D02*
X540006D01*
X533342Y1115665D01*
Y1117331D01*
X535008Y1118997D01*
X538340D01*
X540006Y1117331D01*
X124335Y764331D02*
X126002Y765997D01*
X129334D01*
X131000Y764331D01*
Y757666D01*
X129334Y756000D01*
X126002D01*
X124335Y757666D01*
X121003D02*
X119337Y756000D01*
X116005D01*
X114339Y757666D01*
Y764331D01*
X116005Y765997D01*
X119337D01*
X121003Y764331D01*
Y762664D01*
X119337Y760998D01*
X114339D01*
X111006Y764331D02*
X109340Y765997D01*
X106008D01*
X104342Y764331D01*
Y762664D01*
X106008Y760998D01*
X107674D01*
X106008D01*
X104342Y759332D01*
Y757666D01*
X106008Y756000D01*
X109340D01*
X111006Y757666D01*
X695669Y1059335D02*
X694003Y1061002D01*
Y1064334D01*
X695669Y1066000D01*
X702334D01*
X704000Y1064334D01*
Y1061002D01*
X702334Y1059335D01*
Y1056003D02*
X704000Y1054337D01*
Y1051005D01*
X702334Y1049339D01*
X695669D01*
X694003Y1051005D01*
Y1054337D01*
X695669Y1056003D01*
X697336D01*
X699002Y1054337D01*
Y1049339D01*
X694003Y1039342D02*
X695669Y1042674D01*
X699002Y1046006D01*
X702334D01*
X704000Y1044340D01*
Y1041008D01*
X702334Y1039342D01*
X700668D01*
X699002Y1041008D01*
Y1046006D01*
X1020231Y87045D02*
X1021898Y88711D01*
X1025230D01*
X1026896Y87045D01*
Y80380D01*
X1025230Y78714D01*
X1021898D01*
X1020231Y80380D01*
X1016899D02*
X1015233Y78714D01*
X1011901D01*
X1010235Y80380D01*
Y87045D01*
X1011901Y88711D01*
X1015233D01*
X1016899Y87045D01*
Y85379D01*
X1015233Y83712D01*
X1010235D01*
X1006902Y80380D02*
X1005236Y78714D01*
X1001904D01*
X1000238Y80380D01*
Y87045D01*
X1001904Y88711D01*
X1005236D01*
X1006902Y87045D01*
Y85379D01*
X1005236Y83712D01*
X1000238D01*
X879770Y377367D02*
X881436Y379033D01*
X884768D01*
X886434Y377367D01*
Y370702D01*
X884768Y369036D01*
X881436D01*
X879770Y370702D01*
X876437Y369036D02*
X873105D01*
X874771D01*
Y379033D01*
X876437Y377367D01*
X868107D02*
X866440Y379033D01*
X863108D01*
X861442Y377367D01*
Y370702D01*
X863108Y369036D01*
X866440D01*
X868107Y370702D01*
Y377367D01*
X858110D02*
X856444Y379033D01*
X853111D01*
X851445Y377367D01*
Y370702D01*
X853111Y369036D01*
X856444D01*
X858110Y370702D01*
Y377367D01*
X878335Y310331D02*
X880002Y311997D01*
X883334D01*
X885000Y310331D01*
Y303666D01*
X883334Y302000D01*
X880002D01*
X878335Y303666D01*
X875003Y302000D02*
X871671D01*
X873337D01*
Y311997D01*
X875003Y310331D01*
X866673D02*
X865006Y311997D01*
X861674D01*
X860008Y310331D01*
Y303666D01*
X861674Y302000D01*
X865006D01*
X866673Y303666D01*
Y310331D01*
X856676Y302000D02*
X853344D01*
X855010D01*
Y311997D01*
X856676Y310331D01*
X956835Y159331D02*
X958502Y160997D01*
X961834D01*
X963500Y159331D01*
Y152666D01*
X961834Y151000D01*
X958502D01*
X956835Y152666D01*
X953503Y151000D02*
X950171D01*
X951837D01*
Y160997D01*
X953503Y159331D01*
X945173D02*
X943506Y160997D01*
X940174D01*
X938508Y159331D01*
Y152666D01*
X940174Y151000D01*
X943506D01*
X945173Y152666D01*
Y159331D01*
X928511Y151000D02*
X935176D01*
X928511Y157664D01*
Y159331D01*
X930177Y160997D01*
X933510D01*
X935176Y159331D01*
X956835Y173331D02*
X958502Y174997D01*
X961834D01*
X963500Y173331D01*
Y166666D01*
X961834Y165000D01*
X958502D01*
X956835Y166666D01*
X953503Y165000D02*
X950171D01*
X951837D01*
Y174997D01*
X953503Y173331D01*
X945173D02*
X943506Y174997D01*
X940174D01*
X938508Y173331D01*
Y166666D01*
X940174Y165000D01*
X943506D01*
X945173Y166666D01*
Y173331D01*
X935176D02*
X933510Y174997D01*
X930177D01*
X928511Y173331D01*
Y171665D01*
X930177Y169998D01*
X931843D01*
X930177D01*
X928511Y168332D01*
Y166666D01*
X930177Y165000D01*
X933510D01*
X935176Y166666D01*
X956835Y188331D02*
X958502Y189997D01*
X961834D01*
X963500Y188331D01*
Y181666D01*
X961834Y180000D01*
X958502D01*
X956835Y181666D01*
X953503Y180000D02*
X950171D01*
X951837D01*
Y189997D01*
X953503Y188331D01*
X945173D02*
X943506Y189997D01*
X940174D01*
X938508Y188331D01*
Y181666D01*
X940174Y180000D01*
X943506D01*
X945173Y181666D01*
Y188331D01*
X930177Y180000D02*
Y189997D01*
X935176Y184998D01*
X928511D01*
X639669Y1058335D02*
X638003Y1060002D01*
Y1063334D01*
X639669Y1065000D01*
X646334D01*
X648000Y1063334D01*
Y1060002D01*
X646334Y1058335D01*
X648000Y1055003D02*
Y1051671D01*
Y1053337D01*
X638003D01*
X639669Y1055003D01*
Y1046673D02*
X638003Y1045006D01*
Y1041674D01*
X639669Y1040008D01*
X646334D01*
X648000Y1041674D01*
Y1045006D01*
X646334Y1046673D01*
X639669D01*
X638003Y1030011D02*
Y1036676D01*
X643002D01*
X641336Y1033344D01*
Y1031677D01*
X643002Y1030011D01*
X646334D01*
X648000Y1031677D01*
Y1035010D01*
X646334Y1036676D01*
X653669Y1058335D02*
X652003Y1060002D01*
Y1063334D01*
X653669Y1065000D01*
X660334D01*
X662000Y1063334D01*
Y1060002D01*
X660334Y1058335D01*
X662000Y1055003D02*
Y1051671D01*
Y1053337D01*
X652003D01*
X653669Y1055003D01*
Y1046673D02*
X652003Y1045006D01*
Y1041674D01*
X653669Y1040008D01*
X660334D01*
X662000Y1041674D01*
Y1045006D01*
X660334Y1046673D01*
X653669D01*
X652003Y1030011D02*
X653669Y1033344D01*
X657002Y1036676D01*
X660334D01*
X662000Y1035010D01*
Y1031677D01*
X660334Y1030011D01*
X658668D01*
X657002Y1031677D01*
Y1036676D01*
X667669Y1058335D02*
X666003Y1060002D01*
Y1063334D01*
X667669Y1065000D01*
X674334D01*
X676000Y1063334D01*
Y1060002D01*
X674334Y1058335D01*
X676000Y1055003D02*
Y1051671D01*
Y1053337D01*
X666003D01*
X667669Y1055003D01*
Y1046673D02*
X666003Y1045006D01*
Y1041674D01*
X667669Y1040008D01*
X674334D01*
X676000Y1041674D01*
Y1045006D01*
X674334Y1046673D01*
X667669D01*
Y1036676D02*
X666003Y1035010D01*
Y1031677D01*
X667669Y1030011D01*
X669335D01*
X671002Y1031677D01*
X672668Y1030011D01*
X674334D01*
X676000Y1031677D01*
Y1035010D01*
X674334Y1036676D01*
X672668D01*
X671002Y1035010D01*
X669335Y1036676D01*
X667669D01*
X671002Y1035010D02*
Y1031677D01*
X834169Y296336D02*
X832503Y298002D01*
Y301334D01*
X834169Y303000D01*
X840834D01*
X842500Y301334D01*
Y298002D01*
X840834Y296336D01*
X842500Y293003D02*
Y289671D01*
Y291337D01*
X832503D01*
X834169Y293003D01*
X842500Y284673D02*
Y281340D01*
Y283006D01*
X832503D01*
X834169Y284673D01*
X842500Y276342D02*
Y273010D01*
Y274676D01*
X832503D01*
X834169Y276342D01*
X859669Y214335D02*
X858003Y216002D01*
Y219334D01*
X859669Y221000D01*
X866334D01*
X868000Y219334D01*
Y216002D01*
X866334Y214335D01*
X868000Y211003D02*
Y207671D01*
Y209337D01*
X858003D01*
X859669Y211003D01*
X868000Y202673D02*
Y199340D01*
Y201006D01*
X858003D01*
X859669Y202673D01*
X868000Y187677D02*
Y194342D01*
X861336Y187677D01*
X859669D01*
X858003Y189343D01*
Y192676D01*
X859669Y194342D01*
X890669Y299335D02*
X889003Y301002D01*
Y304334D01*
X890669Y306000D01*
X897334D01*
X899000Y304334D01*
Y301002D01*
X897334Y299335D01*
X899000Y296003D02*
Y292671D01*
Y294337D01*
X889003D01*
X890669Y296003D01*
X899000Y287673D02*
Y284340D01*
Y286006D01*
X889003D01*
X890669Y287673D01*
Y279342D02*
X889003Y277676D01*
Y274343D01*
X890669Y272677D01*
X892336D01*
X894002Y274343D01*
Y276010D01*
Y274343D01*
X895668Y272677D01*
X897334D01*
X899000Y274343D01*
Y277676D01*
X897334Y279342D01*
X934669Y267335D02*
X933003Y269002D01*
Y272334D01*
X934669Y274000D01*
X941334D01*
X943000Y272334D01*
Y269002D01*
X941334Y267335D01*
X943000Y264003D02*
Y260671D01*
Y262337D01*
X933003D01*
X934669Y264003D01*
X943000Y255673D02*
Y252340D01*
Y254007D01*
X933003D01*
X934669Y255673D01*
X943000Y242344D02*
X933003D01*
X938002Y247342D01*
Y240677D01*
X1134335Y223331D02*
X1136002Y224997D01*
X1139334D01*
X1141000Y223331D01*
Y216666D01*
X1139334Y215000D01*
X1136002D01*
X1134335Y216666D01*
X1131003Y215000D02*
X1127671D01*
X1129337D01*
Y224997D01*
X1131003Y223331D01*
X1122673Y215000D02*
X1119340D01*
X1121006D01*
Y224997D01*
X1122673Y223331D01*
X1107677Y224997D02*
X1111010Y223331D01*
X1114342Y219998D01*
Y216666D01*
X1112676Y215000D01*
X1109344D01*
X1107677Y216666D01*
Y218332D01*
X1109344Y219998D01*
X1114342D01*
X1134335Y194331D02*
X1136002Y195997D01*
X1139334D01*
X1141000Y194331D01*
Y187666D01*
X1139334Y186000D01*
X1136002D01*
X1134335Y187666D01*
X1131003Y186000D02*
X1127671D01*
X1129337D01*
Y195997D01*
X1131003Y194331D01*
X1122673Y186000D02*
X1119340D01*
X1121006D01*
Y195997D01*
X1122673Y194331D01*
X1114342Y195997D02*
X1107677D01*
Y194331D01*
X1114342Y187666D01*
Y186000D01*
X1397336Y241331D02*
X1399002Y242997D01*
X1402334D01*
X1404000Y241331D01*
Y234666D01*
X1402334Y233000D01*
X1399002D01*
X1397336Y234666D01*
X1394003Y233000D02*
X1390671D01*
X1392337D01*
Y242997D01*
X1394003Y241331D01*
X1379008Y233000D02*
X1385673D01*
X1379008Y239664D01*
Y241331D01*
X1380674Y242997D01*
X1384007D01*
X1385673Y241331D01*
X1375676D02*
X1374010Y242997D01*
X1370677D01*
X1369011Y241331D01*
Y234666D01*
X1370677Y233000D01*
X1374010D01*
X1375676Y234666D01*
Y241331D01*
X1352336Y208331D02*
X1354002Y209997D01*
X1357334D01*
X1359000Y208331D01*
Y201666D01*
X1357334Y200000D01*
X1354002D01*
X1352336Y201666D01*
X1349003Y200000D02*
X1345671D01*
X1347337D01*
Y209997D01*
X1349003Y208331D01*
X1334008Y200000D02*
X1340673D01*
X1334008Y206665D01*
Y208331D01*
X1335674Y209997D01*
X1339006D01*
X1340673Y208331D01*
X1330676Y200000D02*
X1327343D01*
X1329010D01*
Y209997D01*
X1330676Y208331D01*
X1309335Y304331D02*
X1311002Y305997D01*
X1314334D01*
X1316000Y304331D01*
Y297666D01*
X1314334Y296000D01*
X1311002D01*
X1309335Y297666D01*
X1306003Y296000D02*
X1302671D01*
X1304337D01*
Y305997D01*
X1306003Y304331D01*
X1291008Y296000D02*
X1297673D01*
X1291008Y302665D01*
Y304331D01*
X1292674Y305997D01*
X1296006D01*
X1297673Y304331D01*
X1281011Y296000D02*
X1287676D01*
X1281011Y302665D01*
Y304331D01*
X1282677Y305997D01*
X1286010D01*
X1287676Y304331D01*
X1345336Y279331D02*
X1347002Y280997D01*
X1350334D01*
X1352000Y279331D01*
Y272666D01*
X1350334Y271000D01*
X1347002D01*
X1345336Y272666D01*
X1342003Y271000D02*
X1338671D01*
X1340337D01*
Y280997D01*
X1342003Y279331D01*
X1327008Y271000D02*
X1333673D01*
X1327008Y277665D01*
Y279331D01*
X1328674Y280997D01*
X1332006D01*
X1333673Y279331D01*
X1323676D02*
X1322010Y280997D01*
X1318677D01*
X1317011Y279331D01*
Y277665D01*
X1318677Y275998D01*
X1320343D01*
X1318677D01*
X1317011Y274332D01*
Y272666D01*
X1318677Y271000D01*
X1322010D01*
X1323676Y272666D01*
X1343336Y256331D02*
X1345002Y257997D01*
X1348334D01*
X1350000Y256331D01*
Y249666D01*
X1348334Y248000D01*
X1345002D01*
X1343336Y249666D01*
X1340003Y248000D02*
X1336671D01*
X1338337D01*
Y257997D01*
X1340003Y256331D01*
X1325008Y248000D02*
X1331673D01*
X1325008Y254664D01*
Y256331D01*
X1326674Y257997D01*
X1330006D01*
X1331673Y256331D01*
X1316677Y248000D02*
Y257997D01*
X1321676Y252998D01*
X1315011D01*
X1291335Y228331D02*
X1293002Y229997D01*
X1296334D01*
X1298000Y228331D01*
Y221666D01*
X1296334Y220000D01*
X1293002D01*
X1291335Y221666D01*
X1288003Y220000D02*
X1284671D01*
X1286337D01*
Y229997D01*
X1288003Y228331D01*
X1273008Y220000D02*
X1279673D01*
X1273008Y226665D01*
Y228331D01*
X1274674Y229997D01*
X1278006D01*
X1279673Y228331D01*
X1263011Y229997D02*
X1269676D01*
Y224998D01*
X1266344Y226665D01*
X1264677D01*
X1263011Y224998D01*
Y221666D01*
X1264677Y220000D01*
X1268010D01*
X1269676Y221666D01*
X791336Y1172331D02*
X793002Y1173997D01*
X796334D01*
X798000Y1172331D01*
Y1165666D01*
X796334Y1164000D01*
X793002D01*
X791336Y1165666D01*
X788003Y1164000D02*
X784671D01*
X786337D01*
Y1173997D01*
X788003Y1172331D01*
X773008Y1164000D02*
X779673D01*
X773008Y1170665D01*
Y1172331D01*
X774674Y1173997D01*
X778006D01*
X779673Y1172331D01*
X763011Y1173997D02*
X766344Y1172331D01*
X769676Y1168998D01*
Y1165666D01*
X768010Y1164000D01*
X764677D01*
X763011Y1165666D01*
Y1167332D01*
X764677Y1168998D01*
X769676D01*
X792336Y1153331D02*
X794002Y1154997D01*
X797334D01*
X799000Y1153331D01*
Y1146666D01*
X797334Y1145000D01*
X794002D01*
X792336Y1146666D01*
X789003Y1145000D02*
X785671D01*
X787337D01*
Y1154997D01*
X789003Y1153331D01*
X774008Y1145000D02*
X780673D01*
X774008Y1151665D01*
Y1153331D01*
X775674Y1154997D01*
X779007D01*
X780673Y1153331D01*
X770676Y1154997D02*
X764011D01*
Y1153331D01*
X770676Y1146666D01*
Y1145000D01*
X1210335Y439331D02*
X1212002Y440997D01*
X1215334D01*
X1217000Y439331D01*
Y432666D01*
X1215334Y431000D01*
X1212002D01*
X1210335Y432666D01*
X1207003Y431000D02*
X1203671D01*
X1205337D01*
Y440997D01*
X1207003Y439331D01*
X1192008Y431000D02*
X1198673D01*
X1192008Y437664D01*
Y439331D01*
X1193674Y440997D01*
X1197006D01*
X1198673Y439331D01*
X1188676Y432666D02*
X1187010Y431000D01*
X1183677D01*
X1182011Y432666D01*
Y439331D01*
X1183677Y440997D01*
X1187010D01*
X1188676Y439331D01*
Y437664D01*
X1187010Y435998D01*
X1182011D01*
X1207336Y453331D02*
X1209002Y454997D01*
X1212334D01*
X1214000Y453331D01*
Y446666D01*
X1212334Y445000D01*
X1209002D01*
X1207336Y446666D01*
X1204003Y445000D02*
X1200671D01*
X1202337D01*
Y454997D01*
X1204003Y453331D01*
X1195673D02*
X1194007Y454997D01*
X1190674D01*
X1189008Y453331D01*
Y451665D01*
X1190674Y449998D01*
X1192340D01*
X1190674D01*
X1189008Y448332D01*
Y446666D01*
X1190674Y445000D01*
X1194007D01*
X1195673Y446666D01*
X1185676Y453331D02*
X1184010Y454997D01*
X1180677D01*
X1179011Y453331D01*
Y446666D01*
X1180677Y445000D01*
X1184010D01*
X1185676Y446666D01*
Y453331D01*
X1318336Y467331D02*
X1320002Y468997D01*
X1323334D01*
X1325000Y467331D01*
Y460666D01*
X1323334Y459000D01*
X1320002D01*
X1318336Y460666D01*
X1315003Y459000D02*
X1311671D01*
X1313337D01*
Y468997D01*
X1315003Y467331D01*
X1306673D02*
X1305006Y468997D01*
X1301674D01*
X1300008Y467331D01*
Y465664D01*
X1301674Y463998D01*
X1303340D01*
X1301674D01*
X1300008Y462332D01*
Y460666D01*
X1301674Y459000D01*
X1305006D01*
X1306673Y460666D01*
X1296676Y459000D02*
X1293344D01*
X1295010D01*
Y468997D01*
X1296676Y467331D01*
X1278335Y497331D02*
X1280002Y498997D01*
X1283334D01*
X1285000Y497331D01*
Y490666D01*
X1283334Y489000D01*
X1280002D01*
X1278335Y490666D01*
X1275003Y489000D02*
X1271671D01*
X1273337D01*
Y498997D01*
X1275003Y497331D01*
X1266673D02*
X1265006Y498997D01*
X1261674D01*
X1260008Y497331D01*
Y495664D01*
X1261674Y493998D01*
X1263340D01*
X1261674D01*
X1260008Y492332D01*
Y490666D01*
X1261674Y489000D01*
X1265006D01*
X1266673Y490666D01*
X1250011Y489000D02*
X1256676D01*
X1250011Y495664D01*
Y497331D01*
X1251677Y498997D01*
X1255010D01*
X1256676Y497331D01*
X1299669Y439336D02*
X1298003Y441002D01*
Y444334D01*
X1299669Y446000D01*
X1306334D01*
X1308000Y444334D01*
Y441002D01*
X1306334Y439336D01*
X1308000Y436003D02*
Y432671D01*
Y434337D01*
X1298003D01*
X1299669Y436003D01*
Y427673D02*
X1298003Y426006D01*
Y422674D01*
X1299669Y421008D01*
X1301335D01*
X1303002Y422674D01*
Y424340D01*
Y422674D01*
X1304668Y421008D01*
X1306334D01*
X1308000Y422674D01*
Y426006D01*
X1306334Y427673D01*
X1299669Y417676D02*
X1298003Y416010D01*
Y412677D01*
X1299669Y411011D01*
X1301335D01*
X1303002Y412677D01*
Y414343D01*
Y412677D01*
X1304668Y411011D01*
X1306334D01*
X1308000Y412677D01*
Y416010D01*
X1306334Y417676D01*
X1210335Y412331D02*
X1212002Y413997D01*
X1215334D01*
X1217000Y412331D01*
Y405666D01*
X1215334Y404000D01*
X1212002D01*
X1210335Y405666D01*
X1207003Y404000D02*
X1203671D01*
X1205337D01*
Y413997D01*
X1207003Y412331D01*
X1198673D02*
X1197006Y413997D01*
X1193674D01*
X1192008Y412331D01*
Y410664D01*
X1193674Y408998D01*
X1195340D01*
X1193674D01*
X1192008Y407332D01*
Y405666D01*
X1193674Y404000D01*
X1197006D01*
X1198673Y405666D01*
X1183677Y404000D02*
Y413997D01*
X1188676Y408998D01*
X1182011D01*
X1308336Y395331D02*
X1310002Y396997D01*
X1313334D01*
X1315000Y395331D01*
Y388666D01*
X1313334Y387000D01*
X1310002D01*
X1308336Y388666D01*
X1305003Y387000D02*
X1301671D01*
X1303337D01*
Y396997D01*
X1305003Y395331D01*
X1296673D02*
X1295007Y396997D01*
X1291674D01*
X1290008Y395331D01*
Y393665D01*
X1291674Y391998D01*
X1293340D01*
X1291674D01*
X1290008Y390332D01*
Y388666D01*
X1291674Y387000D01*
X1295007D01*
X1296673Y388666D01*
X1280011Y396997D02*
X1286676D01*
Y391998D01*
X1283344Y393665D01*
X1281677D01*
X1280011Y391998D01*
Y388666D01*
X1281677Y387000D01*
X1285010D01*
X1286676Y388666D01*
X1278335Y367331D02*
X1280002Y368997D01*
X1283334D01*
X1285000Y367331D01*
Y360666D01*
X1283334Y359000D01*
X1280002D01*
X1278335Y360666D01*
X1275003Y359000D02*
X1271671D01*
X1273337D01*
Y368997D01*
X1275003Y367331D01*
X1266673D02*
X1265006Y368997D01*
X1261674D01*
X1260008Y367331D01*
Y365664D01*
X1261674Y363998D01*
X1263340D01*
X1261674D01*
X1260008Y362332D01*
Y360666D01*
X1261674Y359000D01*
X1265006D01*
X1266673Y360666D01*
X1250011Y368997D02*
X1253344Y367331D01*
X1256676Y363998D01*
Y360666D01*
X1255010Y359000D01*
X1251677D01*
X1250011Y360666D01*
Y362332D01*
X1251677Y363998D01*
X1256676D01*
X217335Y1590331D02*
X219002Y1591997D01*
X222334D01*
X224000Y1590331D01*
Y1583666D01*
X222334Y1582000D01*
X219002D01*
X217335Y1583666D01*
X214003Y1582000D02*
X210671D01*
X212337D01*
Y1591997D01*
X214003Y1590331D01*
X200674Y1582000D02*
Y1591997D01*
X205673Y1586998D01*
X199008D01*
X195676Y1590331D02*
X194010Y1591997D01*
X190677D01*
X189011Y1590331D01*
Y1583666D01*
X190677Y1582000D01*
X194010D01*
X195676Y1583666D01*
Y1590331D01*
X394336Y1585331D02*
X396002Y1586997D01*
X399334D01*
X401000Y1585331D01*
Y1578666D01*
X399334Y1577000D01*
X396002D01*
X394336Y1578666D01*
X391003Y1577000D02*
X387671D01*
X389337D01*
Y1586997D01*
X391003Y1585331D01*
X377674Y1577000D02*
Y1586997D01*
X382673Y1581998D01*
X376008D01*
X372676Y1577000D02*
X369344D01*
X371010D01*
Y1586997D01*
X372676Y1585331D01*
X205336Y1538331D02*
X207002Y1539997D01*
X210334D01*
X212000Y1538331D01*
Y1531666D01*
X210334Y1530000D01*
X207002D01*
X205336Y1531666D01*
X202003Y1530000D02*
X198671D01*
X200337D01*
Y1539997D01*
X202003Y1538331D01*
X188674Y1530000D02*
Y1539997D01*
X193673Y1534998D01*
X187008D01*
X177011Y1530000D02*
X183676D01*
X177011Y1536664D01*
Y1538331D01*
X178677Y1539997D01*
X182010D01*
X183676Y1538331D01*
X398335Y1534331D02*
X400002Y1535997D01*
X403334D01*
X405000Y1534331D01*
Y1527666D01*
X403334Y1526000D01*
X400002D01*
X398335Y1527666D01*
X395003Y1526000D02*
X391671D01*
X393337D01*
Y1535997D01*
X395003Y1534331D01*
X381674Y1526000D02*
Y1535997D01*
X386673Y1530998D01*
X380008D01*
X376676Y1534331D02*
X375010Y1535997D01*
X371677D01*
X370011Y1534331D01*
Y1532664D01*
X371677Y1530998D01*
X373344D01*
X371677D01*
X370011Y1529332D01*
Y1527666D01*
X371677Y1526000D01*
X375010D01*
X376676Y1527666D01*
X316835Y1553331D02*
X318502Y1554997D01*
X321834D01*
X323500Y1553331D01*
Y1546666D01*
X321834Y1545000D01*
X318502D01*
X316835Y1546666D01*
X313503Y1545000D02*
X310171D01*
X311837D01*
Y1554997D01*
X313503Y1553331D01*
X300174Y1545000D02*
Y1554997D01*
X305173Y1549998D01*
X298508D01*
X290177Y1545000D02*
Y1554997D01*
X295176Y1549998D01*
X288511D01*
X472336Y1541331D02*
X474002Y1542997D01*
X477334D01*
X479000Y1541331D01*
Y1534666D01*
X477334Y1533000D01*
X474002D01*
X472336Y1534666D01*
X469003Y1533000D02*
X465671D01*
X467337D01*
Y1542997D01*
X469003Y1541331D01*
X455674Y1533000D02*
Y1542997D01*
X460673Y1537998D01*
X454008D01*
X444011Y1542997D02*
X450676D01*
Y1537998D01*
X447344Y1539664D01*
X445677D01*
X444011Y1537998D01*
Y1534666D01*
X445677Y1533000D01*
X449010D01*
X450676Y1534666D01*
X258335Y1602331D02*
X260002Y1603997D01*
X263334D01*
X265000Y1602331D01*
Y1595666D01*
X263334Y1594000D01*
X260002D01*
X258335Y1595666D01*
X255003Y1594000D02*
X251671D01*
X253337D01*
Y1603997D01*
X255003Y1602331D01*
X241674Y1594000D02*
Y1603997D01*
X246673Y1598998D01*
X240008D01*
X230011Y1603997D02*
X233344Y1602331D01*
X236676Y1598998D01*
Y1595666D01*
X235010Y1594000D01*
X231677D01*
X230011Y1595666D01*
Y1597332D01*
X231677Y1598998D01*
X236676D01*
X473335Y1598331D02*
X475002Y1599997D01*
X478334D01*
X480000Y1598331D01*
Y1591666D01*
X478334Y1590000D01*
X475002D01*
X473335Y1591666D01*
X470003Y1590000D02*
X466671D01*
X468337D01*
Y1599997D01*
X470003Y1598331D01*
X456674Y1590000D02*
Y1599997D01*
X461673Y1594998D01*
X455008D01*
X451676Y1599997D02*
X445011D01*
Y1598331D01*
X451676Y1591666D01*
Y1590000D01*
X316835Y1570831D02*
X318502Y1572497D01*
X321834D01*
X323500Y1570831D01*
Y1564166D01*
X321834Y1562500D01*
X318502D01*
X316835Y1564166D01*
X313503Y1562500D02*
X310171D01*
X311837D01*
Y1572497D01*
X313503Y1570831D01*
X300174Y1562500D02*
Y1572497D01*
X305173Y1567498D01*
X298508D01*
X295176Y1564166D02*
X293510Y1562500D01*
X290177D01*
X288511Y1564166D01*
Y1570831D01*
X290177Y1572497D01*
X293510D01*
X295176Y1570831D01*
Y1569164D01*
X293510Y1567498D01*
X288511D01*
X125669Y1528336D02*
X124003Y1530002D01*
Y1533334D01*
X125669Y1535000D01*
X132334D01*
X134000Y1533334D01*
Y1530002D01*
X132334Y1528336D01*
X134000Y1525003D02*
Y1521671D01*
Y1523337D01*
X124003D01*
X125669Y1525003D01*
X124003Y1510008D02*
Y1516673D01*
X129002D01*
X127336Y1513340D01*
Y1511674D01*
X129002Y1510008D01*
X132334D01*
X134000Y1511674D01*
Y1515006D01*
X132334Y1516673D01*
X125669Y1506676D02*
X124003Y1505010D01*
Y1501677D01*
X125669Y1500011D01*
X132334D01*
X134000Y1501677D01*
Y1505010D01*
X132334Y1506676D01*
X125669D01*
X31409Y1523923D02*
X33076Y1525589D01*
X36408D01*
X38074Y1523923D01*
Y1517258D01*
X36408Y1515592D01*
X33076D01*
X31409Y1517258D01*
X28077Y1515592D02*
X24745D01*
X26411D01*
Y1525589D01*
X28077Y1523923D01*
X13082Y1525589D02*
X19747D01*
Y1520590D01*
X16414Y1522256D01*
X14748D01*
X13082Y1520590D01*
Y1517258D01*
X14748Y1515592D01*
X18080D01*
X19747Y1517258D01*
X9750Y1515592D02*
X6417D01*
X8084D01*
Y1525589D01*
X9750Y1523923D01*
X222335Y1485331D02*
X224002Y1486997D01*
X227334D01*
X229000Y1485331D01*
Y1478666D01*
X227334Y1477000D01*
X224002D01*
X222335Y1478666D01*
X219003Y1477000D02*
X215671D01*
X217337D01*
Y1486997D01*
X219003Y1485331D01*
X204008Y1486997D02*
X210673D01*
Y1481998D01*
X207340Y1483665D01*
X205674D01*
X204008Y1481998D01*
Y1478666D01*
X205674Y1477000D01*
X209006D01*
X210673Y1478666D01*
X194011Y1477000D02*
X200676D01*
X194011Y1483665D01*
Y1485331D01*
X195677Y1486997D01*
X199010D01*
X200676Y1485331D01*
X552336Y1218331D02*
X554002Y1219997D01*
X557334D01*
X559000Y1218331D01*
Y1211666D01*
X557334Y1210000D01*
X554002D01*
X552336Y1211666D01*
X549003Y1210000D02*
X545671D01*
X547337D01*
Y1219997D01*
X549003Y1218331D01*
X534008Y1219997D02*
X540673D01*
Y1214998D01*
X537340Y1216665D01*
X535674D01*
X534008Y1214998D01*
Y1211666D01*
X535674Y1210000D01*
X539006D01*
X540673Y1211666D01*
X530676Y1218331D02*
X529010Y1219997D01*
X525677D01*
X524011Y1218331D01*
Y1216665D01*
X525677Y1214998D01*
X527343D01*
X525677D01*
X524011Y1213332D01*
Y1211666D01*
X525677Y1210000D01*
X529010D01*
X530676Y1211666D01*
X123669Y1351335D02*
X122003Y1353002D01*
Y1356334D01*
X123669Y1358000D01*
X130334D01*
X132000Y1356334D01*
Y1353002D01*
X130334Y1351335D01*
X132000Y1348003D02*
Y1344671D01*
Y1346337D01*
X122003D01*
X123669Y1348003D01*
X122003Y1333008D02*
Y1339673D01*
X127002D01*
X125336Y1336340D01*
Y1334674D01*
X127002Y1333008D01*
X130334D01*
X132000Y1334674D01*
Y1338006D01*
X130334Y1339673D01*
X132000Y1324677D02*
X122003D01*
X127002Y1329676D01*
Y1323011D01*
X26669Y1409335D02*
X25003Y1411002D01*
Y1414334D01*
X26669Y1416000D01*
X33334D01*
X35000Y1414334D01*
Y1411002D01*
X33334Y1409335D01*
X35000Y1406003D02*
Y1402671D01*
Y1404337D01*
X25003D01*
X26669Y1406003D01*
X25003Y1391008D02*
Y1397673D01*
X30002D01*
X28335Y1394340D01*
Y1392674D01*
X30002Y1391008D01*
X33334D01*
X35000Y1392674D01*
Y1396006D01*
X33334Y1397673D01*
X25003Y1381011D02*
Y1387676D01*
X30002D01*
X28335Y1384344D01*
Y1382677D01*
X30002Y1381011D01*
X33334D01*
X35000Y1382677D01*
Y1386010D01*
X33334Y1387676D01*
X186336Y1378331D02*
X188002Y1379997D01*
X191334D01*
X193000Y1378331D01*
Y1371666D01*
X191334Y1370000D01*
X188002D01*
X186336Y1371666D01*
X183003Y1370000D02*
X179671D01*
X181337D01*
Y1379997D01*
X183003Y1378331D01*
X168008Y1379997D02*
X174673D01*
Y1374998D01*
X171340Y1376664D01*
X169674D01*
X168008Y1374998D01*
Y1371666D01*
X169674Y1370000D01*
X173006D01*
X174673Y1371666D01*
X158011Y1379997D02*
X161343Y1378331D01*
X164676Y1374998D01*
Y1371666D01*
X163010Y1370000D01*
X159677D01*
X158011Y1371666D01*
Y1373332D01*
X159677Y1374998D01*
X164676D01*
X553335Y1203331D02*
X555002Y1204997D01*
X558334D01*
X560000Y1203331D01*
Y1196666D01*
X558334Y1195000D01*
X555002D01*
X553335Y1196666D01*
X550003Y1195000D02*
X546671D01*
X548337D01*
Y1204997D01*
X550003Y1203331D01*
X535008Y1204997D02*
X541673D01*
Y1199998D01*
X538340Y1201665D01*
X536674D01*
X535008Y1199998D01*
Y1196666D01*
X536674Y1195000D01*
X540006D01*
X541673Y1196666D01*
X531676Y1204997D02*
X525011D01*
Y1203331D01*
X531676Y1196666D01*
Y1195000D01*
X634336Y1528331D02*
X636002Y1529997D01*
X639334D01*
X641000Y1528331D01*
Y1521666D01*
X639334Y1520000D01*
X636002D01*
X634336Y1521666D01*
X631003Y1520000D02*
X627671D01*
X629337D01*
Y1529997D01*
X631003Y1528331D01*
X616008Y1529997D02*
X622673D01*
Y1524998D01*
X619340Y1526664D01*
X617674D01*
X616008Y1524998D01*
Y1521666D01*
X617674Y1520000D01*
X621006D01*
X622673Y1521666D01*
X612676Y1528331D02*
X611010Y1529997D01*
X607677D01*
X606011Y1528331D01*
Y1526664D01*
X607677Y1524998D01*
X606011Y1523332D01*
Y1521666D01*
X607677Y1520000D01*
X611010D01*
X612676Y1521666D01*
Y1523332D01*
X611010Y1524998D01*
X612676Y1526664D01*
Y1528331D01*
X611010Y1524998D02*
X607677D01*
X566335Y1629331D02*
X568002Y1630997D01*
X571334D01*
X573000Y1629331D01*
Y1622666D01*
X571334Y1621000D01*
X568002D01*
X566335Y1622666D01*
X563003Y1621000D02*
X559671D01*
X561337D01*
Y1630997D01*
X563003Y1629331D01*
X548008Y1630997D02*
X554673D01*
Y1625998D01*
X551340Y1627664D01*
X549674D01*
X548008Y1625998D01*
Y1622666D01*
X549674Y1621000D01*
X553006D01*
X554673Y1622666D01*
X544676D02*
X543010Y1621000D01*
X539677D01*
X538011Y1622666D01*
Y1629331D01*
X539677Y1630997D01*
X543010D01*
X544676Y1629331D01*
Y1627664D01*
X543010Y1625998D01*
X538011D01*
X625008Y1689785D02*
X626674Y1691451D01*
X630006D01*
X631672Y1689785D01*
Y1683120D01*
X630006Y1681454D01*
X626674D01*
X625008Y1683120D01*
X621675Y1681454D02*
X618343D01*
X620009D01*
Y1691451D01*
X621675Y1689785D01*
X606680Y1691451D02*
X610012Y1689785D01*
X613345Y1686452D01*
Y1683120D01*
X611678Y1681454D01*
X608346D01*
X606680Y1683120D01*
Y1684786D01*
X608346Y1686452D01*
X613345D01*
X603348Y1689785D02*
X601682Y1691451D01*
X598349D01*
X596683Y1689785D01*
Y1683120D01*
X598349Y1681454D01*
X601682D01*
X603348Y1683120D01*
Y1689785D01*
X600336Y1559331D02*
X602002Y1560997D01*
X605334D01*
X607000Y1559331D01*
Y1552666D01*
X605334Y1551000D01*
X602002D01*
X600336Y1552666D01*
X597003Y1551000D02*
X593671D01*
X595337D01*
Y1560997D01*
X597003Y1559331D01*
X582008Y1560997D02*
X585340Y1559331D01*
X588673Y1555998D01*
Y1552666D01*
X587006Y1551000D01*
X583674D01*
X582008Y1552666D01*
Y1554332D01*
X583674Y1555998D01*
X588673D01*
X578676Y1551000D02*
X575344D01*
X577010D01*
Y1560997D01*
X578676Y1559331D01*
X569669Y1294335D02*
X568003Y1296002D01*
Y1299334D01*
X569669Y1301000D01*
X576334D01*
X578000Y1299334D01*
Y1296002D01*
X576334Y1294335D01*
X578000Y1291003D02*
Y1287671D01*
Y1289337D01*
X568003D01*
X569669Y1291003D01*
X568003Y1276008D02*
X569669Y1279340D01*
X573002Y1282673D01*
X576334D01*
X578000Y1281006D01*
Y1277674D01*
X576334Y1276008D01*
X574668D01*
X573002Y1277674D01*
Y1282673D01*
X578000Y1266011D02*
Y1272676D01*
X571335Y1266011D01*
X569669D01*
X568003Y1267677D01*
Y1271010D01*
X569669Y1272676D01*
X174669Y1444335D02*
X173003Y1446002D01*
Y1449334D01*
X174669Y1451000D01*
X181334D01*
X183000Y1449334D01*
Y1446002D01*
X181334Y1444335D01*
X183000Y1441003D02*
Y1437671D01*
Y1439337D01*
X173003D01*
X174669Y1441003D01*
X173003Y1426008D02*
X174669Y1429340D01*
X178002Y1432673D01*
X181334D01*
X183000Y1431006D01*
Y1427674D01*
X181334Y1426008D01*
X179668D01*
X178002Y1427674D01*
Y1432673D01*
X183000Y1417677D02*
X173003D01*
X178002Y1422676D01*
Y1416011D01*
X539336Y1567331D02*
X541002Y1568997D01*
X544334D01*
X546000Y1567331D01*
Y1560666D01*
X544334Y1559000D01*
X541002D01*
X539336Y1560666D01*
X536003Y1559000D02*
X532671D01*
X534337D01*
Y1568997D01*
X536003Y1567331D01*
X521008Y1568997D02*
X524340Y1567331D01*
X527673Y1563998D01*
Y1560666D01*
X526006Y1559000D01*
X522674D01*
X521008Y1560666D01*
Y1562332D01*
X522674Y1563998D01*
X527673D01*
X511011Y1568997D02*
X517676D01*
Y1563998D01*
X514343Y1565665D01*
X512677D01*
X511011Y1563998D01*
Y1560666D01*
X512677Y1559000D01*
X516010D01*
X517676Y1560666D01*
X866336Y1379331D02*
X868002Y1380997D01*
X871334D01*
X873000Y1379331D01*
Y1372666D01*
X871334Y1371000D01*
X868002D01*
X866336Y1372666D01*
X863003Y1371000D02*
X859671D01*
X861337D01*
Y1380997D01*
X863003Y1379331D01*
X848008Y1380997D02*
X851340Y1379331D01*
X854673Y1375998D01*
Y1372666D01*
X853006Y1371000D01*
X849674D01*
X848008Y1372666D01*
Y1374332D01*
X849674Y1375998D01*
X854673D01*
X844676Y1379331D02*
X843010Y1380997D01*
X839677D01*
X838011Y1379331D01*
Y1377664D01*
X839677Y1375998D01*
X838011Y1374332D01*
Y1372666D01*
X839677Y1371000D01*
X843010D01*
X844676Y1372666D01*
Y1374332D01*
X843010Y1375998D01*
X844676Y1377664D01*
Y1379331D01*
X843010Y1375998D02*
X839677D01*
X872336Y1424331D02*
X874002Y1425997D01*
X877334D01*
X879000Y1424331D01*
Y1417666D01*
X877334Y1416000D01*
X874002D01*
X872336Y1417666D01*
X869003Y1416000D02*
X865671D01*
X867337D01*
Y1425997D01*
X869003Y1424331D01*
X854008Y1425997D02*
X857340Y1424331D01*
X860673Y1420998D01*
Y1417666D01*
X859006Y1416000D01*
X855674D01*
X854008Y1417666D01*
Y1419332D01*
X855674Y1420998D01*
X860673D01*
X850676Y1417666D02*
X849010Y1416000D01*
X845677D01*
X844011Y1417666D01*
Y1424331D01*
X845677Y1425997D01*
X849010D01*
X850676Y1424331D01*
Y1422664D01*
X849010Y1420998D01*
X844011D01*
X880335Y1672330D02*
X882002Y1673996D01*
X885334D01*
X887000Y1672330D01*
Y1665665D01*
X885334Y1663999D01*
X882002D01*
X880335Y1665665D01*
X877003Y1663999D02*
X873671D01*
X875337D01*
Y1673996D01*
X877003Y1672330D01*
X868673Y1673996D02*
X862008D01*
Y1672330D01*
X868673Y1665665D01*
Y1663999D01*
X858676Y1672330D02*
X857010Y1673996D01*
X853677D01*
X852011Y1672330D01*
Y1665665D01*
X853677Y1663999D01*
X857010D01*
X858676Y1665665D01*
Y1672330D01*
X740832Y1566341D02*
X742498Y1568007D01*
X745830D01*
X747496Y1566341D01*
Y1559676D01*
X745830Y1558010D01*
X742498D01*
X740832Y1559676D01*
X737499Y1558010D02*
X734167D01*
X735833D01*
Y1568007D01*
X737499Y1566341D01*
X729169Y1568007D02*
X722504D01*
Y1566341D01*
X729169Y1559676D01*
Y1558010D01*
X719172D02*
X715839D01*
X717506D01*
Y1568007D01*
X719172Y1566341D01*
X831336Y1474331D02*
X833002Y1475997D01*
X836334D01*
X838000Y1474331D01*
Y1467666D01*
X836334Y1466000D01*
X833002D01*
X831336Y1467666D01*
X828003Y1466000D02*
X824671D01*
X826337D01*
Y1475997D01*
X828003Y1474331D01*
X819673Y1475997D02*
X813008D01*
Y1474331D01*
X819673Y1467666D01*
Y1466000D01*
X809676Y1474331D02*
X808010Y1475997D01*
X804677D01*
X803011Y1474331D01*
Y1472664D01*
X804677Y1470998D01*
X806344D01*
X804677D01*
X803011Y1469332D01*
Y1467666D01*
X804677Y1466000D01*
X808010D01*
X809676Y1467666D01*
X781336Y1422331D02*
X783002Y1423997D01*
X786334D01*
X788000Y1422331D01*
Y1415666D01*
X786334Y1414000D01*
X783002D01*
X781336Y1415666D01*
X778003Y1414000D02*
X774671D01*
X776337D01*
Y1423997D01*
X778003Y1422331D01*
X769673Y1423997D02*
X763008D01*
Y1422331D01*
X769673Y1415666D01*
Y1414000D01*
X754677D02*
Y1423997D01*
X759676Y1418998D01*
X753011D01*
X730835Y1672330D02*
X732501Y1673996D01*
X735833D01*
X737499Y1672330D01*
Y1665665D01*
X735833Y1663999D01*
X732501D01*
X730835Y1665665D01*
X727503Y1663999D02*
X724170D01*
X725836D01*
Y1673996D01*
X727503Y1672330D01*
X719172Y1673996D02*
X712507D01*
Y1672330D01*
X719172Y1665665D01*
Y1663999D01*
X702511Y1673996D02*
X709175D01*
Y1668998D01*
X705843Y1670664D01*
X704177D01*
X702511Y1668998D01*
Y1665665D01*
X704177Y1663999D01*
X707509D01*
X709175Y1665665D01*
X892723Y1569389D02*
X894390Y1571055D01*
X897722D01*
X899388Y1569389D01*
Y1562724D01*
X897722Y1561058D01*
X894390D01*
X892723Y1562724D01*
X889391Y1561058D02*
X886059D01*
X887725D01*
Y1571055D01*
X889391Y1569389D01*
X881061Y1571055D02*
X874396D01*
Y1569389D01*
X881061Y1562724D01*
Y1561058D01*
X864399Y1571055D02*
X867731Y1569389D01*
X871064Y1566056D01*
Y1562724D01*
X869398Y1561058D01*
X866065D01*
X864399Y1562724D01*
Y1564390D01*
X866065Y1566056D01*
X871064D01*
X553335Y1175331D02*
X555002Y1176997D01*
X558334D01*
X560000Y1175331D01*
Y1168666D01*
X558334Y1167000D01*
X555002D01*
X553335Y1168666D01*
X550003Y1167000D02*
X546671D01*
X548337D01*
Y1176997D01*
X550003Y1175331D01*
X541673Y1176997D02*
X535008D01*
Y1175331D01*
X541673Y1168666D01*
Y1167000D01*
X531676Y1168666D02*
X530010Y1167000D01*
X526677D01*
X525011Y1168666D01*
Y1175331D01*
X526677Y1176997D01*
X530010D01*
X531676Y1175331D01*
Y1173664D01*
X530010Y1171998D01*
X525011D01*
X553335Y1161331D02*
X555002Y1162997D01*
X558334D01*
X560000Y1161331D01*
Y1154666D01*
X558334Y1153000D01*
X555002D01*
X553335Y1154666D01*
X550003Y1153000D02*
X546671D01*
X548337D01*
Y1162997D01*
X550003Y1161331D01*
X541673D02*
X540006Y1162997D01*
X536674D01*
X535008Y1161331D01*
Y1159665D01*
X536674Y1157998D01*
X535008Y1156332D01*
Y1154666D01*
X536674Y1153000D01*
X540006D01*
X541673Y1154666D01*
Y1156332D01*
X540006Y1157998D01*
X541673Y1159665D01*
Y1161331D01*
X540006Y1157998D02*
X536674D01*
X531676Y1161331D02*
X530010Y1162997D01*
X526677D01*
X525011Y1161331D01*
Y1154666D01*
X526677Y1153000D01*
X530010D01*
X531676Y1154666D01*
Y1161331D01*
X553335Y1146331D02*
X555002Y1147997D01*
X558334D01*
X560000Y1146331D01*
Y1139666D01*
X558334Y1138000D01*
X555002D01*
X553335Y1139666D01*
X550003Y1138000D02*
X546671D01*
X548337D01*
Y1147997D01*
X550003Y1146331D01*
X541673D02*
X540006Y1147997D01*
X536674D01*
X535008Y1146331D01*
Y1144665D01*
X536674Y1142998D01*
X535008Y1141332D01*
Y1139666D01*
X536674Y1138000D01*
X540006D01*
X541673Y1139666D01*
Y1141332D01*
X540006Y1142998D01*
X541673Y1144665D01*
Y1146331D01*
X540006Y1142998D02*
X536674D01*
X531676Y1138000D02*
X528344D01*
X530010D01*
Y1147997D01*
X531676Y1146331D01*
X28669Y964836D02*
X27003Y966502D01*
Y969834D01*
X28669Y971500D01*
X35334D01*
X37000Y969834D01*
Y966502D01*
X35334Y964836D01*
X37000Y961503D02*
Y958171D01*
Y959837D01*
X27003D01*
X28669Y961503D01*
Y953173D02*
X27003Y951507D01*
Y948174D01*
X28669Y946508D01*
X30336D01*
X32002Y948174D01*
X33668Y946508D01*
X35334D01*
X37000Y948174D01*
Y951507D01*
X35334Y953173D01*
X33668D01*
X32002Y951507D01*
X30336Y953173D01*
X28669D01*
X32002Y951507D02*
Y948174D01*
X37000Y936511D02*
Y943176D01*
X30336Y936511D01*
X28669D01*
X27003Y938177D01*
Y941510D01*
X28669Y943176D01*
X73669Y967336D02*
X72003Y969002D01*
Y972334D01*
X73669Y974000D01*
X80334D01*
X82000Y972334D01*
Y969002D01*
X80334Y967336D01*
X82000Y964003D02*
Y960671D01*
Y962337D01*
X72003D01*
X73669Y964003D01*
Y955673D02*
X72003Y954006D01*
Y950674D01*
X73669Y949008D01*
X75335D01*
X77002Y950674D01*
X78668Y949008D01*
X80334D01*
X82000Y950674D01*
Y954006D01*
X80334Y955673D01*
X78668D01*
X77002Y954006D01*
X75335Y955673D01*
X73669D01*
X77002Y954006D02*
Y950674D01*
X73669Y945676D02*
X72003Y944010D01*
Y940677D01*
X73669Y939011D01*
X75335D01*
X77002Y940677D01*
Y942344D01*
Y940677D01*
X78668Y939011D01*
X80334D01*
X82000Y940677D01*
Y944010D01*
X80334Y945676D01*
X678003Y422000D02*
X688000D01*
Y417002D01*
X686334Y415336D01*
X679669D01*
X678003Y417002D01*
Y422000D01*
X688000Y412003D02*
X681336D01*
X678003Y408671D01*
X681336Y405339D01*
X688000D01*
X683002D01*
Y412003D01*
X678003Y395342D02*
X679669Y398674D01*
X683002Y402006D01*
X686334D01*
X688000Y400340D01*
Y397008D01*
X686334Y395342D01*
X684668D01*
X683002Y397008D01*
Y402006D01*
X866003Y1525000D02*
X876000D01*
Y1518336D01*
Y1515003D02*
Y1511671D01*
Y1513337D01*
X866003D01*
X867669Y1515003D01*
Y1506673D02*
X866003Y1505006D01*
Y1501674D01*
X867669Y1500008D01*
X869335D01*
X871002Y1501674D01*
Y1503340D01*
Y1501674D01*
X872668Y1500008D01*
X874334D01*
X876000Y1501674D01*
Y1505006D01*
X874334Y1506673D01*
X590000Y230000D02*
Y239997D01*
X585002D01*
X583335Y238331D01*
Y234998D01*
X585002Y233332D01*
X590000D01*
X586668D02*
X583335Y230000D01*
X575005D02*
Y239997D01*
X580003Y234998D01*
X573339D01*
X676000Y231000D02*
Y240997D01*
X671002D01*
X669335Y239331D01*
Y235998D01*
X671002Y234332D01*
X676000D01*
X672668D02*
X669335Y231000D01*
X659339Y240997D02*
X666003D01*
Y235998D01*
X662671Y237665D01*
X661005D01*
X659339Y235998D01*
Y232666D01*
X661005Y231000D01*
X664337D01*
X666003Y232666D01*
X713000Y460000D02*
X703003D01*
Y455002D01*
X704669Y453335D01*
X708002D01*
X709668Y455002D01*
Y460000D01*
Y456668D02*
X713000Y453335D01*
X703003Y443339D02*
X704669Y446671D01*
X708002Y450003D01*
X711334D01*
X713000Y448337D01*
Y445005D01*
X711334Y443339D01*
X709668D01*
X708002Y445005D01*
Y450003D01*
X545000Y271000D02*
Y280997D01*
X540002D01*
X538335Y279331D01*
Y275998D01*
X540002Y274332D01*
X545000D01*
X541668D02*
X538335Y271000D01*
X535003Y280997D02*
X528339D01*
Y279331D01*
X535003Y272666D01*
Y271000D01*
X720000D02*
Y280997D01*
X715002D01*
X713335Y279331D01*
Y275998D01*
X715002Y274332D01*
X720000D01*
X716668D02*
X713335Y271000D01*
X710003Y279331D02*
X708337Y280997D01*
X705005D01*
X703339Y279331D01*
Y277665D01*
X705005Y275998D01*
X703339Y274332D01*
Y272666D01*
X705005Y271000D01*
X708337D01*
X710003Y272666D01*
Y274332D01*
X708337Y275998D01*
X710003Y277665D01*
Y279331D01*
X708337Y275998D02*
X705005D01*
X657000Y460000D02*
Y469997D01*
X652002D01*
X650335Y468331D01*
Y464998D01*
X652002Y463332D01*
X657000D01*
X653668D02*
X650335Y460000D01*
X647003Y461666D02*
X645337Y460000D01*
X642005D01*
X640339Y461666D01*
Y468331D01*
X642005Y469997D01*
X645337D01*
X647003Y468331D01*
Y466665D01*
X645337Y464998D01*
X640339D01*
X723000Y468000D02*
Y477997D01*
X718002D01*
X716336Y476331D01*
Y472998D01*
X718002Y471332D01*
X723000D01*
X719668D02*
X716336Y468000D01*
X713003D02*
X709671D01*
X711337D01*
Y477997D01*
X713003Y476331D01*
X704673Y468000D02*
X701340D01*
X703006D01*
Y477997D01*
X704673Y476331D01*
X736000Y1010000D02*
X726003D01*
Y1005002D01*
X727669Y1003335D01*
X731002D01*
X732668Y1005002D01*
Y1010000D01*
Y1006668D02*
X736000Y1003335D01*
Y1000003D02*
Y996671D01*
Y998337D01*
X726003D01*
X727669Y1000003D01*
Y991673D02*
X726003Y990006D01*
Y986674D01*
X727669Y985008D01*
X729335D01*
X731002Y986674D01*
Y988340D01*
Y986674D01*
X732668Y985008D01*
X734334D01*
X736000Y986674D01*
Y990006D01*
X734334Y991673D01*
X722000Y1010000D02*
X712003D01*
Y1005002D01*
X713669Y1003335D01*
X717002D01*
X718668Y1005002D01*
Y1010000D01*
Y1006668D02*
X722000Y1003335D01*
Y1000003D02*
Y996671D01*
Y998337D01*
X712003D01*
X713669Y1000003D01*
X712003Y985008D02*
Y991673D01*
X717002D01*
X715335Y988340D01*
Y986674D01*
X717002Y985008D01*
X720334D01*
X722000Y986674D01*
Y990006D01*
X720334Y991673D01*
X1350000Y609000D02*
Y618997D01*
X1345002D01*
X1343336Y617331D01*
Y613998D01*
X1345002Y612332D01*
X1350000D01*
X1346668D02*
X1343336Y609000D01*
X1340003D02*
X1336671D01*
X1338337D01*
Y618997D01*
X1340003Y617331D01*
X1331673Y610666D02*
X1330006Y609000D01*
X1326674D01*
X1325008Y610666D01*
Y617331D01*
X1326674Y618997D01*
X1330006D01*
X1331673Y617331D01*
Y615664D01*
X1330006Y613998D01*
X1325008D01*
X1387322Y657326D02*
Y667323D01*
X1382324D01*
X1380658Y665657D01*
Y662324D01*
X1382324Y660658D01*
X1387322D01*
X1383990D02*
X1380658Y657326D01*
X1370661D02*
X1377325D01*
X1370661Y663990D01*
Y665657D01*
X1372327Y667323D01*
X1375659D01*
X1377325Y665657D01*
X1367328D02*
X1365662Y667323D01*
X1362330D01*
X1360664Y665657D01*
Y658992D01*
X1362330Y657326D01*
X1365662D01*
X1367328Y658992D01*
Y665657D01*
X1224000Y545000D02*
X1214003D01*
Y540002D01*
X1215669Y538335D01*
X1219002D01*
X1220668Y540002D01*
Y545000D01*
Y541668D02*
X1224000Y538335D01*
Y528339D02*
Y535003D01*
X1217336Y528339D01*
X1215669D01*
X1214003Y530005D01*
Y533337D01*
X1215669Y535003D01*
X1224000Y520008D02*
X1214003D01*
X1219002Y525006D01*
Y518342D01*
X1490192Y839952D02*
Y849949D01*
X1485194D01*
X1483528Y848283D01*
Y844950D01*
X1485194Y843284D01*
X1490192D01*
X1486860D02*
X1483528Y839952D01*
X1473531D02*
X1480195D01*
X1473531Y846617D01*
Y848283D01*
X1475197Y849949D01*
X1478529D01*
X1480195Y848283D01*
X1470198D02*
X1468532Y849949D01*
X1465200D01*
X1463534Y848283D01*
Y846617D01*
X1465200Y844950D01*
X1463534Y843284D01*
Y841618D01*
X1465200Y839952D01*
X1468532D01*
X1470198Y841618D01*
Y843284D01*
X1468532Y844950D01*
X1470198Y846617D01*
Y848283D01*
X1468532Y844950D02*
X1465200D01*
X1495000Y773000D02*
X1485003D01*
Y768002D01*
X1486669Y766336D01*
X1490002D01*
X1491668Y768002D01*
Y773000D01*
Y769668D02*
X1495000Y766336D01*
Y756339D02*
Y763003D01*
X1488336Y756339D01*
X1486669D01*
X1485003Y758005D01*
Y761337D01*
X1486669Y763003D01*
X1493334Y753006D02*
X1495000Y751340D01*
Y748008D01*
X1493334Y746342D01*
X1486669D01*
X1485003Y748008D01*
Y751340D01*
X1486669Y753006D01*
X1488336D01*
X1490002Y751340D01*
Y746342D01*
X1450000Y1028000D02*
Y1037997D01*
X1445002D01*
X1443336Y1036331D01*
Y1032998D01*
X1445002Y1031332D01*
X1450000D01*
X1446668D02*
X1443336Y1028000D01*
X1440003Y1036331D02*
X1438337Y1037997D01*
X1435005D01*
X1433339Y1036331D01*
Y1034665D01*
X1435005Y1032998D01*
X1436671D01*
X1435005D01*
X1433339Y1031332D01*
Y1029666D01*
X1435005Y1028000D01*
X1438337D01*
X1440003Y1029666D01*
X1425008Y1028000D02*
Y1037997D01*
X1430006Y1032998D01*
X1423342D01*
X1451000Y984000D02*
Y993997D01*
X1446002D01*
X1444335Y992331D01*
Y988998D01*
X1446002Y987332D01*
X1451000D01*
X1447668D02*
X1444335Y984000D01*
X1441003Y992331D02*
X1439337Y993997D01*
X1436005D01*
X1434339Y992331D01*
Y990665D01*
X1436005Y988998D01*
X1437671D01*
X1436005D01*
X1434339Y987332D01*
Y985666D01*
X1436005Y984000D01*
X1439337D01*
X1441003Y985666D01*
X1424342Y993997D02*
X1431006D01*
Y988998D01*
X1427674Y990665D01*
X1426008D01*
X1424342Y988998D01*
Y985666D01*
X1426008Y984000D01*
X1429340D01*
X1431006Y985666D01*
X1370000Y1217000D02*
Y1226997D01*
X1365002D01*
X1363336Y1225331D01*
Y1221998D01*
X1365002Y1220332D01*
X1370000D01*
X1366668D02*
X1363336Y1217000D01*
X1355005D02*
Y1226997D01*
X1360003Y1221998D01*
X1353339D01*
X1350006Y1217000D02*
X1346674D01*
X1348340D01*
Y1226997D01*
X1350006Y1225331D01*
X1383000Y1161000D02*
X1373003D01*
Y1156002D01*
X1374669Y1154335D01*
X1378002D01*
X1379668Y1156002D01*
Y1161000D01*
Y1157668D02*
X1383000Y1154335D01*
Y1146005D02*
X1373003D01*
X1378002Y1151003D01*
Y1144339D01*
X1383000Y1136008D02*
X1373003D01*
X1378002Y1141006D01*
Y1134342D01*
X1377000Y1564000D02*
Y1573997D01*
X1372002D01*
X1370336Y1572331D01*
Y1568998D01*
X1372002Y1567332D01*
X1377000D01*
X1373668D02*
X1370336Y1564000D01*
X1360339Y1573997D02*
X1367003D01*
Y1568998D01*
X1363671Y1570665D01*
X1362005D01*
X1360339Y1568998D01*
Y1565666D01*
X1362005Y1564000D01*
X1365337D01*
X1367003Y1565666D01*
X1357006Y1572331D02*
X1355340Y1573997D01*
X1352008D01*
X1350342Y1572331D01*
Y1565666D01*
X1352008Y1564000D01*
X1355340D01*
X1357006Y1565666D01*
Y1572331D01*
X1381000Y1506000D02*
X1371003D01*
Y1501002D01*
X1372669Y1499335D01*
X1376002D01*
X1377668Y1501002D01*
Y1506000D01*
Y1502668D02*
X1381000Y1499335D01*
X1371003Y1489339D02*
Y1496003D01*
X1376002D01*
X1374335Y1492671D01*
Y1491005D01*
X1376002Y1489339D01*
X1379334D01*
X1381000Y1491005D01*
Y1494337D01*
X1379334Y1496003D01*
X1381000Y1479342D02*
Y1486006D01*
X1374335Y1479342D01*
X1372669D01*
X1371003Y1481008D01*
Y1484340D01*
X1372669Y1486006D01*
X1017000Y1647000D02*
Y1656997D01*
X1012002D01*
X1010335Y1655331D01*
Y1651998D01*
X1012002Y1650332D01*
X1017000D01*
X1013668D02*
X1010335Y1647000D01*
X1000339Y1656997D02*
X1007003D01*
Y1651998D01*
X1003671Y1653665D01*
X1002005D01*
X1000339Y1651998D01*
Y1648666D01*
X1002005Y1647000D01*
X1005337D01*
X1007003Y1648666D01*
X990342Y1656997D02*
X997006D01*
Y1651998D01*
X993674Y1653665D01*
X992008D01*
X990342Y1651998D01*
Y1648666D01*
X992008Y1647000D01*
X995340D01*
X997006Y1648666D01*
X1118000Y1630000D02*
Y1639997D01*
X1113002D01*
X1111336Y1638331D01*
Y1634998D01*
X1113002Y1633332D01*
X1118000D01*
X1114668D02*
X1111336Y1630000D01*
X1101339Y1639997D02*
X1108003D01*
Y1634998D01*
X1104671Y1636664D01*
X1103005D01*
X1101339Y1634998D01*
Y1631666D01*
X1103005Y1630000D01*
X1106337D01*
X1108003Y1631666D01*
X1091342Y1639997D02*
X1094674Y1638331D01*
X1098006Y1634998D01*
Y1631666D01*
X1096340Y1630000D01*
X1093008D01*
X1091342Y1631666D01*
Y1633332D01*
X1093008Y1634998D01*
X1098006D01*
X1211000Y1273000D02*
Y1282997D01*
X1206002D01*
X1204335Y1281331D01*
Y1277998D01*
X1206002Y1276332D01*
X1211000D01*
X1207668D02*
X1204335Y1273000D01*
X1194339Y1282997D02*
X1201003D01*
Y1277998D01*
X1197671Y1279665D01*
X1196005D01*
X1194339Y1277998D01*
Y1274666D01*
X1196005Y1273000D01*
X1199337D01*
X1201003Y1274666D01*
X1191006Y1282997D02*
X1184342D01*
Y1281331D01*
X1191006Y1274666D01*
Y1273000D01*
X1183000Y1609000D02*
X1173003D01*
Y1604002D01*
X1174669Y1602336D01*
X1178002D01*
X1179668Y1604002D01*
Y1609000D01*
Y1605668D02*
X1183000Y1602336D01*
X1173003Y1592339D02*
Y1599003D01*
X1178002D01*
X1176336Y1595671D01*
Y1594005D01*
X1178002Y1592339D01*
X1181334D01*
X1183000Y1594005D01*
Y1597337D01*
X1181334Y1599003D01*
Y1589006D02*
X1183000Y1587340D01*
Y1584008D01*
X1181334Y1582342D01*
X1174669D01*
X1173003Y1584008D01*
Y1587340D01*
X1174669Y1589006D01*
X1176336D01*
X1178002Y1587340D01*
Y1582342D01*
X1013000Y146000D02*
X1003003D01*
Y141002D01*
X1004669Y139335D01*
X1008002D01*
X1009668Y141002D01*
Y146000D01*
Y142668D02*
X1013000Y139335D01*
X1003003Y136003D02*
Y129339D01*
X1004669D01*
X1011334Y136003D01*
X1013000D01*
X1004669Y126006D02*
X1003003Y124340D01*
Y121008D01*
X1004669Y119342D01*
X1006336D01*
X1008002Y121008D01*
X1009668Y119342D01*
X1011334D01*
X1013000Y121008D01*
Y124340D01*
X1011334Y126006D01*
X1009668D01*
X1008002Y124340D01*
X1006336Y126006D01*
X1004669D01*
X1008002Y124340D02*
Y121008D01*
X811000Y264000D02*
X801003D01*
Y259002D01*
X802669Y257335D01*
X806002D01*
X807668Y259002D01*
Y264000D01*
Y260668D02*
X811000Y257335D01*
X801003Y254003D02*
Y247339D01*
X802669D01*
X809334Y254003D01*
X811000D01*
X809334Y244006D02*
X811000Y242340D01*
Y239008D01*
X809334Y237342D01*
X802669D01*
X801003Y239008D01*
Y242340D01*
X802669Y244006D01*
X804335D01*
X806002Y242340D01*
Y237342D01*
X855000Y297000D02*
X845003D01*
Y292002D01*
X846669Y290336D01*
X850002D01*
X851668Y292002D01*
Y297000D01*
Y293668D02*
X855000Y290336D01*
X846669Y287003D02*
X845003Y285337D01*
Y282005D01*
X846669Y280339D01*
X848335D01*
X850002Y282005D01*
X851668Y280339D01*
X853334D01*
X855000Y282005D01*
Y285337D01*
X853334Y287003D01*
X851668D01*
X850002Y285337D01*
X848335Y287003D01*
X846669D01*
X850002Y285337D02*
Y282005D01*
X846669Y277006D02*
X845003Y275340D01*
Y272008D01*
X846669Y270342D01*
X853334D01*
X855000Y272008D01*
Y275340D01*
X853334Y277006D01*
X846669D01*
X894000Y229000D02*
Y238997D01*
X889002D01*
X887336Y237331D01*
Y233998D01*
X889002Y232332D01*
X894000D01*
X890668D02*
X887336Y229000D01*
X884003Y237331D02*
X882337Y238997D01*
X879005D01*
X877339Y237331D01*
Y235665D01*
X879005Y233998D01*
X877339Y232332D01*
Y230666D01*
X879005Y229000D01*
X882337D01*
X884003Y230666D01*
Y232332D01*
X882337Y233998D01*
X884003Y235665D01*
Y237331D01*
X882337Y233998D02*
X879005D01*
X874006Y229000D02*
X870674D01*
X872340D01*
Y238997D01*
X874006Y237331D01*
X912500Y298000D02*
X902503D01*
Y293002D01*
X904169Y291336D01*
X907502D01*
X909168Y293002D01*
Y298000D01*
Y294668D02*
X912500Y291336D01*
X904169Y288003D02*
X902503Y286337D01*
Y283005D01*
X904169Y281339D01*
X905835D01*
X907502Y283005D01*
X909168Y281339D01*
X910834D01*
X912500Y283005D01*
Y286337D01*
X910834Y288003D01*
X909168D01*
X907502Y286337D01*
X905835Y288003D01*
X904169D01*
X907502Y286337D02*
Y283005D01*
X912500Y271342D02*
Y278006D01*
X905835Y271342D01*
X904169D01*
X902503Y273008D01*
Y276340D01*
X904169Y278006D01*
X1146000Y201000D02*
Y210997D01*
X1141002D01*
X1139335Y209331D01*
Y205998D01*
X1141002Y204332D01*
X1146000D01*
X1142668D02*
X1139335Y201000D01*
X1136003Y209331D02*
X1134337Y210997D01*
X1131005D01*
X1129339Y209331D01*
Y207665D01*
X1131005Y205998D01*
X1129339Y204332D01*
Y202666D01*
X1131005Y201000D01*
X1134337D01*
X1136003Y202666D01*
Y204332D01*
X1134337Y205998D01*
X1136003Y207665D01*
Y209331D01*
X1134337Y205998D02*
X1131005D01*
X1126006Y209331D02*
X1124340Y210997D01*
X1121008D01*
X1119342Y209331D01*
Y207665D01*
X1121008Y205998D01*
X1122674D01*
X1121008D01*
X1119342Y204332D01*
Y202666D01*
X1121008Y201000D01*
X1124340D01*
X1126006Y202666D01*
X1134000Y173000D02*
Y182997D01*
X1129002D01*
X1127336Y181331D01*
Y177998D01*
X1129002Y176332D01*
X1134000D01*
X1130668D02*
X1127336Y173000D01*
X1124003Y181331D02*
X1122337Y182997D01*
X1119005D01*
X1117339Y181331D01*
Y179664D01*
X1119005Y177998D01*
X1117339Y176332D01*
Y174666D01*
X1119005Y173000D01*
X1122337D01*
X1124003Y174666D01*
Y176332D01*
X1122337Y177998D01*
X1124003Y179664D01*
Y181331D01*
X1122337Y177998D02*
X1119005D01*
X1109008Y173000D02*
Y182997D01*
X1114006Y177998D01*
X1107342D01*
X640000Y264997D02*
Y258332D01*
X636668Y255000D01*
X633335Y258332D01*
Y264997D01*
X630003D02*
Y255000D01*
X625005D01*
X623339Y256666D01*
Y263331D01*
X625005Y264997D01*
X630003D01*
X615008Y255000D02*
Y264997D01*
X620006Y259998D01*
X613342D01*
X1234668Y656401D02*
Y649736D01*
X1231336Y646404D01*
X1228003Y649736D01*
Y656401D01*
X1224671D02*
Y646404D01*
X1219673D01*
X1218007Y648070D01*
Y654735D01*
X1219673Y656401D01*
X1224671D01*
X1214674D02*
X1208010D01*
Y654735D01*
X1214674Y648070D01*
Y646404D01*
X1419326Y1225615D02*
Y1218950D01*
X1415994Y1215618D01*
X1412661Y1218950D01*
Y1225615D01*
X1409329D02*
Y1215618D01*
X1404331D01*
X1402665Y1217284D01*
Y1223949D01*
X1404331Y1225615D01*
X1409329D01*
X1399332Y1215618D02*
X1396000D01*
X1397666D01*
Y1225615D01*
X1399332Y1223949D01*
X1384337Y1215618D02*
X1391002D01*
X1384337Y1222282D01*
Y1223949D01*
X1386003Y1225615D01*
X1389336D01*
X1391002Y1223949D01*
X254000Y439997D02*
Y433332D01*
X250668Y430000D01*
X247335Y433332D01*
Y439997D01*
X244003D02*
Y430000D01*
X239005D01*
X237339Y431666D01*
Y438331D01*
X239005Y439997D01*
X244003D01*
X234006Y430000D02*
X230674D01*
X232340D01*
Y439997D01*
X234006Y438331D01*
X225676Y439997D02*
X219011D01*
Y438331D01*
X225676Y431666D01*
Y430000D01*
X1418310Y1565213D02*
Y1558548D01*
X1414978Y1555216D01*
X1411646Y1558548D01*
Y1565213D01*
X1408313D02*
Y1555216D01*
X1403315D01*
X1401649Y1556882D01*
Y1563547D01*
X1403315Y1565213D01*
X1408313D01*
X1398316Y1555216D02*
X1394984D01*
X1396650D01*
Y1565213D01*
X1398316Y1563547D01*
X1389986Y1556882D02*
X1388320Y1555216D01*
X1384987D01*
X1383321Y1556882D01*
Y1563547D01*
X1384987Y1565213D01*
X1388320D01*
X1389986Y1563547D01*
Y1561880D01*
X1388320Y1560214D01*
X1383321D01*
X96000Y442997D02*
Y436332D01*
X92668Y433000D01*
X89335Y436332D01*
Y442997D01*
X86003D02*
Y433000D01*
X81005D01*
X79339Y434666D01*
Y441331D01*
X81005Y442997D01*
X86003D01*
X69342Y433000D02*
X76006D01*
X69342Y439664D01*
Y441331D01*
X71008Y442997D01*
X74340D01*
X76006Y441331D01*
X66010Y433000D02*
X62677D01*
X64344D01*
Y442997D01*
X66010Y441331D01*
X413000Y441997D02*
Y435332D01*
X409668Y432000D01*
X406335Y435332D01*
Y441997D01*
X403003D02*
Y432000D01*
X398005D01*
X396339Y433666D01*
Y440331D01*
X398005Y441997D01*
X403003D01*
X386342Y432000D02*
X393007D01*
X386342Y438665D01*
Y440331D01*
X388008Y441997D01*
X391340D01*
X393007Y440331D01*
X383010D02*
X381343Y441997D01*
X378011D01*
X376345Y440331D01*
Y438665D01*
X378011Y436998D01*
X379677D01*
X378011D01*
X376345Y435332D01*
Y433666D01*
X378011Y432000D01*
X381343D01*
X383010Y433666D01*
X333003Y613000D02*
X339668D01*
X343000Y609668D01*
X339668Y606335D01*
X333003D01*
Y603003D02*
X343000D01*
Y598005D01*
X341334Y596339D01*
X334669D01*
X333003Y598005D01*
Y603003D01*
X343000Y586342D02*
Y593006D01*
X336335Y586342D01*
X334669D01*
X333003Y588008D01*
Y591340D01*
X334669Y593006D01*
X333003Y576345D02*
Y583010D01*
X338002D01*
X336335Y579677D01*
Y578011D01*
X338002Y576345D01*
X341334D01*
X343000Y578011D01*
Y581343D01*
X341334Y583010D01*
X679932Y533211D02*
Y526546D01*
X676600Y523214D01*
X673268Y526546D01*
Y533211D01*
X669935D02*
X663271D01*
X666603D01*
Y523214D01*
X659938Y531545D02*
X658272Y533211D01*
X654940D01*
X653274Y531545D01*
Y529879D01*
X654940Y528212D01*
X656606D01*
X654940D01*
X653274Y526546D01*
Y524880D01*
X654940Y523214D01*
X658272D01*
X659938Y524880D01*
X1052000Y1636997D02*
Y1630332D01*
X1048668Y1627000D01*
X1045335Y1630332D01*
Y1636997D01*
X1042003D02*
X1035339D01*
X1038671D01*
Y1627000D01*
X1032006Y1628666D02*
X1030340Y1627000D01*
X1027008D01*
X1025342Y1628666D01*
Y1635331D01*
X1027008Y1636997D01*
X1030340D01*
X1032006Y1635331D01*
Y1633665D01*
X1030340Y1631998D01*
X1025342D01*
X1153000Y1626997D02*
Y1620332D01*
X1149668Y1617000D01*
X1146336Y1620332D01*
Y1626997D01*
X1143003D02*
X1136339D01*
X1139671D01*
Y1617000D01*
X1133006D02*
X1129674D01*
X1131340D01*
Y1626997D01*
X1133006Y1625331D01*
X1118011Y1617000D02*
X1124676D01*
X1118011Y1623665D01*
Y1625331D01*
X1119677Y1626997D01*
X1123010D01*
X1124676Y1625331D01*
X428250Y416748D02*
X421586D01*
X424918Y420081D02*
Y413416D01*
X113250Y419248D02*
X106586D01*
X109918Y422581D02*
Y415916D01*
X1409748Y1489750D02*
Y1496414D01*
X1413081Y1493082D02*
X1406416D01*
X268250Y416748D02*
X261586D01*
X264918Y420081D02*
Y413416D01*
X1410748Y1150250D02*
Y1156915D01*
X1414081Y1153582D02*
X1407416D01*
X1223998Y632250D02*
Y638914D01*
X1227331Y635582D02*
X1220666D01*
X592750Y282252D02*
X599414D01*
X596082Y278919D02*
Y285584D01*
X95828Y1548574D02*
Y1541909D01*
X92495Y1545242D02*
X99160D01*
X360748Y561750D02*
Y568414D01*
X364081Y565082D02*
X357416D01*
X93328Y1413574D02*
Y1406909D01*
X89995Y1410242D02*
X96660D01*
X675324Y1606172D02*
X668660D01*
X671992Y1609505D02*
Y1602840D01*
M02*
