M48
;Layer_Color=9474304
;FILE_FORMAT=4:4
METRIC,LZ
;TYPE=PLATED
T1F00S00C0.5000
T2F00S00C0.7000
T3F00S00C0.8000
T4F00S00C1.0000
T5F00S00C1.1000
T6F00S00C1.3000
T7F00S00C1.5000
T8F00S00C1.8000
T9F00S00C4.0000
%
T01
X00839Y00009
X0085Y00028
X00875Y00019
X00839Y00086
X00895Y00028
X00915Y00038
X00935Y00045
X0103404
X01065Y00037
X01073Y00008
X01085Y00019
X01105Y00028
X01125Y00037
X01145Y00045
X01306Y00226
X01362997Y00221
X01362Y00239
X01332Y00264
X01329993Y00348
X01329Y0036
Y00399
X01339Y00409
X01352Y00402
X01378Y00428
X01380997Y00446999
X01373Y00455
X0139Y00464
X01424386Y00489
X0132Y00484
X01309Y00474
X012885Y004635
X01299Y00453
X01289Y00405
X01378Y0035
X0139Y00357
X01408Y00336
X01398Y00323
X01452Y00346
X01467Y00357
Y00392
X01438Y00263
Y00241
X01266998Y00236
X01257998Y00251999
X0127Y00261
X01269Y00278
Y00339
X01241Y00381
X01232Y00394
X01224Y00409
Y00423
Y00438
X0122Y00452
X0123Y00464
X0124Y00478
X0123Y00491
X01187Y00467
X01179Y00459
X0116Y00441
X011495Y004505
X01168Y00414
X01155Y00361
X01167Y00348
X01177Y00339
X01197Y00252
X01206Y00236
X0121496Y00244
X01223Y00261
X01233Y00219
X01244Y00202
X01188Y00227
X0111Y00206
X01065Y00205
X01043Y00217
X01032Y0023
X01055Y00247
X01004Y00251
X00999Y0024
X00985Y00229
X00989Y00197
X00973
X00957
X00946Y0022
X00935Y00229
X00901Y00228
X00911Y00211
X00904Y00171
X00915Y00143
Y00122
X00895Y00133
X00935Y00111
X00946Y00102
X00974998Y00143
X01021Y00155
X01034Y00171
X01043Y00143
X01055Y00155
X010795Y001655
X01104Y00132
X01125Y00122
X01145Y00111
X01165Y00102
X01145Y00141
X01144Y00155
X01009Y00183
X00928Y00279
X00916Y00354
X00891Y00386
X0091246Y00423
X00930998Y00413999
X0094Y00403
X0095275Y0038575
X0096545Y0038655
X0097445Y0040345
X00965Y00424
X00975Y00434
X00985Y00444
X00951Y00453
X00931
X0093Y00464
X00921Y0047804
X0094Y0049
X00894
X00894998Y00452999
X00992Y00491
X01029Y00464
X01064Y00467
X01073Y00459
X01079998Y00449999
X01088998Y00440999
X01084Y00423
X01098Y00413
X01015Y00412
X01014998Y00422999
X0100355Y0038345
X01029Y00352
X01096Y00275
X00879998Y00288999
X00864Y00295
X00814Y00279
X00829Y00236
X00855998Y00236
X00865Y00228
X00878Y0022
X00883Y00195
X00875Y00152
X00863
X0085
X00811Y00355
X00814Y00418
X00826
X00838
X00848Y00406
X0089Y00414
X00882Y00433
X00864Y00443
X0069Y00429
X0067Y00454
X00635Y00429
X00605Y00454
X00091Y00568
Y00628
X00094Y00778
X0013Y00791
X00125Y00826
X00115Y00816
X00101Y00828
X00127Y00735
X00105Y00642
X001585Y006235
Y00604
Y00586
X00158Y00568
X00181Y00615
X00221Y00604
Y00642
X00255Y00628
X00361Y00641
X00359Y00535
X00337Y00518
X00433Y00691
X00452Y00704
X00433Y00755
X00452Y00776
X00505Y00839
X00499Y00869
X00547Y00704
X00536Y00691
X0052Y00572
X0050671Y00583
X00536Y00522
X00547Y0051
X00722Y00535
X00734Y00554
X00848Y00562
X00867Y00548
X00858Y00536
X00884Y00499
X00856Y00621
X00912
X00904Y00632
X00911998Y00641999
X00942Y00605
X00963Y00622
X01018Y00652
X01077998Y00710999
X01131Y00696
X01141Y0068
X01168
Y00696
X01161998Y00650999
X01194Y00637
X01207Y00612
X01189Y00574
X01173Y00575
X01149998Y00559999
X01154Y00548
X01131
X01141Y00535
X01109Y00561
X011Y00572
X01088Y00583
X01119Y00633
X0112854Y0074346
X01142Y00828
X01217Y00808
X01206Y00796
X01244Y00808
X0126Y007965
X0128Y00785
X01271Y0082
X01276Y00851
X01252998Y00862998
X01241998Y00860998
X0125Y00744
X01211Y00709
X0124Y00656
X01269Y00669
X01276Y00626
X01286Y00602
X01276Y00574
X012215Y005655
X01223Y00554
X01231Y00543
X01206Y00534
X0122Y005
X01243Y00495
X00984Y005
X00965Y00499
X00963Y00742
X01009Y00818
X00898Y00829
X01297Y00796
X0135Y00773
X01351Y00755
X013765Y007965
X01401Y00773
X01418Y0081
X01398Y00642
Y00612
X01393997Y00598999
X01378Y00592
Y00581
X0136296Y0056904
X0134467
X0134271Y00584764
X01347901Y00595903
X01306Y00602
X01297Y00594
X01306Y00582
X01294Y00555
X01299Y00522
X0132
X01309Y0051
X01289
X01329Y00495
X0138104Y00494
X01371Y00512
X01411Y00534
X01397997Y00563999
X01432Y00571
Y00601
X01452Y00503
X01465Y00512
X0134Y00555
X01306Y00632
X01308Y00669
X013135Y0068
X01297Y00718
X01415Y00997
X01416Y01016
X01466Y01116
X01481Y0113
X01426Y01167
X01426003Y01240003
X01453Y01253
X01491003Y01240003
X01395Y01215
X013545Y011815
X01314Y01204
X01302Y01208
X01313Y0123
Y01241
X01319Y01252
X01329Y0113
X01354Y01116
X011925Y011155
X01178Y0113
X0116Y01198
X01144Y01257
X01129Y01267
X0111Y01252
X011Y0123
X01088Y0124071
X01068998Y01229998
X01050998Y01242998
X01059998Y01200998
Y01187998
X01053Y01175
X01043Y01162
X01035Y01149
X01027Y01136
X01018Y01122
X01009Y01109
X01Y01095
X00992Y01082
X00984Y01071
X00975Y01057
X00951Y01043
X009105Y01031
Y01018
X00898Y00906
X00963Y00911
X00964Y00923
X01019Y00897
X0101775Y0096275
X01217998Y00954998
X01227Y00933
X01261Y00926
Y00968
X01206Y00985
X01217Y01024
X01206Y0104
Y00896
X0123Y0121
X01238Y01252
X01078Y01284
X00908Y01271
Y01257
X00964Y01214
X00755Y01216
Y0123
X00756Y01255
X00744Y01261
X00724Y01262
X00662999Y01260997
X00640001Y01260001
Y01240001
Y01220001
X0062
X0061Y01223
X0062Y01200001
Y01180001
Y01160001
Y01140001
X00605Y01136
X0062Y01120001
X00640001
Y01140001
Y01160001
Y01180001
Y01200001
X00660001
Y01180001
Y01160001
Y01140001
Y01120001
X00677Y01111
X00680001Y01140001
Y01160001
Y01180001
Y01200001
X00700001
Y01180001
X00717Y01181
X00700001Y01160001
Y01140001
Y01120001
X00717Y01133
X00716Y01101
X00755Y01095
Y01115
X00755999Y01140998
X00756Y01152
Y01164
X00754998Y01189998
X00755Y01201
X00700001Y01220001
X00674Y01223
X00660001Y01220001
X00605Y01194
X005775Y01185
X00578Y01172
Y01157
Y01143
X00578Y0112712
X00567Y0112
X00566999Y01092998
X00566Y01078
X00616Y01088
X00629999Y01072998
X00643Y01073
X00659999Y01072998
X00670999
X00685Y01083
X00698999Y01072998
X00734Y01073
X00778Y01064
X0076Y01044
X00775Y00999
X00731Y00987
X007175
X00717Y00947
X0073
X00745
X00745Y00915
X0073Y00912
X00703Y00947
X00691
X00678
X00665
X00651Y00948
X00638
X00623
X00593Y0092
X00499Y00915
X00824Y00931
X00804Y01079
X00799Y01274
X00615Y01261
X00602Y01251
X00585999Y01260997
X00573Y01261
X00574Y01235
X00567Y01213
Y01201
X00518Y01266
X00406Y01285
X00375Y01182
X00385Y01168
X00395Y01155
X00406Y01142
X00407Y01122
X0042Y0106
X00418Y01047
X00406Y01004
X00418Y00976
X00395Y00974
X00385Y00984
X00375Y00993
X00271Y01027
X0028Y01048
X00271Y01074
X0028Y01101
X00244Y01057
X00206Y01037
X00204Y01079
X00178Y0111
X00156Y01112
X00134Y01088
X00125Y01097
X00113Y01102
Y0114
X00178Y01138
X00177Y01171
X00163Y01179
X00157Y01209
X00177Y01223
X00163Y0125
X00113Y01228
X00218Y01225
X0023Y01195
X00244Y01209
X00271Y0121
X0028Y01195
X003Y01179
X0031029Y01171
X00218Y01158
X00261Y01236
X00257Y01249
X00259Y01285
X00113Y01011
X00104Y01019
X00101Y00925
X00115Y00931
X0009Y00906
X00045Y01195
X00044Y01209
X00054Y01227
X00075
X00134Y01363
X00138Y01375
X00126Y01379
X00159Y01391
X00173Y01404
X00193Y01413997
X00203Y0142
X00205Y01433997
X00196Y01458
X00206Y01468
X00173Y01458
X00156Y01479
X00151Y01492
X00136Y01493
X00181
X00187Y0155
X00226Y01534
X00248Y0155
Y01567
X00247Y01585
X00241Y01614
X00261
X0028Y016
X00293Y01583
X00294Y01625
X0031Y01614
X00335Y01644
X0037775Y01614
X00406
X00427Y01626
X00457
X0044875Y0161475
X00436Y01581
X00435Y01541
Y01514
X00458Y01524
X00481Y01554
X00405Y01553
X00366Y01547
X00364Y0149
X0035Y01501
X00335Y01449
X00322Y01439
X00289Y01431
X0028Y01415
X0027Y01493
X00259Y01504
X00248Y01515
X00278Y01542
X00218Y01625
X00202Y01614
X00133Y01442997
X00138Y01424997
X00215Y01366
X00448Y01414
X00458Y01423
X00559
X00574Y01422
X00560996Y01406
X00548Y01397
Y01358
X00561
X00574
X00604Y01362
X00617
X0063
X00643
Y01375
X0063
X00617
X00604
X00602Y01397
X00599Y01326
Y0129
X0062Y01298
X00674Y0129
Y01327
X00676Y0135
X00671Y01362
Y01375
X00657
Y01362
X00696Y01361
X0072104Y0137096
X00735Y01379
X0073525Y01336
X0074825
X00721
X00707
Y01422
X00696Y01414
X00683999Y01438997
X00673Y01449
X00633Y01463
X00617Y01477
X00557
X00543Y01463
X00574Y01523
X00602Y01536
X00645Y01539
X00648Y01555
X00616Y01574
X00556Y01561
X00516Y01531
X00695Y01545
X0071Y01516
Y0149
X00776Y01463
X00811Y01442
X00839
X0084Y0142
X00834Y01391
X00804Y01404
X00796Y0142
X00748Y01430957
X00809Y01493
X00827
X00836Y01502
Y01525
X00847Y01538
X00844Y01555
Y01568
X00813
X00801Y01551
X00781Y0155
X0077Y01544
X0078075Y01622
X008
X00868251Y01607749
X0072Y01603
X00888Y01471
X008875Y013795
X00939Y01383
X00937Y01406
X00936Y01431
X00967Y01414
Y01458
X0097Y01471
X00977Y01449
X00988998Y01438997
X01026Y01431
X01041Y01413
X01052Y01416
X01075Y01427
Y01379
X01052Y01377
X010405Y013695
X01024Y01377
X01033Y01312
X01043Y01297
X01076Y01346
X01105Y01373
X01143Y01358
X01142Y01336
X0112925Y0132775
X0119Y01343
X01208Y01353
X012Y01375
X01177
X01143Y01393
X01144Y01434
X0113Y01449
X01118Y0144
X01097Y01458
X01089Y0147
X0107Y014715
X0108Y0149
X01071Y015
X01058998Y01512497
X0107Y01532
X0108Y01543
X01071Y01555
X0106Y01589
X01027675Y0157954
X01028Y01561
X0102996Y01547
X0102Y015525
X01018998Y01535997
X0103Y01523
Y014985
X01019Y01498
X0103Y014855
X01016Y0147075
X0104125Y01458
X01006Y0151146
X00987Y0151
X00981Y01529
X00979Y015525
X00954Y01525
X00934
X00919Y0154722
X00932Y01604
X00954
X00988Y01605
X00989Y0162
Y01664
X01107
X01132Y01589
X0116Y01605
X0122
X012205Y015855
X01207Y01562
X01192Y0157
X01178Y01562
X01176032Y01548
X01194Y01538
X01205998Y01522997
X01225Y01505
X012345Y01514
X01238997Y01487997
X01237Y0147
X0125Y0146
X01259Y01449
X01260997Y01435997
X01265Y01422
X01277Y01414
X01241Y01436
X01234Y01392
X01201Y01408
X01207Y01464
X01194Y01466
X01179Y01465
X01185Y01476
X01186Y01493989
X01206Y0148
X01143Y01495
X0113Y01515
X01118Y01505739
X01105Y01483
X01267Y01523
X01258Y01537
X01245Y01552
X0127Y01575
X01253Y0136
X01277Y01332
X01253Y01294
X01206Y0132
X00942Y01342
X00896Y01497
X01319Y0147675
X01353Y01514
X01392Y0154
X01377Y01586
X01413
X01484
X01465Y01532
X0148Y01498
X0140775Y01477
X01306Y01547
X01317Y01564
X01315Y01587
Y01647967
X01349Y01361
Y01321
X0148Y01332
X01467Y01348
X0105875Y0168875
X00673Y01685
T02
X00472Y0024
X00484Y0073
X00468999Y00792998
X00469Y00809
X00452Y00822
X00146Y00840998
X0016Y00856
X00161Y00691
X00146Y00675
X00202Y0067411
X00221Y00658
Y00691
Y00547
X00202Y00546
X0056Y00535
X00578Y00554
X00653Y00707
X00636Y00743
X00646Y00762
X00645Y00808
X00728Y0076396
X0073078Y0074278
X0072922Y0070722
X00791Y00886
X00811Y0087096
X00578Y00878
X0056Y00862
X01144Y00857
X01159Y0084
X01176Y00778
X01193Y00765
X00811Y00999
X00791Y01026
X00483Y00945
Y00909
X00435
X0045Y0093
X00435Y00946
X0044904Y00962
X00245
Y00931
X0023Y00946
X00027Y01339
X00013Y01372
X00027Y01467
X00013Y015
X00034Y01545495
X00244Y01478
X0023Y01463
X00539753Y01665753
X00645Y01668
T03
X00875Y000605
Y000855
X00895
X00915
X00935
X00955
X00975
Y000605
X00955
X00935
X00915
X00895
X01085
X01105
X01125
X01145
X01165
X01185
Y000855
X01165
X01145
X01125
X01105
X01085
X014525Y00151174
Y00171172
Y00191171
Y00211173
Y00231171
Y0025125
Y00271062
Y00291128
Y0037175
Y0039175
Y0041175
Y0043175
Y0045175
Y0047175
X014275
Y0045175
Y0043175
Y0041175
Y0039175
Y0037175
X00052Y00876502
X01452Y00845829
Y00825751
Y00805752
Y0078575
Y00765752
Y00745753
X0145Y00641999
Y00622001
Y00601998
Y00582
Y00562002
X01465Y0097225
Y00992253
Y01012251
Y01032249
X014515Y01271002
X0027Y01158
X00194
X00052Y00956499
Y00936501
Y00916503
Y008965
Y01333999
Y01354002
Y01374
Y01393998
X000545Y01463999
Y01484002
Y01504
Y01523998
X00200672Y016475
X00220751
X00240749
X00260752
X0028075
X00300748
X00365673
X00385752
X0040575
X00425752
X00445751
X00465749
X00590747
X0061075
X00630748
X00650747
X0072075
X00740748
X00760751
X00780749
X00800747
X00868251
X00888249
X00908252
X0092825
X00948248
X01038752Y01648
X0105875
X01078748
X01195722Y01647967
X01215724
X01235723
X01255721
X014515Y01435998
Y01416
Y01396002
X014515Y01310998
Y01291
T04
X0013Y000446
Y000954
X00505Y000546
Y001054
X000695Y00721
X000245
Y00786
X000695Y00786
X00082Y010515
Y010769
Y011023
Y011277
X000566
Y011531
X00082
X000566Y011023
Y010769
Y010515
T05
X00535Y007242
Y007496
Y00775
T06
X001175Y0019
Y0024
Y0029
X002
Y0024
Y0019
X00275
Y0024
Y0029
X003575
Y0024
Y0019
X004325
Y0024
Y0029
Y0044
X003575
X00275
X002
X001175
X000425
Y0029
Y0024
Y0019
T07
X00995Y000732
X01205
X014398Y0049175
X0073Y0019
X00522
X0065Y0064
X0073
X00758Y00721
X008088
T08
X0019Y0006
X0024
X0029
X0035
X004
X0045
X0059
X0064
X0074
T09
X0005Y0005
X0069Y0006
X0145Y0005
X0025Y0075
X0005Y0165
X0145
M30
