G04 Layer_Physical_Order=1*
G04 Layer_Color=255*
%FSLAX44Y44*%
%MOMM*%
G71*
G01*
G75*
%ADD10R,1.5000X1.2000*%
%ADD11R,1.0000X0.6000*%
%ADD12R,1.4500X1.9000*%
%ADD13R,0.8000X1.0500*%
%ADD14R,0.6000X1.0000*%
%ADD15R,1.1938X1.4986*%
%ADD16R,1.4986X1.1938*%
%ADD17R,2.0000X1.7000*%
%ADD18R,1.1000X0.7000*%
%ADD19R,1.1000X0.4500*%
%ADD20R,1.1000X1.8500*%
%ADD21R,1.0500X0.8000*%
%ADD22R,1.5000X0.9000*%
%ADD23R,1.8500X1.1000*%
%ADD24R,0.9000X1.5000*%
%ADD25R,2.1844X2.5970*%
%ADD26R,1.4700X1.0900*%
%ADD27R,2.5970X2.1844*%
%ADD28R,1.0900X1.4700*%
%ADD29R,0.9000X0.4000*%
%ADD30R,1.9000X1.4500*%
%ADD31O,0.9000X3.1000*%
%ADD32R,0.9000X3.1000*%
%ADD33O,1.6000X0.4500*%
%ADD34R,1.6000X0.4500*%
%ADD35R,1.6002X0.3810*%
%ADD36O,1.6002X0.3810*%
%ADD37O,0.6500X2.1000*%
%ADD38R,0.6500X2.1000*%
%ADD39O,2.1000X0.6500*%
%ADD40R,2.1000X0.6500*%
%ADD41R,0.7700X0.3000*%
%ADD42O,2.4000X0.3500*%
%ADD43R,2.4000X0.3500*%
%ADD44R,3.3000X2.7000*%
%ADD45R,1.0000X2.7000*%
%ADD46R,1.1000X1.0000*%
%ADD47R,1.2000X1.5000*%
%ADD48R,1.0000X1.1000*%
%ADD49R,1.7000X2.4000*%
%ADD50R,3.2000X1.6000*%
%ADD51R,1.5000X0.4000*%
%ADD52R,1.5000X0.2800*%
%ADD53R,0.4000X1.5000*%
%ADD54R,0.2800X1.5000*%
%ADD55R,0.4500X1.3500*%
%ADD56O,0.4500X1.3500*%
%ADD57C,1.0000*%
%ADD58C,0.5000*%
%ADD59C,0.3000*%
%ADD60C,0.4000*%
%ADD61C,0.2800*%
%ADD62C,1.2700*%
%ADD63C,0.7500*%
%ADD64C,1.2192*%
%ADD65R,1.2192X1.2192*%
%ADD66R,1.2192X1.2192*%
%ADD67C,2.5000*%
%ADD68R,2.5000X2.5000*%
%ADD69R,1.6500X1.6500*%
%ADD70C,1.6500*%
%ADD71C,2.4130*%
%ADD72R,1.4000X1.4000*%
%ADD73C,1.4000*%
%ADD74C,1.7000*%
%ADD75C,2.4000*%
%ADD76O,2.4000X2.5000*%
%ADD77C,3.0000*%
%ADD78R,3.0000X3.0000*%
%ADD79C,1.8000*%
%ADD80R,1.8000X1.8000*%
%ADD81R,1.3208X1.3208*%
%ADD82C,1.3208*%
%ADD83C,6.8000*%
%ADD84R,2.3000X3.5000*%
G04:AMPARAMS|DCode=85|XSize=2.3mm|YSize=3.5mm|CornerRadius=0.575mm|HoleSize=0mm|Usage=FLASHONLY|Rotation=180.000|XOffset=0mm|YOffset=0mm|HoleType=Round|Shape=RoundedRectangle|*
%AMROUNDEDRECTD85*
21,1,2.3000,2.3500,0,0,180.0*
21,1,1.1500,3.5000,0,0,180.0*
1,1,1.1500,-0.5750,1.1750*
1,1,1.1500,0.5750,1.1750*
1,1,1.1500,0.5750,-1.1750*
1,1,1.1500,-0.5750,-1.1750*
%
%ADD85ROUNDEDRECTD85*%
%ADD86R,1.4000X1.4000*%
%ADD87C,0.8000*%
%ADD88C,1.3000*%
%ADD89C,0.9000*%
G36*
X715000Y753000D02*
X826000D01*
Y690000D01*
Y682000D01*
X741000D01*
Y732000D01*
X715000D01*
X715000Y729898D01*
X714102Y729000D01*
X691000D01*
Y756000D01*
X715000D01*
Y753000D01*
D02*
G37*
G36*
X1500000Y914000D02*
X1351000D01*
Y1081000D01*
X1500000D01*
Y914000D01*
D02*
G37*
G36*
X604983Y1290336D02*
Y1286040D01*
X600060D01*
Y1276901D01*
X599881Y1276000D01*
X599881Y1276000D01*
Y1267150D01*
X600060Y1266250D01*
Y1265960D01*
X600118D01*
X600195Y1265574D01*
X601087Y1264238D01*
X604198Y1261127D01*
X605075Y1260541D01*
X607529Y1258087D01*
X608865Y1257194D01*
X609823Y1257004D01*
X610336Y1256336D01*
X611702Y1255287D01*
X613293Y1254628D01*
X615000Y1254404D01*
X616707Y1254628D01*
X618298Y1255287D01*
X619664Y1256336D01*
X620713Y1257702D01*
X621372Y1259293D01*
X621596Y1261000D01*
X621372Y1262707D01*
X620713Y1264298D01*
X620412Y1264690D01*
X621038Y1265960D01*
X656962D01*
X657589Y1264690D01*
X657286Y1264296D01*
X656627Y1262705D01*
X656402Y1260997D01*
X656627Y1259290D01*
X657286Y1257699D01*
X658334Y1256333D01*
X659700Y1255285D01*
X661291Y1254626D01*
X662999Y1254401D01*
X664706Y1254626D01*
X666297Y1255285D01*
X667663Y1256333D01*
X668081Y1256878D01*
X669000D01*
X670576Y1257192D01*
X671913Y1258085D01*
X672806Y1259421D01*
X673119Y1260997D01*
Y1276000D01*
X672940Y1276901D01*
Y1286040D01*
X668017D01*
Y1291336D01*
X670604Y1293923D01*
X686000D01*
Y1286040D01*
X675060D01*
Y1265960D01*
X686000D01*
Y1265000D01*
X717021D01*
X717726Y1263944D01*
X717628Y1263707D01*
X717404Y1262000D01*
X717628Y1260293D01*
X718287Y1258702D01*
X719336Y1257336D01*
X720702Y1256287D01*
X722293Y1255628D01*
X724000Y1255404D01*
X725707Y1255628D01*
X727298Y1256287D01*
X728664Y1257336D01*
X729713Y1258702D01*
X730372Y1260293D01*
X730596Y1262000D01*
X730372Y1263707D01*
X730274Y1263944D01*
X730979Y1265000D01*
X759000D01*
Y1261979D01*
X757944Y1261274D01*
X757707Y1261372D01*
X756000Y1261596D01*
X754293Y1261372D01*
X752702Y1260713D01*
X751336Y1259664D01*
X750287Y1258298D01*
X749628Y1256707D01*
X749404Y1255000D01*
X749628Y1253293D01*
X750287Y1251702D01*
X751336Y1250336D01*
X752702Y1249287D01*
X754293Y1248628D01*
X756000Y1248404D01*
X757707Y1248628D01*
X757944Y1248726D01*
X759000Y1248021D01*
Y1236670D01*
X757730Y1235948D01*
X756707Y1236372D01*
X755000Y1236596D01*
X753293Y1236372D01*
X751702Y1235713D01*
X750336Y1234664D01*
X749287Y1233298D01*
X748628Y1231707D01*
X748404Y1230000D01*
X748628Y1228293D01*
X749287Y1226702D01*
X750336Y1225336D01*
X751702Y1224287D01*
X753293Y1223628D01*
Y1222372D01*
X751702Y1221713D01*
X750336Y1220664D01*
X749287Y1219298D01*
X748628Y1217707D01*
X748404Y1216000D01*
X748628Y1214293D01*
X749287Y1212702D01*
X750336Y1211336D01*
X751702Y1210287D01*
X753293Y1209628D01*
X755000Y1209404D01*
X755809Y1209510D01*
X756660Y1208659D01*
X756067Y1207456D01*
X755000Y1207596D01*
X753293Y1207372D01*
X751702Y1206713D01*
X750336Y1205664D01*
X749287Y1204298D01*
X748628Y1202707D01*
X748404Y1201000D01*
X748628Y1199293D01*
X749287Y1197702D01*
X750336Y1196336D01*
X750598Y1196134D01*
Y1194864D01*
X750334Y1194662D01*
X749286Y1193296D01*
X748627Y1191705D01*
X748402Y1189998D01*
X748627Y1188290D01*
X749286Y1186699D01*
X750334Y1185333D01*
X751700Y1184285D01*
X753291Y1183626D01*
X754998Y1183401D01*
X756706Y1183626D01*
X757730Y1184050D01*
X759000Y1183329D01*
Y1170979D01*
X757944Y1170274D01*
X757707Y1170372D01*
X756000Y1170596D01*
X754293Y1170372D01*
X752702Y1169713D01*
X751336Y1168664D01*
X750287Y1167298D01*
X749628Y1165707D01*
X749404Y1164000D01*
X749628Y1162293D01*
X750287Y1160702D01*
X751336Y1159336D01*
X752084Y1158762D01*
Y1157238D01*
X751336Y1156664D01*
X750287Y1155298D01*
X749628Y1153707D01*
X749404Y1152000D01*
X749628Y1150293D01*
X750287Y1148702D01*
X751336Y1147336D01*
X751598Y1147134D01*
Y1145864D01*
X751334Y1145662D01*
X750286Y1144296D01*
X749627Y1142705D01*
X749402Y1140998D01*
X749627Y1139290D01*
X750286Y1137700D01*
X751334Y1136333D01*
X752700Y1135285D01*
X754291Y1134626D01*
X755999Y1134401D01*
X757706Y1134626D01*
X757944Y1134725D01*
X759000Y1134019D01*
Y1121670D01*
X757730Y1120948D01*
X756707Y1121372D01*
X755000Y1121596D01*
X753293Y1121372D01*
X751702Y1120713D01*
X750336Y1119664D01*
X749287Y1118298D01*
X748628Y1116707D01*
X748404Y1115000D01*
X748628Y1113293D01*
X749287Y1111702D01*
X750336Y1110336D01*
X750983Y1109839D01*
Y1106000D01*
X751289Y1104463D01*
X752159Y1103159D01*
X752784Y1102535D01*
X752486Y1101037D01*
X751702Y1100713D01*
X750336Y1099664D01*
X749287Y1098298D01*
X748628Y1096707D01*
X748404Y1095000D01*
X748628Y1093293D01*
X749287Y1091702D01*
X750336Y1090336D01*
X751702Y1089287D01*
X753293Y1088628D01*
X755000Y1088404D01*
X756707Y1088628D01*
X757730Y1089052D01*
X759000Y1088330D01*
Y1070000D01*
X743017D01*
X742711Y1071537D01*
X741841Y1072840D01*
X740432Y1074249D01*
X740372Y1074707D01*
X739713Y1076298D01*
X738664Y1077664D01*
X737298Y1078713D01*
X735707Y1079372D01*
X734000Y1079596D01*
X732293Y1079372D01*
X730702Y1078713D01*
X729336Y1077664D01*
X728287Y1076298D01*
X727628Y1074707D01*
X727404Y1073000D01*
X727628Y1071293D01*
X727726Y1071056D01*
X727021Y1070000D01*
X705979D01*
X705273Y1071056D01*
X705370Y1071291D01*
X705595Y1072998D01*
X705370Y1074705D01*
X704711Y1076296D01*
X703663Y1077662D01*
X702297Y1078710D01*
X700706Y1079370D01*
X698999Y1079594D01*
X697291Y1079370D01*
X695700Y1078710D01*
X694334Y1077662D01*
X693286Y1076296D01*
X692627Y1074705D01*
X692567Y1074248D01*
X691160Y1072841D01*
X690289Y1071537D01*
X690210Y1071144D01*
X690010Y1071114D01*
X688969Y1072244D01*
X689119Y1073000D01*
X689119Y1073000D01*
Y1077917D01*
X689664Y1078336D01*
X690713Y1079702D01*
X691372Y1081293D01*
X691596Y1083000D01*
X691372Y1084707D01*
X690713Y1086298D01*
X689664Y1087664D01*
X688298Y1088713D01*
X686707Y1089372D01*
X685000Y1089596D01*
X683293Y1089372D01*
X681702Y1088713D01*
X680336Y1087664D01*
X679287Y1086298D01*
X678628Y1084707D01*
X678404Y1083000D01*
X678628Y1081293D01*
X679287Y1079702D01*
X680336Y1078336D01*
X680881Y1077917D01*
Y1074604D01*
X680194Y1073576D01*
X679881Y1072000D01*
Y1070000D01*
X677979D01*
X677273Y1071056D01*
X677370Y1071291D01*
X677595Y1072998D01*
X677370Y1074705D01*
X676711Y1076296D01*
X675663Y1077662D01*
X674297Y1078710D01*
X672706Y1079370D01*
X670999Y1079594D01*
X669291Y1079370D01*
X667700Y1078710D01*
X666334Y1077662D01*
X666134Y1077401D01*
X664864D01*
X664663Y1077662D01*
X663297Y1078710D01*
X661706Y1079370D01*
X659999Y1079594D01*
X658291Y1079370D01*
X656701Y1078710D01*
X655334Y1077662D01*
X654286Y1076296D01*
X653627Y1074705D01*
X653517Y1073872D01*
X652270Y1072864D01*
X652148Y1072850D01*
X651808Y1072917D01*
X649764D01*
X649584Y1073098D01*
X649372Y1074707D01*
X648713Y1076298D01*
X647664Y1077664D01*
X646298Y1078713D01*
X644707Y1079372D01*
X643000Y1079596D01*
X641293Y1079372D01*
X639702Y1078713D01*
X638336Y1077664D01*
X637287Y1076298D01*
X637186Y1076054D01*
X635812D01*
X635711Y1076296D01*
X634663Y1077662D01*
X633297Y1078710D01*
X631706Y1079370D01*
X629999Y1079594D01*
X628292Y1079370D01*
X626701Y1078710D01*
X625334Y1077662D01*
X624286Y1076296D01*
X623627Y1074705D01*
X623402Y1072998D01*
X623627Y1071291D01*
X623724Y1071056D01*
X623019Y1070000D01*
X565453D01*
X565380Y1070204D01*
X565664Y1070754D01*
X566283Y1071441D01*
X567707Y1071628D01*
X569298Y1072287D01*
X570664Y1073336D01*
X571713Y1074702D01*
X572372Y1076293D01*
X572596Y1078000D01*
X572372Y1079707D01*
X571713Y1081298D01*
X570664Y1082664D01*
X569298Y1083713D01*
X568353Y1084104D01*
X567997Y1085545D01*
X569342Y1086889D01*
X570297Y1087285D01*
X571663Y1088333D01*
X572712Y1089700D01*
X573371Y1091291D01*
X573595Y1092998D01*
X573371Y1094705D01*
X572712Y1096296D01*
X571663Y1097662D01*
X570297Y1098710D01*
X568706Y1099370D01*
X566999Y1099594D01*
X565292Y1099370D01*
X565056Y1099272D01*
X564000Y1099977D01*
Y1113021D01*
X565056Y1113726D01*
X565293Y1113628D01*
X567000Y1113404D01*
X568707Y1113628D01*
X570298Y1114287D01*
X571664Y1115336D01*
X572713Y1116702D01*
X573372Y1118293D01*
X573596Y1120000D01*
X573501Y1120728D01*
X574691Y1121415D01*
X574702Y1121407D01*
X576293Y1120748D01*
X578000Y1120524D01*
X579707Y1120748D01*
X581298Y1121407D01*
X582664Y1122456D01*
X583713Y1123822D01*
X584372Y1125413D01*
X584596Y1127120D01*
X584372Y1128827D01*
X583713Y1130418D01*
X582664Y1131784D01*
X581298Y1132833D01*
X579707Y1133492D01*
X578000Y1133716D01*
X577261Y1133619D01*
X564000D01*
Y1138026D01*
X565270Y1139068D01*
X565700Y1138983D01*
X572839D01*
X573336Y1138336D01*
X574702Y1137287D01*
X576293Y1136628D01*
X578000Y1136404D01*
X579707Y1136628D01*
X581298Y1137287D01*
X582664Y1138336D01*
X583713Y1139702D01*
X584372Y1141293D01*
X584596Y1143000D01*
X584372Y1144707D01*
X583713Y1146298D01*
X582664Y1147664D01*
X581298Y1148713D01*
X579707Y1149372D01*
Y1150628D01*
X581298Y1151287D01*
X582664Y1152336D01*
X583713Y1153702D01*
X584372Y1155293D01*
X584596Y1157000D01*
X584372Y1158707D01*
X583713Y1160298D01*
X582664Y1161664D01*
X581298Y1162713D01*
X579707Y1163372D01*
X578000Y1163596D01*
X576293Y1163372D01*
X575787Y1163162D01*
X574769Y1163843D01*
Y1165157D01*
X575787Y1165838D01*
X576293Y1165628D01*
X578000Y1165404D01*
X579707Y1165628D01*
X581298Y1166287D01*
X582664Y1167336D01*
X583713Y1168702D01*
X584372Y1170293D01*
X584596Y1172000D01*
X584372Y1173707D01*
X583713Y1175298D01*
X582664Y1176664D01*
X581298Y1177713D01*
X580807Y1177916D01*
X580798Y1179287D01*
X582164Y1180336D01*
X583213Y1181702D01*
X583872Y1183293D01*
X584096Y1185000D01*
X583872Y1186707D01*
X583213Y1188298D01*
X582164Y1189664D01*
X580798Y1190713D01*
X579207Y1191372D01*
X577500Y1191596D01*
X575793Y1191372D01*
X574202Y1190713D01*
X572836Y1189664D01*
X571787Y1188298D01*
X571128Y1186707D01*
X570904Y1185000D01*
X570954Y1184616D01*
X570042Y1183619D01*
X564000D01*
Y1194021D01*
X565056Y1194726D01*
X565293Y1194628D01*
X567000Y1194404D01*
X568707Y1194628D01*
X570298Y1195287D01*
X571664Y1196336D01*
X572713Y1197702D01*
X573372Y1199293D01*
X573596Y1201000D01*
X573372Y1202707D01*
X572713Y1204298D01*
X571664Y1205664D01*
X570916Y1206238D01*
Y1207762D01*
X571664Y1208336D01*
X572713Y1209702D01*
X573372Y1211293D01*
X573596Y1213000D01*
X573372Y1214707D01*
X572713Y1216298D01*
X571664Y1217664D01*
X570298Y1218713D01*
X568707Y1219372D01*
X567000Y1219596D01*
X565293Y1219372D01*
X565056Y1219274D01*
X564000Y1219979D01*
Y1265000D01*
X566330D01*
X567052Y1263730D01*
X566628Y1262707D01*
X566404Y1261000D01*
X566628Y1259293D01*
X567287Y1257702D01*
X568336Y1256336D01*
X569702Y1255287D01*
X571293Y1254628D01*
X573000Y1254404D01*
X574707Y1254628D01*
X576298Y1255287D01*
X577664Y1256336D01*
X578713Y1257702D01*
X578812Y1257941D01*
X580186D01*
X580286Y1257699D01*
X581334Y1256333D01*
X582701Y1255285D01*
X584291Y1254626D01*
X585999Y1254401D01*
X587706Y1254626D01*
X588611Y1255001D01*
X589881Y1254209D01*
Y1251000D01*
X590195Y1249424D01*
X591087Y1248087D01*
X592424Y1247194D01*
X594000Y1246881D01*
X596917D01*
X597336Y1246336D01*
X598702Y1245287D01*
X600293Y1244628D01*
X602000Y1244404D01*
X603707Y1244628D01*
X605298Y1245287D01*
X606664Y1246336D01*
X607713Y1247702D01*
X608372Y1249293D01*
X608596Y1251000D01*
X608372Y1252707D01*
X607713Y1254298D01*
X606664Y1255664D01*
X605298Y1256713D01*
X603707Y1257372D01*
X602000Y1257596D01*
X600293Y1257372D01*
X599389Y1256997D01*
X598119Y1257790D01*
Y1276000D01*
X597940Y1276901D01*
Y1286040D01*
X592000D01*
X592000Y1294983D01*
X600336D01*
X604983Y1290336D01*
D02*
G37*
G36*
X1500000Y1608000D02*
X1419000Y1608000D01*
X1404000Y1623000D01*
X1404000Y1635000D01*
X1404000Y1700000D01*
X1500000D01*
Y1608000D01*
D02*
G37*
G36*
X686000Y1354119D02*
X681083D01*
X680664Y1354664D01*
X679298Y1355713D01*
X677707Y1356372D01*
X676000Y1356596D01*
X674293Y1356372D01*
X672702Y1355713D01*
X671336Y1354664D01*
X670287Y1353298D01*
X669628Y1351707D01*
X669404Y1350000D01*
X669628Y1348293D01*
X670287Y1346702D01*
X671336Y1345336D01*
X672702Y1344287D01*
X674293Y1343628D01*
X676000Y1343404D01*
X677707Y1343628D01*
X679298Y1344287D01*
X680664Y1345336D01*
X681083Y1345881D01*
X686000D01*
Y1301957D01*
X668940D01*
X667403Y1301651D01*
X666099Y1300781D01*
X661160Y1295841D01*
X660289Y1294537D01*
X659983Y1293000D01*
Y1286040D01*
X643158D01*
X643135Y1287310D01*
X645913Y1290087D01*
X646806Y1291424D01*
X647119Y1293000D01*
Y1305960D01*
X659040D01*
Y1322040D01*
X655619D01*
Y1325710D01*
X665821D01*
Y1354790D01*
X643741D01*
Y1325710D01*
X647381D01*
Y1322040D01*
X643960D01*
Y1318119D01*
X643000D01*
X642560Y1318032D01*
X641290Y1319074D01*
Y1321290D01*
X625710D01*
Y1321290D01*
X624540Y1321531D01*
Y1322040D01*
X619900D01*
Y1325710D01*
X626821D01*
Y1354790D01*
X604741D01*
Y1325710D01*
X611662D01*
Y1322040D01*
X609460D01*
Y1305960D01*
X624510D01*
X624605Y1305947D01*
X625710Y1305719D01*
Y1303200D01*
X624440Y1302836D01*
X623298Y1303713D01*
X621707Y1304372D01*
X620000Y1304596D01*
X618293Y1304372D01*
X616702Y1303713D01*
X615336Y1302664D01*
X614287Y1301298D01*
X613628Y1299707D01*
X613404Y1298000D01*
X613628Y1296293D01*
X614287Y1294702D01*
X615336Y1293336D01*
X615881Y1292917D01*
Y1292000D01*
X616194Y1290424D01*
X617087Y1289087D01*
X618865Y1287310D01*
X618650Y1286443D01*
X618376Y1286040D01*
X613017D01*
Y1292000D01*
X612711Y1293537D01*
X611841Y1294841D01*
X604841Y1301841D01*
X603537Y1302711D01*
X602000Y1303017D01*
X592000D01*
X592000Y1381000D01*
X686000D01*
Y1354119D01*
D02*
G37*
%LPC*%
G36*
X1409040Y1072290D02*
X1392960D01*
Y1070139D01*
X1390000D01*
X1388033Y1069748D01*
X1386366Y1068634D01*
X1385366Y1067634D01*
X1384252Y1065966D01*
X1383861Y1064000D01*
Y1061804D01*
X1370250D01*
X1367991Y1061354D01*
X1366076Y1060074D01*
X1364796Y1058159D01*
X1364346Y1055900D01*
X1364796Y1053641D01*
X1366076Y1051726D01*
X1367991Y1050446D01*
X1369240Y1050198D01*
Y1048903D01*
X1367991Y1048654D01*
X1366076Y1047374D01*
X1364796Y1045459D01*
X1364346Y1043200D01*
X1364796Y1040941D01*
X1366076Y1039026D01*
X1367991Y1037746D01*
X1369240Y1037497D01*
Y1036203D01*
X1367991Y1035954D01*
X1366076Y1034674D01*
X1364796Y1032759D01*
X1364346Y1030500D01*
X1364796Y1028241D01*
X1366076Y1026326D01*
X1367991Y1025046D01*
X1369240Y1024798D01*
Y1023503D01*
X1367991Y1023254D01*
X1366076Y1021974D01*
X1364796Y1020059D01*
X1364346Y1017800D01*
X1364796Y1015541D01*
X1366076Y1013626D01*
X1367991Y1012346D01*
X1369240Y1012097D01*
Y1010803D01*
X1367991Y1010554D01*
X1366076Y1009274D01*
X1364796Y1007359D01*
X1364346Y1005100D01*
X1364796Y1002841D01*
X1366076Y1000926D01*
X1367991Y999646D01*
X1369240Y999398D01*
Y998103D01*
X1367991Y997854D01*
X1366076Y996574D01*
X1364796Y994659D01*
X1364346Y992400D01*
X1364796Y990141D01*
X1366076Y988226D01*
X1367991Y986946D01*
X1369240Y986697D01*
Y985403D01*
X1367991Y985154D01*
X1366076Y983874D01*
X1364796Y981959D01*
X1364346Y979700D01*
X1364796Y977441D01*
X1366076Y975526D01*
X1367991Y974246D01*
X1369240Y973997D01*
Y972703D01*
X1367991Y972454D01*
X1366076Y971174D01*
X1364796Y969259D01*
X1364346Y967000D01*
X1364796Y964741D01*
X1366076Y962826D01*
X1367991Y961546D01*
X1369240Y961298D01*
Y960003D01*
X1367991Y959754D01*
X1366076Y958474D01*
X1364796Y956559D01*
X1364346Y954300D01*
X1364796Y952041D01*
X1366076Y950126D01*
X1367991Y948846D01*
X1370250Y948397D01*
X1384750D01*
X1387009Y948846D01*
X1387481Y949161D01*
X1388673D01*
X1390034Y948252D01*
X1392000Y947861D01*
X1392960D01*
Y945210D01*
X1409040D01*
Y957210D01*
X1423040D01*
Y972290D01*
X1420139D01*
Y974000D01*
X1420139Y974000D01*
Y992954D01*
X1420713Y993702D01*
X1421372Y995293D01*
X1421596Y997000D01*
X1421372Y998707D01*
X1420713Y1000298D01*
X1419664Y1001664D01*
X1418298Y1002713D01*
X1416707Y1003372D01*
X1415583Y1003520D01*
X1415107Y1004840D01*
X1417634Y1007366D01*
X1417634Y1007366D01*
X1419634Y1009366D01*
X1420748Y1011033D01*
X1420858Y1011588D01*
X1421713Y1012702D01*
X1422372Y1014293D01*
X1422596Y1016000D01*
X1422372Y1017707D01*
X1421713Y1019298D01*
X1420664Y1020664D01*
X1419298Y1021713D01*
X1417707Y1022372D01*
X1416000Y1022596D01*
X1414293Y1022372D01*
X1412702Y1021713D01*
X1411336Y1020664D01*
X1410310Y1019328D01*
X1410214Y1019316D01*
X1409040Y1019606D01*
Y1026940D01*
X1409040Y1027290D01*
Y1028210D01*
X1409040Y1028560D01*
Y1040210D01*
X1423040D01*
Y1055290D01*
X1420139D01*
Y1064500D01*
X1419748Y1066467D01*
X1418634Y1068134D01*
X1418384Y1068384D01*
X1416716Y1069498D01*
X1414750Y1069889D01*
X1409040D01*
Y1072290D01*
D02*
G37*
G36*
X1473636Y1040885D02*
X1456364D01*
Y1023613D01*
X1473636D01*
Y1040885D01*
D02*
G37*
G36*
X1465000Y1020961D02*
X1462746Y1020665D01*
X1460645Y1019794D01*
X1458841Y1018410D01*
X1457456Y1016606D01*
X1456586Y1014505D01*
X1456289Y1012251D01*
X1456586Y1009996D01*
X1457456Y1007896D01*
X1458841Y1006092D01*
X1460645Y1004707D01*
X1462746Y1003837D01*
X1465000Y1003540D01*
X1467254Y1003837D01*
X1469355Y1004707D01*
X1471159Y1006092D01*
X1472543Y1007896D01*
X1473414Y1009996D01*
X1473710Y1012251D01*
X1473414Y1014505D01*
X1472543Y1016606D01*
X1471159Y1018410D01*
X1469355Y1019794D01*
X1467254Y1020665D01*
X1465000Y1020961D01*
D02*
G37*
G36*
Y980960D02*
X1462746Y980664D01*
X1460645Y979794D01*
X1458841Y978409D01*
X1457456Y976605D01*
X1456586Y974504D01*
X1456289Y972250D01*
X1456586Y969996D01*
X1457456Y967895D01*
X1458841Y966091D01*
X1460645Y964706D01*
X1462746Y963836D01*
X1465000Y963540D01*
X1467254Y963836D01*
X1469355Y964706D01*
X1471159Y966091D01*
X1472543Y967895D01*
X1473414Y969996D01*
X1473710Y972250D01*
X1473414Y974504D01*
X1472543Y976605D01*
X1471159Y978409D01*
X1469355Y979794D01*
X1467254Y980664D01*
X1465000Y980960D01*
D02*
G37*
%LPD*%
D10*
X413000Y929500D02*
D03*
Y908500D02*
D03*
X540000Y1649500D02*
D03*
Y1628500D02*
D03*
X1387500Y169750D02*
D03*
Y148750D02*
D03*
X484000Y754500D02*
D03*
Y775500D02*
D03*
X789500Y1064500D02*
D03*
Y1043500D02*
D03*
D11*
X218000Y1048000D02*
D03*
Y1057500D02*
D03*
Y1067000D02*
D03*
X191000D02*
D03*
Y1048000D02*
D03*
X111000Y577000D02*
D03*
X135000Y586500D02*
D03*
Y567500D02*
D03*
X1183000Y1595000D02*
D03*
X1207000Y1604500D02*
D03*
Y1585500D02*
D03*
X1280000Y1522000D02*
D03*
X1304000Y1531500D02*
D03*
Y1512500D02*
D03*
X1267000Y1198000D02*
D03*
X1291000Y1207500D02*
D03*
Y1188500D02*
D03*
X111000Y614000D02*
D03*
X135000Y623500D02*
D03*
Y604500D02*
D03*
X102000Y1354000D02*
D03*
X126000Y1363500D02*
D03*
Y1344500D02*
D03*
X100000Y1484000D02*
D03*
X124000Y1493500D02*
D03*
Y1474500D02*
D03*
X1030000Y217000D02*
D03*
X1006000Y207500D02*
D03*
Y226500D02*
D03*
X557000Y1530500D02*
D03*
Y1540000D02*
D03*
Y1549500D02*
D03*
X529500D02*
D03*
Y1530500D02*
D03*
X1363250Y773250D02*
D03*
Y763750D02*
D03*
Y754250D02*
D03*
X1390750D02*
D03*
Y773250D02*
D03*
X1201750Y546500D02*
D03*
Y556000D02*
D03*
Y565500D02*
D03*
X1174250D02*
D03*
Y546500D02*
D03*
X1212000Y679500D02*
D03*
Y689000D02*
D03*
Y698500D02*
D03*
X1184500D02*
D03*
Y679500D02*
D03*
X1178250Y972250D02*
D03*
Y962750D02*
D03*
Y953250D02*
D03*
X1205750D02*
D03*
Y972250D02*
D03*
D12*
X221000Y524000D02*
D03*
X189000D02*
D03*
X1364000Y1587000D02*
D03*
X1332000D02*
D03*
X703000Y775000D02*
D03*
X671000D02*
D03*
X1378000Y678000D02*
D03*
X1410000D02*
D03*
D13*
X462250Y1276000D02*
D03*
X477750D02*
D03*
X462250Y1262000D02*
D03*
X477750D02*
D03*
X462250Y1249000D02*
D03*
X477750D02*
D03*
X462250Y1236000D02*
D03*
X477750D02*
D03*
X462250Y1222000D02*
D03*
X477750D02*
D03*
X1371750Y372000D02*
D03*
X1356250D02*
D03*
X1371750Y336000D02*
D03*
X1356250D02*
D03*
X1371750Y323000D02*
D03*
X1356250D02*
D03*
X96750Y1275500D02*
D03*
X81250D02*
D03*
X69000D02*
D03*
X53500D02*
D03*
X477750Y1155000D02*
D03*
X462250D02*
D03*
X477750Y1168000D02*
D03*
X462250D02*
D03*
X97000Y1256000D02*
D03*
X81500D02*
D03*
X477750Y1182000D02*
D03*
X462250D02*
D03*
X69250Y1256000D02*
D03*
X53750D02*
D03*
X890750Y1257000D02*
D03*
X875250D02*
D03*
X890750Y1271000D02*
D03*
X875250D02*
D03*
X792250Y1404000D02*
D03*
X776750D02*
D03*
X792250Y1391000D02*
D03*
X776750D02*
D03*
X635500Y1580000D02*
D03*
X651000D02*
D03*
X462250Y1195000D02*
D03*
X477750D02*
D03*
X169250Y1391000D02*
D03*
X184750D02*
D03*
X462250Y1209000D02*
D03*
X477750D02*
D03*
X277750Y1531000D02*
D03*
X262250D02*
D03*
X391000Y1534250D02*
D03*
X375500D02*
D03*
X215750Y1534000D02*
D03*
X200250D02*
D03*
X477750Y1060000D02*
D03*
X462250D02*
D03*
X477750Y1142000D02*
D03*
X462250D02*
D03*
X890750Y1230000D02*
D03*
X875250D02*
D03*
X890750Y1136250D02*
D03*
X875250D02*
D03*
X890750Y1175250D02*
D03*
X875250D02*
D03*
X890750Y1149250D02*
D03*
X875250D02*
D03*
X890750Y1188250D02*
D03*
X875250D02*
D03*
X890750Y1162250D02*
D03*
X875250D02*
D03*
X904250Y183000D02*
D03*
X919750D02*
D03*
X1003750Y413000D02*
D03*
X988250D02*
D03*
X462250Y1115000D02*
D03*
X477750D02*
D03*
X462250Y1129000D02*
D03*
X477750D02*
D03*
X462250Y1074000D02*
D03*
X477750D02*
D03*
X462250Y1088000D02*
D03*
X477750D02*
D03*
X462250Y1101000D02*
D03*
X477750D02*
D03*
X1179750Y1358000D02*
D03*
X1164250D02*
D03*
X1285750Y1550000D02*
D03*
X1270250D02*
D03*
X1130750Y1360000D02*
D03*
X1115250D02*
D03*
X1130750Y1385000D02*
D03*
X1115250D02*
D03*
X1249750Y1198000D02*
D03*
X1234250D02*
D03*
X890750Y1122250D02*
D03*
X875250D02*
D03*
X890750Y1109250D02*
D03*
X875250D02*
D03*
X1191250Y602000D02*
D03*
X1206750D02*
D03*
X1199750Y664000D02*
D03*
X1184250D02*
D03*
X1192750Y650000D02*
D03*
X1177250D02*
D03*
X462250Y1046000D02*
D03*
X477750D02*
D03*
X875250Y1018000D02*
D03*
X890750D02*
D03*
X875250Y1285000D02*
D03*
X890750D02*
D03*
X1204250Y637000D02*
D03*
X1219750D02*
D03*
X875250Y1201250D02*
D03*
X890750D02*
D03*
X875250Y1298000D02*
D03*
X890750D02*
D03*
X875250Y1243000D02*
D03*
X890750D02*
D03*
X875250Y1312000D02*
D03*
X890750D02*
D03*
Y1083000D02*
D03*
X875250D02*
D03*
X890750Y1070000D02*
D03*
X875250D02*
D03*
X890750Y1044000D02*
D03*
X875250D02*
D03*
X890750Y1096000D02*
D03*
X875250D02*
D03*
Y1057000D02*
D03*
X890750D02*
D03*
X875250Y1031000D02*
D03*
X890750D02*
D03*
X1254250Y495000D02*
D03*
X1269750D02*
D03*
X919750Y197000D02*
D03*
X904250D02*
D03*
X168250Y1479000D02*
D03*
X183750D02*
D03*
X1378750Y825750D02*
D03*
X1363250D02*
D03*
D14*
X448750Y1554250D02*
D03*
X458250D02*
D03*
X467750D02*
D03*
Y1581750D02*
D03*
X448750D02*
D03*
X117000Y754000D02*
D03*
X107500Y778000D02*
D03*
X126500D02*
D03*
X208000Y1226000D02*
D03*
X198500Y1250000D02*
D03*
X217500D02*
D03*
X1198000Y1307750D02*
D03*
X1207500Y1283750D02*
D03*
X1188500D02*
D03*
X250000Y500000D02*
D03*
X240500Y524000D02*
D03*
X259500D02*
D03*
X543250Y1602000D02*
D03*
X552750Y1578000D02*
D03*
X533750D02*
D03*
X635250Y1563750D02*
D03*
X625750D02*
D03*
X616250D02*
D03*
Y1536250D02*
D03*
X635250D02*
D03*
X260500Y1555250D02*
D03*
X270000D02*
D03*
X279500D02*
D03*
Y1582750D02*
D03*
X260500D02*
D03*
X376250Y1553000D02*
D03*
X385750D02*
D03*
X395250D02*
D03*
Y1580500D02*
D03*
X376250D02*
D03*
X1079000Y211250D02*
D03*
X1088500D02*
D03*
X1098000D02*
D03*
Y238750D02*
D03*
X1079000D02*
D03*
X991000Y182750D02*
D03*
X981500D02*
D03*
X972000D02*
D03*
Y155250D02*
D03*
X991000D02*
D03*
X1041500Y1472250D02*
D03*
X1051000D02*
D03*
X1060500D02*
D03*
Y1499750D02*
D03*
X1041500D02*
D03*
X1039500Y1540000D02*
D03*
X1049000D02*
D03*
X1058500D02*
D03*
Y1567500D02*
D03*
X1039500D02*
D03*
X987500Y1470750D02*
D03*
X997000D02*
D03*
X1006500D02*
D03*
Y1498250D02*
D03*
X987500D02*
D03*
X989500Y1538750D02*
D03*
X999000D02*
D03*
X1008500D02*
D03*
Y1566250D02*
D03*
X989500D02*
D03*
X1261500Y851500D02*
D03*
X1252000D02*
D03*
X1242500D02*
D03*
Y824000D02*
D03*
X1261500D02*
D03*
X200500Y1557500D02*
D03*
X210000D02*
D03*
X219500D02*
D03*
Y1585000D02*
D03*
X200500D02*
D03*
D15*
X44086Y691000D02*
D03*
X64914D02*
D03*
X402914Y480000D02*
D03*
X382086D02*
D03*
X87914D02*
D03*
X67086D02*
D03*
X242414D02*
D03*
X221586D02*
D03*
X1242586Y910000D02*
D03*
X1263414D02*
D03*
X1242586Y883000D02*
D03*
X1263414D02*
D03*
X1361586Y642000D02*
D03*
X1382414D02*
D03*
X1361586Y612000D02*
D03*
X1382414D02*
D03*
X68414Y588500D02*
D03*
X47586D02*
D03*
X68414Y607000D02*
D03*
X47586D02*
D03*
D16*
X391500Y554586D02*
D03*
Y575414D02*
D03*
X1439000Y1513586D02*
D03*
Y1534414D02*
D03*
X1441000Y1168586D02*
D03*
Y1189414D02*
D03*
X1132000Y570586D02*
D03*
Y591414D02*
D03*
X463000Y847586D02*
D03*
Y868414D02*
D03*
D17*
X1279000Y1437000D02*
D03*
X1325000D02*
D03*
X1275000Y1303000D02*
D03*
X1321000D02*
D03*
X1275000Y1272000D02*
D03*
X1321000D02*
D03*
D18*
X1404000Y235050D02*
D03*
Y260950D02*
D03*
X1386000Y235050D02*
D03*
Y260950D02*
D03*
X1344000Y463950D02*
D03*
Y438050D02*
D03*
X1362000Y463950D02*
D03*
Y438050D02*
D03*
D19*
X1404000Y244000D02*
D03*
Y252000D02*
D03*
X1386000Y244000D02*
D03*
Y252000D02*
D03*
X1344000Y455000D02*
D03*
Y447000D02*
D03*
X1362000Y455000D02*
D03*
Y447000D02*
D03*
D20*
X78000Y568000D02*
D03*
X46000D02*
D03*
X78000Y628000D02*
D03*
X46000D02*
D03*
X125500Y691000D02*
D03*
X93500D02*
D03*
X1455000Y1569000D02*
D03*
X1423000D02*
D03*
X221000Y502000D02*
D03*
X189000D02*
D03*
X1455000Y1223000D02*
D03*
X1423000D02*
D03*
X357000Y480000D02*
D03*
X325000D02*
D03*
D21*
X780750Y1577750D02*
D03*
Y1562250D02*
D03*
X800750Y1577750D02*
D03*
Y1562250D02*
D03*
X792000Y1469750D02*
D03*
Y1454250D02*
D03*
X845000Y1469750D02*
D03*
Y1454250D02*
D03*
X934000Y1553750D02*
D03*
Y1538250D02*
D03*
X953000Y1553750D02*
D03*
Y1538250D02*
D03*
X707250Y1327750D02*
D03*
Y1312250D02*
D03*
X557000Y1628750D02*
D03*
Y1613250D02*
D03*
X548000Y1348750D02*
D03*
Y1333250D02*
D03*
X215000Y1398750D02*
D03*
Y1383250D02*
D03*
X561000Y1348750D02*
D03*
Y1333250D02*
D03*
X574000D02*
D03*
Y1348750D02*
D03*
X876000Y178750D02*
D03*
Y163250D02*
D03*
X651000Y976500D02*
D03*
Y961000D02*
D03*
X748250Y1327750D02*
D03*
Y1312250D02*
D03*
X735250Y1327750D02*
D03*
Y1312250D02*
D03*
X721250Y1327750D02*
D03*
Y1312250D02*
D03*
X1288000Y905750D02*
D03*
Y890250D02*
D03*
X142000Y1112250D02*
D03*
Y1127750D02*
D03*
X128000Y1154250D02*
D03*
Y1169750D02*
D03*
X143000Y1154250D02*
D03*
Y1169750D02*
D03*
X1175000Y604750D02*
D03*
Y589250D02*
D03*
X633500Y1299250D02*
D03*
Y1314750D02*
D03*
X731000Y976500D02*
D03*
Y961000D02*
D03*
X717500Y976500D02*
D03*
Y961000D02*
D03*
X704000D02*
D03*
Y976500D02*
D03*
X678000Y961000D02*
D03*
Y976500D02*
D03*
X691000Y961000D02*
D03*
Y976500D02*
D03*
X623750Y961000D02*
D03*
Y976500D02*
D03*
X637750Y961000D02*
D03*
Y976500D02*
D03*
X864000Y391250D02*
D03*
Y406750D02*
D03*
X664750Y961000D02*
D03*
Y976500D02*
D03*
X1366000Y407250D02*
D03*
Y422750D02*
D03*
X850000Y163250D02*
D03*
Y178750D02*
D03*
X863000Y163250D02*
D03*
Y178750D02*
D03*
X889000Y163250D02*
D03*
Y178750D02*
D03*
X745000Y961000D02*
D03*
Y976500D02*
D03*
X574000Y1549750D02*
D03*
Y1534250D02*
D03*
D22*
X97000Y794500D02*
D03*
Y815500D02*
D03*
X170000Y1067500D02*
D03*
Y1046500D02*
D03*
X1244000Y926500D02*
D03*
Y947500D02*
D03*
X1222000Y841500D02*
D03*
Y820500D02*
D03*
X1151000Y592500D02*
D03*
Y571500D02*
D03*
X486000Y868500D02*
D03*
Y847500D02*
D03*
X924000Y1397500D02*
D03*
Y1418500D02*
D03*
X1251000Y1585500D02*
D03*
Y1564500D02*
D03*
X255000Y594500D02*
D03*
Y615500D02*
D03*
X1297000Y685500D02*
D03*
Y706500D02*
D03*
D23*
X391000Y601000D02*
D03*
Y633000D02*
D03*
X27500Y513500D02*
D03*
Y481500D02*
D03*
D24*
X971500Y1372000D02*
D03*
X992500D02*
D03*
X239500Y542000D02*
D03*
X260500D02*
D03*
X1358500Y549000D02*
D03*
X1379500D02*
D03*
X1413500D02*
D03*
X1392500D02*
D03*
D25*
X720002Y1544720D02*
D03*
X751498D02*
D03*
X720002Y1580280D02*
D03*
X751498D02*
D03*
X870002Y1547220D02*
D03*
X901498D02*
D03*
X870002Y1582780D02*
D03*
X901498D02*
D03*
X702748Y742780D02*
D03*
X671252D02*
D03*
X702748Y707220D02*
D03*
X671252D02*
D03*
D26*
X780750Y1593400D02*
D03*
Y1611600D02*
D03*
X800750Y1593400D02*
D03*
Y1611600D02*
D03*
X933000Y1569900D02*
D03*
Y1588100D02*
D03*
X1331000Y1384100D02*
D03*
Y1365900D02*
D03*
X954750Y1570900D02*
D03*
Y1589100D02*
D03*
D27*
X1389780Y1406252D02*
D03*
Y1437748D02*
D03*
X1354220Y1406252D02*
D03*
Y1437748D02*
D03*
X1386780Y1272252D02*
D03*
Y1303748D02*
D03*
X1351220Y1272252D02*
D03*
Y1303748D02*
D03*
D28*
X1372100Y1464000D02*
D03*
X1353900D02*
D03*
X1396100Y1240000D02*
D03*
X1377900D02*
D03*
D29*
X1397500Y581000D02*
D03*
Y573000D02*
D03*
X1414500Y581000D02*
D03*
Y573000D02*
D03*
X955500Y229000D02*
D03*
Y221000D02*
D03*
X972500Y229000D02*
D03*
Y221000D02*
D03*
D30*
X811000Y1063000D02*
D03*
Y1031000D02*
D03*
X1253000Y1314000D02*
D03*
Y1346000D02*
D03*
X580000Y757000D02*
D03*
Y725000D02*
D03*
D31*
X1331750Y1498000D02*
D03*
X1353750D02*
D03*
X1375750D02*
D03*
X1407750D02*
D03*
X1331750Y1551000D02*
D03*
X1353750D02*
D03*
X1375750D02*
D03*
X285000Y564500D02*
D03*
X307000D02*
D03*
X329000D02*
D03*
X361000D02*
D03*
X285000Y617500D02*
D03*
X307000D02*
D03*
X329000D02*
D03*
X1333000Y1153000D02*
D03*
X1355000D02*
D03*
X1377000D02*
D03*
X1409000D02*
D03*
X1333000Y1206000D02*
D03*
X1355000D02*
D03*
X1377000D02*
D03*
D32*
X1407750Y1551000D02*
D03*
X361000Y617500D02*
D03*
X1409000Y1206000D02*
D03*
D33*
X217000Y1414500D02*
D03*
Y1421000D02*
D03*
Y1427500D02*
D03*
Y1434000D02*
D03*
Y1440500D02*
D03*
Y1447000D02*
D03*
Y1453500D02*
D03*
X156000Y1414500D02*
D03*
Y1421000D02*
D03*
Y1427500D02*
D03*
Y1434000D02*
D03*
Y1440500D02*
D03*
Y1447000D02*
D03*
X951500Y1431000D02*
D03*
Y1424500D02*
D03*
Y1418000D02*
D03*
Y1411500D02*
D03*
Y1405000D02*
D03*
Y1398500D02*
D03*
Y1392000D02*
D03*
X1012500Y1431000D02*
D03*
Y1424500D02*
D03*
Y1418000D02*
D03*
Y1411500D02*
D03*
Y1405000D02*
D03*
Y1398500D02*
D03*
X1220500Y1377500D02*
D03*
Y1384000D02*
D03*
Y1390500D02*
D03*
Y1397000D02*
D03*
Y1403500D02*
D03*
Y1410000D02*
D03*
Y1416500D02*
D03*
X1159500Y1377500D02*
D03*
Y1384000D02*
D03*
Y1390500D02*
D03*
Y1397000D02*
D03*
Y1403500D02*
D03*
Y1410000D02*
D03*
X1222000Y1450500D02*
D03*
Y1457000D02*
D03*
Y1463500D02*
D03*
Y1470000D02*
D03*
Y1476500D02*
D03*
Y1483000D02*
D03*
Y1489500D02*
D03*
X1161000Y1450500D02*
D03*
Y1457000D02*
D03*
Y1463500D02*
D03*
Y1470000D02*
D03*
Y1476500D02*
D03*
Y1483000D02*
D03*
X1221500Y1523500D02*
D03*
Y1530000D02*
D03*
Y1536500D02*
D03*
Y1543000D02*
D03*
Y1549500D02*
D03*
Y1556000D02*
D03*
Y1562500D02*
D03*
X1160500Y1523500D02*
D03*
Y1530000D02*
D03*
Y1536500D02*
D03*
Y1543000D02*
D03*
Y1549500D02*
D03*
Y1556000D02*
D03*
D34*
X156000Y1453500D02*
D03*
X1012500Y1392000D02*
D03*
X1159500Y1416500D02*
D03*
X1161000Y1489500D02*
D03*
X1160500Y1562500D02*
D03*
D35*
X1347500Y219500D02*
D03*
X1253000Y463500D02*
D03*
D36*
X1347500Y226000D02*
D03*
Y232500D02*
D03*
Y239000D02*
D03*
Y245500D02*
D03*
Y252000D02*
D03*
Y258500D02*
D03*
Y265000D02*
D03*
Y271500D02*
D03*
Y278000D02*
D03*
X1286500Y219500D02*
D03*
Y226000D02*
D03*
Y232500D02*
D03*
Y239000D02*
D03*
Y245500D02*
D03*
Y252000D02*
D03*
Y258500D02*
D03*
Y265000D02*
D03*
Y271500D02*
D03*
Y278000D02*
D03*
X1314000Y405000D02*
D03*
Y411500D02*
D03*
Y418000D02*
D03*
Y424500D02*
D03*
Y431000D02*
D03*
Y437500D02*
D03*
Y444000D02*
D03*
Y450500D02*
D03*
Y457000D02*
D03*
Y463500D02*
D03*
X1253000Y405000D02*
D03*
Y411500D02*
D03*
Y418000D02*
D03*
Y424500D02*
D03*
Y431000D02*
D03*
Y437500D02*
D03*
Y444000D02*
D03*
Y450500D02*
D03*
Y457000D02*
D03*
D37*
X915950Y368500D02*
D03*
X903250D02*
D03*
X890550D02*
D03*
X877850D02*
D03*
X865150D02*
D03*
X852450D02*
D03*
X839750D02*
D03*
X827050D02*
D03*
X915950Y271500D02*
D03*
X903250D02*
D03*
X890550D02*
D03*
X877850D02*
D03*
X865150D02*
D03*
X852450D02*
D03*
X839750D02*
D03*
X940050D02*
D03*
X952750D02*
D03*
X965450D02*
D03*
X978150D02*
D03*
X990850D02*
D03*
X1003550D02*
D03*
X1016250D02*
D03*
X1028950D02*
D03*
X940050Y368500D02*
D03*
X952750D02*
D03*
X965450D02*
D03*
X978150D02*
D03*
X990850D02*
D03*
X1003550D02*
D03*
X1016250D02*
D03*
D38*
X827050Y271500D02*
D03*
X1028950Y368500D02*
D03*
D39*
X1377500Y941600D02*
D03*
Y954300D02*
D03*
Y967000D02*
D03*
Y979700D02*
D03*
Y992400D02*
D03*
Y1005100D02*
D03*
Y1017800D02*
D03*
Y1030500D02*
D03*
Y1043200D02*
D03*
Y1055900D02*
D03*
X1280500Y941600D02*
D03*
Y954300D02*
D03*
Y967000D02*
D03*
Y979700D02*
D03*
Y992400D02*
D03*
Y1005100D02*
D03*
Y1017800D02*
D03*
Y1030500D02*
D03*
Y1043200D02*
D03*
D40*
Y1055900D02*
D03*
D41*
X1353100Y591000D02*
D03*
Y586000D02*
D03*
Y581000D02*
D03*
X1368900D02*
D03*
Y591000D02*
D03*
D42*
X1325000Y561000D02*
D03*
Y567500D02*
D03*
Y574000D02*
D03*
Y580500D02*
D03*
Y587000D02*
D03*
Y593500D02*
D03*
Y600000D02*
D03*
Y606500D02*
D03*
Y613000D02*
D03*
Y619500D02*
D03*
Y626000D02*
D03*
Y632500D02*
D03*
Y639000D02*
D03*
Y645500D02*
D03*
X1255000Y561000D02*
D03*
Y567500D02*
D03*
Y574000D02*
D03*
Y580500D02*
D03*
Y587000D02*
D03*
Y593500D02*
D03*
Y600000D02*
D03*
Y606500D02*
D03*
Y613000D02*
D03*
Y619500D02*
D03*
Y626000D02*
D03*
Y632500D02*
D03*
Y639000D02*
D03*
D43*
Y645500D02*
D03*
D44*
X412000Y878000D02*
D03*
D45*
X435000Y819000D02*
D03*
X412000D02*
D03*
X389000D02*
D03*
D46*
X181000Y1250000D02*
D03*
Y1234000D02*
D03*
X1262000Y219000D02*
D03*
Y203000D02*
D03*
X1413500Y151250D02*
D03*
Y167250D02*
D03*
X1251000Y1477000D02*
D03*
Y1461000D02*
D03*
X901000Y1428000D02*
D03*
Y1412000D02*
D03*
X1227000Y971000D02*
D03*
Y955000D02*
D03*
X1401000Y936750D02*
D03*
Y952750D02*
D03*
Y965750D02*
D03*
Y981750D02*
D03*
X1415000Y948750D02*
D03*
Y964750D02*
D03*
X1249000Y1025000D02*
D03*
Y1041000D02*
D03*
X1401000Y1019750D02*
D03*
Y1035750D02*
D03*
X1415000Y1031750D02*
D03*
Y1047750D02*
D03*
X1401000Y1048750D02*
D03*
Y1064750D02*
D03*
X466000Y755000D02*
D03*
Y771000D02*
D03*
X560000Y743000D02*
D03*
Y727000D02*
D03*
X531000Y1259000D02*
D03*
Y1275000D02*
D03*
X1231000Y697000D02*
D03*
Y681000D02*
D03*
D47*
X895500Y1518000D02*
D03*
X874500D02*
D03*
X746500Y1516000D02*
D03*
X725500D02*
D03*
X401500Y779000D02*
D03*
X422500D02*
D03*
D48*
X792000Y1482000D02*
D03*
X776000D02*
D03*
X845000D02*
D03*
X861000D02*
D03*
X474000Y1537000D02*
D03*
X458000D02*
D03*
X1096000Y259000D02*
D03*
X1080000D02*
D03*
X919000Y395000D02*
D03*
X903000D02*
D03*
X919000Y409000D02*
D03*
X903000D02*
D03*
X1002750Y427000D02*
D03*
X986750D02*
D03*
X1003000Y399000D02*
D03*
X987000D02*
D03*
X1016000Y246000D02*
D03*
X1032000D02*
D03*
Y399000D02*
D03*
X1016000D02*
D03*
X1179000Y937000D02*
D03*
X1195000D02*
D03*
X1207000Y588000D02*
D03*
X1191000D02*
D03*
X1281000Y669000D02*
D03*
X1297000D02*
D03*
X609000Y1033000D02*
D03*
X593000D02*
D03*
X789000Y1272000D02*
D03*
X773000D02*
D03*
X760000Y1032000D02*
D03*
X744000D02*
D03*
X617000Y1314000D02*
D03*
X601000D02*
D03*
X651500Y1314000D02*
D03*
X667500D02*
D03*
X1190000Y1267000D02*
D03*
X1206000D02*
D03*
D49*
X654781Y1340250D02*
D03*
X615781D02*
D03*
D50*
X1303000Y1406000D02*
D03*
Y1362000D02*
D03*
D51*
X770500Y1255100D02*
D03*
Y1078900D02*
D03*
X552500D02*
D03*
Y1255100D02*
D03*
D52*
X770500Y1249500D02*
D03*
Y1244500D02*
D03*
Y1239500D02*
D03*
Y1234500D02*
D03*
Y1229500D02*
D03*
Y1224500D02*
D03*
Y1219500D02*
D03*
Y1214500D02*
D03*
Y1209500D02*
D03*
Y1204500D02*
D03*
Y1199500D02*
D03*
Y1194500D02*
D03*
Y1189500D02*
D03*
Y1184500D02*
D03*
Y1179500D02*
D03*
Y1174500D02*
D03*
Y1169500D02*
D03*
Y1164500D02*
D03*
Y1159500D02*
D03*
Y1154500D02*
D03*
Y1149500D02*
D03*
Y1144500D02*
D03*
Y1139500D02*
D03*
Y1134500D02*
D03*
Y1129500D02*
D03*
Y1124500D02*
D03*
Y1119500D02*
D03*
Y1114500D02*
D03*
Y1109500D02*
D03*
Y1104500D02*
D03*
Y1099500D02*
D03*
Y1094500D02*
D03*
Y1089500D02*
D03*
Y1084500D02*
D03*
X552500D02*
D03*
Y1089500D02*
D03*
Y1094500D02*
D03*
Y1099500D02*
D03*
Y1104500D02*
D03*
Y1109500D02*
D03*
Y1114500D02*
D03*
Y1119500D02*
D03*
Y1124500D02*
D03*
Y1129500D02*
D03*
Y1134500D02*
D03*
Y1139500D02*
D03*
Y1144500D02*
D03*
Y1149500D02*
D03*
Y1154500D02*
D03*
Y1159500D02*
D03*
Y1164500D02*
D03*
Y1169500D02*
D03*
Y1174500D02*
D03*
Y1179500D02*
D03*
Y1184500D02*
D03*
Y1189500D02*
D03*
Y1194500D02*
D03*
Y1199500D02*
D03*
Y1204500D02*
D03*
Y1209500D02*
D03*
Y1214500D02*
D03*
Y1219500D02*
D03*
Y1224500D02*
D03*
Y1229500D02*
D03*
Y1234500D02*
D03*
Y1239500D02*
D03*
Y1244500D02*
D03*
Y1249500D02*
D03*
D53*
X749600Y1058000D02*
D03*
X573400D02*
D03*
Y1276000D02*
D03*
X749600D02*
D03*
D54*
X744000Y1058000D02*
D03*
X739000D02*
D03*
X734000D02*
D03*
X729000D02*
D03*
X724000D02*
D03*
X719000D02*
D03*
X714000D02*
D03*
X709000D02*
D03*
X704000D02*
D03*
X699000D02*
D03*
X694000D02*
D03*
X689000D02*
D03*
X684000D02*
D03*
X679000D02*
D03*
X674000D02*
D03*
X669000D02*
D03*
X664000D02*
D03*
X659000D02*
D03*
X654000D02*
D03*
X649000D02*
D03*
X644000D02*
D03*
X639000D02*
D03*
X634000D02*
D03*
X629000D02*
D03*
X624000D02*
D03*
X619000D02*
D03*
X614000D02*
D03*
X609000D02*
D03*
X604000D02*
D03*
X599000D02*
D03*
X594000D02*
D03*
X589000D02*
D03*
X584000D02*
D03*
X579000D02*
D03*
Y1276000D02*
D03*
X584000D02*
D03*
X589000D02*
D03*
X594000D02*
D03*
X599000D02*
D03*
X604000D02*
D03*
X609000D02*
D03*
X614000D02*
D03*
X619000D02*
D03*
X624000D02*
D03*
X629000D02*
D03*
X634000D02*
D03*
X639000D02*
D03*
X644000D02*
D03*
X649000D02*
D03*
X654000D02*
D03*
X659000D02*
D03*
X664000D02*
D03*
X669000D02*
D03*
X674000D02*
D03*
X679000D02*
D03*
X684000D02*
D03*
X689000D02*
D03*
X694000D02*
D03*
X699000D02*
D03*
X704000D02*
D03*
X709000D02*
D03*
X714000D02*
D03*
X719000D02*
D03*
X724000D02*
D03*
X729000D02*
D03*
X734000D02*
D03*
X739000D02*
D03*
X744000D02*
D03*
D55*
X809000Y1426750D02*
D03*
D56*
X815500D02*
D03*
X822000D02*
D03*
X828500D02*
D03*
X809000Y1471250D02*
D03*
X815500D02*
D03*
X822000D02*
D03*
X828500D02*
D03*
D57*
X465000Y960000D02*
X467000Y962000D01*
X465000Y930500D02*
Y960000D01*
X115000Y931000D02*
X245000D01*
X104000Y946000D02*
X230000D01*
X28000Y856000D02*
X160000D01*
X23000Y841000D02*
X146000D01*
X101000Y925000D02*
Y943000D01*
X104000Y946000D01*
X27000Y857000D02*
Y1339000D01*
Y857000D02*
X28000Y856000D01*
X12960Y851040D02*
X23000Y841000D01*
X141000Y1195000D02*
X230000D01*
X141000Y1195000D02*
X141000Y1195000D01*
X244000Y1478000D02*
X556000D01*
X230000Y1463000D02*
X257856D01*
X556000Y1478000D02*
X557000Y1477000D01*
X257856Y1463000D02*
X543000D01*
X230000Y946000D02*
X433000D01*
X434000Y945000D01*
X146000Y675000D02*
Y690000D01*
X161000Y691000D02*
X161000Y691000D01*
X45000Y1195000D02*
X129000D01*
X359000Y917000D02*
X372500Y930500D01*
X359000Y830000D02*
Y917000D01*
Y830000D02*
X366000Y823000D01*
X389000D01*
X161000Y691000D02*
X221000D01*
X126500Y690000D02*
X146000D01*
X189000Y502000D02*
Y524000D01*
X257816Y1462960D02*
X257856Y1463000D01*
X246184Y1462960D02*
X257816D01*
X1176000Y536000D02*
X1191080D01*
X1175000Y535000D02*
X1176000Y536000D01*
X560000Y535000D02*
X722000D01*
X578000Y554000D02*
X734000D01*
X12960Y1499960D02*
X13000Y1500000D01*
X129000Y1195000D02*
X141000D01*
X45000D02*
X45000Y1195000D01*
X146000Y840998D02*
Y841000D01*
X146000Y841000D01*
X450000Y930000D02*
Y930500D01*
X483500D02*
X499000Y915000D01*
X435000Y909000D02*
X460000D01*
X415000D02*
X435000D01*
X1163000Y535000D02*
X1175000D01*
X529000Y809000D02*
X544000Y824000D01*
X536998Y792998D02*
X551000Y807000D01*
X580000Y757000D02*
Y793000D01*
X602000Y727000D02*
Y777000D01*
X469000Y809000D02*
X529000D01*
X468999Y792998D02*
X536998D01*
X406000Y755000D02*
X433000D01*
X466000D01*
X484000Y775500D02*
X534500D01*
X671000Y775000D02*
Y777000D01*
Y746000D02*
Y775000D01*
Y743032D02*
Y746000D01*
X13000Y1500000D02*
Y1553000D01*
X24000Y1564000D01*
X121000D01*
X164000Y1607000D01*
X27000Y1538495D02*
X34000Y1545495D01*
X27000Y1505856D02*
Y1538495D01*
Y1505856D02*
X27040Y1505816D01*
Y1467040D02*
Y1505816D01*
X27000Y1467000D02*
X27040Y1467040D01*
X645000Y1668000D02*
Y1683000D01*
X643000Y1685000D02*
X645000Y1683000D01*
X164000Y1685000D02*
X643000D01*
X164000Y1607000D02*
Y1685000D01*
X337000Y1662000D02*
X365000D01*
X365673Y1661327D01*
Y1647500D02*
Y1661327D01*
X201000Y1662000D02*
X337000D01*
X201000Y1647828D02*
Y1662000D01*
X200672Y1647500D02*
X201000Y1647828D01*
X432000Y793000D02*
X435000Y796000D01*
X425000Y793000D02*
X432000D01*
X422500Y790500D02*
X425000Y793000D01*
X422500Y779000D02*
Y790500D01*
X389000Y780000D02*
X390000Y779000D01*
X401500D01*
X27040Y1339040D02*
Y1466960D01*
X27000Y1467000D02*
X27040Y1466960D01*
X27000Y1339000D02*
X27040Y1339040D01*
X484000Y754500D02*
X484500Y755000D01*
X189000Y451000D02*
X200000Y440000D01*
X189000Y451000D02*
Y502000D01*
X189000Y502000D02*
X189000Y502000D01*
X535000Y749600D02*
X535100Y749500D01*
X535000Y724200D02*
X537800Y727000D01*
X560000D01*
X702748Y774748D02*
X703000Y775000D01*
X702748Y742780D02*
Y774748D01*
X671000Y743032D02*
X671252Y742780D01*
X466000Y775500D02*
X484000D01*
X466000Y771000D02*
Y775500D01*
X221000Y481086D02*
Y502000D01*
X242414Y480000D02*
X264000D01*
X275000Y469000D01*
Y440000D02*
Y469000D01*
X42500Y440000D02*
Y453500D01*
X27500Y468500D02*
X42500Y453500D01*
X27500Y468500D02*
Y481500D01*
Y513500D02*
X53500D01*
X67086Y499914D01*
Y480000D02*
Y499914D01*
X117500Y440000D02*
Y465500D01*
X103000Y480000D02*
X117500Y465500D01*
X87914Y480000D02*
X103000D01*
X325000Y440000D02*
X357500D01*
X325000D02*
Y478000D01*
X357000Y480000D02*
X382086D01*
X402914D02*
X419000D01*
X432500Y466500D01*
Y440000D02*
Y466500D01*
X357500Y413500D02*
Y440000D01*
X51500Y413500D02*
X357500D01*
X42500Y422500D02*
X51500Y413500D01*
X42500Y422500D02*
Y440000D01*
X534500Y775500D02*
X535000Y775000D01*
X484500Y755000D02*
X515000D01*
X520400Y749600D01*
X535000D01*
X535100Y749500D02*
X560000D01*
Y743000D02*
Y749500D01*
X466000Y755000D02*
X466500Y754500D01*
X484000D01*
X401500Y759500D02*
Y779000D01*
Y759500D02*
X406000Y755000D01*
X560500Y743500D02*
Y757000D01*
X580000D01*
X412000Y878000D02*
Y906000D01*
X389000Y780000D02*
Y819000D01*
X435000Y796000D02*
Y819000D01*
X422500Y779000D02*
X426000Y775500D01*
X484000Y730000D02*
Y754500D01*
X895500Y1518000D02*
X896000Y1517500D01*
X901498Y1547220D02*
X905000Y1543718D01*
X746500Y1516000D02*
X751498Y1520998D01*
Y1544720D01*
X874500Y1518000D02*
X874500Y1518000D01*
Y1542282D01*
X869782Y1547000D02*
X874500Y1542282D01*
X869782Y1547000D02*
X870002Y1547220D01*
X725500Y1516000D02*
Y1539222D01*
X720002Y1544720D02*
X725500Y1539222D01*
X706040Y778040D02*
X706080Y778000D01*
X703000Y775000D02*
X706040Y778040D01*
X460000Y909000D02*
X483000D01*
X485000D01*
X450000Y930500D02*
X465000D01*
X483500D01*
X1141000Y535000D02*
X1163000D01*
X1131000Y548000D02*
X1154000D01*
X543000Y1463000D02*
X633000D01*
X557000Y1477000D02*
X617000D01*
X465500Y776000D02*
X466000Y775500D01*
X452000Y776000D02*
X465500D01*
X426000Y775500D02*
X426500Y776000D01*
X452000D01*
Y822000D01*
X532000Y862000D02*
X560000D01*
X485000Y909000D02*
X532000Y862000D01*
X483000Y945000D02*
X488000D01*
X467000Y962000D02*
X492000D01*
X499000Y915000D02*
X536000Y878000D01*
X578000D01*
X245000Y962000D02*
X449040D01*
X434000Y945000D02*
X435000Y946000D01*
X488000Y945000D02*
X540960Y892040D01*
X551000Y807000D02*
X644000D01*
X602000Y777000D02*
X671000D01*
X580000Y793000D02*
X702500D01*
X644000Y807000D02*
X645000Y808000D01*
X560000Y862000D02*
X697000D01*
X578000Y878000D02*
X699000D01*
X540960Y892040D02*
X702960D01*
X492000Y962000D02*
X548000Y906000D01*
X709000D01*
X44000Y1209000D02*
X157000D01*
X244000D01*
X734000Y554000D02*
X740000Y548000D01*
X722000Y535000D02*
X723000Y536000D01*
X1140000D02*
X1141000Y535000D01*
X740000Y548000D02*
X867000D01*
X1131000D01*
X858000Y536000D02*
X1140000D01*
X723000D02*
X858000D01*
X724040Y870960D02*
X811000D01*
X709000Y906000D02*
X729000Y886000D01*
X791000D01*
X702960Y892040D02*
X724040Y870960D01*
X1143000Y856000D02*
X1144000Y857000D01*
X699000Y878000D02*
X721000Y856000D01*
X697000Y862000D02*
X718000Y841000D01*
X721000Y856000D02*
X1143000D01*
X1158000Y841000D02*
X1159000Y840000D01*
X718000Y841000D02*
X1158000D01*
X544000Y824000D02*
X683000D01*
X703000Y804000D01*
Y775000D02*
Y804000D01*
X1191960Y763960D02*
X1193000Y765000D01*
X728000Y763960D02*
X1191960D01*
X706080Y778000D02*
X1176000D01*
X791000Y1026000D02*
Y1041000D01*
X335000Y1660000D02*
X337000Y1662000D01*
X335000Y1644000D02*
Y1660000D01*
X1354500Y1130000D02*
X1408154D01*
X1481000D01*
X1192500Y1115500D02*
X1193000Y1116000D01*
X1354000D01*
X1329000Y1130000D02*
X1354500D01*
X1178000D02*
X1329000D01*
X811000Y1001000D02*
Y1031000D01*
X1354000Y1116000D02*
X1466000D01*
X412000Y819000D02*
Y878000D01*
X389000Y819000D02*
Y823000D01*
X372500Y930500D02*
X450000D01*
X1131000Y570000D02*
X1132000Y571000D01*
X789000Y1043000D02*
X791000Y1041000D01*
X221000Y481086D02*
X222086Y480000D01*
X12960Y851040D02*
Y1499960D01*
X560000Y727000D02*
X602000D01*
X412000Y906000D02*
X415000Y909000D01*
D58*
X420000Y1060000D02*
X420000Y1060000D01*
X376250Y1553000D02*
X385750D01*
X103000Y707000D02*
X117000Y721000D01*
X127000Y692500D02*
Y735000D01*
X125500Y691000D02*
X127000Y692500D01*
X47000Y707000D02*
X103000D01*
X117000Y721000D02*
Y754000D01*
X44086Y704086D02*
X47000Y707000D01*
X44086Y691000D02*
Y704086D01*
X64914Y691000D02*
X93500D01*
X69500Y721000D02*
Y786000D01*
X115000Y906000D02*
Y931000D01*
X90000Y906000D02*
X115000D01*
X199000Y1534000D02*
X200250D01*
X200000Y1504000D02*
Y1533000D01*
Y1504000D02*
X259000D01*
Y1285000D02*
X406000D01*
Y1142000D02*
X462250D01*
X97000Y1211000D02*
Y1256000D01*
X143000Y1169750D02*
Y1193000D01*
Y1168750D02*
Y1169750D01*
X254000Y1222000D02*
X462250D01*
X217500Y1250000D02*
X226000D01*
X254000Y1222000D01*
X135500Y586000D02*
X158500D01*
X135000Y623500D02*
X158500D01*
X216000Y1478000D02*
X244000D01*
X206000Y1468000D02*
X216000Y1478000D01*
X105000Y642000D02*
X219000D01*
X52000Y1354002D02*
X101998D01*
X158500Y604000D02*
X221000D01*
X125500Y665500D02*
Y691000D01*
X122000Y662000D02*
X125500Y665500D01*
X24000Y828000D02*
X101000D01*
X219000Y642000D02*
X220000Y643000D01*
X96750Y1256750D02*
Y1275500D01*
X196000Y1458000D02*
Y1477000D01*
X173000Y1458000D02*
X196000D01*
X168250Y1479000D02*
Y1495750D01*
X160000Y1504000D02*
X168250Y1495750D01*
X184000Y1404000D02*
X185000Y1403000D01*
X173000Y1404000D02*
X184000D01*
X458000Y1423000D02*
X559000D01*
X988998Y1438997D02*
X1116997D01*
X992824Y1448960D02*
X1114175D01*
X987000Y1510000D02*
X987500Y1509500D01*
Y1498250D02*
Y1509500D01*
X987000Y1510000D02*
Y1521000D01*
X989000Y1523000D01*
X1114175Y1448960D02*
X1114256Y1449040D01*
X1116997Y1438997D02*
X1118000Y1440000D01*
X977000Y1449000D02*
X977040Y1448960D01*
X988998Y1438997D02*
Y1439002D01*
X988000Y1440000D02*
X988998Y1439002D01*
X1171000Y1595000D02*
Y1648000D01*
Y1595000D02*
X1183000D01*
X1144000Y1257000D02*
X1206000D01*
X1249750Y1198000D02*
X1267000D01*
X1206000Y1257000D02*
Y1267000D01*
X1188500Y1269500D02*
Y1283750D01*
X1207000Y1283250D02*
X1207500Y1283750D01*
X1207000Y1267000D02*
Y1283250D01*
X1220500Y1585500D02*
X1251000D01*
X1207000D02*
X1220500D01*
X1195722Y1647967D02*
Y1648000D01*
X1171000D02*
X1195722D01*
X1207000Y1604500D02*
Y1605000D01*
X1319000Y1476750D02*
Y1516000D01*
X1329000Y1526000D01*
X1350448D01*
X1332000Y1206500D02*
X1332500D01*
X1350448Y1526000D02*
X1353750Y1529302D01*
Y1551000D01*
X1353900Y1464000D02*
X1354220D01*
X1455000Y1223000D02*
X1456000D01*
Y1190000D02*
Y1223000D01*
X1441000Y1190000D02*
X1456000D01*
X1441000Y1189414D02*
Y1190000D01*
X1396100Y1240000D02*
X1408500D01*
Y1226000D02*
Y1240000D01*
X1423000Y1223000D02*
Y1226000D01*
X1408500D02*
X1423000D01*
X1301500Y1207500D02*
X1302000Y1208000D01*
X1291000Y1207500D02*
X1301500D01*
X1312500Y1188500D02*
X1314000Y1190000D01*
X1314000D02*
X1314000D01*
X1314000D02*
Y1204000D01*
X1291000Y1188500D02*
X1312500D01*
X1408000Y1145000D02*
X1408500D01*
X1191080Y536000D02*
X1193080Y534000D01*
X1189040Y533960D02*
X1191080Y536000D01*
X1232000Y478000D02*
X1240000D01*
X890750Y1018000D02*
X909000D01*
X1204000Y638000D02*
Y650000D01*
X1194000Y637000D02*
X1204000D01*
X865000Y392000D02*
X865150Y391850D01*
X827000Y369000D02*
Y370000D01*
X811000D02*
X827000D01*
X811000Y355000D02*
Y370000D01*
X1028950Y352050D02*
X1029000Y352000D01*
X1224000Y936000D02*
X1227000Y933000D01*
X1207000Y943000D02*
X1244000D01*
X1195000Y936000D02*
X1224000D01*
X1349000Y774000D02*
Y785000D01*
Y774000D02*
X1350000Y773000D01*
X1425250Y754250D02*
X1437000Y766000D01*
X1390750Y754250D02*
X1425250D01*
X1288000Y906000D02*
Y923000D01*
X1285000Y926000D02*
X1288000Y923000D01*
X1261000Y926000D02*
X1285000D01*
X1261000Y968000D02*
X1262000Y967000D01*
X1280500D01*
X1242000Y954000D02*
X1242300Y954300D01*
X1378000Y825000D02*
X1378751Y825751D01*
X1452000D01*
X1032000Y387000D02*
Y399000D01*
X1028950Y383950D02*
X1032000Y387000D01*
X1028950Y368500D02*
Y383950D01*
X1244000Y202000D02*
X1261000D01*
X1263414Y896000D02*
Y910000D01*
Y886414D02*
Y896000D01*
X1206000D02*
X1263414D01*
X1263000Y886000D02*
X1263414Y886414D01*
X1242586Y924586D02*
X1244000Y926000D01*
X1242586Y910000D02*
Y924586D01*
X1244000Y943000D02*
Y947500D01*
X1206000Y944000D02*
X1207000Y943000D01*
X1244000Y947500D02*
Y949500D01*
X1206000Y944000D02*
Y952000D01*
X1430000Y951000D02*
Y993000D01*
X1430748Y992253D01*
X1465000D01*
X1416000Y948000D02*
X1427000D01*
X1430000Y951000D01*
X1415000Y1031750D02*
X1428250D01*
X1415000Y1049000D02*
Y1064500D01*
X1414750Y1064750D02*
X1415000Y1064500D01*
X1401000Y1064750D02*
X1414750D01*
X1389000Y1064000D02*
X1390000Y1065000D01*
X1389000Y1058000D02*
Y1064000D01*
X1386900Y1055900D02*
X1389000Y1058000D01*
X1377500Y1055900D02*
X1386900D01*
X1387200Y1043200D02*
X1392000Y1048000D01*
X1377500Y1043200D02*
X1387200D01*
X1387500Y1030500D02*
X1393000Y1036000D01*
X1377500Y1030500D02*
X1387500D01*
X1377500Y1017800D02*
X1398800D01*
X1415000Y964750D02*
Y974000D01*
X1388700Y979700D02*
X1390000Y981000D01*
X1377500Y979700D02*
X1388700D01*
X1390000Y967000D02*
X1391000Y966000D01*
X1377500Y967000D02*
X1390000D01*
X1392000Y953000D02*
X1400000D01*
X1390700Y954300D02*
X1392000Y953000D01*
X1377500Y954300D02*
X1390700D01*
X1412750Y936750D02*
X1415000Y939000D01*
X1401000Y936750D02*
X1412750D01*
X1389400Y941600D02*
X1394000Y937000D01*
X1377500Y941600D02*
X1389400D01*
X1416000Y1013000D02*
Y1016000D01*
X1414000Y1011000D02*
X1416000Y1013000D01*
X1414000Y1011000D02*
Y1011000D01*
X1377500Y1005100D02*
X1377600Y1005000D01*
X1206000Y1040000D02*
X1207000Y1041000D01*
X1217000Y1024000D02*
X1247000D01*
X1206000Y985000D02*
X1227000D01*
X1247000Y1024000D02*
X1248000Y1025000D01*
X1283000Y942000D02*
X1294000D01*
X1297000Y945000D01*
Y978400D01*
X1295700Y979700D02*
X1297000Y978400D01*
X1280500Y979700D02*
X1295700D01*
X1264000Y981000D02*
Y1005100D01*
X1264000Y993000D02*
X1264600Y992400D01*
X1280500D01*
X1265000Y980000D02*
X1280000D01*
X1264000Y981000D02*
X1265000Y980000D01*
X1179000Y953000D02*
X1179000Y953000D01*
X1179000Y937000D02*
Y953000D01*
X1179000Y953000D02*
X1187000D01*
X1197000Y963000D01*
X1213000D01*
X1217998Y958002D01*
Y954998D02*
Y958002D01*
X1227000Y972250D02*
Y985000D01*
Y971000D02*
Y972250D01*
X1205750D02*
X1227000D01*
X1207000Y1041000D02*
X1249000D01*
X1015000Y399000D02*
Y412000D01*
X1015000Y412000D01*
X1016000Y400000D02*
X1016250Y399750D01*
X1141000Y680000D02*
X1168000D01*
X1221500Y565500D02*
Y565500D01*
X876254Y298039D02*
X1026961D01*
X876214Y298000D02*
X876254Y298039D01*
X864000Y298000D02*
X876214D01*
X864000Y295000D02*
Y298000D01*
X880250Y288750D02*
X1016250D01*
X879998Y288999D02*
X880001D01*
X879998Y288002D02*
Y288999D01*
X952750Y368500D02*
Y385750D01*
X1016250Y246750D02*
Y271500D01*
Y288750D01*
X605000Y454000D02*
X670000D01*
X1096000Y259000D02*
Y275000D01*
X1079000Y257000D02*
X1080000Y258000D01*
X1079000Y238750D02*
Y257000D01*
X1055000Y258000D02*
X1080000D01*
X1055000Y247000D02*
Y258000D01*
X1035000Y247000D02*
X1055000D01*
X1034000Y246000D02*
X1035000Y247000D01*
X1033000D02*
X1034000Y246000D01*
X1032000D02*
X1033000Y247000D01*
X1030000Y217000D02*
X1043000D01*
X1029000Y143000D02*
X1043000D01*
X1021000Y155000D02*
X1055000D01*
X1098000Y206000D02*
Y211250D01*
Y206000D02*
X1110000D01*
X814000Y271000D02*
X827000D01*
X814000D02*
Y279000D01*
X916000Y269000D02*
X917000Y268000D01*
X928000D01*
Y279000D01*
X915000Y288000D02*
X915950Y287050D01*
X940000Y288000D02*
X940050Y287950D01*
Y271500D02*
Y287950D01*
X1026961Y298039D02*
X1029000Y296000D01*
Y273000D02*
Y296000D01*
X879998Y288002D02*
X880000Y288000D01*
X880001Y288999D02*
X880250Y288750D01*
X1009000Y246000D02*
X1016000D01*
X1004000Y251000D02*
X1009000Y246000D01*
X991000Y155000D02*
X1021000D01*
X974998Y143000D02*
X1029000D01*
X1032000Y246000D02*
Y254000D01*
X1029000Y257000D02*
X1032000Y254000D01*
X255000Y562000D02*
Y593000D01*
Y562000D02*
X260500Y556500D01*
Y542000D02*
Y556500D01*
X141000Y1195000D02*
X143000Y1193000D01*
X69000Y795000D02*
X69500Y794500D01*
Y786000D02*
Y794500D01*
X22000Y724000D02*
X23000Y723000D01*
X13000Y724000D02*
X22000D01*
X13000D02*
Y786000D01*
X24500D01*
X24000Y788000D02*
X25000Y787000D01*
X24000Y788000D02*
Y828000D01*
X460000Y871414D02*
Y909000D01*
X1386000Y193000D02*
X1387000Y192000D01*
X1450750Y151250D02*
X1451000Y151000D01*
X1413500Y151250D02*
X1450750D01*
X1399750Y148750D02*
X1402000Y151000D01*
X1387500Y148750D02*
X1399750D01*
X1369000Y148000D02*
Y181000D01*
X1367000Y183000D02*
X1369000Y181000D01*
X1400000Y166000D02*
X1412000D01*
X1396250Y169750D02*
X1400000Y166000D01*
X1387500Y169750D02*
X1396250D01*
X1413500Y167250D02*
X1449250D01*
X1262000Y193000D02*
X1386000D01*
X1202000Y574000D02*
X1207000D01*
X1202000Y566000D02*
Y574000D01*
X1207000D02*
Y587000D01*
X1174250Y535750D02*
X1175000Y535000D01*
X1174250Y535750D02*
Y546500D01*
X1219000Y680000D02*
Y689000D01*
X1212000D02*
X1219000D01*
X1212000Y665000D02*
Y679500D01*
X1211000Y664000D02*
X1212000Y665000D01*
X1199750Y664000D02*
X1211000D01*
X1184500Y664500D02*
Y679500D01*
X1212000Y698500D02*
X1228500D01*
X1212000D02*
Y708000D01*
X1211000Y709000D02*
X1212000Y708000D01*
X1185000Y680000D02*
X1185000Y680000D01*
X916000Y385000D02*
X919000D01*
X915950Y384950D02*
X916000Y385000D01*
X1003000Y427000D02*
X1003750Y426250D01*
Y413000D02*
Y426250D01*
X1003000Y412000D02*
Y413000D01*
Y399000D02*
Y412000D01*
X1015000Y399000D02*
X1016000D01*
X1005000D02*
X1015000D01*
X1004000Y400000D02*
X1005000Y399000D01*
X989500Y1566250D02*
Y1567500D01*
X979000D02*
X989500D01*
X979000Y1552500D02*
Y1567500D01*
X1039500Y1554500D02*
X1060000D01*
X1039500Y1540000D02*
Y1554500D01*
X1058500Y1540000D02*
Y1553000D01*
X1060000Y1554500D01*
X1028000Y1567500D02*
X1039500D01*
X1039500Y1567500D01*
X1208000Y1334420D02*
Y1353000D01*
X135000Y586500D02*
X135500Y586000D01*
X259000Y524500D02*
X259500Y524000D01*
X259000Y524500D02*
Y531250D01*
X260500Y532750D01*
Y542000D01*
X239500Y525000D02*
X240500Y524000D01*
X239500Y525000D02*
Y542000D01*
X221000Y524000D02*
X240500D01*
X79000Y629000D02*
Y662000D01*
X68414Y607000D02*
X97000D01*
X104000Y614000D01*
X111000D01*
X68414Y588500D02*
X91500D01*
X103000Y577000D01*
X111000D01*
X78000Y568000D02*
X91000D01*
X78000Y628000D02*
X91000D01*
X46000Y586914D02*
X47586Y588500D01*
X46000Y568000D02*
Y586914D01*
Y608586D02*
X47586Y607000D01*
X46000Y608586D02*
Y628000D01*
X78000D02*
X79000Y629000D01*
Y662000D02*
X122000D01*
X94000Y778000D02*
X107500D01*
X250000Y493000D02*
Y500000D01*
X249000Y492000D02*
X250000Y493000D01*
X243750Y492000D02*
X249000D01*
X242414Y490664D02*
X243750Y492000D01*
X242414Y480000D02*
Y490664D01*
X635000Y429000D02*
X690000D01*
X1390750Y773250D02*
X1391000Y773000D01*
X1401000D01*
X1351000Y755000D02*
X1351750Y754250D01*
X1363250D01*
X1241998Y860998D02*
X1242500Y861500D01*
X1261500Y820000D02*
Y824000D01*
X1265500Y1030500D02*
X1280500D01*
X1265000Y1031000D02*
X1265500Y1030500D01*
X1265000Y1031000D02*
Y1041000D01*
X1267200Y1043200D01*
X1249000Y1041000D02*
X1251200Y1043200D01*
X1267200D01*
X1280500D01*
X1264000Y1017800D02*
X1280500D01*
X1264000Y1005100D02*
Y1017800D01*
X1249000Y1006000D02*
Y1025000D01*
Y1006000D02*
X1249900Y1005100D01*
X1264000D01*
X1280500D01*
X460000Y871414D02*
X463000Y868414D01*
X194000Y1479000D02*
X196000Y1477000D01*
X184000Y1479000D02*
X194000D01*
X616000Y1564000D02*
Y1574000D01*
X572500Y1549500D02*
X573000Y1550000D01*
X516000Y1531000D02*
X529000D01*
X556000Y1561000D02*
X558000Y1559000D01*
Y1550000D02*
Y1559000D01*
X552750Y1564250D02*
Y1578000D01*
Y1564250D02*
X556000Y1561000D01*
X1261000Y202000D02*
X1262000Y203000D01*
Y193000D02*
Y203000D01*
Y203000D01*
X915950Y373000D02*
Y384950D01*
X1289000Y510000D02*
X1309000D01*
X1016250Y352250D02*
Y368500D01*
X940000Y352000D02*
X1016000D01*
X1016250Y352250D01*
X1028950Y352050D02*
Y368500D01*
X1294000Y555000D02*
X1304000Y545000D01*
X1413500Y549000D02*
X1447000D01*
X1450000Y552000D01*
Y562000D01*
X1174250Y565500D02*
Y573750D01*
X1163000Y535000D02*
X1164000Y536000D01*
X1131000Y569000D02*
X1132000Y570000D01*
Y591414D02*
X1149414D01*
X1281000Y638000D02*
Y669000D01*
Y638000D02*
X1286000Y633000D01*
X1306000D01*
X1175000Y604750D02*
X1182250D01*
X1185000Y602000D01*
X1191000D01*
X1184000Y664000D02*
X1184250D01*
X1185000D01*
X1192750Y650000D02*
X1204000D01*
X1212000Y679500D02*
X1219000D01*
X989000Y1620000D02*
Y1664000D01*
X1084500Y1567000D02*
Y1589500D01*
X1131500D01*
X1132000Y1589000D01*
X1189000Y574000D02*
X1202000D01*
X1131000Y548000D02*
Y569000D01*
X1319000Y1252000D02*
X1332000D01*
Y1206500D02*
Y1252000D01*
X1008500Y1538750D02*
Y1545500D01*
X1304000Y1531500D02*
Y1545000D01*
X1306000Y1547000D01*
X1006500Y1470750D02*
X1016000D01*
X1118000Y1505739D02*
Y1506478D01*
Y1511957D01*
X1121745Y1449040D02*
X1121785Y1449000D01*
X1130000D01*
X992745Y1449040D02*
X992824Y1448960D01*
X1114256Y1449040D02*
X1121745D01*
X1119479Y1505000D02*
X1225000D01*
X977040Y1448960D02*
X992824D01*
X1008500Y1566250D02*
Y1589500D01*
X1059500D01*
X1060000Y1589000D01*
X1058500Y1567500D02*
X1084000D01*
X1084500Y1567000D01*
X1006000Y1511957D02*
X1006497D01*
X1180000Y1343000D02*
X1190000D01*
X1031497Y1523000D02*
X1066216D01*
X1066255Y1522960D01*
X1130000Y1515000D02*
Y1523000D01*
X1006497Y1511957D02*
X1006997Y1512457D01*
X1027675Y1567825D02*
X1028000Y1567500D01*
X1027675Y1567825D02*
Y1579540D01*
X1028000Y1561000D02*
Y1567500D01*
X1008500Y1545500D02*
X1020000D01*
Y1552500D01*
X1006000Y1511460D02*
X1006497Y1511957D01*
X1030000Y1498500D02*
X1041250D01*
X1030000Y1521503D02*
Y1523000D01*
X989000D02*
X1030000D01*
X984250Y1538750D02*
X989500D01*
X979000Y1544000D02*
X984250Y1538750D01*
X979000Y1544000D02*
Y1552500D01*
X1060000Y1554500D02*
X1060500Y1555000D01*
X1071000D01*
X1130000Y1515000D02*
X1131000Y1514000D01*
X1196960D01*
X1197003Y1513957D01*
X1209742D01*
X1209785Y1514000D01*
X1221216D01*
X1221255Y1514040D01*
X1228745D01*
X1228784Y1514000D01*
X1234500D01*
X1043000Y143000D02*
X1044960Y141040D01*
X1144960D01*
X1145000Y141000D01*
X1055000Y155000D02*
X1144000D01*
X1249000Y183000D02*
X1367000D01*
X1233000Y199000D02*
X1249000Y183000D01*
X1233000Y199000D02*
Y219000D01*
X1066255Y1522960D02*
X1073745D01*
X1073784Y1523000D01*
X1130000D01*
X868251Y1584531D02*
Y1607749D01*
Y1584531D02*
X870002Y1582780D01*
X954000Y1589850D02*
Y1604000D01*
Y1589850D02*
X954750Y1589100D01*
X932000Y1589100D02*
Y1604000D01*
Y1589100D02*
X933000Y1588100D01*
X901498Y1582780D02*
Y1616502D01*
X947502D01*
X948248Y1617248D01*
Y1647500D01*
X933000Y1554750D02*
Y1569900D01*
Y1554750D02*
X934000Y1553750D01*
X953000D02*
Y1569150D01*
X954750Y1570900D01*
X989000Y1664000D02*
X1107000D01*
X800000Y1612350D02*
X800750Y1611600D01*
X751498Y1580280D02*
Y1627498D01*
X800747Y1637747D02*
Y1647500D01*
X780750Y1611600D02*
Y1622000D01*
X800000Y1612350D02*
Y1622000D01*
X751498Y1627498D02*
X757000Y1633000D01*
X796000D01*
X800747Y1637747D01*
X720000Y1580282D02*
Y1603000D01*
Y1580282D02*
X720002Y1580280D01*
X780750Y1577750D02*
Y1593400D01*
X800750Y1577750D02*
Y1593400D01*
X981815Y478040D02*
X981855Y478000D01*
X1202255Y1329040D02*
X1202620D01*
X1208000Y1334420D01*
X1130040Y1326960D02*
X1200175D01*
X1129250Y1327750D02*
X1130040Y1326960D01*
X1200175D02*
X1202255Y1329040D01*
X1142000Y1336000D02*
X1179750D01*
Y1358000D01*
X557000Y1613250D02*
X605250D01*
X612000Y1620000D01*
Y1646250D01*
X610750Y1647500D02*
X612000Y1646250D01*
X543250Y1602000D02*
Y1609750D01*
X543000Y1610000D02*
X543250Y1609750D01*
X543000Y1610000D02*
X546250Y1613250D01*
X557000D01*
Y1530500D02*
Y1540000D01*
Y1530500D02*
X564500D01*
X568250Y1534250D01*
X574000D01*
X529000Y1550000D02*
X529500Y1549500D01*
X529000Y1550000D02*
Y1563000D01*
X533750Y1567750D01*
Y1578000D01*
X630748Y1599252D02*
Y1647500D01*
Y1599252D02*
X635500Y1594500D01*
Y1580000D02*
Y1594500D01*
X625750Y1563750D02*
X635250D01*
Y1579750D01*
X635500Y1580000D01*
X637000Y1555000D02*
X648000D01*
X635250Y1556750D02*
X637000Y1555000D01*
X635250Y1556750D02*
Y1563750D01*
X645000Y1534000D02*
Y1539000D01*
X557000Y1549500D02*
X572500D01*
X574000Y1523000D02*
Y1534250D01*
X465749Y1633251D02*
Y1647500D01*
X436500Y1580500D02*
X437000Y1581000D01*
X436000D02*
X437000D01*
X435000Y1552000D02*
X437250Y1554250D01*
X448750D01*
X467750D02*
X468000Y1554000D01*
X458250Y1537250D02*
Y1554250D01*
X458000Y1537000D02*
X458250Y1537250D01*
X474000Y1537000D02*
Y1554000D01*
X474000Y1554000D02*
X474000Y1554000D01*
X468000Y1554000D02*
X474000D01*
X481000D01*
X574000Y1348750D02*
Y1358000D01*
X574000Y1358000D02*
X574000Y1358000D01*
X458000Y1524000D02*
Y1537000D01*
X458000Y1537000D01*
X561000Y1348750D02*
Y1358000D01*
X561000Y1358000D02*
X561000Y1358000D01*
X219500Y1585000D02*
X247000D01*
X219500Y1557500D02*
X226500D01*
X226000Y1534000D02*
X226500Y1534500D01*
Y1557500D01*
X200500D02*
X210000D01*
X188500D02*
X200500D01*
X187000Y1556000D02*
X188500Y1557500D01*
X187000Y1550000D02*
Y1556000D01*
X200500Y1535500D02*
Y1557500D01*
X214500Y1534000D02*
X215750D01*
X226000D01*
X278000Y1545000D02*
X280000Y1547000D01*
Y1554750D01*
X279500Y1555250D02*
X280000Y1554750D01*
X277750Y1531000D02*
Y1541750D01*
X248000Y1567000D02*
X268000D01*
X270000Y1565000D01*
Y1555250D02*
Y1565000D01*
X248000Y1550000D02*
Y1554000D01*
X249250Y1555250D01*
X260500D01*
X366000Y1547000D02*
Y1553000D01*
X376250D01*
X375500Y1534250D02*
Y1542500D01*
X376000Y1543000D01*
Y1552750D01*
X376250Y1553000D01*
X391000Y1534250D02*
X400250D01*
X405000Y1539000D01*
X707000Y1328000D02*
X707250Y1327750D01*
X574000Y1422000D02*
X575040Y1423040D01*
X705960D02*
X707000Y1422000D01*
X575040Y1423040D02*
X705960D01*
X278000Y1542000D02*
Y1545000D01*
X277750Y1541750D02*
X278000Y1542000D01*
X427000Y1626000D02*
X457000D01*
X467750Y1581750D02*
Y1631250D01*
X465749Y1633251D02*
X467750Y1631250D01*
X377750Y1614000D02*
X378000Y1613750D01*
X200500Y1585000D02*
Y1598250D01*
X203000Y1600750D01*
X279500Y1582750D02*
Y1598500D01*
X280000Y1600000D02*
X281000D01*
X124500Y1493000D02*
X136000D01*
X124000Y1493500D02*
X124500Y1493000D01*
X156000Y1479000D02*
X168250D01*
X153000Y1476000D02*
X156000Y1479000D01*
X153000Y1454000D02*
Y1476000D01*
X101998Y1354002D02*
X102000Y1354000D01*
X126000Y1363500D02*
X126500Y1363000D01*
X134000D01*
X405000Y1539000D02*
Y1553000D01*
X395250D02*
X405000D01*
X435000Y1541000D02*
Y1552000D01*
X418000Y1047000D02*
X461250D01*
X462250Y1046000D01*
X1177000Y650000D02*
Y664000D01*
X1184000D01*
X1131000Y696000D02*
X1168000D01*
X420000Y1060000D02*
X462250D01*
X553000Y920000D02*
X593000D01*
X418000Y976000D02*
X497000D01*
X553000Y920000D01*
X1173000Y575000D02*
X1174250Y573750D01*
X1149998Y559999D02*
Y570002D01*
X1164000Y536000D02*
Y571216D01*
X1163960Y571255D02*
X1164000Y571216D01*
X1163960Y571255D02*
Y578745D01*
X1164000Y578784D01*
Y589000D01*
X1175000D01*
X1320000Y484000D02*
X1321000Y485000D01*
X1377256D02*
X1377296Y484960D01*
X1321000Y485000D02*
X1377256D01*
X1424000Y474000D02*
X1426000Y472000D01*
X1309000Y474000D02*
X1424000D01*
X1377296Y484960D02*
X1413960D01*
X1418000Y489000D01*
X1424386D01*
X1277000Y709000D02*
X1281000Y705000D01*
Y669000D02*
Y705000D01*
X1211000Y709000D02*
X1277000D01*
X1261500Y820000D02*
X1271000D01*
X1241998Y860998D02*
X1241998D01*
X1280000Y785000D02*
X1349000D01*
X1379500Y549000D02*
X1392000D01*
X1201750Y565500D02*
X1221500D01*
X1193080Y534000D02*
X1206000D01*
X1410960Y533960D02*
X1411000Y534000D01*
X1201750Y546500D02*
X1212500D01*
X1216000Y543000D01*
X1231000D01*
X981855Y478000D02*
X1232000D01*
X921000Y478040D02*
X981815D01*
X884744Y443040D02*
X884784Y443000D01*
X974040Y433040D02*
X975000Y434000D01*
X878040Y443040D02*
X884744D01*
X878000Y443000D02*
X878040Y443040D01*
X864000Y443000D02*
X878000D01*
X984000D02*
X985000Y444000D01*
X884784Y443000D02*
X971216D01*
X971255Y443040D01*
X978745D01*
X978784Y443000D01*
X984000D01*
X791000Y1274000D02*
X799000D01*
X789000Y1272000D02*
X791000Y1274000D01*
X518000Y1266000D02*
X525000Y1259000D01*
X531000D01*
X760000Y1032000D02*
Y1044000D01*
X789000Y1064000D02*
X789500Y1064500D01*
X778000Y1064000D02*
X789000D01*
X786000Y1061000D02*
X789000Y1064000D01*
X448750Y1581750D02*
Y1614750D01*
X202000Y1601750D02*
X203000Y1600750D01*
X202000Y1601750D02*
Y1614000D01*
X1207000Y1605000D02*
X1220000D01*
X1377500Y992400D02*
X1397400D01*
X1402000Y997000D01*
X1415000Y974000D02*
X1415000Y974000D01*
Y997000D01*
X1377600Y1005000D02*
X1408000D01*
X1414000Y1011000D01*
X1428250Y1031750D02*
X1430000Y1030000D01*
Y993000D02*
Y1030000D01*
X1402000Y997000D02*
X1415000D01*
X1408500Y1145000D02*
X1411000Y1147500D01*
X1441414Y1168586D02*
X1443000Y1167000D01*
X1440000Y1168586D02*
X1441000D01*
X1441414D01*
X1411000Y1147500D02*
X1426000D01*
Y1167000D01*
X1014998Y422999D02*
X1028001D01*
X1032000Y419000D01*
Y399000D02*
Y419000D01*
X645000Y1539000D02*
X660000D01*
X661000Y1540000D01*
Y1579000D01*
X660000Y1580000D02*
X661000Y1579000D01*
X651000Y1580000D02*
X660000D01*
X376250Y1580500D02*
Y1599250D01*
X378000Y1601000D01*
Y1613750D01*
X53750Y1256000D02*
X54000Y1255750D01*
Y1227000D02*
Y1255750D01*
X54500Y1504000D02*
X160000D01*
X54500Y1484002D02*
X99002D01*
X1408500Y1206500D02*
X1409000Y1206000D01*
X1395000Y1215000D02*
X1408500D01*
Y1206500D02*
Y1206500D01*
Y1215000D01*
Y1226000D01*
X940000Y352000D02*
Y368450D01*
X940050Y368500D01*
X882000Y433000D02*
X882040Y433040D01*
X974040D01*
X96000Y816000D02*
X115000D01*
X916000Y354000D02*
Y373000D01*
X919000Y385000D02*
Y402000D01*
X1003000Y412000D02*
X1004000Y413000D01*
X1016250Y368500D02*
Y399750D01*
X1228500Y698500D02*
X1231000Y696000D01*
X1242500Y851500D02*
Y861500D01*
X1304000Y545000D02*
X1359000D01*
X1369000Y148000D02*
X1389000D01*
X1402000Y151000D02*
X1414000D01*
X1006497Y1511957D02*
X1118000D01*
Y1506478D02*
X1119479Y1505000D01*
X1426000Y1167000D02*
X1443000D01*
X1390000Y981000D02*
X1401000D01*
X69000Y795000D02*
X97000D01*
X1390000Y1065000D02*
X1401000D01*
X1219000Y679500D02*
X1231500D01*
X1232000Y680000D01*
X1392000Y1048000D02*
X1401000D01*
X1149000Y571000D02*
X1149998Y570002D01*
X199000Y1534000D02*
X200000Y1533000D01*
X199000Y1534000D02*
X200500Y1535500D01*
X1394000Y937000D02*
X1401000D01*
X1415000Y939000D02*
Y949000D01*
X1188500Y1269500D02*
X1191000Y1267000D01*
X1393000Y1036000D02*
X1401000D01*
X1437000Y766000D02*
X1452000D01*
X1398800Y1017800D02*
X1401000Y1020000D01*
X909000Y1018000D02*
X910000Y1017000D01*
X1242300Y954300D02*
X1280500D01*
X1149414Y591414D02*
X1151000Y593000D01*
X279500Y1598500D02*
X281000Y1600000D01*
X990000Y156000D02*
X991000Y155000D01*
X1029000Y257000D02*
Y272000D01*
X129000Y1168750D02*
Y1195000D01*
X53500Y1255500D02*
Y1275500D01*
X185000Y1390000D02*
Y1403000D01*
X635000Y1534000D02*
Y1537000D01*
Y1534000D02*
X645000D01*
X1184000Y664000D02*
X1184500Y664500D01*
X1168000Y680000D02*
X1185000D01*
X1189040Y533960D02*
X1410960D01*
X1387000Y169000D02*
Y192000D01*
X1449250Y167250D02*
X1453000Y171000D01*
X1041250Y1498500D02*
Y1500250D01*
X1030000Y1521503D02*
X1031497Y1523000D01*
X395250Y1580500D02*
X436500D01*
X865150Y368500D02*
Y391850D01*
X1391000Y966000D02*
X1401000D01*
D59*
X263000Y1520000D02*
X426000D01*
X347094Y1515000D02*
X434000D01*
X191000Y1027000D02*
Y1048000D01*
X206000Y1037000D02*
Y1057000D01*
X191000Y1027000D02*
X271000D01*
X191000Y1048000D02*
X191000Y1048000D01*
X218000Y1057500D02*
X243500D01*
X82000Y1127700D02*
X141950D01*
X193000Y1079000D02*
X204000D01*
X191000Y1077000D02*
X193000Y1079000D01*
X125000Y801000D02*
Y826000D01*
X118500Y794500D02*
X125000Y801000D01*
X97000Y794500D02*
X118500D01*
X257000Y1249000D02*
X462250D01*
X280000Y1195000D02*
X462250D01*
X194000Y1171000D02*
X296630D01*
X177000D02*
X194000D01*
Y1158000D02*
Y1171000D01*
X181000Y1227000D02*
Y1234000D01*
X177000Y1223000D02*
X181000Y1227000D01*
X163040Y1179040D02*
X299960D01*
X163000Y1179000D02*
X163040Y1179040D01*
X299960D02*
X300000Y1179000D01*
X296630Y1171000D02*
X296670Y1170960D01*
X310250D01*
X310290Y1171000D01*
X198500Y1250000D02*
X198500Y1250000D01*
X181000Y1250000D02*
X198500D01*
X181000Y1250000D02*
X181000Y1250000D01*
X163000Y1250000D02*
X181000D01*
X206000Y1057000D02*
X206500Y1057500D01*
X218000D01*
X170000Y1046500D02*
X171500Y1048000D01*
X191000D01*
X170000Y1067500D02*
X170500Y1067000D01*
X191000D01*
Y1077000D01*
X243500Y1057500D02*
X244000Y1057000D01*
X142000Y1112250D02*
X155750D01*
X156000Y1112000D01*
X141950Y1127700D02*
X142000Y1127750D01*
X279500Y1414500D02*
X280000Y1415000D01*
X217000Y1414500D02*
X279500D01*
X135000Y604500D02*
X135500Y604000D01*
X148000D01*
Y615000D01*
X181000D01*
X261000Y1236000D02*
X462250D01*
X135000Y567500D02*
X157500D01*
X158000Y568000D01*
X318673Y1430957D02*
X454587D01*
X318630Y1431000D02*
X318673Y1430957D01*
X289000Y1431000D02*
X318630D01*
X196000Y1458000D02*
X197000Y1459000D01*
X602000Y1536000D02*
X616000D01*
X548000Y1397000D02*
X602000D01*
X616000Y1536000D02*
X616250Y1536250D01*
X548000Y1358000D02*
X548000Y1358000D01*
Y1348750D02*
Y1358000D01*
X570590Y1414040D02*
X570670Y1413960D01*
X451370Y1406000D02*
X560996D01*
X448040Y1414040D02*
X570590D01*
X448000Y1414000D02*
X448040Y1414040D01*
X359960Y1405960D02*
X451330D01*
X451370Y1406000D01*
X555587Y1430957D02*
X555670Y1431040D01*
X461413Y1430957D02*
X555587D01*
X461330Y1431040D02*
X461413Y1430957D01*
X454670Y1431040D02*
X461330D01*
X555670D02*
X565330D01*
X454587Y1430957D02*
X454670Y1431040D01*
X735000Y1379000D02*
X887000D01*
X887500Y1379500D01*
X1052500Y1416500D02*
X1159500D01*
X1025000Y1376000D02*
X1026540Y1377540D01*
X1027370Y1369000D02*
X1040000D01*
X1040500Y1369500D01*
X1026540Y1377540D02*
X1051460D01*
X1052000Y1377000D01*
X1027330Y1368960D02*
X1027370Y1369000D01*
X1020670Y1368960D02*
X1027330D01*
X1020630Y1369000D02*
X1020670Y1368960D01*
X995000Y1369000D02*
X1020630D01*
X992500Y1366500D02*
X995000Y1369000D01*
X969500Y1367000D02*
Y1371000D01*
X1041250Y1458000D02*
X1070000D01*
X1040071D02*
X1041250D01*
X967000D02*
X1029750D01*
X1012500Y1431000D02*
X1026000D01*
X1187500Y1422500D02*
X1264500D01*
X1183957Y1427957D02*
X1252958D01*
X1205125Y1416875D02*
X1220125D01*
X1201000Y1412750D02*
X1205125Y1416875D01*
X888000Y1471000D02*
X970000D01*
X970250Y1470750D01*
X987500D01*
X255000Y615500D02*
Y628000D01*
X924000Y1384000D02*
Y1397500D01*
X902500D02*
X924000D01*
X901000Y1399000D02*
X902500Y1397500D01*
X901000Y1399000D02*
Y1412000D01*
X941000Y1418000D02*
Y1418000D01*
X941000D02*
X951500D01*
X941000D02*
X941000D01*
X924000Y1418500D02*
X924500Y1418000D01*
X901000Y1428000D02*
X910000D01*
X913000Y1431000D01*
X951500Y1405000D02*
X952250Y1404250D01*
X951000Y1425000D02*
X951500Y1424500D01*
X941000Y1418000D02*
X941000Y1418000D01*
X1070000Y1458000D02*
X1080000Y1468000D01*
X951500Y1411500D02*
X966500D01*
X1159500Y1409250D02*
X1176000D01*
Y1384000D02*
Y1409250D01*
X1220125Y1416875D02*
X1220500Y1416500D01*
X1201000Y1408000D02*
Y1412750D01*
X1220500Y1416500D02*
X1221000Y1416000D01*
X1160500Y1523500D02*
X1161000Y1523000D01*
X988000Y1605000D02*
X1160000D01*
Y1198000D02*
X1234250D01*
X1240000Y458000D02*
Y478000D01*
Y458000D02*
X1241000Y457000D01*
X1221500Y1556000D02*
X1240000D01*
X1239997Y1555997D02*
X1240000Y1556000D01*
X1159500Y1409250D02*
Y1410000D01*
Y1384000D02*
X1176000D01*
X1098000Y413000D02*
X1167000D01*
X1168000Y414000D01*
X890000Y1189000D02*
X890750Y1188250D01*
X892000Y1175000D02*
X1053000D01*
X1064000Y467000D02*
X1064040Y467040D01*
X993000Y490000D02*
X994000Y491000D01*
X1253000Y444000D02*
X1253000Y444000D01*
X1237159Y444000D02*
X1253000D01*
X1225882Y452744D02*
X1237159Y444000D01*
X1220000Y452000D02*
X1225882Y452744D01*
X1238500Y450500D02*
X1253000D01*
X1230000Y459000D02*
X1238500Y450500D01*
X1230000Y459000D02*
Y464000D01*
X1230000Y464000D02*
X1230000Y464000D01*
X1230000Y464000D02*
X1230000D01*
X1231000Y479000D02*
X1232000Y478000D01*
X1197998Y500000D02*
X1197999Y499999D01*
X1220000Y500000D01*
X1219000Y661000D02*
X1241000Y639000D01*
X1219000Y661000D02*
Y679500D01*
X1241000Y639000D02*
X1255000D01*
X1242500Y645500D02*
X1255000D01*
Y606500D02*
X1285500D01*
X892000Y1137000D02*
X893000Y1136000D01*
X978150Y229850D02*
Y271500D01*
X1098000Y238750D02*
Y239000D01*
Y227000D02*
Y238750D01*
X1096000Y225000D02*
X1098000Y227000D01*
X1065000Y225000D02*
X1096000D01*
X1060000Y230000D02*
X1065000Y225000D01*
X1032000Y230000D02*
X1060000D01*
X919750Y197000D02*
X957000D01*
X958000Y172000D02*
X981000D01*
X958000D02*
Y183000D01*
X981500Y183500D02*
Y193500D01*
Y183500D02*
X982000Y184000D01*
X919750Y183000D02*
X958000D01*
X1079000Y211250D02*
Y212000D01*
Y205000D02*
Y211250D01*
X1065000Y205000D02*
X1079000D01*
X840000Y8000D02*
X1073000D01*
X1065000Y37000D02*
X1125000D01*
X916040Y36960D02*
X1064960D01*
X1065000Y37000D01*
X1034000Y171000D02*
X1079000D01*
X1079500Y170500D01*
X1079000Y171000D02*
X1079000Y171000D01*
X1079500Y165500D02*
Y170500D01*
X1088000Y171000D02*
Y211000D01*
X1144960Y45040D02*
X1145000Y45000D01*
X895000Y28000D02*
X1105000D01*
X839000Y9000D02*
X840000Y8000D01*
X947000Y221000D02*
X955000D01*
X946000Y220000D02*
X947000Y221000D01*
X1034000Y171000D02*
X1034000Y171000D01*
X903000Y251000D02*
Y271000D01*
Y251000D02*
X911000Y243000D01*
Y211000D02*
Y243000D01*
X897000Y197000D02*
Y228000D01*
X904000Y171000D02*
X904250Y171250D01*
Y183000D01*
X897000Y197000D02*
X904250D01*
X890550Y217550D02*
Y271500D01*
X874960Y201960D02*
X890550Y217550D01*
X897000Y228000D02*
X901000D01*
X829000Y226000D02*
Y236000D01*
Y226000D02*
X830000Y225000D01*
X837000D01*
X850000Y212000D01*
Y178750D02*
Y212000D01*
X856000Y219000D02*
Y236000D01*
Y219000D02*
X863000Y212000D01*
Y178750D02*
Y212000D01*
X878000Y220000D02*
Y266000D01*
X889000Y179000D02*
Y193000D01*
X887000Y195000D02*
X889000Y193000D01*
X883000Y195000D02*
X887000D01*
X874960Y180040D02*
Y201960D01*
Y180040D02*
X875000Y180000D01*
X855998Y243998D02*
X856000Y244000D01*
X852000Y248000D02*
X856000Y244000D01*
X855998Y236000D02*
Y243998D01*
X838000Y249000D02*
X840000Y251000D01*
X830000Y249000D02*
X838000D01*
X829000Y248000D02*
X830000Y249000D01*
X829000Y236000D02*
Y248000D01*
X850000Y152000D02*
Y163000D01*
Y28000D02*
X895000D01*
X991000Y182750D02*
X1008750D01*
X1009000Y183000D01*
X935040Y45040D02*
X1034000D01*
X1034040Y45000D02*
X1035000D01*
X1034000Y45040D02*
X1034040Y45000D01*
X915000Y38000D02*
X916040Y36960D01*
X889000Y133000D02*
X894000D01*
X889000D02*
Y163250D01*
X895000Y133000D02*
X1103000D01*
X915000Y143000D02*
X963000D01*
Y153500D01*
X964750Y155250D01*
X972000D01*
X875000Y19000D02*
X1085000D01*
X935000Y45000D02*
X935040Y45040D01*
X839000Y86000D02*
X839500Y85500D01*
X875000D01*
X873000Y163250D02*
X874500Y161750D01*
X875000Y152000D02*
Y163000D01*
X946000Y102000D02*
X1165000D01*
X1103000Y133000D02*
X1104000Y132000D01*
X1016000Y247000D02*
X1016250Y246750D01*
X993040Y220960D02*
Y232330D01*
Y207040D02*
Y220960D01*
X993080Y207000D02*
X1006000D01*
X993040Y207040D02*
X993080Y207000D01*
X972540Y220960D02*
X993040D01*
X999000Y227000D02*
X1005000D01*
X999000D02*
Y240000D01*
X990960Y234410D02*
X993040Y232330D01*
X990960Y271960D02*
X991000Y272000D01*
X977300Y229000D02*
X978150Y229850D01*
X971000Y229000D02*
X972500D01*
X977300Y229000D02*
X985000D01*
X972500D02*
X977300D01*
X972500Y221000D02*
X972540Y220960D01*
X972000Y155040D02*
Y155250D01*
X971670Y155040D02*
X972000D01*
X971630Y155000D02*
X971670Y155040D01*
X987000Y197000D02*
X989000D01*
X986000Y198000D02*
X987000Y197000D01*
X981500Y193500D02*
X986000Y198000D01*
X972000Y183000D02*
X973000Y184000D01*
Y197000D01*
X863000Y152000D02*
Y163000D01*
X1185000Y60500D02*
Y61000D01*
X875000Y60000D02*
Y60500D01*
X935000D02*
Y61000D01*
X1306000Y220000D02*
Y226000D01*
Y220000D02*
X1306500Y219500D01*
X1347500D01*
X1306000Y226000D02*
X1306000Y226000D01*
X1255000Y626000D02*
X1276000D01*
X1306000Y581000D02*
X1306500Y580500D01*
X1286000Y602000D02*
Y606000D01*
X1285500Y606500D02*
X1286000Y606000D01*
Y602000D02*
X1293630D01*
X1293670Y602040D01*
X1305960D01*
X1306000Y602000D01*
X1340000Y555000D02*
Y561000D01*
X1297000Y594000D02*
X1297500Y593500D01*
X1306500Y580500D02*
X1325000D01*
X1297500Y593500D02*
X1325000D01*
X1306000Y602000D02*
X1308000Y600000D01*
X1325000D01*
X1306000Y633000D02*
X1306500Y632500D01*
X1234000Y1392000D02*
Y1403000D01*
Y1391000D02*
Y1392000D01*
X1233500Y1403500D02*
X1234000Y1403000D01*
X1220500Y1403500D02*
X1233500D01*
X1234000Y1385000D02*
Y1391000D01*
X1233500Y1390500D02*
X1234000Y1391000D01*
X1220500Y1390500D02*
X1233500D01*
X1220500Y1384000D02*
X1233000D01*
X1234000Y1385000D01*
X486500Y869000D02*
X499000D01*
X486000Y868500D02*
X486500Y869000D01*
X205000Y1447000D02*
X217000D01*
X205000Y1447000D02*
X205000Y1447000D01*
X205000Y1434000D02*
Y1447000D01*
X205000Y1434000D02*
X217000D01*
Y1453500D02*
Y1459000D01*
X197000D02*
X217000D01*
X1333000Y265000D02*
X1347500D01*
X1332000Y252000D02*
X1347500D01*
X1332000Y252000D02*
X1332000Y252000D01*
X1332000Y264000D02*
X1333000Y265000D01*
X1332000Y252000D02*
Y264000D01*
Y277000D01*
X1333000Y278000D01*
X1347500Y239000D02*
X1362000D01*
X1362997Y221000D02*
Y224003D01*
X1362000Y239000D02*
X1362000Y239000D01*
X1361040Y225960D02*
X1362997Y224003D01*
X1347500Y226000D02*
X1347540Y225960D01*
X1361040D01*
X1347500Y232500D02*
X1357130D01*
X1358670Y230960D01*
X1374960D01*
X1379000Y235000D01*
X1386000D01*
X1347500Y245500D02*
X1357130D01*
X1358670Y247040D01*
X1371960D01*
X1376000Y243000D01*
X1385000D01*
X1347500Y258500D02*
X1369500D01*
X1376000Y252000D01*
X1386000D01*
X1387000D01*
X1347500Y271500D02*
X1365500D01*
X1376000Y261000D01*
X1263000Y203000D02*
X1263500Y202500D01*
X1276500D01*
X1286500Y226000D02*
X1306000D01*
X1233000Y219000D02*
X1262000D01*
X1271000Y239000D02*
X1286500D01*
X1262000Y252000D02*
X1286500D01*
X1274000Y265000D02*
X1286500D01*
X1270000Y261000D02*
X1274000Y265000D01*
X1269000Y278000D02*
X1286500D01*
X1269000Y278000D02*
X1269000Y278000D01*
X1300000Y457000D02*
X1314000D01*
X1330000Y464000D02*
X1343000D01*
X1334000Y455000D02*
X1344000D01*
X1328000Y462000D02*
X1330000Y464000D01*
X1333000Y454000D02*
X1334000Y455000D01*
X1333000Y452071D02*
Y454000D01*
X1328000Y454142D02*
Y462000D01*
X1334000Y438000D02*
X1344000D01*
X1335929Y447000D02*
X1343000D01*
X1453000Y392000D02*
X1467000D01*
X1362000Y447000D02*
X1362040Y446960D01*
X1379330D01*
X1253000Y405000D02*
X1289000D01*
X1356250Y372000D02*
X1357000D01*
X1242000Y418000D02*
X1251000D01*
X1236000Y412000D02*
X1242000Y418000D01*
X1230000Y409000D02*
Y415000D01*
X1224000Y409000D02*
X1230000D01*
X1241000Y408000D02*
X1244500Y411500D01*
X1253000D01*
X1230000Y415000D02*
X1238000Y423000D01*
X1238000D01*
X1239000Y424000D01*
X1224000Y423000D02*
X1232000Y431000D01*
X1251000D01*
X1224000Y438000D02*
X1251000D01*
X1252000Y437000D01*
X1241000Y381000D02*
Y408000D01*
X1236000Y396000D02*
Y412000D01*
X1233000Y393000D02*
X1236000Y396000D01*
X1223960Y408960D02*
X1224000Y409000D01*
X1223960Y378040D02*
Y408960D01*
X1232000Y377071D02*
Y394000D01*
Y377071D02*
X1236071Y373000D01*
X1348000Y334000D02*
X1355000D01*
X1348000D02*
Y362000D01*
X1343000Y324000D02*
Y359000D01*
X1314000Y450500D02*
X1324358D01*
X1328000Y454142D01*
X1314000Y444000D02*
X1324929D01*
X1333000Y452071D01*
X1314000Y437500D02*
X1326429D01*
X1335929Y447000D01*
X1314000Y431000D02*
X1327000D01*
X1334000Y438000D01*
X1314000Y418000D02*
X1351000D01*
X1314000Y405000D02*
X1321000D01*
X1327000Y399000D01*
X1329000D01*
X1270000Y495000D02*
X1329000D01*
X1236071Y373000D02*
X1237630D01*
X1241000Y381000D02*
X1337000D01*
X1314000Y411500D02*
X1336500D01*
X1339000Y409000D01*
X1336960Y373040D02*
X1348000Y362000D01*
X1333960Y368040D02*
X1343000Y359000D01*
X1244410Y373040D02*
X1336960D01*
X1246481Y368040D02*
X1333960D01*
X1337000Y381000D02*
X1346000Y372000D01*
X1356250D01*
X1241000Y457000D02*
X1253000D01*
X1306000Y581000D02*
Y582000D01*
X1276000Y574000D02*
X1276040Y573960D01*
X1324960D02*
X1325000Y574000D01*
X1276040Y573960D02*
X1324960D01*
X1306500Y632500D02*
X1322000D01*
X1325000Y567500D02*
X1341500D01*
X1393997Y598999D02*
Y599003D01*
X1370000Y581000D02*
X1378000D01*
Y592000D02*
X1379998D01*
X1393000Y600000D02*
X1393997Y599003D01*
X1374630Y600000D02*
X1374670Y600040D01*
X1381330D01*
X1381370Y600000D01*
X1393000D01*
X1325000Y561000D02*
X1340000D01*
X1344000Y570000D02*
X1344670Y569330D01*
X1340000Y561000D02*
X1353000D01*
X1344670Y569040D02*
Y569330D01*
X1388000Y581000D02*
X1397000D01*
X1378040Y569040D02*
X1387000Y578000D01*
Y587000D01*
X1382000Y592000D02*
X1387000Y587000D01*
X1379998Y592000D02*
X1382000D01*
X1378000Y561000D02*
X1390000Y573000D01*
X1395000D01*
X1327000Y587000D02*
X1340710D01*
X1342710Y585000D01*
X1353000Y561000D02*
X1378000D01*
X1362960Y569040D02*
X1378040D01*
X1350000Y591000D02*
X1353100D01*
X1347000Y594000D02*
X1350000Y591000D01*
X1342710Y584764D02*
Y585000D01*
X1353000Y561000D02*
Y581000D01*
X1355366Y600000D02*
X1374630D01*
X1354167Y601007D02*
X1354359D01*
X1355366Y600000D01*
X1347000Y594000D02*
X1347901Y594901D01*
Y595903D01*
X1325000Y600000D02*
X1340628D01*
X1325000Y626000D02*
X1338000D01*
X1352117Y603057D02*
Y603057D01*
Y603057D02*
X1354167Y601007D01*
X1351232Y603943D02*
X1352117Y603057D01*
X1340628Y600000D02*
X1344571Y603943D01*
X1351232D01*
X1219000Y679500D02*
Y680000D01*
X1285750Y1536750D02*
Y1550000D01*
X1280000Y1531000D02*
X1285750Y1536750D01*
X1280000Y1522000D02*
Y1531000D01*
X1221500Y1523500D02*
X1222000Y1523000D01*
X1160500Y1562500D02*
Y1570000D01*
X1277000Y1522000D02*
X1280000D01*
X1161000Y1476500D02*
X1161750Y1477250D01*
X1161000Y1470000D02*
X1161750Y1469250D01*
X1277000Y1497960D02*
Y1522000D01*
X1244410Y1497960D02*
X1277000D01*
X1222000Y1523000D02*
X1229630D01*
X1229670Y1523040D01*
X1243995Y1552000D02*
X1245000D01*
X1239997Y1555997D02*
X1243995Y1552000D01*
X1220750Y1548750D02*
X1221500Y1549500D01*
X1206997Y1522997D02*
X1207500Y1523500D01*
X1205998Y1522997D02*
X1206997D01*
X1211537Y1530750D02*
Y1531540D01*
Y1530750D02*
X1220750D01*
X1221500Y1530000D01*
X1200587Y1528957D02*
X1203170Y1531540D01*
X1211537D01*
X1168495Y1556000D02*
X1168500Y1556005D01*
X1160500Y1556000D02*
X1168495D01*
X1222000Y1489500D02*
X1222500Y1490000D01*
X1244330Y1498040D02*
X1244410Y1497960D01*
X1222000Y1470000D02*
X1237000D01*
X1221670Y1496960D02*
X1234590D01*
X1234670Y1497040D01*
X1236670D01*
X1237670Y1498040D01*
X1244330D01*
X1221590Y1497040D02*
X1221670Y1496960D01*
X1168495Y1556000D02*
X1176032Y1548462D01*
Y1548000D02*
Y1548462D01*
X1160500Y1570000D02*
X1174630D01*
X1174670Y1570040D01*
X1191960D01*
X1189750Y1548750D02*
X1220750D01*
X1191960Y1570040D02*
X1192000Y1570000D01*
X1178000Y1562000D02*
X1179000Y1561000D01*
X1187000D01*
X1187997Y1560003D01*
Y1550503D02*
Y1560003D01*
Y1550503D02*
X1189750Y1548750D01*
X1049000Y1530500D02*
Y1540000D01*
X1050750Y1472750D02*
Y1485750D01*
X1029750D02*
X1030000Y1485500D01*
X1177000Y1375000D02*
X1200000D01*
X1159500Y1372000D02*
Y1377500D01*
Y1372000D02*
X1174000D01*
X1177000Y1375000D01*
X1144000Y1489500D02*
X1161000D01*
X1197000Y1497040D02*
X1221590D01*
X1266960Y1523040D02*
X1267000Y1523000D01*
X1229670Y1523040D02*
X1266960D01*
X1176000Y1409250D02*
Y1411000D01*
X1159500Y1416500D02*
X1172500D01*
X1264500Y1422500D02*
X1265000Y1422000D01*
X1230000Y1210000D02*
X1250000D01*
Y1198250D02*
Y1210000D01*
X1249750Y1198000D02*
X1250000Y1198250D01*
X1130750Y1360000D02*
Y1384000D01*
Y1385000D01*
X1150000Y1549500D02*
X1160500D01*
X1150000Y1544000D02*
Y1549500D01*
X1049000Y1530500D02*
X1069500D01*
X1070000Y1531000D01*
X1060250Y1500250D02*
X1060500Y1500000D01*
X987500Y1470750D02*
X997000D01*
X1029960Y1535176D02*
Y1547000D01*
X999000Y1530250D02*
Y1538750D01*
Y1530250D02*
X1018250D01*
X1018998Y1530998D01*
Y1535997D01*
X1018995Y1536000D02*
X1018998Y1535997D01*
X1018000Y1536000D02*
X1018995D01*
X1006750Y1498000D02*
X1019000D01*
X1006500Y1498250D02*
X1006750Y1498000D01*
X1029960Y1535176D02*
X1034636Y1530500D01*
X1049000D01*
X997750Y1529000D02*
X999000Y1530250D01*
X981000Y1529000D02*
X997750D01*
X1080000Y1543000D02*
X1149000D01*
X1150000Y1544000D01*
X1151000Y1543000D02*
X1160500D01*
X1150000Y1544000D02*
X1151000Y1543000D01*
X1149000D02*
X1151000D01*
X1186000Y1493989D02*
X1186995Y1492995D01*
X1197000Y1490370D02*
Y1497040D01*
Y1490370D02*
X1197040Y1490330D01*
X1197000Y1485000D02*
Y1490370D01*
X1161000Y1457000D02*
X1161043Y1456957D01*
X1179000Y1465000D02*
X1180001D01*
X1161000Y1483000D02*
X1169700D01*
X1161750Y1477250D02*
X1171021D01*
X1161000Y1463500D02*
X1177500D01*
X1179000Y1465000D01*
X1252958Y1427957D02*
X1260997Y1435997D01*
X1220500Y1410000D02*
X1233500D01*
X1234000Y1409500D01*
Y1403000D02*
Y1409500D01*
X1177382Y1476000D02*
X1185000D01*
X1161000Y1470000D02*
X1172000D01*
X1177382Y1475382D01*
Y1476000D01*
X1171021Y1477250D02*
X1178771Y1485000D01*
X1197000D01*
X1185989Y1494000D02*
X1186000Y1493989D01*
X1169700Y1483000D02*
X1180700Y1494000D01*
X1185989D01*
X1143000Y1490500D02*
X1144000Y1489500D01*
X1161043Y1456957D02*
X1189957D01*
X1194000Y1461000D01*
Y1466000D01*
X1192673Y1528957D02*
X1200587D01*
X1191670Y1529960D02*
X1192673Y1528957D01*
X1193250Y1537250D02*
X1194000Y1538000D01*
X1161250Y1537250D02*
X1193250D01*
X1160500Y1530000D02*
X1160540Y1529960D01*
X1191670D01*
X1160500Y1536500D02*
X1161250Y1537250D01*
X1143000Y1358000D02*
X1164250D01*
X1151000Y1397000D02*
X1159500D01*
X1151000D02*
Y1403000D01*
X1155000D01*
X1130750Y1384000D02*
X1159500D01*
X1143000Y1393000D02*
X1144750Y1391250D01*
X1158750D01*
X1159500Y1390500D01*
X999000Y1405000D02*
X1012500D01*
X999000Y1418000D02*
X1012500D01*
X1012500Y1418000D01*
X951500Y1398500D02*
X998500D01*
X999000Y1399000D01*
Y1405000D01*
Y1418000D01*
X1039500Y1411500D02*
X1041000Y1413000D01*
X1012500Y1411500D02*
X1039500D01*
X1012500Y1398500D02*
X1023500D01*
X1013000Y1391500D02*
X1023500D01*
X1012500Y1392000D02*
X1013000Y1391500D01*
X1023500Y1398500D02*
X1024000Y1398000D01*
Y1377000D02*
Y1398000D01*
X1052000Y1416000D02*
X1052500Y1416500D01*
X1024000Y1377000D02*
X1025000Y1376000D01*
X1143000Y1490500D02*
Y1495000D01*
X1105000Y1483000D02*
X1161000D01*
X1223000Y261000D02*
X1270000D01*
X1257998Y251999D02*
X1257999D01*
X1262000Y219000D02*
X1269441D01*
X1267999Y236000D02*
X1271000Y239000D01*
X1276500Y202500D02*
Y218988D01*
X1277012Y219500D01*
X1286500D01*
X1269441Y219000D02*
X1276441Y226000D01*
X1275040Y232500D02*
X1286500D01*
X1266998Y236000D02*
X1267999D01*
X1260547Y243000D02*
X1263047Y245500D01*
X1286500D01*
X1215960Y243000D02*
X1260547D01*
X1265998Y235000D02*
X1266998Y236000D01*
X1265038Y235960D02*
X1265998Y235000D01*
X1206000Y236000D02*
X1206040Y235960D01*
X1265038D01*
X1214960Y244000D02*
X1215960Y243000D01*
X1197000Y252000D02*
X1197040Y252040D01*
X1257957D01*
X1257998Y251999D01*
X1079998Y449999D02*
X1148999D01*
X1270040Y227500D02*
X1275040Y232500D01*
X1188000Y227000D02*
X1188500Y227500D01*
X1270040D01*
X1097000Y1457000D02*
Y1458000D01*
X1061500Y1471500D02*
X1070000D01*
Y1531000D02*
Y1532000D01*
X1080000Y1468000D02*
Y1490000D01*
X1064040Y467040D02*
X1186960D01*
X1088998Y440999D02*
X1159999D01*
X1148999Y449999D02*
X1149500Y450500D01*
X1073000Y459000D02*
X1179000D01*
X1159999Y440999D02*
X1160000Y441000D01*
X1177000Y339000D02*
X1269000D01*
X828500Y1471250D02*
X829000Y1471750D01*
X809000Y1458000D02*
X810000Y1457000D01*
X809000Y1458000D02*
Y1471250D01*
X810000Y1457000D02*
X828000D01*
X809000Y1442000D02*
X811000D01*
X809000D02*
Y1449000D01*
X809000Y1449000D02*
X809000Y1449000D01*
X809000Y1449000D02*
Y1458000D01*
X815500Y1471250D02*
Y1485500D01*
X792000Y1482000D02*
Y1486000D01*
X828500Y1454000D02*
Y1471250D01*
Y1454000D02*
X845000D01*
Y1469750D02*
Y1482000D01*
X845000Y1482000D02*
X845000Y1482000D01*
X792000Y1486000D02*
X792500Y1485500D01*
X842000Y1485000D02*
X845000Y1482000D01*
X809000Y1442000D02*
Y1449000D01*
X792000Y1442000D02*
Y1454250D01*
Y1442000D02*
X809000D01*
X792000Y1469750D02*
Y1482000D01*
X792000Y1482000D01*
X822000Y1471250D02*
Y1485000D01*
X822000Y1485000D01*
X809000Y1485500D02*
Y1493000D01*
X792500Y1485500D02*
X809000D01*
X815500D01*
X827000Y1485000D02*
Y1493000D01*
X822000Y1485000D02*
X827000D01*
X842000D01*
X891000Y1162000D02*
X1043000D01*
X891000Y1149000D02*
X1035000D01*
X890998Y1229998D02*
X1068998D01*
X891000Y1136000D02*
X1027000D01*
X892000Y1095000D02*
X1000000D01*
X892000Y1082000D02*
X992000D01*
X892000Y1057000D02*
X975000D01*
X994000Y491000D02*
X1230000D01*
X1089000Y1470000D02*
X1161000D01*
X890750Y1297000D02*
X1043000D01*
X1143000Y1346000D02*
Y1358000D01*
X1076000Y1346000D02*
X1143000D01*
X890750Y1031000D02*
X910500D01*
X565330Y1431040D02*
X565413Y1430957D01*
X707000Y1328000D02*
Y1336000D01*
X721000Y1328000D02*
Y1336000D01*
Y1328000D02*
X721250Y1327750D01*
X735250D02*
Y1336000D01*
X748250Y1327750D02*
Y1336000D01*
X565413Y1430957D02*
X748000D01*
X1075000Y1375000D02*
Y1379000D01*
X884630Y1360000D02*
X1060000D01*
X1075000Y1375000D01*
X1071000Y1360000D02*
X1115250D01*
X1064000Y1353000D02*
X1071000Y1360000D01*
X873670Y1370960D02*
X884630Y1360000D01*
X721040Y1370960D02*
X873670D01*
X588000Y1414000D02*
X696000D01*
X587960Y1413960D02*
X588000Y1414000D01*
X570670Y1413960D02*
X587960D01*
X248000Y1515000D02*
X349000D01*
X430000Y1524000D02*
X458000D01*
X426000Y1520000D02*
X430000Y1524000D01*
X262000Y1521000D02*
X263000Y1520000D01*
X262000Y1521000D02*
Y1530750D01*
X262250Y1531000D01*
X434000Y1515000D02*
X435000Y1514000D01*
X889750Y1312000D02*
X890750D01*
X1033000D01*
X890750Y1243000D02*
X890752Y1242998D01*
X1050998D01*
X891002Y1187998D02*
X1059998D01*
X890750Y1188250D02*
X891002Y1187998D01*
X890750Y1201250D02*
X891002Y1200998D01*
X1059998D01*
X104000Y1019000D02*
X104040Y1019040D01*
X267590D01*
X267670Y1018960D01*
X82000Y1017000D02*
Y1051500D01*
Y1017000D02*
X96540Y1002460D01*
X267670Y1018960D02*
X274330D01*
X82000Y1153100D02*
X126850D01*
X128000Y1154250D01*
X125000Y1097000D02*
X152370D01*
X164000Y1138000D02*
X178000D01*
X142000Y1127750D02*
X153750D01*
X164000Y1138000D01*
X178000Y1110000D02*
X190000Y1122000D01*
X271000Y1074000D02*
X462250D01*
X461210Y1130040D02*
X462250Y1129000D01*
X185410Y1130040D02*
X461210D01*
X152370Y1097000D02*
X185410Y1130040D01*
X190000Y1122000D02*
X407000D01*
X96540Y1002460D02*
X382540D01*
X274330Y1018960D02*
X274370Y1019000D01*
X382540Y1002460D02*
X398000Y987000D01*
X274370Y1019000D02*
X406000D01*
X589630Y928000D02*
X589670Y928040D01*
X599960D01*
X612900Y915100D01*
X554000Y928000D02*
X589630D01*
X398000Y987000D02*
X495000D01*
X554000Y928000D01*
X558000Y939000D02*
X605000D01*
X560000Y945000D02*
X609000D01*
X406000Y1004000D02*
X411000Y999000D01*
X498000D01*
X558000Y939000D01*
X406000Y1019000D02*
X420000Y1005000D01*
X500000D01*
X560000Y945000D01*
X876000Y1353000D02*
X1064000D01*
X868000Y1361000D02*
X876000Y1353000D01*
X696000Y1361000D02*
X868000D01*
X634000Y1276000D02*
Y1298750D01*
X633500Y1299250D02*
X634000Y1298750D01*
X639000Y1276000D02*
Y1289000D01*
X639000Y1289000D02*
X639000Y1289000D01*
X639000Y1289000D02*
X643000Y1293000D01*
Y1314000D01*
X643000Y1314000D01*
X651500D01*
X615781Y1314219D02*
Y1340250D01*
X617000Y1314000D02*
X632750D01*
X633500Y1314750D01*
X629000Y1276000D02*
Y1288000D01*
X627000Y1290000D02*
X629000Y1288000D01*
X622000Y1290000D02*
X627000D01*
X620000Y1292000D02*
X622000Y1290000D01*
X620000Y1292000D02*
Y1298000D01*
X1351000Y401000D02*
X1352000Y402000D01*
X1352000D01*
X1314000Y424500D02*
X1364250D01*
X1366000Y422750D01*
X1451750Y502750D02*
X1452000Y503000D01*
X1379330Y446960D02*
X1379370Y447000D01*
X1362000Y463950D02*
X1362050Y464000D01*
X1390000D01*
X1449040Y348960D02*
X1452000Y346000D01*
X1378000Y350000D02*
X1379040Y348960D01*
X1449040D01*
X1390000Y357000D02*
X1466000D01*
X1371750Y336000D02*
X1408000D01*
X1381040Y494000D02*
Y502750D01*
X1451750D01*
X1236500Y619500D02*
X1255000D01*
X1221000Y637000D02*
X1224000D01*
X1228500Y632500D01*
X1255000D01*
X1186960Y467040D02*
X1187000Y467000D01*
X1178126Y626500D02*
X1229500D01*
X1236500Y619500D01*
X992000Y491000D02*
X993000Y490000D01*
X984000Y500000D02*
X1197998D01*
X729000Y959000D02*
X731000Y961000D01*
X729000Y959000D02*
X730000Y958000D01*
X612900Y915100D02*
X713900D01*
X717000Y947000D02*
Y961000D01*
X1097000Y1457000D02*
X1126630D01*
X1126670Y1457040D01*
X1160960D02*
X1161000Y1457000D01*
X1126670Y1457040D02*
X1160960D01*
X1222000Y1442000D02*
Y1450500D01*
X1201019Y1433981D02*
X1203037Y1436000D01*
X1241000D01*
X1075000Y1427000D02*
X1120000D01*
X1144000Y1434000D02*
X1201000D01*
X1147330Y1442040D02*
X1147370Y1442000D01*
X1222000D01*
X1135040Y1442040D02*
X1147330D01*
X1120000Y1427000D02*
X1135040Y1442040D01*
X1172500Y1416500D02*
X1183957Y1427957D01*
X1176000Y1411000D02*
X1187500Y1422500D01*
X942000Y604750D02*
X1175000D01*
X1162627Y641999D02*
X1178126Y626500D01*
X911998Y641999D02*
X1162627D01*
X609000Y945000D02*
X618000Y936000D01*
X605000Y939000D02*
X613000Y931000D01*
X1160996Y652000D02*
X1161998Y650999D01*
X1018000Y652000D02*
X1160996D01*
X898000Y829000D02*
X1141000D01*
X1142000Y828000D01*
X1240000Y648000D02*
X1242500Y645500D01*
X1240000Y648000D02*
Y656000D01*
X730000Y947000D02*
Y958000D01*
X745000Y947000D02*
Y961000D01*
X618000Y936000D02*
X758000D01*
X613000Y931000D02*
X824000D01*
X713900Y915100D02*
X732000Y897000D01*
X1019000D01*
X730000Y911000D02*
X735000Y906000D01*
X898000D01*
X730000Y911000D02*
Y912000D01*
X892000Y1284000D02*
X1078000D01*
X770500Y1255100D02*
X781900D01*
X782000Y1255000D01*
X770500Y1249500D02*
X781500D01*
X782000Y1250000D01*
X781900Y1250100D02*
X782000Y1250000D01*
X781900Y1250100D02*
Y1255100D01*
X788900D01*
X789000Y1255000D01*
Y1272000D01*
X756000Y1255000D02*
X756100Y1255100D01*
X724000Y1263000D02*
Y1276000D01*
X724000Y1263000D02*
X724000Y1263000D01*
X723000Y1262000D02*
X724000D01*
X604000Y1276000D02*
X604000Y1276000D01*
X585999Y1260997D02*
X586997D01*
X589000Y1267000D02*
Y1276000D01*
X589000Y1267000D02*
X589000Y1267000D01*
X589000Y1263000D02*
Y1267000D01*
X586997Y1260997D02*
X589000Y1263000D01*
X604000Y1267150D02*
Y1276000D01*
X573000Y1261000D02*
Y1275600D01*
X573400Y1276000D01*
X552500Y1078900D02*
X565100D01*
X566000Y1078000D01*
X629000Y1058000D02*
Y1071000D01*
X629000Y1071000D02*
X629000Y1071000D01*
X758000Y936000D02*
Y1009000D01*
X749000Y1018000D02*
X758000Y1009000D01*
X719000Y1001000D02*
Y1058000D01*
Y1001000D02*
X731000Y989000D01*
X734000Y1022000D02*
Y1058000D01*
Y1022000D02*
X738000Y1018000D01*
X749000D01*
X534500Y1244500D02*
X552500D01*
X531000Y1248000D02*
X534500Y1244500D01*
X531000Y1248000D02*
Y1259000D01*
X542500Y1249500D02*
X552500D01*
X541000Y1251000D02*
X542500Y1249500D01*
X541000Y1251000D02*
Y1274000D01*
X532000D02*
X541000D01*
X531000Y1275000D02*
X532000Y1274000D01*
X789500Y1064500D02*
X791000Y1063000D01*
X676000Y1350000D02*
X866000D01*
X664003Y1262000D02*
X664999Y1261004D01*
X663000Y1260997D02*
X664003Y1262000D01*
X770500Y1078900D02*
X770600Y1079000D01*
X804000D01*
X749600Y1044400D02*
Y1058000D01*
Y1044400D02*
X750000Y1044000D01*
X760000D01*
X744000Y1058000D02*
Y1083000D01*
X744500Y1083500D01*
X756496Y1139500D02*
X770500D01*
X770400Y1134400D02*
X770500Y1134500D01*
X761550Y1134400D02*
X770400D01*
X760075Y1132925D02*
X761550Y1134400D01*
X755999Y1139998D02*
X756496Y1139500D01*
X755999Y1139998D02*
Y1140998D01*
X717075Y1132925D02*
X760075D01*
X717000Y1133000D02*
X717075Y1132925D01*
X756500Y1189500D02*
X770500D01*
X756100Y1255100D02*
X770500D01*
X754998Y1189998D02*
X756998D01*
X756500Y1189500D02*
X756998Y1189998D01*
X761500Y1184500D02*
X770500D01*
X758000Y1181000D02*
X761500Y1184500D01*
X717000Y1181000D02*
X758000D01*
X744000Y1261000D02*
X750000D01*
X761000Y1272000D01*
X773000D01*
X674000Y1223000D02*
Y1276000D01*
X674000Y1223000D02*
X674000Y1223000D01*
X669000Y1260997D02*
Y1276000D01*
X662999Y1260997D02*
X663000D01*
X669000D01*
X594000Y1251000D02*
Y1276000D01*
Y1251000D02*
X602000D01*
X604000Y1267150D02*
X607110Y1264040D01*
X607401D01*
X610441Y1261000D01*
X615000D01*
X599000Y1265079D02*
Y1276000D01*
Y1265079D02*
X605039Y1259040D01*
X605330D01*
X610040Y1254330D01*
Y1223040D02*
Y1254330D01*
X610000Y1223000D02*
X610040Y1223040D01*
X599000Y1276000D02*
Y1290000D01*
X599000Y1290000D02*
X599000Y1290000D01*
X599000Y1316000D02*
Y1326000D01*
Y1316000D02*
X601000Y1314000D01*
X674000Y1276000D02*
Y1289000D01*
X674000Y1289000D02*
X674000Y1289000D01*
X674000Y1289000D02*
Y1290000D01*
X667500Y1314000D02*
X674000D01*
X667500Y1314000D02*
X667500Y1314000D01*
X552500Y1249500D02*
X573500D01*
X574000Y1249000D01*
Y1235000D02*
Y1249000D01*
X552500Y1179500D02*
X572000D01*
X577500Y1185000D01*
X552500Y1184500D02*
X564500D01*
X574000Y1194000D01*
X605000D01*
X629000Y1071000D02*
X629999Y1071999D01*
Y1072998D01*
X685000Y1073000D02*
X685000Y1073000D01*
X685000Y1073000D02*
Y1083000D01*
X684000Y1058000D02*
Y1072000D01*
X685000Y1073000D01*
X552500Y1129500D02*
X577500D01*
X578000Y1129000D01*
Y1127120D02*
Y1129000D01*
X651500Y1314000D02*
Y1336969D01*
X654781Y1340250D01*
X1268000Y1552250D02*
X1270250Y1550000D01*
X1268000Y1552250D02*
X1270000Y1554250D01*
Y1575000D01*
X1257500Y1536500D02*
X1258000Y1537000D01*
X1221500Y1536500D02*
X1257500D01*
X1084000Y423000D02*
X1224000D01*
X930000Y464000D02*
X1029000D01*
X1237630Y373000D02*
X1237670Y372960D01*
X1244330D01*
X1244410Y373040D01*
X1223960Y378040D02*
X1234040Y367960D01*
X1246401D01*
X1246481Y368040D01*
X1329993Y348000D02*
Y348004D01*
Y348000D02*
X1329998D01*
X1167000D02*
X1329993D01*
X1155000Y361000D02*
X1326000D01*
X866000Y1350000D02*
X874000Y1342000D01*
X942000D01*
X215000Y1383250D02*
X337250D01*
X359960Y1405960D01*
X935000Y111000D02*
X1145000D01*
X915000Y122000D02*
X1125000D01*
X938000Y1405000D02*
X951500D01*
X937000Y1406000D02*
X938000Y1405000D01*
X924500Y1418000D02*
X941000D01*
Y1424630D01*
X941370Y1425000D01*
X951000D01*
X951500Y1424500D02*
X1012500D01*
X939000Y1385000D02*
Y1392000D01*
X951500D01*
X951500Y1392000D01*
X924000Y1384000D02*
X937000Y1371000D01*
X969500D01*
X939000Y1385000D02*
X940000Y1384000D01*
X939000Y1383000D02*
X940000Y1384000D01*
X731000Y976500D02*
Y987000D01*
Y989000D01*
X935000Y229000D02*
X956000D01*
X674000Y1314000D02*
Y1327000D01*
X1276441Y226000D02*
X1287000D01*
X1333000Y278000D02*
X1348000D01*
X1338000Y626000D02*
Y633000D01*
X1322000D02*
X1338000D01*
X744000Y1031000D02*
Y1058000D01*
X1060250Y1472750D02*
X1061500Y1471500D01*
X1160500Y1523500D02*
X1207500D01*
X723000Y1262000D02*
X724000Y1263000D01*
X865000Y228000D02*
Y272000D01*
X1355000Y334000D02*
X1357000Y336000D01*
X1351000Y401000D02*
Y418000D01*
X1041250Y1458000D02*
Y1472750D01*
X1016250Y246750D02*
X1018000Y245000D01*
X890000Y1071000D02*
X984000D01*
X990960Y234410D02*
Y271960D01*
X615781Y1314219D02*
X617000Y1313000D01*
X1029750Y1458000D02*
Y1485750D01*
X1050750D01*
X874000Y61000D02*
X875000Y60000D01*
X1034000Y45040D02*
X1144960D01*
X1079000Y171000D02*
X1088000D01*
X890000Y1084000D02*
X892000Y1082000D01*
X913000Y1431000D02*
X951500D01*
X981000Y172000D02*
Y183000D01*
X981500Y183500D01*
X1060500Y1500000D02*
X1071000D01*
X840000Y251000D02*
Y272000D01*
X852000Y248000D02*
Y272000D01*
X891000Y1176000D02*
X892000Y1175000D01*
X914000Y86000D02*
X915000Y87000D01*
X890000Y1097000D02*
X892000Y1095000D01*
X1343000Y324000D02*
X1357000D01*
X1239000Y424000D02*
X1253000D01*
X1376000Y261000D02*
X1387000D01*
X1341500Y567500D02*
X1344000Y570000D01*
X1369000Y591000D02*
X1378998D01*
X1379998Y592000D01*
X876000Y163000D02*
X877000Y164000D01*
D60*
X218000Y1048000D02*
X280000D01*
X218000Y1067000D02*
Y1086000D01*
X220000Y1088000D01*
X134000D02*
X134460Y1087540D01*
X91000Y974000D02*
X395000D01*
X126500Y787500D02*
X130000Y791000D01*
X126500Y778000D02*
Y787500D01*
X395000Y1155000D02*
X462250D01*
X462250Y1168000D02*
X462250Y1168000D01*
X385000Y1168000D02*
X462250D01*
X72000Y920000D02*
Y984000D01*
X85000Y968000D02*
X91000Y974000D01*
X85000Y915000D02*
Y968000D01*
X66500Y896500D02*
X85000Y915000D01*
X52000Y896500D02*
X66500D01*
X68502Y916503D02*
X72000Y920000D01*
X52000Y916503D02*
X68502D01*
X39501Y936501D02*
X52000D01*
X39000Y936000D02*
X39501Y936501D01*
X375000Y1182000D02*
X375000Y1182000D01*
X462250D01*
X271000Y1210000D02*
X462250D01*
X210000Y1225000D02*
X218000D01*
X208000Y1223000D02*
Y1226000D01*
X266000Y1158000D02*
X268000Y1160000D01*
X270000Y1158000D01*
X124000Y1264000D02*
X462250D01*
X122000Y1276000D02*
X462250D01*
X113000Y1253000D02*
X124000Y1264000D01*
X113000Y1228000D02*
Y1253000D01*
X105000Y1293000D02*
X122000Y1276000D01*
X75000Y1293000D02*
X105000D01*
X75000Y1276500D02*
Y1293000D01*
X52000Y1374000D02*
X126000D01*
X144000Y1400317D02*
Y1417089D01*
Y1400317D02*
X150000Y1394317D01*
Y1356000D02*
Y1394317D01*
X138000Y1377000D02*
Y1424997D01*
X138500Y1344500D02*
X150000Y1356000D01*
X126000Y1344500D02*
X138500D01*
X126000Y1374000D02*
Y1379000D01*
X126000Y1374000D02*
X126000Y1374000D01*
X75000Y1255875D02*
X75125Y1256000D01*
X75000Y1227000D02*
Y1255875D01*
X462250Y1262000D02*
Y1264000D01*
X74000Y1275500D02*
X75000Y1276500D01*
X462250Y1209000D02*
X462250Y1209000D01*
X181000Y1493000D02*
X270000D01*
X138000Y1479000D02*
X151000Y1492000D01*
X138000Y1455000D02*
Y1479000D01*
Y1455000D02*
X146000Y1447000D01*
X156000D01*
X133000Y1442997D02*
X135497Y1440500D01*
X124000Y1434000D02*
Y1474500D01*
Y1434000D02*
X156000D01*
X155750Y1447250D02*
X156000Y1447000D01*
X193497Y1401503D02*
Y1413997D01*
Y1401503D02*
X196250Y1398750D01*
X215000D01*
X193000Y1413997D02*
X193497D01*
X194000Y1414500D01*
X203000Y1420000D02*
X204000Y1421000D01*
X215000Y1366000D02*
Y1383250D01*
X138000Y1375000D02*
X140000D01*
X159000Y1391000D02*
X167250D01*
X168250Y1390000D01*
X204000Y1421000D02*
X217000D01*
X1222000Y1457000D02*
X1222250Y1457250D01*
X1222000Y1457000D02*
X1222250Y1456750D01*
X1129000Y1267000D02*
X1190000D01*
X1164613Y818000D02*
X1216420D01*
X1128540Y743460D02*
X1129000Y743000D01*
X1169000Y924000D02*
Y962750D01*
Y924000D02*
X1195000D01*
X1253000Y463500D02*
X1288500D01*
X1198000Y1307750D02*
Y1320000D01*
X1206000D01*
X1115250Y1373000D02*
Y1385000D01*
X1105000Y1373000D02*
X1115250D01*
X1217460Y431460D02*
X1224000Y438000D01*
X938000Y403000D02*
X940000D01*
X892000Y395000D02*
X903000D01*
Y396000D02*
X903250Y395750D01*
X890550Y385550D02*
X891000Y386000D01*
X877000Y369350D02*
Y413000D01*
Y369350D02*
X877850Y368500D01*
X866000Y406000D02*
X867000Y407000D01*
X623000Y959000D02*
X624000Y960000D01*
X623000Y959000D02*
Y960000D01*
X1169000Y962750D02*
Y971500D01*
X1195000Y924000D02*
Y937000D01*
X1350000Y773000D02*
X1363000D01*
X1350000Y765000D02*
Y773000D01*
Y765000D02*
X1351250Y763750D01*
X1363250D01*
X1221000Y875000D02*
X1229000Y883000D01*
X1242586D01*
X1363000Y827000D02*
Y849000D01*
X1361000Y851000D02*
X1363000Y849000D01*
X1276000Y851000D02*
X1361000D01*
X1275500Y851500D02*
X1276000Y851000D01*
X1261500Y851500D02*
X1275500D01*
X1287998Y889998D02*
X1288000Y890000D01*
X1287998Y862998D02*
Y889998D01*
X1252000Y863000D02*
X1252002Y862998D01*
X1169000Y962750D02*
X1178250D01*
X930998Y413002D02*
Y413999D01*
X930000Y414997D02*
X930998Y413999D01*
Y413002D02*
X931000Y413000D01*
X965450Y368500D02*
Y386550D01*
Y368500D02*
X966000Y369050D01*
X985000Y385000D02*
X990000D01*
X990850Y384150D01*
Y368500D02*
Y384150D01*
X1003000Y384000D02*
X1003550Y383450D01*
Y368500D02*
Y383450D01*
X890550Y368500D02*
Y385550D01*
X987000Y411750D02*
X988250Y413000D01*
X987000Y399000D02*
Y411750D01*
X979000Y385000D02*
X985000D01*
X987000Y393000D02*
Y399000D01*
X985000Y391000D02*
X987000Y393000D01*
X985000Y385000D02*
Y391000D01*
X978150Y384150D02*
X979000Y385000D01*
X978150Y368500D02*
Y384150D01*
X1435000Y231000D02*
X1452000D01*
X1415000Y209000D02*
X1433000Y191000D01*
X1412950Y260950D02*
X1424000Y272000D01*
X1452000D01*
X1404000Y260950D02*
X1411950D01*
X1412000Y261000D01*
X1404000Y252000D02*
X1421000D01*
X1428000Y245000D01*
Y237000D02*
Y245000D01*
Y237000D02*
X1434000Y231000D01*
X1404000Y244000D02*
X1416000D01*
X1422000Y238000D01*
Y222000D02*
Y238000D01*
Y222000D02*
X1432000Y212000D01*
X1452000D01*
X1404000Y235050D02*
X1412950D01*
X1415000Y233000D01*
Y209000D02*
Y233000D01*
X1438000Y241000D02*
Y263000D01*
X1288500Y463500D02*
X1289000Y463000D01*
X1288500Y463500D02*
X1314000D01*
X1391000Y564000D02*
X1397996D01*
X1391000Y550000D02*
Y564000D01*
X1397996D02*
X1397997Y563999D01*
X1414500Y573000D02*
X1430000D01*
X1432000Y571000D01*
Y601000D02*
X1449000D01*
X1450000Y602000D01*
X1361586Y612000D02*
X1362000D01*
X1349000Y642000D02*
X1360000D01*
X1382414D02*
X1398000D01*
X1383000Y612000D02*
X1398000D01*
X1349000Y619000D02*
X1349000Y619000D01*
Y642000D01*
X1343365Y619000D02*
X1349000D01*
X1344850Y612000D02*
X1361586D01*
X1325000Y613000D02*
X1337365D01*
X1343365Y619000D01*
X1325000Y606500D02*
X1339350D01*
X1344850Y612000D01*
X1216000Y554000D02*
X1223000D01*
X1214000Y556000D02*
X1216000Y554000D01*
X1206750Y602000D02*
X1207000Y602250D01*
Y612000D01*
X1216420Y818000D02*
X1216460Y817960D01*
X1242500Y818500D02*
Y824000D01*
X1225500Y818500D02*
X1242500D01*
X1223000Y821000D02*
X1225500Y818500D01*
X1317000Y1525000D02*
Y1564000D01*
X1305000Y1519000D02*
X1311000D01*
X1317000Y1525000D01*
X1251000Y1564500D02*
X1255000Y1560500D01*
X1237000Y1470000D02*
Y1477000D01*
X1222000Y1483000D02*
X1231000D01*
X1237000Y1477000D01*
X1237745Y1489250D02*
X1238997Y1487997D01*
X1207000Y1562000D02*
X1207500Y1562500D01*
X1221500D01*
X1206000Y1480000D02*
Y1485000D01*
X1210250Y1489250D01*
X1237000Y1477000D02*
X1251000D01*
X1221500Y1543000D02*
X1248077D01*
X1255000Y1549923D02*
Y1560500D01*
X1248077Y1543000D02*
X1255000Y1549923D01*
X1161000Y1450500D02*
X1161037Y1450537D01*
X1257500Y1450500D02*
X1259000Y1449000D01*
X1222000Y1457000D02*
X1235000D01*
X1239000Y1461000D01*
X1222000Y1450500D02*
X1257500D01*
X1161037Y1450537D02*
X1193537D01*
X1207000Y1464000D01*
X934000Y1525000D02*
Y1538250D01*
X781000Y1550000D02*
Y1562000D01*
X780750Y1562250D02*
X781000Y1562000D01*
X800750Y1550250D02*
X801000Y1550000D01*
Y1551000D01*
X954000Y1525000D02*
Y1537250D01*
X953000Y1538250D02*
X954000Y1537250D01*
X813000Y1568000D02*
X844000D01*
X829000Y1420000D02*
X840000D01*
X828500Y1420500D02*
X829000Y1420000D01*
X828500Y1420500D02*
Y1426750D01*
X811000Y1442000D02*
X839000D01*
X836000Y1502000D02*
X849000D01*
X861000Y1490000D01*
Y1482000D02*
Y1490000D01*
X776000Y1482000D02*
Y1493000D01*
X785000Y1502000D01*
X836000D01*
X633000Y1463000D02*
X776000D01*
X776750Y1391000D02*
Y1404000D01*
Y1419750D01*
X777000Y1420000D01*
X796000D01*
X808911D01*
X809000Y1419911D01*
Y1426750D01*
X804000Y1404000D02*
X815000D01*
X815500Y1404500D01*
Y1426750D01*
X822000Y1391000D02*
X822000Y1391000D01*
X792250Y1404000D02*
X804000D01*
X804000Y1404000D01*
X822000Y1391000D02*
Y1426750D01*
X890750Y1257000D02*
X908000D01*
X822000Y1391000D02*
X834000D01*
X792250D02*
X822000D01*
X890750Y1271000D02*
X908000D01*
X1184500Y698500D02*
Y707500D01*
X1180000Y712000D02*
X1184500Y707500D01*
X891000Y1122000D02*
X1018000D01*
X891000Y1109000D02*
X1009000D01*
X892000Y1043000D02*
X951000D01*
X1017750Y962750D02*
X1169000D01*
X1110000Y1252000D02*
X1116000D01*
X1119540Y1248460D01*
X1234460D01*
X1238000Y1252000D01*
X269460Y1554710D02*
X270000Y1555250D01*
X269460Y1542460D02*
Y1554710D01*
X269000Y1542000D02*
X269460Y1542460D01*
X263000Y1542000D02*
X269000D01*
X262250Y1541250D02*
X263000Y1542000D01*
X262250Y1531000D02*
Y1541250D01*
X141500Y1427500D02*
X156000D01*
X135497Y1440500D02*
X156000D01*
X155750Y1420750D02*
X156000Y1421000D01*
X147661Y1420750D02*
X155750D01*
X144000Y1417089D02*
X147661Y1420750D01*
X138997Y1424997D02*
X141500Y1427500D01*
X138000Y1424997D02*
X138997D01*
X168250Y1390000D02*
X169250Y1391000D01*
X72000Y984000D02*
X385000D01*
X39000Y993000D02*
X375000D01*
X39000Y936000D02*
Y993000D01*
X1221000Y842000D02*
Y875000D01*
X1164573Y817960D02*
X1164613Y818000D01*
X1155387D02*
X1155427Y817960D01*
X1164573D01*
X1078999Y712000D02*
X1180000D01*
X218000Y1158000D02*
X266000D01*
X134460Y1087540D02*
X174540D01*
X202000Y1115000D01*
X220000Y1088000D02*
X462250D01*
X280000Y1101000D02*
X462250D01*
X202000Y1115000D02*
X401923D01*
X460710Y1113460D02*
X462250Y1115000D01*
X401923D02*
X403463Y1113460D01*
X460710D01*
X637000Y960000D02*
X638000Y959000D01*
Y948000D02*
Y959000D01*
X623000Y948000D02*
Y959000D01*
X260500Y1582750D02*
Y1613500D01*
X1077998Y710999D02*
X1078999Y712000D01*
X1362000Y455000D02*
X1373000D01*
X1366250Y391750D02*
X1427500D01*
X1366000Y392000D02*
X1366250Y391750D01*
X1366000Y392000D02*
Y407250D01*
X1464540Y511540D02*
X1465000Y512000D01*
X1378000Y428000D02*
Y436000D01*
X1362000Y438050D02*
X1375950D01*
X1378000Y436000D01*
X1371000Y512000D02*
X1465000D01*
X1249460Y743460D02*
X1250000Y744000D01*
X1128540Y743460D02*
X1249460D01*
X1252002Y862998D02*
X1252998D01*
X1287998D01*
X1391000Y550000D02*
X1392000Y549000D01*
X1243000Y495000D02*
X1254250D01*
X1223000Y554000D02*
X1224000Y555000D01*
X1231000D01*
Y613000D01*
X1223000Y621000D02*
X1231000Y613000D01*
X964000Y621000D02*
X1223000D01*
X651000Y948000D02*
Y960000D01*
X665000Y947000D02*
Y961000D01*
X678000Y947000D02*
Y961000D01*
X691000Y947000D02*
Y960000D01*
X703000Y947000D02*
Y961000D01*
X903000Y409000D02*
Y423460D01*
X912000D01*
X1116250Y633000D02*
X1119000D01*
X1115250Y632000D02*
X1116250Y633000D01*
X890000Y397000D02*
X892000Y395000D01*
X890000Y397000D02*
Y414000D01*
X1107000Y561000D02*
X1108000Y562000D01*
X1109000Y561000D01*
X939999Y489999D02*
X940000Y490000D01*
X939998D02*
X939999Y489999D01*
X965000Y499000D02*
X966000D01*
X963000Y622000D02*
X964000Y621000D01*
X951000Y453000D02*
Y454000D01*
X940000Y403000D02*
X974000D01*
X974450Y403450D01*
X894000Y490000D02*
X939998D01*
X884000Y499000D02*
X965000D01*
X912000Y423460D02*
X912460Y423000D01*
X931000Y413000D02*
X988250D01*
X965000Y424000D02*
X986000D01*
X930000Y454000D02*
X931000Y453000D01*
X928999Y452999D02*
X930000Y454000D01*
X894998Y452999D02*
X928999D01*
X904000Y632000D02*
X1115250D01*
X1106000Y562000D02*
X1107000Y561000D01*
X848000Y562000D02*
X1106000D01*
X872000Y418000D02*
X877000Y413000D01*
X838000Y418000D02*
X872000D01*
X856000Y621000D02*
X912000D01*
X901537Y914540D02*
X905077Y911000D01*
X745460Y914540D02*
X901537D01*
X905077Y911000D02*
X963000D01*
X1009000Y818000D02*
X1155387D01*
X745000Y915000D02*
X745460Y914540D01*
X814000Y384000D02*
Y416998D01*
X845000Y392000D02*
X852000Y385000D01*
X826000Y392000D02*
Y418000D01*
Y392000D02*
X845000D01*
X839750Y368500D02*
Y384000D01*
X814000D02*
X839750D01*
X812999Y417999D02*
X813000Y418000D01*
X814000D01*
X573400Y1276000D02*
Y1291600D01*
X548000Y1317000D02*
X573400Y1291600D01*
X548000Y1317000D02*
Y1333250D01*
X548000Y1333250D01*
X260500Y1613500D02*
X261000Y1614000D01*
X1080383Y431460D02*
X1080463Y431540D01*
X1087537D01*
X1087617Y431460D01*
X1217460D01*
X952000Y453000D02*
X1056000D01*
X1077540Y431460D01*
X1080383D01*
X811000Y1001000D02*
X814000Y1004000D01*
X811000Y999000D02*
Y1001000D01*
X775000Y999000D02*
X811000D01*
X1433000Y191000D02*
X1453000D01*
X156000Y1414500D02*
X194000D01*
X891000Y1123000D02*
X892000Y1122000D01*
X1169000Y971500D02*
X1178500D01*
X1179000Y972000D01*
X890000Y1045000D02*
X892000Y1043000D01*
X951000Y454000D02*
X952000Y453000D01*
X1304000Y1512000D02*
X1305000D01*
Y1519000D01*
X852000Y367000D02*
Y385000D01*
X1382000Y613000D02*
X1383000Y612000D01*
X1201000Y556000D02*
X1214000D01*
X623000Y961000D02*
X624000Y960000D01*
X812999Y417999D02*
X814000Y416998D01*
X138000Y1377000D02*
X140000Y1375000D01*
X1252000Y851500D02*
Y863000D01*
X903250Y368500D02*
Y395750D01*
X664000Y960000D02*
X665000Y961000D01*
X800750Y1550250D02*
Y1562250D01*
X208000Y1223000D02*
X210000Y1225000D01*
X690000Y961000D02*
X691000Y960000D01*
X1210250Y1489250D02*
X1237745D01*
X703000Y961000D02*
X704000Y962000D01*
X848000Y406000D02*
X866000D01*
X1239000Y1461000D02*
X1251000D01*
X1414500Y581000D02*
X1451000D01*
D61*
X112700Y1102300D02*
X113000Y1102000D01*
X82000Y1102300D02*
X112700D01*
X1373250Y371750D02*
X1427500D01*
X1189000Y590000D02*
X1191000Y588000D01*
Y602000D01*
X143000Y1149000D02*
Y1154250D01*
X113000Y1140000D02*
X134000D01*
X143000Y1149000D01*
X113000Y1011000D02*
X385000D01*
X555940Y933060D02*
X603940D01*
X385000Y1011000D02*
X402000Y994000D01*
X495000D01*
X555940Y933060D01*
X1371750Y323000D02*
X1398000D01*
X603940Y933060D02*
X614000Y923000D01*
X964000D01*
X875000Y1109000D02*
X875250Y1109250D01*
X875000Y1122000D02*
X875250Y1122250D01*
X875000Y1136000D02*
X875250Y1136250D01*
X875000Y1149000D02*
X875250Y1149250D01*
X860250Y1188250D02*
X875250D01*
X864250Y1201250D02*
X875250D01*
X855000Y1230000D02*
X875250D01*
X848500Y1159500D02*
X851250Y1162250D01*
X875250D01*
X770500Y1164500D02*
X845500D01*
X856250Y1175250D01*
X875250D01*
X770500Y1169500D02*
X841500D01*
X860250Y1188250D01*
X857500Y1194500D02*
X864250Y1201250D01*
X770500Y1199500D02*
X833500D01*
X848000Y1214000D01*
X964000D01*
X860000Y1243000D02*
X875250D01*
X829500Y1204500D02*
X855000Y1230000D01*
X826500Y1209500D02*
X860000Y1243000D01*
X822500Y1214500D02*
X865000Y1257000D01*
X875250D01*
X813500Y1219500D02*
X865000Y1271000D01*
X875250D01*
X866000Y1285000D02*
X875250D01*
X865000Y1298000D02*
X875250D01*
X805500Y1224500D02*
X866000Y1285000D01*
X788500Y1234500D02*
X866000Y1312000D01*
X875250D01*
X748000Y1312000D02*
X748250Y1312250D01*
X748000Y1296000D02*
Y1312000D01*
X744000Y1276000D02*
Y1292000D01*
X748000Y1296000D01*
X739000Y1276000D02*
Y1292000D01*
X735000Y1296000D02*
X739000Y1292000D01*
X735000Y1296000D02*
Y1312000D01*
X735250Y1312250D01*
X729000Y1276000D02*
Y1291000D01*
X721000Y1299000D02*
X729000Y1291000D01*
X721000Y1299000D02*
Y1312000D01*
X721250Y1312250D01*
X561000Y1333250D02*
X561000Y1333250D01*
X574000Y1312000D02*
Y1333250D01*
X561000Y1317000D02*
Y1333250D01*
Y1317000D02*
X579000Y1299000D01*
Y1276000D02*
Y1299000D01*
X477750Y1034250D02*
Y1046000D01*
X479000Y1033000D02*
X593000D01*
X477750Y1034250D02*
X479000Y1033000D01*
X584000Y1034000D02*
Y1058000D01*
X497000Y1050000D02*
X502000Y1045000D01*
X491000D02*
X497000Y1039000D01*
X502000Y1045000D02*
X570000D01*
X573400Y1048400D01*
Y1058000D01*
X497000Y1039000D02*
X576000D01*
X579000Y1042000D01*
Y1058000D01*
X477750Y1074000D02*
X493000D01*
X497000Y1070000D01*
Y1050000D02*
Y1070000D01*
X477750Y1060000D02*
X487000D01*
X491000Y1056000D01*
Y1045000D02*
Y1056000D01*
X493500Y1089500D02*
X552500D01*
X492000Y1088000D02*
X493500Y1089500D01*
X477750Y1088000D02*
X492000D01*
X494500Y1094500D02*
X552500D01*
X488000Y1101000D02*
X494500Y1094500D01*
X477750Y1101000D02*
X488000D01*
X477750Y1115000D02*
X497000D01*
X501500Y1119500D01*
X552500D01*
X501500Y1124500D02*
X552500D01*
X497000Y1129000D02*
X501500Y1124500D01*
X477750Y1129000D02*
X497000D01*
X477750Y1155000D02*
X516000D01*
X525500Y1164500D01*
X552500D01*
X477750Y1168000D02*
X478750Y1167000D01*
X477750Y1182000D02*
X477750Y1182000D01*
X477750Y1209000D02*
X478250Y1209500D01*
X532500Y1239500D02*
X552500D01*
X496000Y1276000D02*
X532500Y1239500D01*
X477750Y1276000D02*
X496000D01*
X477750Y1262000D02*
X500000D01*
X527500Y1234500D01*
X552500D01*
X477750Y1249000D02*
X503000D01*
X522500Y1229500D01*
X552500D01*
X477750Y1236000D02*
X506000D01*
X517500Y1224500D01*
X552500D01*
X477750Y1222000D02*
X510000D01*
X512500Y1219500D01*
X552500D01*
X477750Y1195000D02*
X506000D01*
X515500Y1204500D01*
X552500D01*
X477750Y1182000D02*
X512000D01*
X519500Y1174500D01*
X478750Y1167000D02*
X518000D01*
X520500Y1169500D01*
X552500D01*
X477750Y1142000D02*
X515000D01*
X517500Y1139500D01*
X552500D01*
X739000Y1058000D02*
Y1070000D01*
X756500Y1104500D02*
X767500D01*
X755000Y1106000D02*
X756500Y1104500D01*
X755000Y1106000D02*
Y1114000D01*
X754000D02*
X755000Y1115000D01*
Y1115000D01*
X754000Y1095000D02*
X755000D01*
X756000Y1154000D02*
X756500Y1154500D01*
X756000Y1152000D02*
Y1154000D01*
X760500Y1159500D02*
X770500D01*
X756000Y1164000D02*
X760500Y1159500D01*
X766500Y1234500D02*
X770500D01*
X755000Y1216000D02*
X761500Y1209500D01*
X755000Y1230000D02*
X755500Y1229500D01*
X770500Y1204500D02*
X829500D01*
X770500Y1209500D02*
X826500D01*
X770500Y1214500D02*
X822500D01*
X770500Y1219500D02*
X813500D01*
X770500Y1224500D02*
X805500D01*
X770500Y1229500D02*
X796500D01*
X865000Y1298000D01*
X566000Y1213000D02*
X567000D01*
X552500Y1209500D02*
X562500D01*
X566000Y1213000D01*
X562500Y1204500D02*
X566000Y1201000D01*
X567000D01*
X552500Y1174500D02*
X575500D01*
X578000Y1172000D01*
X568500Y1169500D02*
X570500Y1167500D01*
Y1158500D02*
Y1167500D01*
Y1158500D02*
X572000Y1157000D01*
X578000D01*
X562500Y1164500D02*
X565700Y1161300D01*
Y1143000D02*
Y1161300D01*
Y1143000D02*
X578000D01*
X552500Y1084500D02*
X561271D01*
X653800Y1058200D02*
X654000Y1058000D01*
X644000Y1073000D02*
X648100Y1068900D01*
X643000Y1073000D02*
X644000D01*
X651808Y1068900D02*
X653800Y1066908D01*
Y1058200D02*
Y1066908D01*
X648100Y1068900D02*
X651808D01*
X659000Y1058000D02*
Y1071999D01*
X659999Y1072998D01*
X669000Y1058000D02*
Y1071000D01*
X670998Y1072998D01*
X696998D02*
X698999D01*
X624000Y1034000D02*
Y1058000D01*
X622000Y1032000D02*
X624000Y1034000D01*
X610000Y1032000D02*
X622000D01*
X609000Y1033000D02*
X610000Y1032000D01*
X623750Y976500D02*
X624000Y976750D01*
X637750Y976500D02*
X638000Y976750D01*
X624000D02*
Y1013000D01*
X654000Y1043000D01*
Y1058000D01*
X638000Y976750D02*
Y1012000D01*
X659000Y1033000D01*
X651000Y976500D02*
Y1014000D01*
X664000Y1027000D01*
Y1058000D01*
X665000Y1020000D02*
X669000Y1024000D01*
X665000Y976750D02*
Y1020000D01*
X664750Y976500D02*
X665000Y976750D01*
X674000Y1025000D02*
Y1058000D01*
Y1025000D02*
X678000Y1021000D01*
Y976500D02*
Y1021000D01*
X678000Y976500D02*
X678000Y976500D01*
X689000Y1013000D02*
Y1058000D01*
Y1013000D02*
X691000Y1011000D01*
Y976500D02*
Y1011000D01*
X691000Y976500D02*
X691000Y976500D01*
X694000Y1020000D02*
Y1058000D01*
Y1020000D02*
X704000Y1010000D01*
Y976500D02*
Y1010000D01*
X704000Y976500D02*
X704000Y976500D01*
X714000Y996000D02*
Y1058000D01*
Y996000D02*
X717500Y992500D01*
X729000Y1015000D02*
Y1058000D01*
Y1015000D02*
X745000Y999000D01*
Y976500D02*
Y999000D01*
X745000Y976500D02*
X745000Y976500D01*
X561271Y1084500D02*
X566999Y1090228D01*
Y1092998D01*
X734000Y1073000D02*
X736000D01*
X739000Y1070000D01*
X770500Y1144500D02*
X822500D01*
X831576Y1149000D02*
X875000D01*
X826076Y1154500D02*
X831576Y1149000D01*
X770500Y1149500D02*
X824288D01*
X770500Y1154500D02*
X826076D01*
X823500Y1109500D02*
X863000Y1070000D01*
X875250D01*
X855000Y1044000D02*
X875250D01*
X849000Y1050000D02*
X855000Y1044000D01*
X853000Y1031000D02*
X875250D01*
X843000Y1041000D02*
X853000Y1031000D01*
X844000Y1018000D02*
X875250D01*
X835000Y1027000D02*
X844000Y1018000D01*
X770500Y1104500D02*
X818500D01*
X866000Y1057000D01*
X875250D01*
X770500Y1099500D02*
X814500D01*
X849000Y1065000D01*
Y1050000D02*
Y1065000D01*
X770500Y1094500D02*
X812500D01*
X843000Y1064000D01*
Y1041000D02*
Y1064000D01*
X770500Y1089500D02*
X810500D01*
X835000Y1065000D01*
Y1027000D02*
Y1065000D01*
X770500Y1109500D02*
X823500D01*
X770500Y1114500D02*
X826500D01*
X858000Y1083000D01*
X875250D01*
X845153Y1122000D02*
X875000D01*
X770500Y1119500D02*
X830500D01*
X854000Y1096000D01*
X875250D01*
X822500Y1144500D02*
X832700Y1134300D01*
X832853D01*
X845153Y1122000D01*
X824288Y1149500D02*
X834688Y1139100D01*
X834841D01*
X837941Y1136000D01*
X875000D01*
X770500Y1129500D02*
X827500D01*
X848000Y1109000D01*
X875000D01*
X755000Y1201000D02*
X755292D01*
X552500Y1204500D02*
X562500D01*
X478250Y1209500D02*
X552500D01*
X770500Y1159500D02*
X848500D01*
X552500Y1164500D02*
X562500D01*
X761500Y1209500D02*
X770500D01*
X659000Y1033000D02*
Y1058000D01*
X756500Y1154500D02*
X770500D01*
X755500Y1229500D02*
X770500D01*
X552500Y1169500D02*
X568500D01*
X669000Y1024000D02*
Y1058000D01*
X770500Y1194500D02*
X857500D01*
X519500Y1174500D02*
X552500D01*
X755292Y1201000D02*
X761792Y1194500D01*
X770500D01*
X574000Y1312000D02*
X587000Y1299000D01*
X609000Y1276000D02*
Y1292000D01*
X602000Y1299000D02*
X609000Y1292000D01*
X587000Y1299000D02*
X602000D01*
X664000Y1276000D02*
Y1293000D01*
X668940Y1297940D01*
X701940D01*
X707250Y1303250D01*
Y1312250D01*
X624000Y1058000D02*
Y1067000D01*
X616000Y1075000D02*
Y1088000D01*
Y1075000D02*
X624000Y1067000D01*
X694000Y1058000D02*
Y1070000D01*
X696998Y1072998D01*
X670998D02*
X670999D01*
X679000Y1058000D02*
Y1077771D01*
X677060Y1079711D02*
X679000Y1077771D01*
X677060Y1079711D02*
Y1080940D01*
X677000Y1081000D02*
X677060Y1080940D01*
X677000Y1081000D02*
Y1111000D01*
X552500Y1124500D02*
X565500D01*
X567000Y1123000D01*
Y1120000D02*
Y1123000D01*
X604060Y1135060D02*
X605000Y1136000D01*
X552500Y1134500D02*
X572271D01*
X572831Y1135060D01*
X574711D01*
X574711Y1135060D01*
X604060D01*
X717500Y976500D02*
Y987000D01*
Y992500D01*
X770500Y1234500D02*
X788500D01*
X754000Y1114000D02*
X755000D01*
X754000Y1095000D02*
X754500Y1094500D01*
X767500D01*
X1371000Y374000D02*
X1373250Y371750D01*
D62*
X146890Y674110D02*
X202000D01*
X603110D01*
X192000Y546000D02*
X202000D01*
X189000Y543000D02*
X192000Y546000D01*
X189000Y524000D02*
Y543000D01*
X221000Y524000D02*
Y547000D01*
Y658000D02*
X329000D01*
X603110Y674110D02*
X619000Y690000D01*
X646000Y762000D02*
X667000D01*
X621000D02*
X646000D01*
X667000Y750000D02*
Y762000D01*
Y750000D02*
X671000Y746000D01*
X619000Y690000D02*
Y762000D01*
X702748Y707220D02*
X729220D01*
X653000Y707000D02*
X669032D01*
X670032Y706000D01*
X671252Y707220D01*
X472000Y240000D02*
X722000D01*
X730000Y232000D01*
X42500Y290000D02*
Y307500D01*
X54000Y319000D01*
X226000D01*
X237000Y308000D01*
X290000Y60000D02*
Y105000D01*
X237000Y158000D02*
Y308000D01*
Y158000D02*
X290000Y105000D01*
X117500Y154500D02*
Y190000D01*
Y154500D02*
X132000Y140000D01*
X204000D01*
X239000Y105000D01*
Y61000D02*
Y105000D01*
Y61000D02*
X240000Y60000D01*
X130000Y44600D02*
X162400D01*
X177800Y60000D01*
X190000D01*
X730000Y190000D02*
Y232000D01*
X636000Y682000D02*
Y743000D01*
X702748Y742780D02*
X730780D01*
X612000Y658000D02*
X636000Y682000D01*
X329000Y658000D02*
X612000D01*
D63*
X170000Y561000D02*
X238000D01*
X170000Y503000D02*
Y561000D01*
X238000Y642000D02*
X306000D01*
X238000Y581000D02*
Y642000D01*
X75125Y1256000D02*
X81000D01*
X69250D02*
X75125D01*
X74000Y1275500D02*
X80500D01*
X69000D02*
X74000D01*
X322000Y1439000D02*
X322290Y1438710D01*
X310000Y1614000D02*
X377750D01*
X1312710Y1240710D02*
X1313000Y1241000D01*
X683999Y1438997D02*
Y1439000D01*
X683577Y1438997D02*
X683999D01*
X683290Y1438710D02*
X683577Y1438997D01*
X673290Y1438710D02*
X683290D01*
X673290Y1438710D02*
Y1438710D01*
X322290Y1438710D02*
X673290D01*
X1315000Y1587000D02*
X1332000D01*
X1255721Y1647967D02*
X1315000D01*
X1332000Y1586750D02*
Y1587000D01*
X1331750Y1586750D02*
X1332000D01*
X1349000Y1361000D02*
Y1401032D01*
X1273000Y1437000D02*
X1279000D01*
X1364000Y1586000D02*
Y1587000D01*
X1392000Y1464000D02*
Y1540000D01*
X1372100Y1464000D02*
X1392000D01*
X1325000Y1437000D02*
X1354220D01*
Y1437748D02*
Y1464000D01*
X1353000Y1498750D02*
Y1514000D01*
Y1498750D02*
X1353750Y1498000D01*
X1407750Y1477000D02*
Y1498000D01*
X1451500Y1396000D02*
Y1396002D01*
X1428000Y1396000D02*
X1451500D01*
Y1435998D02*
Y1437748D01*
X1439000Y1534414D02*
Y1546000D01*
X1407750Y1498000D02*
X1438000D01*
Y1513586D02*
X1439000D01*
X1438000Y1498000D02*
Y1513586D01*
X1417000Y1310998D02*
X1451500D01*
X1417000Y1303748D02*
Y1310998D01*
X1386780Y1303748D02*
X1417000D01*
X1386780Y1271002D02*
Y1272252D01*
X1253000Y1303000D02*
X1273000D01*
X1253000D02*
X1253000D01*
Y1294000D02*
Y1303000D01*
X1253000Y1348000D02*
Y1360000D01*
Y1346000D02*
Y1348000D01*
Y1360000D02*
X1253000D01*
X1253000Y1348000D02*
X1306000D01*
X1273000Y1303000D02*
X1275000D01*
X1253000D02*
Y1314000D01*
X1349000Y1303748D02*
Y1321000D01*
X1306000Y1348000D02*
Y1361000D01*
X1331000Y1384100D02*
Y1406000D01*
X1303000D02*
X1331000D01*
Y1384000D02*
Y1384100D01*
X1303000Y1406000D02*
Y1408000D01*
X1321000Y1272252D02*
X1351220D01*
X1321000Y1272000D02*
Y1272252D01*
Y1303748D02*
X1349000D01*
X1321000Y1303000D02*
Y1303748D01*
X1349000D02*
X1351220D01*
X1349000Y1401032D02*
X1354220Y1406252D01*
X1331000Y1361000D02*
X1349000D01*
X1331000D02*
Y1361900D01*
X1435000Y810000D02*
X1439247Y805752D01*
X1418000Y810000D02*
X1435000D01*
X1439247Y805752D02*
X1452000D01*
X1430500Y796500D02*
X1441250Y785750D01*
X1376500Y796500D02*
X1430500D01*
X1441250Y785750D02*
X1452000D01*
X1416000Y808000D02*
X1418000Y810000D01*
X1261500Y796500D02*
X1262000Y797000D01*
X1248000Y1026000D02*
X1249000Y1025000D01*
X329000Y617500D02*
Y658000D01*
X402914Y480000D02*
Y516086D01*
X391500Y527500D02*
X402914Y516086D01*
X391500Y527500D02*
Y539500D01*
Y554586D01*
X361000Y537000D02*
X389000D01*
X391500Y539500D01*
X361000Y565000D02*
X362000Y566000D01*
X336000Y518000D02*
X337000D01*
X325000Y507000D02*
X336000Y518000D01*
X307000Y619000D02*
Y641000D01*
X306000Y642000D02*
X307000Y641000D01*
X81000Y1256000D02*
X81000Y1256000D01*
X1297000Y670000D02*
Y685500D01*
X1269000Y669000D02*
X1280000D01*
X1297000Y706500D02*
Y718000D01*
X433000Y691000D02*
X436000D01*
X436000Y691000D01*
X517000Y822000D02*
X531000Y836000D01*
X452000Y822000D02*
X517000D01*
X436000Y691000D02*
X536000D01*
X436000Y691000D02*
X436000Y691000D01*
X519000Y839000D02*
X528000Y848000D01*
X556750Y1628500D02*
X557000Y1628750D01*
X540000Y1628500D02*
X556750D01*
X538500Y1627000D02*
X540000Y1628500D01*
X522000Y1627000D02*
X538500D01*
X522000D02*
Y1662000D01*
X518247Y1665753D02*
X522000Y1662000D01*
X407752Y1665753D02*
X518247D01*
X405750Y1663750D02*
X407752Y1665753D01*
X405750Y1647500D02*
Y1663750D01*
X539753Y1649747D02*
X540000Y1649500D01*
X539753Y1649747D02*
Y1665753D01*
X405750Y1647500D02*
X406000Y1647250D01*
X463000Y847586D02*
X485914D01*
X486000Y847500D01*
X361000Y617500D02*
Y641000D01*
X361000Y641000D02*
X361000Y641000D01*
X391500Y575414D02*
Y600500D01*
X391000Y601000D02*
X391500Y600500D01*
X361000Y641000D02*
X372000D01*
X380000Y633000D01*
X391000D01*
X307000Y564500D02*
Y587000D01*
X325000Y480000D02*
Y507000D01*
X307000Y587000D02*
X312000Y592000D01*
X324000D01*
X329000Y597000D01*
Y617500D01*
X238000Y561000D02*
X238000Y581000D01*
X92000Y503000D02*
X170000D01*
X87914Y498914D02*
X92000Y503000D01*
X87914Y480000D02*
Y498914D01*
X895500Y1518000D02*
X905000D01*
Y1543718D01*
X861782Y1555000D02*
X869782Y1547000D01*
X695280Y1544720D02*
X720002D01*
X695000Y1545000D02*
X695280Y1544720D01*
X505000Y839000D02*
X519000D01*
X896000Y1497000D02*
Y1517500D01*
X710000Y1516000D02*
X725500D01*
X746500Y1501000D02*
Y1516000D01*
X1299000Y522000D02*
X1320000D01*
X1297000Y669000D02*
X1308000D01*
X1410000Y678000D02*
X1444000D01*
X1450000Y672000D01*
Y643000D02*
Y672000D01*
X1261000Y796000D02*
X1261500Y796500D01*
X673000Y1685000D02*
Y1689000D01*
X1306000Y1348000D02*
X1467000D01*
X1480000Y1498000D02*
X1480000Y1498000D01*
X1438000Y1498000D02*
X1480000D01*
X1351220Y1240000D02*
Y1272252D01*
Y1240000D02*
X1377900D01*
X1491000Y1255000D02*
Y1579000D01*
X1489000Y1253000D02*
X1491000Y1255000D01*
X1195722Y1647967D02*
X1196000Y1648246D01*
X1364000Y1587000D02*
Y1605000D01*
X1321000Y1673000D02*
X1328000Y1666000D01*
Y1617000D02*
Y1666000D01*
X1331750Y1551000D02*
Y1586750D01*
X1277000Y1414000D02*
Y1436000D01*
X1273000Y1437000D02*
X1277000Y1436000D01*
X1273000Y1303000D02*
X1273037Y1303271D01*
X1277000Y1332000D02*
X1480000D01*
X1273037Y1303271D02*
Y1303271D01*
X1275000Y1298000D02*
X1277000Y1300000D01*
X1275000Y1272000D02*
Y1298000D01*
Y1303000D01*
X1389780Y1437748D02*
X1451500D01*
X1354220Y1437000D02*
Y1437748D01*
X1364000Y1586000D02*
X1377000D01*
X740748Y1647500D02*
Y1674252D01*
X970252D02*
X973000Y1677000D01*
X1196000Y1648246D02*
Y1673000D01*
X1321000D01*
X973000Y1677000D02*
X1157000D01*
X1169000Y1689000D01*
X1416000D01*
X888249Y1647500D02*
Y1673003D01*
X887000Y1674252D02*
X888249Y1673003D01*
X740748Y1674252D02*
X887000D01*
X970252D01*
X1328000Y1617000D02*
X1366000D01*
X1484000Y1586000D02*
X1491000Y1579000D01*
X1366000Y1617000D02*
X1397000Y1586000D01*
X1413000D01*
X1392000Y1540000D02*
Y1573000D01*
X1408000D01*
Y1551250D02*
Y1573000D01*
X1407750Y1551000D02*
X1408000Y1551250D01*
Y1573000D02*
X1419000D01*
X1453000Y1253000D02*
X1489000D01*
X1426003Y1240003D02*
X1491003D01*
X1386780Y1271002D02*
X1451500D01*
X1439000Y1546000D02*
X1445000D01*
X1455000Y1556000D01*
Y1566000D01*
X1465000Y1532000D02*
Y1550000D01*
X1471000Y1612000D02*
X1473000Y1614000D01*
X1471000Y1556000D02*
Y1612000D01*
X1465000Y1550000D02*
X1471000Y1556000D01*
X901498Y1547220D02*
X919000D01*
X751498Y1544720D02*
X752218Y1544000D01*
X770000D01*
X844000Y1555000D02*
X861782D01*
X874500Y1518000D02*
Y1525000D01*
X836000D02*
X874500D01*
X710000Y1490000D02*
X761000D01*
X746500Y1501000D02*
X758565D01*
X795565Y1538000D01*
X847000D01*
X761000Y1490000D02*
X796000Y1525000D01*
X836000D01*
X1100000Y1230000D02*
X1313000D01*
X1088000Y1240710D02*
X1312710D01*
X335000Y1449000D02*
X673000D01*
X260752Y1625000D02*
Y1647500D01*
X218000Y1625000D02*
X260752D01*
X294000D01*
X426000D02*
X427000Y1626000D01*
X294000Y1625000D02*
X426000D01*
X364000Y1490000D02*
X710000D01*
X377750Y1614000D02*
X406000D01*
X528000Y848000D02*
X694000D01*
X1176000Y778000D02*
X1257000D01*
X1244000Y808000D02*
X1416000D01*
X1217000D02*
X1244000D01*
X1193000Y765000D02*
X1252000D01*
X1279000Y738000D01*
X1473000Y698000D02*
X1475290Y695710D01*
X1279000Y738000D02*
X1295000D01*
X1257000Y778000D02*
X1284000Y751000D01*
X1300000D01*
X1313500Y680000D02*
X1376000D01*
X1295000Y738000D02*
X1335000Y698000D01*
X1473000D01*
X1300000Y751000D02*
X1341000Y710000D01*
X1483000D01*
X1489000Y704000D01*
X1452500Y431750D02*
X1484750D01*
X1475290Y456290D02*
Y695710D01*
X1470750Y451750D02*
X1475290Y456290D01*
X1452500Y451750D02*
X1470750D01*
X1484750Y431750D02*
X1489000Y436000D01*
Y704000D01*
X506710Y583000D02*
X1088000D01*
X1099710Y572290D02*
X1100000Y572000D01*
X1288710Y510290D02*
X1289000Y510000D01*
X547000D02*
X547290Y510290D01*
X536000Y522000D02*
X1299000D01*
X547290Y510290D02*
X1288710D01*
X520000Y572000D02*
X520290Y572290D01*
X1099710D01*
X1216710Y807710D02*
X1217000Y808000D01*
X694000Y848000D02*
X734290Y807710D01*
X1216710D01*
X531000Y836000D02*
X688000D01*
X728000Y796000D01*
X1206000D01*
X791000Y1063000D02*
X811000D01*
X776500Y1043500D02*
X789500D01*
X765000Y1055000D02*
X776500Y1043500D01*
X765000Y1055000D02*
Y1063000D01*
X716000Y1101000D02*
X727000D01*
X744500Y1083500D01*
X765000Y1063000D01*
X406000Y1614000D02*
X406750Y1614750D01*
X448750D01*
X241000Y1614000D02*
X261000D01*
X307500D01*
X202000D02*
X241000D01*
X1408500Y1132000D02*
Y1145000D01*
X1408000Y1132000D02*
X1408154Y1130000D01*
X1220000Y1605000D02*
X1364000D01*
X1389780Y1405000D02*
Y1406252D01*
Y1405000D02*
X1428000D01*
Y1396000D02*
Y1405000D01*
X452000Y704000D02*
X547000D01*
X350000Y1501000D02*
X746500D01*
X1206000Y796000D02*
X1261000D01*
X1261500Y796500D02*
X1376500D01*
X673000Y1689000D02*
X1060000D01*
X1376000Y680000D02*
X1379000Y677000D01*
X1277000Y1300000D02*
Y1332000D01*
X1354500Y1130000D02*
Y1153500D01*
X1296000Y669000D02*
X1297000Y670000D01*
X1421500Y1568500D02*
X1423000Y1567000D01*
X1421500Y1568500D02*
Y1571500D01*
X1354500Y1181500D02*
Y1206500D01*
X80500Y1275500D02*
X81000Y1276000D01*
X361000Y537000D02*
Y565000D01*
D64*
X52000Y876502D02*
D03*
Y896500D02*
D03*
Y916503D02*
D03*
Y936501D02*
D03*
X720750Y1647500D02*
D03*
X740748D02*
D03*
X760751D02*
D03*
X780749D02*
D03*
X868251D02*
D03*
X888249D02*
D03*
X908252D02*
D03*
X928250D02*
D03*
X590747D02*
D03*
X610750D02*
D03*
X630748D02*
D03*
X52000Y1333999D02*
D03*
Y1354002D02*
D03*
Y1374000D02*
D03*
X365673Y1647500D02*
D03*
X385752D02*
D03*
X405750D02*
D03*
X425752D02*
D03*
X445751D02*
D03*
X1195722Y1647967D02*
D03*
X1215724D02*
D03*
X1235723D02*
D03*
X1058750Y1648000D02*
D03*
X1038752D02*
D03*
X1451500Y1416000D02*
D03*
Y1435998D02*
D03*
X1465000Y972250D02*
D03*
Y992253D02*
D03*
Y1012251D02*
D03*
X1450000Y641999D02*
D03*
Y622001D02*
D03*
Y601998D02*
D03*
Y582000D02*
D03*
X200672Y1647500D02*
D03*
X220751D02*
D03*
X240749D02*
D03*
X260752D02*
D03*
X280750D02*
D03*
X54500Y1463999D02*
D03*
Y1484002D02*
D03*
Y1504000D02*
D03*
X1452000Y845829D02*
D03*
Y825751D02*
D03*
Y805752D02*
D03*
Y785750D02*
D03*
Y765752D02*
D03*
X1451500Y1291000D02*
D03*
Y1310998D02*
D03*
X1452500Y171172D02*
D03*
Y191171D02*
D03*
Y211173D02*
D03*
Y231171D02*
D03*
Y251250D02*
D03*
Y271062D02*
D03*
Y291128D02*
D03*
D65*
X52000Y956499D02*
D03*
Y1393998D02*
D03*
X1451500Y1396002D02*
D03*
X1465000Y1032249D02*
D03*
X1450000Y562002D02*
D03*
X54500Y1523998D02*
D03*
X1452000Y745753D02*
D03*
X1451500Y1271002D02*
D03*
X1452500Y151174D02*
D03*
D66*
X800747Y1647500D02*
D03*
X948248D02*
D03*
X650747D02*
D03*
X465749D02*
D03*
X1255721Y1647967D02*
D03*
X1078748Y1648000D02*
D03*
X300748Y1647500D02*
D03*
D67*
X400000Y60000D02*
D03*
X350000D02*
D03*
X240000D02*
D03*
X190000D02*
D03*
D68*
X450000D02*
D03*
X290000D02*
D03*
D69*
X56600Y1153100D02*
D03*
D70*
X82000D02*
D03*
X56600Y1127700D02*
D03*
X82000D02*
D03*
X56600Y1102300D02*
D03*
X82000D02*
D03*
X56600Y1076900D02*
D03*
X82000D02*
D03*
X56600Y1051500D02*
D03*
X82000D02*
D03*
D71*
X808800Y721000D02*
D03*
X758000D02*
D03*
D72*
X1452500Y471750D02*
D03*
X1427500D02*
D03*
D73*
X1452500Y451750D02*
D03*
Y431750D02*
D03*
Y411750D02*
D03*
Y391750D02*
D03*
Y371750D02*
D03*
X1427500Y451750D02*
D03*
Y431750D02*
D03*
Y411750D02*
D03*
Y391750D02*
D03*
Y371750D02*
D03*
X955000Y60500D02*
D03*
X935000D02*
D03*
X915000D02*
D03*
X895000D02*
D03*
X875000D02*
D03*
X955000Y85500D02*
D03*
X935000D02*
D03*
X915000D02*
D03*
X895000D02*
D03*
X875000D02*
D03*
X1165000Y60500D02*
D03*
X1145000D02*
D03*
X1125000D02*
D03*
X1105000D02*
D03*
X1085000D02*
D03*
X1165000Y85500D02*
D03*
X1145000D02*
D03*
X1125000D02*
D03*
X1105000D02*
D03*
X1085000D02*
D03*
D74*
X24500Y786000D02*
D03*
Y721000D02*
D03*
X69500D02*
D03*
Y786000D02*
D03*
X505000Y105400D02*
D03*
Y54600D02*
D03*
X130000Y95400D02*
D03*
Y44600D02*
D03*
D75*
X357500Y440000D02*
D03*
X432500D02*
D03*
Y290000D02*
D03*
X357500Y240000D02*
D03*
X432500D02*
D03*
X357500Y190000D02*
D03*
X432500D02*
D03*
X42500Y440000D02*
D03*
X117500D02*
D03*
Y290000D02*
D03*
X42500Y240000D02*
D03*
X117500D02*
D03*
X42500Y190000D02*
D03*
X117500D02*
D03*
X200000Y440000D02*
D03*
X275000D02*
D03*
Y290000D02*
D03*
X200000Y240000D02*
D03*
X275000D02*
D03*
X200000Y190000D02*
D03*
X275000D02*
D03*
D76*
X357500Y290000D02*
D03*
X42500D02*
D03*
X200000D02*
D03*
D77*
X730000Y640000D02*
D03*
X650000D02*
D03*
X522000Y190000D02*
D03*
D78*
X730000D02*
D03*
D79*
X535000Y749600D02*
D03*
Y775000D02*
D03*
D80*
Y724200D02*
D03*
D81*
X194000Y1158000D02*
D03*
D82*
X270000D02*
D03*
D83*
X50000Y50000D02*
D03*
Y1650000D02*
D03*
X250000Y750000D02*
D03*
X1450000Y50000D02*
D03*
Y1650000D02*
D03*
D84*
X740000Y60000D02*
D03*
D85*
X640000D02*
D03*
X590000D02*
D03*
D86*
X975000Y60500D02*
D03*
Y85500D02*
D03*
X1185000Y60500D02*
D03*
Y85500D02*
D03*
D87*
X593000Y920000D02*
D03*
X420000Y1060000D02*
D03*
X206000Y1037000D02*
D03*
X271000Y1027000D02*
D03*
Y1074000D02*
D03*
X125000Y1097000D02*
D03*
X280000Y1101000D02*
D03*
Y1048000D02*
D03*
X127000Y735000D02*
D03*
X134000Y1088000D02*
D03*
X113000Y1140000D02*
D03*
Y1102000D02*
D03*
X130000Y791000D02*
D03*
X125000Y826000D02*
D03*
X115000Y816000D02*
D03*
X90000Y906000D02*
D03*
X115000Y931000D02*
D03*
X101000Y925000D02*
D03*
X259000Y1504000D02*
D03*
Y1285000D02*
D03*
X257000Y1249000D02*
D03*
X406000Y1285000D02*
D03*
Y1142000D02*
D03*
X395000Y1155000D02*
D03*
Y974000D02*
D03*
X385000Y1168000D02*
D03*
Y984000D02*
D03*
X375000Y1182000D02*
D03*
X218000Y1225000D02*
D03*
Y1158000D02*
D03*
X44000Y1209000D02*
D03*
X177000Y1223000D02*
D03*
X163000Y1179000D02*
D03*
X177000Y1171000D02*
D03*
X280000Y1195000D02*
D03*
X310290Y1171000D02*
D03*
X163000Y1250000D02*
D03*
X300000Y1179000D02*
D03*
X204000Y1079000D02*
D03*
X244000Y1057000D02*
D03*
X156000Y1112000D02*
D03*
X280000Y1415000D02*
D03*
X271000Y1210000D02*
D03*
X158500Y604000D02*
D03*
X181000Y615000D02*
D03*
X158500Y623500D02*
D03*
Y586000D02*
D03*
X261000Y1236000D02*
D03*
X158000Y568000D02*
D03*
X230000Y1195000D02*
D03*
X113000Y1228000D02*
D03*
X105000Y642000D02*
D03*
X75000Y1227000D02*
D03*
X293000Y1583000D02*
D03*
X289000Y1431000D02*
D03*
X322000Y1439000D02*
D03*
X270000Y1493000D02*
D03*
X181000D02*
D03*
X310000Y1614000D02*
D03*
X196000Y1458000D02*
D03*
X151000Y1492000D02*
D03*
X133000Y1442997D02*
D03*
X193000Y1413997D02*
D03*
X203000Y1420000D02*
D03*
X173000Y1404000D02*
D03*
X602000Y1536000D02*
D03*
Y1397000D02*
D03*
X548000D02*
D03*
Y1358000D02*
D03*
X560996Y1406000D02*
D03*
X458000Y1423000D02*
D03*
X448000Y1414000D02*
D03*
X215000Y1366000D02*
D03*
X138000Y1375000D02*
D03*
X126000Y1379000D02*
D03*
X159000Y1391000D02*
D03*
X1075000Y1427000D02*
D03*
X735000Y1379000D02*
D03*
X887500Y1379500D02*
D03*
X1040500Y1369500D02*
D03*
X1041250Y1458000D02*
D03*
X1026000Y1431000D02*
D03*
X888000Y1471000D02*
D03*
X970000D02*
D03*
X987000Y1510000D02*
D03*
X255000Y628000D02*
D03*
X967000Y1414000D02*
D03*
Y1458000D02*
D03*
X988998Y1438997D02*
D03*
X977000Y1449000D02*
D03*
X1201000Y1408000D02*
D03*
X988000Y1605000D02*
D03*
X1160000D02*
D03*
Y1198000D02*
D03*
X1129000Y1267000D02*
D03*
X1128540Y743460D02*
D03*
X1144000Y1257000D02*
D03*
X1238000Y1252000D02*
D03*
X1206000Y1320000D02*
D03*
X683999Y1438997D02*
D03*
X673000Y1449000D02*
D03*
X335000D02*
D03*
X633000Y1463000D02*
D03*
X617000Y1477000D02*
D03*
X557000D02*
D03*
X1105000Y1373000D02*
D03*
X1220500Y1585500D02*
D03*
X1315000Y1587000D02*
D03*
Y1647967D02*
D03*
X1319000Y1476750D02*
D03*
X1277000Y1414000D02*
D03*
Y1332000D02*
D03*
X1392000Y1540000D02*
D03*
X1353000Y1514000D02*
D03*
X1407750Y1477000D02*
D03*
X1253000Y1294000D02*
D03*
Y1360000D02*
D03*
X1349000Y1321000D02*
D03*
Y1361000D02*
D03*
X1302000Y1208000D02*
D03*
X1314000Y1204000D02*
D03*
X1178000Y1130000D02*
D03*
X1098000Y413000D02*
D03*
X1168000Y414000D02*
D03*
X1053000Y1175000D02*
D03*
X1043000Y1162000D02*
D03*
X1073000Y459000D02*
D03*
X1064000Y467000D02*
D03*
X1131000Y696000D02*
D03*
X1035000Y1149000D02*
D03*
X1027000Y1136000D02*
D03*
X1018000Y1122000D02*
D03*
X1017750Y962750D02*
D03*
X1009000Y1109000D02*
D03*
X1000000Y1095000D02*
D03*
X1230000Y491000D02*
D03*
Y464000D02*
D03*
X1240000Y478000D02*
D03*
X975000Y1057000D02*
D03*
X984000Y1071000D02*
D03*
X1220000Y500000D02*
D03*
Y452000D02*
D03*
X951000Y1043000D02*
D03*
X910500Y1031000D02*
D03*
Y1018000D02*
D03*
X1240000Y656000D02*
D03*
X1194000Y637000D02*
D03*
X975000Y434000D02*
D03*
X891000Y386000D02*
D03*
X848000Y406000D02*
D03*
X1029000Y352000D02*
D03*
X1227000Y933000D02*
D03*
X1206000Y796000D02*
D03*
X1217000Y808000D02*
D03*
X1350000Y773000D02*
D03*
X1261000Y926000D02*
D03*
Y968000D02*
D03*
X1418000Y810000D02*
D03*
X1276000Y851000D02*
D03*
X1233000Y219000D02*
D03*
X1244000Y202000D02*
D03*
X1206000Y896000D02*
D03*
X1416000Y1016000D02*
D03*
X1206000Y1040000D02*
D03*
X1217000Y1024000D02*
D03*
X1206000Y985000D02*
D03*
X1217998Y954998D02*
D03*
X1015000Y412000D02*
D03*
X930998Y413999D02*
D03*
X940000Y403000D02*
D03*
X965450Y386550D02*
D03*
X1003550Y383450D02*
D03*
X1221500Y565500D02*
D03*
X722000Y535000D02*
D03*
X864000Y295000D02*
D03*
X879998Y288999D02*
D03*
X734000Y554000D02*
D03*
X952750Y385750D02*
D03*
X1032000Y230000D02*
D03*
X957000Y197000D02*
D03*
X1096000Y275000D02*
D03*
X1065000Y205000D02*
D03*
X1073000Y8000D02*
D03*
X1065000Y37000D02*
D03*
X1079500Y165500D02*
D03*
X1055000Y247000D02*
D03*
X1043000Y217000D02*
D03*
Y143000D02*
D03*
X1055000Y155000D02*
D03*
X1110000Y206000D02*
D03*
X935000Y229000D02*
D03*
X946000Y220000D02*
D03*
X911000Y211000D02*
D03*
X904000Y171000D02*
D03*
X901000Y228000D02*
D03*
X878000Y220000D02*
D03*
X883000Y195000D02*
D03*
X865000Y228000D02*
D03*
X855998Y236000D02*
D03*
X829000Y236000D02*
D03*
X814000Y279000D02*
D03*
X928000D02*
D03*
X850000Y152000D02*
D03*
Y28000D02*
D03*
X1009000Y183000D02*
D03*
X1034000Y171000D02*
D03*
X1034040Y45000D02*
D03*
X915000Y143000D02*
D03*
X839000Y9000D02*
D03*
Y86000D02*
D03*
X1104000Y132000D02*
D03*
X895000Y133000D02*
D03*
X1125000Y122000D02*
D03*
X915000D02*
D03*
X1145000Y111000D02*
D03*
X946000Y102000D02*
D03*
X935000Y111000D02*
D03*
X1165000Y102000D02*
D03*
X875000Y19000D02*
D03*
X1085000D02*
D03*
X1105000Y28000D02*
D03*
X895000D02*
D03*
X1125000Y37000D02*
D03*
X915000Y38000D02*
D03*
X1145000Y45000D02*
D03*
X935000D02*
D03*
X1004000Y251000D02*
D03*
X1021000Y155000D02*
D03*
X999000Y240000D02*
D03*
X985000Y229000D02*
D03*
X974998Y143000D02*
D03*
X989000Y197000D02*
D03*
X973000D02*
D03*
X875000Y152000D02*
D03*
X863000D02*
D03*
X359000Y535000D02*
D03*
X337000Y518000D02*
D03*
X45000Y1195000D02*
D03*
X101000Y828000D02*
D03*
X499000Y915000D02*
D03*
X1306000Y226000D02*
D03*
X1211000Y709000D02*
D03*
X1168000Y696000D02*
D03*
Y680000D02*
D03*
X1141000D02*
D03*
X1276000Y626000D02*
D03*
Y574000D02*
D03*
X1286000Y602000D02*
D03*
X1340000Y555000D02*
D03*
X1297000Y594000D02*
D03*
X1306000Y602000D02*
D03*
Y632000D02*
D03*
X1269000Y669000D02*
D03*
X1297000Y796000D02*
D03*
Y718000D02*
D03*
X811000Y355000D02*
D03*
X433000Y691000D02*
D03*
Y755000D02*
D03*
X547000Y704000D02*
D03*
X536000Y691000D02*
D03*
X1030000Y1498500D02*
D03*
X979000Y1552500D02*
D03*
X1234000Y1392000D02*
D03*
X1208000Y1353000D02*
D03*
X221000Y642000D02*
D03*
Y604000D02*
D03*
X91000Y568000D02*
D03*
Y628000D02*
D03*
X94000Y778000D02*
D03*
X361000Y641000D02*
D03*
X605000Y454000D02*
D03*
X670000D02*
D03*
X635000Y429000D02*
D03*
X690000D02*
D03*
X695000Y1545000D02*
D03*
X505000Y839000D02*
D03*
X1376500Y796500D02*
D03*
X1401000Y773000D02*
D03*
X1351000Y755000D02*
D03*
X1260000Y796500D02*
D03*
X499000Y869000D02*
D03*
X205000Y1433997D02*
D03*
X173000Y1458000D02*
D03*
X206000Y1468000D02*
D03*
X896000Y1497000D02*
D03*
X847000Y1538000D02*
D03*
X710000Y1516000D02*
D03*
Y1490000D02*
D03*
X645000Y1539000D02*
D03*
X616000Y1574000D02*
D03*
X543000Y1463000D02*
D03*
X516000Y1531000D02*
D03*
X556000Y1561000D02*
D03*
X1332000Y264000D02*
D03*
X1438000Y241000D02*
D03*
Y263000D02*
D03*
X1362997Y221000D02*
D03*
X1362000Y239000D02*
D03*
X1270000Y261000D02*
D03*
X1269000Y278000D02*
D03*
X536000Y522000D02*
D03*
X547000Y510000D02*
D03*
X1289000D02*
D03*
X1299000Y522000D02*
D03*
X1288500Y463500D02*
D03*
X1289000Y405000D02*
D03*
X916000Y354000D02*
D03*
X1309000Y510000D02*
D03*
Y474000D02*
D03*
X1320000Y522000D02*
D03*
X1467000Y392000D02*
D03*
Y357000D02*
D03*
X1452000Y346000D02*
D03*
Y503000D02*
D03*
X1465000Y512000D02*
D03*
X1224000Y438000D02*
D03*
Y423000D02*
D03*
Y409000D02*
D03*
X1299000Y453000D02*
D03*
X1241000Y381000D02*
D03*
X1232000Y394000D02*
D03*
X1329000Y399000D02*
D03*
Y495000D02*
D03*
X1320000Y484000D02*
D03*
X1339000Y409000D02*
D03*
X1329000Y360000D02*
D03*
X992000Y1082000D02*
D03*
X1306000Y582000D02*
D03*
X1294000Y555000D02*
D03*
X1308000Y669000D02*
D03*
X1378000Y592000D02*
D03*
X1393997Y598999D02*
D03*
X1378000Y581000D02*
D03*
X1344670Y569040D02*
D03*
X1397997Y563999D02*
D03*
X1411000Y534000D02*
D03*
X1432000Y571000D02*
D03*
Y601000D02*
D03*
X1398000Y642000D02*
D03*
Y612000D02*
D03*
X1362960Y569040D02*
D03*
X1342710Y584764D02*
D03*
X1347901Y595903D02*
D03*
X1223000Y554000D02*
D03*
X1231000Y543000D02*
D03*
X1207000Y612000D02*
D03*
X673000Y1685000D02*
D03*
X989000Y1620000D02*
D03*
Y1664000D02*
D03*
X1060000Y1589000D02*
D03*
X1132000D02*
D03*
X1189000Y574000D02*
D03*
X1141000Y535000D02*
D03*
X1154000Y548000D02*
D03*
X1131000D02*
D03*
X1467000Y1348000D02*
D03*
X1480000Y1332000D02*
D03*
Y1498000D02*
D03*
X1319000Y1252000D02*
D03*
X1313000Y1241000D02*
D03*
Y1230000D02*
D03*
X1491003Y1240003D02*
D03*
X1317000Y1564000D02*
D03*
X1306000Y1547000D02*
D03*
X1130000Y1515000D02*
D03*
X1016000Y1470750D02*
D03*
X1245000Y1552000D02*
D03*
X1205998Y1522997D02*
D03*
X1225000Y1505000D02*
D03*
X1234500Y1514000D02*
D03*
X1238997Y1487997D02*
D03*
X1237000Y1470000D02*
D03*
X1206000Y1480000D02*
D03*
X1176032Y1548000D02*
D03*
X1178000Y1562000D02*
D03*
X1192000Y1570000D02*
D03*
X1207000Y1562000D02*
D03*
X1118000Y1505739D02*
D03*
Y1440000D02*
D03*
X1030000Y1485500D02*
D03*
X1190000Y1343000D02*
D03*
X1177000Y1375000D02*
D03*
X1200000D02*
D03*
X1267000Y1523000D02*
D03*
X1250000Y1460000D02*
D03*
X1265000Y1422000D02*
D03*
X1230000Y1210000D02*
D03*
X1027675Y1579540D02*
D03*
X1028000Y1561000D02*
D03*
X1020000Y1552500D02*
D03*
X1029960Y1547000D02*
D03*
X1018998Y1535997D02*
D03*
X1006000Y1511460D02*
D03*
X1019000Y1498000D02*
D03*
X1030000Y1523000D02*
D03*
X981000Y1529000D02*
D03*
X1071000Y1555000D02*
D03*
X1080000Y1543000D02*
D03*
X1186000Y1493989D02*
D03*
X1185000Y1476000D02*
D03*
X1179000Y1465000D02*
D03*
X1260997Y1435997D02*
D03*
X1259000Y1449000D02*
D03*
X1207000Y1464000D02*
D03*
X1194000Y1466000D02*
D03*
Y1538000D02*
D03*
X1143000Y1358000D02*
D03*
Y1393000D02*
D03*
X1041000Y1413000D02*
D03*
X1024000Y1377000D02*
D03*
X1052000Y1416000D02*
D03*
Y1377000D02*
D03*
X1143000Y1495000D02*
D03*
X1105000Y1483000D02*
D03*
X1223000Y261000D02*
D03*
X1257998Y251999D02*
D03*
X1266998Y236000D02*
D03*
X1206000Y236000D02*
D03*
X1197000Y252000D02*
D03*
X1214960Y244000D02*
D03*
X1088998Y440999D02*
D03*
X1079998Y449999D02*
D03*
X1145000Y141000D02*
D03*
X1144000Y155000D02*
D03*
X1188000Y227000D02*
D03*
X1097000Y1458000D02*
D03*
X1070000Y1471500D02*
D03*
X1071000Y1500000D02*
D03*
X1070000Y1532000D02*
D03*
X1058998Y1512497D02*
D03*
X1080000Y1490000D02*
D03*
X1149500Y450500D02*
D03*
X1179000Y459000D02*
D03*
X1160000Y441000D02*
D03*
X1177000Y339000D02*
D03*
X1269000D02*
D03*
X868251Y1607749D02*
D03*
X954000Y1604000D02*
D03*
X932000D02*
D03*
X1107000Y1664000D02*
D03*
X1058750Y1688750D02*
D03*
X1377000Y1586000D02*
D03*
X1413000D02*
D03*
X1484000D02*
D03*
X1426003Y1240003D02*
D03*
X1453000Y1253000D02*
D03*
X1465000Y1532000D02*
D03*
X934000Y1525000D02*
D03*
X919000Y1547220D02*
D03*
X770000Y1544000D02*
D03*
X781000Y1550000D02*
D03*
X780750Y1622000D02*
D03*
X800000D02*
D03*
X720000Y1603000D02*
D03*
X801000Y1551000D02*
D03*
X954000Y1525000D02*
D03*
X813000Y1568000D02*
D03*
X844000D02*
D03*
Y1555000D02*
D03*
X840000Y1420000D02*
D03*
X811000Y1442000D02*
D03*
X836000Y1525000D02*
D03*
X839000Y1442000D02*
D03*
X809000Y1493000D02*
D03*
X827000D02*
D03*
X836000Y1502000D02*
D03*
X796000Y1420000D02*
D03*
X776000Y1463000D02*
D03*
X804000Y1404000D02*
D03*
X908000Y1257000D02*
D03*
X834000Y1391000D02*
D03*
X908000Y1271000D02*
D03*
X1068998Y1229998D02*
D03*
X1009000Y818000D02*
D03*
X1110000Y1252000D02*
D03*
X1100000Y1230000D02*
D03*
X1088000Y1240710D02*
D03*
X1089000Y1470000D02*
D03*
X1043000Y1297000D02*
D03*
X1129250Y1327750D02*
D03*
X1142000Y1336000D02*
D03*
X1076000Y1346000D02*
D03*
X1033000Y1312000D02*
D03*
X648000Y1555000D02*
D03*
X574000Y1523000D02*
D03*
Y1422000D02*
D03*
X707000D02*
D03*
X377750Y1614000D02*
D03*
X436000Y1581000D02*
D03*
X481000Y1554000D02*
D03*
X574000Y1358000D02*
D03*
X458000Y1524000D02*
D03*
X559000Y1423000D02*
D03*
X561000Y1358000D02*
D03*
X294000Y1625000D02*
D03*
X247000Y1585000D02*
D03*
X226000Y1534000D02*
D03*
X187000Y1550000D02*
D03*
X248000Y1567000D02*
D03*
Y1550000D02*
D03*
X366000Y1547000D02*
D03*
X707000Y1336000D02*
D03*
X721040Y1370960D02*
D03*
X721000Y1336000D02*
D03*
X735250D02*
D03*
X748250D02*
D03*
X748000Y1430957D02*
D03*
X1075000Y1379000D02*
D03*
X696000Y1361000D02*
D03*
Y1414000D02*
D03*
X248000Y1515000D02*
D03*
X278000Y1542000D02*
D03*
X364000Y1490000D02*
D03*
X427000Y1626000D02*
D03*
X457000D02*
D03*
X218000Y1625000D02*
D03*
X241000Y1614000D02*
D03*
X280000Y1600000D02*
D03*
X136000Y1493000D02*
D03*
X134000Y1363000D02*
D03*
X138000Y1424997D02*
D03*
X435000Y1514000D02*
D03*
X405000Y1553000D02*
D03*
X435000Y1541000D02*
D03*
X406000Y1614000D02*
D03*
X452000Y776000D02*
D03*
X1059998Y1200998D02*
D03*
X1050998Y1242998D02*
D03*
X1059998Y1187998D02*
D03*
X418000Y976000D02*
D03*
Y1047000D02*
D03*
X104000Y1019000D02*
D03*
X113000Y1011000D02*
D03*
X375000Y993000D02*
D03*
X178000Y1110000D02*
D03*
Y1138000D02*
D03*
X407000Y1122000D02*
D03*
X638000Y948000D02*
D03*
X623000D02*
D03*
X406000Y1004000D02*
D03*
X157000Y1209000D02*
D03*
X244000D02*
D03*
X1077998Y710999D02*
D03*
X1173000Y575000D02*
D03*
X1149998Y559999D02*
D03*
X620000Y1298000D02*
D03*
X1373000Y455000D02*
D03*
X1352000Y402000D02*
D03*
X1381040Y494000D02*
D03*
X1378000Y428000D02*
D03*
X1380997Y446999D02*
D03*
X1390000Y464000D02*
D03*
X1424386Y489000D02*
D03*
X1378000Y350000D02*
D03*
X1390000Y357000D02*
D03*
X1398000Y323000D02*
D03*
X1408000Y336000D02*
D03*
X1371000Y512000D02*
D03*
X1313500Y680000D02*
D03*
X1250000Y744000D02*
D03*
X1271000Y820000D02*
D03*
X1244000Y808000D02*
D03*
X1241998Y860998D02*
D03*
X1252998Y862998D02*
D03*
X1280000Y785000D02*
D03*
X1187000Y467000D02*
D03*
X1206000Y534000D02*
D03*
X1243000Y495000D02*
D03*
X992000Y491000D02*
D03*
X965000Y499000D02*
D03*
X984000Y500000D02*
D03*
X651000Y948000D02*
D03*
X665000Y947000D02*
D03*
X678000D02*
D03*
X691000D02*
D03*
X703000D02*
D03*
X717000D02*
D03*
X1130000Y1449000D02*
D03*
X1241000Y1436000D02*
D03*
X1144000Y1434000D02*
D03*
X985000Y444000D02*
D03*
X1100000Y572000D02*
D03*
X520000D02*
D03*
X506710Y583000D02*
D03*
X1088000D02*
D03*
X890000Y414000D02*
D03*
X1119000Y633000D02*
D03*
X940000Y490000D02*
D03*
X1109000Y561000D02*
D03*
X921000Y478040D02*
D03*
X942000Y605000D02*
D03*
X1161998Y650999D02*
D03*
X911998Y641999D02*
D03*
X963000Y622000D02*
D03*
X951000Y453000D02*
D03*
X930000Y464000D02*
D03*
X931000Y453000D02*
D03*
X974450Y403450D02*
D03*
X894000Y490000D02*
D03*
X884000Y499000D02*
D03*
X912460Y423000D02*
D03*
X965000Y424000D02*
D03*
X894998Y452999D02*
D03*
X867000Y548000D02*
D03*
X858000Y536000D02*
D03*
X864000Y443000D02*
D03*
X904000Y632000D02*
D03*
X848000Y562000D02*
D03*
X838000Y418000D02*
D03*
X912000Y621000D02*
D03*
X856000D02*
D03*
X826000Y418000D02*
D03*
X824000Y931000D02*
D03*
X964000Y923000D02*
D03*
X898000Y906000D02*
D03*
X1018000Y652000D02*
D03*
X1019000Y897000D02*
D03*
X963000Y742000D02*
D03*
Y911000D02*
D03*
X898000Y829000D02*
D03*
X1142000Y828000D02*
D03*
X730000Y947000D02*
D03*
X745000D02*
D03*
X745000Y915000D02*
D03*
X730000Y912000D02*
D03*
X814000Y418000D02*
D03*
X964000Y1214000D02*
D03*
X1078000Y1284000D02*
D03*
X755000Y1115000D02*
D03*
Y1095000D02*
D03*
X756000Y1152000D02*
D03*
Y1164000D02*
D03*
X755000Y1201000D02*
D03*
Y1216000D02*
D03*
Y1230000D02*
D03*
X756000Y1255000D02*
D03*
X724000Y1262000D02*
D03*
X585999Y1260997D02*
D03*
X615000Y1261000D02*
D03*
X573000D02*
D03*
X567000Y1213000D02*
D03*
Y1201000D02*
D03*
X578000Y1172000D02*
D03*
Y1157000D02*
D03*
Y1143000D02*
D03*
X566999Y1092998D02*
D03*
X566000Y1078000D02*
D03*
X643000Y1073000D02*
D03*
X659999Y1072998D02*
D03*
X698999D02*
D03*
X799000Y1274000D02*
D03*
X518000Y1266000D02*
D03*
X676000Y1350000D02*
D03*
X662999Y1260997D02*
D03*
X734000Y1073000D02*
D03*
X804000Y1079000D02*
D03*
X760000Y1044000D02*
D03*
X778000Y1064000D02*
D03*
X716000Y1101000D02*
D03*
X755999Y1140998D02*
D03*
X717000Y1133000D02*
D03*
X754998Y1189998D02*
D03*
X717000Y1181000D02*
D03*
X744000Y1261000D02*
D03*
X674000Y1223000D02*
D03*
X602000Y1251000D02*
D03*
X610000Y1223000D02*
D03*
X599000Y1290000D02*
D03*
Y1326000D02*
D03*
X674000Y1290000D02*
D03*
Y1327000D02*
D03*
X574000Y1235000D02*
D03*
X577500Y1185000D02*
D03*
X605000Y1194000D02*
D03*
X629999Y1072998D02*
D03*
X616000Y1088000D02*
D03*
X670999Y1072998D02*
D03*
X685000Y1083000D02*
D03*
X677000Y1111000D02*
D03*
X605000Y1136000D02*
D03*
X567000Y1120000D02*
D03*
X578000Y1127120D02*
D03*
X604000Y1362000D02*
D03*
Y1375000D02*
D03*
X617000D02*
D03*
Y1362000D02*
D03*
X630000Y1375000D02*
D03*
Y1362000D02*
D03*
X643000Y1375000D02*
D03*
Y1362000D02*
D03*
X657000Y1375000D02*
D03*
Y1362000D02*
D03*
X671000Y1375000D02*
D03*
Y1362000D02*
D03*
X448750Y1614750D02*
D03*
X335000Y1644000D02*
D03*
X261000Y1614000D02*
D03*
X202000D02*
D03*
X1481000Y1130000D02*
D03*
X1466000Y1116000D02*
D03*
X1354000D02*
D03*
X1192500Y1115500D02*
D03*
X1329000Y1130000D02*
D03*
X1220000Y1605000D02*
D03*
X1270000Y1575000D02*
D03*
X1258000Y1537000D02*
D03*
X1415000Y997000D02*
D03*
X1426000Y1167000D02*
D03*
X1354500Y1181500D02*
D03*
X1014998Y422999D02*
D03*
X1084000Y423000D02*
D03*
X1029000Y464000D02*
D03*
X1329993Y348000D02*
D03*
X1167000D02*
D03*
X1155000Y361000D02*
D03*
X452000Y704000D02*
D03*
X942000Y1342000D02*
D03*
X350000Y1501000D02*
D03*
X54000Y1227000D02*
D03*
X775000Y999000D02*
D03*
X1395000Y1215000D02*
D03*
X937000Y1406000D02*
D03*
X936000Y1431000D02*
D03*
X939000Y1383000D02*
D03*
X156000Y1479000D02*
D03*
X731000Y987000D02*
D03*
X717500D02*
D03*
X882000Y433000D02*
D03*
D88*
X245000Y962000D02*
D03*
Y931000D02*
D03*
X244000Y1478000D02*
D03*
X230000Y1463000D02*
D03*
Y946000D02*
D03*
X146000Y675000D02*
D03*
X160000Y856000D02*
D03*
X161000Y691000D02*
D03*
X202000Y674110D02*
D03*
X221000Y691000D02*
D03*
X202000Y546000D02*
D03*
X221000Y547000D02*
D03*
X449040Y962000D02*
D03*
X1176000Y778000D02*
D03*
X221000Y658000D02*
D03*
X146000Y840998D02*
D03*
X450000Y930000D02*
D03*
X435000Y909000D02*
D03*
X578000Y554000D02*
D03*
Y878000D02*
D03*
X560000Y862000D02*
D03*
X646000Y762000D02*
D03*
X539753Y1665753D02*
D03*
X34000Y1545495D02*
D03*
X645000Y1668000D02*
D03*
X13000Y1372000D02*
D03*
X27000Y1467000D02*
D03*
Y1339000D02*
D03*
X13000Y1500000D02*
D03*
X636000Y743000D02*
D03*
X729220Y707220D02*
D03*
X653000Y707000D02*
D03*
X472000Y240000D02*
D03*
X469000Y809000D02*
D03*
X468999Y792998D02*
D03*
X452000Y822000D02*
D03*
X484000Y730000D02*
D03*
X730780Y742780D02*
D03*
X728000Y763960D02*
D03*
X483000Y909000D02*
D03*
Y945000D02*
D03*
X560000Y535000D02*
D03*
X435000Y946000D02*
D03*
X645000Y808000D02*
D03*
X1193000Y765000D02*
D03*
X811000Y870960D02*
D03*
X791000Y886000D02*
D03*
X1144000Y857000D02*
D03*
X1159000Y840000D02*
D03*
X791000Y1026000D02*
D03*
X811000Y999000D02*
D03*
D89*
X620000Y1120001D02*
D03*
Y1140001D02*
D03*
Y1160001D02*
D03*
Y1180001D02*
D03*
Y1200001D02*
D03*
Y1220001D02*
D03*
X640001Y1120001D02*
D03*
Y1140001D02*
D03*
Y1160001D02*
D03*
Y1180001D02*
D03*
Y1200001D02*
D03*
Y1220001D02*
D03*
Y1240001D02*
D03*
Y1260001D02*
D03*
X660001Y1120001D02*
D03*
Y1140001D02*
D03*
Y1160001D02*
D03*
Y1180001D02*
D03*
Y1200001D02*
D03*
Y1220001D02*
D03*
X680001Y1140001D02*
D03*
Y1160001D02*
D03*
Y1180001D02*
D03*
Y1200001D02*
D03*
X700001Y1120001D02*
D03*
Y1140001D02*
D03*
Y1160001D02*
D03*
Y1180001D02*
D03*
Y1200001D02*
D03*
Y1220001D02*
D03*
M02*
