M48
;Layer_Color=9474304
;FILE_FORMAT=4:4
METRIC,LZ
;TYPE=PLATED
T1F00S00C0.5000
T2F00S00C0.7000
T3F00S00C0.8000
T4F00S00C0.8128
T5F00S00C1.0000
T6F00S00C1.1000
T7F00S00C1.3000
T8F00S00C1.5000
T9F00S00C1.5240
T10F00S00C1.7000
T11F00S00C1.8000
T12F00S00C4.0000
%
T01
X00991Y00052
X0098Y00084
X0112725Y0000775
X01153
X011785Y00008
X0120325
X0122925
X01368Y00335
X01328Y00401
X0132075Y004365
X01377747Y004315
X0137675Y004495
X0134675Y004745
X01285Y00477
Y00465
Y0049
X01257Y00469
X01245Y0046
X01233Y00449
X01267Y00448
X012615Y00426
X0124525Y0041525
X0122525Y0041125
X012145Y00399
X012135Y0042575
X01164Y00424
X0115275Y0041725
X0113675Y00416
X01117Y004
X01109Y00454
X01117998Y00462999
X01164Y00463
X01177Y00454
X011765Y0039425
X01208Y0035925
X012145Y002655
X012275Y0026525
X01216Y00234
X01206Y002165
X0116975Y0019375
X01123Y00184
X01111Y00176
X01097Y00165
X010845Y00156
X01102Y00136
X01127Y00134
X01152Y00125
X01178Y00121
X012035Y001435
X01229Y00109
X0128675Y0024975
X0116975Y002535
X011225Y002645
X0110975
X0109725
X010845Y0026475
X0106325Y0023625
X01037Y00242
X01037Y00194
X00991Y00194
X0098Y00205
X00946Y00205
X00932Y0019425
X00917Y00184
X00891
X009Y00142
X00924998Y00143
X00925Y00109
X00966547Y00143507
X00966297Y00154257
X00966047Y00165008
X0094675Y001725
X0094175Y00234
X0092175
X0092225Y0021625
X00932Y00259
X009795Y0026475
X0099225Y00265
X00987Y0023425
X0109725Y0022525
X011155Y002175
X0111975Y0023625
X0114825Y0029725
X0108475Y00433
X01075Y00453
X01043Y00477
X01035Y00486
X01054Y00493
X0103575Y00416
X010195Y004165
X01005Y00416
X01004Y00446
X0091775Y00415
X0090225Y0041525
X00888Y00415
X00802Y004235
X0078525Y00424
X00785Y00397
X00772Y00399
X00721Y00413
X00733Y00427828
X0070825Y003965
X00705Y0047304
X00720998Y00483
X00734Y00491
X00652Y00454
X00628Y00446
X00637Y00436
X0062Y00462
X00563Y00437
X00565Y00412
X00582Y0039
X00541Y00394
X00519999Y00423999
X00501Y00423
X00747Y00265
X0076
X00759Y00236
X0074665Y0021635
X00808Y00216
X00807Y0024
X00827
X00817Y00259
X008625Y0026475
X0087525Y002645
X00876Y0024
X0087575Y00216
X00877Y00205
Y00179
X00863Y0018
X00835
X0081675Y0019425
X00842Y00142
X0087
X00888Y00108
X0042Y00473
X00428Y00483
X00439Y00492
X00091Y00568
Y00628
X00094Y00778
X00016Y00518
X0016Y00554
X00148Y00568
X00156Y00605
X001665Y0059975
X00181Y00583
X00198Y00621
X00213Y00642
Y00658
Y00691
X00181Y00674
X00104Y00642
X00127Y00735
X0013Y00791
X00125Y00826
X00115Y00816
X00101Y00828
X002935Y00643
X00314Y00635
Y0055
X002935Y00538
X00304Y00518
X00213Y0055
X00408Y00572
X00433Y00755
X004515Y007765
X00486Y00881
X00495Y00834
X0073Y00829
X00745
X00835
X0089Y00819
X0087Y00871
X00854Y00886
X00845Y00741
X00836Y00718
X00843Y00701
X00862Y00714
X0089Y00743
X0087Y0064
X00841Y00664
X00888Y00535
X00802Y00518
X00785Y00505
X00495Y00536
X00902Y00505
X00918Y00519
X01004Y0051904
X009925Y0050425
X01009Y00552
X01Y00564
X01027Y00539
X01061998Y00530999
X0107Y00548
X01099Y00575
X01089Y00586
X01151998Y00548999
X01143998Y00539999
X0115296Y0053096
X0115275Y0051875
X01164Y00505
X01132
X01238Y0055
X01229Y00563
X012215Y0057325
Y0058725
Y0060225
X01222Y00617
X0122184Y0063
X01237Y00641
X01268Y0067
X01284Y00659
X01286Y0062775
X01285Y005735
X01276Y00719
X01286Y00747
X01276Y00771
X01265Y00801
X01269Y00814
X01267998Y00824998
X01242Y00839
X01241Y00858
X01269Y00887
X0124Y00801
X01202Y00802
X01212Y00815
X0121Y00763
X01222Y00731
X0121Y00712
X01159Y00684
X01137Y0067
X01127355Y00659645
X010785Y006875
X00984Y00642
X00991Y00616
X00975Y00598
X0092704Y0060696
X00951Y00633
X00933Y00655
X00911Y00667
X00961Y00731
X00941998Y00751999
X01009Y0076396
X01Y00779
X00961Y00828
X00898Y00829
X01078998Y00868998
X01079Y00883
X01129Y00869
X01126Y00826
X01137Y00815
X01126Y00797
X01159Y00791
X01306Y00777
Y00747
X01296Y00739
X01306Y00727
X01294Y007
X0134
X0134467Y0071404
X0134271Y00729764
X01347901Y00740903
X01381Y00737
X01379Y00726
X0136296Y0071404
X01405Y00709
X01432Y00716
Y00746
X01393997Y00743999
X01398Y00761
Y00794
X01401Y00866
X01377Y00887
X01352Y00866
X01351Y00848
X01342Y0083
X01308Y00814
X01289Y00838
X01314Y00864
X013265Y0065925
X013175Y0064825
X012965Y0061725
X01316Y00561
X01329Y00572
X01342Y00569685
X01341997Y00520999
X01329Y00521
X01343Y00509
X01379Y00517
X01387Y00533
X0140596Y0054104
X01396Y00509
X01451Y00516
X01467Y00576
X01486Y00616
X01467Y00658
X01421886Y0065325
X0137854Y0065825
X013875Y0062825
X013705Y0061925
X01378497Y00611249
X01378Y00592
X01418Y009
X01414Y01036
X0142Y0106
X01391Y01165
X01404Y01202
X01426003Y01240003
X0145375Y01252
X01491003Y01240003
X0147925Y0114825
X01309Y01163
X01294Y01166
X01305Y01207
X01345Y01209
X01342Y01255
X01326Y01252
X01409Y01264
X01305Y00957
X01275Y00948
X01273Y00915
X0125Y00926
X01238Y00927
X01221Y00935
Y00948
X01202
X01226Y009
X01237Y01001
X01252Y0101
X01202Y01034
X01212Y01069
X01202Y01084
X01176Y01148
X0116Y01198
X01144Y01257
X01129Y01267
X01109Y01252
X01088Y0124071
X011Y012275
X0107Y0123
X01068Y01248
X01079Y01285
X01051Y01202
X01062Y01188
X01053Y01175
X01044Y01162
X01035Y01149
X01027Y01136
X01018Y01122
X01009Y01109
X00992Y01096
X00984Y01071
X00975Y01057
X00951Y01043
X009105Y01031
Y01018
X00933Y01082
X01018Y01019
X01017998Y00934998
X01009Y00893
X00964Y00923
X00898Y00906
X00908Y01257
Y01271
X00951Y01257
X00964Y01214
X01228Y01212
X01241Y01252
X01265Y01241
Y01229
X00799Y01274
X00761999Y01261998
X00736Y01261
X00724Y01262
X0069Y01244999
Y01229999
Y01214999
Y01199999
X00675
X0066
X00645
X0063
X00615
Y01184999
Y01169999
Y01154999
Y01139999
Y01125
Y0111
X0063
Y01095
X00645
Y0111
Y01125
X0063
Y01139999
Y01154999
Y01169999
Y01184999
X00645
Y01169999
Y01154999
Y01139999
X0066
Y01125
X00675
X0068Y01115
X0069Y01125
Y01139999
X00675
Y01154999
X0066
Y01169999
Y01184999
X00675
Y01169999
X0069
Y01154999
X00705
Y01139999
Y01125
X00717Y01133
X00716Y01101
X00704Y01074
X00689999Y01073998
X00677999Y01076998
X00662Y01073
X00619Y01072998
X00566Y01078
X00566999Y01092998
X00567Y0112
X00578Y0112712
X00578Y01143
Y01157
Y01172
X005775Y01185
X00585Y01199999
Y01214999
X006
X00615
X0061Y01223
X0063Y01229999
Y01214999
X00645
Y01229999
Y01244999
X0063
Y01259999
X00645
X00662999Y01260997
X00615Y01261
X00602Y01251
X00585999Y01260997
X00562Y01265
X00575Y01222
X00605Y01194
X0060406Y0113506
X00517Y01151
X00533Y01185
X00518Y01248
X0066Y01214999
X00674Y01223
X00705Y01214999
Y01199999
Y01184999
X0069
X00705Y01169999
X00717Y01181
X00754998Y01189998
X00755Y01201
Y01216
Y0123
X00756Y01164
Y01152
X00755999Y01140998
X00755Y01115
Y01095
X00734Y01073
X00778Y01064
X0076Y01044
X00775Y00999
X00731Y00987
X007175
X00717Y00947
X0073
X00745
X0073Y00912
X0069Y00949
X00677
X00663
X00649
X00636
X00622
X00594Y00948
X00552Y00973
Y00985
X00505Y01029
X00609Y0102
X00651Y01017
X00682Y01015
X00679Y01043
X00804Y01079
X0082825Y009355
X00824Y00897
X00495Y00919
X0043Y01004
X00406
X00419Y0102
X00448Y01025
X00439Y01047
X00367Y01037
X00375Y00993
X00385Y00984
X00395Y00974
X004065Y010965
X00408Y01114
X00395Y01155
X00385Y01168
X00376Y01183
X00367Y01191
X00385Y01195
X00375Y01208
Y01265
X00385Y01275
X00406Y01285
X00439Y01262
X00257Y01249
X00261Y01236
X00244Y01209
X0023Y01195
X00218Y01225
X00178Y01221
X00155Y01209
X00163Y01179
X00177Y01171
X00178Y01138
Y01096
X00155Y01112
X00134Y01088
X00125Y01097
X00113Y01102
Y0114
Y01228
X00163Y0125
X00259Y01285
X0027Y01191
X003Y01179
X0031029Y01171
X00276Y01133
X00284Y01123
X00218Y01158
Y01078
X00204Y01079
X00206Y01037
X00218
X00244Y01057
X00113Y01011
X00104Y01019
X00101Y00925
X00115Y00931
X0009Y00906
X00045Y01195
X00044Y01209
X00054Y01227
X00075
X0013875Y01363
X00138Y01375
X00126Y01379
X00159Y01391
X00173Y01404
X00193Y01413997
X00203Y0142
X00205Y01433997
X00196Y01458
X00206Y01468
X00173Y01458
X00156Y01479
X00151Y01492
X00136Y01493
X00181
X00187Y0155
X00226Y01534
X00248Y0155
Y01567
X00247Y01585
X00241Y01614
X00261
X0028Y016
X00293Y01583
X00294Y01625
X0031Y01614
X00335Y01644
X0037775Y01614
X00406
X00427Y01626
X00457
X0044875Y0161475
X00436Y01581
X00435Y01541
Y01514
X00458Y01524
X00481Y01554
X00405Y01553
X00366Y01547
X00346Y01501
X00356Y0149
X00335Y01449
X00322Y01439
X0028Y01432
X00289Y01397
X00215Y01366
X001345Y0142525
X0013475Y0144375
X00259Y01504
X0027Y01493
X00278Y01542
X00218Y01625
X00202Y01614
X0043Y01415
X00448Y01414
X00458Y01423
X00447Y01389
X00462Y01293
X00599Y0129
X0062Y01298
X00599Y01326
X006Y0135
Y01365
X00615
X0063
X00645
X0066
X00675
X00676Y0135
X00674Y01327
Y0129
X00708Y01339
X00721
X00735
X00748
X00735Y01379
X00721Y0137
X00696Y01361
X00708Y01397
X00696Y01414
X00683999Y01438997
X00673Y01449
X00633Y01463
X00617Y01477
X00557
X00543Y01463
X00574Y01422
X00560996Y01406
X00561Y01358
X00574
X00603Y01388
X00602Y01536
X00574Y01523
X00556Y01561
X00516Y01531
X00645Y01539
X00648Y01555
X00616Y01574
X00726Y01516
Y0149
X00776Y01463
X00811Y01442
X00839
X0084Y0142
X00834Y01391
X00804Y01404
X00796Y0142
X00748Y01430957
X00809Y01493
X00827
X00836Y01502
Y01525
X00847Y01538
X00801Y01551
X00781Y0155
X00813Y01568
X008186Y016116
X00765Y01611
X00753Y01624
X00905Y01594
X00918Y01588
X0097Y01589
X00979Y015525
X00981Y01529
X00987Y0151
X01005998Y01509997
X01019Y01498
X0103Y014985
Y014855
X01016Y0147075
X0104125Y01458
X01080998Y01457997
X0107Y014715
X0108Y0149
X01071Y015
X01058998Y01511997
X0107125Y01532
X01071Y01555
X01079998Y01548997
X0108804Y0153904
X01096Y01531
X01105Y01496
X01118Y01505739
X0113Y01515
Y01479
X01118Y0147
X01118003Y01438997
X0113Y01449
X01143Y01458
X01172Y01479
X01194Y01494
X01236Y015
X01235Y01515
X0121913Y01544
X01235Y01562
X01265Y01555
X01287Y01567
X01276Y01586
X01272Y01617
X01236Y01605
X01117Y01609
X01107Y01664
X00989
X01027675Y0157954
X01028Y01561
X0102996Y01547
X0102Y015525
X01018998Y01535997
X01030037Y01521037
X00954Y01525
X00934
X00896Y01497
X0097Y01471
X00967Y01458
X00977Y01449
X00988998Y01438997
X01026Y01431
X01041Y01413
Y01366
X01024Y01377
X01105Y01373
X01152Y01368
X01143Y01358
X01136Y01342
X0112404Y0133296
X01079Y01329
X01081Y01316
X01098Y01306
X01211Y0131
X0122Y01324
X01208Y01353
X0119Y01343
X012Y01375
X01201Y01408
X01242Y01399
X0125Y0139
X01253Y0136
X01271Y01333
X01253Y01294
X01271Y01408
Y01501
X01143Y01563
X0106Y01589
X00967Y01414
X00937Y01406
X00939Y01383
X00951Y01362
X00942Y01342
X00936Y01431
X01143Y01393
X01308Y01452
X01333Y01453
X01391Y01449
X01395Y01432
X01403Y0136
X01349Y01358
Y01321
X0147925Y01333
X01466Y0134775
X01491Y01562
X01387Y01566
X01354Y01571
X01356Y01649
X01299Y01663
X0105875Y0168875
X00673Y01685
T02
X00484Y0073
X00468999Y00792998
X00469Y00809
X00452Y00822
X00554Y0086
X00569Y00877
X00645Y00808
X00646Y00762
X00636Y00743
X00653Y00707
X006365Y0066825
X0072922Y0070722
X0073078Y0074278
X00728Y0076396
X00791Y00886
X00811Y0087096
X00532Y00505
X00517Y00519
X01189808Y00762787
X01176Y00778
X01159Y0084
X01144Y00857
X00811Y00999
X00791Y01026
X00483Y00945
Y00909
X00435
Y00946
X00245Y00931
X0023Y00946
X00245Y00962
X00027Y0134
X00013Y01372
X00027Y01468
X00012Y01502
X00034Y01545495
X00244Y01478
X0023Y01463
X00539753Y01665753
X00645Y01668
T03
X01425Y00536
Y00556
Y00576
Y00596
Y00616
Y00636
X0145
Y00616
Y00596
Y00576
Y00556
Y00536
T04
X0145Y00331174
Y00351172
Y00371171
Y00391173
Y00411171
Y0043125
Y00451062
Y00471128
X00052Y00876502
X01452Y0087875
Y00858752
Y00838754
X0145Y00786999
Y00767001
Y00746998
Y00727
Y00707002
X01452Y00898753
Y00918751
Y00938829
X01465085Y0101525
Y01035253
Y01055251
Y01075249
X014515Y01271002
X0027Y01158
X00194
X00052Y00956499
Y00936501
Y00916503
Y008965
Y01333999
Y01354002
Y01374
Y01393998
X000545Y01463999
Y01484002
Y01504
Y01523998
X00200672Y016475
X00220751
X00240749
X00260752
X0028075
X00300748
X00365673
X00385752
X0040575
X00425752
X00445751
X00465749
X00590747
X0061075
X00630748
X00650747
X0072075
X00740748
X00760751
X00780749
X00800747
X00868251
X00888249
X00908252
X0092825
X00948248
X01038752Y01648
X0105875
X01078748
X0119515Y01647967
X01215153
X01235151
X01255149
X014515Y01456001
Y01435998
Y01416
Y01396002
X014515Y01310998
Y01291
T05
X00336441Y00045
Y000958
X004875Y000933
Y000425
X007606Y0005575
X00786
X008114
X008368
X008622
X008876
Y0008115
X008622
X008368
X008114
X00786
X007606
X00913
X009384
Y0005575
X00913
X01102
X011274
X011528
X011782
X012036
X01229
X012544
X012798
Y0008115
X012544
X01229
X012036
X011782
X011528
X011274
X01102
X000695Y00721
X000245
Y00786
X000695Y00786
X00082Y010515
Y010769
Y011023
Y011277
X000566
Y011531
X00082
X000566Y011023
Y010769
Y010515
T06
X00535Y007242
Y007496
Y00775
T07
X00108062Y0019
Y0024
Y0029
X00163145Y00289
Y00239
Y00189
X00238145
Y00239
Y00289
X00293227Y00289937
Y00239937
Y00189937
X00368227
Y00239937
Y00289937
Y00439938
X00293227
X00238145Y00439
X00163145
X00108062Y0044
X00033062
Y0029
Y0024
Y0019
T08
X0063831Y00183578
X0043031
X0055831Y00633577
X0063831
X014373Y00656
T09
X00764Y00685
Y007358
T10
X0038697Y0006
X0043697
X0054
X0059
X0064
T11
X00135Y000575
X00185
X00235
X00285
T12
X0005Y0005
X0145
X0025Y0075
X0005Y0165
X0145
M30
