G04 Layer_Physical_Order=2*
G04 Layer_Color=16711680*
%FSLAX44Y44*%
%MOMM*%
G71*
G01*
G75*
%ADD10R,1.5000X1.2000*%
%ADD11R,1.0000X0.6000*%
%ADD12R,1.4500X1.9000*%
%ADD13R,0.8000X1.0500*%
%ADD14R,0.6000X1.0000*%
%ADD20R,1.1000X1.8500*%
%ADD21R,1.0500X0.8000*%
%ADD22R,1.5000X0.9000*%
%ADD23R,1.8500X1.1000*%
%ADD24R,0.9000X1.5000*%
%ADD26R,1.4700X1.0900*%
%ADD30R,1.9000X1.4500*%
%ADD46R,1.1000X1.0000*%
%ADD47R,1.2000X1.5000*%
%ADD48R,1.0000X1.1000*%
%ADD57C,1.0000*%
%ADD58C,0.5000*%
%ADD59C,0.3000*%
%ADD60C,0.4000*%
%ADD61C,0.2800*%
%ADD62C,1.2700*%
%ADD63C,0.7500*%
%ADD64C,1.2192*%
%ADD65R,1.2192X1.2192*%
%ADD66R,1.2192X1.2192*%
%ADD67C,2.5000*%
%ADD68R,2.5000X2.5000*%
%ADD69R,1.6500X1.6500*%
%ADD70C,1.6500*%
%ADD71C,2.4130*%
%ADD72R,1.4000X1.4000*%
%ADD73C,1.4000*%
%ADD74C,1.7000*%
%ADD75C,2.4000*%
%ADD76O,2.4000X2.5000*%
%ADD77C,3.0000*%
%ADD78R,3.0000X3.0000*%
%ADD79C,1.8000*%
%ADD80R,1.8000X1.8000*%
%ADD81R,1.3208X1.3208*%
%ADD82C,1.3208*%
%ADD83C,6.8000*%
%ADD84R,2.3000X3.5000*%
G04:AMPARAMS|DCode=85|XSize=2.3mm|YSize=3.5mm|CornerRadius=0.575mm|HoleSize=0mm|Usage=FLASHONLY|Rotation=180.000|XOffset=0mm|YOffset=0mm|HoleType=Round|Shape=RoundedRectangle|*
%AMROUNDEDRECTD85*
21,1,2.3000,2.3500,0,0,180.0*
21,1,1.1500,3.5000,0,0,180.0*
1,1,1.1500,-0.5750,1.1750*
1,1,1.1500,0.5750,1.1750*
1,1,1.1500,0.5750,-1.1750*
1,1,1.1500,-0.5750,-1.1750*
%
%ADD85ROUNDEDRECTD85*%
%ADD86R,1.4000X1.4000*%
%ADD87C,0.8000*%
%ADD88C,1.3000*%
%ADD89C,0.9000*%
%ADD90R,1.1000X1.7500*%
%ADD91R,1.7500X1.1000*%
%ADD92R,1.2200X0.9100*%
%ADD93R,0.7000X1.8500*%
%ADD94O,0.7000X1.8500*%
%ADD95R,2.5000X2.4500*%
%ADD96R,2.4500X2.5000*%
%ADD97C,2.5400*%
%ADD98C,0.6000*%
G36*
X653559Y1074190D02*
X653402Y1072998D01*
X653627Y1071291D01*
X654286Y1069700D01*
X655334Y1068334D01*
X656701Y1067285D01*
X658291Y1066626D01*
X659999Y1066401D01*
X661706Y1066626D01*
X663297Y1067285D01*
X664663Y1068334D01*
X664864Y1068595D01*
X666134D01*
X666334Y1068334D01*
X667700Y1067285D01*
X669291Y1066626D01*
X670999Y1066401D01*
X672706Y1066626D01*
X674297Y1067285D01*
X675663Y1068334D01*
X676711Y1069700D01*
X677370Y1071291D01*
X677595Y1072998D01*
X677438Y1074190D01*
X678289Y1075460D01*
X679861D01*
Y1064139D01*
X635137D01*
Y1068952D01*
X635711Y1069700D01*
X635812Y1069944D01*
X637187D01*
X637287Y1069702D01*
X638336Y1068336D01*
X639702Y1067287D01*
X641293Y1066628D01*
X643000Y1066404D01*
X644707Y1066628D01*
X646298Y1067287D01*
X647664Y1068336D01*
X648713Y1069702D01*
X649372Y1071293D01*
X649596Y1073000D01*
X649440Y1074190D01*
X650292Y1075460D01*
X652708D01*
X653559Y1074190D01*
D02*
G37*
G36*
X570460Y1177460D02*
X570460D01*
Y1163460D01*
Y1148960D01*
Y1137040D01*
X570460D01*
Y1134179D01*
X556139D01*
Y1179861D01*
X570460D01*
Y1177460D01*
D02*
G37*
G36*
X826000Y753000D02*
X826000Y682000D01*
X741000Y682000D01*
X741000Y732000D01*
X720000Y732000D01*
X716000Y736000D01*
X716000Y749000D01*
X720000Y753000D01*
X741000Y753000D01*
X826000Y753000D01*
D02*
G37*
G36*
X1500000Y914000D02*
X1351000D01*
Y1081000D01*
X1500000D01*
Y914000D01*
D02*
G37*
G36*
X1500000Y1637000D02*
X1500000Y1608000D01*
X1419000Y1608000D01*
X1404000Y1623000D01*
X1404000Y1700000D01*
X1500000D01*
X1500000Y1637000D01*
D02*
G37*
G36*
X686000Y1308000D02*
X810000D01*
Y1084010D01*
X808730Y1083579D01*
X808664Y1083664D01*
X807298Y1084713D01*
X805707Y1085372D01*
X804000Y1085596D01*
X802293Y1085372D01*
X800702Y1084713D01*
X799336Y1083664D01*
X798287Y1082298D01*
X797628Y1080707D01*
X797404Y1079000D01*
X797628Y1077293D01*
X798287Y1075702D01*
X799336Y1074336D01*
X800702Y1073287D01*
X802293Y1072628D01*
X804000Y1072404D01*
X805707Y1072628D01*
X807298Y1073287D01*
X808664Y1074336D01*
X808730Y1074421D01*
X810000Y1073990D01*
Y1034000D01*
X525000D01*
Y1250964D01*
X526270Y1252007D01*
X527000Y1251861D01*
X545861D01*
Y1185000D01*
Y1130000D01*
Y1079000D01*
Y1059000D01*
X546252Y1057033D01*
X547366Y1055366D01*
X549034Y1054252D01*
X551000Y1053861D01*
X754861D01*
Y1048046D01*
X754287Y1047298D01*
X753628Y1045707D01*
X753404Y1044000D01*
X753628Y1042293D01*
X754287Y1040702D01*
X755336Y1039336D01*
X756702Y1038287D01*
X758293Y1037628D01*
X760000Y1037404D01*
X761707Y1037628D01*
X763298Y1038287D01*
X764664Y1039336D01*
X765713Y1040702D01*
X766372Y1042293D01*
X766596Y1044000D01*
X766372Y1045707D01*
X765713Y1047298D01*
X765139Y1048046D01*
Y1053861D01*
X769000D01*
X770966Y1054252D01*
X772634Y1055366D01*
X774634Y1057366D01*
X775130Y1058110D01*
X776293Y1057628D01*
X778000Y1057404D01*
X779707Y1057628D01*
X781298Y1058287D01*
X782664Y1059336D01*
X783713Y1060702D01*
X784372Y1062293D01*
X784596Y1064000D01*
X784372Y1065707D01*
X783713Y1067298D01*
X782664Y1068664D01*
X781298Y1069713D01*
X779707Y1070372D01*
X778000Y1070596D01*
X777409Y1070519D01*
X776139Y1071632D01*
Y1139998D01*
Y1190000D01*
Y1255000D01*
Y1268861D01*
X794954D01*
X795702Y1268287D01*
X797293Y1267628D01*
X799000Y1267404D01*
X800707Y1267628D01*
X802298Y1268287D01*
X803664Y1269336D01*
X804713Y1270702D01*
X805372Y1272293D01*
X805596Y1274000D01*
X805372Y1275707D01*
X804713Y1277298D01*
X803664Y1278664D01*
X802298Y1279713D01*
X800707Y1280372D01*
X799000Y1280596D01*
X797293Y1280372D01*
X795702Y1279713D01*
X794954Y1279139D01*
X588000D01*
X586034Y1278748D01*
X584366Y1277634D01*
X582365Y1275632D01*
X581251Y1273965D01*
X580860Y1271999D01*
Y1265044D01*
X580286Y1264296D01*
X580187Y1264057D01*
X578813D01*
X578713Y1264298D01*
X577664Y1265664D01*
X576298Y1266713D01*
X574707Y1267372D01*
X573000Y1267596D01*
X571293Y1267372D01*
X569702Y1266713D01*
X568336Y1265664D01*
X567287Y1264298D01*
X566628Y1262707D01*
X566404Y1261000D01*
X566560Y1259810D01*
X565960Y1258540D01*
X565960D01*
Y1243460D01*
X582040D01*
Y1243460D01*
X624040D01*
Y1258540D01*
X622292D01*
X621440Y1259810D01*
X621596Y1261000D01*
X621372Y1262707D01*
X620713Y1264298D01*
X620139Y1265046D01*
Y1268861D01*
X657860D01*
Y1265044D01*
X657286Y1264296D01*
X656627Y1262705D01*
X656402Y1260997D01*
X656627Y1259290D01*
X657286Y1257699D01*
X658334Y1256333D01*
X658879Y1255915D01*
Y1252750D01*
X659193Y1251174D01*
X660086Y1249838D01*
X661422Y1248945D01*
X661960Y1248838D01*
Y1243460D01*
X678040D01*
Y1258540D01*
X670292D01*
X669439Y1259810D01*
X669595Y1260997D01*
X669370Y1262705D01*
X668711Y1264296D01*
X668137Y1265044D01*
Y1268861D01*
X718861D01*
Y1266046D01*
X718287Y1265298D01*
X718213Y1265119D01*
X711000D01*
X709424Y1264806D01*
X708087Y1263913D01*
X707194Y1262576D01*
X706881Y1261000D01*
Y1258540D01*
X702960D01*
Y1243460D01*
X719040D01*
Y1256073D01*
X720310Y1256588D01*
X720702Y1256287D01*
X722293Y1255628D01*
X724000Y1255404D01*
X725707Y1255628D01*
X727298Y1256287D01*
X728664Y1257336D01*
X729713Y1258702D01*
X730372Y1260293D01*
X730596Y1262000D01*
X730372Y1263707D01*
X729713Y1265298D01*
X729139Y1266046D01*
Y1268861D01*
X765861D01*
Y1260139D01*
X760046D01*
X759298Y1260713D01*
X757707Y1261372D01*
X756000Y1261596D01*
X754293Y1261372D01*
X752702Y1260713D01*
X751336Y1259664D01*
X750287Y1258298D01*
X749628Y1256707D01*
X749540Y1256040D01*
X735460D01*
Y1239960D01*
X735460D01*
X735960Y1239040D01*
Y1222960D01*
Y1208960D01*
Y1194960D01*
X735960D01*
Y1180960D01*
X751040D01*
Y1183286D01*
X752310Y1184032D01*
X753291Y1183626D01*
X754998Y1183401D01*
X756706Y1183626D01*
X758297Y1184285D01*
X759045Y1184859D01*
X765861D01*
Y1146136D01*
X761188D01*
X760773Y1147087D01*
X760719Y1147406D01*
X761713Y1148702D01*
X762372Y1150293D01*
X762596Y1152000D01*
X762372Y1153707D01*
X761713Y1155298D01*
X760664Y1156664D01*
X759917Y1157238D01*
Y1158762D01*
X760664Y1159336D01*
X761713Y1160702D01*
X762372Y1162293D01*
X762596Y1164000D01*
X762372Y1165707D01*
X761713Y1167298D01*
X760664Y1168664D01*
X759745Y1169370D01*
X759711Y1169537D01*
X758841Y1170841D01*
X757537Y1171711D01*
X756000Y1172017D01*
X751040D01*
Y1176040D01*
X735960D01*
Y1159960D01*
X750856D01*
X751336Y1159336D01*
X752084Y1158762D01*
Y1157238D01*
X751336Y1156664D01*
X750856Y1156040D01*
X735960D01*
Y1139960D01*
Y1126040D01*
X735960D01*
Y1109960D01*
Y1096310D01*
X735960Y1095960D01*
X735115Y1095040D01*
X730960D01*
Y1078820D01*
X730702Y1078713D01*
X729336Y1077664D01*
X728287Y1076298D01*
X727628Y1074707D01*
X727404Y1073000D01*
X727628Y1071293D01*
X728287Y1069702D01*
X729336Y1068336D01*
X730702Y1067287D01*
X732293Y1066628D01*
X734000Y1066404D01*
X735707Y1066628D01*
X737298Y1067287D01*
X738664Y1068336D01*
X739161Y1068983D01*
X739500D01*
X741037Y1069289D01*
X742341Y1070159D01*
X743211Y1071463D01*
X743517Y1073000D01*
Y1074960D01*
X748040D01*
Y1091394D01*
X749214Y1091684D01*
X749310Y1091672D01*
X750336Y1090336D01*
X751702Y1089287D01*
X753293Y1088628D01*
X755000Y1088404D01*
X756707Y1088628D01*
X758298Y1089287D01*
X759664Y1090336D01*
X760713Y1091702D01*
X761372Y1093293D01*
X761596Y1095000D01*
X761372Y1096707D01*
X760713Y1098298D01*
X759664Y1099664D01*
X759017Y1100161D01*
Y1101000D01*
X758711Y1102537D01*
X757841Y1103841D01*
X754841Y1106841D01*
X754276Y1107218D01*
X754735Y1108438D01*
X755000Y1108404D01*
X756707Y1108628D01*
X758298Y1109287D01*
X759664Y1110336D01*
X760713Y1111702D01*
X761372Y1113293D01*
X761596Y1115000D01*
X761372Y1116707D01*
X760713Y1118298D01*
X759664Y1119664D01*
X758298Y1120713D01*
X756707Y1121372D01*
X755000Y1121596D01*
X753922Y1121454D01*
X753537Y1121711D01*
X752000Y1122017D01*
X751040D01*
Y1123960D01*
X751040D01*
Y1133715D01*
X752649Y1135324D01*
X752700Y1135285D01*
X754291Y1134626D01*
X755999Y1134401D01*
X757706Y1134626D01*
X759297Y1135285D01*
X760045Y1135859D01*
X765861D01*
Y1064139D01*
X690139D01*
Y1075460D01*
X691565D01*
X691840Y1075265D01*
X692559Y1074200D01*
X692559Y1074190D01*
X692402Y1072998D01*
X692627Y1071291D01*
X693286Y1069700D01*
X694334Y1068334D01*
X695700Y1067285D01*
X697291Y1066626D01*
X698999Y1066401D01*
X700706Y1066626D01*
X702297Y1067285D01*
X703663Y1068334D01*
X704711Y1069700D01*
X705370Y1071291D01*
X705595Y1072998D01*
X705438Y1074190D01*
X706289Y1075460D01*
X707040D01*
Y1090540D01*
X690960D01*
Y1090540D01*
X678040D01*
Y1090540D01*
X634960D01*
Y1090540D01*
X620460D01*
Y1075460D01*
X622708D01*
X623559Y1074190D01*
X623402Y1072998D01*
X623627Y1071291D01*
X624286Y1069700D01*
X624860Y1068952D01*
Y1064139D01*
X556139D01*
Y1072861D01*
X561954D01*
X562702Y1072287D01*
X564293Y1071628D01*
X566000Y1071404D01*
X567707Y1071628D01*
X569190Y1072243D01*
X570118Y1071912D01*
X570460Y1071743D01*
Y1068960D01*
X585540D01*
Y1082960D01*
X587540D01*
Y1103040D01*
X570460D01*
Y1100018D01*
X569190Y1099169D01*
X568706Y1099370D01*
X566999Y1099594D01*
X565292Y1099370D01*
X563701Y1098710D01*
X562335Y1097662D01*
X561286Y1096296D01*
X560627Y1094705D01*
X560402Y1092998D01*
X560627Y1091291D01*
X561286Y1089700D01*
X562335Y1088333D01*
X563701Y1087285D01*
X565292Y1086626D01*
X566999Y1086401D01*
X568706Y1086626D01*
X569190Y1086827D01*
X570460Y1085978D01*
Y1084422D01*
X569626Y1083913D01*
X569190Y1083757D01*
X567707Y1084372D01*
X566000Y1084596D01*
X564293Y1084372D01*
X562702Y1083713D01*
X561954Y1083139D01*
X556139D01*
Y1123901D01*
X560231D01*
X561011Y1122631D01*
X560628Y1121707D01*
X560404Y1120000D01*
X560628Y1118293D01*
X561287Y1116702D01*
X562336Y1115336D01*
X563021Y1114810D01*
X563289Y1113463D01*
X564159Y1112159D01*
X565463Y1111289D01*
X567000Y1110983D01*
X570460D01*
Y1106960D01*
X585540D01*
Y1123040D01*
X585540D01*
Y1134960D01*
X585540D01*
Y1148960D01*
Y1163460D01*
Y1179540D01*
X585540D01*
Y1191460D01*
X585540D01*
Y1205960D01*
Y1222040D01*
X570460D01*
Y1220020D01*
X569190Y1219172D01*
X568707Y1219372D01*
X567000Y1219596D01*
X565293Y1219372D01*
X563702Y1218713D01*
X562336Y1217664D01*
X561287Y1216298D01*
X560628Y1214707D01*
X560404Y1213000D01*
X560628Y1211293D01*
X561287Y1209702D01*
X562336Y1208336D01*
X563702Y1207287D01*
X563980Y1207172D01*
X564121Y1205739D01*
X563006Y1204994D01*
X561782Y1203162D01*
X561352Y1201000D01*
X561782Y1198838D01*
X563006Y1197006D01*
X564838Y1195781D01*
X567000Y1195351D01*
X568080Y1195566D01*
X568500Y1195483D01*
X570460D01*
Y1193540D01*
X570460D01*
Y1190139D01*
X556139D01*
Y1257000D01*
X555748Y1258967D01*
X554634Y1260634D01*
X552966Y1261748D01*
X551000Y1262139D01*
X529128D01*
X525000Y1266267D01*
Y1308000D01*
X592000D01*
X592000Y1381000D01*
X686000D01*
X686000Y1308000D01*
D02*
G37*
G36*
X765861Y1195136D02*
X760188D01*
X759773Y1196087D01*
X759719Y1196406D01*
X760713Y1197702D01*
X761372Y1199293D01*
X761596Y1201000D01*
X761372Y1202707D01*
X760713Y1204298D01*
X759664Y1205664D01*
X758298Y1206713D01*
X756707Y1207372D01*
X755000Y1207596D01*
X753293Y1207372D01*
X752437Y1207017D01*
X751040D01*
Y1209290D01*
X752310Y1210035D01*
X753293Y1209628D01*
X755000Y1209404D01*
X756707Y1209628D01*
X758298Y1210287D01*
X759664Y1211336D01*
X760713Y1212702D01*
X761372Y1214293D01*
X761596Y1216000D01*
X761372Y1217707D01*
X760713Y1219298D01*
X759664Y1220664D01*
X758298Y1221713D01*
X756707Y1222372D01*
Y1223628D01*
X758298Y1224287D01*
X759664Y1225336D01*
X760713Y1226702D01*
X761372Y1228293D01*
X761596Y1230000D01*
X761372Y1231707D01*
X760713Y1233298D01*
X759664Y1234664D01*
X758298Y1235713D01*
X756707Y1236372D01*
X755000Y1236596D01*
X753293Y1236372D01*
X752310Y1235965D01*
X751040Y1236710D01*
Y1239040D01*
X751040D01*
X750540Y1239960D01*
Y1243881D01*
X756000D01*
X757576Y1244194D01*
X758913Y1245087D01*
X759806Y1246424D01*
X760119Y1248000D01*
Y1249861D01*
X765861D01*
Y1195136D01*
D02*
G37*
%LPC*%
G36*
X1465000Y980960D02*
X1462746Y980664D01*
X1460645Y979794D01*
X1458841Y978409D01*
X1457456Y976605D01*
X1456586Y974504D01*
X1456289Y972250D01*
X1456586Y969996D01*
X1457456Y967895D01*
X1458841Y966091D01*
X1460645Y964706D01*
X1462746Y963836D01*
X1465000Y963540D01*
X1467254Y963836D01*
X1469355Y964706D01*
X1471159Y966091D01*
X1472543Y967895D01*
X1473414Y969996D01*
X1473710Y972250D01*
X1473414Y974504D01*
X1472543Y976605D01*
X1471159Y978409D01*
X1469355Y979794D01*
X1467254Y980664D01*
X1465000Y980960D01*
D02*
G37*
G36*
X1473636Y1040885D02*
X1456364D01*
Y1036139D01*
X1446000D01*
X1444034Y1035748D01*
X1442366Y1034634D01*
X1441252Y1032967D01*
X1440861Y1031000D01*
Y1025790D01*
X1438210D01*
Y1010210D01*
Y996210D01*
X1451290D01*
Y998861D01*
X1452000D01*
X1453967Y999252D01*
X1455634Y1000366D01*
X1460266Y1004998D01*
X1460645Y1004707D01*
X1462746Y1003837D01*
X1465000Y1003540D01*
X1467254Y1003837D01*
X1469355Y1004707D01*
X1471159Y1006092D01*
X1472543Y1007896D01*
X1473414Y1009996D01*
X1473710Y1012251D01*
X1473414Y1014505D01*
X1472543Y1016606D01*
X1471159Y1018410D01*
X1469355Y1019794D01*
X1467254Y1020665D01*
X1465000Y1020961D01*
X1462746Y1020665D01*
X1460645Y1019794D01*
X1458841Y1018410D01*
X1457456Y1016606D01*
X1457317Y1016269D01*
X1456366Y1015634D01*
X1452560Y1011827D01*
X1451290Y1012353D01*
Y1025790D01*
X1452531Y1025861D01*
X1456364D01*
Y1023613D01*
X1473636D01*
Y1040885D01*
D02*
G37*
G36*
X1435790Y1025790D02*
X1422710D01*
Y1021139D01*
X1420046D01*
X1419298Y1021713D01*
X1417707Y1022372D01*
X1416000Y1022596D01*
X1414293Y1022372D01*
X1412702Y1021713D01*
X1411336Y1020664D01*
X1410287Y1019298D01*
X1409628Y1017707D01*
X1409404Y1016000D01*
X1409628Y1014293D01*
X1410287Y1012702D01*
X1411336Y1011336D01*
X1412702Y1010287D01*
X1414293Y1009628D01*
X1416000Y1009404D01*
X1417707Y1009628D01*
X1419298Y1010287D01*
X1420046Y1010861D01*
X1422710D01*
Y1009139D01*
X1421000D01*
X1419034Y1008748D01*
X1417366Y1007634D01*
X1412971Y1003239D01*
X1411702Y1002713D01*
X1410336Y1001664D01*
X1409287Y1000298D01*
X1408628Y998707D01*
X1408404Y997000D01*
X1408628Y995293D01*
X1409287Y993702D01*
X1410336Y992336D01*
X1411702Y991287D01*
X1413293Y990628D01*
X1415000Y990404D01*
X1416707Y990628D01*
X1418298Y991287D01*
X1419664Y992336D01*
X1420713Y993702D01*
X1421372Y995293D01*
X1421480Y996114D01*
X1422710Y996210D01*
Y996210D01*
X1435790D01*
Y1010210D01*
Y1025790D01*
D02*
G37*
G36*
X676000Y1356596D02*
X674293Y1356372D01*
X672702Y1355713D01*
X671336Y1354664D01*
X670917Y1354119D01*
X620000D01*
X618424Y1353806D01*
X617087Y1352913D01*
X616194Y1351576D01*
X615881Y1350000D01*
Y1303083D01*
X615336Y1302664D01*
X614287Y1301298D01*
X613628Y1299707D01*
X613404Y1298000D01*
X613628Y1296293D01*
X614287Y1294702D01*
X615336Y1293336D01*
X616702Y1292287D01*
X618293Y1291628D01*
X620000Y1291404D01*
X621707Y1291628D01*
X623298Y1292287D01*
X624664Y1293336D01*
X625713Y1294702D01*
X626372Y1296293D01*
X626596Y1298000D01*
X626372Y1299707D01*
X625713Y1301298D01*
X624664Y1302664D01*
X624119Y1303083D01*
Y1345881D01*
X670917D01*
X671336Y1345336D01*
X672702Y1344287D01*
X674293Y1343628D01*
X676000Y1343404D01*
X677707Y1343628D01*
X679298Y1344287D01*
X680664Y1345336D01*
X681713Y1346702D01*
X682372Y1348293D01*
X682596Y1350000D01*
X682372Y1351707D01*
X681713Y1353298D01*
X680664Y1354664D01*
X679298Y1355713D01*
X677707Y1356372D01*
X676000Y1356596D01*
D02*
G37*
%LPD*%
D10*
X75499Y903500D02*
D03*
Y924500D02*
D03*
D11*
X674000Y499000D02*
D03*
X650000Y508500D02*
D03*
Y489500D02*
D03*
D12*
X704000Y667000D02*
D03*
X672000D02*
D03*
X705000Y616000D02*
D03*
X673000D02*
D03*
D13*
X1095000Y178000D02*
D03*
X1079500D02*
D03*
X1095000Y206000D02*
D03*
X1079500D02*
D03*
X1372750Y1552000D02*
D03*
X1357250D02*
D03*
X1444750Y1004000D02*
D03*
X1429250D02*
D03*
X1444750Y1018000D02*
D03*
X1429250D02*
D03*
X1470250Y826000D02*
D03*
X1485750D02*
D03*
X1358750Y1204000D02*
D03*
X1343250D02*
D03*
X1205750Y1295750D02*
D03*
X1190250D02*
D03*
D14*
X1107000Y1619000D02*
D03*
X1097500Y1595000D02*
D03*
X1116500D02*
D03*
X1039000Y1619000D02*
D03*
X1029500Y1595000D02*
D03*
X1048500D02*
D03*
D20*
X727000Y235000D02*
D03*
X695000D02*
D03*
X522000D02*
D03*
X554000D02*
D03*
D21*
X906500Y261500D02*
D03*
Y246000D02*
D03*
X878500D02*
D03*
Y261500D02*
D03*
X850500D02*
D03*
Y246000D02*
D03*
X822500Y261500D02*
D03*
Y246000D02*
D03*
X1009000Y155250D02*
D03*
Y170750D02*
D03*
X1375000Y1516250D02*
D03*
Y1531750D02*
D03*
X1211000Y554250D02*
D03*
Y569750D02*
D03*
X717500Y976500D02*
D03*
Y961000D02*
D03*
X731000Y976500D02*
D03*
Y961000D02*
D03*
X690000Y474750D02*
D03*
Y490250D02*
D03*
Y444250D02*
D03*
Y459750D02*
D03*
X1377000Y1171250D02*
D03*
Y1186750D02*
D03*
D22*
X1196000Y1605500D02*
D03*
Y1584500D02*
D03*
X1474000Y746500D02*
D03*
Y767500D02*
D03*
D23*
X1076000Y1632000D02*
D03*
Y1600000D02*
D03*
X686000Y259000D02*
D03*
Y291000D02*
D03*
X562000Y259000D02*
D03*
Y291000D02*
D03*
X1007000Y1636000D02*
D03*
Y1604000D02*
D03*
D24*
X1361000Y641000D02*
D03*
X1382000D02*
D03*
X645500Y447500D02*
D03*
X624500D02*
D03*
X1382500Y611001D02*
D03*
X1361501D02*
D03*
D26*
X855000Y1493900D02*
D03*
Y1512100D02*
D03*
D30*
X1017000Y63000D02*
D03*
Y31000D02*
D03*
D46*
X204500Y1051500D02*
D03*
Y1067500D02*
D03*
X32000Y922000D02*
D03*
Y906000D02*
D03*
X543250Y1548000D02*
D03*
Y1532000D02*
D03*
X194000Y1449000D02*
D03*
Y1433000D02*
D03*
X574000Y1235000D02*
D03*
Y1251000D02*
D03*
X32000Y1502000D02*
D03*
Y1486000D02*
D03*
X1288500Y426250D02*
D03*
Y442250D02*
D03*
X920500Y263000D02*
D03*
Y247000D02*
D03*
X892500Y263000D02*
D03*
Y247000D02*
D03*
X864500Y263000D02*
D03*
Y247000D02*
D03*
X836500Y263000D02*
D03*
Y247000D02*
D03*
X670000Y1099000D02*
D03*
Y1083000D02*
D03*
X657000Y1099000D02*
D03*
Y1083000D02*
D03*
X643000Y1099000D02*
D03*
Y1083000D02*
D03*
X699000Y1099000D02*
D03*
Y1083000D02*
D03*
X1208000Y1480000D02*
D03*
Y1464000D02*
D03*
X1209500Y1551000D02*
D03*
Y1535000D02*
D03*
X988000Y1410000D02*
D03*
Y1426000D02*
D03*
X1201000Y1408000D02*
D03*
Y1392000D02*
D03*
X1253000Y1322000D02*
D03*
Y1338000D02*
D03*
X1325000Y1515000D02*
D03*
Y1531000D02*
D03*
X1177000Y1375000D02*
D03*
Y1391000D02*
D03*
X1472000Y806000D02*
D03*
Y790000D02*
D03*
X1363000Y754750D02*
D03*
Y770750D02*
D03*
X1377000Y770750D02*
D03*
Y754750D02*
D03*
X1388000Y581000D02*
D03*
Y565000D02*
D03*
X1286000Y613000D02*
D03*
Y629000D02*
D03*
X1197000Y681000D02*
D03*
Y697000D02*
D03*
X616000Y1251000D02*
D03*
Y1235000D02*
D03*
X588000Y1251000D02*
D03*
Y1235000D02*
D03*
X602000Y1251000D02*
D03*
Y1235000D02*
D03*
X670000Y1251000D02*
D03*
Y1235000D02*
D03*
X711000Y1251000D02*
D03*
Y1235000D02*
D03*
X684500Y1083000D02*
D03*
Y1099000D02*
D03*
X628500Y1083000D02*
D03*
Y1099000D02*
D03*
X1330000Y1188000D02*
D03*
Y1204000D02*
D03*
X1189000Y562000D02*
D03*
Y546000D02*
D03*
X38000Y1138000D02*
D03*
Y1154000D02*
D03*
X29500Y1372000D02*
D03*
Y1356000D02*
D03*
D47*
X628000Y490000D02*
D03*
X607000D02*
D03*
X718500Y1085000D02*
D03*
X739500D02*
D03*
X600000Y1093000D02*
D03*
X579000D02*
D03*
D48*
X594000Y1143000D02*
D03*
X578000D02*
D03*
X594000Y1157000D02*
D03*
X578000D02*
D03*
X594000Y1171500D02*
D03*
X578000D02*
D03*
X878000Y1547000D02*
D03*
X894000D02*
D03*
X752000Y1668000D02*
D03*
X768000D02*
D03*
X826750Y1420000D02*
D03*
X810750D02*
D03*
X827000Y1456000D02*
D03*
X811000D02*
D03*
X726000Y1544000D02*
D03*
X742000D02*
D03*
X899000Y1668000D02*
D03*
X915000D02*
D03*
X863000Y1405000D02*
D03*
X847000D02*
D03*
X863000Y1391000D02*
D03*
X847000D02*
D03*
X633750Y1555000D02*
D03*
X617750D02*
D03*
X626250Y1667500D02*
D03*
X610250D02*
D03*
X617750Y1541250D02*
D03*
X633750D02*
D03*
X594000Y1199500D02*
D03*
X578000D02*
D03*
X169000Y1391000D02*
D03*
X185000D02*
D03*
X594000Y1214000D02*
D03*
X578000D02*
D03*
X168000Y1479000D02*
D03*
X184000D02*
D03*
X278000Y1566500D02*
D03*
X262000D02*
D03*
X466250Y1573000D02*
D03*
X450250D02*
D03*
X278000Y1584000D02*
D03*
X262000D02*
D03*
X450000Y1554000D02*
D03*
X466000D02*
D03*
X262000Y1551500D02*
D03*
X278000D02*
D03*
X393750Y1546750D02*
D03*
X377750D02*
D03*
X218000Y1550250D02*
D03*
X202000D02*
D03*
X393750Y1566750D02*
D03*
X377750D02*
D03*
X218000Y1571250D02*
D03*
X202000D02*
D03*
X1271000Y380750D02*
D03*
X1255000D02*
D03*
X1271000Y394750D02*
D03*
X1255000D02*
D03*
X1271000Y408750D02*
D03*
X1255000D02*
D03*
X1271000Y477750D02*
D03*
X1255000D02*
D03*
X1271000Y464250D02*
D03*
X1255000D02*
D03*
X1271000Y450750D02*
D03*
X1255000D02*
D03*
X1271000Y436750D02*
D03*
X1255000D02*
D03*
X743500Y1148000D02*
D03*
X727500D02*
D03*
X743500Y1168000D02*
D03*
X727500D02*
D03*
X1290500Y241250D02*
D03*
X1306500D02*
D03*
X1290500Y255000D02*
D03*
X1306500D02*
D03*
X1290500Y269000D02*
D03*
X1306500D02*
D03*
X1290500Y283250D02*
D03*
X1306500D02*
D03*
X1349500Y221250D02*
D03*
X1333500D02*
D03*
X1349500Y235250D02*
D03*
X1333500D02*
D03*
X1096500Y192000D02*
D03*
X1080500D02*
D03*
X1096500Y220000D02*
D03*
X1080500D02*
D03*
X973500Y186000D02*
D03*
X989500D02*
D03*
X973500Y171500D02*
D03*
X989500D02*
D03*
X973500Y156500D02*
D03*
X989500D02*
D03*
X880000Y279000D02*
D03*
X864000D02*
D03*
X881000Y355000D02*
D03*
X865000D02*
D03*
X108000Y777000D02*
D03*
X124000D02*
D03*
X594000Y1115000D02*
D03*
X578000D02*
D03*
X1058750Y1499000D02*
D03*
X1042750D02*
D03*
X1059500Y1555000D02*
D03*
X1043500D02*
D03*
X1005000Y1497000D02*
D03*
X989000D02*
D03*
X1007000Y1552500D02*
D03*
X991000D02*
D03*
X1025000Y1389000D02*
D03*
X1009000D02*
D03*
X1025000Y1406500D02*
D03*
X1009000D02*
D03*
X989000Y1469500D02*
D03*
X1005000D02*
D03*
X1042000Y1536500D02*
D03*
X1058000D02*
D03*
X1042750Y1481500D02*
D03*
X1058750D02*
D03*
X1042750Y1467500D02*
D03*
X1058750D02*
D03*
X1005000Y1483500D02*
D03*
X989000D02*
D03*
X991000Y1535500D02*
D03*
X1007000D02*
D03*
X727500Y1203000D02*
D03*
X743500D02*
D03*
X727500Y1231000D02*
D03*
X743500D02*
D03*
X727500Y1217000D02*
D03*
X743500D02*
D03*
X1260000Y849750D02*
D03*
X1244000D02*
D03*
X1244000Y836750D02*
D03*
X1260000D02*
D03*
X1260000Y820000D02*
D03*
X1244000D02*
D03*
X1322000Y568000D02*
D03*
X1306000D02*
D03*
X1322000Y554000D02*
D03*
X1306000D02*
D03*
X1281000Y669000D02*
D03*
X1297000D02*
D03*
X609000Y472000D02*
D03*
X625000D02*
D03*
X589000Y438000D02*
D03*
X605000D02*
D03*
X706000Y490000D02*
D03*
X722000D02*
D03*
X696000Y707000D02*
D03*
X680000D02*
D03*
X578000Y1185500D02*
D03*
X594000D02*
D03*
X743500Y1132000D02*
D03*
X727500D02*
D03*
X578000Y1077000D02*
D03*
X594000D02*
D03*
X743000Y1248000D02*
D03*
X727000D02*
D03*
X578000Y1129000D02*
D03*
X594000D02*
D03*
X743500Y1189000D02*
D03*
X727500D02*
D03*
X1271000Y422750D02*
D03*
X1255000D02*
D03*
X743500Y1104000D02*
D03*
X727500D02*
D03*
X743500Y1118000D02*
D03*
X727500D02*
D03*
D57*
X244000Y963000D02*
Y1057000D01*
X230000Y946000D02*
Y1068000D01*
X244000Y963000D02*
X245000Y962000D01*
X322000Y849000D02*
Y1439000D01*
X335000Y854000D02*
Y1449000D01*
X244040Y1457184D02*
Y1477960D01*
X230000Y1195000D02*
Y1449000D01*
X245000Y931000D02*
Y962000D01*
X230000Y1068000D02*
Y1195000D01*
X244000Y1457144D02*
X244040Y1457184D01*
X244000Y1478000D02*
X244040Y1477960D01*
X230000Y1449000D02*
Y1463000D01*
X335000Y854000D02*
X381000Y808000D01*
X322000Y849000D02*
X377500Y793500D01*
X146000Y675000D02*
Y840998D01*
X160000Y856000D02*
X160040Y855960D01*
Y691960D02*
X161000Y691000D01*
X322000Y1439000D02*
Y1592144D01*
X335000Y1449000D02*
Y1644000D01*
X322040Y1592184D02*
Y1661960D01*
X322000Y1592144D02*
X322040Y1592184D01*
X449040Y930960D02*
X450000Y930000D01*
X1144000Y1257000D02*
Y1313000D01*
X1160000Y1198000D02*
Y1296000D01*
Y1318000D01*
X650747Y1607247D02*
Y1647500D01*
X1177000Y779000D02*
X1178000Y1130000D01*
X1176000Y778000D02*
X1177000Y779000D01*
X94001Y1463999D02*
X96000Y1462000D01*
X52000Y1333999D02*
X61999Y1324000D01*
X88002Y1393998D02*
X94000Y1388000D01*
X52000Y1393998D02*
X88002D01*
X146000Y840998D02*
X146000Y840998D01*
X160040Y691960D02*
Y855960D01*
X468001Y792000D02*
X468999Y792998D01*
X379000Y792000D02*
X468001D01*
X377500Y793500D02*
X379000Y792000D01*
X578000Y554000D02*
Y878000D01*
X645000Y763000D02*
X646000Y762000D01*
X647000Y764000D02*
X672000D01*
X648500Y1605000D02*
X650747Y1607247D01*
X588000Y1605000D02*
X590747Y1607747D01*
Y1647500D01*
X322000Y1662000D02*
X322040Y1661960D01*
X650747Y1647500D02*
Y1662254D01*
X645000Y1668000D02*
X650747Y1662254D01*
X590747Y1647500D02*
Y1662747D01*
X595500Y1667500D01*
X610250D01*
Y1684000D01*
X164000D02*
X610250D01*
X164000Y1610000D02*
Y1684000D01*
X118000Y1564000D02*
X164000Y1610000D01*
X34000Y1564000D02*
X118000D01*
X34000Y1545495D02*
Y1564000D01*
X32000Y1517000D02*
X38998Y1523998D01*
X32000Y1502000D02*
Y1517000D01*
X322000Y1662000D02*
X385000D01*
X385752Y1661248D01*
X222000Y1662000D02*
X322000D01*
X220751Y1660751D02*
X222000Y1662000D01*
X385752Y1647500D02*
Y1661248D01*
X220751Y1647500D02*
Y1660751D01*
X626250Y1667500D02*
X644500D01*
X645000Y1668000D01*
X51999Y1334000D02*
X52000Y1333999D01*
X36000Y1334000D02*
X51999D01*
X31000Y1339000D02*
X36000Y1334000D01*
X27000Y1339000D02*
X31000D01*
X35998Y1393998D02*
X52000D01*
X29500Y1387500D02*
X35998Y1393998D01*
X29500Y1372000D02*
Y1387500D01*
X27000Y1467000D02*
X30001Y1463999D01*
X13000Y1372000D02*
X29500D01*
X32000Y1476000D02*
Y1486000D01*
X27000Y1471000D02*
X32000Y1476000D01*
X27000Y1467000D02*
Y1471000D01*
X29500Y1345500D02*
Y1356000D01*
X27000Y1343000D02*
X29500Y1345500D01*
X27000Y1339000D02*
Y1343000D01*
X13000Y1500000D02*
Y1501000D01*
X14000Y1502000D01*
X32000D01*
X275000Y420000D02*
Y440000D01*
X270000Y415000D02*
X275000Y420000D01*
X252250Y415000D02*
X270000D01*
X200000Y420000D02*
Y440000D01*
Y420000D02*
X205000Y415000D01*
X217750D01*
X698780Y707220D02*
X729220D01*
X653000Y707000D02*
X679000D01*
X97250Y417500D02*
X109500D01*
X117500Y425500D01*
Y440000D01*
X50500Y417500D02*
X62750D01*
X42500Y425500D02*
X50500Y417500D01*
X42500Y425500D02*
Y440000D01*
X365000Y415000D02*
X377750D01*
X357500Y422500D02*
X365000Y415000D01*
X357500Y422500D02*
Y440000D01*
X412250Y415000D02*
X428000D01*
X432500Y419500D01*
Y440000D01*
X467960Y807960D02*
X469000Y809000D01*
X381000Y807960D02*
X467960D01*
X672000Y764000D02*
X672040Y763960D01*
X728000D01*
X483000Y909000D02*
Y945000D01*
X560000Y535000D02*
Y862000D01*
X1130000Y1479000D02*
Y1515000D01*
X1118000Y1339000D02*
Y1440000D01*
Y1505739D01*
Y1339000D02*
X1129250Y1327750D01*
X1129250D02*
X1129250D01*
X1129250D01*
X1129250Y1327750D02*
Y1327750D01*
X1144000Y1313000D01*
X1130000Y1348000D02*
X1142000Y1336000D01*
X1160000Y1318000D01*
X1123485Y1333515D02*
X1129250Y1327750D01*
X1129250Y1327750D01*
X449040Y930960D02*
Y962000D01*
X435000Y909000D02*
Y946000D01*
X645000Y763000D02*
Y808000D01*
X244000Y1057000D02*
Y1209000D01*
Y1457144D01*
X1130000Y1449000D02*
Y1479000D01*
Y1348000D02*
Y1449000D01*
X1144000Y857000D02*
Y1257000D01*
X791000Y886000D02*
Y1026000D01*
X1192500Y765500D02*
X1193000Y765000D01*
X1192500Y765500D02*
Y1115500D01*
X1159000Y840000D02*
X1160000Y841000D01*
Y1198000D01*
X811000Y870960D02*
Y999000D01*
X30001Y1463999D02*
X54500D01*
X94001D01*
X38998Y1523998D02*
X54500D01*
X94002D01*
X61999Y1324000D02*
X95000D01*
X94002Y1523998D02*
X97000Y1521000D01*
X679000Y707000D02*
X680000Y706000D01*
D58*
X593000Y600000D02*
Y920000D01*
Y600000D02*
X598000Y595000D01*
X659000D01*
X674000Y580000D01*
Y499000D02*
Y580000D01*
X380000Y1503000D02*
X403000D01*
X366000Y1517000D02*
X380000Y1503000D01*
X366000Y1517000D02*
Y1547000D01*
X403000Y1503000D02*
X420000Y1486000D01*
Y1060000D02*
Y1486000D01*
X127000Y735000D02*
Y763500D01*
X124000Y766500D02*
X127000Y763500D01*
X124000Y766500D02*
Y777000D01*
X115000Y816000D02*
Y931000D01*
X79000Y906000D02*
X90000D01*
X80000Y925000D02*
X101000D01*
Y828000D02*
Y925000D01*
X79000Y924000D02*
X80000Y925000D01*
X259000Y1285000D02*
Y1504000D01*
X406000Y1142000D02*
Y1285000D01*
X31000Y1209000D02*
X44000D01*
X280000Y1195000D02*
X280040Y1195040D01*
X158500Y604000D02*
Y623500D01*
Y586000D02*
Y604000D01*
X194000Y1449000D02*
X230000D01*
X104000Y644000D02*
X105000Y643000D01*
X302000Y1636000D02*
Y1643000D01*
X291136Y1636000D02*
X302000D01*
X280000Y1624864D02*
X291136Y1636000D01*
X184000Y1479000D02*
X206000D01*
Y1468000D02*
Y1479000D01*
X183000Y1468000D02*
X206000D01*
X186000Y1389000D02*
X193000D01*
Y1432000D02*
X194000Y1433000D01*
X173000Y1404000D02*
Y1458000D01*
X574000Y1358000D02*
Y1408000D01*
X559000Y1423000D02*
X574000Y1408000D01*
X458000Y1423000D02*
Y1524000D01*
X987000Y1500000D02*
Y1510000D01*
X988003Y1438997D02*
X988998D01*
X988000Y1439000D02*
X988003Y1438997D01*
X977000Y1409000D02*
Y1449000D01*
Y1409000D02*
X988000D01*
X1130000Y1479000D02*
X1130000Y1479000D01*
X999000Y1431000D02*
X1026000D01*
X999000Y1426500D02*
Y1431000D01*
Y1406000D02*
Y1426500D01*
X998500Y1426000D02*
X999000Y1426500D01*
X988000Y1426000D02*
X998500D01*
X1058750Y1511210D02*
X1058998Y1511458D01*
X1076000Y1648000D02*
X1078748D01*
X1097500Y1590000D02*
Y1595000D01*
X989000Y1483500D02*
X989000D01*
X1005000D02*
Y1497000D01*
X1006000D01*
X989000D02*
X990000D01*
X1201000Y1408000D02*
Y1409000D01*
X1197500Y1585500D02*
X1220500D01*
X1299000Y1526000D02*
X1310000Y1515000D01*
X1392000Y1540250D02*
X1408000D01*
X1392000Y1540000D02*
Y1540250D01*
X1375000D02*
X1392000D01*
X1372750Y1531750D02*
Y1552000D01*
Y1531750D02*
X1375000D01*
X1388000Y1515000D02*
X1398000Y1505000D01*
X1406750D01*
X1325000Y1515000D02*
X1352000D01*
X1330000Y1188000D02*
X1330000Y1188000D01*
X1303000Y1188000D02*
X1330000D01*
X1303000D02*
Y1207000D01*
X1302000Y1208000D02*
X1303000Y1207000D01*
X1314000Y1204000D02*
X1314000Y1204000D01*
X1330000D01*
X1377000Y1204000D02*
X1385000D01*
X1358750D02*
X1377000D01*
Y1186750D02*
Y1204000D01*
X1407250Y1199000D02*
X1409000Y1200750D01*
X1385000Y1204000D02*
X1390000Y1199000D01*
X1343250Y1204000D02*
X1343250Y1204000D01*
X1330000Y1204000D02*
X1343250D01*
X1409000Y1163000D02*
Y1166250D01*
X1408000Y1164000D02*
X1409000Y1163000D01*
X1386000Y1170000D02*
X1392000Y1164000D01*
X1378250Y1170000D02*
X1386000D01*
X1377000Y1171250D02*
X1378250Y1170000D01*
X1151000Y561000D02*
Y575000D01*
X1149999Y559999D02*
X1151000Y561000D01*
X1188000Y545000D02*
X1189000Y546000D01*
X1188000Y534000D02*
Y545000D01*
X1240000Y478000D02*
X1240250Y477750D01*
X1240000Y478000D02*
Y478000D01*
X1240250Y477750D02*
X1255000D01*
X1230000Y464000D02*
X1254750D01*
X1255000Y464250D01*
X1253750Y452000D02*
X1255000Y450750D01*
X1220000Y452000D02*
X1253750D01*
X1194000Y637000D02*
X1223000D01*
Y624000D02*
Y637000D01*
Y624000D02*
X1223350Y623650D01*
Y623000D02*
Y623650D01*
X865000Y355000D02*
X865000Y355000D01*
X1029000Y352000D02*
X1030000D01*
X1206000Y896000D02*
Y985000D01*
Y796000D02*
Y896000D01*
X1261000Y926000D02*
Y968000D01*
X1429250Y1004000D02*
X1430000D01*
X1421000D02*
X1429250D01*
X1416000Y1016000D02*
X1426000D01*
X1452000Y1004000D02*
X1460000Y1012000D01*
X1444750Y1004000D02*
X1452000D01*
X1445000Y1018000D02*
X1446000Y1019000D01*
Y1031000D01*
X1463751D01*
X1465000Y1032249D01*
X1206000Y985000D02*
Y1040000D01*
X975000Y413000D02*
X1015000D01*
X1221500Y565500D02*
Y570000D01*
X722000Y535000D02*
X722000Y535000D01*
X864000Y295000D02*
X864000Y295000D01*
X879998Y279998D02*
Y288999D01*
X734000Y471000D02*
Y554000D01*
X731000Y468000D02*
X734000Y471000D01*
X690000Y468000D02*
X731000D01*
X722000Y490000D02*
Y535000D01*
X952750Y351750D02*
Y385750D01*
X1043000Y217000D02*
Y236000D01*
X1055000Y155000D02*
Y247000D01*
X1096000Y222000D02*
X1097000Y221000D01*
X1096000Y222000D02*
Y275000D01*
X1046000D02*
X1096000D01*
X1043000Y272000D02*
X1046000Y275000D01*
X1043000Y246000D02*
Y272000D01*
Y236000D02*
Y246000D01*
X1009000D02*
X1043000D01*
X1050000Y16000D02*
X1055000Y21000D01*
X1055000D02*
X1055000D01*
X1055000D02*
Y155000D01*
X1018000Y16000D02*
X1050000D01*
X1043000Y174785D02*
Y217000D01*
Y174785D02*
X1043040Y174744D01*
Y167255D02*
Y174744D01*
X1043000Y167215D02*
X1043040Y167255D01*
X1043000Y143000D02*
Y167215D01*
X1079000Y207000D02*
Y213000D01*
X1080500Y214500D01*
Y220000D01*
X1096500Y206500D02*
Y220000D01*
Y192000D02*
Y206000D01*
X1096000Y207000D02*
X1096500Y206500D01*
X1095000Y178000D02*
Y190000D01*
X1110000Y206000D02*
X1110000Y206000D01*
X1096500Y206000D02*
X1110000D01*
X864500Y263000D02*
X878500D01*
Y268500D01*
Y261500D02*
Y263000D01*
X880000Y270000D02*
Y278000D01*
X878500Y268500D02*
X880000Y270000D01*
X919500Y261500D02*
X920000Y262000D01*
X906500Y261500D02*
X919500D01*
X893000Y263000D02*
X903000D01*
X892500D02*
X893000D01*
X903000D02*
X905000Y261000D01*
X878500Y261500D02*
X891500D01*
X836500Y263000D02*
X850000D01*
X814000Y279000D02*
X864000D01*
X880000D02*
X928000D01*
X864000D02*
Y295000D01*
X1017000Y30000D02*
Y31000D01*
Y17000D02*
Y30000D01*
Y17000D02*
X1018000Y16000D01*
X1004000Y251000D02*
X1009000Y246000D01*
X975000Y144000D02*
Y156000D01*
X220000Y643000D02*
X221000Y642000D01*
X46000Y1196000D02*
X54000D01*
X39000Y1189000D02*
X45000Y1195000D01*
X54000Y1196000D02*
X54040Y1196040D01*
X28000Y1138000D02*
X36000D01*
X23000Y1143000D02*
X28000Y1138000D01*
X38000Y1102300D02*
Y1128000D01*
Y1077000D02*
Y1102300D01*
X56600D01*
X38000Y1052000D02*
Y1077000D01*
X38100Y1076900D01*
X56600D01*
X38000Y1052000D02*
X56000D01*
X38000Y1128000D02*
Y1138000D01*
X55000Y1154000D02*
X56000Y1153000D01*
X38000Y1154000D02*
X55000D01*
X38000Y1154000D02*
X39000Y1155000D01*
Y1189000D01*
X77000Y926000D02*
X79000Y924000D01*
X38000Y876000D02*
X52000D01*
X32000Y882000D02*
X38000Y876000D01*
X32000Y882000D02*
Y906000D01*
X40000Y956000D02*
X51000D01*
X32000Y948000D02*
X40000Y956000D01*
X32000Y922000D02*
Y948000D01*
X68000Y957000D02*
X75499Y949501D01*
Y924500D02*
Y949501D01*
X75000Y883000D02*
Y903000D01*
X68502Y876502D02*
X75000Y883000D01*
X52000Y876502D02*
X68502D01*
X76000Y903000D02*
X79000Y906000D01*
X1173000Y548000D02*
X1175000Y550000D01*
X1211000Y570000D02*
X1221500D01*
X1179000Y562000D02*
X1189000D01*
Y574000D01*
X1175000Y558000D02*
X1179000Y562000D01*
X1175000Y550000D02*
Y558000D01*
X1197000Y698000D02*
Y708000D01*
Y697000D02*
Y698000D01*
X1198000Y709000D02*
X1211000D01*
X1197000Y708000D02*
X1198000Y709000D01*
X1168000Y696000D02*
X1195000D01*
X1168214Y679770D02*
X1194770D01*
X1244000Y820000D02*
X1244000Y820000D01*
X811000Y355000D02*
X865000D01*
X628000Y510000D02*
X629500Y508500D01*
X999000Y1388000D02*
Y1406000D01*
X999500Y1406500D01*
X1009000D01*
X999000Y1388000D02*
X1000000Y1387000D01*
X1009000D01*
X1005000Y1469500D02*
X1005000Y1469500D01*
Y1483500D01*
X1058750Y1481500D02*
X1058750Y1481500D01*
Y1499000D01*
X1030000Y1498500D02*
X1030500Y1499000D01*
X1042750D01*
X1042000Y1535500D02*
Y1536500D01*
X1041000Y1535500D02*
X1042000D01*
X979000Y1552500D02*
X979000Y1552500D01*
X991000D01*
X1007000D02*
X1020000D01*
X1058000Y1536500D02*
Y1553500D01*
X1059500Y1555000D01*
X1208000Y1353000D02*
Y1392000D01*
X1190000Y1408000D02*
X1201000D01*
X1310000Y1515000D02*
X1325000D01*
X91000Y568000D02*
Y628000D01*
X643250Y284000D02*
Y294750D01*
X635000Y303000D02*
X643250Y294750D01*
X635000Y303000D02*
Y320000D01*
X608750Y284000D02*
X609600Y284850D01*
Y320000D01*
X108000Y767000D02*
Y777000D01*
X104000Y763000D02*
X108000Y767000D01*
X104000Y644000D02*
Y763000D01*
X94000Y778000D02*
X107000D01*
X108000Y777000D01*
X584200Y412000D02*
Y428200D01*
X589500Y433500D01*
X609600Y412000D02*
Y425400D01*
X605500Y429500D02*
X609600Y425400D01*
X635000Y412000D02*
Y429000D01*
X645500Y447500D02*
X654500D01*
X605500Y429500D02*
Y437000D01*
X624500D01*
Y447500D01*
X605000Y438000D02*
Y454000D01*
X605000Y454000D01*
X654500Y447500D02*
X660400Y441600D01*
Y412000D02*
Y441600D01*
X690000Y429000D02*
Y444250D01*
X629500Y508500D02*
X650000D01*
Y489500D02*
X659500D01*
X670000Y479000D01*
Y454000D02*
Y479000D01*
X674000Y499000D02*
X686000D01*
X690000Y495000D01*
Y490250D02*
Y495000D01*
Y490250D02*
X705750D01*
X706000Y490000D01*
X1379250Y773000D02*
X1401000D01*
X1377000Y770750D02*
X1379250Y773000D01*
X1351250Y754750D02*
X1363000D01*
X1351000Y755000D02*
X1351250Y754750D01*
X1260000Y796500D02*
Y820000D01*
X1260000Y796500D02*
X1260000Y796500D01*
X1244000Y820000D02*
Y836750D01*
X1244000Y836750D02*
X1244000Y836750D01*
X1244000Y836750D02*
Y849750D01*
X1244000Y849750D01*
Y858996D01*
X185000Y1390000D02*
X186000Y1389000D01*
X183000Y1433000D02*
X194000D01*
X183000D02*
Y1468000D01*
X633750Y1541250D02*
X636000Y1539000D01*
X645000D01*
X616000Y1556750D02*
X617750Y1555000D01*
X616000Y1556750D02*
Y1574000D01*
X542250Y1531000D02*
X543250Y1532000D01*
X516000Y1531000D02*
X542250D01*
X543250Y1548000D02*
Y1557250D01*
X547000Y1561000D01*
X556000D01*
X1288500Y509500D02*
X1289000Y510000D01*
X1296250Y426250D02*
X1299000Y429000D01*
X1289000Y405000D02*
Y426000D01*
X1288500Y426250D02*
X1296250D01*
X1271000Y380750D02*
Y394750D01*
Y407000D01*
Y408750D02*
Y422750D01*
Y436750D01*
Y450750D01*
Y464250D01*
Y477750D01*
Y408750D02*
X1276250D01*
X1281000Y404000D01*
X1288000D01*
X881000Y355000D02*
X882000Y354000D01*
X916000D01*
X1425000Y473000D02*
X1426000Y472000D01*
X1254750Y381000D02*
X1255000Y380750D01*
X1254750Y409000D02*
X1255000Y408750D01*
X1254750Y423000D02*
X1255000Y422750D01*
X1253750Y438000D02*
X1255000Y436750D01*
X1224000Y438000D02*
X1253750D01*
X1224000Y423000D02*
X1254750D01*
X1254250Y394000D02*
X1255000Y394750D01*
X1224000Y409000D02*
X1254750D01*
X1299000Y453000D02*
Y522000D01*
Y429000D02*
Y453000D01*
X1241000Y381000D02*
X1254750D01*
X1232000Y394000D02*
X1254250D01*
X1319960Y521960D02*
X1320000Y522000D01*
X1319960Y484040D02*
X1320000Y484000D01*
X1309000Y474000D02*
Y510000D01*
X1319960Y484040D02*
Y521960D01*
X1029750Y351750D02*
X1030000Y352000D01*
X1361000Y626000D02*
Y641000D01*
X1305000Y555000D02*
X1306000Y554000D01*
X1294000Y555000D02*
X1305000D01*
X1140958Y679958D02*
X1141000Y680000D01*
X1411000Y534000D02*
Y626000D01*
X1361000D02*
X1411000D01*
X1231000Y543000D02*
X1232040Y544040D01*
Y574960D01*
X1225000Y582000D02*
X1232040Y574960D01*
X1225000Y582000D02*
Y589000D01*
X1223350Y623000D02*
X1224000Y622350D01*
X1007000Y1636000D02*
Y1648000D01*
X1007000Y1552500D02*
Y1570500D01*
X991000Y1552500D02*
Y1579500D01*
X1007000Y1592000D02*
Y1604000D01*
X1037000Y1621000D02*
X1039000Y1619000D01*
X1076000Y1590000D02*
Y1600000D01*
Y1590000D02*
X1097500D01*
X1036000Y1620000D02*
X1037000Y1621000D01*
X989000Y1620000D02*
X1036000D01*
X1107000Y1619000D02*
Y1664000D01*
X1007000Y1592000D02*
X1029500D01*
Y1595000D01*
X1049000Y1589000D02*
X1060000D01*
X1049000D02*
Y1595000D01*
X1117000Y1589000D02*
X1132000D01*
X1117000D02*
Y1594000D01*
X1189000Y574000D02*
X1189000Y574000D01*
X1140958Y535042D02*
X1141000Y535000D01*
X1154000Y548000D02*
X1173000D01*
X1154000Y522000D02*
Y548000D01*
X1319000Y1252000D02*
Y1476750D01*
X1058750Y1499000D02*
Y1511210D01*
X1299000Y1526000D02*
X1306000Y1533000D01*
Y1547000D01*
X1208000Y1464000D02*
X1217998D01*
X1218000Y1463998D01*
X1217998Y1464000D02*
X1218000D01*
X1224000Y1470000D01*
X1130000Y1515000D02*
Y1579000D01*
X1006250Y1470750D02*
X1016000D01*
X1005000Y1469500D02*
X1006250Y1470750D01*
X1225000Y1505000D02*
Y1535000D01*
X1210000D02*
X1225000D01*
Y1471000D02*
Y1505000D01*
X1224000Y1470000D02*
X1225000Y1471000D01*
X1234500Y1490500D02*
Y1514000D01*
Y1490500D02*
X1237003Y1487997D01*
X1238997D01*
X1239995Y1487000D01*
X1224000Y1470000D02*
X1237000D01*
X1196000Y1584000D02*
Y1584500D01*
X1234500Y1514000D02*
Y1551000D01*
X1118000Y1505739D02*
X1119000Y1506739D01*
Y1570000D01*
X1058750Y1472000D02*
Y1481500D01*
X1190000Y1343000D02*
Y1408000D01*
X1059500Y1555000D02*
Y1570000D01*
X1007000Y1570500D02*
X1024215D01*
X991000Y1579500D02*
X991040Y1579540D01*
X1027675D01*
X1024215Y1570500D02*
X1024215Y1570500D01*
X1118500D01*
X1119000Y1570000D01*
X1024215Y1570500D02*
X1024256Y1570460D01*
X989000Y1469500D02*
Y1483500D01*
X1034744Y1555000D02*
X1043500D01*
X1028000Y1561000D02*
X1028745D01*
X1034744Y1555000D01*
X1006000Y1497000D02*
Y1511460D01*
X1030000Y1498500D02*
Y1523000D01*
X1072500Y1555000D02*
X1072500Y1555000D01*
X1071000Y1555000D02*
X1072500D01*
X1207000Y1463000D02*
Y1464000D01*
X1243000Y343000D02*
Y344000D01*
Y343000D02*
X1244000Y342000D01*
Y202000D02*
Y342000D01*
X1233000Y219000D02*
Y344000D01*
X1206000Y381000D02*
X1243000Y344000D01*
X1196960Y380040D02*
X1233000Y344000D01*
X1184000Y87000D02*
X1185000Y88000D01*
X1145000Y141000D02*
X1185000Y101000D01*
Y88000D02*
Y101000D01*
X1155000Y155000D02*
X1218000Y92000D01*
X1144000Y155000D02*
X1155000D01*
X1218000Y60000D02*
Y92000D01*
X1058998Y1511458D02*
Y1512497D01*
X868251Y1647500D02*
Y1663251D01*
X873000Y1668000D01*
X899000D01*
X915000D02*
X942000D01*
X948248Y1661752D01*
Y1647500D02*
Y1661752D01*
X868251Y1607749D02*
Y1647500D01*
X868000Y1608000D02*
X868251Y1607749D01*
X928250Y1637750D02*
Y1647500D01*
Y1637750D02*
X954000Y1612000D01*
Y1604000D02*
Y1612000D01*
X908252Y1634748D02*
Y1647500D01*
Y1634748D02*
X932000Y1611000D01*
Y1604000D02*
Y1611000D01*
X1058750Y1648000D02*
Y1688750D01*
X727000Y1668000D02*
X752000D01*
X721000Y1662000D02*
X727000Y1668000D01*
X721000Y1647750D02*
Y1662000D01*
X720750Y1647500D02*
X721000Y1647750D01*
X768000Y1668000D02*
X793000D01*
X800747Y1660253D01*
Y1647500D02*
Y1660253D01*
X760751Y1632249D02*
Y1647500D01*
Y1632249D02*
X762000Y1631000D01*
X779000D01*
X780749Y1640251D02*
Y1647500D01*
Y1640251D02*
X787000Y1634000D01*
X799000D01*
X780750Y1622000D02*
Y1629250D01*
X779000Y1631000D02*
X780750Y1629250D01*
X799000Y1634000D02*
X800000Y1633000D01*
Y1622000D02*
Y1633000D01*
X720000Y1646750D02*
X720750Y1647500D01*
X720000Y1603000D02*
Y1646750D01*
X633750Y1555000D02*
X648000D01*
X648000Y1555000D01*
X574000Y1422000D02*
Y1523000D01*
X393750Y1546750D02*
X395500Y1545000D01*
X393750Y1546750D02*
X393750Y1546750D01*
X393750Y1546750D02*
Y1553000D01*
Y1566750D01*
X445751Y1647500D02*
X446000Y1647251D01*
X466000Y1554000D02*
X466250D01*
Y1550500D02*
Y1554000D01*
Y1573000D01*
Y1554000D02*
X481000D01*
X278000Y1566500D02*
Y1584000D01*
X278000Y1551500D02*
Y1566500D01*
X278000Y1566500D01*
X280750Y1647500D02*
X281000Y1647250D01*
X247000Y1585000D02*
Y1590000D01*
X226000Y1534000D02*
Y1550000D01*
X218250D02*
X226000D01*
X218000Y1550250D02*
X218250Y1550000D01*
X187000D02*
X187250Y1550250D01*
X202000D01*
X248500Y1566500D02*
X262000D01*
X248000Y1567000D02*
X248500Y1566500D01*
X260500Y1550000D02*
X262000Y1551500D01*
X248000Y1550000D02*
X260500D01*
X366250Y1546750D02*
X377750D01*
X366000Y1547000D02*
X366250Y1546750D01*
X278000Y1542000D02*
Y1551500D01*
X426960Y1625960D02*
X427000Y1626000D01*
X446000Y1625000D02*
Y1647251D01*
X457000Y1626000D02*
X466000D01*
X466250Y1625750D01*
Y1573000D02*
Y1625750D01*
X297500Y1647500D02*
X300748D01*
X280000Y1600000D02*
Y1624864D01*
X281000Y1641000D02*
Y1647250D01*
X272000Y1632000D02*
X281000Y1641000D01*
X97000Y1461250D02*
Y1490000D01*
X100000Y1493000D01*
X136000D01*
X94500Y1326250D02*
Y1359500D01*
X98000Y1363000D01*
X134000D01*
X435000Y1541000D02*
Y1553000D01*
X436000Y1554000D01*
X450000D01*
X393750Y1566750D02*
X424750D01*
X426960Y1568960D01*
Y1625960D01*
X418000Y976000D02*
Y1047000D01*
X1131000Y548000D02*
Y696000D01*
X1151000Y575000D02*
X1173000D01*
X1140958Y535042D02*
Y679958D01*
X1149998Y559999D02*
X1149999D01*
X975000Y413000D02*
Y434000D01*
X1426750Y451000D02*
X1427500Y451750D01*
X1409000Y451000D02*
X1426750D01*
X1409000D02*
Y489000D01*
X1424386D01*
X1260000Y820000D02*
X1271000D01*
X1244000Y808000D02*
Y820000D01*
X1241998Y860998D02*
X1244000Y858996D01*
X1254215Y785000D02*
X1280000D01*
X1154000Y522000D02*
X1196960D01*
Y380040D02*
Y522000D01*
X1206000Y381000D02*
Y534000D01*
X1188000D02*
X1206000D01*
X1207000D01*
X1206000D02*
Y535000D01*
X985000Y423000D02*
Y444000D01*
X911000Y1018000D02*
X921000D01*
X881000Y355000D02*
Y403500D01*
X881000Y403500D02*
X881000Y403500D01*
X865000Y355000D02*
Y442000D01*
X867000Y491000D02*
Y532215D01*
X867040Y532256D01*
X867000Y548000D02*
X867040Y547960D01*
Y532256D02*
Y547960D01*
X858000Y445000D02*
Y536000D01*
Y445000D02*
X859000Y444000D01*
X863000D01*
X864000Y443000D01*
X865000Y442000D01*
X881000Y403500D02*
X881960Y404460D01*
X867000Y491000D02*
X882000Y476000D01*
X921000Y645781D02*
X921040Y645741D01*
X921000Y478040D02*
X921040Y478080D01*
Y645741D01*
X921000Y645781D02*
Y1018000D01*
X1228000Y811216D02*
X1254215Y785000D01*
X1228000Y811216D02*
Y932000D01*
X1227000Y933000D02*
X1228000Y932000D01*
X585999Y1260997D02*
Y1271999D01*
X588000Y1274000D01*
X598999Y1273999D02*
X599000Y1274000D01*
X588000D02*
X599000D01*
X615000Y1261000D02*
Y1274000D01*
X599000D02*
X615000D01*
X724000Y1262000D02*
Y1274000D01*
X663000D02*
X724000D01*
X771000D01*
X756000Y1255000D02*
X771000D01*
Y1274000D01*
X799000D01*
X527000Y1257000D02*
X551000D01*
X518000Y1266000D02*
X527000Y1257000D01*
X551000Y1185000D02*
Y1257000D01*
X552000Y1078000D02*
X566000D01*
X551000Y1079000D02*
X552000Y1078000D01*
X662999Y1260997D02*
Y1273999D01*
X615000Y1274000D02*
X663000D01*
X662999Y1273999D02*
X663000Y1274000D01*
X769000Y1059000D02*
X771000Y1061000D01*
X551000Y1059000D02*
X684000D01*
X551000D02*
Y1079000D01*
X760000Y1044000D02*
Y1058000D01*
X759000Y1059000D02*
X760000Y1058000D01*
X684000Y1059000D02*
X759000D01*
X769000D01*
X771000Y1064000D02*
X778000D01*
X771000Y1061000D02*
Y1064000D01*
Y1139998D01*
X755999Y1140998D02*
X770000D01*
X771000Y1139998D01*
X754998Y1189998D02*
X770998D01*
X771000Y1190000D01*
Y1139998D02*
Y1190000D01*
Y1255000D01*
X602000Y1257000D02*
Y1270998D01*
X551000Y1185000D02*
X577500D01*
X578000Y1185500D01*
X719000Y1104000D02*
X727500D01*
X716000Y1101000D02*
X719000Y1104000D01*
X727500D02*
Y1118000D01*
Y1132000D01*
X727500Y1132000D01*
Y1148000D01*
Y1168000D01*
Y1189000D01*
Y1203000D01*
X727500Y1203000D02*
Y1217000D01*
Y1231000D01*
X727000Y1248000D02*
X727500Y1247500D01*
X711000Y1235000D02*
X725500D01*
X727500Y1237000D01*
Y1231000D02*
Y1237000D01*
Y1247500D01*
X629000Y1061000D02*
X629999Y1061999D01*
Y1072998D01*
X684000Y1059000D02*
X686000Y1061000D01*
X685000Y1062000D02*
X686000Y1061000D01*
X685000Y1062000D02*
Y1081500D01*
X551000Y1130000D02*
X551960Y1129040D01*
X577960D01*
X551000Y1079000D02*
Y1130000D01*
Y1185000D01*
X436000Y1581000D02*
Y1615000D01*
X446000Y1625000D01*
X247000Y1590000D02*
X251000Y1594000D01*
Y1632000D01*
X272000D01*
X23000Y1143000D02*
Y1201000D01*
X31000Y1209000D01*
X1329000Y1187000D02*
X1330000Y1188000D01*
X1329000Y1130000D02*
Y1187000D01*
X1234500Y1551000D02*
Y1571500D01*
X1238000Y1575000D01*
X1270000D01*
X1196000Y1605500D02*
X1220000D01*
X1415000Y997000D02*
Y998000D01*
X1421000Y1004000D01*
X1405750Y1163000D02*
X1409000D01*
X1409750Y1167000D02*
X1426000D01*
X1392000Y1164000D02*
X1406750D01*
X1408000D01*
X1405750Y1163000D02*
X1406750Y1164000D01*
X1409000Y1166250D01*
X1409750Y1167000D01*
X985000Y423000D02*
X985001Y422999D01*
X1014998D01*
X54000Y1227000D02*
X54040Y1226960D01*
Y1196040D02*
Y1226960D01*
X1076000Y1632000D02*
Y1648000D01*
X1007000D02*
X1038752D01*
X1395000Y1199000D02*
Y1215000D01*
X1390000Y1199000D02*
X1395000D01*
X1407250D01*
X156000Y1479000D02*
X168000D01*
X882000Y433000D02*
Y476000D01*
X881960Y432960D02*
X882000Y433000D01*
X881960Y404460D02*
Y432960D01*
X1288500Y442250D02*
Y509500D01*
X38000Y1128000D02*
X57000D01*
X193000Y1389000D02*
Y1432000D01*
X393750Y1553000D02*
X405000D01*
X1271000Y407000D02*
X1272000Y408000D01*
X1217000Y808000D02*
Y1024000D01*
X988000Y1426000D02*
Y1439000D01*
X1059500Y1555000D02*
X1072500D01*
X1207000Y1463000D02*
X1208000Y1464000D01*
X1353000Y1515000D02*
X1388000D01*
X975000Y85500D02*
Y144000D01*
X822500Y261500D02*
X836500D01*
X850500D02*
X865500D01*
X879000Y279000D02*
X879998Y279998D01*
X891500Y261500D02*
X893000Y263000D01*
X1095000Y190000D02*
X1097000Y192000D01*
X1096500Y206000D02*
Y206500D01*
X1196000Y1584000D02*
X1197500Y1585500D01*
X1426000Y1016000D02*
X1429000Y1019000D01*
X1040000Y1536500D02*
X1041000Y1535500D01*
X1460000Y1012000D02*
X1465000D01*
X297500Y1647500D02*
X302000Y1643000D01*
X993000Y155000D02*
X1021000D01*
X1184000Y60000D02*
X1218000D01*
X51000Y957000D02*
X68000D01*
X952750Y351750D02*
X1029750D01*
X1206000Y535000D02*
X1207000Y534000D01*
X1361000Y611000D02*
Y626000D01*
X987000Y1500000D02*
X990000Y1497000D01*
X1027000Y1579000D02*
X1130000D01*
D59*
X206000Y1037000D02*
Y1050000D01*
X271000Y1027000D02*
Y1074000D01*
X258000Y976000D02*
Y1233000D01*
X289000Y842000D02*
Y1431000D01*
X280000Y1213784D02*
Y1414000D01*
Y1213784D02*
X280040Y1213745D01*
Y1195040D02*
Y1213745D01*
X258000Y1233000D02*
X261000Y1236000D01*
X258000Y1233000D02*
X258000D01*
X177000Y1171000D02*
Y1223000D01*
X163000Y1179000D02*
Y1250000D01*
X204500Y1051500D02*
X206000Y1050000D01*
X204000Y1068000D02*
X204500Y1067500D01*
X204000Y1068000D02*
Y1079000D01*
X229500Y1067500D02*
X230000Y1068000D01*
X204500Y1067500D02*
X229500D01*
X158000Y568000D02*
X172960Y582960D01*
X196000Y1451000D02*
Y1458000D01*
X602000Y1397000D02*
Y1536000D01*
X560996Y1358004D02*
Y1406000D01*
X548000Y1358000D02*
Y1397000D01*
X560996Y1358004D02*
X561000Y1358000D01*
X448000Y1414000D02*
Y1552000D01*
X450000Y1554000D01*
X735000Y1337000D02*
Y1379000D01*
X887500Y1379500D02*
Y1470500D01*
X888000Y1471000D01*
X1040500Y1369500D02*
Y1406000D01*
X1041000Y1406500D01*
X1041250Y1458000D02*
Y1466000D01*
X1143000Y1495000D02*
X1144000Y1494000D01*
X970000Y1471000D02*
Y1605000D01*
Y1471000D02*
X987500D01*
X989000Y1469500D01*
X967000Y1414000D02*
Y1458000D01*
X1041250Y1466000D02*
X1042750Y1467500D01*
X1159000Y1606000D02*
X1160000Y1605000D01*
X1178000D01*
X1160000Y1296000D02*
X1160250Y1295750D01*
X1190250D01*
X1098000Y413000D02*
Y483000D01*
X1080999Y449999D02*
X1081040Y450040D01*
X1088998Y478998D02*
X1090000Y480000D01*
X1061000Y520000D02*
X1098000Y483000D01*
X1061000Y1171630D02*
X1061040Y1171670D01*
Y1187960D01*
X1053000Y517000D02*
X1090000Y480000D01*
X1043000Y1152370D02*
Y1162000D01*
Y1152370D02*
X1043040Y1152330D01*
Y1145670D02*
Y1152330D01*
X1043000Y1145630D02*
X1043040Y1145670D01*
X1035040Y511960D02*
X1073000Y474000D01*
X1043000Y514000D02*
X1081040Y475960D01*
Y450040D02*
Y475960D01*
X1073000Y459000D02*
Y474000D01*
X1035000Y1139370D02*
Y1149000D01*
X1027000Y504000D02*
X1064000Y467000D01*
X1000000Y1085370D02*
Y1095000D01*
Y1085370D02*
X1000040Y1085330D01*
Y946071D02*
Y1085330D01*
X1230000Y489000D02*
X1231000Y490000D01*
X1230000Y464000D02*
Y489000D01*
Y491000D02*
X1231000Y490000D01*
X1230000Y463000D02*
Y464000D01*
X1220000Y452000D02*
Y500000D01*
X984040Y500040D02*
Y1070960D01*
X974958Y1056958D02*
X975000Y1057000D01*
X984000Y1071000D02*
X984040Y1070960D01*
X1032000Y229000D02*
Y230000D01*
X1015000Y212000D02*
X1032000Y229000D01*
X963000Y212000D02*
X1015000D01*
X957000Y206000D02*
X963000Y212000D01*
X957000Y197000D02*
Y206000D01*
X1065000Y205000D02*
X1079000D01*
X1065000Y37000D02*
Y205000D01*
X1073000Y8000D02*
Y33630D01*
Y40370D02*
X1073040Y40330D01*
Y33670D02*
Y40330D01*
X1073000Y33630D02*
X1073040Y33670D01*
X1079500Y165500D02*
X1079500D01*
Y178000D01*
X1033960Y45080D02*
Y146330D01*
Y45080D02*
X1034040Y45000D01*
Y146410D02*
Y171000D01*
X1033960Y146330D02*
X1034040Y146410D01*
X1079000Y192000D02*
X1079500Y191500D01*
Y178000D02*
Y191500D01*
X1073000Y40370D02*
Y84000D01*
X1074000Y85000D01*
X946000Y102000D02*
X955000D01*
X946000D02*
Y220000D01*
X955000Y85500D02*
Y102000D01*
X878040Y219960D02*
X920000D01*
X904000Y211000D02*
X911000D01*
X920000Y219960D02*
Y245000D01*
X878000Y200000D02*
Y220000D01*
Y200000D02*
X883000Y195000D01*
X904000Y171000D02*
Y211000D01*
X879000Y236000D02*
X892000D01*
X879000D02*
Y246000D01*
X892000Y236000D02*
X901000D01*
Y228000D02*
Y236000D01*
X878000Y220000D02*
X878040Y219960D01*
X892000Y236000D02*
Y247000D01*
X906500Y246000D02*
X919000D01*
X874630Y228000D02*
X879000Y232370D01*
Y235500D01*
X871580Y228000D02*
X874630D01*
X871540Y228040D02*
X871580Y228000D01*
X865040Y228040D02*
X871540D01*
X865000Y228000D02*
X865040Y228040D01*
X878500Y246000D02*
Y246000D01*
X856499Y236000D02*
X857999D01*
X855998D02*
X856499D01*
X857999D02*
X858000Y236000D01*
X856499Y236000D02*
X857000Y236500D01*
X863500D01*
X864000Y237000D02*
Y246000D01*
X863500Y236500D02*
X864000Y237000D01*
X850500Y236500D02*
Y246000D01*
X829000Y236500D02*
X835500D01*
X822500D02*
X829000D01*
X828000Y235000D02*
X829000Y236000D01*
Y236500D01*
X836000Y237000D02*
Y247000D01*
X835500Y236500D02*
X836000Y237000D01*
X822500Y236500D02*
Y246000D01*
X850000Y28000D02*
Y152000D01*
X1009000Y174000D02*
Y183000D01*
X998000Y171000D02*
X1006000D01*
X1009000D02*
X1034000D01*
X1034040D01*
X915000Y123000D02*
Y143000D01*
X839000Y9000D02*
Y86000D01*
X1104000Y87000D02*
X1105000Y86000D01*
X1104000Y87000D02*
Y132000D01*
X895000Y133000D02*
X895000Y133000D01*
X1125000Y87000D02*
Y122000D01*
X1145000Y87000D02*
Y111000D01*
X935000Y85500D02*
Y111000D01*
X1165000Y90000D02*
Y102000D01*
Y90000D02*
X1166000Y89000D01*
X1165000Y88000D02*
X1166000Y89000D01*
X1165000Y88000D02*
X1166000Y87000D01*
X875000Y19000D02*
Y60500D01*
X863000Y61000D02*
X874000D01*
X863000D02*
Y152000D01*
X1085000Y19000D02*
Y58000D01*
X1086000Y59000D01*
X1085000Y60000D02*
X1086000Y59000D01*
X1105000Y28000D02*
Y60000D01*
X895000Y28000D02*
X895000Y28000D01*
Y60500D01*
X1125000Y37000D02*
Y58000D01*
X1126000Y59000D01*
X915000Y38000D02*
Y60496D01*
X914998Y60498D02*
X915000Y60496D01*
X914998Y60498D02*
X915000Y60500D01*
X1145000Y45000D02*
Y60000D01*
X935000Y45000D02*
Y60500D01*
X997500Y171500D02*
X998000Y171000D01*
X992000Y154000D02*
X993000Y155000D01*
X999000Y233000D02*
Y240000D01*
X995000Y229000D02*
X999000Y233000D01*
X985000Y229000D02*
X995000D01*
X989500Y171500D02*
X997500D01*
X1184000Y87000D02*
X1185000Y86000D01*
X974998Y143000D02*
Y143998D01*
X975000Y144000D01*
X989000Y186000D02*
Y197000D01*
X973000D02*
X973500Y196500D01*
Y186000D02*
Y196500D01*
X973000Y158000D02*
X973500Y157500D01*
X990000Y156000D02*
X992000Y154000D01*
X1125000Y60000D02*
X1126000Y59000D01*
X499000Y869000D02*
Y915000D01*
X1307000Y269000D02*
X1316000D01*
X1321000Y264000D01*
X1309250Y244000D02*
X1333000D01*
X1306500Y241250D02*
X1309250Y244000D01*
X1306000Y241750D02*
Y255000D01*
Y241750D02*
X1306500Y241250D01*
X1333500Y221250D02*
Y234500D01*
X1306500Y269000D02*
Y282500D01*
Y255000D02*
Y268500D01*
X1276000Y629000D02*
X1286000D01*
X1276000Y626000D02*
Y629000D01*
Y574000D02*
Y626000D01*
X1286000Y602000D02*
Y613000D01*
X1296960Y594955D02*
Y605330D01*
X1297000Y605370D01*
X1322000Y554000D02*
X1323000Y555000D01*
X1340000D01*
X1297000Y594000D02*
X1297915D01*
X1306000Y554000D02*
Y568000D01*
Y602999D02*
Y632000D01*
X1296000Y668000D02*
X1297000Y667000D01*
X988000Y1409000D02*
Y1410000D01*
X1208000Y1392000D02*
X1234000D01*
X205000Y1433000D02*
X205000Y1433000D01*
X205000Y1433000D02*
Y1433997D01*
X194000Y1449000D02*
X196000Y1451000D01*
X1321000Y264000D02*
X1332000D01*
X1351000Y233000D02*
X1362000D01*
X1362997Y218003D02*
X1363000Y218000D01*
X1362997Y218003D02*
Y221000D01*
X1362000Y233000D02*
Y239000D01*
X1268998Y238000D02*
X1288000D01*
X1287000Y252000D02*
X1290000Y255000D01*
X1270000Y261000D02*
X1276000Y267000D01*
X1289000D01*
X1290000Y268000D01*
X1269000Y278000D02*
X1273000Y282000D01*
X1290000D01*
X1467000Y357000D02*
Y392000D01*
X1452000Y346000D02*
Y371000D01*
Y474000D02*
Y503000D01*
Y474000D02*
X1453000Y473000D01*
X1329000Y399000D02*
Y495000D01*
Y360000D02*
X1339000D01*
Y409000D01*
X1306000Y568000D02*
Y582000D01*
Y602000D01*
X1389000Y594002D02*
X1393997Y598999D01*
X1389000Y582000D02*
Y594002D01*
X1388000Y581000D02*
X1389000Y582000D01*
X1380000Y581000D02*
X1388000D01*
X1322000Y568000D02*
X1343630D01*
X1344670Y569040D01*
X1362960D01*
X1347901Y595903D02*
Y717901D01*
X1347802Y718000D02*
X1347901Y717901D01*
X1297000Y718000D02*
X1347802D01*
X1178000Y1562000D02*
Y1605000D01*
X1205998Y1522997D02*
X1209500Y1526499D01*
Y1535000D01*
X1191998Y1569998D02*
X1192000Y1570000D01*
X1192040Y1554670D02*
Y1562880D01*
X1191998Y1562922D02*
X1192040Y1562880D01*
X1191998Y1562922D02*
Y1569998D01*
X1058750Y1467500D02*
Y1472000D01*
X1062250Y1468500D02*
X1067000D01*
X1030000Y1485500D02*
X1033000Y1482500D01*
X1041750D01*
X1042750Y1481500D01*
X1200000Y1391000D02*
X1201000Y1392000D01*
X1200000Y1375000D02*
Y1391000D01*
X1201000Y1392000D02*
X1208000D01*
X1267000Y1523000D02*
X1267040Y1522960D01*
X1273630Y1422000D02*
X1273670Y1422040D01*
X1266997Y1435997D02*
X1267040Y1436040D01*
X1265000Y1422000D02*
X1273630D01*
X1229960Y1248670D02*
X1230000Y1248630D01*
Y1210000D02*
Y1248630D01*
X987500Y1468000D02*
X989000Y1469500D01*
X1029960Y1547000D02*
X1030000Y1546960D01*
Y1537040D02*
Y1546960D01*
Y1537040D02*
X1030540Y1536500D01*
X1040000D01*
X1042000D01*
X1018998Y1498002D02*
Y1535997D01*
Y1498002D02*
X1019000Y1498000D01*
X981500Y1535500D02*
X991000D01*
X981000Y1529000D02*
Y1535000D01*
X981500Y1535500D01*
X970000Y1605000D02*
X988000D01*
X1176032Y1548000D02*
X1179000D01*
X1179960Y1547040D01*
X1186000Y1493989D02*
X1186011D01*
X1177960Y1497319D02*
X1179960Y1499320D01*
Y1547040D01*
X1177960Y1486670D02*
Y1497319D01*
Y1486670D02*
X1185000Y1479630D01*
Y1476000D02*
Y1479630D01*
X1260997Y1435997D02*
X1266997D01*
X1267040Y1436040D02*
Y1522960D01*
X1273670Y1422040D02*
X1279000D01*
Y1552000D01*
X1245000D02*
X1279000D01*
X1229960Y1248670D02*
Y1361960D01*
X1224000Y1320000D02*
Y1364000D01*
X1206000Y1320000D02*
X1224000D01*
X1194000Y1466000D02*
Y1490619D01*
X1194040Y1490659D01*
Y1497319D01*
X1194000Y1497359D02*
X1194040Y1497319D01*
X1185960Y1494029D02*
X1186000Y1493989D01*
X1185960Y1494029D02*
Y1548590D01*
X1194000Y1497359D02*
Y1538000D01*
X1185960Y1548590D02*
X1192040Y1554670D01*
X1143000Y1391000D02*
X1177000D01*
X1143000Y1391000D02*
X1143000Y1391000D01*
X1143000Y1358000D02*
Y1391000D01*
Y1393000D01*
X1025000Y1406500D02*
X1041000D01*
Y1413000D01*
X1023000Y1387000D02*
X1025000Y1389000D01*
X1023000Y1387000D02*
X1024000Y1386000D01*
Y1377000D02*
Y1386000D01*
X1052000Y1377000D02*
Y1416000D01*
X1257998Y251999D02*
X1257998Y252000D01*
X1214960Y242040D02*
X1215957D01*
X1257998Y252000D02*
X1287000D01*
X1266998Y236000D02*
X1268998Y238000D01*
X1214960Y243037D02*
X1215957Y242040D01*
X1214960D02*
Y243037D01*
Y244000D01*
X1223000Y261000D02*
Y343000D01*
X1214960Y244000D02*
Y343969D01*
X1197000Y252000D02*
Y347000D01*
X1206000Y236000D02*
Y345071D01*
X1088998Y440999D02*
Y478998D01*
X1079998Y449999D02*
X1080999D01*
X1187000Y466000D02*
X1187040Y465960D01*
Y378960D02*
Y465960D01*
Y378960D02*
X1223000Y343000D01*
X1105000Y1483000D02*
X1105040Y1482960D01*
X1067000Y1468500D02*
X1070000Y1471500D01*
Y1500000D02*
X1071000D01*
X1070000D02*
Y1532000D01*
X1080000Y1490000D02*
Y1543000D01*
X1149500Y450500D02*
X1151960Y448040D01*
Y384969D02*
Y448040D01*
X1159960Y384040D02*
Y440960D01*
X1168000Y383071D02*
Y414000D01*
X1178960Y379969D02*
Y458960D01*
Y379969D02*
X1214960Y343969D01*
X1151960Y384969D02*
X1188000Y348929D01*
Y227000D02*
Y348929D01*
X1159960Y384040D02*
X1197000Y347000D01*
X1168000Y383071D02*
X1206000Y345071D01*
X1178960Y458960D02*
X1179000Y459000D01*
X1159960Y440960D02*
X1160000Y441000D01*
X1141460Y388398D02*
Y454540D01*
X1177000Y339000D02*
Y352858D01*
X1141460Y388398D02*
X1177000Y352858D01*
X1269000Y278000D02*
Y339000D01*
X811000Y1442000D02*
Y1456000D01*
X992040Y491040D02*
Y1082000D01*
X1068960Y715330D02*
X1069998Y716368D01*
X1068960Y527040D02*
X1141460Y454540D01*
X1068998Y1229998D02*
X1069998Y716368D01*
X1105040Y1389040D02*
Y1482960D01*
X1097000Y1327000D02*
Y1381000D01*
X1105040Y1389040D01*
X1092000Y1331000D02*
Y1385929D01*
X1097000Y1390929D01*
Y1458000D01*
X1088960Y1469960D02*
X1089000Y1470000D01*
X1088960Y1454670D02*
Y1469960D01*
Y1454670D02*
X1089000Y1454630D01*
Y1390000D02*
Y1454630D01*
X1085000Y1386000D02*
X1089000Y1390000D01*
X707000Y1339000D02*
Y1422000D01*
X721040Y1337040D02*
Y1370960D01*
X721000Y1337000D02*
X721040Y1337040D01*
X721000Y1336000D02*
Y1337000D01*
X748000Y1430957D02*
X748250Y1430707D01*
Y1338000D02*
Y1430707D01*
X1075000Y1379000D02*
Y1427000D01*
X696000Y1361000D02*
Y1414000D01*
X248000Y1515000D02*
Y1550000D01*
X435000Y1514000D02*
Y1541000D01*
X1033000Y1312000D02*
X1067000Y1346000D01*
X1076000D01*
X1042000Y1297000D02*
X1043000D01*
X1085000Y1340000D02*
Y1386000D01*
X1059998Y1200998D02*
Y1289998D01*
X1050998Y1242998D02*
Y1289998D01*
X1061002Y1187998D02*
X1061040Y1187960D01*
X1059998Y1187998D02*
X1061002D01*
X1059998Y1289998D02*
X1097000Y1327000D01*
X1050998Y1289998D02*
X1092000Y1331000D01*
X1078000Y1232000D02*
X1078038Y1231962D01*
X1078000Y1227629D02*
Y1232000D01*
X1078038Y713038D02*
Y1231962D01*
X82000Y1153100D02*
X82100Y1153000D01*
X103000D01*
X125000Y826000D02*
Y1097000D01*
X103000Y1153000D02*
X104000Y1152000D01*
Y1019000D02*
Y1152000D01*
X1297000Y605370D02*
Y667000D01*
X1068960Y527040D02*
Y715330D01*
X1061000Y520000D02*
Y1171630D01*
X1053000Y517000D02*
Y1175000D01*
X1000000Y946031D02*
X1000040Y946071D01*
X1043000Y514000D02*
Y1145630D01*
X1035000Y1139370D02*
X1035040Y1139330D01*
Y511960D02*
Y1139330D01*
X1027000Y504000D02*
Y628630D01*
X1027040Y628670D01*
Y635330D01*
X1027000Y635370D02*
X1027040Y635330D01*
X1203000Y623000D02*
X1207000Y619000D01*
Y612000D02*
Y619000D01*
X178000Y1110000D02*
Y1138000D01*
X406000Y1121000D02*
X407000Y1122000D01*
X406000Y1004000D02*
Y1121000D01*
X156000Y1112000D02*
X157000Y1113000D01*
Y1209000D01*
X1077998Y712998D02*
X1078038Y713038D01*
X1077998Y710999D02*
Y712998D01*
X620000Y1298000D02*
Y1350000D01*
X1027000Y635370D02*
Y851630D01*
X1168500Y623000D02*
X1203000D01*
X1352000Y359000D02*
Y402000D01*
X1378000Y350000D02*
Y428000D01*
X1380997Y446999D02*
X1381040Y447042D01*
Y494000D01*
X1378000Y350000D02*
X1380000D01*
X1390000Y357000D02*
Y464000D01*
X1408750Y411750D02*
X1427500D01*
X1408000Y411000D02*
X1408750Y411750D01*
X1408000Y336000D02*
Y411000D01*
X1187000Y466000D02*
Y467000D01*
X992000Y491000D02*
X992040Y491040D01*
X984000Y500000D02*
X984040Y500040D01*
X1224000Y1364000D02*
X1244000Y1384000D01*
Y1416000D01*
X1219000Y1441000D02*
X1244000Y1416000D01*
X1229960Y1361960D02*
X1250000Y1382000D01*
Y1417071D01*
X1241000Y1426071D02*
X1250000Y1417071D01*
X1241000Y1426071D02*
Y1436000D01*
X1144000Y1434000D02*
Y1494000D01*
X1179000Y1455000D02*
Y1465000D01*
Y1455000D02*
X1193000Y1441000D01*
X1219000D01*
X911000Y1031000D02*
X930000D01*
X1161998Y629502D02*
X1168500Y623000D01*
X1161998Y629502D02*
Y650999D01*
X898000Y829000D02*
Y906000D01*
X1018000Y650084D02*
Y652000D01*
X1027000Y1136000D02*
X1027040Y1135960D01*
X1027000Y851630D02*
X1027040Y851670D01*
X1018000Y652000D02*
X1019000Y653000D01*
X1027040Y851670D02*
Y1135960D01*
X1019000Y653000D02*
Y897000D01*
X1142000Y752000D02*
Y828000D01*
Y752000D02*
X1240000D01*
X942000Y605000D02*
Y1342000D01*
X930000Y464000D02*
Y1031000D01*
X730000Y912000D02*
Y947000D01*
X717000Y913000D02*
Y947000D01*
Y913000D02*
X772655Y857345D01*
X857655D01*
X911998Y803002D01*
Y641999D02*
Y803002D01*
X1078000Y1232000D02*
Y1284000D01*
X743500Y1189000D02*
X744500Y1188000D01*
X711000Y1252000D02*
Y1261000D01*
X723000D02*
X724000Y1262000D01*
X711000Y1261000D02*
X723000D01*
X588000Y1251000D02*
X589000Y1252000D01*
X585999Y1255001D02*
Y1260997D01*
Y1255001D02*
X589000Y1252000D01*
X615000Y1252000D02*
Y1261000D01*
Y1252000D02*
X616000Y1251000D01*
X573000Y1252000D02*
X574000Y1251000D01*
X573000Y1252000D02*
Y1261000D01*
X566000Y1078000D02*
X577000D01*
X578000Y1077000D01*
X684000Y1082500D02*
X684500Y1083000D01*
X746000Y1248000D02*
X756000D01*
Y1255000D01*
X620000Y1350000D02*
X676000D01*
X662999Y1252750D02*
Y1260997D01*
X804000Y1079000D02*
X813000D01*
X824000Y931000D02*
X828000Y935000D01*
Y1064000D01*
X813000Y1079000D02*
X828000Y1064000D01*
X752498Y1140998D02*
X755999D01*
X743500Y1132000D02*
X752498Y1140998D01*
X717000Y1133000D02*
X726500D01*
X727500Y1132000D01*
X744500Y1188000D02*
X746498Y1189998D01*
X754998D01*
X717000Y1181000D02*
Y1189000D01*
X727500D01*
X735370Y1262000D02*
X743000D01*
X744000Y1261000D01*
X670000Y1227000D02*
X674000Y1223000D01*
X670000Y1227000D02*
Y1235000D01*
X668250Y1252750D02*
X670000Y1251000D01*
X662999Y1252750D02*
X668250D01*
X602000Y1251000D02*
Y1257000D01*
X610000Y1223000D02*
X617000D01*
X602000Y1235000D02*
X616000D01*
X588000D02*
X602000D01*
X574000D02*
X588000D01*
X574000Y1235000D02*
X574000Y1235000D01*
X617000Y1223000D02*
Y1234000D01*
X616000Y1235000D02*
X617000Y1234000D01*
X599000Y1290000D02*
Y1326000D01*
X674000Y1290000D02*
Y1327000D01*
X576500Y1187000D02*
X578000Y1185500D01*
X605000Y1194000D02*
Y1201000D01*
X594000Y1199500D02*
X595500Y1201000D01*
X605000D01*
X588000Y1227000D02*
Y1235000D01*
Y1227000D02*
X594000Y1221000D01*
Y1214000D02*
Y1221000D01*
Y1199500D02*
Y1214000D01*
Y1185500D02*
Y1199500D01*
X594000Y1185500D02*
X594000Y1185500D01*
X594000Y1171500D02*
Y1185500D01*
Y1171500D02*
X594000Y1171500D01*
Y1157000D02*
Y1171500D01*
Y1143000D02*
Y1157000D01*
Y1129000D02*
Y1143000D01*
X594000Y1129000D02*
X594000Y1129000D01*
X594000Y1115000D02*
Y1129000D01*
Y1115000D02*
X594000Y1115000D01*
Y1109000D02*
Y1115000D01*
Y1109000D02*
X600000Y1103000D01*
Y1093000D02*
Y1103000D01*
Y1077000D02*
Y1093000D01*
X600000Y1077000D02*
X600000Y1077000D01*
X594000Y1077000D02*
X600000D01*
X628500Y1099000D02*
X628500Y1099000D01*
X643000D01*
X643000Y1099000D01*
X657000D01*
X670000D01*
X684500D01*
X684500Y1099000D02*
X699000D01*
X699000Y1099000D01*
X727500Y1203000D02*
X727500Y1203000D01*
X727000Y1248000D02*
X729000Y1250000D01*
Y1255630D01*
X735370Y1262000D01*
X628500Y1083000D02*
X629999Y1081501D01*
Y1072998D02*
Y1081501D01*
X600000Y1093000D02*
X615999D01*
Y1098999D01*
X616000Y1099000D02*
X628500D01*
X685000Y1081500D02*
Y1083000D01*
X577960Y1129040D02*
X578000Y1129000D01*
Y1127120D02*
Y1129000D01*
X1258000Y1450000D02*
X1259000Y1449000D01*
X1258000Y1450000D02*
Y1456630D01*
X1258040Y1456670D01*
Y1520883D01*
X1258000Y1520923D02*
Y1537000D01*
Y1520923D02*
X1258040Y1520883D01*
X1000000Y515000D02*
X1084000Y431000D01*
X974958Y480042D02*
Y1056958D01*
Y480042D02*
X977000Y478000D01*
X1084000Y423000D02*
Y431000D01*
X1000000Y515000D02*
Y946031D01*
X977000Y478000D02*
X1003630D01*
X1029000Y464000D02*
X1131001Y361999D01*
X1329998Y348000D02*
X1341000D01*
X1352000Y359000D01*
X1133630Y348000D02*
X1167000D01*
X1003630Y478000D02*
X1133630Y348000D01*
X1131001Y361999D02*
X1131002Y362000D01*
X1132001Y361000D01*
X1155000D01*
X252960Y1244960D02*
X257000Y1249000D01*
X252960Y973040D02*
Y1244960D01*
Y973040D02*
X257000Y969000D01*
X258000Y976000D02*
X264000Y970000D01*
X172960Y582960D02*
Y891960D01*
X189000Y908000D01*
X241000D01*
X257000Y924000D01*
Y969000D01*
X264000Y922000D02*
Y970000D01*
X243000Y901000D02*
X264000Y922000D01*
X181000Y615000D02*
Y887000D01*
X195000Y901000D01*
X243000D01*
X255000Y628000D02*
Y661000D01*
X419000D01*
Y712000D01*
X289000Y842000D02*
X419000Y712000D01*
X935000Y111000D02*
Y229000D01*
X875000Y86000D02*
Y152000D01*
X895000Y85500D02*
Y133000D01*
X915000Y85500D02*
Y122000D01*
X937000Y1406000D02*
Y1430000D01*
X936000Y1431000D02*
X937000Y1430000D01*
X988000Y1384000D02*
Y1409000D01*
X987000Y1383000D02*
X988000Y1384000D01*
X939000Y1383000D02*
X987000D01*
X1240000Y656000D02*
Y752000D01*
X731000Y976500D02*
Y987000D01*
X731000Y976500D02*
X731000Y976500D01*
X194000Y1433000D02*
X205000D01*
X1306000Y226000D02*
Y241750D01*
Y269000D02*
X1306500Y268500D01*
X1306000Y283000D02*
X1306500Y282500D01*
X1333000Y235000D02*
X1333500Y234500D01*
X1333000Y235000D02*
Y244000D01*
X1058750Y1472000D02*
X1062250Y1468500D01*
X684000Y1082500D02*
X685000Y1081500D01*
X743000Y1251000D02*
X746000Y1248000D01*
X1296960Y594955D02*
X1297915Y594000D01*
X1042000Y1297000D02*
X1085000Y1340000D01*
X1349000Y235000D02*
X1351000Y233000D01*
X973500Y157500D02*
X975000Y156000D01*
X919000Y246000D02*
X920000Y245000D01*
X1349000Y221000D02*
X1352000Y218000D01*
X1363000D01*
X1084000Y61000D02*
X1085000Y60000D01*
X1006000Y171000D02*
X1009000Y174000D01*
X850500Y236500D02*
X857000D01*
X1452000Y371000D02*
X1453000Y372000D01*
X1125000Y87000D02*
X1126000Y86000D01*
X1288000Y238000D02*
X1291000Y241000D01*
X1074000Y85000D02*
X1086000D01*
D60*
X280000Y1048000D02*
Y1101000D01*
X270540Y1210460D02*
Y1492460D01*
X218000Y1158000D02*
Y1225000D01*
X270540Y1210460D02*
X271000Y1210000D01*
X270000Y1493000D02*
X270540Y1492460D01*
X76000Y1228000D02*
X113000D01*
X75000Y1227000D02*
X76000Y1228000D01*
X152000Y1493000D02*
X181000D01*
X151000Y1492000D02*
X152000Y1493000D01*
X133000Y1442997D02*
X137997D01*
X138000Y1443000D01*
X203000Y1381000D02*
Y1420000D01*
X200000Y1378000D02*
X203000Y1381000D01*
X165000Y1366000D02*
X215000D01*
X156000Y1375000D02*
X165000Y1366000D01*
X138000Y1375000D02*
X156000D01*
X169000Y1378000D02*
X200000D01*
X169000D02*
Y1391000D01*
X126000D02*
X159000D01*
X126000Y1379000D02*
Y1391000D01*
X159000D02*
X167000D01*
X168000Y1390000D01*
X1128540Y1266540D02*
X1129000Y1267000D01*
X1128540Y743460D02*
Y1266540D01*
X1205750Y1319750D02*
X1206000Y1320000D01*
X1205750Y1295750D02*
Y1319750D01*
X1323000Y1545000D02*
X1325000Y1543000D01*
Y1531000D02*
Y1543000D01*
X1357250Y1530000D02*
Y1552000D01*
X1325000Y1530000D02*
X1357250D01*
X1325000D02*
Y1531000D01*
X1017750Y1121750D02*
X1018000Y1122000D01*
X1017750Y962750D02*
Y1121750D01*
X965450Y499000D02*
Y499550D01*
Y499000D02*
X966000D01*
X1361000Y773000D02*
X1363000Y771000D01*
X1350000Y773000D02*
X1361000D01*
X1260000Y837000D02*
X1274000D01*
X1276000Y839000D01*
Y851000D01*
X1259000D02*
X1259002Y851002D01*
Y862998D01*
X1003550Y383450D02*
Y403450D01*
X1407000Y239000D02*
X1419000Y251000D01*
X1438000Y263000D02*
Y287000D01*
X1442000Y291000D01*
X1452000D01*
X1362997Y221000D02*
X1418000D01*
X1438000Y241000D01*
X1362000Y239000D02*
X1407000D01*
X1465000Y411000D02*
Y512000D01*
X1454000Y411000D02*
X1465000D01*
X1453000Y412000D02*
X1454000Y411000D01*
X1386000Y567000D02*
X1388000Y565000D01*
X1379000Y567000D02*
X1386000D01*
X1397997Y564997D02*
X1398000Y565000D01*
X1397997Y563999D02*
Y564997D01*
X1432000Y571000D02*
Y601000D01*
X1382000Y642000D02*
X1398000D01*
X1382500Y611001D02*
X1397001D01*
X1398000Y612000D01*
X1343765Y584764D02*
X1344000Y584999D01*
X1343999Y585000D02*
X1344000Y584999D01*
X1343999Y585000D02*
X1361000D01*
X1379000Y567000D01*
X1342710Y584764D02*
X1343765D01*
X1211000Y554250D02*
X1222750D01*
X1223000Y554000D01*
X1207000Y589000D02*
Y612000D01*
X1322997Y1544997D02*
X1323000Y1545000D01*
X1317000Y1550994D02*
X1322997Y1544997D01*
X1317000Y1550994D02*
Y1564000D01*
X1209500Y1551000D02*
X1234500D01*
X1209500D02*
Y1559500D01*
X1207000Y1562000D02*
X1209500Y1559500D01*
X1105000Y1337000D02*
Y1373000D01*
X1238000Y1252000D02*
Y1360000D01*
X1250000Y1424923D02*
Y1460000D01*
X921000Y1568000D02*
X934000Y1555000D01*
Y1525000D02*
Y1555000D01*
X954000Y1525000D02*
Y1547000D01*
X801000Y1551000D02*
X817000D01*
X923000Y1578000D02*
X954000Y1547000D01*
X784000Y1568000D02*
X813000D01*
X781000Y1565000D02*
X784000Y1568000D01*
X781000Y1550000D02*
Y1565000D01*
X823000Y1557000D02*
Y1578000D01*
X923000D01*
X817000Y1551000D02*
X823000Y1557000D01*
X844000Y1568000D02*
X921000D01*
X826750Y1420000D02*
X827000Y1420250D01*
X826750Y1420000D02*
X840000D01*
X827000Y1456000D02*
X836000D01*
X855000Y1449000D02*
Y1493900D01*
X848000Y1442000D02*
X855000Y1449000D01*
X848000Y1442000D02*
Y1442000D01*
X839000D02*
X848000D01*
X827000Y1420250D02*
Y1456000D01*
Y1493000D02*
Y1512000D01*
X836000Y1502000D02*
Y1525000D01*
Y1456000D02*
Y1502000D01*
X781000Y1540000D02*
Y1550000D01*
Y1540000D02*
X809000Y1512000D01*
Y1493000D02*
Y1512000D01*
X801000Y1538000D02*
X827000Y1512000D01*
X801000Y1538000D02*
Y1551000D01*
X796000Y1420000D02*
X810750D01*
X776000D02*
Y1463000D01*
Y1420000D02*
X796000D01*
X804000Y1404000D02*
X846000D01*
X847000Y1405000D01*
X863000Y1391000D02*
Y1405000D01*
Y1420000D01*
X840000D02*
X863000D01*
X834000Y1391000D02*
X847000D01*
X168000Y1390000D02*
X169000Y1391000D01*
X834000D02*
X835000Y1390000D01*
X848000Y1271000D02*
X908000D01*
X848000Y1257000D02*
X907000D01*
X130000Y791000D02*
X134000Y795000D01*
Y1088000D01*
X375000Y993000D02*
Y1182000D01*
X1243000Y646000D02*
X1250000Y653000D01*
X385000Y984000D02*
Y1168000D01*
X395000Y974000D02*
Y1155000D01*
X822000Y1401000D02*
X823000Y1402000D01*
X822000Y1283000D02*
X848000Y1257000D01*
X822000Y1283000D02*
Y1401000D01*
X835000Y1284000D02*
X848000Y1271000D01*
X835000Y1284000D02*
Y1390000D01*
X965000Y387000D02*
X965450Y386550D01*
X1372460Y455540D02*
X1373000Y455000D01*
X1371000Y483000D02*
Y512000D01*
Y483000D02*
X1373000Y481000D01*
Y455000D02*
Y481000D01*
X1250000Y653000D02*
Y744000D01*
X1252998Y862998D02*
X1259002D01*
X1243000Y495000D02*
Y646000D01*
X965000Y499000D02*
X965450D01*
X717500Y961000D02*
X731000D01*
X678000Y947000D02*
Y948000D01*
Y947000D02*
X679000Y946000D01*
X731000Y961000D02*
X775000D01*
X1238000Y1360000D02*
X1257000Y1379000D01*
Y1417923D01*
X1250000Y1424923D02*
X1257000Y1417923D01*
X1105000Y1337000D02*
X1119000Y1323000D01*
Y633000D02*
Y1323000D01*
X891000Y386000D02*
Y395540D01*
X912460D01*
X1109000Y1251000D02*
X1110000Y1252000D01*
X1109000Y561000D02*
Y1251000D01*
X963000Y622000D02*
Y741000D01*
X940000Y403000D02*
Y490000D01*
X931000Y414000D02*
Y453000D01*
X974450Y403450D02*
X1003550D01*
X974000Y403000D02*
X974450Y403450D01*
X912460Y395540D02*
Y423000D01*
X965000Y387000D02*
Y424000D01*
Y498550D01*
X912460Y423000D02*
Y621000D01*
X894998Y452999D02*
Y475924D01*
X890000Y414000D02*
X903538Y427538D01*
X875460Y495463D02*
X894998Y475924D01*
X875460Y495463D02*
Y544383D01*
X903000Y630000D02*
X903538Y629462D01*
Y427538D02*
Y590384D01*
X903460Y590463D02*
X903538Y590384D01*
X903460Y590463D02*
Y597537D01*
X903538Y597616D01*
X848000Y406000D02*
Y562000D01*
X838000Y418000D02*
Y568000D01*
X866000Y596000D01*
X903538Y597616D02*
Y617384D01*
X903460Y617463D02*
X903538Y617384D01*
X903460Y617463D02*
Y624537D01*
X903538Y624616D01*
Y629462D01*
X691000Y915000D02*
Y947000D01*
X1009000Y818000D02*
Y1109000D01*
X951000Y453000D02*
Y1043000D01*
X962000Y742000D02*
X963000D01*
Y911000D01*
X745000Y915000D02*
Y947000D01*
X691000Y915000D02*
X760155Y845845D01*
X846155D01*
X703000Y915000D02*
Y947000D01*
Y915000D02*
X766155Y851845D01*
X665000Y924000D02*
Y947000D01*
X678000Y919485D02*
Y947000D01*
X866000Y596000D02*
Y801000D01*
X678000Y919485D02*
X758469Y839017D01*
X842983D01*
X838000Y829000D02*
X866000Y801000D01*
X665000Y924000D02*
X760000Y829000D01*
X838000D01*
X651000Y924000D02*
Y948000D01*
Y924000D02*
X755000Y820000D01*
X638000Y925000D02*
Y948000D01*
Y925000D02*
X753000Y810000D01*
X623000Y926000D02*
Y948000D01*
X826000Y418000D02*
Y569000D01*
X814000Y418000D02*
Y570000D01*
X826000Y569000D02*
X847000Y590000D01*
X814000Y570000D02*
X839000Y595000D01*
X623000Y926000D02*
X747000Y802000D01*
X856000Y621000D02*
Y797000D01*
X755000Y820000D02*
X833000D01*
X856000Y797000D01*
X753000Y810000D02*
X830000D01*
X847000Y793000D01*
Y590000D02*
Y793000D01*
X747000Y802000D02*
X821000D01*
X839000Y784000D01*
Y595000D02*
Y784000D01*
X766155Y851845D02*
X852155D01*
X875460Y544383D02*
X875540Y544463D01*
Y806460D01*
X842983Y839017D02*
X875540Y806460D01*
X884000Y499000D02*
Y808000D01*
X846155Y845845D02*
X884000Y808000D01*
X894000Y490000D02*
Y810000D01*
X852155Y851845D02*
X894000Y810000D01*
X775000Y961000D02*
Y999000D01*
X1207000Y589000D02*
X1225000D01*
X1419000Y251000D02*
X1453000D01*
X962000Y742000D02*
X963000Y741000D01*
X1388000Y565000D02*
X1398000D01*
X138000Y1424997D02*
Y1443000D01*
X965000Y498550D02*
X965450Y499000D01*
Y499550D02*
X966000Y499000D01*
X907000Y1257000D02*
X908000Y1256000D01*
D61*
X113000Y1102000D02*
Y1140000D01*
Y1011000D02*
Y1102000D01*
X1397940Y431750D02*
X1427500D01*
X1397940Y323060D02*
X1398000Y323000D01*
X1397940Y323060D02*
Y431750D01*
X964000Y923000D02*
Y1214000D01*
X753000Y1095000D02*
X755000D01*
X743500Y1118000D02*
X752000D01*
X755000Y1115000D01*
X743500Y1104000D02*
X752000D01*
X755000Y1101000D01*
Y1097000D02*
Y1101000D01*
Y1150000D02*
X756000Y1151000D01*
X744500Y1150000D02*
X755000D01*
X743500Y1151000D02*
X744500Y1150000D01*
X756000Y1151000D02*
Y1152000D01*
Y1164000D02*
Y1168000D01*
X743500D02*
X756000D01*
X753000Y1203000D02*
X755000Y1201000D01*
X743500Y1203000D02*
X753000D01*
X744500Y1216000D02*
X755000D01*
X743500Y1217000D02*
X744500Y1216000D01*
Y1230000D02*
X755000D01*
X743500Y1231000D02*
X744500Y1230000D01*
X567000Y1213000D02*
X577000D01*
X578000Y1214000D01*
X567000Y1201000D02*
X568500Y1199500D01*
X578000D01*
X567000Y1115000D02*
X578000D01*
X578000Y1115000D01*
X566999Y1092998D02*
X578998D01*
X579000Y1093000D01*
X643000Y1073000D02*
Y1083000D01*
X659999Y1072998D02*
Y1080001D01*
X657000Y1083000D02*
X659999Y1080001D01*
X670000Y1073997D02*
Y1083000D01*
X698999Y1072998D02*
X699000Y1072999D01*
Y1083000D01*
X739500Y1073000D02*
Y1085000D01*
X734000Y1073000D02*
X739500D01*
X615999Y1098999D02*
X616000Y1099000D01*
X615999Y1093000D02*
X616000Y1092999D01*
Y1088000D02*
Y1092999D01*
X670000Y1073997D02*
X670999Y1072998D01*
X677000Y1111000D02*
X683000D01*
Y1100500D02*
Y1111000D01*
Y1100500D02*
X684500Y1099000D01*
X684500Y1099000D01*
X604000Y1135000D02*
X605000Y1136000D01*
X604000Y1129000D02*
Y1135000D01*
X594000Y1129000D02*
X604000D01*
X567000Y1115000D02*
Y1120000D01*
X717500Y976500D02*
X717500Y976500D01*
Y987000D01*
X753000Y1095000D02*
X755000Y1097000D01*
D62*
X202000Y546000D02*
Y674110D01*
X221000Y658000D02*
Y691000D01*
Y547000D02*
Y604000D01*
Y642000D02*
Y658000D01*
Y604000D02*
Y642000D01*
X729220Y689220D02*
Y707220D01*
X727000Y687000D02*
X729220Y689220D01*
X706000Y687000D02*
X727000D01*
X653000Y689000D02*
Y707000D01*
Y689000D02*
X671000D01*
X672000Y688000D01*
Y667000D02*
Y688000D01*
X704000Y685000D02*
X706000Y687000D01*
X704000Y667000D02*
Y685000D01*
X725000Y667000D02*
X730000Y662000D01*
X704000Y667000D02*
X725000D01*
X659000D02*
X672000D01*
X650000Y658000D02*
X659000Y667000D01*
X719000Y614000D02*
X730000Y625000D01*
X707000Y614000D02*
X719000D01*
X705000Y616000D02*
X707000Y614000D01*
X650000Y624000D02*
X658000Y616000D01*
X673000D01*
X200000Y240000D02*
X275000D01*
X357500D01*
X432500D01*
X472000D01*
X41500Y239000D02*
X42500Y240000D01*
X23000Y239000D02*
X41500D01*
X14000Y248000D02*
X23000Y239000D01*
X14000Y248000D02*
Y312000D01*
X23110Y321110D01*
X425890D01*
X432500Y314500D01*
Y290000D02*
Y314500D01*
X505000Y26000D02*
Y54600D01*
X496000Y17000D02*
X505000Y26000D01*
X368000Y17000D02*
X496000D01*
X350000Y35000D02*
X368000Y17000D01*
X350000Y35000D02*
Y60000D01*
X505000Y105400D02*
X541600D01*
X551000Y96000D01*
Y70000D02*
Y96000D01*
Y70000D02*
X561000Y60000D01*
X590000D01*
X130000Y95400D02*
Y145000D01*
X158000Y173000D01*
Y240000D01*
X117500D02*
X158000D01*
X200000D01*
X275000Y161000D02*
Y190000D01*
Y161000D02*
X298000Y138000D01*
X363000D01*
X400000Y101000D01*
Y60000D02*
Y101000D01*
X200000Y190000D02*
X275000D01*
X432500Y143500D02*
Y190000D01*
Y143500D02*
X450000Y126000D01*
Y60000D02*
Y126000D01*
X730000Y625000D02*
Y640000D01*
Y662000D01*
X650000Y624000D02*
Y640000D01*
Y658000D01*
X636000Y743000D02*
X636220Y742780D01*
X730780D01*
D63*
X300000Y841253D02*
Y1179000D01*
X310290Y845507D02*
Y1171000D01*
X363710Y856290D02*
Y1489710D01*
X310290Y1171000D02*
Y1613710D01*
X300000Y1179000D02*
Y1575996D01*
X363710Y856290D02*
X382000Y838000D01*
X363710Y1489710D02*
X364000Y1490000D01*
X350000Y855000D02*
X383000Y822000D01*
X310290Y845507D02*
X380297Y775500D01*
X300000Y841253D02*
X386253Y755000D01*
X310000Y1614000D02*
X310290Y1613710D01*
X293000Y1582996D02*
X300000Y1575996D01*
X382000Y838000D02*
X478000D01*
X383000Y822000D02*
X452000D01*
X386253Y755000D02*
X433000D01*
X294000Y1584000D02*
Y1623823D01*
X280003Y1581997D02*
X281006Y1583000D01*
X293000D02*
X294000Y1584000D01*
X281006Y1583000D02*
X293000D01*
Y1582996D02*
Y1583000D01*
X294000Y1623823D02*
X295177D01*
X294000Y1625000D02*
X295177Y1623823D01*
X1253000Y1294000D02*
Y1322000D01*
X673000Y1449000D02*
Y1685000D01*
X633000Y1463000D02*
Y1540500D01*
X633750Y1541250D01*
X543007Y1463000D02*
X543250Y1532000D01*
X617000Y1477000D02*
Y1540500D01*
X617750Y1541250D01*
X557000Y1477000D02*
Y1547000D01*
X556000Y1548000D02*
X557000Y1547000D01*
X1277000Y1332000D02*
Y1414000D01*
X1353000Y1514000D02*
Y1515000D01*
X1352000D02*
X1353000Y1514000D01*
X1407750Y1477000D02*
Y1505500D01*
X1408000Y1505750D01*
X1253000Y1294000D02*
X1253000D01*
X1253000Y1338000D02*
X1253000D01*
Y1360000D01*
X1349000Y1321000D02*
Y1361000D01*
X1418000Y754750D02*
Y810000D01*
X690000Y468000D02*
Y474750D01*
Y459750D02*
Y468000D01*
X975000Y30000D02*
X1017000D01*
X1016000Y64000D02*
Y87000D01*
X984000D02*
X1016000D01*
X982500Y85500D02*
X984000Y87000D01*
X1016000Y64000D02*
X1017000Y63000D01*
X975000Y30000D02*
Y60500D01*
Y85500D02*
X982500D01*
X1185000D02*
X1188500Y89000D01*
X973500Y157500D02*
Y171500D01*
Y184500D01*
X973000Y185000D02*
X973500Y184500D01*
Y156500D02*
Y157500D01*
X359000Y535000D02*
Y577750D01*
X342000Y610000D02*
X344250Y612250D01*
X342000Y523000D02*
Y610000D01*
X337000Y518000D02*
X342000Y523000D01*
X1280000Y670000D02*
Y680000D01*
X1280250Y680250D02*
X1313250D01*
X1280000Y680000D02*
X1280250Y680250D01*
X1196000Y680000D02*
X1197000Y681000D01*
X1195000Y680000D02*
X1196000D01*
X1194770Y679770D02*
X1195000Y680000D01*
X1168000Y680000D02*
X1168214Y679770D01*
X1269000Y669000D02*
X1281000D01*
X1490000Y790000D02*
Y826000D01*
X1487000D02*
X1490000D01*
X1472000Y790000D02*
X1490000D01*
X433000Y691000D02*
Y755000D01*
X547000Y510000D02*
X628000D01*
X536000Y490000D02*
X607000D01*
X1007000Y1535500D02*
X1007000Y1535500D01*
X1007000Y1535500D02*
Y1552500D01*
X991000D02*
X991000Y1552500D01*
X425752Y1665753D02*
X539753D01*
X425752Y1647500D02*
Y1665753D01*
X1407750Y1506000D02*
X1408000Y1505750D01*
X1406750Y1505000D02*
X1407750Y1506000D01*
X643250Y284000D02*
X666000D01*
X673000Y291000D01*
X686000D01*
Y235000D02*
Y259000D01*
Y235000D02*
X695000D01*
X727000D02*
X730000Y232000D01*
X582000Y284000D02*
X608750D01*
X575000Y291000D02*
X582000Y284000D01*
X562000Y291000D02*
X575000D01*
X562000Y235000D02*
Y259000D01*
X554000Y235000D02*
X562000D01*
X522000D02*
X522000Y235000D01*
X361000Y614250D02*
Y641000D01*
X359000Y612250D02*
X361000Y614250D01*
X344250Y612250D02*
X359000D01*
X730000Y190000D02*
Y232000D01*
X522000Y190000D02*
Y235000D01*
X609000Y472000D02*
Y476000D01*
X607000Y478000D02*
X609000Y476000D01*
X607000Y478000D02*
Y490000D01*
X625000Y472000D02*
X628000Y475000D01*
Y490000D01*
X593000Y472000D02*
X609000D01*
X589500Y468500D02*
X593000Y472000D01*
X625000D02*
X642000D01*
X645500Y468500D01*
Y447500D02*
Y468500D01*
X588000Y436000D02*
X589500Y437500D01*
X628000Y490000D02*
Y510000D01*
X870000Y1555000D02*
X878000Y1547000D01*
X872000Y1527000D02*
X895000D01*
X896000Y1526000D01*
X695000Y1545000D02*
X696000Y1544000D01*
X726000D01*
X478000Y838000D02*
X484000Y832000D01*
Y730000D02*
Y832000D01*
Y730000D02*
X496000D01*
Y830000D01*
X505000Y839000D01*
X1376500Y796500D02*
X1377000Y796000D01*
Y770750D02*
Y796000D01*
X1452000Y825751D02*
X1470001D01*
X1470250Y826000D01*
X1452000Y805752D02*
X1471752D01*
X1472000Y806000D01*
X1452000Y785750D02*
X1471750D01*
X1472000Y786000D01*
Y790000D01*
Y770500D02*
Y786000D01*
Y770500D02*
X1474000Y768500D01*
X1452000Y745753D02*
X1473253D01*
X1474000Y746500D01*
X1377000Y754750D02*
X1418000D01*
X1363000D02*
X1377000D01*
X1363000Y754750D02*
X1363000Y754750D01*
X896000Y1497000D02*
Y1526000D01*
X861000Y1538000D02*
X872000Y1527000D01*
X710000Y1490000D02*
Y1516000D01*
X617750Y1541250D02*
Y1554250D01*
X543250Y1548000D02*
X556000D01*
X536000Y490000D02*
Y522000D01*
X1297000Y669000D02*
X1308000D01*
X683999Y1689000D02*
X989000D01*
Y1664000D02*
Y1689000D01*
X683999Y1438997D02*
Y1689000D01*
X337000Y518000D02*
X518000D01*
X359000Y535000D02*
X505000D01*
X547000Y510000D02*
Y704000D01*
X536000Y522000D02*
Y691000D01*
X505000Y535000D02*
X506710Y536710D01*
X1479960Y1292960D02*
X1480000Y1293000D01*
Y1332000D01*
X1403000Y1241000D02*
X1415000Y1253000D01*
X1313000Y1241000D02*
X1403000D01*
X1313000Y1230000D02*
X1416000D01*
X1315000Y1587000D02*
Y1616000D01*
Y1647967D01*
Y1616000D02*
X1377000D01*
X894000Y1547000D02*
X894220Y1547220D01*
X1408000Y1555000D02*
X1480000D01*
Y1498000D02*
Y1555000D01*
X1412000Y1568000D02*
X1490000D01*
X1491003Y1240003D02*
Y1566997D01*
X1490000Y1568000D02*
X1491003Y1566997D01*
X1377000Y1586000D02*
X1408000Y1555000D01*
X1383000Y1597000D02*
X1412000Y1568000D01*
X1383000Y1597000D02*
Y1610000D01*
X1377000Y1616000D02*
X1383000Y1610000D01*
X1413000Y1586000D02*
X1484000D01*
X1416000Y1230000D02*
X1426003Y1240003D01*
X1415000Y1253000D02*
X1453000D01*
X1427000Y1291000D02*
X1451500D01*
X1427000Y1488000D02*
X1428000Y1489000D01*
X1480000Y1332000D02*
Y1498000D01*
X1428000Y1489000D02*
X1449000D01*
X1465000Y1505000D01*
Y1532000D01*
X1428000Y1416000D02*
X1451500D01*
X1427000Y1415000D02*
X1428000Y1416000D01*
X1427000Y1291000D02*
Y1415000D01*
Y1488000D01*
X894220Y1547220D02*
X919000D01*
X742000Y1544000D02*
X770000D01*
X844000Y1555000D02*
X870000D01*
X855000Y1512100D02*
Y1537000D01*
X854000Y1538000D02*
X855000Y1537000D01*
X848000Y1538000D02*
X854000D01*
X861000D01*
X377750Y1566750D02*
Y1614000D01*
X278000Y1584000D02*
X280003Y1581997D01*
X218000Y1550250D02*
Y1571250D01*
X218000Y1571250D02*
X218000Y1571250D01*
X427000Y1626000D02*
Y1646252D01*
X425752Y1647500D02*
X427000Y1646252D01*
X218000Y1571250D02*
Y1625000D01*
X218000Y1625000D02*
X218000Y1625000D01*
X240749Y1647500D02*
X241000Y1647249D01*
Y1614000D02*
Y1647249D01*
X261250Y1584000D02*
Y1613750D01*
X405750Y1614250D02*
Y1647500D01*
Y1614250D02*
X406000Y1614000D01*
X1088000Y1239420D02*
X1088288Y1239132D01*
X1313250Y680250D02*
X1313500Y680000D01*
X1297000Y718000D02*
Y796000D01*
X1100000Y572000D02*
Y1230000D01*
X520000Y520000D02*
Y572000D01*
X518000Y518000D02*
X520000Y520000D01*
X506710Y536710D02*
Y583000D01*
X1088000D02*
X1088288Y583288D01*
Y1239132D01*
X380297Y775500D02*
X451500D01*
X452000Y776000D01*
X716000Y1087500D02*
X718500Y1085000D01*
X716000Y1087500D02*
Y1101000D01*
X448750Y1574500D02*
X450250Y1573000D01*
X448750Y1574500D02*
Y1614750D01*
X261000Y1614000D02*
X261250Y1613750D01*
X202000Y1574000D02*
X203000Y1573000D01*
X202000Y1574000D02*
Y1614000D01*
X1479960Y1292960D02*
X1480713Y1292207D01*
Y1130287D02*
X1481000Y1130000D01*
X1480713Y1130287D02*
Y1292207D01*
X1466000Y1347000D02*
X1467000Y1348000D01*
X1466000Y1116000D02*
Y1347000D01*
X1354000Y1116000D02*
Y1181000D01*
X1418000Y845829D02*
X1452000D01*
X1418000Y810000D02*
Y845829D01*
Y846000D01*
X1354000Y1181000D02*
X1354500Y1181500D01*
X452000Y704000D02*
Y776000D01*
X350000Y855000D02*
Y1501000D01*
X201250Y1571250D02*
X203000Y1573000D01*
X589500Y437500D02*
Y468500D01*
X617000Y1555000D02*
X617750Y1554250D01*
X1195000Y696000D02*
X1197000Y698000D01*
D64*
X52000Y876502D02*
D03*
Y896500D02*
D03*
Y916503D02*
D03*
Y936501D02*
D03*
X720750Y1647500D02*
D03*
X740748D02*
D03*
X760751D02*
D03*
X780749D02*
D03*
X868251D02*
D03*
X888249D02*
D03*
X908252D02*
D03*
X928250D02*
D03*
X590747D02*
D03*
X610750D02*
D03*
X630748D02*
D03*
X52000Y1333999D02*
D03*
Y1354002D02*
D03*
Y1374000D02*
D03*
X365673Y1647500D02*
D03*
X385752D02*
D03*
X405750D02*
D03*
X425752D02*
D03*
X445751D02*
D03*
X1195722Y1647967D02*
D03*
X1215724D02*
D03*
X1235723D02*
D03*
X1058750Y1648000D02*
D03*
X1038752D02*
D03*
X1451500Y1416000D02*
D03*
Y1435998D02*
D03*
X1465000Y972250D02*
D03*
Y992253D02*
D03*
Y1012251D02*
D03*
X1450000Y641999D02*
D03*
Y622001D02*
D03*
Y601998D02*
D03*
Y582000D02*
D03*
X200672Y1647500D02*
D03*
X220751D02*
D03*
X240749D02*
D03*
X260752D02*
D03*
X280750D02*
D03*
X54500Y1463999D02*
D03*
Y1484002D02*
D03*
Y1504000D02*
D03*
X1452000Y845829D02*
D03*
Y825751D02*
D03*
Y805752D02*
D03*
Y785750D02*
D03*
Y765752D02*
D03*
X1451500Y1291000D02*
D03*
Y1310998D02*
D03*
X1452500Y171172D02*
D03*
Y191171D02*
D03*
Y211173D02*
D03*
Y231171D02*
D03*
Y251250D02*
D03*
Y271062D02*
D03*
Y291128D02*
D03*
D65*
X52000Y956499D02*
D03*
Y1393998D02*
D03*
X1451500Y1396002D02*
D03*
X1465000Y1032249D02*
D03*
X1450000Y562002D02*
D03*
X54500Y1523998D02*
D03*
X1452000Y745753D02*
D03*
X1451500Y1271002D02*
D03*
X1452500Y151174D02*
D03*
D66*
X800747Y1647500D02*
D03*
X948248D02*
D03*
X650747D02*
D03*
X465749D02*
D03*
X1255721Y1647967D02*
D03*
X1078748Y1648000D02*
D03*
X300748Y1647500D02*
D03*
D67*
X400000Y60000D02*
D03*
X350000D02*
D03*
X240000D02*
D03*
X190000D02*
D03*
D68*
X450000D02*
D03*
X290000D02*
D03*
D69*
X56600Y1153100D02*
D03*
D70*
X82000D02*
D03*
X56600Y1127700D02*
D03*
X82000D02*
D03*
X56600Y1102300D02*
D03*
X82000D02*
D03*
X56600Y1076900D02*
D03*
X82000D02*
D03*
X56600Y1051500D02*
D03*
X82000D02*
D03*
D71*
X808800Y721000D02*
D03*
X758000D02*
D03*
D72*
X1452500Y471750D02*
D03*
X1427500D02*
D03*
D73*
X1452500Y451750D02*
D03*
Y431750D02*
D03*
Y411750D02*
D03*
Y391750D02*
D03*
Y371750D02*
D03*
X1427500Y451750D02*
D03*
Y431750D02*
D03*
Y411750D02*
D03*
Y391750D02*
D03*
Y371750D02*
D03*
X955000Y60500D02*
D03*
X935000D02*
D03*
X915000D02*
D03*
X895000D02*
D03*
X875000D02*
D03*
X955000Y85500D02*
D03*
X935000D02*
D03*
X915000D02*
D03*
X895000D02*
D03*
X875000D02*
D03*
X1165000Y60500D02*
D03*
X1145000D02*
D03*
X1125000D02*
D03*
X1105000D02*
D03*
X1085000D02*
D03*
X1165000Y85500D02*
D03*
X1145000D02*
D03*
X1125000D02*
D03*
X1105000D02*
D03*
X1085000D02*
D03*
D74*
X24500Y786000D02*
D03*
Y721000D02*
D03*
X69500D02*
D03*
Y786000D02*
D03*
X505000Y105400D02*
D03*
Y54600D02*
D03*
X130000Y95400D02*
D03*
Y44600D02*
D03*
D75*
X357500Y440000D02*
D03*
X432500D02*
D03*
Y290000D02*
D03*
X357500Y240000D02*
D03*
X432500D02*
D03*
X357500Y190000D02*
D03*
X432500D02*
D03*
X42500Y440000D02*
D03*
X117500D02*
D03*
Y290000D02*
D03*
X42500Y240000D02*
D03*
X117500D02*
D03*
X42500Y190000D02*
D03*
X117500D02*
D03*
X200000Y440000D02*
D03*
X275000D02*
D03*
Y290000D02*
D03*
X200000Y240000D02*
D03*
X275000D02*
D03*
X200000Y190000D02*
D03*
X275000D02*
D03*
D76*
X357500Y290000D02*
D03*
X42500D02*
D03*
X200000D02*
D03*
D77*
X730000Y640000D02*
D03*
X650000D02*
D03*
X522000Y190000D02*
D03*
D78*
X730000D02*
D03*
D79*
X535000Y749600D02*
D03*
Y775000D02*
D03*
D80*
Y724200D02*
D03*
D81*
X194000Y1158000D02*
D03*
D82*
X270000D02*
D03*
D83*
X50000Y50000D02*
D03*
Y1650000D02*
D03*
X250000Y750000D02*
D03*
X1450000Y50000D02*
D03*
Y1650000D02*
D03*
D84*
X740000Y60000D02*
D03*
D85*
X640000D02*
D03*
X590000D02*
D03*
D86*
X975000Y60500D02*
D03*
Y85500D02*
D03*
X1185000Y60500D02*
D03*
Y85500D02*
D03*
D87*
X593000Y920000D02*
D03*
X420000Y1060000D02*
D03*
X206000Y1037000D02*
D03*
X271000Y1027000D02*
D03*
Y1074000D02*
D03*
X125000Y1097000D02*
D03*
X280000Y1101000D02*
D03*
Y1048000D02*
D03*
X127000Y735000D02*
D03*
X134000Y1088000D02*
D03*
X113000Y1140000D02*
D03*
Y1102000D02*
D03*
X130000Y791000D02*
D03*
X125000Y826000D02*
D03*
X115000Y816000D02*
D03*
X90000Y906000D02*
D03*
X115000Y931000D02*
D03*
X101000Y925000D02*
D03*
X259000Y1504000D02*
D03*
Y1285000D02*
D03*
X257000Y1249000D02*
D03*
X406000Y1285000D02*
D03*
Y1142000D02*
D03*
X395000Y1155000D02*
D03*
Y974000D02*
D03*
X385000Y1168000D02*
D03*
Y984000D02*
D03*
X375000Y1182000D02*
D03*
X218000Y1225000D02*
D03*
Y1158000D02*
D03*
X44000Y1209000D02*
D03*
X177000Y1223000D02*
D03*
X163000Y1179000D02*
D03*
X177000Y1171000D02*
D03*
X280000Y1195000D02*
D03*
X310290Y1171000D02*
D03*
X163000Y1250000D02*
D03*
X300000Y1179000D02*
D03*
X204000Y1079000D02*
D03*
X244000Y1057000D02*
D03*
X156000Y1112000D02*
D03*
X280000Y1415000D02*
D03*
X271000Y1210000D02*
D03*
X158500Y604000D02*
D03*
X181000Y615000D02*
D03*
X158500Y623500D02*
D03*
Y586000D02*
D03*
X261000Y1236000D02*
D03*
X158000Y568000D02*
D03*
X230000Y1195000D02*
D03*
X113000Y1228000D02*
D03*
X105000Y642000D02*
D03*
X75000Y1227000D02*
D03*
X293000Y1583000D02*
D03*
X289000Y1431000D02*
D03*
X322000Y1439000D02*
D03*
X270000Y1493000D02*
D03*
X181000D02*
D03*
X310000Y1614000D02*
D03*
X196000Y1458000D02*
D03*
X151000Y1492000D02*
D03*
X133000Y1442997D02*
D03*
X193000Y1413997D02*
D03*
X203000Y1420000D02*
D03*
X173000Y1404000D02*
D03*
X602000Y1536000D02*
D03*
Y1397000D02*
D03*
X548000D02*
D03*
Y1358000D02*
D03*
X560996Y1406000D02*
D03*
X458000Y1423000D02*
D03*
X448000Y1414000D02*
D03*
X215000Y1366000D02*
D03*
X138000Y1375000D02*
D03*
X126000Y1379000D02*
D03*
X159000Y1391000D02*
D03*
X1075000Y1427000D02*
D03*
X735000Y1379000D02*
D03*
X887500Y1379500D02*
D03*
X1040500Y1369500D02*
D03*
X1041250Y1458000D02*
D03*
X1026000Y1431000D02*
D03*
X888000Y1471000D02*
D03*
X970000D02*
D03*
X987000Y1510000D02*
D03*
X255000Y628000D02*
D03*
X967000Y1414000D02*
D03*
Y1458000D02*
D03*
X988998Y1438997D02*
D03*
X977000Y1449000D02*
D03*
X1201000Y1408000D02*
D03*
X988000Y1605000D02*
D03*
X1160000D02*
D03*
Y1198000D02*
D03*
X1129000Y1267000D02*
D03*
X1128540Y743460D02*
D03*
X1144000Y1257000D02*
D03*
X1238000Y1252000D02*
D03*
X1206000Y1320000D02*
D03*
X683999Y1438997D02*
D03*
X673000Y1449000D02*
D03*
X335000D02*
D03*
X633000Y1463000D02*
D03*
X617000Y1477000D02*
D03*
X557000D02*
D03*
X1220500Y1585500D02*
D03*
X1315000Y1587000D02*
D03*
Y1647967D02*
D03*
X1319000Y1476750D02*
D03*
X1277000Y1414000D02*
D03*
Y1332000D02*
D03*
X1392000Y1540000D02*
D03*
X1353000Y1514000D02*
D03*
X1407750Y1477000D02*
D03*
X1253000Y1294000D02*
D03*
Y1360000D02*
D03*
X1349000Y1321000D02*
D03*
Y1361000D02*
D03*
X1302000Y1208000D02*
D03*
X1314000Y1204000D02*
D03*
X1178000Y1130000D02*
D03*
X1098000Y413000D02*
D03*
X1168000Y414000D02*
D03*
X1053000Y1175000D02*
D03*
X1043000Y1162000D02*
D03*
X1073000Y459000D02*
D03*
X1064000Y467000D02*
D03*
X1131000Y696000D02*
D03*
X1035000Y1149000D02*
D03*
X1027000Y1136000D02*
D03*
X1018000Y1122000D02*
D03*
X1017750Y962750D02*
D03*
X1009000Y1109000D02*
D03*
X1000000Y1095000D02*
D03*
X1230000Y491000D02*
D03*
Y464000D02*
D03*
X1240000Y478000D02*
D03*
X975000Y1057000D02*
D03*
X984000Y1071000D02*
D03*
X1220000Y500000D02*
D03*
Y452000D02*
D03*
X951000Y1043000D02*
D03*
X910500Y1031000D02*
D03*
Y1018000D02*
D03*
X1240000Y656000D02*
D03*
X1194000Y637000D02*
D03*
X975000Y434000D02*
D03*
X891000Y386000D02*
D03*
X848000Y406000D02*
D03*
X1029000Y352000D02*
D03*
X1227000Y933000D02*
D03*
X1206000Y796000D02*
D03*
X1217000Y808000D02*
D03*
X1350000Y773000D02*
D03*
X1261000Y926000D02*
D03*
Y968000D02*
D03*
X1418000Y810000D02*
D03*
X1276000Y851000D02*
D03*
X1233000Y219000D02*
D03*
X1244000Y202000D02*
D03*
X1206000Y896000D02*
D03*
X1416000Y1016000D02*
D03*
X1206000Y1040000D02*
D03*
X1217000Y1024000D02*
D03*
X1206000Y985000D02*
D03*
X1217998Y954998D02*
D03*
X1015000Y412000D02*
D03*
X930998Y413999D02*
D03*
X940000Y403000D02*
D03*
X965450Y386550D02*
D03*
X1003550Y383450D02*
D03*
X1221500Y565500D02*
D03*
X722000Y535000D02*
D03*
X864000Y295000D02*
D03*
X879998Y288999D02*
D03*
X734000Y554000D02*
D03*
X952750Y385750D02*
D03*
X1032000Y230000D02*
D03*
X957000Y197000D02*
D03*
X1096000Y275000D02*
D03*
X1065000Y205000D02*
D03*
X1073000Y8000D02*
D03*
X1065000Y37000D02*
D03*
X1079500Y165500D02*
D03*
X1055000Y247000D02*
D03*
X1043000Y217000D02*
D03*
Y143000D02*
D03*
X1055000Y155000D02*
D03*
X1110000Y206000D02*
D03*
X935000Y229000D02*
D03*
X946000Y220000D02*
D03*
X911000Y211000D02*
D03*
X904000Y171000D02*
D03*
X901000Y228000D02*
D03*
X878000Y220000D02*
D03*
X883000Y195000D02*
D03*
X865000Y228000D02*
D03*
X829000Y236000D02*
D03*
X814000Y279000D02*
D03*
X928000D02*
D03*
X850000Y152000D02*
D03*
Y28000D02*
D03*
X1009000Y183000D02*
D03*
X1034000Y171000D02*
D03*
X1034040Y45000D02*
D03*
X915000Y143000D02*
D03*
X839000Y9000D02*
D03*
Y86000D02*
D03*
X1104000Y132000D02*
D03*
X895000Y133000D02*
D03*
X1125000Y122000D02*
D03*
X915000D02*
D03*
X1145000Y111000D02*
D03*
X946000Y102000D02*
D03*
X935000Y111000D02*
D03*
X1165000Y102000D02*
D03*
X875000Y19000D02*
D03*
X1085000D02*
D03*
X1105000Y28000D02*
D03*
X895000D02*
D03*
X1125000Y37000D02*
D03*
X915000Y38000D02*
D03*
X1145000Y45000D02*
D03*
X935000D02*
D03*
X1004000Y251000D02*
D03*
X1021000Y155000D02*
D03*
X999000Y240000D02*
D03*
X985000Y229000D02*
D03*
X974998Y143000D02*
D03*
X989000Y197000D02*
D03*
X973000D02*
D03*
X875000Y152000D02*
D03*
X863000D02*
D03*
X359000Y535000D02*
D03*
X337000Y518000D02*
D03*
X45000Y1195000D02*
D03*
X101000Y828000D02*
D03*
X499000Y915000D02*
D03*
X1306000Y226000D02*
D03*
X1211000Y709000D02*
D03*
X1168000Y696000D02*
D03*
Y680000D02*
D03*
X1141000D02*
D03*
X1276000Y626000D02*
D03*
Y574000D02*
D03*
X1286000Y602000D02*
D03*
X1340000Y555000D02*
D03*
X1297000Y594000D02*
D03*
X1306000Y602000D02*
D03*
Y632000D02*
D03*
X1269000Y669000D02*
D03*
X1297000Y796000D02*
D03*
Y718000D02*
D03*
X811000Y355000D02*
D03*
X433000Y691000D02*
D03*
Y755000D02*
D03*
X547000Y704000D02*
D03*
X536000Y691000D02*
D03*
X1030000Y1498500D02*
D03*
X979000Y1552500D02*
D03*
X1234000Y1392000D02*
D03*
X1208000Y1353000D02*
D03*
X221000Y642000D02*
D03*
Y604000D02*
D03*
X91000Y568000D02*
D03*
Y628000D02*
D03*
X94000Y778000D02*
D03*
X361000Y641000D02*
D03*
X605000Y454000D02*
D03*
X670000D02*
D03*
X635000Y429000D02*
D03*
X690000D02*
D03*
X695000Y1545000D02*
D03*
X505000Y839000D02*
D03*
X1376500Y796500D02*
D03*
X1401000Y773000D02*
D03*
X1351000Y755000D02*
D03*
X1260000Y796500D02*
D03*
X499000Y869000D02*
D03*
X205000Y1433997D02*
D03*
X173000Y1458000D02*
D03*
X206000Y1468000D02*
D03*
X896000Y1497000D02*
D03*
X847000Y1538000D02*
D03*
X710000Y1516000D02*
D03*
Y1490000D02*
D03*
X645000Y1539000D02*
D03*
X616000Y1574000D02*
D03*
X543000Y1463000D02*
D03*
X516000Y1531000D02*
D03*
X556000Y1561000D02*
D03*
X1332000Y264000D02*
D03*
X1438000Y241000D02*
D03*
Y263000D02*
D03*
X1362997Y221000D02*
D03*
X1362000Y239000D02*
D03*
X1270000Y261000D02*
D03*
X1269000Y278000D02*
D03*
X536000Y522000D02*
D03*
X547000Y510000D02*
D03*
X1289000D02*
D03*
X1299000Y522000D02*
D03*
X1288500Y463500D02*
D03*
X1289000Y405000D02*
D03*
X916000Y354000D02*
D03*
X1309000Y510000D02*
D03*
Y474000D02*
D03*
X1320000Y522000D02*
D03*
X1467000Y392000D02*
D03*
Y357000D02*
D03*
X1452000Y346000D02*
D03*
Y503000D02*
D03*
X1465000Y512000D02*
D03*
X1224000Y438000D02*
D03*
Y423000D02*
D03*
Y409000D02*
D03*
X1299000Y453000D02*
D03*
X1241000Y381000D02*
D03*
X1232000Y394000D02*
D03*
X1329000Y399000D02*
D03*
Y495000D02*
D03*
X1320000Y484000D02*
D03*
X1339000Y409000D02*
D03*
X1329000Y360000D02*
D03*
X992000Y1082000D02*
D03*
X1306000Y582000D02*
D03*
X1294000Y555000D02*
D03*
X1308000Y669000D02*
D03*
X1378000Y592000D02*
D03*
X1393997Y598999D02*
D03*
X1378000Y581000D02*
D03*
X1344670Y569040D02*
D03*
X1397997Y563999D02*
D03*
X1411000Y534000D02*
D03*
X1432000Y571000D02*
D03*
Y601000D02*
D03*
X1398000Y642000D02*
D03*
Y612000D02*
D03*
X1362960Y569040D02*
D03*
X1342710Y584764D02*
D03*
X1347901Y595903D02*
D03*
X1223000Y554000D02*
D03*
X1231000Y543000D02*
D03*
X1207000Y612000D02*
D03*
X673000Y1685000D02*
D03*
X989000Y1620000D02*
D03*
Y1664000D02*
D03*
X1060000Y1589000D02*
D03*
X1132000D02*
D03*
X1189000Y574000D02*
D03*
X1141000Y535000D02*
D03*
X1154000Y548000D02*
D03*
X1131000D02*
D03*
X1467000Y1348000D02*
D03*
X1480000Y1332000D02*
D03*
Y1498000D02*
D03*
X1319000Y1252000D02*
D03*
X1313000Y1241000D02*
D03*
Y1230000D02*
D03*
X1491003Y1240003D02*
D03*
X1317000Y1564000D02*
D03*
X1306000Y1547000D02*
D03*
X1130000Y1515000D02*
D03*
X1016000Y1470750D02*
D03*
X1245000Y1552000D02*
D03*
X1205998Y1522997D02*
D03*
X1225000Y1505000D02*
D03*
X1234500Y1514000D02*
D03*
X1238997Y1487997D02*
D03*
X1237000Y1470000D02*
D03*
X1206000Y1480000D02*
D03*
X1176032Y1548000D02*
D03*
X1178000Y1562000D02*
D03*
X1192000Y1570000D02*
D03*
X1207000Y1562000D02*
D03*
X1118000Y1505739D02*
D03*
Y1440000D02*
D03*
X1030000Y1485500D02*
D03*
X1190000Y1343000D02*
D03*
X1177000Y1375000D02*
D03*
X1200000D02*
D03*
X1267000Y1523000D02*
D03*
X1250000Y1460000D02*
D03*
X1265000Y1422000D02*
D03*
X1230000Y1210000D02*
D03*
X1027675Y1579540D02*
D03*
X1028000Y1561000D02*
D03*
X1020000Y1552500D02*
D03*
X1029960Y1547000D02*
D03*
X1018998Y1535997D02*
D03*
X1006000Y1511460D02*
D03*
X1019000Y1498000D02*
D03*
X1030000Y1523000D02*
D03*
X981000Y1529000D02*
D03*
X1071000Y1555000D02*
D03*
X1080000Y1543000D02*
D03*
X1186000Y1493989D02*
D03*
X1185000Y1476000D02*
D03*
X1179000Y1465000D02*
D03*
X1260997Y1435997D02*
D03*
X1259000Y1449000D02*
D03*
X1207000Y1464000D02*
D03*
X1194000Y1466000D02*
D03*
Y1538000D02*
D03*
X1143000Y1358000D02*
D03*
Y1393000D02*
D03*
X1041000Y1413000D02*
D03*
X1024000Y1377000D02*
D03*
X1052000Y1416000D02*
D03*
Y1377000D02*
D03*
X1143000Y1495000D02*
D03*
X1105000Y1483000D02*
D03*
X1223000Y261000D02*
D03*
X1257998Y251999D02*
D03*
X1266998Y236000D02*
D03*
X1206000Y236000D02*
D03*
X1197000Y252000D02*
D03*
X1214960Y244000D02*
D03*
X1088998Y440999D02*
D03*
X1079998Y449999D02*
D03*
X1145000Y141000D02*
D03*
X1144000Y155000D02*
D03*
X1188000Y227000D02*
D03*
X1097000Y1458000D02*
D03*
X1070000Y1471500D02*
D03*
X1071000Y1500000D02*
D03*
X1070000Y1532000D02*
D03*
X1058998Y1512497D02*
D03*
X1080000Y1490000D02*
D03*
X1149500Y450500D02*
D03*
X1179000Y459000D02*
D03*
X1160000Y441000D02*
D03*
X1177000Y339000D02*
D03*
X1269000D02*
D03*
X868251Y1607749D02*
D03*
X954000Y1604000D02*
D03*
X932000D02*
D03*
X1107000Y1664000D02*
D03*
X1058750Y1688750D02*
D03*
X1377000Y1586000D02*
D03*
X1413000D02*
D03*
X1484000D02*
D03*
X1426003Y1240003D02*
D03*
X1453000Y1253000D02*
D03*
X1465000Y1532000D02*
D03*
X934000Y1525000D02*
D03*
X919000Y1547220D02*
D03*
X770000Y1544000D02*
D03*
X781000Y1550000D02*
D03*
X780750Y1622000D02*
D03*
X800000D02*
D03*
X720000Y1603000D02*
D03*
X801000Y1551000D02*
D03*
X954000Y1525000D02*
D03*
X813000Y1568000D02*
D03*
X844000D02*
D03*
Y1555000D02*
D03*
X840000Y1420000D02*
D03*
X811000Y1442000D02*
D03*
X836000Y1525000D02*
D03*
X839000Y1442000D02*
D03*
X809000Y1493000D02*
D03*
X827000D02*
D03*
X836000Y1502000D02*
D03*
X796000Y1420000D02*
D03*
X776000Y1463000D02*
D03*
X804000Y1404000D02*
D03*
X908000Y1257000D02*
D03*
X834000Y1391000D02*
D03*
X908000Y1271000D02*
D03*
X1068998Y1229998D02*
D03*
X1009000Y818000D02*
D03*
X1110000Y1252000D02*
D03*
X1100000Y1230000D02*
D03*
X1088000Y1240710D02*
D03*
X1089000Y1470000D02*
D03*
X1043000Y1297000D02*
D03*
X1129250Y1327750D02*
D03*
X1142000Y1336000D02*
D03*
X1076000Y1346000D02*
D03*
X1033000Y1312000D02*
D03*
X648000Y1555000D02*
D03*
X574000Y1523000D02*
D03*
Y1422000D02*
D03*
X707000D02*
D03*
X377750Y1614000D02*
D03*
X436000Y1581000D02*
D03*
X481000Y1554000D02*
D03*
X574000Y1358000D02*
D03*
X458000Y1524000D02*
D03*
X559000Y1423000D02*
D03*
X561000Y1358000D02*
D03*
X294000Y1625000D02*
D03*
X247000Y1585000D02*
D03*
X226000Y1534000D02*
D03*
X187000Y1550000D02*
D03*
X248000Y1567000D02*
D03*
Y1550000D02*
D03*
X366000Y1547000D02*
D03*
X707000Y1336000D02*
D03*
X721040Y1370960D02*
D03*
X721000Y1336000D02*
D03*
X735250D02*
D03*
X748250D02*
D03*
X748000Y1430957D02*
D03*
X1075000Y1379000D02*
D03*
X696000Y1361000D02*
D03*
Y1414000D02*
D03*
X248000Y1515000D02*
D03*
X278000Y1542000D02*
D03*
X364000Y1490000D02*
D03*
X427000Y1626000D02*
D03*
X457000D02*
D03*
X218000Y1625000D02*
D03*
X241000Y1614000D02*
D03*
X280000Y1600000D02*
D03*
X136000Y1493000D02*
D03*
X134000Y1363000D02*
D03*
X138000Y1424997D02*
D03*
X435000Y1514000D02*
D03*
X405000Y1553000D02*
D03*
X435000Y1541000D02*
D03*
X406000Y1614000D02*
D03*
X1059998Y1200998D02*
D03*
X1050998Y1242998D02*
D03*
X1059998Y1187998D02*
D03*
X418000Y976000D02*
D03*
Y1047000D02*
D03*
X113000Y1011000D02*
D03*
X375000Y993000D02*
D03*
X178000Y1110000D02*
D03*
Y1138000D02*
D03*
X407000Y1122000D02*
D03*
X638000Y948000D02*
D03*
X623000D02*
D03*
X406000Y1004000D02*
D03*
X157000Y1209000D02*
D03*
X244000D02*
D03*
X1077998Y710999D02*
D03*
X1173000Y575000D02*
D03*
X1149998Y559999D02*
D03*
X620000Y1298000D02*
D03*
X1373000Y455000D02*
D03*
X1352000Y402000D02*
D03*
X1381040Y494000D02*
D03*
X1378000Y428000D02*
D03*
X1380997Y446999D02*
D03*
X1390000Y464000D02*
D03*
X1424386Y489000D02*
D03*
X1378000Y350000D02*
D03*
X1390000Y357000D02*
D03*
X1398000Y323000D02*
D03*
X1408000Y336000D02*
D03*
X1371000Y512000D02*
D03*
X1313500Y680000D02*
D03*
X1250000Y744000D02*
D03*
X1271000Y820000D02*
D03*
X1244000Y808000D02*
D03*
X1241998Y860998D02*
D03*
X1252998Y862998D02*
D03*
X1280000Y785000D02*
D03*
X1187000Y467000D02*
D03*
X1206000Y534000D02*
D03*
X1243000Y495000D02*
D03*
X992000Y491000D02*
D03*
X965000Y499000D02*
D03*
X984000Y500000D02*
D03*
X651000Y948000D02*
D03*
X665000Y947000D02*
D03*
X678000D02*
D03*
X691000D02*
D03*
X703000D02*
D03*
X717000D02*
D03*
X1130000Y1449000D02*
D03*
X1241000Y1436000D02*
D03*
X1144000Y1434000D02*
D03*
X985000Y444000D02*
D03*
X1100000Y572000D02*
D03*
X520000D02*
D03*
X506710Y583000D02*
D03*
X1088000D02*
D03*
X940000Y490000D02*
D03*
X1109000Y561000D02*
D03*
X921000Y478040D02*
D03*
X942000Y605000D02*
D03*
X1161998Y650999D02*
D03*
X911998Y641999D02*
D03*
X963000Y622000D02*
D03*
X951000Y453000D02*
D03*
X930000Y464000D02*
D03*
X931000Y453000D02*
D03*
X974450Y403450D02*
D03*
X894000Y490000D02*
D03*
X884000Y499000D02*
D03*
X912460Y423000D02*
D03*
X965000Y424000D02*
D03*
X894998Y452999D02*
D03*
X867000Y548000D02*
D03*
X858000Y536000D02*
D03*
X864000Y443000D02*
D03*
X848000Y562000D02*
D03*
X838000Y418000D02*
D03*
X912000Y621000D02*
D03*
X856000D02*
D03*
X826000Y418000D02*
D03*
X824000Y931000D02*
D03*
X964000Y923000D02*
D03*
X898000Y906000D02*
D03*
X1018000Y652000D02*
D03*
X1019000Y897000D02*
D03*
X963000Y742000D02*
D03*
Y911000D02*
D03*
X898000Y829000D02*
D03*
X1142000Y828000D02*
D03*
X730000Y947000D02*
D03*
X745000D02*
D03*
X745000Y915000D02*
D03*
X730000Y912000D02*
D03*
X814000Y418000D02*
D03*
X964000Y1214000D02*
D03*
X1078000Y1284000D02*
D03*
X755000Y1115000D02*
D03*
Y1095000D02*
D03*
X756000Y1152000D02*
D03*
Y1164000D02*
D03*
X755000Y1201000D02*
D03*
Y1216000D02*
D03*
Y1230000D02*
D03*
X756000Y1255000D02*
D03*
X724000Y1262000D02*
D03*
X585999Y1260997D02*
D03*
X615000Y1261000D02*
D03*
X573000D02*
D03*
X567000Y1213000D02*
D03*
X578000Y1172000D02*
D03*
Y1157000D02*
D03*
X566999Y1092998D02*
D03*
X566000Y1078000D02*
D03*
X643000Y1073000D02*
D03*
X659999Y1072998D02*
D03*
X698999D02*
D03*
X799000Y1274000D02*
D03*
X518000Y1266000D02*
D03*
X676000Y1350000D02*
D03*
X662999Y1260997D02*
D03*
X734000Y1073000D02*
D03*
X804000Y1079000D02*
D03*
X760000Y1044000D02*
D03*
X778000Y1064000D02*
D03*
X716000Y1101000D02*
D03*
X755999Y1140998D02*
D03*
X717000Y1133000D02*
D03*
X754998Y1189998D02*
D03*
X717000Y1181000D02*
D03*
X744000Y1261000D02*
D03*
X674000Y1223000D02*
D03*
X602000Y1251000D02*
D03*
X610000Y1223000D02*
D03*
X599000Y1290000D02*
D03*
Y1326000D02*
D03*
X674000Y1290000D02*
D03*
Y1327000D02*
D03*
X574000Y1235000D02*
D03*
X577500Y1185000D02*
D03*
X605000Y1194000D02*
D03*
X629999Y1072998D02*
D03*
X616000Y1088000D02*
D03*
X670999Y1072998D02*
D03*
X685000Y1083000D02*
D03*
X677000Y1111000D02*
D03*
X605000Y1136000D02*
D03*
X567000Y1120000D02*
D03*
X578000Y1127120D02*
D03*
X604000Y1362000D02*
D03*
Y1375000D02*
D03*
X617000D02*
D03*
Y1362000D02*
D03*
X630000Y1375000D02*
D03*
Y1362000D02*
D03*
X643000Y1375000D02*
D03*
Y1362000D02*
D03*
X657000Y1375000D02*
D03*
Y1362000D02*
D03*
X671000Y1375000D02*
D03*
Y1362000D02*
D03*
X448750Y1614750D02*
D03*
X335000Y1644000D02*
D03*
X261000Y1614000D02*
D03*
X202000D02*
D03*
X1481000Y1130000D02*
D03*
X1466000Y1116000D02*
D03*
X1354000D02*
D03*
X1192500Y1115500D02*
D03*
X1329000Y1130000D02*
D03*
X1220000Y1605000D02*
D03*
X1270000Y1575000D02*
D03*
X1258000Y1537000D02*
D03*
X1415000Y997000D02*
D03*
X1426000Y1167000D02*
D03*
X1354500Y1181500D02*
D03*
X1014998Y422999D02*
D03*
X1084000Y423000D02*
D03*
X1029000Y464000D02*
D03*
X1329993Y348000D02*
D03*
X1167000D02*
D03*
X1155000Y361000D02*
D03*
X452000Y704000D02*
D03*
X942000Y1342000D02*
D03*
X350000Y1501000D02*
D03*
X54000Y1227000D02*
D03*
X775000Y999000D02*
D03*
X1395000Y1215000D02*
D03*
X937000Y1406000D02*
D03*
X936000Y1431000D02*
D03*
X939000Y1383000D02*
D03*
X156000Y1479000D02*
D03*
X731000Y987000D02*
D03*
X717500D02*
D03*
X882000Y433000D02*
D03*
D88*
X245000Y962000D02*
D03*
Y931000D02*
D03*
X244000Y1478000D02*
D03*
X230000Y1463000D02*
D03*
Y946000D02*
D03*
X146000Y675000D02*
D03*
X160000Y856000D02*
D03*
X161000Y691000D02*
D03*
X202000Y674110D02*
D03*
X221000Y691000D02*
D03*
X202000Y546000D02*
D03*
X221000Y547000D02*
D03*
X449040Y962000D02*
D03*
X1176000Y778000D02*
D03*
X221000Y658000D02*
D03*
X146000Y840998D02*
D03*
X450000Y930000D02*
D03*
X435000Y909000D02*
D03*
X578000Y554000D02*
D03*
Y878000D02*
D03*
X560000Y862000D02*
D03*
X646000Y762000D02*
D03*
X539753Y1665753D02*
D03*
X34000Y1545495D02*
D03*
X645000Y1668000D02*
D03*
X13000Y1372000D02*
D03*
X27000Y1467000D02*
D03*
Y1339000D02*
D03*
X13000Y1500000D02*
D03*
X636000Y743000D02*
D03*
X729220Y707220D02*
D03*
X653000Y707000D02*
D03*
X472000Y240000D02*
D03*
X469000Y809000D02*
D03*
X468999Y792998D02*
D03*
X452000Y822000D02*
D03*
X484000Y730000D02*
D03*
X730780Y742780D02*
D03*
X728000Y763960D02*
D03*
X483000Y909000D02*
D03*
Y945000D02*
D03*
X560000Y535000D02*
D03*
X435000Y946000D02*
D03*
X645000Y808000D02*
D03*
X1193000Y765000D02*
D03*
X811000Y870960D02*
D03*
X791000Y886000D02*
D03*
X1144000Y857000D02*
D03*
X1159000Y840000D02*
D03*
X791000Y1026000D02*
D03*
X811000Y999000D02*
D03*
D89*
X452000Y776000D02*
D03*
X620000Y1120001D02*
D03*
Y1140001D02*
D03*
Y1160001D02*
D03*
Y1180001D02*
D03*
Y1200001D02*
D03*
Y1220001D02*
D03*
X640001Y1120001D02*
D03*
Y1140001D02*
D03*
Y1160001D02*
D03*
Y1180001D02*
D03*
Y1200001D02*
D03*
Y1220001D02*
D03*
Y1240001D02*
D03*
Y1260001D02*
D03*
X660001Y1120001D02*
D03*
Y1140001D02*
D03*
Y1160001D02*
D03*
Y1180001D02*
D03*
Y1200001D02*
D03*
Y1220001D02*
D03*
X680001Y1140001D02*
D03*
Y1160001D02*
D03*
Y1180001D02*
D03*
Y1200001D02*
D03*
X700001Y1120001D02*
D03*
Y1140001D02*
D03*
Y1160001D02*
D03*
Y1180001D02*
D03*
Y1200001D02*
D03*
Y1220001D02*
D03*
D90*
X377750Y415000D02*
D03*
X412250D02*
D03*
X62750Y417500D02*
D03*
X97250D02*
D03*
X217750Y415000D02*
D03*
X252250D02*
D03*
X643250Y284000D02*
D03*
X608750D02*
D03*
D91*
X1408000Y1540250D02*
D03*
Y1505750D02*
D03*
X1409000Y1200750D02*
D03*
Y1166250D02*
D03*
X359000Y612250D02*
D03*
Y577750D02*
D03*
D92*
X1224000Y622350D02*
D03*
Y589650D02*
D03*
D93*
X660400Y320000D02*
D03*
D94*
X635000D02*
D03*
X609600D02*
D03*
X584200D02*
D03*
X660400Y412000D02*
D03*
X635000D02*
D03*
X609600D02*
D03*
X584200D02*
D03*
D95*
X97000Y1461250D02*
D03*
Y1521750D02*
D03*
X94500Y1326250D02*
D03*
Y1386750D02*
D03*
D96*
X588000Y1605000D02*
D03*
X648500D02*
D03*
D97*
X522000Y167000D02*
Y190000D01*
Y167000D02*
X533000Y156000D01*
X575000D01*
X590000Y141000D01*
Y60000D02*
Y141000D01*
X730000Y160000D02*
Y190000D01*
X719026Y149026D02*
X730000Y160000D01*
X649026Y149026D02*
X719026D01*
X640000Y140000D02*
X649026Y149026D01*
X640000Y60000D02*
Y140000D01*
D98*
X1105000Y1373000D02*
D03*
X855998Y236000D02*
D03*
X104000Y1019000D02*
D03*
X890000Y414000D02*
D03*
X1119000Y633000D02*
D03*
X904000Y632000D02*
D03*
X567000Y1201000D02*
D03*
X578000Y1143000D02*
D03*
M02*
