G04 Layer_Color=16711935*
%FSLAX44Y44*%
%MOMM*%
G71*
G01*
G75*
%ADD109R,1.2032X0.8032*%
%ADD111R,1.3032X1.2032*%
%ADD114R,1.0032X1.2532*%
%ADD115R,1.2532X1.0032*%
%ADD116R,1.2032X1.3032*%
%ADD121R,0.8032X1.2032*%
%ADD124R,1.7032X1.1032*%
%ADD127R,1.7032X1.4032*%
%ADD129R,1.6532X2.1032*%
%ADD130R,1.4032X1.7032*%
%ADD138R,1.6732X1.2932*%
%ADD142R,1.2932X1.6732*%
%ADD143R,1.1032X1.7032*%
%ADD154R,1.9532X1.3032*%
%ADD157R,1.4715X1.4715*%
%ADD158C,1.4715*%
%ADD159R,1.6032X1.6032*%
%ADD160C,1.6032*%
%ADD161C,0.2032*%
%ADD162C,7.0032*%
%ADD163R,3.2032X3.2032*%
%ADD164C,3.2032*%
%ADD165C,1.5240*%
%ADD166R,1.5240X1.5240*%
%ADD167R,2.0032X2.0032*%
%ADD168C,2.0032*%
%ADD169C,1.9032*%
%ADD170C,2.6032*%
%ADD171O,2.6032X2.7032*%
%ADD172R,1.4715X1.4715*%
%ADD173R,1.8532X1.8532*%
%ADD174C,1.8532*%
G04:AMPARAMS|DCode=175|XSize=2.4532mm|YSize=3.7032mm|CornerRadius=0.6641mm|HoleSize=0mm|Usage=FLASHONLY|Rotation=180.000|XOffset=0mm|YOffset=0mm|HoleType=Round|Shape=RoundedRectangle|*
%AMROUNDEDRECTD175*
21,1,2.4532,2.3750,0,0,180.0*
21,1,1.1250,3.7032,0,0,180.0*
1,1,1.3282,-0.5625,1.1875*
1,1,1.3282,0.5625,1.1875*
1,1,1.3282,0.5625,-1.1875*
1,1,1.3282,-0.5625,-1.1875*
%
%ADD175ROUNDEDRECTD175*%
%ADD176R,2.4532X3.7032*%
%ADD177R,1.8532X1.8532*%
%ADD178C,2.6162*%
%ADD179C,1.0032*%
%ADD180C,1.5032*%
%ADD181R,2.7032X2.6532*%
%ADD182R,2.6532X2.7032*%
%ADD183O,0.9032X2.0532*%
%ADD184R,0.9032X2.0532*%
%ADD185R,2.0532X1.3032*%
%ADD186R,1.3032X1.9532*%
%ADD187C,1.1032*%
%ADD188C,0.8032*%
G36*
X1500000Y1608000D02*
X1419000D01*
X1404000Y1623000D01*
Y1700000D01*
X1500000D01*
Y1608000D01*
D02*
G37*
D109*
X576000Y437500D02*
D03*
Y456500D02*
D03*
X600000Y447000D02*
D03*
D111*
X933000Y1588000D02*
D03*
Y1572000D02*
D03*
X781000Y1611000D02*
D03*
Y1595000D02*
D03*
X1194500Y1520000D02*
D03*
Y1536000D02*
D03*
X619000Y1099000D02*
D03*
Y1083000D02*
D03*
X711000Y1235000D02*
D03*
Y1251000D02*
D03*
X670000Y1235000D02*
D03*
Y1251000D02*
D03*
X602000Y1235000D02*
D03*
Y1251000D02*
D03*
X588000Y1235000D02*
D03*
Y1251000D02*
D03*
X616000Y1235000D02*
D03*
Y1251000D02*
D03*
X1266000Y864000D02*
D03*
Y848000D02*
D03*
X1286000Y774000D02*
D03*
Y758000D02*
D03*
X1392000Y710000D02*
D03*
Y726000D02*
D03*
X38000Y1154000D02*
D03*
Y1138000D02*
D03*
X1377000Y847750D02*
D03*
Y863750D02*
D03*
X1363000Y863750D02*
D03*
Y847750D02*
D03*
X1472000Y883000D02*
D03*
Y899000D02*
D03*
X1309000Y1177000D02*
D03*
Y1193000D02*
D03*
X1253000Y1338000D02*
D03*
Y1322000D02*
D03*
X988000Y1426000D02*
D03*
Y1410000D02*
D03*
X204500Y1067500D02*
D03*
Y1051500D02*
D03*
X533000Y1151000D02*
D03*
Y1167000D02*
D03*
X574000Y1235000D02*
D03*
Y1251000D02*
D03*
X662000Y1085000D02*
D03*
Y1101000D02*
D03*
X1286000Y606500D02*
D03*
Y590500D02*
D03*
X690000Y1085000D02*
D03*
Y1101000D02*
D03*
X29500Y1356000D02*
D03*
Y1372000D02*
D03*
X704000Y1085000D02*
D03*
Y1101000D02*
D03*
X194000Y1433000D02*
D03*
Y1449000D02*
D03*
X543250Y1532000D02*
D03*
Y1548000D02*
D03*
X955000Y1572000D02*
D03*
Y1588000D02*
D03*
X801000Y1595000D02*
D03*
Y1611000D02*
D03*
X32000Y906000D02*
D03*
Y922000D02*
D03*
X676000Y1103000D02*
D03*
Y1087000D02*
D03*
X1288000Y1601000D02*
D03*
Y1617000D02*
D03*
X1177000Y1391000D02*
D03*
Y1375000D02*
D03*
X1201000Y1392000D02*
D03*
Y1408000D02*
D03*
X32000Y1486000D02*
D03*
Y1502000D02*
D03*
D114*
X1228750Y286000D02*
D03*
X1213250D02*
D03*
X1097750D02*
D03*
X1082250D02*
D03*
X876750Y283000D02*
D03*
X861250D02*
D03*
X994750Y282000D02*
D03*
X979250D02*
D03*
X994000Y250250D02*
D03*
X1009500D02*
D03*
X616750Y420000D02*
D03*
X601250D02*
D03*
X1428250Y1061000D02*
D03*
X1443750D02*
D03*
X1428250Y1047000D02*
D03*
X1443750D02*
D03*
X1322250Y1177000D02*
D03*
X1337750D02*
D03*
Y1193000D02*
D03*
X1322250D02*
D03*
X1302250Y1600000D02*
D03*
X1317750D02*
D03*
Y1616000D02*
D03*
X1302250D02*
D03*
X1190250Y1295750D02*
D03*
X1205750D02*
D03*
X1109250Y286000D02*
D03*
X1124750D02*
D03*
X1153750Y258000D02*
D03*
X1138250D02*
D03*
X1246500Y249500D02*
D03*
X1231000D02*
D03*
X759250Y252000D02*
D03*
X774750D02*
D03*
X877250D02*
D03*
X892750D02*
D03*
X759750Y283000D02*
D03*
X744250D02*
D03*
X1485750Y919000D02*
D03*
X1470250D02*
D03*
X1072750Y252250D02*
D03*
X1057250D02*
D03*
D115*
X582000Y417750D02*
D03*
Y402250D02*
D03*
X731000Y961000D02*
D03*
Y976500D02*
D03*
X717500Y961000D02*
D03*
Y976500D02*
D03*
D116*
X743500Y1118000D02*
D03*
X727500D02*
D03*
X743500Y1104000D02*
D03*
X727500D02*
D03*
X1252500Y587000D02*
D03*
X1268500D02*
D03*
X727500Y1189000D02*
D03*
X743500D02*
D03*
X594000Y1129000D02*
D03*
X578000D02*
D03*
X727000Y1248000D02*
D03*
X743000D02*
D03*
X594000Y1077000D02*
D03*
X578000D02*
D03*
X727500Y1132000D02*
D03*
X743500D02*
D03*
X594000Y1185500D02*
D03*
X578000D02*
D03*
X506000Y408000D02*
D03*
X490000D02*
D03*
X531000Y437000D02*
D03*
X515000D02*
D03*
X1297000Y814000D02*
D03*
X1281000D02*
D03*
X1306000Y699000D02*
D03*
X1322000D02*
D03*
X1306000Y713000D02*
D03*
X1322000D02*
D03*
X870000Y667000D02*
D03*
X854000D02*
D03*
X1239000Y882500D02*
D03*
X1255000D02*
D03*
X1255000Y899250D02*
D03*
X1239000D02*
D03*
X1239000Y912250D02*
D03*
X1255000D02*
D03*
X743500Y1217000D02*
D03*
X727500D02*
D03*
X743500Y1231000D02*
D03*
X727500D02*
D03*
X743500Y1203000D02*
D03*
X727500D02*
D03*
X1007000Y1535500D02*
D03*
X991000D02*
D03*
X989000Y1483500D02*
D03*
X1005000D02*
D03*
X1058750Y1467500D02*
D03*
X1042750D02*
D03*
X1058750Y1481500D02*
D03*
X1042750D02*
D03*
X1058000Y1536500D02*
D03*
X1042000D02*
D03*
X1005000Y1469500D02*
D03*
X989000D02*
D03*
X1009000Y1406500D02*
D03*
X1025000D02*
D03*
X1009000Y1389000D02*
D03*
X1025000D02*
D03*
X991000Y1552500D02*
D03*
X1007000D02*
D03*
X989000Y1497000D02*
D03*
X1005000D02*
D03*
X1043500Y1555000D02*
D03*
X1059500D02*
D03*
X1042750Y1499000D02*
D03*
X1058750D02*
D03*
X578000Y1115000D02*
D03*
X594000D02*
D03*
X124000Y777000D02*
D03*
X108000D02*
D03*
X745000Y413000D02*
D03*
X761000D02*
D03*
X651000Y1030000D02*
D03*
X635000D02*
D03*
X1194000Y1506000D02*
D03*
X1210000D02*
D03*
X1117250Y433000D02*
D03*
X1101250D02*
D03*
X1196000Y359000D02*
D03*
X1180000D02*
D03*
X1348250Y445750D02*
D03*
X1364250D02*
D03*
X1348250Y431750D02*
D03*
X1364250D02*
D03*
X1321250Y493750D02*
D03*
X1305250D02*
D03*
X1321250Y479500D02*
D03*
X1305250D02*
D03*
X1321250Y465500D02*
D03*
X1305250D02*
D03*
X1321250Y451750D02*
D03*
X1305250D02*
D03*
X727500Y1168000D02*
D03*
X743500D02*
D03*
X727500Y1148000D02*
D03*
X743500D02*
D03*
X1252500Y601000D02*
D03*
X1268500D02*
D03*
X1252500Y615000D02*
D03*
X1268500D02*
D03*
X1252500Y628500D02*
D03*
X1268500D02*
D03*
X1252500Y642000D02*
D03*
X1268500D02*
D03*
X1252500Y573000D02*
D03*
X1268500D02*
D03*
X1252500Y559000D02*
D03*
X1268500D02*
D03*
X1252500Y545000D02*
D03*
X1268500D02*
D03*
X202000Y1571250D02*
D03*
X218000D02*
D03*
X377750Y1566750D02*
D03*
X393750D02*
D03*
X202000Y1550250D02*
D03*
X218000D02*
D03*
X377750Y1546750D02*
D03*
X393750D02*
D03*
X278000Y1551500D02*
D03*
X262000D02*
D03*
X466000Y1554000D02*
D03*
X450000D02*
D03*
X262000Y1584000D02*
D03*
X278000D02*
D03*
X450250Y1573000D02*
D03*
X466250D02*
D03*
X262000Y1566500D02*
D03*
X278000D02*
D03*
X184000Y1479000D02*
D03*
X168000D02*
D03*
X185000Y1391000D02*
D03*
X169000D02*
D03*
X633750Y1541250D02*
D03*
X617750D02*
D03*
X617750Y1555000D02*
D03*
X633750D02*
D03*
X847000Y1391000D02*
D03*
X863000D02*
D03*
X847000Y1405000D02*
D03*
X863000D02*
D03*
X767000Y1668000D02*
D03*
X751000D02*
D03*
X811000Y1456000D02*
D03*
X827000D02*
D03*
X810750Y1420000D02*
D03*
X826750D02*
D03*
X918000Y1668000D02*
D03*
X902000D02*
D03*
X578000Y1171500D02*
D03*
X594000D02*
D03*
X578000Y1157000D02*
D03*
X594000D02*
D03*
X578000Y1143000D02*
D03*
X594000D02*
D03*
X689000Y1030000D02*
D03*
X673000D02*
D03*
X680000Y707000D02*
D03*
X696000D02*
D03*
X610250Y1667500D02*
D03*
X626250D02*
D03*
D121*
X1048500Y1595000D02*
D03*
X1029500D02*
D03*
X1039000Y1619000D02*
D03*
X1116500Y1595000D02*
D03*
X1097500D02*
D03*
X1107000Y1619000D02*
D03*
D124*
X1474000Y839500D02*
D03*
Y860500D02*
D03*
D127*
X75499Y924500D02*
D03*
Y903500D02*
D03*
D129*
X672000Y636500D02*
D03*
X704000D02*
D03*
X672000Y667000D02*
D03*
X704000D02*
D03*
D130*
X579000Y1093000D02*
D03*
X600000D02*
D03*
X739500Y1085000D02*
D03*
X718500D02*
D03*
X515500Y454000D02*
D03*
X536500D02*
D03*
D138*
X855000Y1512100D02*
D03*
Y1493900D02*
D03*
D142*
X1365900Y1272500D02*
D03*
X1384100D02*
D03*
D143*
X519500Y410000D02*
D03*
X540500D02*
D03*
X1361501Y756001D02*
D03*
X1382500D02*
D03*
X1361000Y786000D02*
D03*
X1382000D02*
D03*
D154*
X1387000Y1180750D02*
D03*
Y1215250D02*
D03*
X314000Y577000D02*
D03*
Y611500D02*
D03*
X1347000Y1590750D02*
D03*
Y1625250D02*
D03*
D157*
X948248Y1647500D02*
D03*
X800747D02*
D03*
X300748D02*
D03*
X1078748Y1648000D02*
D03*
X1255149Y1647967D02*
D03*
X465749Y1647500D02*
D03*
X650747D02*
D03*
D158*
X928250D02*
D03*
X908252D02*
D03*
X888249D02*
D03*
X868251D02*
D03*
X780749D02*
D03*
X760751D02*
D03*
X740748D02*
D03*
X720750D02*
D03*
X280750D02*
D03*
X260752D02*
D03*
X240749D02*
D03*
X220751D02*
D03*
X200672D02*
D03*
X1450000Y727000D02*
D03*
Y746998D02*
D03*
Y767001D02*
D03*
Y786999D02*
D03*
X1452000Y858752D02*
D03*
Y878750D02*
D03*
Y898753D02*
D03*
Y918751D02*
D03*
Y938829D02*
D03*
X1465085Y1055251D02*
D03*
Y1035253D02*
D03*
Y1015250D02*
D03*
X1451500Y1291000D02*
D03*
Y1310998D02*
D03*
X1058750Y1648000D02*
D03*
X1038752D02*
D03*
X1235151Y1647967D02*
D03*
X1215153D02*
D03*
X1195150D02*
D03*
X1450000Y471128D02*
D03*
Y451062D02*
D03*
Y431250D02*
D03*
Y411171D02*
D03*
Y391173D02*
D03*
Y371171D02*
D03*
Y351172D02*
D03*
X445751Y1647500D02*
D03*
X425752D02*
D03*
X405750D02*
D03*
X385752D02*
D03*
X365673D02*
D03*
X54500Y1504000D02*
D03*
Y1484002D02*
D03*
Y1463999D02*
D03*
X630748Y1647500D02*
D03*
X610750D02*
D03*
X590747D02*
D03*
X52000Y936501D02*
D03*
Y916503D02*
D03*
Y896500D02*
D03*
Y876502D02*
D03*
X1451500Y1416000D02*
D03*
Y1435998D02*
D03*
Y1456001D02*
D03*
X52000Y1374000D02*
D03*
Y1354002D02*
D03*
Y1333999D02*
D03*
D159*
X1450000Y636000D02*
D03*
X1425000D02*
D03*
D160*
X1450000Y616000D02*
D03*
Y596000D02*
D03*
Y576000D02*
D03*
Y556000D02*
D03*
Y536000D02*
D03*
X1425000Y616000D02*
D03*
Y596000D02*
D03*
Y576000D02*
D03*
Y556000D02*
D03*
Y536000D02*
D03*
D161*
X1437300Y656000D02*
D03*
D162*
X50000Y50000D02*
D03*
Y1650000D02*
D03*
X250000Y750000D02*
D03*
X1450000Y50000D02*
D03*
Y1650000D02*
D03*
D163*
X638310Y183578D02*
D03*
D164*
X430310D02*
D03*
X558310Y633577D02*
D03*
X638310D02*
D03*
D165*
X270000Y1158000D02*
D03*
D166*
X194000D02*
D03*
D167*
X535000Y724200D02*
D03*
D168*
Y775000D02*
D03*
Y749600D02*
D03*
D169*
X487500Y93300D02*
D03*
Y42500D02*
D03*
X336441Y45000D02*
D03*
Y95800D02*
D03*
X69500Y786000D02*
D03*
Y721000D02*
D03*
X24500D02*
D03*
Y786000D02*
D03*
D170*
X238145Y189000D02*
D03*
X163145D02*
D03*
X238145Y239000D02*
D03*
X163145D02*
D03*
X238145Y289000D02*
D03*
Y439000D02*
D03*
X163145D02*
D03*
X108062Y190000D02*
D03*
X33062D02*
D03*
X108062Y240000D02*
D03*
X33062D02*
D03*
X108062Y290000D02*
D03*
Y440000D02*
D03*
X33062D02*
D03*
X368227Y189937D02*
D03*
X293227D02*
D03*
X368227Y239937D02*
D03*
X293227D02*
D03*
X368227Y289937D02*
D03*
Y439938D02*
D03*
X293227D02*
D03*
D171*
X163145Y289000D02*
D03*
X33062Y290000D02*
D03*
X293227Y289937D02*
D03*
D172*
X1450000Y707002D02*
D03*
X1452000Y838754D02*
D03*
X1465085Y1075249D02*
D03*
X1451500Y1271002D02*
D03*
X1450000Y331174D02*
D03*
X54500Y1523998D02*
D03*
X52000Y956499D02*
D03*
X1451500Y1396002D02*
D03*
X52000Y1393998D02*
D03*
D173*
X56600Y1153100D02*
D03*
D174*
X82000D02*
D03*
X56600Y1127700D02*
D03*
X82000D02*
D03*
X56600Y1102300D02*
D03*
X82000D02*
D03*
X56600Y1076900D02*
D03*
X82000D02*
D03*
X56600Y1051500D02*
D03*
X82000D02*
D03*
X1279800Y81150D02*
D03*
Y55750D02*
D03*
X1254400Y81150D02*
D03*
Y55750D02*
D03*
X1229000Y81150D02*
D03*
Y55750D02*
D03*
X1203600Y81150D02*
D03*
Y55750D02*
D03*
X1178200Y81150D02*
D03*
Y55750D02*
D03*
X1152800Y81150D02*
D03*
Y55750D02*
D03*
X1127400Y81150D02*
D03*
Y55750D02*
D03*
X1102000Y81150D02*
D03*
X938400D02*
D03*
Y55750D02*
D03*
X913000Y81150D02*
D03*
Y55750D02*
D03*
X887600Y81150D02*
D03*
Y55750D02*
D03*
X862200Y81150D02*
D03*
Y55750D02*
D03*
X836800Y81150D02*
D03*
Y55750D02*
D03*
X811400Y81150D02*
D03*
Y55750D02*
D03*
X786000Y81150D02*
D03*
Y55750D02*
D03*
X760600Y81150D02*
D03*
D175*
X135000Y57500D02*
D03*
X185000D02*
D03*
X235000D02*
D03*
X386970Y60000D02*
D03*
X590000D02*
D03*
X540000D02*
D03*
D176*
X285000Y57500D02*
D03*
X436970Y60000D02*
D03*
X640000D02*
D03*
D177*
X1102000Y55750D02*
D03*
X760600D02*
D03*
D178*
X764000Y685000D02*
D03*
Y735800D02*
D03*
D179*
X785000Y397000D02*
D03*
X888000Y415000D02*
D03*
X1005000Y416000D02*
D03*
X753000Y1624000D02*
D03*
X818600Y1611600D02*
D03*
X765000Y1611000D02*
D03*
X970000Y1589000D02*
D03*
X918000Y1588000D02*
D03*
X905000Y1594000D02*
D03*
X314000Y635000D02*
D03*
X104000Y642000D02*
D03*
X166500Y599750D02*
D03*
X178000Y1221000D02*
D03*
X138750Y1363000D02*
D03*
X134750Y1443750D02*
D03*
X134500Y1425250D02*
D03*
X1078500Y687500D02*
D03*
X1479250Y1148250D02*
D03*
Y1333000D02*
D03*
X1466000Y1347750D02*
D03*
X1453750Y1252000D02*
D03*
X1418000Y900000D02*
D03*
X1377000Y887000D02*
D03*
X1000000Y564000D02*
D03*
X304000Y518000D02*
D03*
X16000D02*
D03*
X155000Y1209000D02*
D03*
Y1112000D02*
D03*
X1118003Y1438997D02*
D03*
X1041000Y1366000D02*
D03*
X1081000Y1316000D02*
D03*
X1333000Y1453000D02*
D03*
X1395000Y1432000D02*
D03*
X1349000Y1358000D02*
D03*
X1271000Y1408000D02*
D03*
Y1333000D02*
D03*
X518000Y1248000D02*
D03*
X575000Y1222000D02*
D03*
X448000Y1025000D02*
D03*
X505000Y1029000D02*
D03*
X439000Y1047000D02*
D03*
X552000Y985000D02*
D03*
X663000Y949000D02*
D03*
X677000D02*
D03*
X690000D02*
D03*
X367000Y1037000D02*
D03*
X552000Y973000D02*
D03*
X376000Y1183000D02*
D03*
X367000Y1191000D02*
D03*
X270000D02*
D03*
X356000Y1490000D02*
D03*
X346000Y1501000D02*
D03*
X682000Y1015000D02*
D03*
X1237000Y641000D02*
D03*
X1222000Y617000D02*
D03*
X1221840Y630000D02*
D03*
X911000Y667000D02*
D03*
X933000Y655000D02*
D03*
Y1082000D02*
D03*
X927040Y606960D02*
D03*
X1009000Y763960D02*
D03*
X1221500Y587250D02*
D03*
Y602250D02*
D03*
X984000Y642000D02*
D03*
X951000Y633000D02*
D03*
X1221500Y573250D02*
D03*
X1342000Y569685D02*
D03*
X1329000Y572000D02*
D03*
Y521000D02*
D03*
X1316000Y561000D02*
D03*
X1238000Y550000D02*
D03*
X1467000Y658000D02*
D03*
Y576000D02*
D03*
X1486000Y616000D02*
D03*
X1341997Y520999D02*
D03*
X1379000Y517000D02*
D03*
X975000Y598000D02*
D03*
X1099000Y575000D02*
D03*
X1009000Y552000D02*
D03*
X1152960Y530960D02*
D03*
X1405960Y541040D02*
D03*
X1396000Y509000D02*
D03*
X1387000Y533000D02*
D03*
X1378497Y611249D02*
D03*
X1378000Y592000D02*
D03*
X1285000Y573500D02*
D03*
X1421886Y653250D02*
D03*
X1268000Y670000D02*
D03*
X1317500Y648250D02*
D03*
X1126000Y797000D02*
D03*
X1229000Y563000D02*
D03*
X1027000Y539000D02*
D03*
X1035000Y486000D02*
D03*
X1061998Y530999D02*
D03*
X1044000Y1162000D02*
D03*
X1004000Y519040D02*
D03*
X1285000Y490000D02*
D03*
Y477000D02*
D03*
Y465000D02*
D03*
X1267000Y448000D02*
D03*
X1320750Y436500D02*
D03*
X1257000Y469000D02*
D03*
X1164000Y463000D02*
D03*
X1117998Y462999D02*
D03*
X1109000Y454000D02*
D03*
X1177000D02*
D03*
X1160000Y1198000D02*
D03*
X1164000Y424000D02*
D03*
X1233000Y449000D02*
D03*
X1245000Y460000D02*
D03*
X1328000Y401000D02*
D03*
X1368000Y335000D02*
D03*
X1004000Y446000D02*
D03*
X628000D02*
D03*
X637000Y436000D02*
D03*
X652000Y454000D02*
D03*
X1178000Y121000D02*
D03*
X888000Y108000D02*
D03*
X991000Y52000D02*
D03*
Y194000D02*
D03*
X980000Y205000D02*
D03*
Y84000D02*
D03*
X1127000Y134000D02*
D03*
X1102000Y136000D02*
D03*
X946000Y205000D02*
D03*
X877000D02*
D03*
Y179000D02*
D03*
X1152000Y125000D02*
D03*
X1229000Y109000D02*
D03*
X842000Y142000D02*
D03*
X802000Y423500D02*
D03*
X1152750Y417250D02*
D03*
X917750Y415000D02*
D03*
X902250Y415250D02*
D03*
X1035750Y416000D02*
D03*
X1019500Y416500D02*
D03*
X1084750Y433000D02*
D03*
X1136750Y416000D02*
D03*
X1225250Y411250D02*
D03*
X1213500Y425750D02*
D03*
X1214500Y399000D02*
D03*
X1208000Y359250D02*
D03*
X1176500Y394250D02*
D03*
X1261500Y426000D02*
D03*
X1245250Y415250D02*
D03*
X1414000Y1036000D02*
D03*
X1420000Y1060000D02*
D03*
X206000Y1037000D02*
D03*
X125000Y1097000D02*
D03*
X127000Y735000D02*
D03*
X134000Y1088000D02*
D03*
X113000Y1140000D02*
D03*
Y1102000D02*
D03*
X130000Y791000D02*
D03*
X125000Y826000D02*
D03*
X115000Y816000D02*
D03*
X90000Y906000D02*
D03*
X115000Y931000D02*
D03*
X101000Y925000D02*
D03*
X259000Y1504000D02*
D03*
Y1285000D02*
D03*
X257000Y1249000D02*
D03*
X406000Y1285000D02*
D03*
X395000Y1155000D02*
D03*
Y974000D02*
D03*
X385000Y1168000D02*
D03*
Y984000D02*
D03*
X218000Y1225000D02*
D03*
X44000Y1209000D02*
D03*
X163000Y1179000D02*
D03*
X177000Y1171000D02*
D03*
X163000Y1250000D02*
D03*
X300000Y1179000D02*
D03*
X244000Y1057000D02*
D03*
X261000Y1236000D02*
D03*
X230000Y1195000D02*
D03*
X113000Y1228000D02*
D03*
X75000Y1227000D02*
D03*
X293000Y1583000D02*
D03*
X322000Y1439000D02*
D03*
X270000Y1493000D02*
D03*
X181000D02*
D03*
X310000Y1614000D02*
D03*
X196000Y1458000D02*
D03*
X151000Y1492000D02*
D03*
X193000Y1413997D02*
D03*
X203000Y1420000D02*
D03*
X173000Y1404000D02*
D03*
X602000Y1536000D02*
D03*
X560996Y1406000D02*
D03*
X458000Y1423000D02*
D03*
X448000Y1414000D02*
D03*
X215000Y1366000D02*
D03*
X138000Y1375000D02*
D03*
X126000Y1379000D02*
D03*
X159000Y1391000D02*
D03*
X735000Y1379000D02*
D03*
X1041250Y1458000D02*
D03*
X1026000Y1431000D02*
D03*
X970000Y1471000D02*
D03*
X987000Y1510000D02*
D03*
X967000Y1414000D02*
D03*
Y1458000D02*
D03*
X988998Y1438997D02*
D03*
X977000Y1449000D02*
D03*
X1201000Y1408000D02*
D03*
X1129000Y1267000D02*
D03*
X1144000Y1257000D02*
D03*
X683999Y1438997D02*
D03*
X673000Y1449000D02*
D03*
X335000D02*
D03*
X633000Y1463000D02*
D03*
X617000Y1477000D02*
D03*
X557000D02*
D03*
X1253000Y1294000D02*
D03*
X1349000Y1321000D02*
D03*
X1053000Y1175000D02*
D03*
X1035000Y1149000D02*
D03*
X1027000Y1136000D02*
D03*
X1018000Y1122000D02*
D03*
X1009000Y1109000D02*
D03*
X975000Y1057000D02*
D03*
X984000Y1071000D02*
D03*
X951000Y1043000D02*
D03*
X910500Y1031000D02*
D03*
Y1018000D02*
D03*
X1240000Y801000D02*
D03*
X45000Y1195000D02*
D03*
X101000Y828000D02*
D03*
X1276000Y771000D02*
D03*
Y719000D02*
D03*
X1286000Y747000D02*
D03*
X1340000Y700000D02*
D03*
X1306000Y747000D02*
D03*
X1269000Y814000D02*
D03*
X433000Y755000D02*
D03*
X1030000Y1498500D02*
D03*
X979000Y1552500D02*
D03*
X1208000Y1353000D02*
D03*
X91000Y568000D02*
D03*
Y628000D02*
D03*
X94000Y778000D02*
D03*
X1401000Y866000D02*
D03*
X1351000Y848000D02*
D03*
X205000Y1433997D02*
D03*
X173000Y1458000D02*
D03*
X206000Y1468000D02*
D03*
X896000Y1497000D02*
D03*
X847000Y1538000D02*
D03*
X726000Y1516000D02*
D03*
Y1490000D02*
D03*
X645000Y1539000D02*
D03*
X616000Y1574000D02*
D03*
X543000Y1463000D02*
D03*
X516000Y1531000D02*
D03*
X556000Y1561000D02*
D03*
X1346750Y474500D02*
D03*
X1377747Y431500D02*
D03*
X1376750Y449500D02*
D03*
X1326500Y659250D02*
D03*
X1306000Y727000D02*
D03*
X1294000Y700000D02*
D03*
X1308000Y814000D02*
D03*
X1393997Y743999D02*
D03*
X1344670Y714040D02*
D03*
X1432000Y716000D02*
D03*
Y746000D02*
D03*
X1362960Y714040D02*
D03*
X1342710Y729764D02*
D03*
X1347901Y740903D02*
D03*
X673000Y1685000D02*
D03*
X989000Y1664000D02*
D03*
X1060000Y1589000D02*
D03*
X1491003Y1240003D02*
D03*
X1130000Y1515000D02*
D03*
X1016000Y1470750D02*
D03*
X1118000Y1505739D02*
D03*
X1030000Y1485500D02*
D03*
X1190000Y1343000D02*
D03*
X1200000Y1375000D02*
D03*
X1027675Y1579540D02*
D03*
X1028000Y1561000D02*
D03*
X1020000Y1552500D02*
D03*
X1029960Y1547000D02*
D03*
X1018998Y1535997D02*
D03*
X1019000Y1498000D02*
D03*
X981000Y1529000D02*
D03*
X1071000Y1555000D02*
D03*
X1143000Y1358000D02*
D03*
Y1393000D02*
D03*
X1041000Y1413000D02*
D03*
X1024000Y1377000D02*
D03*
X1070000Y1471500D02*
D03*
X1071000Y1500000D02*
D03*
X1080000Y1490000D02*
D03*
X1107000Y1664000D02*
D03*
X1058750Y1688750D02*
D03*
X1426003Y1240003D02*
D03*
X934000Y1525000D02*
D03*
X781000Y1550000D02*
D03*
X801000Y1551000D02*
D03*
X954000Y1525000D02*
D03*
X813000Y1568000D02*
D03*
X840000Y1420000D02*
D03*
X811000Y1442000D02*
D03*
X836000Y1525000D02*
D03*
X839000Y1442000D02*
D03*
X809000Y1493000D02*
D03*
X827000D02*
D03*
X836000Y1502000D02*
D03*
X776000Y1463000D02*
D03*
X804000Y1404000D02*
D03*
X834000Y1391000D02*
D03*
X1100000Y1227500D02*
D03*
X648000Y1555000D02*
D03*
X574000Y1523000D02*
D03*
X377750Y1614000D02*
D03*
X436000Y1581000D02*
D03*
X481000Y1554000D02*
D03*
X574000Y1358000D02*
D03*
X458000Y1524000D02*
D03*
X561000Y1358000D02*
D03*
X294000Y1625000D02*
D03*
X247000Y1585000D02*
D03*
X226000Y1534000D02*
D03*
X187000Y1550000D02*
D03*
X248000Y1567000D02*
D03*
Y1550000D02*
D03*
X366000Y1547000D02*
D03*
X748000Y1430957D02*
D03*
X696000Y1361000D02*
D03*
X278000Y1542000D02*
D03*
X427000Y1626000D02*
D03*
X457000D02*
D03*
X218000Y1625000D02*
D03*
X241000Y1614000D02*
D03*
X280000Y1600000D02*
D03*
X136000Y1493000D02*
D03*
X435000Y1514000D02*
D03*
X405000Y1553000D02*
D03*
X435000Y1541000D02*
D03*
X406000Y1614000D02*
D03*
X113000Y1011000D02*
D03*
X375000Y993000D02*
D03*
X178000Y1138000D02*
D03*
X406000Y1004000D02*
D03*
X244000Y1209000D02*
D03*
X620000Y1298000D02*
D03*
X1370500Y619250D02*
D03*
X1378540Y658250D02*
D03*
X1387500Y628250D02*
D03*
X717000Y947000D02*
D03*
X964000Y923000D02*
D03*
X898000Y906000D02*
D03*
X730000Y947000D02*
D03*
X745000D02*
D03*
X730000Y912000D02*
D03*
X964000Y1214000D02*
D03*
X755000Y1115000D02*
D03*
Y1095000D02*
D03*
X756000Y1152000D02*
D03*
Y1164000D02*
D03*
X755000Y1201000D02*
D03*
Y1216000D02*
D03*
Y1230000D02*
D03*
X724000Y1262000D02*
D03*
X578000Y1172000D02*
D03*
Y1157000D02*
D03*
X566999Y1092998D02*
D03*
X566000Y1078000D02*
D03*
X799000Y1274000D02*
D03*
X676000Y1350000D02*
D03*
X662999Y1260997D02*
D03*
X734000Y1073000D02*
D03*
X804000Y1079000D02*
D03*
X760000Y1044000D02*
D03*
X778000Y1064000D02*
D03*
X716000Y1101000D02*
D03*
X755999Y1140998D02*
D03*
X717000Y1133000D02*
D03*
X754998Y1189998D02*
D03*
X717000Y1181000D02*
D03*
X674000Y1223000D02*
D03*
X610000D02*
D03*
X599000Y1290000D02*
D03*
Y1326000D02*
D03*
X674000Y1290000D02*
D03*
X577500Y1185000D02*
D03*
X605000Y1194000D02*
D03*
X567000Y1120000D02*
D03*
X578000Y1127120D02*
D03*
X448750Y1614750D02*
D03*
X335000Y1644000D02*
D03*
X261000Y1614000D02*
D03*
X202000D02*
D03*
X942000Y1342000D02*
D03*
X54000Y1227000D02*
D03*
X775000Y999000D02*
D03*
X937000Y1406000D02*
D03*
X936000Y1431000D02*
D03*
X939000Y1383000D02*
D03*
X156000Y1479000D02*
D03*
X731000Y987000D02*
D03*
X717500D02*
D03*
X148000Y568000D02*
D03*
X218000Y1158000D02*
D03*
X293500Y538000D02*
D03*
X314000Y550000D02*
D03*
X293500Y643000D02*
D03*
X213000Y658000D02*
D03*
Y691000D02*
D03*
Y550000D02*
D03*
Y642000D02*
D03*
X198000Y621000D02*
D03*
X181000Y674000D02*
D03*
Y583000D02*
D03*
X156000Y605000D02*
D03*
X160000Y554000D02*
D03*
X541000Y394000D02*
D03*
X582000Y390000D02*
D03*
X563000Y437000D02*
D03*
X519999Y423999D02*
D03*
X501000Y423000D02*
D03*
X565000Y412000D02*
D03*
X817000Y259000D02*
D03*
X1037000Y242000D02*
D03*
X746650Y216350D02*
D03*
X759000Y236000D02*
D03*
X760000Y265000D02*
D03*
X747000D02*
D03*
X862500Y264750D02*
D03*
X875250Y264500D02*
D03*
X875750Y216000D02*
D03*
X992250Y265000D02*
D03*
X979500Y264750D02*
D03*
X987000Y234250D02*
D03*
X932000Y259000D02*
D03*
X1148250Y297250D02*
D03*
X1169750Y253500D02*
D03*
X1084500Y264750D02*
D03*
X1097250Y264500D02*
D03*
X1063250Y236250D02*
D03*
X941750Y234000D02*
D03*
X922250Y216250D02*
D03*
X921750Y234000D02*
D03*
X816750Y194250D02*
D03*
X932000D02*
D03*
X1037000Y194000D02*
D03*
X1169750Y193750D02*
D03*
X1109750Y264500D02*
D03*
X1122500D02*
D03*
X1097250Y225250D02*
D03*
X1227500Y265250D02*
D03*
X1214500Y265500D02*
D03*
X1286750Y249750D02*
D03*
X1206000Y216500D02*
D03*
X708250Y396500D02*
D03*
X1127250Y7750D02*
D03*
X1153000D02*
D03*
X1178500Y8000D02*
D03*
X1203250D02*
D03*
X1229250D02*
D03*
X808000Y216000D02*
D03*
X876000Y240000D02*
D03*
X807000D02*
D03*
X827000D02*
D03*
X917000Y184000D02*
D03*
X891000D02*
D03*
X835000Y180000D02*
D03*
X863000D02*
D03*
X1123000Y184000D02*
D03*
X1111000Y176000D02*
D03*
X870000Y142000D02*
D03*
X924998Y143000D02*
D03*
X900000Y142000D02*
D03*
X1097000Y165000D02*
D03*
X1119750Y236250D02*
D03*
X1216000Y234000D02*
D03*
X1152750Y518750D02*
D03*
X785250Y424000D02*
D03*
X802000Y518000D02*
D03*
X918000Y519000D02*
D03*
X619000Y1072998D02*
D03*
X178000Y1096000D02*
D03*
X406500Y1096500D02*
D03*
X204000Y1079000D02*
D03*
X408000Y1114000D02*
D03*
X772000Y399000D02*
D03*
X218000Y1037000D02*
D03*
Y1078000D02*
D03*
X408000Y572000D02*
D03*
X439000Y492000D02*
D03*
X428000Y483000D02*
D03*
X420000Y473000D02*
D03*
X310290Y1171000D02*
D03*
X430000Y1415000D02*
D03*
X419000Y1020000D02*
D03*
X430000Y1004000D02*
D03*
X594000Y948000D02*
D03*
X280000Y1432000D02*
D03*
X284000Y1123000D02*
D03*
X276000Y1133000D02*
D03*
X674000Y1327000D02*
D03*
X289000Y1397000D02*
D03*
X375000Y1265000D02*
D03*
Y1208000D02*
D03*
X385000Y1275000D02*
D03*
Y1195000D02*
D03*
X439000Y1262000D02*
D03*
X888000Y535000D02*
D03*
X636000Y949000D02*
D03*
X622000D02*
D03*
X486000Y881000D02*
D03*
X495000Y919000D02*
D03*
Y834000D02*
D03*
Y536000D02*
D03*
X649000Y949000D02*
D03*
X705000Y473040D02*
D03*
X721000Y413000D02*
D03*
X733000Y427828D02*
D03*
X734000Y491000D02*
D03*
X720998Y483000D02*
D03*
X1117000Y400000D02*
D03*
X620000Y462000D02*
D03*
X854000Y886000D02*
D03*
X870000Y871000D02*
D03*
Y640000D02*
D03*
X841000Y664000D02*
D03*
X862000Y714000D02*
D03*
X845000Y741000D02*
D03*
X941998Y751999D02*
D03*
X824000Y897000D02*
D03*
X836000Y718000D02*
D03*
X843000Y701000D02*
D03*
X1398000Y761000D02*
D03*
Y794000D02*
D03*
X1143998Y539999D02*
D03*
X1151998Y548999D02*
D03*
X1210000Y712000D02*
D03*
X890000Y743000D02*
D03*
X1129000Y869000D02*
D03*
X898000Y829000D02*
D03*
X890000Y819000D02*
D03*
X745000Y829000D02*
D03*
X835000D02*
D03*
X730000D02*
D03*
X1296000Y739000D02*
D03*
X1210000Y763000D02*
D03*
X1000000Y779000D02*
D03*
X1070000Y548000D02*
D03*
X1089000Y586000D02*
D03*
X1222000Y731000D02*
D03*
X961000D02*
D03*
Y828000D02*
D03*
X1242000Y839000D02*
D03*
X1265000Y801000D02*
D03*
X1289000Y838000D02*
D03*
X1267998Y824998D02*
D03*
X1241000Y858000D02*
D03*
X1127355Y659645D02*
D03*
X1284000Y659000D02*
D03*
X1137000Y670000D02*
D03*
X1159000Y684000D02*
D03*
X1269000Y887000D02*
D03*
X1273000Y915000D02*
D03*
X1226000Y900000D02*
D03*
X992000Y1096000D02*
D03*
X1079000Y1285000D02*
D03*
X1342000Y830000D02*
D03*
X1306000Y777000D02*
D03*
X1126000Y826000D02*
D03*
X1159000Y791000D02*
D03*
X1137000Y815000D02*
D03*
X1202000Y802000D02*
D03*
Y1084000D02*
D03*
X1212000Y815000D02*
D03*
Y1069000D02*
D03*
X1202000Y948000D02*
D03*
X1275000D02*
D03*
X1237000Y1001000D02*
D03*
X1252000Y1010000D02*
D03*
X1305000Y957000D02*
D03*
X1221000Y935000D02*
D03*
Y948000D02*
D03*
X1017998Y934998D02*
D03*
X1238000Y927000D02*
D03*
X1250000Y926000D02*
D03*
X1202000Y1034000D02*
D03*
X1018000Y1019000D02*
D03*
X1294000Y1166000D02*
D03*
X1342000Y1255000D02*
D03*
X1309000Y1163000D02*
D03*
X1409000Y1264000D02*
D03*
X1404000Y1202000D02*
D03*
X1305000Y1207000D02*
D03*
X1345000Y1209000D02*
D03*
X1314000Y864000D02*
D03*
X1391000Y1449000D02*
D03*
X1308000Y1452000D02*
D03*
X1271000Y1501000D02*
D03*
X1403000Y1360000D02*
D03*
X1326000Y1252000D02*
D03*
X1491000Y1562000D02*
D03*
X1272000Y1617000D02*
D03*
X1276000Y1586000D02*
D03*
X1299000Y1663000D02*
D03*
X1356000Y1649000D02*
D03*
X1387000Y1566000D02*
D03*
X1354000Y1571000D02*
D03*
X1117000Y1609000D02*
D03*
X1172000Y1479000D02*
D03*
X1118000Y1470000D02*
D03*
X1194000Y1494000D02*
D03*
X1219130Y1544000D02*
D03*
X1124040Y1332960D02*
D03*
X1005998Y1509997D02*
D03*
X1058998Y1511997D02*
D03*
X1030037Y1521037D02*
D03*
X908000Y1271000D02*
D03*
X1109000Y1252000D02*
D03*
X1105000Y1496000D02*
D03*
X1051000Y1202000D02*
D03*
X1079998Y1548997D02*
D03*
X1088040Y1539040D02*
D03*
X1096000Y1531000D02*
D03*
X1250000Y1390000D02*
D03*
X1136000Y1342000D02*
D03*
X1070000Y1230000D02*
D03*
X908000Y1257000D02*
D03*
X1068000Y1248000D02*
D03*
X1088000Y1240710D02*
D03*
X1228000Y1212000D02*
D03*
X1211000Y1310000D02*
D03*
X1098000Y1306000D02*
D03*
X1079000Y1329000D02*
D03*
X1265000Y1241000D02*
D03*
Y1229000D02*
D03*
X1253000Y1360000D02*
D03*
X1241000Y1252000D02*
D03*
X1242000Y1399000D02*
D03*
X1220000Y1324000D02*
D03*
X1236000Y1500000D02*
D03*
X1235000Y1515000D02*
D03*
Y1562000D02*
D03*
X708000Y1339000D02*
D03*
X721000D02*
D03*
X735000D02*
D03*
X748000D02*
D03*
X721000Y1370000D02*
D03*
X796000Y1420000D02*
D03*
X696000Y1414000D02*
D03*
X951000Y1362000D02*
D03*
Y1257000D02*
D03*
X1287000Y1567000D02*
D03*
X1265000Y1555000D02*
D03*
X1236000Y1605000D02*
D03*
X1143000Y1458000D02*
D03*
X1130000Y1479000D02*
D03*
Y1449000D02*
D03*
X1080998Y1457997D02*
D03*
X604060Y1135060D02*
D03*
X517000Y1151000D02*
D03*
X533000Y1185000D02*
D03*
X562000Y1265000D02*
D03*
X615000Y1261000D02*
D03*
X602000Y1251000D02*
D03*
X585999Y1260997D02*
D03*
X736000Y1261000D02*
D03*
X761999Y1261998D02*
D03*
X689999Y1073998D02*
D03*
X680000Y1115000D02*
D03*
X677999Y1076998D02*
D03*
X662000Y1073000D02*
D03*
X462000Y1293000D02*
D03*
X447000Y1389000D02*
D03*
X603000Y1388000D02*
D03*
X708000Y1397000D02*
D03*
X574000Y1422000D02*
D03*
X1405000Y709000D02*
D03*
X1379000Y726000D02*
D03*
X1381000Y737000D02*
D03*
X1296500Y617250D02*
D03*
X1286000Y627750D02*
D03*
X679000Y1043000D02*
D03*
X651000Y1017000D02*
D03*
X609000Y1020000D02*
D03*
X585000Y1199999D02*
D03*
Y1214999D02*
D03*
X600000D02*
D03*
Y1350000D02*
D03*
Y1365000D02*
D03*
X615000Y1110000D02*
D03*
Y1125000D02*
D03*
Y1139999D02*
D03*
Y1154999D02*
D03*
Y1169999D02*
D03*
Y1184999D02*
D03*
Y1199999D02*
D03*
Y1214999D02*
D03*
Y1365000D02*
D03*
X630000Y1095000D02*
D03*
Y1110000D02*
D03*
Y1125000D02*
D03*
Y1139999D02*
D03*
Y1154999D02*
D03*
Y1169999D02*
D03*
Y1184999D02*
D03*
Y1199999D02*
D03*
Y1214999D02*
D03*
Y1229999D02*
D03*
Y1244999D02*
D03*
Y1259999D02*
D03*
Y1365000D02*
D03*
X645000Y1095000D02*
D03*
Y1110000D02*
D03*
Y1125000D02*
D03*
Y1139999D02*
D03*
Y1154999D02*
D03*
Y1169999D02*
D03*
Y1184999D02*
D03*
Y1199999D02*
D03*
Y1214999D02*
D03*
Y1229999D02*
D03*
Y1244999D02*
D03*
Y1259999D02*
D03*
Y1365000D02*
D03*
X660000Y1125000D02*
D03*
Y1139999D02*
D03*
Y1154999D02*
D03*
Y1169999D02*
D03*
Y1184999D02*
D03*
Y1199999D02*
D03*
Y1214999D02*
D03*
Y1365000D02*
D03*
X675000Y1125000D02*
D03*
Y1139999D02*
D03*
Y1154999D02*
D03*
Y1169999D02*
D03*
Y1184999D02*
D03*
Y1199999D02*
D03*
Y1365000D02*
D03*
X690000Y1125000D02*
D03*
Y1139999D02*
D03*
Y1154999D02*
D03*
Y1169999D02*
D03*
Y1184999D02*
D03*
Y1199999D02*
D03*
Y1214999D02*
D03*
Y1229999D02*
D03*
Y1244999D02*
D03*
X705000Y1125000D02*
D03*
Y1139999D02*
D03*
Y1154999D02*
D03*
Y1169999D02*
D03*
Y1184999D02*
D03*
Y1199999D02*
D03*
Y1214999D02*
D03*
X1176000Y1148000D02*
D03*
X925000Y109000D02*
D03*
X946750Y172500D02*
D03*
X966297Y154257D02*
D03*
X1084500Y156000D02*
D03*
X966547Y143507D02*
D03*
X1203500Y143500D02*
D03*
X966047Y165008D02*
D03*
X1115500Y217500D02*
D03*
X1343000Y509000D02*
D03*
X1451000Y516000D02*
D03*
X1352000Y866000D02*
D03*
X1391000Y1165000D02*
D03*
X1143000Y1563000D02*
D03*
X1152000Y1368000D02*
D03*
X1079000Y883000D02*
D03*
X1062000Y1188000D02*
D03*
X1078998Y868998D02*
D03*
X1009000Y893000D02*
D03*
X991000Y616000D02*
D03*
X1075000Y453000D02*
D03*
X785000Y505000D02*
D03*
X1043000Y477000D02*
D03*
X1054000Y493000D02*
D03*
X1132000Y505000D02*
D03*
X1164000D02*
D03*
X1071250Y1532000D02*
D03*
X902000Y505000D02*
D03*
X992500Y504250D02*
D03*
X828250Y935500D02*
D03*
D180*
X27000Y1340000D02*
D03*
Y1468000D02*
D03*
X12000Y1502000D02*
D03*
X1144000Y857000D02*
D03*
X728000Y763960D02*
D03*
X636500Y668250D02*
D03*
X636000Y743000D02*
D03*
X245000Y962000D02*
D03*
Y931000D02*
D03*
X244000Y1478000D02*
D03*
X230000Y1463000D02*
D03*
Y946000D02*
D03*
X435000Y909000D02*
D03*
X646000Y762000D02*
D03*
X539753Y1665753D02*
D03*
X34000Y1545495D02*
D03*
X645000Y1668000D02*
D03*
X13000Y1372000D02*
D03*
X729220Y707220D02*
D03*
X653000Y707000D02*
D03*
X469000Y809000D02*
D03*
X468999Y792998D02*
D03*
X452000Y822000D02*
D03*
X484000Y730000D02*
D03*
X730780Y742780D02*
D03*
X483000Y945000D02*
D03*
X435000Y946000D02*
D03*
X811000Y870960D02*
D03*
X791000Y886000D02*
D03*
Y1026000D02*
D03*
X811000Y999000D02*
D03*
X554000Y860000D02*
D03*
X483000Y909000D02*
D03*
X569000Y877000D02*
D03*
X517000Y519000D02*
D03*
X645000Y808000D02*
D03*
X1159000Y840000D02*
D03*
X1189808Y762787D02*
D03*
X1176000Y778000D02*
D03*
X532000Y505000D02*
D03*
D181*
X97000Y1521750D02*
D03*
Y1461250D02*
D03*
X94500Y1386750D02*
D03*
Y1326250D02*
D03*
D182*
X648500Y1605000D02*
D03*
X588000D02*
D03*
D183*
X490200Y379000D02*
D03*
X515600D02*
D03*
X541000D02*
D03*
X566400D02*
D03*
X490200Y287000D02*
D03*
X515600D02*
D03*
X541000D02*
D03*
D184*
X566400D02*
D03*
D185*
X469000Y211000D02*
D03*
Y179000D02*
D03*
X592000Y214000D02*
D03*
Y182000D02*
D03*
X469000Y258000D02*
D03*
Y226000D02*
D03*
X592000Y261000D02*
D03*
Y229000D02*
D03*
X1007000Y1604000D02*
D03*
Y1636000D02*
D03*
X1076000Y1600000D02*
D03*
Y1632000D02*
D03*
D186*
X512750Y260000D02*
D03*
X547250D02*
D03*
X216250Y418000D02*
D03*
X181750D02*
D03*
X87250Y420000D02*
D03*
X52750D02*
D03*
X347250Y418000D02*
D03*
X312750D02*
D03*
D187*
X451500Y776500D02*
D03*
D188*
X1105000Y1373000D02*
D03*
X104000Y1019000D02*
D03*
X578000Y1143000D02*
D03*
X704000Y1074000D02*
D03*
M02*
