G04 Layer_Color=65535*
%FSLAX44Y44*%
%MOMM*%
G71*
G01*
G75*
%ADD18C,0.2540*%
%ADD19C,0.1270*%
%ADD20C,0.2032*%
%ADD21C,0.2500*%
%ADD22C,0.1500*%
%ADD23R,20.5000X8.0000*%
D18*
X1170009Y1210000D02*
G03*
X1170009Y1210000I-350009J0D01*
G01*
X1200009Y420000D02*
G03*
X1200009Y420000I-350009J0D01*
G01*
X255000Y985000D02*
X455000D01*
Y570000D02*
Y985000D01*
X360014Y570000D02*
X455000D01*
X255000D02*
X360014D01*
X255000D02*
Y985000D01*
X45000D02*
X245000D01*
Y570000D02*
Y985000D01*
X150014Y570000D02*
X245000D01*
X45000D02*
X150014D01*
X45000D02*
Y985000D01*
D19*
X484760Y749200D02*
G03*
X515240Y749200I15240J0D01*
G01*
Y850800D02*
G03*
X484760Y850800I-15240J0D01*
G01*
X125700Y1020002D02*
X354300D01*
X125700D02*
Y1120002D01*
X354300Y1020002D02*
Y1120002D01*
X125700D02*
X354300D01*
X484760Y749200D02*
Y850800D01*
X515240Y749200D02*
Y850800D01*
D20*
X1158960Y815240D02*
X1240240D01*
X1158960Y784760D02*
Y815240D01*
Y784760D02*
X1240240D01*
Y815240D01*
X193960Y1295240D02*
X275240D01*
X193960Y1264760D02*
Y1295240D01*
Y1264760D02*
X275240D01*
Y1295240D01*
X1194760Y1435240D02*
X1276040D01*
X1194760Y1404760D02*
Y1435240D01*
Y1404760D02*
X1276040D01*
Y1435240D01*
X183960Y415240D02*
X265240D01*
X183960Y384760D02*
Y415240D01*
Y384760D02*
X265240D01*
Y415240D01*
D21*
X398713Y65508D02*
X403712D01*
X406211Y68007D01*
Y78004D01*
X403712Y80503D01*
X398713D01*
X396214Y78004D01*
Y68007D01*
X398713Y65508D01*
X391216D02*
Y80503D01*
X381219D01*
X376221Y65508D02*
X366224D01*
X371222D01*
Y80503D01*
X351229Y65508D02*
X361225D01*
Y80503D01*
X351229D01*
X361225Y73005D02*
X356227D01*
X336233Y68007D02*
X338733Y65508D01*
X343731D01*
X346230Y68007D01*
Y70506D01*
X343731Y73005D01*
X338733D01*
X336233Y75505D01*
Y78004D01*
X338733Y80503D01*
X343731D01*
X346230Y78004D01*
X331235Y65508D02*
X321238D01*
X326237D01*
Y80503D01*
X291248D02*
X301245D01*
X291248Y70506D01*
Y68007D01*
X293747Y65508D01*
X298746D01*
X301245Y68007D01*
X286250D02*
X283750Y65508D01*
X278752D01*
X276253Y68007D01*
Y78004D01*
X278752Y80503D01*
X283750D01*
X286250Y78004D01*
Y68007D01*
X271254Y80503D02*
Y78004D01*
X268755D01*
Y80503D01*
X271254D01*
X258759Y68007D02*
X256259Y65508D01*
X251261D01*
X248762Y68007D01*
Y78004D01*
X251261Y80503D01*
X256259D01*
X258759Y78004D01*
Y68007D01*
X233767Y65508D02*
X243763D01*
Y73005D01*
X238765Y70506D01*
X236266D01*
X233767Y73005D01*
Y78004D01*
X236266Y80503D01*
X241264D01*
X243763Y78004D01*
X228768Y80503D02*
Y78004D01*
X226269D01*
Y80503D01*
X228768D01*
X206276D02*
X216272D01*
X206276Y70506D01*
Y68007D01*
X208775Y65508D01*
X213773D01*
X216272Y68007D01*
X201277D02*
X198778Y65508D01*
X193780D01*
X191280Y68007D01*
Y78004D01*
X193780Y80503D01*
X198778D01*
X201277Y78004D01*
Y68007D01*
X186282Y80503D02*
X181284D01*
X183783D01*
Y65508D01*
X186282Y68007D01*
X173786Y78004D02*
X171287Y80503D01*
X166288D01*
X163789Y78004D01*
Y68007D01*
X166288Y65508D01*
X171287D01*
X173786Y68007D01*
Y70506D01*
X171287Y73005D01*
X163789D01*
X417456Y142998D02*
Y128002D01*
X409959D01*
X407460Y130502D01*
Y135500D01*
X409959Y137999D01*
X417456D01*
X412458D02*
X407460Y142998D01*
X402461D02*
X397463D01*
X399962D01*
Y128002D01*
X402461Y130502D01*
X389965D02*
X387466Y128002D01*
X382468D01*
X379968Y130502D01*
Y140498D01*
X382468Y142998D01*
X387466D01*
X389965Y140498D01*
Y130502D01*
X374970D02*
X372471Y128002D01*
X367472D01*
X364973Y130502D01*
Y140498D01*
X367472Y142998D01*
X372471D01*
X374970Y140498D01*
Y130502D01*
X359975Y142998D02*
Y140498D01*
X357476D01*
Y142998D01*
X359975D01*
X337482D02*
X347479D01*
X337482Y133001D01*
Y130502D01*
X339981Y128002D01*
X344980D01*
X347479Y130502D01*
X332484D02*
X329985Y128002D01*
X324986D01*
X322487Y130502D01*
Y133001D01*
X324986Y135500D01*
X327485D01*
X324986D01*
X322487Y137999D01*
Y140498D01*
X324986Y142998D01*
X329985D01*
X332484Y140498D01*
X317489Y130502D02*
X314989Y128002D01*
X309991D01*
X307492Y130502D01*
Y140498D01*
X309991Y142998D01*
X314989D01*
X317489Y140498D01*
Y130502D01*
X302493Y142998D02*
Y140498D01*
X299994D01*
Y142998D01*
X302493D01*
X289998Y130502D02*
X287498Y128002D01*
X282500D01*
X280001Y130502D01*
Y140498D01*
X282500Y142998D01*
X287498D01*
X289998Y140498D01*
Y130502D01*
X265006Y128002D02*
X275002D01*
Y135500D01*
X270004Y133001D01*
X267505D01*
X265006Y135500D01*
Y140498D01*
X267505Y142998D01*
X272503D01*
X275002Y140498D01*
X260007Y130502D02*
X257508Y128002D01*
X252510D01*
X250011Y130502D01*
Y140498D01*
X252510Y142998D01*
X257508D01*
X260007Y140498D01*
Y130502D01*
X245012Y142998D02*
Y140498D01*
X242513D01*
Y142998D01*
X245012D01*
X232516Y130502D02*
X230017Y128002D01*
X225019D01*
X222519Y130502D01*
Y140498D01*
X225019Y142998D01*
X230017D01*
X232516Y140498D01*
Y130502D01*
X217521D02*
X215022Y128002D01*
X210023D01*
X207524Y130502D01*
Y140498D01*
X210023Y142998D01*
X215022D01*
X217521Y140498D01*
Y130502D01*
X202526D02*
X200027Y128002D01*
X195028D01*
X192529Y130502D01*
Y140498D01*
X195028Y142998D01*
X200027D01*
X202526Y140498D01*
Y130502D01*
X187531Y135500D02*
X177534D01*
X172536Y130502D02*
X170036Y128002D01*
X165038D01*
X162539Y130502D01*
Y140498D01*
X165038Y142998D01*
X170036D01*
X172536Y140498D01*
Y130502D01*
X157541D02*
X155041Y128002D01*
X150043D01*
X147544Y130502D01*
Y140498D01*
X150043Y142998D01*
X155041D01*
X157541Y140498D01*
Y130502D01*
X331234Y96361D02*
X341231D01*
Y103859D01*
X336233D01*
X341231D01*
Y111356D01*
X326236D02*
X321237D01*
X323737D01*
Y101359D01*
X326236D01*
X313740Y111356D02*
X308741D01*
X311241D01*
Y96361D01*
X313740D01*
X298745Y98860D02*
Y101359D01*
X301244D01*
X296245D01*
X298745D01*
Y108857D01*
X296245Y111356D01*
X288748Y101359D02*
Y111356D01*
Y106358D01*
X286249Y103859D01*
X283750Y101359D01*
X281250D01*
X263756Y111356D02*
X273753D01*
X263756Y101359D01*
Y98860D01*
X266255Y96361D01*
X271254D01*
X273753Y98860D01*
X258758Y113855D02*
X248761D01*
X243762Y101359D02*
X238764Y111356D01*
X233766Y101359D01*
X228767Y111356D02*
X223769D01*
X226268D01*
Y96361D01*
X228767Y98860D01*
D22*
X233502Y281837D02*
X236834D01*
X238500Y283503D01*
Y290168D01*
X236834Y291834D01*
X233502D01*
X231835Y290168D01*
Y283503D01*
X233502Y281837D01*
X228503Y285170D02*
Y290168D01*
X226837Y291834D01*
X221839D01*
Y285170D01*
X216840Y283503D02*
Y285170D01*
X218507D01*
X215174D01*
X216840D01*
Y290168D01*
X215174Y291834D01*
X210176Y293500D02*
X203511D01*
X193514Y281837D02*
X196847Y283503D01*
X200179Y286836D01*
Y290168D01*
X198513Y291834D01*
X195181D01*
X193514Y290168D01*
Y288502D01*
X195181Y286836D01*
X200179D01*
X248502Y1356837D02*
X251834D01*
X253500Y1358503D01*
Y1365168D01*
X251834Y1366834D01*
X248502D01*
X246835Y1365168D01*
Y1358503D01*
X248502Y1356837D01*
X243503Y1360169D02*
Y1365168D01*
X241837Y1366834D01*
X236839D01*
Y1360169D01*
X231840Y1358503D02*
Y1360169D01*
X233507D01*
X230174D01*
X231840D01*
Y1365168D01*
X230174Y1366834D01*
X225176Y1368500D02*
X218511D01*
X208514Y1356837D02*
X215179D01*
Y1361836D01*
X211847Y1360169D01*
X210181D01*
X208514Y1361836D01*
Y1365168D01*
X210181Y1366834D01*
X213513D01*
X215179Y1365168D01*
X1248500Y1461837D02*
X1245168D01*
X1246834D01*
Y1471834D01*
X1248500D01*
X1245168D01*
X1240169D02*
Y1465169D01*
X1235171D01*
X1233505Y1466835D01*
Y1471834D01*
X1230173Y1473500D02*
X1223508D01*
X1220176Y1463503D02*
X1218510Y1461837D01*
X1215177D01*
X1213511Y1463503D01*
Y1465169D01*
X1215177Y1466835D01*
X1216844D01*
X1215177D01*
X1213511Y1468502D01*
Y1470168D01*
X1215177Y1471834D01*
X1218510D01*
X1220176Y1470168D01*
X1228500Y876837D02*
X1225168D01*
X1226834D01*
Y886834D01*
X1228500D01*
X1225168D01*
X1220169D02*
Y880169D01*
X1215171D01*
X1213505Y881835D01*
Y886834D01*
X1210173Y888500D02*
X1203508D01*
X1195177Y886834D02*
Y876837D01*
X1200176Y881835D01*
X1193511D01*
X495000Y1415003D02*
Y1425000D01*
X488335D01*
X485003D02*
X481671D01*
X483337D01*
Y1415003D01*
X485003Y1416669D01*
X498335Y711669D02*
X500002Y710003D01*
X503334D01*
X505000Y711669D01*
Y718334D01*
X503334Y720000D01*
X500002D01*
X498335Y718334D01*
X495003Y720000D02*
X491671D01*
X493337D01*
Y710003D01*
X495003Y711669D01*
X358335Y546669D02*
X360002Y545003D01*
X363334D01*
X365000Y546669D01*
Y553334D01*
X363334Y555000D01*
X360002D01*
X358335Y553334D01*
X348339Y555000D02*
X355003D01*
X348339Y548335D01*
Y546669D01*
X350005Y545003D01*
X353337D01*
X355003Y546669D01*
X148336D02*
X150002Y545003D01*
X153334D01*
X155000Y546669D01*
Y553334D01*
X153334Y555000D01*
X150002D01*
X148336Y553334D01*
X145003Y546669D02*
X143337Y545003D01*
X140005D01*
X138339Y546669D01*
Y548335D01*
X140005Y550002D01*
X141671D01*
X140005D01*
X138339Y551668D01*
Y553334D01*
X140005Y555000D01*
X143337D01*
X145003Y553334D01*
X1150000Y120003D02*
Y130000D01*
X1143335D01*
X1133339D02*
X1140003D01*
X1133339Y123336D01*
Y121669D01*
X1135005Y120003D01*
X1138337D01*
X1140003Y121669D01*
X215000Y1145000D02*
Y1135003D01*
X210002D01*
X208335Y1136669D01*
Y1140002D01*
X210002Y1141668D01*
X215000D01*
X211668D02*
X208335Y1145000D01*
X205003D02*
X201671D01*
X203337D01*
Y1135003D01*
X205003Y1136669D01*
X1240000Y1330003D02*
X1233335Y1340000D01*
Y1330003D02*
X1240000Y1340000D01*
X1230003D02*
X1226671D01*
X1228337D01*
Y1330003D01*
X1230003Y1331669D01*
X235000Y1215003D02*
X228335Y1225000D01*
Y1215003D02*
X235000Y1225000D01*
X218339D02*
X225003D01*
X218339Y1218335D01*
Y1216669D01*
X220005Y1215003D01*
X223337D01*
X225003Y1216669D01*
X1210000Y715003D02*
X1203335Y725000D01*
Y715003D02*
X1210000Y725000D01*
X1200003Y716669D02*
X1198337Y715003D01*
X1195005D01*
X1193339Y716669D01*
Y718335D01*
X1195005Y720002D01*
X1196671D01*
X1195005D01*
X1193339Y721668D01*
Y723334D01*
X1195005Y725000D01*
X1198337D01*
X1200003Y723334D01*
X235000Y340003D02*
X228335Y350000D01*
Y340003D02*
X235000Y350000D01*
X220005D02*
Y340003D01*
X225003Y345002D01*
X218339D01*
D23*
X282500Y210000D02*
D03*
M02*
