G04 Layer_Color=16711935*
%FSLAX44Y44*%
%MOMM*%
G71*
G01*
G75*
%ADD21C,0.2500*%
%ADD24C,0.2032*%
%ADD25C,7.2032*%
%ADD26C,8.2032*%
%ADD27C,2.6162*%
%ADD28C,2.2352*%
%ADD29C,2.7032*%
%ADD30C,2.2032*%
%ADD31C,1.4032*%
D21*
X228766Y81361D02*
X218769D01*
Y88859D01*
X223767D01*
X218769D01*
Y96356D01*
X233764D02*
X238763D01*
X236263D01*
Y86359D01*
X233764D01*
X246260Y96356D02*
X251259D01*
X248759D01*
Y81361D01*
X246260D01*
X261255Y83860D02*
Y86359D01*
X258756D01*
X263755D01*
X261255D01*
Y93857D01*
X263755Y96356D01*
X271252Y86359D02*
Y96356D01*
Y91358D01*
X273751Y88859D01*
X276250Y86359D01*
X278750D01*
X296244Y96356D02*
X286247D01*
X296244Y86359D01*
Y83860D01*
X293745Y81361D01*
X288746D01*
X286247Y83860D01*
X301242Y98855D02*
X311239D01*
X316238Y86359D02*
X321236Y96356D01*
X326234Y86359D01*
X331233Y96356D02*
X336231D01*
X333732D01*
Y81361D01*
X331233Y83860D01*
X143793Y127998D02*
Y113002D01*
X151291D01*
X153790Y115502D01*
Y120500D01*
X151291Y122999D01*
X143793D01*
X148792D02*
X153790Y127998D01*
X158788D02*
X163787D01*
X161288D01*
Y113002D01*
X158788Y115502D01*
X171284D02*
X173784Y113002D01*
X178782D01*
X181281Y115502D01*
Y125498D01*
X178782Y127998D01*
X173784D01*
X171284Y125498D01*
Y115502D01*
X186280D02*
X188779Y113002D01*
X193777D01*
X196276Y115502D01*
Y125498D01*
X193777Y127998D01*
X188779D01*
X186280Y125498D01*
Y115502D01*
X201275Y127998D02*
Y125498D01*
X203774D01*
Y127998D01*
X201275D01*
X223767D02*
X213771D01*
X223767Y118001D01*
Y115502D01*
X221268Y113002D01*
X216270D01*
X213771Y115502D01*
X228766D02*
X231265Y113002D01*
X236263D01*
X238763Y115502D01*
Y118001D01*
X236263Y120500D01*
X233764D01*
X236263D01*
X238763Y122999D01*
Y125498D01*
X236263Y127998D01*
X231265D01*
X228766Y125498D01*
X243761Y115502D02*
X246260Y113002D01*
X251259D01*
X253758Y115502D01*
Y125498D01*
X251259Y127998D01*
X246260D01*
X243761Y125498D01*
Y115502D01*
X258756Y127998D02*
Y125498D01*
X261255D01*
Y127998D01*
X258756D01*
X271252Y115502D02*
X273751Y113002D01*
X278750D01*
X281249Y115502D01*
Y125498D01*
X278750Y127998D01*
X273751D01*
X271252Y125498D01*
Y115502D01*
X296244Y113002D02*
X286247D01*
Y120500D01*
X291246Y118001D01*
X293745D01*
X296244Y120500D01*
Y125498D01*
X293745Y127998D01*
X288746D01*
X286247Y125498D01*
X301242Y115502D02*
X303742Y113002D01*
X308740D01*
X311239Y115502D01*
Y125498D01*
X308740Y127998D01*
X303742D01*
X301242Y125498D01*
Y115502D01*
X316238Y127998D02*
Y125498D01*
X318737D01*
Y127998D01*
X316238D01*
X328733Y115502D02*
X331233Y113002D01*
X336231D01*
X338730Y115502D01*
Y125498D01*
X336231Y127998D01*
X331233D01*
X328733Y125498D01*
Y115502D01*
X343729D02*
X346228Y113002D01*
X351226D01*
X353725Y115502D01*
Y125498D01*
X351226Y127998D01*
X346228D01*
X343729Y125498D01*
Y115502D01*
X358724Y127998D02*
X363722D01*
X361223D01*
Y113002D01*
X358724Y115502D01*
X371220Y120500D02*
X381217D01*
X386215Y115502D02*
X388714Y113002D01*
X393712D01*
X396212Y115502D01*
Y125498D01*
X393712Y127998D01*
X388714D01*
X386215Y125498D01*
Y115502D01*
X401210D02*
X403709Y113002D01*
X408708D01*
X411207Y115502D01*
Y125498D01*
X408708Y127998D01*
X403709D01*
X401210Y125498D01*
Y115502D01*
D24*
X942500Y1330000D02*
D03*
X822500D02*
D03*
X702500D02*
D03*
X942500Y1210000D02*
D03*
X702500D02*
D03*
Y1090000D02*
D03*
X822500D02*
D03*
X942500D02*
D03*
X727500Y540000D02*
D03*
X847500D02*
D03*
X967500D02*
D03*
Y420000D02*
D03*
X727500D02*
D03*
X967500Y300000D02*
D03*
X847500D02*
D03*
X727500D02*
D03*
D25*
X437500Y1210000D02*
D03*
X1202500D02*
D03*
X467500Y420000D02*
D03*
X1232500D02*
D03*
D26*
X820000Y1210000D02*
D03*
X850000Y420000D02*
D03*
D27*
X1225000Y800000D02*
D03*
X1174200D02*
D03*
X260000Y1280000D02*
D03*
X209200D02*
D03*
X1260800Y1420000D02*
D03*
X1210000D02*
D03*
X250000Y400000D02*
D03*
X199200D02*
D03*
D28*
X355000Y590000D02*
D03*
Y965000D02*
D03*
X145000Y590000D02*
D03*
Y965000D02*
D03*
D29*
X106650Y1070000D02*
D03*
X373350D02*
D03*
X1340000Y1520000D02*
D03*
X20000D02*
D03*
D30*
X500000Y838100D02*
D03*
Y761900D02*
D03*
D31*
X1335999Y826000D02*
D03*
Y796000D02*
D03*
Y766000D02*
D03*
Y736000D02*
D03*
Y706000D02*
D03*
X1305999Y856000D02*
D03*
Y826000D02*
D03*
Y796000D02*
D03*
Y766000D02*
D03*
Y736000D02*
D03*
Y706000D02*
D03*
Y676000D02*
D03*
X1276000Y856000D02*
D03*
Y826000D02*
D03*
Y796000D02*
D03*
Y766000D02*
D03*
Y736000D02*
D03*
Y706000D02*
D03*
Y676000D02*
D03*
X1246000Y856000D02*
D03*
Y826000D02*
D03*
Y796000D02*
D03*
Y766000D02*
D03*
Y736000D02*
D03*
Y706000D02*
D03*
Y676000D02*
D03*
X1216000Y856000D02*
D03*
Y826000D02*
D03*
Y766000D02*
D03*
Y736000D02*
D03*
Y706000D02*
D03*
Y676000D02*
D03*
X1186000Y856000D02*
D03*
Y826000D02*
D03*
Y766000D02*
D03*
Y736000D02*
D03*
Y706000D02*
D03*
Y676000D02*
D03*
X1156000Y856000D02*
D03*
Y826000D02*
D03*
Y766000D02*
D03*
Y736000D02*
D03*
Y706000D02*
D03*
Y676000D02*
D03*
X1126000Y826000D02*
D03*
Y796000D02*
D03*
Y766000D02*
D03*
Y736000D02*
D03*
Y706000D02*
D03*
X1335999Y1425999D02*
D03*
Y1395999D02*
D03*
Y1365999D02*
D03*
Y1335999D02*
D03*
Y1305999D02*
D03*
Y1276000D02*
D03*
Y1246000D02*
D03*
Y1216000D02*
D03*
Y1186000D02*
D03*
Y1156000D02*
D03*
X1305999Y1455999D02*
D03*
Y1425999D02*
D03*
Y1395999D02*
D03*
Y1365999D02*
D03*
Y1335999D02*
D03*
Y1305999D02*
D03*
Y1276000D02*
D03*
Y1246000D02*
D03*
Y1216000D02*
D03*
Y1186000D02*
D03*
Y1156000D02*
D03*
Y1126000D02*
D03*
X1276000Y1455999D02*
D03*
Y1395999D02*
D03*
Y1365999D02*
D03*
Y1335999D02*
D03*
Y1305999D02*
D03*
Y1276000D02*
D03*
Y1246000D02*
D03*
Y1216000D02*
D03*
Y1186000D02*
D03*
Y1156000D02*
D03*
Y1126000D02*
D03*
X1246000Y1455999D02*
D03*
Y1395999D02*
D03*
Y1365999D02*
D03*
Y1335999D02*
D03*
Y1305999D02*
D03*
Y1276000D02*
D03*
Y1246000D02*
D03*
Y1186000D02*
D03*
Y1156000D02*
D03*
Y1126000D02*
D03*
X1216000Y1455999D02*
D03*
Y1395999D02*
D03*
Y1365999D02*
D03*
Y1335999D02*
D03*
Y1305999D02*
D03*
Y1276000D02*
D03*
Y1156000D02*
D03*
Y1126000D02*
D03*
X1186000Y1455999D02*
D03*
Y1425999D02*
D03*
Y1395999D02*
D03*
Y1365999D02*
D03*
Y1335999D02*
D03*
Y1305999D02*
D03*
Y1276000D02*
D03*
Y1156000D02*
D03*
Y1126000D02*
D03*
X1156000Y1455999D02*
D03*
Y1425999D02*
D03*
Y1395999D02*
D03*
Y1365999D02*
D03*
Y1335999D02*
D03*
Y1305999D02*
D03*
Y1276000D02*
D03*
Y1246000D02*
D03*
Y1216000D02*
D03*
Y1186000D02*
D03*
Y1156000D02*
D03*
Y1126000D02*
D03*
X1126000Y1425999D02*
D03*
Y1395999D02*
D03*
Y1365999D02*
D03*
Y1335999D02*
D03*
Y1305999D02*
D03*
Y1276000D02*
D03*
Y1246000D02*
D03*
Y1216000D02*
D03*
Y1186000D02*
D03*
Y1156000D02*
D03*
X1120000Y375000D02*
D03*
Y405000D02*
D03*
Y435000D02*
D03*
Y465000D02*
D03*
Y495000D02*
D03*
X1150000Y345000D02*
D03*
Y375000D02*
D03*
Y405000D02*
D03*
Y435000D02*
D03*
Y465000D02*
D03*
Y495000D02*
D03*
Y525000D02*
D03*
X1180000Y345000D02*
D03*
Y495000D02*
D03*
Y525000D02*
D03*
X1210000Y345000D02*
D03*
Y495000D02*
D03*
Y525000D02*
D03*
X1240000Y345000D02*
D03*
Y495000D02*
D03*
Y525000D02*
D03*
X1270000Y345000D02*
D03*
Y495000D02*
D03*
Y525000D02*
D03*
X1300000Y345000D02*
D03*
Y375000D02*
D03*
Y405000D02*
D03*
Y435000D02*
D03*
Y465000D02*
D03*
Y495000D02*
D03*
Y525000D02*
D03*
X1330000Y375000D02*
D03*
Y405000D02*
D03*
Y435000D02*
D03*
Y465000D02*
D03*
Y495000D02*
D03*
X166000Y1216000D02*
D03*
Y1246000D02*
D03*
Y1276000D02*
D03*
Y1305999D02*
D03*
Y1335999D02*
D03*
X196000Y1216000D02*
D03*
Y1246000D02*
D03*
Y1305999D02*
D03*
Y1335999D02*
D03*
X226000Y1246000D02*
D03*
Y1305999D02*
D03*
Y1335999D02*
D03*
X256000Y1216000D02*
D03*
Y1246000D02*
D03*
Y1305999D02*
D03*
Y1335999D02*
D03*
X286000Y1216000D02*
D03*
Y1246000D02*
D03*
Y1276000D02*
D03*
Y1305999D02*
D03*
Y1335999D02*
D03*
X376000Y1126000D02*
D03*
Y1156000D02*
D03*
Y1186000D02*
D03*
Y1216000D02*
D03*
Y1246000D02*
D03*
Y1276000D02*
D03*
Y1305999D02*
D03*
X406000Y1126000D02*
D03*
Y1156000D02*
D03*
Y1246000D02*
D03*
Y1276000D02*
D03*
Y1305999D02*
D03*
X436000Y1126000D02*
D03*
Y1156000D02*
D03*
Y1276000D02*
D03*
Y1305999D02*
D03*
X466000Y1126000D02*
D03*
Y1156000D02*
D03*
Y1246000D02*
D03*
Y1276000D02*
D03*
Y1305999D02*
D03*
X496000Y1126000D02*
D03*
Y1156000D02*
D03*
Y1186000D02*
D03*
Y1216000D02*
D03*
Y1246000D02*
D03*
Y1276000D02*
D03*
Y1305999D02*
D03*
X76000Y316000D02*
D03*
Y346000D02*
D03*
Y376000D02*
D03*
Y406000D02*
D03*
Y436000D02*
D03*
Y466000D02*
D03*
X106000Y316000D02*
D03*
Y346000D02*
D03*
Y376000D02*
D03*
Y406000D02*
D03*
Y436000D02*
D03*
Y466000D02*
D03*
X136000Y316000D02*
D03*
Y346000D02*
D03*
Y376000D02*
D03*
Y406000D02*
D03*
Y436000D02*
D03*
Y466000D02*
D03*
X166000Y316000D02*
D03*
Y346000D02*
D03*
Y376000D02*
D03*
Y406000D02*
D03*
Y436000D02*
D03*
Y466000D02*
D03*
X196000Y316000D02*
D03*
Y346000D02*
D03*
Y376000D02*
D03*
Y436000D02*
D03*
Y466000D02*
D03*
X226000Y316000D02*
D03*
Y436000D02*
D03*
Y466000D02*
D03*
X256000Y316000D02*
D03*
Y346000D02*
D03*
Y376000D02*
D03*
Y436000D02*
D03*
Y466000D02*
D03*
X286000Y316000D02*
D03*
Y346000D02*
D03*
Y376000D02*
D03*
Y406000D02*
D03*
Y436000D02*
D03*
Y466000D02*
D03*
X316000Y316000D02*
D03*
Y346000D02*
D03*
Y376000D02*
D03*
Y406000D02*
D03*
Y436000D02*
D03*
Y466000D02*
D03*
X346000Y316000D02*
D03*
Y346000D02*
D03*
Y376000D02*
D03*
Y406000D02*
D03*
Y436000D02*
D03*
Y466000D02*
D03*
X376000Y316000D02*
D03*
Y346000D02*
D03*
Y376000D02*
D03*
Y406000D02*
D03*
Y436000D02*
D03*
Y466000D02*
D03*
X406000Y316000D02*
D03*
Y346000D02*
D03*
Y376000D02*
D03*
Y406000D02*
D03*
Y436000D02*
D03*
Y466000D02*
D03*
X436000Y316000D02*
D03*
Y346000D02*
D03*
Y376000D02*
D03*
Y466000D02*
D03*
X466000Y316000D02*
D03*
Y346000D02*
D03*
Y376000D02*
D03*
Y466000D02*
D03*
X496000Y316000D02*
D03*
Y346000D02*
D03*
Y376000D02*
D03*
Y466000D02*
D03*
X526000Y316000D02*
D03*
Y346000D02*
D03*
Y376000D02*
D03*
Y406000D02*
D03*
Y436000D02*
D03*
Y466000D02*
D03*
X556000Y316000D02*
D03*
Y346000D02*
D03*
Y376000D02*
D03*
Y406000D02*
D03*
Y436000D02*
D03*
Y466000D02*
D03*
X586000Y316000D02*
D03*
Y346000D02*
D03*
Y376000D02*
D03*
Y406000D02*
D03*
Y436000D02*
D03*
Y466000D02*
D03*
M02*
