M48
;Layer_Color=9474304
;FILE_FORMAT=4:4
METRIC,LZ
;TYPE=PLATED
T1F00S00C0.7000
T2F00S00C1.0000
T3F00S00C1.2000
T4F00S00C1.3000
T5F00S00C1.5000
T6F00S00C2.5000
T7F00S00C5.0000
T8F00S00C6.0000
T9F00S00C10.0000
%
T01
X0112Y00375
Y00405
Y00435
Y00465
Y00495
X0115
Y00465
Y00435
Y00405
Y00375
Y00345
X0118
X0121
X0124
X0127
X013
Y00375
Y00405
Y00435
Y00465
Y00495
X0127
X0124
X0121
X0118
Y00525
X0115
X0121
X0124
X0127
X013
X0133Y00495
Y00465
Y00435
Y00405
Y00375
X00586Y00376
X00556
Y00346
Y00316
X00586
Y00346
Y00406
X00556
Y00436
Y00466
X00586
Y00436
X00526
Y00406
Y00376
X00496
X00466
X00436
X00406
X00376
X00346
X00316
X00286
X00256
Y00346
Y00316
X00226
X00196
X00166
Y00346
Y00376
Y00406
Y00436
Y00466
X00196
Y00436
X00226
Y00466
X00256
Y00436
X00286
Y00406
X00316
Y00436
Y00466
X00286
X00346
Y00436
Y00406
X00376
Y00436
Y00466
X00406
Y00436
Y00406
Y00346
X00376
X00346
X00316
X00286
Y00316
X00316
X00346
X00376
X00406
X00436
Y00346
X00466
Y00316
X00496
Y00346
X00526
Y00316
Y00466
X00496
X00466
X00436
X00196Y00376
Y00346
X00136
X00106
X00076
Y00316
X00106
X00136
Y00376
X00106
X00076
Y00406
Y00436
Y00466
X00106
Y00436
Y00406
X00136
Y00436
Y00466
X01156Y00676
X01186
X01216
X01246
X01276
X01305999
Y00706
Y00736
Y00766
Y00796
Y00826
Y00856
X01276
Y00826
Y00796
Y00766
Y00736
Y00706
X01246
Y00736
Y00766
Y00796
Y00826
Y00856
X01216
Y00826
X01186
Y00856
X01156
Y00826
X01126
Y00796
Y00766
X01156
X01186
X01216
Y00736
Y00706
X01186
Y00736
X01156
Y00706
X01126
Y00736
X01335999
Y00766
Y00796
Y00826
Y00706
Y01156
Y01186
Y01216
Y01246
Y01276
Y01305999
X01305999
Y01276
Y01246
Y01216
Y01186
Y01156
Y01126
X01276
Y01156
Y01186
Y01216
Y01246
Y01276
Y01305999
X01246
Y01276
Y01246
Y01186
Y01156
Y01126
X01216
Y01156
X01186
Y01126
X01156
Y01156
Y01186
Y01216
Y01246
Y01276
X01186
X01216
Y01305999
X01186
X01156
X01126
Y01276
Y01246
Y01216
Y01186
Y01156
X00496
X00466
X00436
X00406
X00376
Y01126
X00406
X00436
X00466
X00496
Y01186
Y01216
Y01246
X00466
Y01276
X00436
X00406
X00376
Y01246
Y01216
Y01186
X00406Y01246
Y01305999
X00376
X00436
X00466
X00496
Y01276
X00286
Y01246
X00256
X00226
X00196
X00166
Y01216
X00196
X00256
X00286
Y01305999
X00256
X00226
X00196
X00166
Y01276
Y01335999
X00196
X00226
X00256
X00286
X01126
X01156
X01186
X01216
X01246
X01276
X01305999
Y01365999
Y01395999
Y01425999
Y01455999
X01276
X01246
X01216
X01186
Y01425999
Y01395999
X01216
X01246
X01276
Y01365999
X01246
X01216
X01186
X01156
Y01395999
Y01425999
Y01455999
X01126Y01425999
Y01395999
Y01365999
X01335999
Y01395999
Y01425999
Y01335999
T02
X005Y007619
Y008381
T03
X0037335Y0107
X0010665
T04
X00145Y0059
X00355
Y00965
X00145
T05
X001992Y004
X0025
X011742Y008
X01225
X0026Y0128
X002092
X0121Y0142
X012608
T06
X0002Y0152
X0134
T07
X012325Y0042
X004675
X012025Y0121
X004375
T08
X0085Y0042
X0082Y0121
T09
X009675Y003
Y0042
X008475Y003
X007275
Y0042
Y0054
X008475
X009675
X009425Y0109
Y0121
Y0133
X008225
X007025
Y0121
Y0109
X008225
M30
