G04 Layer_Physical_Order=1*
G04 Layer_Color=255*
%FSLAX44Y44*%
%MOMM*%
G71*
G01*
G75*
%ADD10C,8.0000*%
%ADD11C,7.0000*%
%ADD12C,2.4130*%
%ADD13C,2.0320*%
%ADD14C,2.5000*%
%ADD15C,2.0000*%
%ADD16C,1.2000*%
G36*
X1130000Y1470000D02*
X1320000D01*
X1320000Y1470000D01*
X1320000Y1470000D01*
X1321966Y1470000D01*
X1325865Y1469487D01*
X1329664Y1468469D01*
X1333297Y1466964D01*
X1336703Y1464998D01*
X1339823Y1462603D01*
X1342603Y1459823D01*
X1344998Y1456703D01*
X1346964Y1453297D01*
X1348469Y1449664D01*
X1349487Y1445865D01*
X1350000Y1441966D01*
Y1440000D01*
X1350000Y1130000D01*
X1350000Y1130000D01*
Y1128034D01*
X1349487Y1124135D01*
X1348469Y1120336D01*
X1346964Y1116703D01*
X1344998Y1113297D01*
X1342603Y1110177D01*
X1339823Y1107396D01*
X1336703Y1105002D01*
X1333297Y1103036D01*
X1329664Y1101531D01*
X1325865Y1100513D01*
X1321966Y1100000D01*
X1320000D01*
X1130000Y1100000D01*
X1130000Y1100000D01*
X1128034Y1100000D01*
X1124135Y1100513D01*
X1120336Y1101531D01*
X1116703Y1103036D01*
X1113297Y1105002D01*
X1110177Y1107396D01*
X1107396Y1110177D01*
X1105002Y1113297D01*
X1103036Y1116703D01*
X1101531Y1120336D01*
X1100513Y1124135D01*
X1100000Y1128034D01*
Y1130000D01*
Y1440000D01*
X1100000Y1441966D01*
X1100513Y1445865D01*
X1101531Y1449664D01*
X1103036Y1453297D01*
X1105002Y1456703D01*
X1107396Y1459823D01*
X1110177Y1462604D01*
X1113297Y1464998D01*
X1116703Y1466964D01*
X1120336Y1468469D01*
X1124135Y1469487D01*
X1128034Y1470000D01*
X1130000Y1470000D01*
D02*
G37*
G36*
X120000Y1130000D02*
X120000Y1130000D01*
X121966Y1130000D01*
X125865Y1129487D01*
X129664Y1128469D01*
X133297Y1126964D01*
X136703Y1124998D01*
X139823Y1122604D01*
X142604Y1119823D01*
X144998Y1116703D01*
X146964Y1113297D01*
X148469Y1109664D01*
X149487Y1105865D01*
X150000Y1101966D01*
X150000Y1100000D01*
X150000Y1030000D01*
X150064Y1028038D01*
X150576Y1024147D01*
X151592Y1020357D01*
X153094Y1016731D01*
X155056Y1013333D01*
X157445Y1010219D01*
X160220Y1007445D01*
X163333Y1005056D01*
X166731Y1003094D01*
X170357Y1001592D01*
X174147Y1000576D01*
X178038Y1000064D01*
X180000Y1000000D01*
X350000Y1000000D01*
X350000Y1000000D01*
X350000Y1000000D01*
X351966Y1000000D01*
X355865Y999486D01*
X359664Y998469D01*
X363297Y996964D01*
X366703Y994998D01*
X369823Y992604D01*
X372603Y989823D01*
X374998Y986703D01*
X376964Y983297D01*
X378469Y979664D01*
X379487Y975865D01*
X380000Y971966D01*
X380000Y970000D01*
X380000Y960000D01*
X380000Y960000D01*
X380000Y958034D01*
X379487Y954135D01*
X378469Y950336D01*
X376964Y946703D01*
X374997Y943297D01*
X372603Y940177D01*
X369823Y937396D01*
X366703Y935002D01*
X363297Y933036D01*
X359664Y931531D01*
X355865Y930513D01*
X351966Y930000D01*
X350000D01*
X100000Y930000D01*
X100000Y930000D01*
X98034Y930000D01*
X94135Y930514D01*
X90336Y931531D01*
X86703Y933036D01*
X83297Y935003D01*
X80177Y937397D01*
X77396Y940177D01*
X75002Y943297D01*
X73036Y946703D01*
X71531Y950336D01*
X70513Y954135D01*
X70000Y958034D01*
Y960000D01*
X70000Y1098804D01*
X70000Y1100000D01*
X70000Y1100000D01*
X70000Y1100000D01*
X70000Y1101966D01*
X70513Y1105865D01*
X71531Y1109664D01*
X73036Y1113297D01*
X75002Y1116703D01*
X77396Y1119823D01*
X80177Y1122604D01*
X83297Y1124998D01*
X86703Y1126964D01*
X90336Y1128469D01*
X94135Y1129487D01*
X98034Y1130000D01*
X100000Y1130000D01*
X120000Y1130000D01*
X120000Y1130000D01*
D02*
G37*
G36*
X570000Y780000D02*
X570000Y780000D01*
X571966Y780000D01*
X575865Y779487D01*
X579664Y778469D01*
X583297Y776964D01*
X586703Y774998D01*
X589823Y772604D01*
X592603Y769823D01*
X594998Y766703D01*
X596964Y763297D01*
X598469Y759664D01*
X599487Y755865D01*
X600000Y751966D01*
X600000Y750000D01*
X600000Y330000D01*
X600000Y330000D01*
Y328034D01*
X599487Y324135D01*
X598469Y320336D01*
X596964Y316703D01*
X594997Y313297D01*
X592603Y310177D01*
X589823Y307396D01*
X586703Y305002D01*
X583297Y303036D01*
X579664Y301531D01*
X575865Y300513D01*
X571966Y300000D01*
X570000D01*
X80000Y300000D01*
X78033Y300000D01*
X74134Y300513D01*
X70336Y301531D01*
X66703Y303036D01*
X63297Y305002D01*
X60177Y307396D01*
X57396Y310177D01*
X55002Y313297D01*
X53036Y316703D01*
X51531Y320336D01*
X50513Y324135D01*
X50000Y328034D01*
X50000Y330000D01*
X50000Y618804D01*
X50000Y620000D01*
X50000Y620000D01*
X50000Y620000D01*
X50000Y620000D01*
X50000Y621966D01*
X50513Y625865D01*
X51531Y629664D01*
X53036Y633297D01*
X55002Y636703D01*
X57396Y639823D01*
X60177Y642604D01*
X63297Y644998D01*
X66703Y646964D01*
X70336Y648469D01*
X74135Y649487D01*
X78034Y650000D01*
X80000Y650000D01*
X390000Y650000D01*
X390000Y650000D01*
Y650000D01*
X391962Y650064D01*
X395853Y650576D01*
X399643Y651592D01*
X403269Y653094D01*
X406667Y655056D01*
X409780Y657445D01*
X412555Y660220D01*
X414944Y663333D01*
X416906Y666731D01*
X418408Y670357D01*
X419423Y674147D01*
X419936Y678038D01*
X420000Y680000D01*
X420000Y743804D01*
X420000Y745000D01*
X420000Y745000D01*
X420000Y745000D01*
X420000Y745000D01*
X420000Y747294D01*
X420599Y751843D01*
X421786Y756274D01*
X423542Y760513D01*
X425836Y764487D01*
X428629Y768127D01*
X431873Y771371D01*
X435513Y774164D01*
X439487Y776458D01*
X443725Y778214D01*
X448157Y779401D01*
X452706Y780000D01*
X455000Y780000D01*
X570000Y780000D01*
X570000Y780000D01*
D02*
G37*
G36*
X570000Y1350000D02*
X570000Y1350000D01*
X571966Y1350000D01*
X575865Y1349487D01*
X579664Y1348469D01*
X583297Y1346964D01*
X586703Y1344998D01*
X589823Y1342603D01*
X592603Y1339823D01*
X594997Y1336703D01*
X596964Y1333297D01*
X598469Y1329664D01*
X599487Y1325865D01*
X600000Y1321966D01*
Y1320000D01*
X600000Y850000D01*
X600000Y850000D01*
X600000Y848033D01*
X599487Y844135D01*
X598469Y840336D01*
X596964Y836703D01*
X594997Y833297D01*
X592603Y830177D01*
X589823Y827396D01*
X586703Y825002D01*
X583297Y823036D01*
X579664Y821531D01*
X575865Y820513D01*
X571966Y820000D01*
X570000Y820000D01*
X450000D01*
X448033Y820000D01*
X444135Y820513D01*
X440336Y821531D01*
X436703Y823036D01*
X433297Y825002D01*
X430177Y827396D01*
X427396Y830177D01*
X425002Y833297D01*
X423036Y836703D01*
X421531Y840336D01*
X420513Y844135D01*
X420000Y848034D01*
X420000Y850000D01*
X420000Y1000000D01*
X420000Y1000000D01*
X420000Y1000000D01*
X419936Y1001962D01*
X419423Y1005853D01*
X418408Y1009643D01*
X416906Y1013269D01*
X414944Y1016667D01*
X412555Y1019780D01*
X409780Y1022555D01*
X406667Y1024944D01*
X403269Y1026906D01*
X399643Y1028408D01*
X395853Y1029424D01*
X391962Y1029936D01*
X390000Y1030000D01*
X290000Y1030000D01*
X290000Y1030000D01*
X288034D01*
X284135Y1030513D01*
X280336Y1031531D01*
X276703Y1033036D01*
X273297Y1035002D01*
X270177Y1037396D01*
X267396Y1040177D01*
X265002Y1043297D01*
X263036Y1046703D01*
X261531Y1050336D01*
X260513Y1054135D01*
X260000Y1058034D01*
Y1060000D01*
X260000Y1170000D01*
X260000Y1170000D01*
X260000Y1170000D01*
X259935Y1171962D01*
X259423Y1175853D01*
X258408Y1179643D01*
X256906Y1183269D01*
X254944Y1186667D01*
X252555Y1189780D01*
X249780Y1192555D01*
X246667Y1194944D01*
X243269Y1196906D01*
X239643Y1198408D01*
X235853Y1199424D01*
X231962Y1199936D01*
X230000Y1200000D01*
X180000Y1200000D01*
X178034D01*
X174135Y1200513D01*
X170336Y1201531D01*
X166703Y1203036D01*
X163297Y1205002D01*
X160177Y1207396D01*
X157396Y1210177D01*
X155002Y1213297D01*
X153036Y1216703D01*
X151531Y1220336D01*
X150513Y1224135D01*
X150000Y1228034D01*
Y1230000D01*
Y1320000D01*
X150000Y1320000D01*
X150000Y1320000D01*
X150000Y1321966D01*
X150513Y1325865D01*
X151531Y1329664D01*
X153036Y1333297D01*
X155002Y1336703D01*
X157396Y1339823D01*
X160177Y1342603D01*
X163297Y1344998D01*
X166703Y1346964D01*
X170336Y1348469D01*
X174135Y1349487D01*
X178034Y1350000D01*
X180000Y1350000D01*
X570000Y1350000D01*
X570000Y1350000D01*
D02*
G37*
G36*
X1320000Y900000D02*
X1321966D01*
X1325865Y899487D01*
X1329664Y898469D01*
X1333297Y896964D01*
X1336703Y894997D01*
X1339823Y892604D01*
X1342603Y889823D01*
X1344998Y886703D01*
X1346964Y883297D01*
X1348469Y879664D01*
X1349487Y875865D01*
X1350000Y871966D01*
X1350000Y870000D01*
X1350000D01*
X1350000Y330000D01*
X1350000Y328034D01*
X1349487Y324135D01*
X1348469Y320336D01*
X1346964Y316703D01*
X1344998Y313297D01*
X1342604Y310177D01*
X1339823Y307396D01*
X1336703Y305002D01*
X1333297Y303036D01*
X1329664Y301531D01*
X1325865Y300513D01*
X1321966Y300000D01*
X1320000Y300000D01*
X1320000Y300000D01*
Y300000D01*
X1128034D01*
X1124135Y300513D01*
X1120336Y301531D01*
X1116703Y303036D01*
X1113297Y305002D01*
X1110177Y307396D01*
X1107396Y310177D01*
X1105002Y313297D01*
X1103036Y316703D01*
X1101531Y320336D01*
X1100513Y324135D01*
X1100000Y328033D01*
Y330000D01*
X1100000Y330000D01*
X1100000Y870000D01*
X1100000Y871966D01*
X1100513Y875865D01*
X1101531Y879664D01*
X1103036Y883297D01*
X1105002Y886703D01*
X1107396Y889823D01*
X1110177Y892604D01*
X1113297Y894997D01*
X1116703Y896964D01*
X1120336Y898469D01*
X1124135Y899487D01*
X1128034Y900000D01*
X1130000Y900000D01*
X1130000Y900000D01*
X1320000Y900000D01*
D02*
G37*
%LPC*%
G36*
X1207500Y1247724D02*
Y1215000D01*
X1240224D01*
X1240148Y1215963D01*
X1238752Y1221779D01*
X1236463Y1227305D01*
X1233338Y1232405D01*
X1229453Y1236953D01*
X1224905Y1240838D01*
X1219805Y1243963D01*
X1214279Y1246252D01*
X1208463Y1247648D01*
X1207500Y1247724D01*
D02*
G37*
G36*
X1305800Y1404226D02*
X1305007Y1403986D01*
X1302390Y1402587D01*
X1300096Y1400704D01*
X1298213Y1398410D01*
X1296814Y1395793D01*
X1296574Y1395000D01*
X1305800D01*
Y1404226D01*
D02*
G37*
G36*
X1255000D02*
X1254207Y1403986D01*
X1251590Y1402587D01*
X1249296Y1400704D01*
X1247413Y1398410D01*
X1246014Y1395793D01*
X1245774Y1395000D01*
X1255000D01*
Y1404226D01*
D02*
G37*
G36*
X1315800Y1404226D02*
Y1395000D01*
X1325026D01*
X1324786Y1395793D01*
X1323387Y1398410D01*
X1321504Y1400704D01*
X1319210Y1402587D01*
X1316593Y1403986D01*
X1315800Y1404226D01*
D02*
G37*
G36*
X1265000D02*
Y1395000D01*
X1274226D01*
X1273986Y1395793D01*
X1272587Y1398410D01*
X1270704Y1400704D01*
X1268410Y1402587D01*
X1265793Y1403986D01*
X1265000Y1404226D01*
D02*
G37*
G36*
X1325026Y1385000D02*
X1315800D01*
Y1375774D01*
X1316593Y1376014D01*
X1319210Y1377413D01*
X1321504Y1379296D01*
X1323387Y1381590D01*
X1324786Y1384207D01*
X1325026Y1385000D01*
D02*
G37*
G36*
X1255000D02*
X1245774D01*
X1246014Y1384207D01*
X1247413Y1381590D01*
X1249296Y1379296D01*
X1251590Y1377413D01*
X1254207Y1376014D01*
X1255000Y1375774D01*
Y1385000D01*
D02*
G37*
G36*
X1274226D02*
X1265000D01*
Y1375774D01*
X1265793Y1376014D01*
X1268410Y1377413D01*
X1270704Y1379296D01*
X1272587Y1381590D01*
X1273986Y1384207D01*
X1274226Y1385000D01*
D02*
G37*
G36*
X1305800D02*
X1296574D01*
X1296814Y1384207D01*
X1298213Y1381590D01*
X1300096Y1379296D01*
X1302390Y1377413D01*
X1305007Y1376014D01*
X1305800Y1375774D01*
Y1385000D01*
D02*
G37*
G36*
X1197500Y1205000D02*
X1164776D01*
X1164852Y1204037D01*
X1166248Y1198221D01*
X1168537Y1192695D01*
X1171662Y1187595D01*
X1175547Y1183047D01*
X1180095Y1179162D01*
X1185195Y1176037D01*
X1190721Y1173748D01*
X1196537Y1172352D01*
X1197500Y1172276D01*
Y1205000D01*
D02*
G37*
G36*
Y1247724D02*
X1196537Y1247648D01*
X1190721Y1246252D01*
X1185195Y1243963D01*
X1180095Y1240838D01*
X1175547Y1236953D01*
X1171662Y1232405D01*
X1168537Y1227305D01*
X1166248Y1221779D01*
X1164852Y1215963D01*
X1164776Y1215000D01*
X1197500D01*
Y1247724D01*
D02*
G37*
G36*
X1240224Y1205000D02*
X1207500D01*
Y1172276D01*
X1208463Y1172352D01*
X1214279Y1173748D01*
X1219805Y1176037D01*
X1224905Y1179162D01*
X1229453Y1183047D01*
X1233338Y1187595D01*
X1236463Y1192695D01*
X1238752Y1198221D01*
X1240148Y1204037D01*
X1240224Y1205000D01*
D02*
G37*
G36*
X101650Y1065000D02*
X91969D01*
X92261Y1064040D01*
X93700Y1061347D01*
X95637Y1058987D01*
X97997Y1057050D01*
X100690Y1055611D01*
X101650Y1055319D01*
Y1065000D01*
D02*
G37*
G36*
X355000Y982173D02*
Y975000D01*
X362173D01*
X361495Y976637D01*
X359386Y979386D01*
X356637Y981495D01*
X355000Y982173D01*
D02*
G37*
G36*
X121331Y1065000D02*
X111650D01*
Y1055319D01*
X112610Y1055611D01*
X115303Y1057050D01*
X117663Y1058987D01*
X119600Y1061347D01*
X121039Y1064040D01*
X121331Y1065000D01*
D02*
G37*
G36*
X345000Y982173D02*
X343363Y981495D01*
X340614Y979386D01*
X338505Y976637D01*
X337827Y975000D01*
X345000D01*
Y982173D01*
D02*
G37*
G36*
X362173Y965000D02*
X355000D01*
Y957827D01*
X356637Y958505D01*
X359386Y960614D01*
X361495Y963363D01*
X362173Y965000D01*
D02*
G37*
G36*
X345000D02*
X337827D01*
X338505Y963363D01*
X340614Y960614D01*
X343363Y958505D01*
X345000Y957827D01*
Y965000D01*
D02*
G37*
G36*
X111650Y1084681D02*
Y1075000D01*
X121331D01*
X121039Y1075960D01*
X119600Y1078653D01*
X117663Y1081013D01*
X115303Y1082950D01*
X112610Y1084389D01*
X111650Y1084681D01*
D02*
G37*
G36*
X101650D02*
X100690Y1084389D01*
X97997Y1082950D01*
X95637Y1081013D01*
X93700Y1078653D01*
X92261Y1075960D01*
X91969Y1075000D01*
X101650D01*
Y1084681D01*
D02*
G37*
G36*
X495000Y773900D02*
X493444Y773255D01*
X490728Y771172D01*
X488644Y768456D01*
X488000Y766900D01*
X495000D01*
Y773900D01*
D02*
G37*
G36*
X505000Y773900D02*
Y766900D01*
X512000D01*
X511356Y768456D01*
X509272Y771172D01*
X506556Y773255D01*
X505000Y773900D01*
D02*
G37*
G36*
X345000Y607173D02*
X343363Y606495D01*
X340614Y604386D01*
X338505Y601637D01*
X337827Y600000D01*
X345000D01*
Y607173D01*
D02*
G37*
G36*
X135000D02*
Y600000D01*
X142173D01*
X141495Y601637D01*
X139386Y604386D01*
X136637Y606495D01*
X135000Y607173D01*
D02*
G37*
G36*
X355000D02*
Y600000D01*
X362173D01*
X361495Y601637D01*
X359386Y604386D01*
X356637Y606495D01*
X355000Y607173D01*
D02*
G37*
G36*
X495000Y756900D02*
X488000D01*
X488644Y755344D01*
X490728Y752628D01*
X493444Y750545D01*
X495000Y749900D01*
Y756900D01*
D02*
G37*
G36*
X512000D02*
X505000D01*
Y749900D01*
X506556Y750545D01*
X509272Y752628D01*
X511356Y755344D01*
X512000Y756900D01*
D02*
G37*
G36*
X125000Y607173D02*
X123363Y606495D01*
X120614Y604386D01*
X118505Y601637D01*
X117827Y600000D01*
X125000D01*
Y607173D01*
D02*
G37*
G36*
X213426Y395000D02*
X204200D01*
Y385774D01*
X204993Y386014D01*
X207610Y387413D01*
X209904Y389296D01*
X211787Y391590D01*
X213186Y394207D01*
X213426Y395000D01*
D02*
G37*
G36*
X245000D02*
X235774D01*
X236014Y394207D01*
X237413Y391590D01*
X239296Y389296D01*
X241590Y387413D01*
X244207Y386014D01*
X245000Y385774D01*
Y395000D01*
D02*
G37*
G36*
X264226D02*
X255000D01*
Y385774D01*
X255793Y386014D01*
X258410Y387413D01*
X260704Y389296D01*
X262587Y391590D01*
X263986Y394207D01*
X264226Y395000D01*
D02*
G37*
G36*
X245000Y414226D02*
X244207Y413986D01*
X241590Y412587D01*
X239296Y410704D01*
X237413Y408410D01*
X236014Y405793D01*
X235774Y405000D01*
X245000D01*
Y414226D01*
D02*
G37*
G36*
X194200D02*
X193407Y413986D01*
X190790Y412587D01*
X188496Y410704D01*
X186613Y408410D01*
X185214Y405793D01*
X184974Y405000D01*
X194200D01*
Y414226D01*
D02*
G37*
G36*
X505224Y415000D02*
X472500D01*
Y382276D01*
X473463Y382352D01*
X479279Y383748D01*
X484805Y386037D01*
X489905Y389162D01*
X494453Y393047D01*
X498338Y397595D01*
X501463Y402695D01*
X503752Y408221D01*
X505148Y414037D01*
X505224Y415000D01*
D02*
G37*
G36*
X462500D02*
X429776D01*
X429852Y414037D01*
X431248Y408221D01*
X433537Y402695D01*
X436662Y397595D01*
X440547Y393047D01*
X445095Y389162D01*
X450195Y386037D01*
X455721Y383748D01*
X461537Y382352D01*
X462500Y382276D01*
Y415000D01*
D02*
G37*
G36*
X194200Y395000D02*
X184974D01*
X185214Y394207D01*
X186613Y391590D01*
X188496Y389296D01*
X190790Y387413D01*
X193407Y386014D01*
X194200Y385774D01*
Y395000D01*
D02*
G37*
G36*
X125000Y590000D02*
X117827D01*
X118505Y588363D01*
X120614Y585614D01*
X123363Y583505D01*
X125000Y582827D01*
Y590000D01*
D02*
G37*
G36*
X345000D02*
X337827D01*
X338505Y588363D01*
X340614Y585614D01*
X343363Y583505D01*
X345000Y582827D01*
Y590000D01*
D02*
G37*
G36*
X362173D02*
X355000D01*
Y582827D01*
X356637Y583505D01*
X359386Y585614D01*
X361495Y588363D01*
X362173Y590000D01*
D02*
G37*
G36*
X142173D02*
X135000D01*
Y582827D01*
X136637Y583505D01*
X139386Y585614D01*
X141495Y588363D01*
X142173Y590000D01*
D02*
G37*
G36*
X255000Y414226D02*
Y405000D01*
X264226D01*
X263986Y405793D01*
X262587Y408410D01*
X260704Y410704D01*
X258410Y412587D01*
X255793Y413986D01*
X255000Y414226D01*
D02*
G37*
G36*
X204200D02*
Y405000D01*
X213426D01*
X213186Y405793D01*
X211787Y408410D01*
X209904Y410704D01*
X207610Y412587D01*
X204993Y413986D01*
X204200Y414226D01*
D02*
G37*
G36*
X462500Y457724D02*
X461537Y457648D01*
X455721Y456252D01*
X450195Y453963D01*
X445095Y450838D01*
X440547Y446953D01*
X436662Y442405D01*
X433537Y437305D01*
X431248Y431779D01*
X429852Y425963D01*
X429776Y425000D01*
X462500D01*
Y457724D01*
D02*
G37*
G36*
X472500D02*
Y425000D01*
X505224D01*
X505148Y425963D01*
X503752Y431779D01*
X501463Y437305D01*
X498338Y442405D01*
X494453Y446953D01*
X489905Y450838D01*
X484805Y453963D01*
X479279Y456252D01*
X473463Y457648D01*
X472500Y457724D01*
D02*
G37*
G36*
X495000Y833100D02*
X488000D01*
X488644Y831544D01*
X490728Y828828D01*
X493444Y826745D01*
X495000Y826100D01*
Y833100D01*
D02*
G37*
G36*
X512000D02*
X505000D01*
Y826100D01*
X506556Y826745D01*
X509272Y828828D01*
X511356Y831544D01*
X512000Y833100D01*
D02*
G37*
G36*
X274226Y1275000D02*
X265000D01*
Y1265774D01*
X265793Y1266014D01*
X268410Y1267413D01*
X270704Y1269296D01*
X272587Y1271590D01*
X273986Y1274207D01*
X274226Y1275000D01*
D02*
G37*
G36*
X223426D02*
X214200D01*
Y1265774D01*
X214993Y1266014D01*
X217610Y1267413D01*
X219904Y1269296D01*
X221787Y1271590D01*
X223186Y1274207D01*
X223426Y1275000D01*
D02*
G37*
G36*
X204200Y1294226D02*
X203407Y1293986D01*
X200790Y1292587D01*
X198496Y1290704D01*
X196613Y1288410D01*
X195214Y1285793D01*
X194974Y1285000D01*
X204200D01*
Y1294226D01*
D02*
G37*
G36*
X255000D02*
X254207Y1293986D01*
X251590Y1292587D01*
X249296Y1290704D01*
X247413Y1288410D01*
X246014Y1285793D01*
X245774Y1285000D01*
X255000D01*
Y1294226D01*
D02*
G37*
G36*
Y1275000D02*
X245774D01*
X246014Y1274207D01*
X247413Y1271590D01*
X249296Y1269296D01*
X251590Y1267413D01*
X254207Y1266014D01*
X255000Y1265774D01*
Y1275000D01*
D02*
G37*
G36*
X432500Y1247724D02*
X431537Y1247648D01*
X425721Y1246252D01*
X420195Y1243963D01*
X415095Y1240838D01*
X410547Y1236953D01*
X406662Y1232405D01*
X403537Y1227305D01*
X401248Y1221779D01*
X399852Y1215963D01*
X399776Y1215000D01*
X432500D01*
Y1247724D01*
D02*
G37*
G36*
X204200Y1275000D02*
X194974D01*
X195214Y1274207D01*
X196613Y1271590D01*
X198496Y1269296D01*
X200790Y1267413D01*
X203407Y1266014D01*
X204200Y1265774D01*
Y1275000D01*
D02*
G37*
G36*
X442500Y1247724D02*
Y1215000D01*
X475224D01*
X475148Y1215963D01*
X473752Y1221779D01*
X471463Y1227305D01*
X468338Y1232405D01*
X464453Y1236953D01*
X459905Y1240838D01*
X454805Y1243963D01*
X449279Y1246252D01*
X443463Y1247648D01*
X442500Y1247724D01*
D02*
G37*
G36*
X265000Y1294226D02*
Y1285000D01*
X274226D01*
X273986Y1285793D01*
X272587Y1288410D01*
X270704Y1290704D01*
X268410Y1292587D01*
X265793Y1293986D01*
X265000Y1294226D01*
D02*
G37*
G36*
X214200D02*
Y1285000D01*
X223426D01*
X223186Y1285793D01*
X221787Y1288410D01*
X219904Y1290704D01*
X217610Y1292587D01*
X214993Y1293986D01*
X214200Y1294226D01*
D02*
G37*
G36*
X368350Y1065000D02*
X358669D01*
X358961Y1064040D01*
X360400Y1061347D01*
X362337Y1058987D01*
X364697Y1057050D01*
X367390Y1055611D01*
X368350Y1055319D01*
Y1065000D01*
D02*
G37*
G36*
X505000Y850100D02*
Y843100D01*
X512000D01*
X511356Y844656D01*
X509272Y847372D01*
X506556Y849455D01*
X505000Y850100D01*
D02*
G37*
G36*
X495000Y850100D02*
X493444Y849455D01*
X490728Y847372D01*
X488644Y844656D01*
X488000Y843100D01*
X495000D01*
Y850100D01*
D02*
G37*
G36*
X388031Y1065000D02*
X378350D01*
Y1055319D01*
X379310Y1055611D01*
X382003Y1057050D01*
X384363Y1058987D01*
X386300Y1061347D01*
X387739Y1064040D01*
X388031Y1065000D01*
D02*
G37*
G36*
X475224Y1205000D02*
X442500D01*
Y1172276D01*
X443463Y1172352D01*
X449279Y1173748D01*
X454805Y1176037D01*
X459905Y1179162D01*
X464453Y1183047D01*
X468338Y1187595D01*
X471463Y1192695D01*
X473752Y1198221D01*
X475148Y1204037D01*
X475224Y1205000D01*
D02*
G37*
G36*
X432500D02*
X399776D01*
X399852Y1204037D01*
X401248Y1198221D01*
X403537Y1192695D01*
X406662Y1187595D01*
X410547Y1183047D01*
X415095Y1179162D01*
X420195Y1176037D01*
X425721Y1173748D01*
X431537Y1172352D01*
X432500Y1172276D01*
Y1205000D01*
D02*
G37*
G36*
X378350Y1084681D02*
Y1075000D01*
X388031D01*
X387739Y1075960D01*
X386300Y1078653D01*
X384363Y1081013D01*
X382003Y1082950D01*
X379310Y1084389D01*
X378350Y1084681D01*
D02*
G37*
G36*
X368350D02*
X367390Y1084389D01*
X364697Y1082950D01*
X362337Y1081013D01*
X360400Y1078653D01*
X358961Y1075960D01*
X358669Y1075000D01*
X368350D01*
Y1084681D01*
D02*
G37*
G36*
X1264200Y814226D02*
Y805000D01*
X1273426D01*
X1273186Y805793D01*
X1271787Y808410D01*
X1269904Y810704D01*
X1267610Y812587D01*
X1264993Y813986D01*
X1264200Y814226D01*
D02*
G37*
G36*
X1305000Y814226D02*
X1304207Y813986D01*
X1301590Y812587D01*
X1299296Y810704D01*
X1297413Y808410D01*
X1296014Y805793D01*
X1295774Y805000D01*
X1305000D01*
Y814226D01*
D02*
G37*
G36*
X1315000Y814226D02*
Y805000D01*
X1324226D01*
X1323986Y805793D01*
X1322587Y808410D01*
X1320704Y810704D01*
X1318410Y812587D01*
X1315793Y813986D01*
X1315000Y814226D01*
D02*
G37*
G36*
X1254200Y814226D02*
X1253407Y813986D01*
X1250790Y812587D01*
X1248496Y810704D01*
X1246613Y808410D01*
X1245214Y805793D01*
X1244974Y805000D01*
X1254200D01*
Y814226D01*
D02*
G37*
G36*
X1305000Y795000D02*
X1295774D01*
X1296014Y794207D01*
X1297413Y791590D01*
X1299296Y789296D01*
X1301590Y787413D01*
X1304207Y786014D01*
X1305000Y785774D01*
Y795000D01*
D02*
G37*
G36*
X1254200D02*
X1244974D01*
X1245214Y794207D01*
X1246613Y791590D01*
X1248496Y789296D01*
X1250790Y787413D01*
X1253407Y786014D01*
X1254200Y785774D01*
Y795000D01*
D02*
G37*
G36*
X1324226D02*
X1315000D01*
Y785774D01*
X1315793Y786014D01*
X1318410Y787413D01*
X1320704Y789296D01*
X1322587Y791590D01*
X1323986Y794207D01*
X1324226Y795000D01*
D02*
G37*
G36*
X1273426D02*
X1264200D01*
Y785774D01*
X1264993Y786014D01*
X1267610Y787413D01*
X1269904Y789296D01*
X1271787Y791590D01*
X1273186Y794207D01*
X1273426Y795000D01*
D02*
G37*
G36*
X1227500Y415000D02*
X1194776D01*
X1194852Y414037D01*
X1196248Y408221D01*
X1198537Y402695D01*
X1201662Y397595D01*
X1205547Y393047D01*
X1210095Y389162D01*
X1215195Y386037D01*
X1220721Y383748D01*
X1226537Y382352D01*
X1227500Y382276D01*
Y415000D01*
D02*
G37*
G36*
X1270224D02*
X1237500D01*
Y382276D01*
X1238463Y382352D01*
X1244279Y383748D01*
X1249805Y386037D01*
X1254905Y389162D01*
X1259453Y393047D01*
X1263338Y397595D01*
X1266463Y402695D01*
X1268752Y408221D01*
X1270148Y414037D01*
X1270224Y415000D01*
D02*
G37*
G36*
X1237500Y457724D02*
Y425000D01*
X1270224D01*
X1270148Y425963D01*
X1268752Y431779D01*
X1266463Y437305D01*
X1263338Y442405D01*
X1259453Y446953D01*
X1254905Y450838D01*
X1249805Y453963D01*
X1244279Y456252D01*
X1238463Y457648D01*
X1237500Y457724D01*
D02*
G37*
G36*
X1227500D02*
X1226537Y457648D01*
X1220721Y456252D01*
X1215195Y453963D01*
X1210095Y450838D01*
X1205547Y446953D01*
X1201662Y442405D01*
X1198537Y437305D01*
X1196248Y431779D01*
X1194852Y425963D01*
X1194776Y425000D01*
X1227500D01*
Y457724D01*
D02*
G37*
%LPD*%
D10*
X850000Y420000D02*
D03*
X820000Y1210000D02*
D03*
D11*
X467500Y420000D02*
D03*
X1232500D02*
D03*
X437500Y1210000D02*
D03*
X1202500D02*
D03*
D12*
X1310000Y800000D02*
D03*
X1259200D02*
D03*
X260000Y1280000D02*
D03*
X209200D02*
D03*
X1310800Y1390000D02*
D03*
X1260000D02*
D03*
X250000Y400000D02*
D03*
X199200D02*
D03*
D13*
X350000Y595000D02*
D03*
Y970000D02*
D03*
X130000Y595000D02*
D03*
Y970000D02*
D03*
D14*
X106650Y1070000D02*
D03*
X373350D02*
D03*
X1340000Y1520000D02*
D03*
X20000D02*
D03*
D15*
X500000Y838100D02*
D03*
Y761900D02*
D03*
D16*
X1135000Y1130000D02*
D03*
Y1160000D02*
D03*
Y1190000D02*
D03*
Y1220000D02*
D03*
Y1250000D02*
D03*
Y1280000D02*
D03*
Y1310000D02*
D03*
Y1340000D02*
D03*
Y1370000D02*
D03*
Y1400000D02*
D03*
Y1430000D02*
D03*
X1165000Y1130000D02*
D03*
Y1160000D02*
D03*
Y1280000D02*
D03*
Y1310000D02*
D03*
Y1340000D02*
D03*
Y1370000D02*
D03*
Y1400000D02*
D03*
Y1430000D02*
D03*
X1195000Y1130000D02*
D03*
Y1160000D02*
D03*
Y1280000D02*
D03*
Y1310000D02*
D03*
Y1340000D02*
D03*
Y1370000D02*
D03*
Y1400000D02*
D03*
Y1430000D02*
D03*
X1225000Y1130000D02*
D03*
Y1160000D02*
D03*
Y1280000D02*
D03*
Y1310000D02*
D03*
Y1340000D02*
D03*
Y1370000D02*
D03*
Y1400000D02*
D03*
Y1430000D02*
D03*
X1255000Y1130000D02*
D03*
Y1160000D02*
D03*
Y1190000D02*
D03*
Y1220000D02*
D03*
Y1250000D02*
D03*
Y1280000D02*
D03*
Y1310000D02*
D03*
Y1340000D02*
D03*
Y1430000D02*
D03*
X1285000Y1130000D02*
D03*
Y1160000D02*
D03*
Y1190000D02*
D03*
Y1220000D02*
D03*
Y1250000D02*
D03*
Y1280000D02*
D03*
Y1340000D02*
D03*
Y1430000D02*
D03*
X1315000Y1130000D02*
D03*
Y1160000D02*
D03*
Y1190000D02*
D03*
Y1220000D02*
D03*
Y1250000D02*
D03*
Y1280000D02*
D03*
Y1310000D02*
D03*
Y1340000D02*
D03*
Y1430000D02*
D03*
X1120000Y375000D02*
D03*
Y405000D02*
D03*
Y435000D02*
D03*
Y465000D02*
D03*
Y495000D02*
D03*
X1150000Y345000D02*
D03*
Y375000D02*
D03*
Y405000D02*
D03*
Y435000D02*
D03*
Y465000D02*
D03*
Y495000D02*
D03*
Y525000D02*
D03*
X1180000Y345000D02*
D03*
Y495000D02*
D03*
Y525000D02*
D03*
X1210000Y345000D02*
D03*
Y495000D02*
D03*
Y525000D02*
D03*
X1240000Y345000D02*
D03*
Y495000D02*
D03*
Y525000D02*
D03*
X1270000Y345000D02*
D03*
Y495000D02*
D03*
Y525000D02*
D03*
X1300000Y345000D02*
D03*
Y375000D02*
D03*
Y405000D02*
D03*
Y435000D02*
D03*
Y465000D02*
D03*
Y495000D02*
D03*
Y525000D02*
D03*
X1330000Y375000D02*
D03*
Y405000D02*
D03*
Y435000D02*
D03*
Y465000D02*
D03*
Y495000D02*
D03*
X1126000Y766000D02*
D03*
Y796000D02*
D03*
Y826000D02*
D03*
X1156000Y736000D02*
D03*
Y766000D02*
D03*
Y796000D02*
D03*
Y826000D02*
D03*
Y856000D02*
D03*
X1186000Y736000D02*
D03*
Y766000D02*
D03*
Y796000D02*
D03*
Y826000D02*
D03*
Y856000D02*
D03*
X1216000Y736000D02*
D03*
Y766000D02*
D03*
Y796000D02*
D03*
Y826000D02*
D03*
Y856000D02*
D03*
X1246000Y736000D02*
D03*
Y766000D02*
D03*
Y826000D02*
D03*
Y856000D02*
D03*
X1276000Y736000D02*
D03*
Y766000D02*
D03*
Y826000D02*
D03*
Y856000D02*
D03*
X1305999Y736000D02*
D03*
Y766000D02*
D03*
Y826000D02*
D03*
Y856000D02*
D03*
X1335999Y766000D02*
D03*
Y796000D02*
D03*
Y826000D02*
D03*
X166000Y1216000D02*
D03*
Y1246000D02*
D03*
Y1276000D02*
D03*
Y1305999D02*
D03*
Y1335999D02*
D03*
X196000Y1216000D02*
D03*
Y1246000D02*
D03*
Y1305999D02*
D03*
Y1335999D02*
D03*
X226000Y1246000D02*
D03*
Y1305999D02*
D03*
Y1335999D02*
D03*
X256000Y1216000D02*
D03*
Y1246000D02*
D03*
Y1305999D02*
D03*
Y1335999D02*
D03*
X286000Y1216000D02*
D03*
Y1246000D02*
D03*
Y1276000D02*
D03*
Y1305999D02*
D03*
Y1335999D02*
D03*
X376000Y1126000D02*
D03*
Y1156000D02*
D03*
Y1186000D02*
D03*
Y1216000D02*
D03*
Y1246000D02*
D03*
Y1276000D02*
D03*
Y1305999D02*
D03*
X406000Y1126000D02*
D03*
Y1156000D02*
D03*
Y1246000D02*
D03*
Y1276000D02*
D03*
Y1305999D02*
D03*
X436000Y1126000D02*
D03*
Y1156000D02*
D03*
Y1276000D02*
D03*
Y1305999D02*
D03*
X466000Y1126000D02*
D03*
Y1156000D02*
D03*
Y1246000D02*
D03*
Y1276000D02*
D03*
Y1305999D02*
D03*
X496000Y1126000D02*
D03*
Y1156000D02*
D03*
Y1186000D02*
D03*
Y1216000D02*
D03*
Y1246000D02*
D03*
Y1276000D02*
D03*
Y1305999D02*
D03*
X76000Y316000D02*
D03*
Y346000D02*
D03*
Y376000D02*
D03*
Y406000D02*
D03*
Y436000D02*
D03*
Y466000D02*
D03*
X106000Y316000D02*
D03*
Y346000D02*
D03*
Y376000D02*
D03*
Y406000D02*
D03*
Y436000D02*
D03*
Y466000D02*
D03*
X136000Y316000D02*
D03*
Y346000D02*
D03*
Y376000D02*
D03*
Y406000D02*
D03*
Y436000D02*
D03*
Y466000D02*
D03*
X166000Y316000D02*
D03*
Y346000D02*
D03*
Y376000D02*
D03*
Y406000D02*
D03*
Y436000D02*
D03*
Y466000D02*
D03*
X196000Y316000D02*
D03*
Y346000D02*
D03*
Y376000D02*
D03*
Y436000D02*
D03*
Y466000D02*
D03*
X226000Y316000D02*
D03*
Y436000D02*
D03*
Y466000D02*
D03*
X256000Y316000D02*
D03*
Y346000D02*
D03*
Y376000D02*
D03*
Y436000D02*
D03*
Y466000D02*
D03*
X286000Y316000D02*
D03*
Y346000D02*
D03*
Y376000D02*
D03*
Y406000D02*
D03*
Y436000D02*
D03*
Y466000D02*
D03*
X316000Y316000D02*
D03*
Y346000D02*
D03*
Y376000D02*
D03*
Y406000D02*
D03*
Y436000D02*
D03*
Y466000D02*
D03*
X346000Y316000D02*
D03*
Y346000D02*
D03*
Y376000D02*
D03*
Y406000D02*
D03*
Y436000D02*
D03*
Y466000D02*
D03*
X376000Y316000D02*
D03*
Y346000D02*
D03*
Y376000D02*
D03*
Y406000D02*
D03*
Y436000D02*
D03*
Y466000D02*
D03*
X406000Y316000D02*
D03*
Y346000D02*
D03*
Y376000D02*
D03*
Y406000D02*
D03*
Y436000D02*
D03*
Y466000D02*
D03*
X436000Y316000D02*
D03*
Y346000D02*
D03*
Y376000D02*
D03*
Y466000D02*
D03*
X466000Y316000D02*
D03*
Y346000D02*
D03*
Y376000D02*
D03*
Y466000D02*
D03*
X496000Y316000D02*
D03*
Y346000D02*
D03*
Y376000D02*
D03*
Y466000D02*
D03*
X526000Y316000D02*
D03*
Y346000D02*
D03*
Y376000D02*
D03*
Y406000D02*
D03*
Y436000D02*
D03*
Y466000D02*
D03*
X556000Y316000D02*
D03*
Y346000D02*
D03*
Y376000D02*
D03*
Y406000D02*
D03*
Y436000D02*
D03*
Y466000D02*
D03*
X586000Y316000D02*
D03*
Y346000D02*
D03*
Y376000D02*
D03*
Y406000D02*
D03*
Y436000D02*
D03*
Y466000D02*
D03*
M02*
