G04 Layer_Color=8388736*
%FSLAX44Y44*%
%MOMM*%
G71*
G01*
G75*
%ADD24C,0.2032*%
%ADD25C,7.2032*%
%ADD26C,8.2032*%
%ADD27C,2.6162*%
%ADD28C,2.2352*%
%ADD29C,2.7032*%
%ADD30C,2.2032*%
%ADD31C,1.4032*%
D24*
X942500Y1330000D02*
D03*
X822500D02*
D03*
X702500D02*
D03*
X942500Y1210000D02*
D03*
X702500D02*
D03*
Y1090000D02*
D03*
X822500D02*
D03*
X942500D02*
D03*
X727500Y540000D02*
D03*
X847500D02*
D03*
X967500D02*
D03*
Y420000D02*
D03*
X727500D02*
D03*
X967500Y300000D02*
D03*
X847500D02*
D03*
X727500D02*
D03*
D25*
X437500Y1210000D02*
D03*
X1202500D02*
D03*
X467500Y420000D02*
D03*
X1232500D02*
D03*
D26*
X820000Y1210000D02*
D03*
X850000Y420000D02*
D03*
D27*
X1225000Y800000D02*
D03*
X1174200D02*
D03*
X260000Y1280000D02*
D03*
X209200D02*
D03*
X1260800Y1420000D02*
D03*
X1210000D02*
D03*
X250000Y400000D02*
D03*
X199200D02*
D03*
D28*
X355000Y590000D02*
D03*
Y965000D02*
D03*
X145000Y590000D02*
D03*
Y965000D02*
D03*
D29*
X106650Y1070000D02*
D03*
X373350D02*
D03*
X1340000Y1520000D02*
D03*
X20000D02*
D03*
D30*
X500000Y838100D02*
D03*
Y761900D02*
D03*
D31*
X1335999Y826000D02*
D03*
Y796000D02*
D03*
Y766000D02*
D03*
Y736000D02*
D03*
Y706000D02*
D03*
X1305999Y856000D02*
D03*
Y826000D02*
D03*
Y796000D02*
D03*
Y766000D02*
D03*
Y736000D02*
D03*
Y706000D02*
D03*
Y676000D02*
D03*
X1276000Y856000D02*
D03*
Y826000D02*
D03*
Y796000D02*
D03*
Y766000D02*
D03*
Y736000D02*
D03*
Y706000D02*
D03*
Y676000D02*
D03*
X1246000Y856000D02*
D03*
Y826000D02*
D03*
Y796000D02*
D03*
Y766000D02*
D03*
Y736000D02*
D03*
Y706000D02*
D03*
Y676000D02*
D03*
X1216000Y856000D02*
D03*
Y826000D02*
D03*
Y766000D02*
D03*
Y736000D02*
D03*
Y706000D02*
D03*
Y676000D02*
D03*
X1186000Y856000D02*
D03*
Y826000D02*
D03*
Y766000D02*
D03*
Y736000D02*
D03*
Y706000D02*
D03*
Y676000D02*
D03*
X1156000Y856000D02*
D03*
Y826000D02*
D03*
Y766000D02*
D03*
Y736000D02*
D03*
Y706000D02*
D03*
Y676000D02*
D03*
X1126000Y826000D02*
D03*
Y796000D02*
D03*
Y766000D02*
D03*
Y736000D02*
D03*
Y706000D02*
D03*
X1335999Y1425999D02*
D03*
Y1395999D02*
D03*
Y1365999D02*
D03*
Y1335999D02*
D03*
Y1305999D02*
D03*
Y1276000D02*
D03*
Y1246000D02*
D03*
Y1216000D02*
D03*
Y1186000D02*
D03*
Y1156000D02*
D03*
X1305999Y1455999D02*
D03*
Y1425999D02*
D03*
Y1395999D02*
D03*
Y1365999D02*
D03*
Y1335999D02*
D03*
Y1305999D02*
D03*
Y1276000D02*
D03*
Y1246000D02*
D03*
Y1216000D02*
D03*
Y1186000D02*
D03*
Y1156000D02*
D03*
Y1126000D02*
D03*
X1276000Y1455999D02*
D03*
Y1395999D02*
D03*
Y1365999D02*
D03*
Y1335999D02*
D03*
Y1305999D02*
D03*
Y1276000D02*
D03*
Y1246000D02*
D03*
Y1216000D02*
D03*
Y1186000D02*
D03*
Y1156000D02*
D03*
Y1126000D02*
D03*
X1246000Y1455999D02*
D03*
Y1395999D02*
D03*
Y1365999D02*
D03*
Y1335999D02*
D03*
Y1305999D02*
D03*
Y1276000D02*
D03*
Y1246000D02*
D03*
Y1186000D02*
D03*
Y1156000D02*
D03*
Y1126000D02*
D03*
X1216000Y1455999D02*
D03*
Y1395999D02*
D03*
Y1365999D02*
D03*
Y1335999D02*
D03*
Y1305999D02*
D03*
Y1276000D02*
D03*
Y1156000D02*
D03*
Y1126000D02*
D03*
X1186000Y1455999D02*
D03*
Y1425999D02*
D03*
Y1395999D02*
D03*
Y1365999D02*
D03*
Y1335999D02*
D03*
Y1305999D02*
D03*
Y1276000D02*
D03*
Y1156000D02*
D03*
Y1126000D02*
D03*
X1156000Y1455999D02*
D03*
Y1425999D02*
D03*
Y1395999D02*
D03*
Y1365999D02*
D03*
Y1335999D02*
D03*
Y1305999D02*
D03*
Y1276000D02*
D03*
Y1246000D02*
D03*
Y1216000D02*
D03*
Y1186000D02*
D03*
Y1156000D02*
D03*
Y1126000D02*
D03*
X1126000Y1425999D02*
D03*
Y1395999D02*
D03*
Y1365999D02*
D03*
Y1335999D02*
D03*
Y1305999D02*
D03*
Y1276000D02*
D03*
Y1246000D02*
D03*
Y1216000D02*
D03*
Y1186000D02*
D03*
Y1156000D02*
D03*
X1120000Y375000D02*
D03*
Y405000D02*
D03*
Y435000D02*
D03*
Y465000D02*
D03*
Y495000D02*
D03*
X1150000Y345000D02*
D03*
Y375000D02*
D03*
Y405000D02*
D03*
Y435000D02*
D03*
Y465000D02*
D03*
Y495000D02*
D03*
Y525000D02*
D03*
X1180000Y345000D02*
D03*
Y495000D02*
D03*
Y525000D02*
D03*
X1210000Y345000D02*
D03*
Y495000D02*
D03*
Y525000D02*
D03*
X1240000Y345000D02*
D03*
Y495000D02*
D03*
Y525000D02*
D03*
X1270000Y345000D02*
D03*
Y495000D02*
D03*
Y525000D02*
D03*
X1300000Y345000D02*
D03*
Y375000D02*
D03*
Y405000D02*
D03*
Y435000D02*
D03*
Y465000D02*
D03*
Y495000D02*
D03*
Y525000D02*
D03*
X1330000Y375000D02*
D03*
Y405000D02*
D03*
Y435000D02*
D03*
Y465000D02*
D03*
Y495000D02*
D03*
X166000Y1216000D02*
D03*
Y1246000D02*
D03*
Y1276000D02*
D03*
Y1305999D02*
D03*
Y1335999D02*
D03*
X196000Y1216000D02*
D03*
Y1246000D02*
D03*
Y1305999D02*
D03*
Y1335999D02*
D03*
X226000Y1246000D02*
D03*
Y1305999D02*
D03*
Y1335999D02*
D03*
X256000Y1216000D02*
D03*
Y1246000D02*
D03*
Y1305999D02*
D03*
Y1335999D02*
D03*
X286000Y1216000D02*
D03*
Y1246000D02*
D03*
Y1276000D02*
D03*
Y1305999D02*
D03*
Y1335999D02*
D03*
X376000Y1126000D02*
D03*
Y1156000D02*
D03*
Y1186000D02*
D03*
Y1216000D02*
D03*
Y1246000D02*
D03*
Y1276000D02*
D03*
Y1305999D02*
D03*
X406000Y1126000D02*
D03*
Y1156000D02*
D03*
Y1246000D02*
D03*
Y1276000D02*
D03*
Y1305999D02*
D03*
X436000Y1126000D02*
D03*
Y1156000D02*
D03*
Y1276000D02*
D03*
Y1305999D02*
D03*
X466000Y1126000D02*
D03*
Y1156000D02*
D03*
Y1246000D02*
D03*
Y1276000D02*
D03*
Y1305999D02*
D03*
X496000Y1126000D02*
D03*
Y1156000D02*
D03*
Y1186000D02*
D03*
Y1216000D02*
D03*
Y1246000D02*
D03*
Y1276000D02*
D03*
Y1305999D02*
D03*
X76000Y316000D02*
D03*
Y346000D02*
D03*
Y376000D02*
D03*
Y406000D02*
D03*
Y436000D02*
D03*
Y466000D02*
D03*
X106000Y316000D02*
D03*
Y346000D02*
D03*
Y376000D02*
D03*
Y406000D02*
D03*
Y436000D02*
D03*
Y466000D02*
D03*
X136000Y316000D02*
D03*
Y346000D02*
D03*
Y376000D02*
D03*
Y406000D02*
D03*
Y436000D02*
D03*
Y466000D02*
D03*
X166000Y316000D02*
D03*
Y346000D02*
D03*
Y376000D02*
D03*
Y406000D02*
D03*
Y436000D02*
D03*
Y466000D02*
D03*
X196000Y316000D02*
D03*
Y346000D02*
D03*
Y376000D02*
D03*
Y436000D02*
D03*
Y466000D02*
D03*
X226000Y316000D02*
D03*
Y436000D02*
D03*
Y466000D02*
D03*
X256000Y316000D02*
D03*
Y346000D02*
D03*
Y376000D02*
D03*
Y436000D02*
D03*
Y466000D02*
D03*
X286000Y316000D02*
D03*
Y346000D02*
D03*
Y376000D02*
D03*
Y406000D02*
D03*
Y436000D02*
D03*
Y466000D02*
D03*
X316000Y316000D02*
D03*
Y346000D02*
D03*
Y376000D02*
D03*
Y406000D02*
D03*
Y436000D02*
D03*
Y466000D02*
D03*
X346000Y316000D02*
D03*
Y346000D02*
D03*
Y376000D02*
D03*
Y406000D02*
D03*
Y436000D02*
D03*
Y466000D02*
D03*
X376000Y316000D02*
D03*
Y346000D02*
D03*
Y376000D02*
D03*
Y406000D02*
D03*
Y436000D02*
D03*
Y466000D02*
D03*
X406000Y316000D02*
D03*
Y346000D02*
D03*
Y376000D02*
D03*
Y406000D02*
D03*
Y436000D02*
D03*
Y466000D02*
D03*
X436000Y316000D02*
D03*
Y346000D02*
D03*
Y376000D02*
D03*
Y466000D02*
D03*
X466000Y316000D02*
D03*
Y346000D02*
D03*
Y376000D02*
D03*
Y466000D02*
D03*
X496000Y316000D02*
D03*
Y346000D02*
D03*
Y376000D02*
D03*
Y466000D02*
D03*
X526000Y316000D02*
D03*
Y346000D02*
D03*
Y376000D02*
D03*
Y406000D02*
D03*
Y436000D02*
D03*
Y466000D02*
D03*
X556000Y316000D02*
D03*
Y346000D02*
D03*
Y376000D02*
D03*
Y406000D02*
D03*
Y436000D02*
D03*
Y466000D02*
D03*
X586000Y316000D02*
D03*
Y346000D02*
D03*
Y376000D02*
D03*
Y406000D02*
D03*
Y436000D02*
D03*
Y466000D02*
D03*
M02*
