M48
;Layer_Color=9474304
;FILE_FORMAT=4:4
METRIC,LZ
;TYPE=PLATED
T1F00S00C0.7000
T2F00S00C1.0000
T3F00S00C1.2000
T4F00S00C1.3000
T5F00S00C1.5000
T6F00S00C2.5000
T7F00S00C5.0000
T8F00S00C6.0000
T9F00S00C10.0000
%
T01
X0112Y00375
Y00405
Y00435
Y00465
Y00495
X0115
Y00465
Y00435
Y00405
Y00375
Y00345
X0118
X0121
X0124
X0127
X013
Y00375
Y00405
Y00435
Y00465
Y00495
X0127
X0124
X0121
X0118
Y00525
X0115
X0121
X0124
X0127
X013
X0133Y00495
Y00465
Y00435
Y00405
Y00375
X00586Y00376
X00556
Y00346
Y00316
X00586
Y00346
Y00406
X00556
Y00436
Y00466
X00586
Y00436
X00526
Y00406
Y00376
X00496
X00466
X00436
X00406
X00376
X00346
X00316
X00286
X00256
Y00346
Y00316
X00226
X00196
X00166
Y00346
Y00376
Y00406
Y00436
Y00466
X00196
Y00436
X00226
Y00466
X00256
Y00436
X00286
Y00406
X00316
Y00436
Y00466
X00286
X00346
Y00436
Y00406
X00376
Y00436
Y00466
X00406
Y00436
Y00406
Y00346
X00376
X00346
X00316
X00286
Y00316
X00316
X00346
X00376
X00406
X00436
Y00346
X00466
Y00316
X00496
Y00346
X00526
Y00316
Y00466
X00496
X00466
X00436
X00196Y00376
Y00346
X00136
X00106
X00076
Y00316
X00106
X00136
Y00376
X00106
X00076
Y00406
Y00436
Y00466
X00106
Y00436
Y00406
X00136
Y00436
Y00466
X01126Y00766
Y00796
Y00826
X01156
Y00796
Y00766
Y00736
X01186
Y00766
Y00796
Y00826
Y00856
X01156
X01216
Y00826
Y00796
Y00766
Y00736
X01246
Y00766
X01276
Y00736
X01305999
Y00766
Y00826
X01276
X01246
Y00856
X01276
X01305999
X01335999Y00826
Y00796
Y00766
X01315Y0113
X01285
X01255
X01225
X01195
X01165
X01135
Y0116
Y0119
Y0122
Y0125
Y0128
Y0131
X01165
Y0128
X01195
Y0131
X01225
Y0128
X01255
Y0125
Y0122
Y0119
Y0116
X01225
X01195
X01165
X01285
Y0119
Y0122
Y0125
Y0128
X01315
Y0125
Y0122
Y0119
Y0116
Y0131
X01255
X00496Y01305999
X00466
X00436
X00406
X00376
Y01276
Y01246
Y01216
Y01186
Y01156
Y01126
X00406
Y01156
X00436
Y01126
X00466
Y01156
X00496
Y01126
Y01186
Y01216
Y01246
X00466
Y01276
X00436
X00406
Y01246
X00286
X00256
X00226
X00196
X00166
Y01216
X00196
X00256
X00286
Y01276
Y01305999
X00256
X00226
X00196
X00166
Y01276
X00496
X00286Y01335999
X00256
X00226
X00196
X00166
X01135Y0134
Y0137
Y014
Y0143
X01165
Y014
Y0137
Y0134
X01195
Y0137
Y014
Y0143
X01225
Y014
Y0137
Y0134
X01255
X01285
X01315
Y0143
X01285
X01255
T02
X005Y007619
Y008381
T03
X0037335Y0107
X0010665
T04
X0013Y00595
X0035
Y0097
X0013
T05
X001992Y004
X0025
X012592Y008
X0131
X0026Y0128
X002092
X0126Y0139
X013108
T06
X0002Y0152
X0134
T07
X012325Y0042
X004675
X012025Y0121
X004375
T08
X0085Y0042
X0082Y0121
T09
X009675Y003
Y0042
X008475Y003
X007275
Y0042
Y0054
X008475
X009675
X009425Y0109
Y0121
Y0133
X008225
X007025
Y0121
Y0109
X008225
M30
