G04 Layer_Physical_Order=2*
G04 Layer_Color=16711680*
%FSLAX44Y44*%
%MOMM*%
G71*
G01*
G75*
%ADD10C,8.0000*%
%ADD11C,7.0000*%
%ADD12C,2.4130*%
%ADD13C,2.0320*%
%ADD14C,2.5000*%
%ADD15C,2.0000*%
%ADD16C,1.2000*%
%ADD17R,30.5000X9.0000*%
G36*
X570000Y1350000D02*
X570000Y1350000D01*
X571966Y1350000D01*
X575865Y1349487D01*
X579664Y1348469D01*
X583297Y1346964D01*
X586703Y1344998D01*
X589823Y1342603D01*
X592603Y1339823D01*
X594997Y1336703D01*
X596964Y1333297D01*
X598469Y1329664D01*
X599487Y1325865D01*
X600000Y1321966D01*
Y1320000D01*
X600000Y850000D01*
X600000Y850000D01*
X600000Y848034D01*
X599487Y844135D01*
X598469Y840336D01*
X596964Y836703D01*
X594997Y833297D01*
X592603Y830177D01*
X589823Y827396D01*
X586703Y825002D01*
X583297Y823036D01*
X579664Y821531D01*
X575865Y820513D01*
X571966Y820000D01*
X570000Y820000D01*
X450000Y820000D01*
X448034Y820000D01*
X444135Y820513D01*
X440336Y821531D01*
X436703Y823036D01*
X433297Y825002D01*
X430177Y827396D01*
X427396Y830177D01*
X425002Y833297D01*
X423036Y836703D01*
X421531Y840336D01*
X420513Y844135D01*
X420000Y848034D01*
X420000Y850000D01*
X420000Y1000000D01*
X420000Y1000000D01*
X420000Y1000000D01*
X419935Y1001962D01*
X419423Y1005853D01*
X418408Y1009643D01*
X416906Y1013269D01*
X414944Y1016667D01*
X412555Y1019780D01*
X409780Y1022555D01*
X406667Y1024944D01*
X403269Y1026906D01*
X399643Y1028408D01*
X395853Y1029424D01*
X391962Y1029936D01*
X390000Y1030000D01*
X290000Y1030000D01*
X290000Y1030000D01*
X288034Y1030000D01*
X284135Y1030513D01*
X280336Y1031531D01*
X276703Y1033036D01*
X273297Y1035002D01*
X270177Y1037396D01*
X267396Y1040177D01*
X265002Y1043297D01*
X263036Y1046703D01*
X261531Y1050336D01*
X260513Y1054135D01*
X260000Y1058034D01*
Y1060000D01*
X260000Y1170000D01*
X260000Y1170000D01*
X260000Y1170000D01*
X259935Y1171962D01*
X259423Y1175853D01*
X258408Y1179643D01*
X256906Y1183269D01*
X254944Y1186667D01*
X252555Y1189780D01*
X249780Y1192555D01*
X246667Y1194944D01*
X243269Y1196906D01*
X239643Y1198408D01*
X235853Y1199424D01*
X231962Y1199936D01*
X230000Y1200000D01*
X180000Y1200000D01*
X178034D01*
X174135Y1200513D01*
X170336Y1201531D01*
X166703Y1203036D01*
X163297Y1205002D01*
X160177Y1207396D01*
X157396Y1210177D01*
X155002Y1213297D01*
X153036Y1216703D01*
X151531Y1220336D01*
X150513Y1224135D01*
X150000Y1228034D01*
Y1230000D01*
Y1320000D01*
Y1321966D01*
X150513Y1325865D01*
X151531Y1329664D01*
X153036Y1333297D01*
X155002Y1336703D01*
X157396Y1339823D01*
X160177Y1342603D01*
X163297Y1344998D01*
X166703Y1346964D01*
X170336Y1348469D01*
X174135Y1349487D01*
X178034Y1350000D01*
X180000D01*
X570000Y1350000D01*
X570000Y1350000D01*
D02*
G37*
G36*
X450000Y780000D02*
X570000Y780000D01*
X570000Y780000D01*
X570000Y780000D01*
X571966Y780000D01*
X575865Y779487D01*
X579664Y778469D01*
X583297Y776964D01*
X586703Y774997D01*
X589823Y772604D01*
X592603Y769823D01*
X594998Y766703D01*
X596964Y763297D01*
X598469Y759664D01*
X599487Y755865D01*
X600000Y751966D01*
X600000Y750000D01*
X600000Y330000D01*
X600000Y330000D01*
X600000Y328034D01*
X599487Y324135D01*
X598469Y320336D01*
X596964Y316703D01*
X594997Y313297D01*
X592603Y310177D01*
X589823Y307396D01*
X586703Y305002D01*
X583297Y303036D01*
X579664Y301531D01*
X575865Y300513D01*
X571966Y300000D01*
X570000Y300000D01*
X80000Y300000D01*
X80000Y300000D01*
X78034D01*
X74135Y300513D01*
X70336Y301531D01*
X66703Y303036D01*
X63297Y305002D01*
X60177Y307396D01*
X57396Y310177D01*
X55002Y313297D01*
X53036Y316703D01*
X51531Y320336D01*
X50513Y324135D01*
X50000Y328034D01*
Y330000D01*
X50000Y618804D01*
X50000Y620000D01*
X50000Y620000D01*
X50000Y620000D01*
X50000Y620000D01*
X50000Y621966D01*
X50513Y625865D01*
X51531Y629664D01*
X53036Y633297D01*
X55002Y636703D01*
X57396Y639823D01*
X60177Y642604D01*
X63297Y644998D01*
X66703Y646964D01*
X70336Y648469D01*
X74135Y649487D01*
X78034Y650000D01*
X80000Y650000D01*
X388793Y650000D01*
X390000Y650000D01*
X390000Y650000D01*
X390000Y650000D01*
X391962Y650064D01*
X395853Y650576D01*
X399643Y651592D01*
X403269Y653094D01*
X406667Y655056D01*
X409780Y657445D01*
X412555Y660219D01*
X414944Y663333D01*
X416906Y666731D01*
X418408Y670357D01*
X419424Y674147D01*
X419936Y678038D01*
X420000Y680000D01*
X420000Y750000D01*
X420000Y750000D01*
X420000Y750000D01*
X420000Y751966D01*
X420513Y755865D01*
X421531Y759664D01*
X423036Y763297D01*
X425002Y766703D01*
X427396Y769823D01*
X430177Y772604D01*
X433297Y774998D01*
X436703Y776964D01*
X440336Y778469D01*
X444135Y779487D01*
X448034Y780000D01*
X450000Y780000D01*
D02*
G37*
G36*
X1320000Y900000D02*
X1321966Y900000D01*
X1325865Y899487D01*
X1329664Y898469D01*
X1333297Y896964D01*
X1336703Y894997D01*
X1339823Y892604D01*
X1342603Y889823D01*
X1344998Y886703D01*
X1346964Y883297D01*
X1348469Y879664D01*
X1349487Y875865D01*
X1350000Y871966D01*
Y870000D01*
Y330000D01*
X1350000Y330000D01*
Y328034D01*
X1349487Y324135D01*
X1348469Y320336D01*
X1346964Y316703D01*
X1344998Y313297D01*
X1342603Y310177D01*
X1339823Y307396D01*
X1336703Y305002D01*
X1333297Y303036D01*
X1329664Y301531D01*
X1325865Y300513D01*
X1321966Y300000D01*
X1130000D01*
X1128034Y300000D01*
X1124135Y300513D01*
X1120336Y301531D01*
X1116703Y303036D01*
X1113297Y305002D01*
X1110177Y307396D01*
X1107396Y310177D01*
X1105002Y313297D01*
X1103036Y316703D01*
X1101531Y320336D01*
X1100513Y324135D01*
X1100000Y328034D01*
Y330000D01*
X1100000Y870000D01*
X1100000Y870000D01*
X1100000Y870000D01*
X1100000Y871966D01*
X1100513Y875865D01*
X1101531Y879664D01*
X1103036Y883297D01*
X1105002Y886703D01*
X1107396Y889823D01*
X1110177Y892604D01*
X1113297Y894998D01*
X1116703Y896964D01*
X1120336Y898469D01*
X1124135Y899487D01*
X1128034Y900000D01*
X1130000Y900000D01*
X1320000Y900000D01*
Y900000D01*
D02*
G37*
G36*
X1320000Y1470000D02*
X1320000Y1470000D01*
X1321966Y1470000D01*
X1325865Y1469487D01*
X1329664Y1468469D01*
X1333297Y1466964D01*
X1336703Y1464998D01*
X1339823Y1462603D01*
X1342603Y1459823D01*
X1344998Y1456703D01*
X1346964Y1453297D01*
X1348469Y1449664D01*
X1349487Y1445865D01*
X1350000Y1441966D01*
X1350000Y1440000D01*
X1350000Y1130000D01*
X1350000Y1130000D01*
X1350000Y1128033D01*
X1349486Y1124135D01*
X1348469Y1120336D01*
X1346964Y1116703D01*
X1344997Y1113297D01*
X1342603Y1110177D01*
X1339823Y1107396D01*
X1336703Y1105002D01*
X1333297Y1103036D01*
X1329664Y1101531D01*
X1325865Y1100513D01*
X1321966Y1100000D01*
X1320000Y1100000D01*
X1130000Y1100000D01*
X1130000Y1100000D01*
X1128034D01*
X1124135Y1100513D01*
X1120336Y1101531D01*
X1116703Y1103036D01*
X1113297Y1105002D01*
X1110177Y1107396D01*
X1107396Y1110177D01*
X1105002Y1113297D01*
X1103036Y1116703D01*
X1101531Y1120336D01*
X1100513Y1124135D01*
X1100000Y1128034D01*
X1100000Y1130000D01*
X1100000Y1440000D01*
X1100000Y1440000D01*
X1100000Y1440000D01*
X1100000Y1441966D01*
X1100513Y1445865D01*
X1101531Y1449664D01*
X1103036Y1453297D01*
X1105002Y1456703D01*
X1107396Y1459823D01*
X1110177Y1462603D01*
X1113297Y1464998D01*
X1116703Y1466964D01*
X1120336Y1468469D01*
X1124135Y1469487D01*
X1128034Y1470000D01*
X1130000Y1470000D01*
X1320000Y1470000D01*
X1320000Y1470000D01*
D02*
G37*
G36*
X125865Y1129487D02*
X129664Y1128469D01*
X133297Y1126964D01*
X136703Y1124998D01*
X139823Y1122604D01*
X142604Y1119823D01*
X144998Y1116703D01*
X146964Y1113297D01*
X148469Y1109664D01*
X149487Y1105865D01*
X150000Y1101966D01*
X150000Y1100000D01*
X150000D01*
Y1030000D01*
X150064Y1028038D01*
X150576Y1024147D01*
X151592Y1020357D01*
X153094Y1016731D01*
X155056Y1013333D01*
X157445Y1010220D01*
X160219Y1007445D01*
X163333Y1005056D01*
X166731Y1003094D01*
X170357Y1001592D01*
X174147Y1000576D01*
X178038Y1000064D01*
X180000Y1000000D01*
X180000Y1000000D01*
X350000Y1000000D01*
X351966D01*
X355865Y999487D01*
X359664Y998469D01*
X363297Y996964D01*
X366703Y994997D01*
X369823Y992604D01*
X372603Y989823D01*
X374997Y986703D01*
X376964Y983297D01*
X378469Y979664D01*
X379487Y975865D01*
X380000Y971966D01*
Y970000D01*
X380000D01*
X380000Y970000D01*
X380000Y958034D01*
X379487Y954135D01*
X378469Y950336D01*
X376964Y946703D01*
X374997Y943297D01*
X372603Y940177D01*
X369823Y937396D01*
X366703Y935002D01*
X363297Y933036D01*
X359664Y931531D01*
X355865Y930513D01*
X351966Y930000D01*
X350000D01*
X100000Y930000D01*
X98034Y930000D01*
X94135Y930513D01*
X90336Y931531D01*
X86703Y933036D01*
X83297Y935002D01*
X80177Y937396D01*
X77396Y940177D01*
X75002Y943297D01*
X73036Y946703D01*
X71531Y950336D01*
X70513Y954134D01*
X70000Y958033D01*
Y960000D01*
X70000Y1100000D01*
X70000Y1101966D01*
X70513Y1105865D01*
X71531Y1109664D01*
X73036Y1113297D01*
X75002Y1116703D01*
X77396Y1119823D01*
X80177Y1122603D01*
X83297Y1124997D01*
X86703Y1126964D01*
X90336Y1128468D01*
X94134Y1129486D01*
X98033Y1130000D01*
X100000Y1129999D01*
X100000Y1130000D01*
X120000Y1130000D01*
X121966D01*
X125865Y1129487D01*
D02*
G37*
D10*
X850000Y420000D02*
D03*
X820000Y1210000D02*
D03*
D11*
X467500Y420000D02*
D03*
X1232500D02*
D03*
X437500Y1210000D02*
D03*
X1202500D02*
D03*
D12*
X1310000Y800000D02*
D03*
X1259200D02*
D03*
X260000Y1280000D02*
D03*
X209200D02*
D03*
X1310800Y1390000D02*
D03*
X1260000D02*
D03*
X250000Y400000D02*
D03*
X199200D02*
D03*
D13*
X350000Y595000D02*
D03*
Y970000D02*
D03*
X130000Y595000D02*
D03*
Y970000D02*
D03*
D14*
X106650Y1070000D02*
D03*
X373350D02*
D03*
X1340000Y1520000D02*
D03*
X20000D02*
D03*
D15*
X500000Y838100D02*
D03*
Y761900D02*
D03*
D16*
X1135000Y1130000D02*
D03*
Y1160000D02*
D03*
Y1190000D02*
D03*
Y1220000D02*
D03*
Y1250000D02*
D03*
Y1280000D02*
D03*
Y1310000D02*
D03*
Y1340000D02*
D03*
Y1370000D02*
D03*
Y1400000D02*
D03*
Y1430000D02*
D03*
X1165000Y1130000D02*
D03*
Y1160000D02*
D03*
Y1280000D02*
D03*
Y1310000D02*
D03*
Y1340000D02*
D03*
Y1370000D02*
D03*
Y1400000D02*
D03*
Y1430000D02*
D03*
X1195000Y1130000D02*
D03*
Y1160000D02*
D03*
Y1280000D02*
D03*
Y1310000D02*
D03*
Y1340000D02*
D03*
Y1370000D02*
D03*
Y1400000D02*
D03*
Y1430000D02*
D03*
X1225000Y1130000D02*
D03*
Y1160000D02*
D03*
Y1280000D02*
D03*
Y1310000D02*
D03*
Y1340000D02*
D03*
Y1370000D02*
D03*
Y1400000D02*
D03*
Y1430000D02*
D03*
X1255000Y1130000D02*
D03*
Y1160000D02*
D03*
Y1190000D02*
D03*
Y1220000D02*
D03*
Y1250000D02*
D03*
Y1280000D02*
D03*
Y1310000D02*
D03*
Y1340000D02*
D03*
Y1430000D02*
D03*
X1285000Y1130000D02*
D03*
Y1160000D02*
D03*
Y1190000D02*
D03*
Y1220000D02*
D03*
Y1250000D02*
D03*
Y1280000D02*
D03*
Y1340000D02*
D03*
Y1430000D02*
D03*
X1315000Y1130000D02*
D03*
Y1160000D02*
D03*
Y1190000D02*
D03*
Y1220000D02*
D03*
Y1250000D02*
D03*
Y1280000D02*
D03*
Y1310000D02*
D03*
Y1340000D02*
D03*
Y1430000D02*
D03*
X1120000Y375000D02*
D03*
Y405000D02*
D03*
Y435000D02*
D03*
Y465000D02*
D03*
Y495000D02*
D03*
X1150000Y345000D02*
D03*
Y375000D02*
D03*
Y405000D02*
D03*
Y435000D02*
D03*
Y465000D02*
D03*
Y495000D02*
D03*
Y525000D02*
D03*
X1180000Y345000D02*
D03*
Y495000D02*
D03*
Y525000D02*
D03*
X1210000Y345000D02*
D03*
Y495000D02*
D03*
Y525000D02*
D03*
X1240000Y345000D02*
D03*
Y495000D02*
D03*
Y525000D02*
D03*
X1270000Y345000D02*
D03*
Y495000D02*
D03*
Y525000D02*
D03*
X1300000Y345000D02*
D03*
Y375000D02*
D03*
Y405000D02*
D03*
Y435000D02*
D03*
Y465000D02*
D03*
Y495000D02*
D03*
Y525000D02*
D03*
X1330000Y375000D02*
D03*
Y405000D02*
D03*
Y435000D02*
D03*
Y465000D02*
D03*
Y495000D02*
D03*
X1126000Y766000D02*
D03*
Y796000D02*
D03*
Y826000D02*
D03*
X1156000Y736000D02*
D03*
Y766000D02*
D03*
Y796000D02*
D03*
Y826000D02*
D03*
Y856000D02*
D03*
X1186000Y736000D02*
D03*
Y766000D02*
D03*
Y796000D02*
D03*
Y826000D02*
D03*
Y856000D02*
D03*
X1216000Y736000D02*
D03*
Y766000D02*
D03*
Y796000D02*
D03*
Y826000D02*
D03*
Y856000D02*
D03*
X1246000Y736000D02*
D03*
Y766000D02*
D03*
Y826000D02*
D03*
Y856000D02*
D03*
X1276000Y736000D02*
D03*
Y766000D02*
D03*
Y826000D02*
D03*
Y856000D02*
D03*
X1305999Y736000D02*
D03*
Y766000D02*
D03*
Y826000D02*
D03*
Y856000D02*
D03*
X1335999Y766000D02*
D03*
Y796000D02*
D03*
Y826000D02*
D03*
X166000Y1216000D02*
D03*
Y1246000D02*
D03*
Y1276000D02*
D03*
Y1305999D02*
D03*
Y1335999D02*
D03*
X196000Y1216000D02*
D03*
Y1246000D02*
D03*
Y1305999D02*
D03*
Y1335999D02*
D03*
X226000Y1246000D02*
D03*
Y1305999D02*
D03*
Y1335999D02*
D03*
X256000Y1216000D02*
D03*
Y1246000D02*
D03*
Y1305999D02*
D03*
Y1335999D02*
D03*
X286000Y1216000D02*
D03*
Y1246000D02*
D03*
Y1276000D02*
D03*
Y1305999D02*
D03*
Y1335999D02*
D03*
X376000Y1126000D02*
D03*
Y1156000D02*
D03*
Y1186000D02*
D03*
Y1216000D02*
D03*
Y1246000D02*
D03*
Y1276000D02*
D03*
Y1305999D02*
D03*
X406000Y1126000D02*
D03*
Y1156000D02*
D03*
Y1246000D02*
D03*
Y1276000D02*
D03*
Y1305999D02*
D03*
X436000Y1126000D02*
D03*
Y1156000D02*
D03*
Y1276000D02*
D03*
Y1305999D02*
D03*
X466000Y1126000D02*
D03*
Y1156000D02*
D03*
Y1246000D02*
D03*
Y1276000D02*
D03*
Y1305999D02*
D03*
X496000Y1126000D02*
D03*
Y1156000D02*
D03*
Y1186000D02*
D03*
Y1216000D02*
D03*
Y1246000D02*
D03*
Y1276000D02*
D03*
Y1305999D02*
D03*
X76000Y316000D02*
D03*
Y346000D02*
D03*
Y376000D02*
D03*
Y406000D02*
D03*
Y436000D02*
D03*
Y466000D02*
D03*
X106000Y316000D02*
D03*
Y346000D02*
D03*
Y376000D02*
D03*
Y406000D02*
D03*
Y436000D02*
D03*
Y466000D02*
D03*
X136000Y316000D02*
D03*
Y346000D02*
D03*
Y376000D02*
D03*
Y406000D02*
D03*
Y436000D02*
D03*
Y466000D02*
D03*
X166000Y316000D02*
D03*
Y346000D02*
D03*
Y376000D02*
D03*
Y406000D02*
D03*
Y436000D02*
D03*
Y466000D02*
D03*
X196000Y316000D02*
D03*
Y346000D02*
D03*
Y376000D02*
D03*
Y436000D02*
D03*
Y466000D02*
D03*
X226000Y316000D02*
D03*
Y436000D02*
D03*
Y466000D02*
D03*
X256000Y316000D02*
D03*
Y346000D02*
D03*
Y376000D02*
D03*
Y436000D02*
D03*
Y466000D02*
D03*
X286000Y316000D02*
D03*
Y346000D02*
D03*
Y376000D02*
D03*
Y406000D02*
D03*
Y436000D02*
D03*
Y466000D02*
D03*
X316000Y316000D02*
D03*
Y346000D02*
D03*
Y376000D02*
D03*
Y406000D02*
D03*
Y436000D02*
D03*
Y466000D02*
D03*
X346000Y316000D02*
D03*
Y346000D02*
D03*
Y376000D02*
D03*
Y406000D02*
D03*
Y436000D02*
D03*
Y466000D02*
D03*
X376000Y316000D02*
D03*
Y346000D02*
D03*
Y376000D02*
D03*
Y406000D02*
D03*
Y436000D02*
D03*
Y466000D02*
D03*
X406000Y316000D02*
D03*
Y346000D02*
D03*
Y376000D02*
D03*
Y406000D02*
D03*
Y436000D02*
D03*
Y466000D02*
D03*
X436000Y316000D02*
D03*
Y346000D02*
D03*
Y376000D02*
D03*
Y466000D02*
D03*
X466000Y316000D02*
D03*
Y346000D02*
D03*
Y376000D02*
D03*
Y466000D02*
D03*
X496000Y316000D02*
D03*
Y346000D02*
D03*
Y376000D02*
D03*
Y466000D02*
D03*
X526000Y316000D02*
D03*
Y346000D02*
D03*
Y376000D02*
D03*
Y406000D02*
D03*
Y436000D02*
D03*
Y466000D02*
D03*
X556000Y316000D02*
D03*
Y346000D02*
D03*
Y376000D02*
D03*
Y406000D02*
D03*
Y436000D02*
D03*
Y466000D02*
D03*
X586000Y316000D02*
D03*
Y346000D02*
D03*
Y376000D02*
D03*
Y406000D02*
D03*
Y436000D02*
D03*
Y466000D02*
D03*
D17*
X277500Y105000D02*
D03*
M02*
