M48
;Layer_Color=9474304
;FILE_FORMAT=4:4
METRIC,LZ
;TYPE=PLATED
T1F00S00C0.7000
T2F00S00C1.0000
T3F00S00C1.2000
T4F00S00C1.3000
T5F00S00C1.5000
T6F00S00C2.5000
T7F00S00C5.0000
T8F00S00C6.0000
T9F00S00C10.0000
%
T01
X00946Y00286
X00976
X01006
X01036
X01066
X01096
X01126
X01156
X01186
X01216
X01246
X01276
Y00316
Y00346
Y00376
Y00406
Y00436
Y00466
Y00496
X01246
Y00466
Y00436
Y00406
Y00376
Y00346
Y00316
X01216
Y00346
Y00376
Y00406
Y00436
Y00466
Y00496
X01186
Y00466
Y00436
Y00406
Y00376
Y00346
Y00316
X01156
X01126
X01096
X01066
X01036
Y00346
Y00376
Y00406
Y00436
X01066
X01096
Y00466
X01126
X01156
Y00496
Y00436
X01066Y00466
Y00496
X01036
Y00466
X01006
Y00496
X00976
Y00466
Y00436
X01006
Y00406
Y00376
Y00346
Y00316
X00976
Y00346
Y00376
Y00406
X00946Y00466
Y00496
Y00346
Y00316
X00916
Y00346
X00886
Y00316
Y00286
X00916
X00856
Y00316
Y00346
Y00376
Y00406
Y00436
Y00466
X00886
X00916
Y00496
X00886
X00856
X00826
Y00466
Y00436
Y00406
Y00376
Y00346
Y00316
Y00286
X00226Y00316
Y00346
Y00376
Y00406
Y00436
Y00466
Y00496
X00196
Y00466
Y00436
Y00376
Y00346
Y00316
X00166
Y00346
Y00466
Y00496
X00136
Y00466
X00106
Y00496
X00076
Y00466
Y00436
X00106
Y00406
Y00376
Y00346
X00136
Y00316
X00106
X00076
Y00346
Y00376
Y00406
Y00616
X00106
X00136
Y00646
Y00676
Y00706
Y00736
Y00766
X00106
Y00736
X00076Y00766
X00046
Y00736
Y00646
X00076
X00106
X00046Y00616
X00166
X00196
X00226
X00256
Y00646
Y00676
Y00706
Y00736
Y00766
X00226
Y00736
Y00706
Y00676
Y00646
X00196
Y00676
Y00706
Y00736
Y00766
X00166
Y00736
Y00706
Y00676
Y00646
X00946Y01096
X00976
X01006
X01036
Y01126
Y01156
Y01186
Y01216
Y01246
Y01276
X01066
Y01305999
X01096
X01126
X01156
X01186
X01216
X01036
X01006
Y01276
Y01246
Y01216
Y01186
Y01156
X00976
Y01186
Y01216
Y01246
Y01276
Y01305999
X00946
Y01276
Y01156
Y01126
X00976
X00916
Y01156
X00886
Y01126
Y01096
X00916
X00856
Y01126
Y01156
Y01186
Y01216
Y01246
Y01276
X00886
X00916
Y01305999
X00886
X00856
X00826
Y01276
Y01246
Y01216
Y01186
Y01156
Y01126
Y01096
X00796
Y01126
Y01156
Y01186
Y01216
Y01246
Y01276
Y01305999
X0025Y01305
Y01275
Y01245
Y01215
Y01185
Y01155
Y01125
X0022
Y01155
Y01185
Y01215
Y01245
Y01275
Y01305
X0019
Y01275
X0016
Y01305
Y01155
X0019
Y01125
X0016
X0013
Y01155
X001
Y01185
Y01215
Y01245
Y01275
X0013
Y01305
X001
X0007
Y01275
Y01245
Y01215
Y01185
Y01155
Y01125
X001
X0004
Y01155
Y01185
Y01215
Y01245
Y01275
Y01305
Y01395
Y01425
X0007
X001
X0013
Y01395
Y01365
Y01335
X001Y01395
X0016
X0019
X0022
X0025
Y01425
X0022
X0019
X0016
Y01365
X0019
X0022
X0025
Y01335
X0022
X0019
X0016
X00976Y01335999
X01006
X01036
X01066
X01096
X01126
X01156
X01186
X01216
Y01365999
Y01395999
Y01425999
Y01455999
X01186
Y01425999
Y01395999
Y01365999
X01156Y01395999
Y01425999
Y01455999
X01126
X01096
X01066
Y01425999
Y01395999
X01096
X01126
X01066Y01365999
X01036
Y01395999
Y01425999
Y01455999
X01006
Y01425999
Y01395999
Y01365999
X00976
Y01395999
Y01425999
Y01455999
T02
X0084Y007719
Y008481
T03
X0100665Y0113
X0127335
T04
X01005Y0062
X01225
Y00995
X01005
T05
X0109Y0037
X011408
X000908Y0069
X0004
X00035Y01355
X000858
X010942Y01365
X01145
T06
X0002Y0152
X0134
T07
X0092Y00405
X00155
X0093Y0121
X00165
T08
X005375Y00405
X005475Y0121
T09
X0054Y00285
X0066
Y00405
Y00525
X0054
X0042
Y00405
Y00285
X00545Y0109
X00665
Y0121
Y0133
X00545
X00425
Y0121
Y0109
M30
