G04 Layer_Physical_Order=1*
G04 Layer_Color=255*
%FSLAX44Y44*%
%MOMM*%
G71*
G01*
G75*
%ADD10C,2.0000*%
%ADD11C,2.0320*%
%ADD12C,2.5000*%
%ADD13C,2.4130*%
%ADD14C,7.0000*%
%ADD15C,8.0000*%
%ADD16C,1.2000*%
G36*
X870000Y790000D02*
X870000Y790000D01*
X871966Y790000D01*
X875865Y789487D01*
X879664Y788469D01*
X883297Y786964D01*
X886703Y784998D01*
X889823Y782604D01*
X892604Y779823D01*
X894998Y776703D01*
X896964Y773297D01*
X898469Y769664D01*
X899487Y765865D01*
X900000Y761966D01*
Y760000D01*
Y710000D01*
X900075Y707711D01*
X900673Y703172D01*
X901858Y698749D01*
X903609Y694520D01*
X905899Y690555D01*
X908686Y686923D01*
X911923Y683686D01*
X915555Y680899D01*
X919520Y678609D01*
X923750Y676857D01*
X928172Y675673D01*
X932711Y675075D01*
X935000Y675000D01*
X1269999Y675000D01*
X1270000Y675000D01*
X1270000Y675000D01*
X1271966Y675000D01*
X1275865Y674486D01*
X1279664Y673469D01*
X1283297Y671964D01*
X1286703Y669997D01*
X1289823Y667604D01*
X1292603Y664823D01*
X1294998Y661703D01*
X1296964Y658297D01*
X1298469Y654664D01*
X1299487Y650865D01*
X1300000Y646966D01*
X1300000Y645000D01*
X1300000Y280000D01*
X1300000Y280000D01*
X1300000Y278033D01*
X1299486Y274135D01*
X1298469Y270336D01*
X1296964Y266703D01*
X1294997Y263297D01*
X1292603Y260177D01*
X1289823Y257396D01*
X1286703Y255002D01*
X1283297Y253036D01*
X1279664Y251531D01*
X1275865Y250513D01*
X1271966Y250000D01*
X1270000Y250000D01*
X805000D01*
X805000Y250000D01*
X803034D01*
X799135Y250513D01*
X795336Y251531D01*
X791703Y253036D01*
X788297Y255002D01*
X785177Y257396D01*
X782396Y260177D01*
X780002Y263297D01*
X778036Y266703D01*
X776531Y270336D01*
X775513Y274135D01*
X775000Y278034D01*
X775000Y280000D01*
Y755000D01*
X775000Y755000D01*
X775000Y755000D01*
X775000Y757294D01*
X775599Y761843D01*
X776786Y766274D01*
X778542Y770513D01*
X780836Y774487D01*
X783629Y778127D01*
X786873Y781371D01*
X790513Y784164D01*
X794487Y786458D01*
X798726Y788214D01*
X803157Y789401D01*
X807706Y790000D01*
X810000Y790000D01*
X870000Y790000D01*
X870000Y790000D01*
D02*
G37*
G36*
X40000Y1450000D02*
X250000D01*
X250000Y1450000D01*
X250000Y1450000D01*
X251966Y1450000D01*
X255865Y1449487D01*
X259664Y1448469D01*
X263297Y1446964D01*
X266703Y1444998D01*
X269823Y1442603D01*
X272603Y1439823D01*
X274998Y1436703D01*
X276964Y1433297D01*
X278469Y1429664D01*
X279487Y1425865D01*
X280000Y1421966D01*
Y1420000D01*
X280000Y1120000D01*
X280000Y1120000D01*
X280000Y1118034D01*
X279487Y1114135D01*
X278469Y1110336D01*
X276964Y1106703D01*
X274997Y1103297D01*
X272603Y1100177D01*
X269823Y1097396D01*
X266703Y1095002D01*
X263297Y1093036D01*
X259664Y1091531D01*
X255865Y1090513D01*
X251966Y1090000D01*
X250000Y1090000D01*
X40000Y1090000D01*
X40000Y1090000D01*
X38034D01*
X34135Y1090513D01*
X30336Y1091531D01*
X26703Y1093036D01*
X23297Y1095002D01*
X20177Y1097396D01*
X17396Y1100177D01*
X15002Y1103297D01*
X13036Y1106703D01*
X11531Y1110336D01*
X10513Y1114135D01*
X10000Y1118034D01*
Y1120000D01*
X10000Y1418804D01*
X10000Y1420000D01*
X10000Y1420000D01*
X10000Y1420000D01*
X10000Y1420000D01*
X10000Y1421966D01*
X10513Y1425865D01*
X11531Y1429664D01*
X13036Y1433297D01*
X15002Y1436703D01*
X17396Y1439823D01*
X20177Y1442604D01*
X23297Y1444998D01*
X26703Y1446964D01*
X30336Y1448469D01*
X34135Y1449487D01*
X38034Y1450000D01*
X40000Y1450000D01*
D02*
G37*
G36*
X1275000Y1175000D02*
X1275000Y1175000D01*
X1277294Y1175000D01*
X1281843Y1174401D01*
X1286274Y1173214D01*
X1290513Y1171458D01*
X1294487Y1169164D01*
X1298127Y1166371D01*
X1301371Y1163127D01*
X1304164Y1159487D01*
X1306458Y1155513D01*
X1308214Y1151274D01*
X1309401Y1146843D01*
X1310000Y1142294D01*
X1310000Y1140000D01*
X1310000Y980000D01*
X1310000Y980000D01*
Y978034D01*
X1309487Y974135D01*
X1308469Y970336D01*
X1306964Y966703D01*
X1304997Y963297D01*
X1302603Y960177D01*
X1299823Y957396D01*
X1296703Y955002D01*
X1293297Y953036D01*
X1289664Y951531D01*
X1285865Y950513D01*
X1281966Y950000D01*
X1005000D01*
X1005000Y950000D01*
X1003034Y950000D01*
X999135Y950513D01*
X995336Y951531D01*
X991703Y953036D01*
X988297Y955002D01*
X985177Y957396D01*
X982396Y960177D01*
X980002Y963297D01*
X978036Y966703D01*
X976531Y970336D01*
X975513Y974135D01*
X975000Y978034D01*
Y980000D01*
X975000Y1005000D01*
X975000Y1005000D01*
X975000Y1005000D01*
X975000Y1006966D01*
X975513Y1010865D01*
X976531Y1014664D01*
X978036Y1018297D01*
X980002Y1021703D01*
X982396Y1024823D01*
X985177Y1027604D01*
X988297Y1029997D01*
X991703Y1031964D01*
X995336Y1033469D01*
X999135Y1034487D01*
X1003034Y1035000D01*
X1005000D01*
X1193799Y1035000D01*
X1195000Y1035000D01*
X1195000Y1035000D01*
X1195000Y1035000D01*
X1196962Y1035064D01*
X1200853Y1035576D01*
X1204643Y1036592D01*
X1208269Y1038094D01*
X1211667Y1040056D01*
X1214780Y1042445D01*
X1217555Y1045220D01*
X1219944Y1048333D01*
X1221906Y1051731D01*
X1223408Y1055357D01*
X1224424Y1059147D01*
X1224936Y1063038D01*
X1225000Y1065000D01*
Y1145000D01*
X1225000Y1146966D01*
X1225513Y1150865D01*
X1226531Y1154664D01*
X1228036Y1158297D01*
X1230002Y1161703D01*
X1232396Y1164823D01*
X1235177Y1167604D01*
X1238297Y1169998D01*
X1241703Y1171964D01*
X1245336Y1173469D01*
X1249135Y1174487D01*
X1253034Y1175000D01*
X1255000Y1175000D01*
X1275000Y1175000D01*
X1275000Y1175000D01*
D02*
G37*
G36*
X1280000Y1475000D02*
X1280000Y1475000D01*
X1281966Y1475000D01*
X1285865Y1474487D01*
X1289664Y1473469D01*
X1293297Y1471964D01*
X1296703Y1469998D01*
X1299823Y1467604D01*
X1302604Y1464823D01*
X1304998Y1461703D01*
X1306964Y1458297D01*
X1308469Y1454664D01*
X1309487Y1450865D01*
X1310000Y1446966D01*
X1310000Y1445000D01*
X1310000Y1295000D01*
X1310000Y1295000D01*
Y1293034D01*
X1309487Y1289135D01*
X1308469Y1285336D01*
X1306964Y1281703D01*
X1304998Y1278297D01*
X1302603Y1275177D01*
X1299823Y1272396D01*
X1296703Y1270002D01*
X1293297Y1268036D01*
X1289664Y1266531D01*
X1285865Y1265513D01*
X1281966Y1265000D01*
X1280000D01*
X1110000Y1265000D01*
X1110000Y1265000D01*
X1107711Y1264925D01*
X1103172Y1264327D01*
X1098749Y1263142D01*
X1094520Y1261390D01*
X1090555Y1259101D01*
X1086923Y1256314D01*
X1083685Y1253077D01*
X1080898Y1249445D01*
X1078609Y1245480D01*
X1076857Y1241250D01*
X1075672Y1236828D01*
X1075075Y1232289D01*
X1075000Y1230000D01*
X1075000Y1100001D01*
X1075000Y1100001D01*
X1075000Y1097707D01*
X1074401Y1093158D01*
X1073213Y1088726D01*
X1071458Y1084487D01*
X1069164Y1080514D01*
X1066371Y1076873D01*
X1063126Y1073629D01*
X1059486Y1070836D01*
X1055513Y1068542D01*
X1051274Y1066786D01*
X1046842Y1065599D01*
X1042293Y1065000D01*
X1039999Y1065000D01*
X935000D01*
X934999Y1064999D01*
X933037Y1064935D01*
X929147Y1064423D01*
X925357Y1063407D01*
X921731Y1061906D01*
X918333Y1059944D01*
X915219Y1057555D01*
X912445Y1054780D01*
X910056Y1051667D01*
X908094Y1048269D01*
X906592Y1044643D01*
X905576Y1040853D01*
X905064Y1036962D01*
X905000Y1035000D01*
X905000Y855000D01*
X904999Y854999D01*
Y853033D01*
X904486Y849134D01*
X903468Y845336D01*
X901963Y841702D01*
X899997Y838297D01*
X897603Y835177D01*
X894822Y832396D01*
X891703Y830002D01*
X888297Y828036D01*
X884664Y826531D01*
X880865Y825513D01*
X876966Y825000D01*
X875000D01*
X800000Y825000D01*
X798033Y825000D01*
X794134Y825513D01*
X790336Y826531D01*
X786702Y828036D01*
X783297Y830002D01*
X780177Y832396D01*
X777396Y835177D01*
X775002Y838297D01*
X773036Y841703D01*
X771531Y845336D01*
X770513Y849135D01*
X770000Y853034D01*
X770000Y855000D01*
X770000Y1445000D01*
X770000Y1446966D01*
X770513Y1450865D01*
X771531Y1454664D01*
X773036Y1458297D01*
X775002Y1461703D01*
X777396Y1464823D01*
X780177Y1467603D01*
X783297Y1469998D01*
X786703Y1471964D01*
X790336Y1473469D01*
X794135Y1474487D01*
X798034Y1475000D01*
X800000Y1475000D01*
X1280000Y1475000D01*
X1280000Y1475000D01*
D02*
G37*
G36*
X40000Y800000D02*
X250000Y800000D01*
X250000Y800000D01*
X250000Y800000D01*
X251966Y800000D01*
X255865Y799487D01*
X259664Y798469D01*
X263297Y796964D01*
X266703Y794998D01*
X269823Y792604D01*
X272603Y789823D01*
X274998Y786703D01*
X276964Y783297D01*
X278469Y779664D01*
X279487Y775865D01*
X280000Y771966D01*
X280000Y770000D01*
X280000Y305000D01*
X280000Y305000D01*
X280000Y303034D01*
X279487Y299135D01*
X278469Y295336D01*
X276964Y291703D01*
X274998Y288297D01*
X272603Y285177D01*
X269823Y282396D01*
X266703Y280002D01*
X263297Y278036D01*
X259664Y276531D01*
X255865Y275513D01*
X251966Y275000D01*
X250000D01*
X40000Y275000D01*
Y275000D01*
X38034Y275000D01*
X34135Y275513D01*
X30336Y276531D01*
X26703Y278036D01*
X23297Y280002D01*
X20177Y282396D01*
X17396Y285177D01*
X15002Y288297D01*
X13036Y291703D01*
X11531Y295336D01*
X10513Y299135D01*
X10000Y303034D01*
X10000Y305000D01*
Y770000D01*
X10000Y770000D01*
X10000Y770000D01*
X10000Y771966D01*
X10513Y775865D01*
X11531Y779664D01*
X13036Y783297D01*
X15002Y786703D01*
X17396Y789823D01*
X20177Y792604D01*
X23297Y794998D01*
X26703Y796964D01*
X30336Y798469D01*
X34135Y799487D01*
X38034Y800000D01*
X40000Y800000D01*
D02*
G37*
%LPC*%
G36*
X1010000Y632173D02*
Y625000D01*
X1017173D01*
X1016495Y626637D01*
X1014386Y629386D01*
X1011637Y631495D01*
X1010000Y632173D01*
D02*
G37*
G36*
X1000000Y632173D02*
X998363Y631495D01*
X995614Y629386D01*
X993505Y626637D01*
X992827Y625000D01*
X1000000D01*
Y632173D01*
D02*
G37*
G36*
X1230000Y632173D02*
Y625000D01*
X1237173D01*
X1236495Y626637D01*
X1234386Y629386D01*
X1231637Y631495D01*
X1230000Y632173D01*
D02*
G37*
G36*
X1220000Y632173D02*
X1218363Y631495D01*
X1215614Y629386D01*
X1213505Y626637D01*
X1212827Y625000D01*
X1220000D01*
Y632173D01*
D02*
G37*
G36*
X835000Y783900D02*
X833444Y783255D01*
X830728Y781172D01*
X828644Y778456D01*
X828000Y776900D01*
X835000D01*
Y783900D01*
D02*
G37*
G36*
Y766900D02*
X828000D01*
X828644Y765344D01*
X830728Y762628D01*
X833444Y760545D01*
X835000Y759900D01*
Y766900D01*
D02*
G37*
G36*
X845000Y783900D02*
Y776900D01*
X852000D01*
X851356Y778456D01*
X849272Y781172D01*
X846556Y783255D01*
X845000Y783900D01*
D02*
G37*
G36*
X852000Y766900D02*
X845000D01*
Y759900D01*
X846556Y760545D01*
X849272Y762628D01*
X851356Y765344D01*
X852000Y766900D01*
D02*
G37*
G36*
X1220000Y615000D02*
X1212827D01*
X1213505Y613363D01*
X1215614Y610614D01*
X1218363Y608505D01*
X1220000Y607827D01*
Y615000D01*
D02*
G37*
G36*
X915000Y400000D02*
X882276D01*
X882352Y399037D01*
X883748Y393221D01*
X886037Y387695D01*
X889162Y382595D01*
X893047Y378047D01*
X897595Y374162D01*
X902695Y371037D01*
X908221Y368748D01*
X914037Y367352D01*
X915000Y367276D01*
Y400000D01*
D02*
G37*
G36*
X1085000Y384226D02*
X1084207Y383986D01*
X1081590Y382587D01*
X1079296Y380704D01*
X1077413Y378410D01*
X1076014Y375793D01*
X1075774Y375000D01*
X1085000D01*
Y384226D01*
D02*
G37*
G36*
X957724Y400000D02*
X925000D01*
Y367276D01*
X925963Y367352D01*
X931779Y368748D01*
X937305Y371037D01*
X942405Y374162D01*
X946953Y378047D01*
X950838Y382595D01*
X953963Y387695D01*
X956252Y393221D01*
X957648Y399037D01*
X957724Y400000D01*
D02*
G37*
G36*
X1155026Y365000D02*
X1145800D01*
Y355774D01*
X1146593Y356014D01*
X1149210Y357413D01*
X1151504Y359296D01*
X1153387Y361590D01*
X1154786Y364207D01*
X1155026Y365000D01*
D02*
G37*
G36*
X1104226D02*
X1095000D01*
Y355774D01*
X1095793Y356014D01*
X1098410Y357413D01*
X1100704Y359296D01*
X1102587Y361590D01*
X1103986Y364207D01*
X1104226Y365000D01*
D02*
G37*
G36*
X1135800D02*
X1126574D01*
X1126814Y364207D01*
X1128213Y361590D01*
X1130096Y359296D01*
X1132390Y357413D01*
X1135007Y356014D01*
X1135800Y355774D01*
Y365000D01*
D02*
G37*
G36*
X1085000D02*
X1075774D01*
X1076014Y364207D01*
X1077413Y361590D01*
X1079296Y359296D01*
X1081590Y357413D01*
X1084207Y356014D01*
X1085000Y355774D01*
Y365000D01*
D02*
G37*
G36*
X1135800Y384226D02*
X1135007Y383986D01*
X1132390Y382587D01*
X1130096Y380704D01*
X1128213Y378410D01*
X1126814Y375793D01*
X1126574Y375000D01*
X1135800D01*
Y384226D01*
D02*
G37*
G36*
X1237173Y615000D02*
X1230000D01*
Y607827D01*
X1231637Y608505D01*
X1234386Y610614D01*
X1236495Y613363D01*
X1237173Y615000D01*
D02*
G37*
G36*
X925000Y442724D02*
Y410000D01*
X957724D01*
X957648Y410963D01*
X956252Y416779D01*
X953963Y422305D01*
X950838Y427405D01*
X946953Y431953D01*
X942405Y435838D01*
X937305Y438963D01*
X931779Y441252D01*
X925963Y442648D01*
X925000Y442724D01*
D02*
G37*
G36*
X1000000Y615000D02*
X992827D01*
X993505Y613363D01*
X995614Y610614D01*
X998363Y608505D01*
X1000000Y607827D01*
Y615000D01*
D02*
G37*
G36*
X1017173D02*
X1010000D01*
Y607827D01*
X1011637Y608505D01*
X1014386Y610614D01*
X1016495Y613363D01*
X1017173Y615000D01*
D02*
G37*
G36*
X1145800Y384226D02*
Y375000D01*
X1155026D01*
X1154786Y375793D01*
X1153387Y378410D01*
X1151504Y380704D01*
X1149210Y382587D01*
X1146593Y383986D01*
X1145800Y384226D01*
D02*
G37*
G36*
X1095000D02*
Y375000D01*
X1104226D01*
X1103986Y375793D01*
X1102587Y378410D01*
X1100704Y380704D01*
X1098410Y382587D01*
X1095793Y383986D01*
X1095000Y384226D01*
D02*
G37*
G36*
X915000Y442724D02*
X914037Y442648D01*
X908221Y441252D01*
X902695Y438963D01*
X897595Y435838D01*
X893047Y431953D01*
X889162Y427405D01*
X886037Y422305D01*
X883748Y416779D01*
X882352Y410963D01*
X882276Y410000D01*
X915000D01*
Y442724D01*
D02*
G37*
G36*
X100026Y1350000D02*
X90800D01*
Y1340774D01*
X91593Y1341014D01*
X94210Y1342413D01*
X96504Y1344296D01*
X98387Y1346590D01*
X99786Y1349207D01*
X100026Y1350000D01*
D02*
G37*
G36*
X49226D02*
X40000D01*
Y1340774D01*
X40793Y1341014D01*
X43410Y1342413D01*
X45704Y1344296D01*
X47587Y1346590D01*
X48986Y1349207D01*
X49226Y1350000D01*
D02*
G37*
G36*
X80800D02*
X71574D01*
X71814Y1349207D01*
X73213Y1346590D01*
X75096Y1344296D01*
X77390Y1342413D01*
X80007Y1341014D01*
X80800Y1340774D01*
Y1350000D01*
D02*
G37*
G36*
X170000Y1247724D02*
Y1215000D01*
X202724D01*
X202648Y1215963D01*
X201252Y1221779D01*
X198963Y1227305D01*
X195838Y1232405D01*
X191953Y1236953D01*
X187405Y1240838D01*
X182305Y1243963D01*
X176779Y1246252D01*
X170963Y1247648D01*
X170000Y1247724D01*
D02*
G37*
G36*
X30000Y1350000D02*
X20774D01*
X21014Y1349207D01*
X22413Y1346590D01*
X24296Y1344296D01*
X26590Y1342413D01*
X29207Y1341014D01*
X30000Y1340774D01*
Y1350000D01*
D02*
G37*
G36*
X90800Y1369226D02*
Y1360000D01*
X100026D01*
X99786Y1360793D01*
X98387Y1363410D01*
X96504Y1365704D01*
X94210Y1367587D01*
X91593Y1368986D01*
X90800Y1369226D01*
D02*
G37*
G36*
X30000D02*
X29207Y1368986D01*
X26590Y1367587D01*
X24296Y1365704D01*
X22413Y1363410D01*
X21014Y1360793D01*
X20774Y1360000D01*
X30000D01*
Y1369226D01*
D02*
G37*
G36*
X40000D02*
Y1360000D01*
X49226D01*
X48986Y1360793D01*
X47587Y1363410D01*
X45704Y1365704D01*
X43410Y1367587D01*
X40793Y1368986D01*
X40000Y1369226D01*
D02*
G37*
G36*
X80800D02*
X80007Y1368986D01*
X77390Y1367587D01*
X75096Y1365704D01*
X73213Y1363410D01*
X71814Y1360793D01*
X71574Y1360000D01*
X80800D01*
Y1369226D01*
D02*
G37*
G36*
X160000Y1247724D02*
X159037Y1247648D01*
X153221Y1246252D01*
X147695Y1243963D01*
X142595Y1240838D01*
X138047Y1236953D01*
X134162Y1232405D01*
X131037Y1227305D01*
X128748Y1221779D01*
X127352Y1215963D01*
X127276Y1215000D01*
X160000D01*
Y1247724D01*
D02*
G37*
G36*
X202724Y1205000D02*
X170000D01*
Y1172276D01*
X170963Y1172352D01*
X176779Y1173748D01*
X182305Y1176037D01*
X187405Y1179162D01*
X191953Y1183047D01*
X195838Y1187595D01*
X198963Y1192695D01*
X201252Y1198221D01*
X202648Y1204037D01*
X202724Y1205000D01*
D02*
G37*
G36*
X160000D02*
X127276D01*
X127352Y1204037D01*
X128748Y1198221D01*
X131037Y1192695D01*
X134162Y1187595D01*
X138047Y1183047D01*
X142595Y1179162D01*
X147695Y1176037D01*
X153221Y1173748D01*
X159037Y1172352D01*
X160000Y1172276D01*
Y1205000D01*
D02*
G37*
G36*
X1010000Y1007173D02*
Y1000000D01*
X1017173D01*
X1016495Y1001637D01*
X1014386Y1004386D01*
X1011637Y1006495D01*
X1010000Y1007173D01*
D02*
G37*
G36*
X1000000Y1007173D02*
X998363Y1006495D01*
X995614Y1004386D01*
X993505Y1001637D01*
X992827Y1000000D01*
X1000000D01*
Y1007173D01*
D02*
G37*
G36*
X1288031Y1125000D02*
X1278350D01*
Y1115319D01*
X1279310Y1115611D01*
X1282003Y1117050D01*
X1284363Y1118987D01*
X1286300Y1121347D01*
X1287739Y1124040D01*
X1288031Y1125000D01*
D02*
G37*
G36*
X1000000Y990000D02*
X992827D01*
X993505Y988363D01*
X995614Y985614D01*
X998363Y983505D01*
X1000000Y982827D01*
Y990000D01*
D02*
G37*
G36*
X1017173D02*
X1010000D01*
Y982827D01*
X1011637Y983505D01*
X1014386Y985614D01*
X1016495Y988363D01*
X1017173Y990000D01*
D02*
G37*
G36*
X1278350Y1144681D02*
Y1135000D01*
X1288031D01*
X1287739Y1135960D01*
X1286300Y1138653D01*
X1284363Y1141013D01*
X1282003Y1142950D01*
X1279310Y1144389D01*
X1278350Y1144681D01*
D02*
G37*
G36*
X1268350Y1125000D02*
X1258669D01*
X1258961Y1124040D01*
X1260400Y1121347D01*
X1262337Y1118987D01*
X1264697Y1117050D01*
X1267390Y1115611D01*
X1268350Y1115319D01*
Y1125000D01*
D02*
G37*
G36*
Y1144681D02*
X1267390Y1144389D01*
X1264697Y1142950D01*
X1262337Y1141013D01*
X1260400Y1138653D01*
X1258961Y1135960D01*
X1258669Y1135000D01*
X1268350D01*
Y1144681D01*
D02*
G37*
G36*
X852000Y843100D02*
X845000D01*
Y836100D01*
X846556Y836745D01*
X849272Y838828D01*
X851356Y841544D01*
X852000Y843100D01*
D02*
G37*
G36*
X1140000Y1360000D02*
X1130774D01*
X1131014Y1359207D01*
X1132413Y1356590D01*
X1134296Y1354296D01*
X1136590Y1352413D01*
X1139207Y1351014D01*
X1140000Y1350774D01*
Y1360000D01*
D02*
G37*
G36*
X1089200D02*
X1079974D01*
X1080214Y1359207D01*
X1081613Y1356590D01*
X1083496Y1354296D01*
X1085790Y1352413D01*
X1088407Y1351014D01*
X1089200Y1350774D01*
Y1360000D01*
D02*
G37*
G36*
X925000Y1247724D02*
X924037Y1247648D01*
X918221Y1246252D01*
X912695Y1243963D01*
X907595Y1240838D01*
X903047Y1236953D01*
X899162Y1232405D01*
X896037Y1227305D01*
X893748Y1221779D01*
X892352Y1215963D01*
X892276Y1215000D01*
X925000D01*
Y1247724D01*
D02*
G37*
G36*
X935000D02*
Y1215000D01*
X967724D01*
X967648Y1215963D01*
X966252Y1221779D01*
X963963Y1227305D01*
X960838Y1232405D01*
X956953Y1236953D01*
X952405Y1240838D01*
X947305Y1243963D01*
X941779Y1246252D01*
X935963Y1247648D01*
X935000Y1247724D01*
D02*
G37*
G36*
X1108426Y1360000D02*
X1099200D01*
Y1350774D01*
X1099993Y1351014D01*
X1102610Y1352413D01*
X1104904Y1354296D01*
X1106787Y1356590D01*
X1108186Y1359207D01*
X1108426Y1360000D01*
D02*
G37*
G36*
X1140000Y1379226D02*
X1139207Y1378986D01*
X1136590Y1377587D01*
X1134296Y1375704D01*
X1132413Y1373410D01*
X1131014Y1370793D01*
X1130774Y1370000D01*
X1140000D01*
Y1379226D01*
D02*
G37*
G36*
X1089200D02*
X1088407Y1378986D01*
X1085790Y1377587D01*
X1083496Y1375704D01*
X1081613Y1373410D01*
X1080214Y1370793D01*
X1079974Y1370000D01*
X1089200D01*
Y1379226D01*
D02*
G37*
G36*
X1099200D02*
Y1370000D01*
X1108426D01*
X1108186Y1370793D01*
X1106787Y1373410D01*
X1104904Y1375704D01*
X1102610Y1377587D01*
X1099993Y1378986D01*
X1099200Y1379226D01*
D02*
G37*
G36*
X1150000D02*
Y1370000D01*
X1159226D01*
X1158986Y1370793D01*
X1157587Y1373410D01*
X1155704Y1375704D01*
X1153410Y1377587D01*
X1150793Y1378986D01*
X1150000Y1379226D01*
D02*
G37*
G36*
X1159226Y1360000D02*
X1150000D01*
Y1350774D01*
X1150793Y1351014D01*
X1153410Y1352413D01*
X1155704Y1354296D01*
X1157587Y1356590D01*
X1158986Y1359207D01*
X1159226Y1360000D01*
D02*
G37*
G36*
X1021331Y1125000D02*
X1011650D01*
Y1115319D01*
X1012610Y1115611D01*
X1015303Y1117050D01*
X1017663Y1118987D01*
X1019600Y1121347D01*
X1021039Y1124040D01*
X1021331Y1125000D01*
D02*
G37*
G36*
X835000Y860100D02*
X833444Y859455D01*
X830728Y857372D01*
X828644Y854656D01*
X828000Y853100D01*
X835000D01*
Y860100D01*
D02*
G37*
G36*
Y843100D02*
X828000D01*
X828644Y841544D01*
X830728Y838828D01*
X833444Y836745D01*
X835000Y836100D01*
Y843100D01*
D02*
G37*
G36*
X845000Y860100D02*
Y853100D01*
X852000D01*
X851356Y854656D01*
X849272Y857372D01*
X846556Y859455D01*
X845000Y860100D01*
D02*
G37*
G36*
X1001650Y1125000D02*
X991969D01*
X992261Y1124040D01*
X993700Y1121347D01*
X995637Y1118987D01*
X997997Y1117050D01*
X1000690Y1115611D01*
X1001650Y1115319D01*
Y1125000D01*
D02*
G37*
G36*
X967724Y1205000D02*
X935000D01*
Y1172276D01*
X935963Y1172352D01*
X941779Y1173748D01*
X947305Y1176037D01*
X952405Y1179162D01*
X956953Y1183047D01*
X960838Y1187595D01*
X963963Y1192695D01*
X966252Y1198221D01*
X967648Y1204037D01*
X967724Y1205000D01*
D02*
G37*
G36*
X925000D02*
X892276D01*
X892352Y1204037D01*
X893748Y1198221D01*
X896037Y1192695D01*
X899162Y1187595D01*
X903047Y1183047D01*
X907595Y1179162D01*
X912695Y1176037D01*
X918221Y1173748D01*
X924037Y1172352D01*
X925000Y1172276D01*
Y1205000D01*
D02*
G37*
G36*
X1001650Y1144681D02*
X1000690Y1144389D01*
X997997Y1142950D01*
X995637Y1141013D01*
X993700Y1138653D01*
X992261Y1135960D01*
X991969Y1135000D01*
X1001650D01*
Y1144681D01*
D02*
G37*
G36*
X1011650Y1144681D02*
Y1135000D01*
X1021331D01*
X1021039Y1135960D01*
X1019600Y1138653D01*
X1017663Y1141013D01*
X1015303Y1142950D01*
X1012610Y1144389D01*
X1011650Y1144681D01*
D02*
G37*
G36*
X85800Y685000D02*
X76574D01*
X76814Y684207D01*
X78213Y681590D01*
X80096Y679296D01*
X82390Y677413D01*
X85007Y676014D01*
X85800Y675774D01*
Y685000D01*
D02*
G37*
G36*
X105026D02*
X95800D01*
Y675774D01*
X96593Y676014D01*
X99210Y677413D01*
X101504Y679296D01*
X103387Y681590D01*
X104786Y684207D01*
X105026Y685000D01*
D02*
G37*
G36*
X54226D02*
X45000D01*
Y675774D01*
X45793Y676014D01*
X48410Y677413D01*
X50704Y679296D01*
X52587Y681590D01*
X53986Y684207D01*
X54226Y685000D01*
D02*
G37*
G36*
X35000D02*
X25774D01*
X26014Y684207D01*
X27413Y681590D01*
X29296Y679296D01*
X31590Y677413D01*
X34207Y676014D01*
X35000Y675774D01*
Y685000D01*
D02*
G37*
G36*
X85800Y704226D02*
X85007Y703986D01*
X82390Y702587D01*
X80096Y700704D01*
X78213Y698410D01*
X76814Y695793D01*
X76574Y695000D01*
X85800D01*
Y704226D01*
D02*
G37*
G36*
X35000D02*
X34207Y703986D01*
X31590Y702587D01*
X29296Y700704D01*
X27413Y698410D01*
X26014Y695793D01*
X25774Y695000D01*
X35000D01*
Y704226D01*
D02*
G37*
G36*
X95800D02*
Y695000D01*
X105026D01*
X104786Y695793D01*
X103387Y698410D01*
X101504Y700704D01*
X99210Y702587D01*
X96593Y703986D01*
X95800Y704226D01*
D02*
G37*
G36*
X45000D02*
Y695000D01*
X54226D01*
X53986Y695793D01*
X52587Y698410D01*
X50704Y700704D01*
X48410Y702587D01*
X45793Y703986D01*
X45000Y704226D01*
D02*
G37*
G36*
X192724Y400000D02*
X160000D01*
Y367276D01*
X160963Y367352D01*
X166779Y368748D01*
X172305Y371037D01*
X177405Y374162D01*
X181953Y378047D01*
X185838Y382595D01*
X188963Y387695D01*
X191252Y393221D01*
X192648Y399037D01*
X192724Y400000D01*
D02*
G37*
G36*
X150000D02*
X117276D01*
X117352Y399037D01*
X118748Y393221D01*
X121037Y387695D01*
X124162Y382595D01*
X128047Y378047D01*
X132595Y374162D01*
X137695Y371037D01*
X143221Y368748D01*
X149037Y367352D01*
X150000Y367276D01*
Y400000D01*
D02*
G37*
G36*
X160000Y442724D02*
Y410000D01*
X192724D01*
X192648Y410963D01*
X191252Y416779D01*
X188963Y422305D01*
X185838Y427405D01*
X181953Y431953D01*
X177405Y435838D01*
X172305Y438963D01*
X166779Y441252D01*
X160963Y442648D01*
X160000Y442724D01*
D02*
G37*
G36*
X150000D02*
X149037Y442648D01*
X143221Y441252D01*
X137695Y438963D01*
X132595Y435838D01*
X128047Y431953D01*
X124162Y427405D01*
X121037Y422305D01*
X118748Y416779D01*
X117352Y410963D01*
X117276Y410000D01*
X150000D01*
Y442724D01*
D02*
G37*
%LPD*%
D10*
X840000Y848100D02*
D03*
Y771900D02*
D03*
D11*
X1005000Y620000D02*
D03*
Y995000D02*
D03*
X1225000Y620000D02*
D03*
Y995000D02*
D03*
D12*
X1273350Y1130000D02*
D03*
X1006650D02*
D03*
X20000Y1520000D02*
D03*
X1340000D02*
D03*
D13*
X1090000Y370000D02*
D03*
X1140800D02*
D03*
X40000Y690000D02*
D03*
X90800D02*
D03*
X35000Y1355000D02*
D03*
X85800D02*
D03*
X1094200Y1365000D02*
D03*
X1145000D02*
D03*
D14*
X930000Y1210000D02*
D03*
X165000D02*
D03*
X155000Y405000D02*
D03*
X920000D02*
D03*
D15*
X547500Y1210000D02*
D03*
X537500Y405000D02*
D03*
D16*
X1216000Y1455999D02*
D03*
Y1425999D02*
D03*
Y1395999D02*
D03*
Y1365999D02*
D03*
Y1335999D02*
D03*
Y1305999D02*
D03*
X1186000Y1455999D02*
D03*
Y1425999D02*
D03*
Y1395999D02*
D03*
Y1365999D02*
D03*
Y1335999D02*
D03*
Y1305999D02*
D03*
X1156000Y1455999D02*
D03*
Y1425999D02*
D03*
Y1395999D02*
D03*
Y1335999D02*
D03*
Y1305999D02*
D03*
X1126000Y1455999D02*
D03*
Y1395999D02*
D03*
Y1335999D02*
D03*
Y1305999D02*
D03*
X1096000Y1455999D02*
D03*
Y1395999D02*
D03*
Y1335999D02*
D03*
Y1305999D02*
D03*
X1066000Y1455999D02*
D03*
Y1425999D02*
D03*
Y1395999D02*
D03*
Y1365999D02*
D03*
Y1335999D02*
D03*
Y1305999D02*
D03*
Y1276000D02*
D03*
X1036000Y1455999D02*
D03*
Y1425999D02*
D03*
Y1395999D02*
D03*
Y1365999D02*
D03*
Y1335999D02*
D03*
Y1305999D02*
D03*
Y1276000D02*
D03*
Y1246000D02*
D03*
Y1216000D02*
D03*
Y1186000D02*
D03*
Y1156000D02*
D03*
Y1126000D02*
D03*
Y1096000D02*
D03*
X1006000Y1455999D02*
D03*
Y1425999D02*
D03*
Y1395999D02*
D03*
Y1365999D02*
D03*
Y1335999D02*
D03*
Y1305999D02*
D03*
Y1276000D02*
D03*
Y1246000D02*
D03*
Y1216000D02*
D03*
Y1186000D02*
D03*
Y1156000D02*
D03*
Y1096000D02*
D03*
X976000Y1455999D02*
D03*
Y1425999D02*
D03*
Y1395999D02*
D03*
Y1365999D02*
D03*
Y1335999D02*
D03*
Y1305999D02*
D03*
Y1276000D02*
D03*
Y1246000D02*
D03*
Y1216000D02*
D03*
Y1186000D02*
D03*
Y1156000D02*
D03*
Y1126000D02*
D03*
Y1096000D02*
D03*
X946000Y1305999D02*
D03*
Y1276000D02*
D03*
Y1156000D02*
D03*
Y1126000D02*
D03*
Y1096000D02*
D03*
X916000Y1305999D02*
D03*
Y1276000D02*
D03*
Y1156000D02*
D03*
Y1126000D02*
D03*
Y1096000D02*
D03*
X886000Y1305999D02*
D03*
Y1276000D02*
D03*
Y1156000D02*
D03*
Y1126000D02*
D03*
Y1096000D02*
D03*
X856000Y1305999D02*
D03*
Y1276000D02*
D03*
Y1246000D02*
D03*
Y1216000D02*
D03*
Y1186000D02*
D03*
Y1156000D02*
D03*
Y1126000D02*
D03*
Y1096000D02*
D03*
X826000Y1305999D02*
D03*
Y1276000D02*
D03*
Y1246000D02*
D03*
Y1216000D02*
D03*
Y1186000D02*
D03*
Y1156000D02*
D03*
Y1126000D02*
D03*
Y1096000D02*
D03*
X796000Y1305999D02*
D03*
Y1276000D02*
D03*
Y1246000D02*
D03*
Y1216000D02*
D03*
Y1186000D02*
D03*
Y1156000D02*
D03*
Y1126000D02*
D03*
Y1096000D02*
D03*
X1276000Y496000D02*
D03*
Y466000D02*
D03*
Y436000D02*
D03*
Y406000D02*
D03*
Y376000D02*
D03*
Y346000D02*
D03*
Y316000D02*
D03*
Y286000D02*
D03*
X1246000Y496000D02*
D03*
Y466000D02*
D03*
Y436000D02*
D03*
Y406000D02*
D03*
Y376000D02*
D03*
Y346000D02*
D03*
Y316000D02*
D03*
Y286000D02*
D03*
X1216000Y496000D02*
D03*
Y466000D02*
D03*
Y436000D02*
D03*
Y406000D02*
D03*
Y376000D02*
D03*
Y346000D02*
D03*
Y316000D02*
D03*
Y286000D02*
D03*
X1186000Y496000D02*
D03*
Y466000D02*
D03*
Y436000D02*
D03*
Y406000D02*
D03*
Y376000D02*
D03*
Y346000D02*
D03*
Y316000D02*
D03*
Y286000D02*
D03*
X1156000Y496000D02*
D03*
Y466000D02*
D03*
Y436000D02*
D03*
Y316000D02*
D03*
Y286000D02*
D03*
X1126000Y466000D02*
D03*
Y316000D02*
D03*
Y286000D02*
D03*
X1096000Y466000D02*
D03*
Y436000D02*
D03*
Y316000D02*
D03*
Y286000D02*
D03*
X1066000Y496000D02*
D03*
Y466000D02*
D03*
Y436000D02*
D03*
Y316000D02*
D03*
Y286000D02*
D03*
X1036000Y496000D02*
D03*
Y466000D02*
D03*
Y436000D02*
D03*
Y406000D02*
D03*
Y376000D02*
D03*
Y346000D02*
D03*
Y316000D02*
D03*
Y286000D02*
D03*
X1006000Y496000D02*
D03*
Y466000D02*
D03*
Y436000D02*
D03*
Y406000D02*
D03*
Y376000D02*
D03*
Y346000D02*
D03*
Y316000D02*
D03*
Y286000D02*
D03*
X976000Y496000D02*
D03*
Y466000D02*
D03*
Y436000D02*
D03*
Y406000D02*
D03*
Y376000D02*
D03*
Y346000D02*
D03*
Y316000D02*
D03*
Y286000D02*
D03*
X946000Y496000D02*
D03*
Y466000D02*
D03*
Y346000D02*
D03*
Y316000D02*
D03*
Y286000D02*
D03*
X916000Y496000D02*
D03*
Y466000D02*
D03*
Y346000D02*
D03*
Y316000D02*
D03*
Y286000D02*
D03*
X886000Y496000D02*
D03*
Y466000D02*
D03*
Y346000D02*
D03*
Y316000D02*
D03*
Y286000D02*
D03*
X856000Y496000D02*
D03*
Y466000D02*
D03*
Y436000D02*
D03*
Y406000D02*
D03*
Y376000D02*
D03*
Y346000D02*
D03*
Y316000D02*
D03*
Y286000D02*
D03*
X826000Y496000D02*
D03*
Y466000D02*
D03*
Y436000D02*
D03*
Y406000D02*
D03*
Y376000D02*
D03*
Y346000D02*
D03*
Y316000D02*
D03*
Y286000D02*
D03*
X226000Y496000D02*
D03*
Y466000D02*
D03*
Y436000D02*
D03*
Y406000D02*
D03*
Y376000D02*
D03*
Y346000D02*
D03*
Y316000D02*
D03*
X196000Y496000D02*
D03*
Y466000D02*
D03*
Y436000D02*
D03*
Y376000D02*
D03*
Y346000D02*
D03*
Y316000D02*
D03*
X166000Y496000D02*
D03*
Y466000D02*
D03*
Y346000D02*
D03*
Y316000D02*
D03*
X136000Y496000D02*
D03*
Y466000D02*
D03*
Y346000D02*
D03*
Y316000D02*
D03*
X106000Y496000D02*
D03*
Y466000D02*
D03*
Y436000D02*
D03*
Y406000D02*
D03*
Y376000D02*
D03*
Y346000D02*
D03*
Y316000D02*
D03*
X76000Y496000D02*
D03*
Y466000D02*
D03*
Y436000D02*
D03*
Y406000D02*
D03*
Y376000D02*
D03*
Y346000D02*
D03*
Y316000D02*
D03*
X256000Y766000D02*
D03*
Y736000D02*
D03*
Y706000D02*
D03*
Y676000D02*
D03*
Y646000D02*
D03*
Y616000D02*
D03*
X226000Y766000D02*
D03*
Y736000D02*
D03*
Y706000D02*
D03*
Y676000D02*
D03*
Y646000D02*
D03*
Y616000D02*
D03*
X196000Y766000D02*
D03*
Y736000D02*
D03*
Y706000D02*
D03*
Y676000D02*
D03*
Y646000D02*
D03*
Y616000D02*
D03*
X166000Y766000D02*
D03*
Y736000D02*
D03*
Y706000D02*
D03*
Y676000D02*
D03*
Y646000D02*
D03*
Y616000D02*
D03*
X136000Y766000D02*
D03*
Y736000D02*
D03*
Y706000D02*
D03*
Y676000D02*
D03*
Y646000D02*
D03*
Y616000D02*
D03*
X106000Y766000D02*
D03*
Y736000D02*
D03*
Y646000D02*
D03*
Y616000D02*
D03*
X76000Y766000D02*
D03*
Y646000D02*
D03*
Y616000D02*
D03*
X46000Y766000D02*
D03*
Y736000D02*
D03*
Y646000D02*
D03*
Y616000D02*
D03*
X250000Y1425000D02*
D03*
Y1395000D02*
D03*
Y1365000D02*
D03*
Y1335000D02*
D03*
Y1305000D02*
D03*
Y1275000D02*
D03*
Y1245000D02*
D03*
Y1215000D02*
D03*
Y1185000D02*
D03*
Y1155000D02*
D03*
Y1125000D02*
D03*
X220000Y1425000D02*
D03*
Y1395000D02*
D03*
Y1365000D02*
D03*
Y1335000D02*
D03*
Y1305000D02*
D03*
Y1275000D02*
D03*
Y1245000D02*
D03*
Y1215000D02*
D03*
Y1185000D02*
D03*
Y1155000D02*
D03*
Y1125000D02*
D03*
X190000Y1425000D02*
D03*
Y1395000D02*
D03*
Y1365000D02*
D03*
Y1335000D02*
D03*
Y1305000D02*
D03*
Y1275000D02*
D03*
Y1155000D02*
D03*
Y1125000D02*
D03*
X160000Y1425000D02*
D03*
Y1395000D02*
D03*
Y1365000D02*
D03*
Y1335000D02*
D03*
Y1305000D02*
D03*
Y1275000D02*
D03*
Y1155000D02*
D03*
Y1125000D02*
D03*
X130000Y1425000D02*
D03*
Y1395000D02*
D03*
Y1365000D02*
D03*
Y1335000D02*
D03*
Y1305000D02*
D03*
Y1275000D02*
D03*
Y1155000D02*
D03*
Y1125000D02*
D03*
X100000Y1425000D02*
D03*
Y1395000D02*
D03*
Y1305000D02*
D03*
Y1275000D02*
D03*
Y1245000D02*
D03*
Y1215000D02*
D03*
Y1185000D02*
D03*
Y1155000D02*
D03*
Y1125000D02*
D03*
X70000Y1425000D02*
D03*
Y1305000D02*
D03*
Y1275000D02*
D03*
Y1245000D02*
D03*
Y1215000D02*
D03*
Y1185000D02*
D03*
Y1155000D02*
D03*
Y1125000D02*
D03*
X40000Y1425000D02*
D03*
Y1395000D02*
D03*
Y1305000D02*
D03*
Y1275000D02*
D03*
Y1245000D02*
D03*
Y1215000D02*
D03*
Y1185000D02*
D03*
Y1155000D02*
D03*
Y1125000D02*
D03*
M02*
