G04 Layer_Color=65535*
%FSLAX44Y44*%
%MOMM*%
G71*
G01*
G75*
%ADD18C,0.1270*%
%ADD19C,0.2540*%
%ADD20C,0.2032*%
%ADD21C,0.2500*%
%ADD22C,0.1500*%
%ADD23R,20.5000X8.0000*%
D18*
X824760Y759200D02*
G03*
X855240Y759200I15240J0D01*
G01*
Y860800D02*
G03*
X824760Y860800I-15240J0D01*
G01*
Y759200D02*
Y860800D01*
X855240Y759200D02*
Y860800D01*
X1025700Y1179998D02*
X1254300D01*
Y1079998D02*
Y1179998D01*
X1025700Y1079998D02*
Y1179998D01*
Y1079998D02*
X1254300D01*
D19*
X897509Y1210000D02*
G03*
X897509Y1210000I-350009J0D01*
G01*
X887509Y405000D02*
G03*
X887509Y405000I-350009J0D01*
G01*
X905000Y1015000D02*
X1105000D01*
Y600000D02*
Y1015000D01*
X1010014Y600000D02*
X1105000D01*
X905000D02*
X1010014D01*
X905000D02*
Y1015000D01*
X1125000D02*
X1325000D01*
Y600000D02*
Y1015000D01*
X1230014Y600000D02*
X1325000D01*
X1125000D02*
X1230014D01*
X1125000D02*
Y1015000D01*
X839843Y887304D02*
X842383Y884765D01*
X847461D01*
X850000Y887304D01*
Y897461D01*
X847461Y900000D01*
X842383D01*
X839843Y897461D01*
X834765Y900000D02*
X829687D01*
X832226D01*
Y884765D01*
X834765Y887304D01*
X1009843Y567304D02*
X1012383Y564765D01*
X1017461D01*
X1020000Y567304D01*
Y577461D01*
X1017461Y580000D01*
X1012383D01*
X1009843Y577461D01*
X994608Y580000D02*
X1004765D01*
X994608Y569843D01*
Y567304D01*
X997147Y564765D01*
X1002226D01*
X1004765Y567304D01*
X1239843Y562304D02*
X1242383Y559765D01*
X1247461D01*
X1250000Y562304D01*
Y572461D01*
X1247461Y575000D01*
X1242383D01*
X1239843Y572461D01*
X1234765Y562304D02*
X1232226Y559765D01*
X1227147D01*
X1224608Y562304D01*
Y564843D01*
X1227147Y567383D01*
X1229687D01*
X1227147D01*
X1224608Y569922D01*
Y572461D01*
X1227147Y575000D01*
X1232226D01*
X1234765Y572461D01*
X190000Y1504765D02*
Y1520000D01*
X179843D01*
X174765D02*
X169687D01*
X172226D01*
Y1504765D01*
X174765Y1507304D01*
X335000Y789765D02*
Y805000D01*
X324843D01*
X309608D02*
X319765D01*
X309608Y794843D01*
Y792304D01*
X312147Y789765D01*
X317226D01*
X319765Y792304D01*
X1170000Y1215000D02*
Y1199765D01*
X1162383D01*
X1159843Y1202304D01*
Y1207383D01*
X1162383Y1209922D01*
X1170000D01*
X1164922D02*
X1159843Y1215000D01*
X1154765D02*
X1149687D01*
X1152226D01*
Y1199765D01*
X1154765Y1202304D01*
X80000Y1384765D02*
X69843Y1400000D01*
Y1384765D02*
X80000Y1400000D01*
X64765D02*
X59687D01*
X62226D01*
Y1384765D01*
X64765Y1387304D01*
X1125000Y1419765D02*
X1114843Y1435000D01*
Y1419765D02*
X1125000Y1435000D01*
X1099608D02*
X1109765D01*
X1099608Y1424843D01*
Y1422304D01*
X1102147Y1419765D01*
X1107226D01*
X1109765Y1422304D01*
X90000Y734765D02*
X79843Y750000D01*
Y734765D02*
X90000Y750000D01*
X74765Y737304D02*
X72226Y734765D01*
X67147D01*
X64608Y737304D01*
Y739843D01*
X67147Y742383D01*
X69687D01*
X67147D01*
X64608Y744922D01*
Y747461D01*
X67147Y750000D01*
X72226D01*
X74765Y747461D01*
X1140000Y419765D02*
X1129843Y435000D01*
Y419765D02*
X1140000Y435000D01*
X1117147D02*
Y419765D01*
X1124765Y427383D01*
X1114608D01*
D20*
X1156040Y354760D02*
Y385240D01*
X1074760Y354760D02*
X1156040D01*
X1074760D02*
Y385240D01*
X1156040D01*
X106040Y674760D02*
Y705240D01*
X24760Y674760D02*
X106040D01*
X24760D02*
Y705240D01*
X106040D01*
X101040Y1339760D02*
Y1370240D01*
X19760Y1339760D02*
X101040D01*
X19760D02*
Y1370240D01*
X101040D01*
X1160240Y1349760D02*
Y1380240D01*
X1078960Y1349760D02*
X1160240D01*
X1078960D02*
Y1380240D01*
X1160240D01*
D21*
X1151241Y102611D02*
X1161237D01*
Y110108D01*
X1156239D01*
X1161237D01*
Y117606D01*
X1146242D02*
X1141244D01*
X1143743D01*
Y107609D01*
X1146242D01*
X1133746Y117606D02*
X1128748D01*
X1131247D01*
Y102611D01*
X1133746D01*
X1118751Y105110D02*
Y107609D01*
X1121250D01*
X1116252D01*
X1118751D01*
Y115107D01*
X1116252Y117606D01*
X1108754Y107609D02*
Y117606D01*
Y112607D01*
X1106255Y110108D01*
X1103756Y107609D01*
X1101257D01*
X1093759Y105110D02*
X1091260Y102611D01*
X1086262D01*
X1083763Y105110D01*
Y107609D01*
X1086262Y110108D01*
X1088761D01*
X1086262D01*
X1083763Y112607D01*
Y115107D01*
X1086262Y117606D01*
X1091260D01*
X1093759Y115107D01*
X1257456Y147998D02*
Y133002D01*
X1249959D01*
X1247460Y135502D01*
Y140500D01*
X1249959Y142999D01*
X1257456D01*
X1252458D02*
X1247460Y147998D01*
X1242461D02*
X1237463D01*
X1239962D01*
Y133002D01*
X1242461Y135502D01*
X1229965D02*
X1227466Y133002D01*
X1222468D01*
X1219968Y135502D01*
Y145498D01*
X1222468Y147998D01*
X1227466D01*
X1229965Y145498D01*
Y135502D01*
X1214970D02*
X1212471Y133002D01*
X1207473D01*
X1204973Y135502D01*
Y145498D01*
X1207473Y147998D01*
X1212471D01*
X1214970Y145498D01*
Y135502D01*
X1199975Y147998D02*
Y145498D01*
X1197476D01*
Y147998D01*
X1199975D01*
X1177482D02*
X1187479D01*
X1177482Y138001D01*
Y135502D01*
X1179981Y133002D01*
X1184980D01*
X1187479Y135502D01*
X1172484D02*
X1169985Y133002D01*
X1164986D01*
X1162487Y135502D01*
Y138001D01*
X1164986Y140500D01*
X1167485D01*
X1164986D01*
X1162487Y142999D01*
Y145498D01*
X1164986Y147998D01*
X1169985D01*
X1172484Y145498D01*
X1157489Y135502D02*
X1154989Y133002D01*
X1149991D01*
X1147492Y135502D01*
Y145498D01*
X1149991Y147998D01*
X1154989D01*
X1157489Y145498D01*
Y135502D01*
X1142494Y147998D02*
Y145498D01*
X1139994D01*
Y147998D01*
X1142494D01*
X1129998Y135502D02*
X1127498Y133002D01*
X1122500D01*
X1120001Y135502D01*
Y145498D01*
X1122500Y147998D01*
X1127498D01*
X1129998Y145498D01*
Y135502D01*
X1105006Y133002D02*
X1110004Y135502D01*
X1115002Y140500D01*
Y145498D01*
X1112503Y147998D01*
X1107505D01*
X1105006Y145498D01*
Y142999D01*
X1107505Y140500D01*
X1115002D01*
X1100007Y135502D02*
X1097508Y133002D01*
X1092510D01*
X1090011Y135502D01*
Y145498D01*
X1092510Y147998D01*
X1097508D01*
X1100007Y145498D01*
Y135502D01*
X1085012Y147998D02*
Y145498D01*
X1082513D01*
Y147998D01*
X1085012D01*
X1072516Y135502D02*
X1070017Y133002D01*
X1065019D01*
X1062519Y135502D01*
Y145498D01*
X1065019Y147998D01*
X1070017D01*
X1072516Y145498D01*
Y135502D01*
X1057521D02*
X1055022Y133002D01*
X1050023D01*
X1047524Y135502D01*
Y145498D01*
X1050023Y147998D01*
X1055022D01*
X1057521Y145498D01*
Y135502D01*
X1042526D02*
X1040027Y133002D01*
X1035028D01*
X1032529Y135502D01*
Y145498D01*
X1035028Y147998D01*
X1040027D01*
X1042526Y145498D01*
Y135502D01*
X1027531Y140500D02*
X1017534D01*
X1012536Y135502D02*
X1010036Y133002D01*
X1005038D01*
X1002539Y135502D01*
Y145498D01*
X1005038Y147998D01*
X1010036D01*
X1012536Y145498D01*
Y135502D01*
X997540D02*
X995041Y133002D01*
X990043D01*
X987544Y135502D01*
Y145498D01*
X990043Y147998D01*
X995041D01*
X997540Y145498D01*
Y135502D01*
X1238713Y70508D02*
X1243712D01*
X1246211Y73007D01*
Y83004D01*
X1243712Y85503D01*
X1238713D01*
X1236214Y83004D01*
Y73007D01*
X1238713Y70508D01*
X1231216D02*
Y85503D01*
X1221219D01*
X1216220Y70508D02*
X1206224D01*
X1211222D01*
Y85503D01*
X1191229Y70508D02*
X1201225D01*
Y85503D01*
X1191229D01*
X1201225Y78005D02*
X1196227D01*
X1176233Y73007D02*
X1178733Y70508D01*
X1183731D01*
X1186230Y73007D01*
Y75506D01*
X1183731Y78005D01*
X1178733D01*
X1176233Y80505D01*
Y83004D01*
X1178733Y85503D01*
X1183731D01*
X1186230Y83004D01*
X1171235Y70508D02*
X1161238D01*
X1166237D01*
Y85503D01*
X1131248D02*
X1141245D01*
X1131248Y75506D01*
Y73007D01*
X1133747Y70508D01*
X1138746D01*
X1141245Y73007D01*
X1126250D02*
X1123750Y70508D01*
X1118752D01*
X1116253Y73007D01*
Y83004D01*
X1118752Y85503D01*
X1123750D01*
X1126250Y83004D01*
Y73007D01*
X1111254Y85503D02*
Y83004D01*
X1108755D01*
Y85503D01*
X1111254D01*
X1098758Y73007D02*
X1096259Y70508D01*
X1091261D01*
X1088762Y73007D01*
Y83004D01*
X1091261Y85503D01*
X1096259D01*
X1098758Y83004D01*
Y73007D01*
X1073767Y70508D02*
X1083763D01*
Y78005D01*
X1078765Y75506D01*
X1076266D01*
X1073767Y78005D01*
Y83004D01*
X1076266Y85503D01*
X1081264D01*
X1083763Y83004D01*
X1068768Y85503D02*
Y83004D01*
X1066269D01*
Y85503D01*
X1068768D01*
X1046275D02*
X1056272D01*
X1046275Y75506D01*
Y73007D01*
X1048775Y70508D01*
X1053773D01*
X1056272Y73007D01*
X1041277D02*
X1038778Y70508D01*
X1033780D01*
X1031280Y73007D01*
Y83004D01*
X1033780Y85503D01*
X1038778D01*
X1041277Y83004D01*
Y73007D01*
X1026282Y85503D02*
X1021284D01*
X1023783D01*
Y70508D01*
X1026282Y73007D01*
X1013786Y83004D02*
X1011287Y85503D01*
X1006288D01*
X1003789Y83004D01*
Y73007D01*
X1006288Y70508D01*
X1011287D01*
X1013786Y73007D01*
Y75506D01*
X1011287Y78005D01*
X1003789D01*
D22*
X93500Y1456837D02*
X90168D01*
X91834D01*
Y1466834D01*
X93500D01*
X90168D01*
X85169D02*
Y1460169D01*
X80171D01*
X78505Y1461835D01*
Y1466834D01*
X75173Y1468500D02*
X68508D01*
X58511Y1456837D02*
X65176D01*
Y1461835D01*
X61844Y1460169D01*
X60177D01*
X58511Y1461835D01*
Y1465168D01*
X60177Y1466834D01*
X63510D01*
X65176Y1465168D01*
X93500Y786837D02*
X90168D01*
X91834D01*
Y796834D01*
X93500D01*
X90168D01*
X85169D02*
Y790169D01*
X80171D01*
X78505Y791835D01*
Y796834D01*
X75173Y798500D02*
X68508D01*
X58511Y786837D02*
X61844Y788503D01*
X65176Y791835D01*
Y795168D01*
X63510Y796834D01*
X60177D01*
X58511Y795168D01*
Y793502D01*
X60177Y791835D01*
X65176D01*
X1128502Y1476837D02*
X1131834D01*
X1133500Y1478503D01*
Y1485168D01*
X1131834Y1486834D01*
X1128502D01*
X1126835Y1485168D01*
Y1478503D01*
X1128502Y1476837D01*
X1123503Y1480170D02*
Y1485168D01*
X1121837Y1486834D01*
X1116839D01*
Y1480170D01*
X1111840Y1478503D02*
Y1480170D01*
X1113506D01*
X1110174D01*
X1111840D01*
Y1485168D01*
X1110174Y1486834D01*
X1105176Y1488500D02*
X1098511D01*
X1095179Y1476837D02*
X1088514D01*
Y1478503D01*
X1095179Y1485168D01*
Y1486834D01*
X1128502Y481837D02*
X1131834D01*
X1133500Y483503D01*
Y490168D01*
X1131834Y491834D01*
X1128502D01*
X1126835Y490168D01*
Y483503D01*
X1128502Y481837D01*
X1123503Y485169D02*
Y490168D01*
X1121837Y491834D01*
X1116839D01*
Y485169D01*
X1111840Y483503D02*
Y485169D01*
X1113506D01*
X1110174D01*
X1111840D01*
Y490168D01*
X1110174Y491834D01*
X1105176Y493500D02*
X1098511D01*
X1095179Y483503D02*
X1093513Y481837D01*
X1090181D01*
X1088514Y483503D01*
Y485169D01*
X1090181Y486836D01*
X1088514Y488502D01*
Y490168D01*
X1090181Y491834D01*
X1093513D01*
X1095179Y490168D01*
Y488502D01*
X1093513Y486836D01*
X1095179Y485169D01*
Y483503D01*
X1093513Y486836D02*
X1090181D01*
D23*
X1122500Y215000D02*
D03*
M02*
