G04 Layer_Color=16711935*
%FSLAX44Y44*%
%MOMM*%
G71*
G01*
G75*
%ADD21C,0.2500*%
%ADD24C,2.2032*%
%ADD25C,2.2352*%
%ADD26C,2.7032*%
%ADD27C,2.6162*%
%ADD28C,0.2032*%
%ADD29C,7.2032*%
%ADD30C,8.2032*%
%ADD31C,1.4032*%
D21*
X1088759Y87611D02*
X1078763D01*
Y95108D01*
X1083761D01*
X1078763D01*
Y102606D01*
X1093758D02*
X1098756D01*
X1096257D01*
Y92609D01*
X1093758D01*
X1106254Y102606D02*
X1111252D01*
X1108753D01*
Y87611D01*
X1106254D01*
X1121249Y90110D02*
Y92609D01*
X1118750D01*
X1123748D01*
X1121249D01*
Y100107D01*
X1123748Y102606D01*
X1131246Y92609D02*
Y102606D01*
Y97607D01*
X1133745Y95108D01*
X1136244Y92609D01*
X1138743D01*
X1146241Y90110D02*
X1148740Y87611D01*
X1153738D01*
X1156237Y90110D01*
Y92609D01*
X1153738Y95108D01*
X1151239D01*
X1153738D01*
X1156237Y97607D01*
Y100107D01*
X1153738Y102606D01*
X1148740D01*
X1146241Y100107D01*
X983793Y132998D02*
Y118002D01*
X991291D01*
X993790Y120502D01*
Y125500D01*
X991291Y127999D01*
X983793D01*
X988792D02*
X993790Y132998D01*
X998789D02*
X1003787D01*
X1001288D01*
Y118002D01*
X998789Y120502D01*
X1011284D02*
X1013784Y118002D01*
X1018782D01*
X1021281Y120502D01*
Y130498D01*
X1018782Y132998D01*
X1013784D01*
X1011284Y130498D01*
Y120502D01*
X1026280D02*
X1028779Y118002D01*
X1033777D01*
X1036276Y120502D01*
Y130498D01*
X1033777Y132998D01*
X1028779D01*
X1026280Y130498D01*
Y120502D01*
X1041275Y132998D02*
Y130498D01*
X1043774D01*
Y132998D01*
X1041275D01*
X1063767D02*
X1053771D01*
X1063767Y123001D01*
Y120502D01*
X1061268Y118002D01*
X1056270D01*
X1053771Y120502D01*
X1068766D02*
X1071265Y118002D01*
X1076263D01*
X1078763Y120502D01*
Y123001D01*
X1076263Y125500D01*
X1073764D01*
X1076263D01*
X1078763Y127999D01*
Y130498D01*
X1076263Y132998D01*
X1071265D01*
X1068766Y130498D01*
X1083761Y120502D02*
X1086260Y118002D01*
X1091258D01*
X1093758Y120502D01*
Y130498D01*
X1091258Y132998D01*
X1086260D01*
X1083761Y130498D01*
Y120502D01*
X1098756Y132998D02*
Y130498D01*
X1101255D01*
Y132998D01*
X1098756D01*
X1111252Y120502D02*
X1113751Y118002D01*
X1118750D01*
X1121249Y120502D01*
Y130498D01*
X1118750Y132998D01*
X1113751D01*
X1111252Y130498D01*
Y120502D01*
X1136244Y118002D02*
X1131246Y120502D01*
X1126247Y125500D01*
Y130498D01*
X1128746Y132998D01*
X1133745D01*
X1136244Y130498D01*
Y127999D01*
X1133745Y125500D01*
X1126247D01*
X1141242Y120502D02*
X1143742Y118002D01*
X1148740D01*
X1151239Y120502D01*
Y130498D01*
X1148740Y132998D01*
X1143742D01*
X1141242Y130498D01*
Y120502D01*
X1156237Y132998D02*
Y130498D01*
X1158737D01*
Y132998D01*
X1156237D01*
X1168734Y120502D02*
X1171233Y118002D01*
X1176231D01*
X1178730Y120502D01*
Y130498D01*
X1176231Y132998D01*
X1171233D01*
X1168734Y130498D01*
Y120502D01*
X1183729D02*
X1186228Y118002D01*
X1191226D01*
X1193725Y120502D01*
Y130498D01*
X1191226Y132998D01*
X1186228D01*
X1183729Y130498D01*
Y120502D01*
X1198724Y132998D02*
X1203722D01*
X1201223D01*
Y118002D01*
X1198724Y120502D01*
X1211220Y125500D02*
X1221217D01*
X1226215Y120502D02*
X1228714Y118002D01*
X1233712D01*
X1236212Y120502D01*
Y130498D01*
X1233712Y132998D01*
X1228714D01*
X1226215Y130498D01*
Y120502D01*
X1241210D02*
X1243709Y118002D01*
X1248708D01*
X1251207Y120502D01*
Y130498D01*
X1248708Y132998D01*
X1243709D01*
X1241210Y130498D01*
Y120502D01*
D24*
X840000Y848100D02*
D03*
Y771900D02*
D03*
D25*
X1005000Y620000D02*
D03*
Y995000D02*
D03*
X1225000Y620000D02*
D03*
Y995000D02*
D03*
D26*
X1273350Y1130000D02*
D03*
X1006650D02*
D03*
X20000Y1520000D02*
D03*
X1340000D02*
D03*
D27*
X1090000Y370000D02*
D03*
X1140800D02*
D03*
X40000Y690000D02*
D03*
X90800D02*
D03*
X35000Y1355000D02*
D03*
X85800D02*
D03*
X1094200Y1365000D02*
D03*
X1145000D02*
D03*
D28*
X425000Y1090000D02*
D03*
X545000D02*
D03*
X665000D02*
D03*
X425000Y1210000D02*
D03*
X665000D02*
D03*
Y1330000D02*
D03*
X545000D02*
D03*
X425000D02*
D03*
X660000Y525000D02*
D03*
X540000D02*
D03*
X420000D02*
D03*
X660000Y405000D02*
D03*
X420000D02*
D03*
Y285000D02*
D03*
X540000D02*
D03*
X660000D02*
D03*
D29*
X930000Y1210000D02*
D03*
X165000D02*
D03*
X155000Y405000D02*
D03*
X920000D02*
D03*
D30*
X547500Y1210000D02*
D03*
X537500Y405000D02*
D03*
D31*
X1216000Y1455999D02*
D03*
Y1425999D02*
D03*
Y1395999D02*
D03*
Y1365999D02*
D03*
Y1335999D02*
D03*
Y1305999D02*
D03*
X1186000Y1455999D02*
D03*
Y1425999D02*
D03*
Y1395999D02*
D03*
Y1365999D02*
D03*
Y1335999D02*
D03*
Y1305999D02*
D03*
X1156000Y1455999D02*
D03*
Y1425999D02*
D03*
Y1395999D02*
D03*
Y1335999D02*
D03*
Y1305999D02*
D03*
X1126000Y1455999D02*
D03*
Y1395999D02*
D03*
Y1335999D02*
D03*
Y1305999D02*
D03*
X1096000Y1455999D02*
D03*
Y1395999D02*
D03*
Y1335999D02*
D03*
Y1305999D02*
D03*
X1066000Y1455999D02*
D03*
Y1425999D02*
D03*
Y1395999D02*
D03*
Y1365999D02*
D03*
Y1335999D02*
D03*
Y1305999D02*
D03*
Y1276000D02*
D03*
X1036000Y1455999D02*
D03*
Y1425999D02*
D03*
Y1395999D02*
D03*
Y1365999D02*
D03*
Y1335999D02*
D03*
Y1305999D02*
D03*
Y1276000D02*
D03*
Y1246000D02*
D03*
Y1216000D02*
D03*
Y1186000D02*
D03*
Y1156000D02*
D03*
Y1126000D02*
D03*
Y1096000D02*
D03*
X1006000Y1455999D02*
D03*
Y1425999D02*
D03*
Y1395999D02*
D03*
Y1365999D02*
D03*
Y1335999D02*
D03*
Y1305999D02*
D03*
Y1276000D02*
D03*
Y1246000D02*
D03*
Y1216000D02*
D03*
Y1186000D02*
D03*
Y1156000D02*
D03*
Y1096000D02*
D03*
X976000Y1455999D02*
D03*
Y1425999D02*
D03*
Y1395999D02*
D03*
Y1365999D02*
D03*
Y1335999D02*
D03*
Y1305999D02*
D03*
Y1276000D02*
D03*
Y1246000D02*
D03*
Y1216000D02*
D03*
Y1186000D02*
D03*
Y1156000D02*
D03*
Y1126000D02*
D03*
Y1096000D02*
D03*
X946000Y1305999D02*
D03*
Y1276000D02*
D03*
Y1156000D02*
D03*
Y1126000D02*
D03*
Y1096000D02*
D03*
X916000Y1305999D02*
D03*
Y1276000D02*
D03*
Y1156000D02*
D03*
Y1126000D02*
D03*
Y1096000D02*
D03*
X886000Y1305999D02*
D03*
Y1276000D02*
D03*
Y1156000D02*
D03*
Y1126000D02*
D03*
Y1096000D02*
D03*
X856000Y1305999D02*
D03*
Y1276000D02*
D03*
Y1246000D02*
D03*
Y1216000D02*
D03*
Y1186000D02*
D03*
Y1156000D02*
D03*
Y1126000D02*
D03*
Y1096000D02*
D03*
X826000Y1305999D02*
D03*
Y1276000D02*
D03*
Y1246000D02*
D03*
Y1216000D02*
D03*
Y1186000D02*
D03*
Y1156000D02*
D03*
Y1126000D02*
D03*
Y1096000D02*
D03*
X796000Y1305999D02*
D03*
Y1276000D02*
D03*
Y1246000D02*
D03*
Y1216000D02*
D03*
Y1186000D02*
D03*
Y1156000D02*
D03*
Y1126000D02*
D03*
Y1096000D02*
D03*
X1276000Y496000D02*
D03*
Y466000D02*
D03*
Y436000D02*
D03*
Y406000D02*
D03*
Y376000D02*
D03*
Y346000D02*
D03*
Y316000D02*
D03*
Y286000D02*
D03*
X1246000Y496000D02*
D03*
Y466000D02*
D03*
Y436000D02*
D03*
Y406000D02*
D03*
Y376000D02*
D03*
Y346000D02*
D03*
Y316000D02*
D03*
Y286000D02*
D03*
X1216000Y496000D02*
D03*
Y466000D02*
D03*
Y436000D02*
D03*
Y406000D02*
D03*
Y376000D02*
D03*
Y346000D02*
D03*
Y316000D02*
D03*
Y286000D02*
D03*
X1186000Y496000D02*
D03*
Y466000D02*
D03*
Y436000D02*
D03*
Y406000D02*
D03*
Y376000D02*
D03*
Y346000D02*
D03*
Y316000D02*
D03*
Y286000D02*
D03*
X1156000Y496000D02*
D03*
Y466000D02*
D03*
Y436000D02*
D03*
Y316000D02*
D03*
Y286000D02*
D03*
X1126000Y466000D02*
D03*
Y316000D02*
D03*
Y286000D02*
D03*
X1096000Y466000D02*
D03*
Y436000D02*
D03*
Y316000D02*
D03*
Y286000D02*
D03*
X1066000Y496000D02*
D03*
Y466000D02*
D03*
Y436000D02*
D03*
Y316000D02*
D03*
Y286000D02*
D03*
X1036000Y496000D02*
D03*
Y466000D02*
D03*
Y436000D02*
D03*
Y406000D02*
D03*
Y376000D02*
D03*
Y346000D02*
D03*
Y316000D02*
D03*
Y286000D02*
D03*
X1006000Y496000D02*
D03*
Y466000D02*
D03*
Y436000D02*
D03*
Y406000D02*
D03*
Y376000D02*
D03*
Y346000D02*
D03*
Y316000D02*
D03*
Y286000D02*
D03*
X976000Y496000D02*
D03*
Y466000D02*
D03*
Y436000D02*
D03*
Y406000D02*
D03*
Y376000D02*
D03*
Y346000D02*
D03*
Y316000D02*
D03*
Y286000D02*
D03*
X946000Y496000D02*
D03*
Y466000D02*
D03*
Y346000D02*
D03*
Y316000D02*
D03*
Y286000D02*
D03*
X916000Y496000D02*
D03*
Y466000D02*
D03*
Y346000D02*
D03*
Y316000D02*
D03*
Y286000D02*
D03*
X886000Y496000D02*
D03*
Y466000D02*
D03*
Y346000D02*
D03*
Y316000D02*
D03*
Y286000D02*
D03*
X856000Y496000D02*
D03*
Y466000D02*
D03*
Y436000D02*
D03*
Y406000D02*
D03*
Y376000D02*
D03*
Y346000D02*
D03*
Y316000D02*
D03*
Y286000D02*
D03*
X826000Y496000D02*
D03*
Y466000D02*
D03*
Y436000D02*
D03*
Y406000D02*
D03*
Y376000D02*
D03*
Y346000D02*
D03*
Y316000D02*
D03*
Y286000D02*
D03*
X226000Y496000D02*
D03*
Y466000D02*
D03*
Y436000D02*
D03*
Y406000D02*
D03*
Y376000D02*
D03*
Y346000D02*
D03*
Y316000D02*
D03*
X196000Y496000D02*
D03*
Y466000D02*
D03*
Y436000D02*
D03*
Y376000D02*
D03*
Y346000D02*
D03*
Y316000D02*
D03*
X166000Y496000D02*
D03*
Y466000D02*
D03*
Y346000D02*
D03*
Y316000D02*
D03*
X136000Y496000D02*
D03*
Y466000D02*
D03*
Y346000D02*
D03*
Y316000D02*
D03*
X106000Y496000D02*
D03*
Y466000D02*
D03*
Y436000D02*
D03*
Y406000D02*
D03*
Y376000D02*
D03*
Y346000D02*
D03*
Y316000D02*
D03*
X76000Y496000D02*
D03*
Y466000D02*
D03*
Y436000D02*
D03*
Y406000D02*
D03*
Y376000D02*
D03*
Y346000D02*
D03*
Y316000D02*
D03*
X256000Y766000D02*
D03*
Y736000D02*
D03*
Y706000D02*
D03*
Y676000D02*
D03*
Y646000D02*
D03*
Y616000D02*
D03*
X226000Y766000D02*
D03*
Y736000D02*
D03*
Y706000D02*
D03*
Y676000D02*
D03*
Y646000D02*
D03*
Y616000D02*
D03*
X196000Y766000D02*
D03*
Y736000D02*
D03*
Y706000D02*
D03*
Y676000D02*
D03*
Y646000D02*
D03*
Y616000D02*
D03*
X166000Y766000D02*
D03*
Y736000D02*
D03*
Y706000D02*
D03*
Y676000D02*
D03*
Y646000D02*
D03*
Y616000D02*
D03*
X136000Y766000D02*
D03*
Y736000D02*
D03*
Y706000D02*
D03*
Y676000D02*
D03*
Y646000D02*
D03*
Y616000D02*
D03*
X106000Y766000D02*
D03*
Y736000D02*
D03*
Y646000D02*
D03*
Y616000D02*
D03*
X76000Y766000D02*
D03*
Y646000D02*
D03*
Y616000D02*
D03*
X46000Y766000D02*
D03*
Y736000D02*
D03*
Y646000D02*
D03*
Y616000D02*
D03*
X250000Y1425000D02*
D03*
Y1395000D02*
D03*
Y1365000D02*
D03*
Y1335000D02*
D03*
Y1305000D02*
D03*
Y1275000D02*
D03*
Y1245000D02*
D03*
Y1215000D02*
D03*
Y1185000D02*
D03*
Y1155000D02*
D03*
Y1125000D02*
D03*
X220000Y1425000D02*
D03*
Y1395000D02*
D03*
Y1365000D02*
D03*
Y1335000D02*
D03*
Y1305000D02*
D03*
Y1275000D02*
D03*
Y1245000D02*
D03*
Y1215000D02*
D03*
Y1185000D02*
D03*
Y1155000D02*
D03*
Y1125000D02*
D03*
X190000Y1425000D02*
D03*
Y1395000D02*
D03*
Y1365000D02*
D03*
Y1335000D02*
D03*
Y1305000D02*
D03*
Y1275000D02*
D03*
Y1155000D02*
D03*
Y1125000D02*
D03*
X160000Y1425000D02*
D03*
Y1395000D02*
D03*
Y1365000D02*
D03*
Y1335000D02*
D03*
Y1305000D02*
D03*
Y1275000D02*
D03*
Y1155000D02*
D03*
Y1125000D02*
D03*
X130000Y1425000D02*
D03*
Y1395000D02*
D03*
Y1365000D02*
D03*
Y1335000D02*
D03*
Y1305000D02*
D03*
Y1275000D02*
D03*
Y1155000D02*
D03*
Y1125000D02*
D03*
X100000Y1425000D02*
D03*
Y1395000D02*
D03*
Y1305000D02*
D03*
Y1275000D02*
D03*
Y1245000D02*
D03*
Y1215000D02*
D03*
Y1185000D02*
D03*
Y1155000D02*
D03*
Y1125000D02*
D03*
X70000Y1425000D02*
D03*
Y1305000D02*
D03*
Y1275000D02*
D03*
Y1245000D02*
D03*
Y1215000D02*
D03*
Y1185000D02*
D03*
Y1155000D02*
D03*
Y1125000D02*
D03*
X40000Y1425000D02*
D03*
Y1395000D02*
D03*
Y1305000D02*
D03*
Y1275000D02*
D03*
Y1245000D02*
D03*
Y1215000D02*
D03*
Y1185000D02*
D03*
Y1155000D02*
D03*
Y1125000D02*
D03*
M02*
