%FSTAX23Y23*%
%MOIN*%
%SFA1B1*%

%IPPOS*%
%ADD22C,0.009800*%
%ADD24C,0.086700*%
%ADD25C,0.103000*%
%ADD26C,0.106400*%
%ADD27C,0.088000*%
%ADD28C,0.323000*%
%ADD29C,0.283600*%
%ADD30C,0.008000*%
%ADD31C,0.055200*%
%LNr100.230.050.001-00_filtr2-1*%
%LPD*%
G54D22*
X00566Y00503D02*
Y00444D01*
X00595*
X00605Y00454*
Y00474*
X00595Y00484*
X00566*
X00585D02*
X00605Y00503D01*
X00625D02*
X00644D01*
X00635*
Y00444*
X00625Y00454*
X00674D02*
X00684Y00444D01*
X00703*
X00713Y00454*
Y00494*
X00703Y00503*
X00684*
X00674Y00494*
Y00454*
X00733D02*
X00743Y00444D01*
X00762*
X00772Y00454*
Y00494*
X00762Y00503*
X00743*
X00733Y00494*
Y00454*
X00792Y00503D02*
Y00494D01*
X00802*
Y00503*
X00792*
X00881D02*
X00841D01*
X00881Y00464*
Y00454*
X00871Y00444*
X00851*
X00841Y00454*
X009D02*
X0091Y00444D01*
X0093*
X0094Y00454*
Y00464*
X0093Y00474*
X0092*
X0093*
X0094Y00484*
Y00494*
X0093Y00503*
X0091*
X009Y00494*
X00959Y00454D02*
X00969Y00444D01*
X00989*
X00999Y00454*
Y00494*
X00989Y00503*
X00969*
X00959Y00494*
Y00454*
X01018Y00503D02*
Y00494D01*
X01028*
Y00503*
X01018*
X01067Y00454D02*
X01077Y00444D01*
X01097*
X01107Y00454*
Y00494*
X01097Y00503*
X01077*
X01067Y00494*
Y00454*
X01166Y00444D02*
X01127D01*
Y00474*
X01146Y00464*
X01156*
X01166Y00474*
Y00494*
X01156Y00503*
X01136*
X01127Y00494*
X01186Y00454D02*
X01195Y00444D01*
X01215*
X01225Y00454*
Y00494*
X01215Y00503*
X01195*
X01186Y00494*
Y00454*
X01245Y00503D02*
Y00494D01*
X01254*
Y00503*
X01245*
X01294Y00454D02*
X01304Y00444D01*
X01323*
X01333Y00454*
Y00494*
X01323Y00503*
X01304*
X01294Y00494*
Y00454*
X01353D02*
X01363Y00444D01*
X01382*
X01392Y00454*
Y00494*
X01382Y00503*
X01363*
X01353Y00494*
Y00454*
X01412Y00503D02*
X01432D01*
X01422*
Y00444*
X01412Y00454*
X01461Y00474D02*
X015D01*
X0152Y00454D02*
X0153Y00444D01*
X0155*
X01559Y00454*
Y00494*
X0155Y00503*
X0153*
X0152Y00494*
Y00454*
X01579D02*
X01589Y00444D01*
X01609*
X01618Y00454*
Y00494*
X01609Y00503*
X01589*
X01579Y00494*
Y00454*
X009Y0032D02*
X00861D01*
Y00349*
X00881*
X00861*
Y00379*
X0092D02*
X0094D01*
X0093*
Y0034*
X0092*
X00969Y00379D02*
X00989D01*
X00979*
Y0032*
X00969*
X01028Y0033D02*
Y0034D01*
X01018*
X01038*
X01028*
Y00369*
X01038Y00379*
X01067Y0034D02*
Y00379D01*
Y00359*
X01077Y00349*
X01087Y0034*
X01097*
X01166Y00379D02*
X01127D01*
X01166Y0034*
Y0033*
X01156Y0032*
X01136*
X01127Y0033*
X01186Y00389D02*
X01225D01*
X01245Y0034D02*
X01264Y00379D01*
X01284Y0034*
X01304Y00379D02*
X01323D01*
X01313*
Y0032*
X01304Y0033*
G54D24*
X01968Y02999D03*
Y03299D03*
G54D25*
X00784Y01574D03*
X00984D03*
X0496Y05472D03*
X0516D03*
X00823Y05039D03*
X01023D03*
X04957Y03149D03*
X05157D03*
G54D26*
X01469Y04212D03*
X00419D03*
X00078Y05984D03*
X05275D03*
G54D27*
X00511Y03818D03*
Y02342D03*
X01378Y03818D03*
Y02342D03*
G54D28*
X03228Y04763D03*
X03346Y01653D03*
G54D29*
X04734Y04763D03*
X01722D03*
X04852Y01653D03*
X0184D03*
G54D30*
X0371Y04291D03*
X03238D03*
X02765D03*
Y04763D03*
X0371D03*
X02765Y05236D03*
X03238D03*
X0371D03*
X02864Y01181D03*
X03336D03*
X03809D03*
X02864Y01653D03*
X03809D03*
Y02126D03*
X03336D03*
X02864D03*
G54D31*
X02307Y01834D03*
Y01716D03*
Y01598D03*
Y0148D03*
Y01362D03*
Y01244D03*
X02189Y01834D03*
Y01716D03*
Y01598D03*
Y0148D03*
Y01362D03*
Y01244D03*
X0207Y01834D03*
Y01716D03*
Y01598D03*
Y0148D03*
Y01362D03*
Y01244D03*
X01952Y01834D03*
Y0148D03*
Y01362D03*
Y01244D03*
X01834Y01834D03*
Y0148D03*
Y01362D03*
Y01244D03*
X01716Y01834D03*
Y0148D03*
Y01362D03*
Y01244D03*
X01598Y01834D03*
Y01716D03*
Y01598D03*
Y0148D03*
Y01362D03*
Y01244D03*
X0148Y01834D03*
Y01716D03*
Y01598D03*
Y0148D03*
Y01362D03*
Y01244D03*
X01362Y01834D03*
Y01716D03*
Y01598D03*
Y0148D03*
Y01362D03*
Y01244D03*
X01244Y01834D03*
Y01716D03*
Y01598D03*
Y0148D03*
Y01362D03*
Y01244D03*
X01126Y01834D03*
Y01716D03*
Y01598D03*
Y0148D03*
Y01362D03*
Y01244D03*
X01007Y01834D03*
Y01716D03*
Y0148D03*
Y01362D03*
Y01244D03*
X00889Y01834D03*
Y01716D03*
Y01244D03*
X00771Y01834D03*
Y01716D03*
Y0148D03*
Y01362D03*
Y01244D03*
X00653Y01834D03*
Y01716D03*
Y01598D03*
Y0148D03*
Y01362D03*
Y01244D03*
X00535Y01834D03*
Y01716D03*
Y01598D03*
Y0148D03*
Y01362D03*
Y01244D03*
X00417Y01834D03*
Y01716D03*
Y01598D03*
Y0148D03*
Y01362D03*
Y01244D03*
X00299Y01834D03*
Y01716D03*
Y01598D03*
Y0148D03*
Y01362D03*
Y01244D03*
X01952Y05141D03*
Y05023D03*
Y04905D03*
Y04787D03*
Y04669D03*
Y04551D03*
Y04433D03*
X01834Y05141D03*
Y05023D03*
Y04905D03*
Y04551D03*
Y04433D03*
X01716Y05141D03*
Y05023D03*
Y04551D03*
Y04433D03*
X01598Y05141D03*
Y05023D03*
Y04905D03*
Y04551D03*
Y04433D03*
X0148Y05141D03*
Y05023D03*
Y04905D03*
Y04787D03*
Y04669D03*
Y04551D03*
Y04433D03*
X01126Y05259D03*
Y05141D03*
Y05023D03*
Y04905D03*
Y04787D03*
X01007Y05259D03*
Y05141D03*
Y04905D03*
Y04787D03*
X00889Y05259D03*
Y05141D03*
Y04905D03*
X00771Y05259D03*
Y05141D03*
Y04905D03*
Y04787D03*
X00653Y05259D03*
Y05141D03*
Y05023D03*
Y04905D03*
Y04787D03*
X05259Y03252D03*
Y03133D03*
Y03015D03*
X05141Y0337D03*
Y03252D03*
Y03015D03*
Y02897D03*
X05023Y0337D03*
Y03252D03*
Y03015D03*
Y02897D03*
X04905Y0337D03*
Y03252D03*
Y03015D03*
Y02897D03*
X04787Y0337D03*
Y03252D03*
Y03133D03*
Y03015D03*
Y02897D03*
X04669Y0337D03*
Y03252D03*
Y03133D03*
Y03015D03*
Y02897D03*
X04551Y0337D03*
Y03252D03*
Y03133D03*
Y03015D03*
Y02897D03*
X04433Y03252D03*
Y03133D03*
Y03015D03*
X05236Y01948D03*
Y0183D03*
Y01712D03*
Y01594D03*
Y01476D03*
X05118Y02066D03*
Y01948D03*
Y0183D03*
Y01712D03*
Y01594D03*
Y01476D03*
Y01358D03*
X05Y02066D03*
Y01948D03*
Y01358D03*
X04881Y02066D03*
Y01948D03*
Y01358D03*
X04763Y02066D03*
Y01948D03*
Y01358D03*
X04645Y02066D03*
Y01948D03*
Y01358D03*
X04527Y02066D03*
Y01948D03*
Y0183D03*
Y01712D03*
Y01594D03*
Y01476D03*
Y01358D03*
X04409Y01948D03*
Y0183D03*
Y01712D03*
Y01594D03*
Y01476D03*
X05177Y05629D03*
Y05275D03*
Y05157D03*
Y05039D03*
Y04921D03*
Y04803D03*
Y04685D03*
Y04566D03*
Y04448D03*
X05059Y05629D03*
Y05275D03*
Y05039D03*
Y04921D03*
Y04803D03*
Y04685D03*
Y04566D03*
Y04448D03*
X0494Y05629D03*
Y05275D03*
Y05157D03*
Y05039D03*
Y04921D03*
Y04803D03*
Y04685D03*
Y04566D03*
Y04448D03*
X04822Y05629D03*
Y05511D03*
Y05393D03*
Y05275D03*
Y05157D03*
Y05039D03*
Y04566D03*
Y04448D03*
X04704Y05629D03*
Y05511D03*
Y05393D03*
Y05275D03*
Y05157D03*
Y05039D03*
Y04566D03*
Y04448D03*
X04586Y05629D03*
Y05511D03*
Y05393D03*
Y05275D03*
Y05157D03*
Y05039D03*
Y04566D03*
Y04448D03*
X04468Y05629D03*
Y05511D03*
Y05393D03*
Y05275D03*
Y05157D03*
Y05039D03*
Y04921D03*
Y04803D03*
Y04685D03*
Y04566D03*
Y04448D03*
M02*