%FSTAX23Y23*%
%MOIN*%
%SFA1B1*%

%IPPOS*%
%ADD18C,0.005000*%
%ADD19C,0.010000*%
%ADD20C,0.008000*%
%ADD21C,0.005900*%
%ADD22C,0.009800*%
%ADD23R,0.807100X0.315000*%
%LNr100.230.050.001-00_filtr2-1*%
%LPD*%
G54D18*
X02028Y03349D02*
D01*
X02028Y03353*
X02027Y03357*
X02027Y03362*
X02026Y03366*
X02024Y0337*
X02023Y03374*
X02021Y03377*
X02019Y03381*
X02017Y03384*
X02014Y03388*
X02011Y03391*
X02008Y03394*
X02005Y03396*
X02002Y03399*
X01998Y03401*
X01994Y03403*
X0199Y03405*
X01987Y03406*
X01983Y03407*
X01978Y03408*
X01974Y03409*
X0197Y03409*
X01966*
X01962Y03409*
X01958Y03408*
X01953Y03407*
X01949Y03406*
X01946Y03405*
X01942Y03403*
X01938Y03401*
X01934Y03399*
X01931Y03396*
X01928Y03394*
X01925Y03391*
X01922Y03388*
X01919Y03384*
X01917Y03381*
X01915Y03377*
X01913Y03374*
X01912Y0337*
X0191Y03366*
X01909Y03362*
X01909Y03357*
X01908Y03353*
X01908Y03349*
Y02949D02*
D01*
X01908Y02945*
X01909Y02941*
X01909Y02937*
X0191Y02933*
X01912Y02929*
X01913Y02925*
X01915Y02921*
X01917Y02917*
X01919Y02914*
X01922Y02911*
X01925Y02907*
X01928Y02905*
X01931Y02902*
X01934Y02899*
X01938Y02897*
X01942Y02895*
X01946Y02893*
X01949Y02892*
X01953Y02891*
X01958Y0289*
X01962Y02889*
X01966Y02889*
X0197*
X01974Y02889*
X01978Y0289*
X01983Y02891*
X01987Y02892*
X0199Y02893*
X01994Y02895*
X01998Y02897*
X02002Y02899*
X02005Y02902*
X02008Y02905*
X02011Y02907*
X02014Y02911*
X02017Y02914*
X02019Y02917*
X02021Y02921*
X02023Y02925*
X02024Y02929*
X02026Y02933*
X02027Y02937*
X02027Y02941*
X02028Y02945*
X02028Y02949*
Y03349*
X01908Y02949D02*
Y03349D01*
X00494Y04409D02*
X01394D01*
Y04015D02*
Y04409D01*
X00494Y04015D02*
Y04409D01*
Y04015D02*
X01394D01*
G54D19*
X04606Y04763D02*
D01*
X04602Y04859*
X04592Y04955*
X04576Y0505*
X04552Y05143*
X04523Y05235*
X04487Y05324*
X04445Y0541*
X04396Y05494*
X04343Y05573*
X04283Y05649*
X04219Y05721*
X0415Y05787*
X04076Y05849*
X03998Y05906*
X03917Y05957*
X03832Y06002*
X03744Y06041*
X03654Y06074*
X03561Y061*
X03467Y0612*
X03372Y06134*
X03276Y0614*
X0318*
X03084Y06134*
X02989Y0612*
X02894Y061*
X02802Y06074*
X02712Y06041*
X02624Y06002*
X02539Y05957*
X02457Y05906*
X02379Y05849*
X02306Y05787*
X02237Y05721*
X02172Y05649*
X02113Y05573*
X02059Y05494*
X02011Y0541*
X01969Y05324*
X01933Y05235*
X01903Y05143*
X0188Y0505*
X01863Y04955*
X01853Y04859*
X0185Y04763*
X01853Y04667*
X01863Y04572*
X0188Y04477*
X01903Y04383*
X01933Y04292*
X01969Y04203*
X02011Y04116*
X02059Y04033*
X02113Y03953*
X02172Y03878*
X02237Y03806*
X02306Y03739*
X02379Y03677*
X02457Y03621*
X02539Y0357*
X02624Y03525*
X02712Y03486*
X02802Y03453*
X02894Y03426*
X02989Y03406*
X03084Y03393*
X0318Y03386*
X03276*
X03372Y03393*
X03467Y03406*
X03561Y03426*
X03654Y03453*
X03744Y03486*
X03832Y03525*
X03917Y0357*
X03998Y03621*
X04076Y03677*
X0415Y03739*
X04219Y03806*
X04283Y03878*
X04343Y03953*
X04396Y04033*
X04445Y04116*
X04487Y04203*
X04523Y04292*
X04552Y04383*
X04576Y04477*
X04592Y04572*
X04602Y04667*
X04606Y04763*
X04724Y01653D02*
D01*
X04721Y01749*
X0471Y01845*
X04694Y0194*
X04671Y02033*
X04641Y02124*
X04605Y02213*
X04563Y023*
X04515Y02383*
X04461Y02463*
X04402Y02539*
X04337Y0261*
X04268Y02677*
X04194Y02739*
X04116Y02795*
X04035Y02846*
X0395Y02892*
X03862Y02931*
X03772Y02964*
X03679Y0299*
X03585Y0301*
X0349Y03023*
X03394Y0303*
X03298*
X03202Y03023*
X03107Y0301*
X03013Y0299*
X0292Y02964*
X0283Y02931*
X02742Y02892*
X02657Y02846*
X02575Y02795*
X02498Y02739*
X02424Y02677*
X02355Y0261*
X0229Y02539*
X02231Y02463*
X02177Y02383*
X02129Y023*
X02087Y02213*
X02051Y02124*
X02021Y02033*
X01998Y0194*
X01981Y01845*
X01971Y01749*
X01968Y01653*
X01971Y01557*
X01981Y01461*
X01998Y01366*
X02021Y01273*
X02051Y01182*
X02087Y01093*
X02129Y01006*
X02177Y00923*
X02231Y00843*
X0229Y00767*
X02355Y00696*
X02424Y00629*
X02498Y00567*
X02575Y00511*
X02657Y0046*
X02742Y00414*
X0283Y00375*
X0292Y00342*
X03013Y00316*
X03107Y00296*
X03202Y00283*
X03298Y00276*
X03394*
X0349Y00283*
X03585Y00296*
X03679Y00316*
X03772Y00342*
X03862Y00375*
X0395Y00414*
X04035Y0046*
X04116Y00511*
X04194Y00567*
X04268Y00629*
X04337Y00696*
X04402Y00767*
X04461Y00843*
X04515Y00923*
X04563Y01006*
X04605Y01093*
X04641Y01182*
X04671Y01273*
X04694Y01366*
X0471Y01461*
X04721Y01557*
X04724Y01653*
X00118Y02263D02*
Y03897D01*
Y02263D02*
X00531D01*
X00905*
Y03897*
X00118D02*
X00905D01*
X00984Y02263D02*
Y03897D01*
Y02263D02*
X01397D01*
X01771*
Y03897*
X00984D02*
X01771D01*
G54D20*
X01044Y01514D02*
Y01634D01*
X00724Y01514D02*
X01044D01*
X00724D02*
Y01634D01*
X01044*
X0522Y05412D02*
Y05532D01*
X049Y05412D02*
X0522D01*
X049D02*
Y05532D01*
X0522*
X01083Y04979D02*
Y05099D01*
X00763Y04979D02*
X01083D01*
X00763D02*
Y05099D01*
X01083*
X05217Y03089D02*
Y03209D01*
X04897Y03089D02*
X05217D01*
X04897D02*
Y03209D01*
X05217*
G54D21*
X05131Y03432D02*
X05118D01*
X05125*
Y03471*
X05131*
X05118*
X05099D02*
Y03445D01*
X05079*
X05072Y03452*
Y03471*
X05059Y03478D02*
X05033D01*
X05Y03471D02*
Y03432D01*
X0502Y03452*
X04994*
X05131Y05715D02*
X05118D01*
X05125*
Y05755*
X05131*
X05118*
X05099D02*
Y05729D01*
X05079*
X05072Y05735*
Y05755*
X05059Y05761D02*
X05033D01*
X0502Y05722D02*
X05013Y05715D01*
X05*
X04994Y05722*
Y05729*
X05Y05735*
X05007*
X05*
X04994Y05742*
Y05748*
X05Y05755*
X05013*
X0502Y05748*
X00978Y05341D02*
X00991D01*
X00998Y05348*
Y05374*
X00991Y05381*
X00978*
X00971Y05374*
Y05348*
X00978Y05341*
X00958Y05355D02*
Y05374D01*
X00952Y05381*
X00932*
Y05355*
X00912Y05348D02*
Y05355D01*
X00919*
X00906*
X00912*
Y05374*
X00906Y05381*
X00886Y05387D02*
X0086D01*
X0082Y05341D02*
X00847D01*
Y05361*
X00834Y05355*
X00827*
X0082Y05361*
Y05374*
X00827Y05381*
X0084*
X00847Y05374*
X00919Y01109D02*
X00932D01*
X00939Y01116*
Y01142*
X00932Y01149*
X00919*
X00912Y01142*
Y01116*
X00919Y01109*
X00899Y01122D02*
Y01142D01*
X00893Y01149*
X00873*
Y01122*
X00853Y01116D02*
Y01122D01*
X0086*
X00847*
X00853*
Y01142*
X00847Y01149*
X00827Y01155D02*
X00801D01*
X00761Y01109D02*
X00775Y01116D01*
X00788Y01129*
Y01142*
X00781Y01149*
X00768*
X00761Y01142*
Y01135*
X00768Y01129*
X00788*
X00925Y01338D02*
X00899Y01378D01*
Y01338D02*
X00925Y01378D01*
X00866D02*
Y01338D01*
X00885Y01358*
X00859*
X05118Y02795D02*
X05091Y02834D01*
Y02795D02*
X05118Y02834D01*
X05078Y02801D02*
X05072Y02795D01*
X05059*
X05052Y02801*
Y02808*
X05059Y02815*
X05065*
X05059*
X05052Y02821*
Y02828*
X05059Y02834*
X05072*
X05078Y02828*
X00925Y04783D02*
X00899Y04822D01*
Y04783D02*
X00925Y04822D01*
X00859D02*
X00885D01*
X00859Y04796*
Y0479*
X00866Y04783*
X00879*
X00885Y0479*
X05078Y05118D02*
X05052Y05157D01*
Y05118D02*
X05078Y05157D01*
X05039D02*
X05026D01*
X05032*
Y05118*
X05039Y05124*
X00846Y04507D02*
Y04468D01*
X00826*
X0082Y04475*
Y04488*
X00826Y04494*
X00846*
X00833D02*
X0082Y04507D01*
X00807D02*
X00794D01*
X008*
Y04468*
X00807Y04475*
X04527Y00472D02*
Y00511D01*
X04501*
X04462D02*
X04488D01*
X04462Y00485*
Y00479*
X04468Y00472*
X04481*
X04488Y00479*
X01948Y0557D02*
Y0561D01*
X01922*
X01909D02*
X01896D01*
X01902*
Y0557*
X01909Y05577*
X00524Y02171D02*
X00531Y02165D01*
X00544*
X00551Y02171*
Y02198*
X00544Y02204*
X00531*
X00524Y02198*
X00511Y02171D02*
X00505Y02165D01*
X00492*
X00485Y02171*
Y02178*
X00492Y02185*
X00498*
X00492*
X00485Y02191*
Y02198*
X00492Y02204*
X00505*
X00511Y02198*
X01391Y02171D02*
X01397Y02165D01*
X0141*
X01417Y02171*
Y02198*
X0141Y02204*
X01397*
X01391Y02198*
X01351Y02204D02*
X01378D01*
X01351Y02178*
Y02171*
X01358Y02165*
X01371*
X01378Y02171*
X01962Y02801D02*
X01968Y02795D01*
X01981*
X01988Y02801*
Y02828*
X01981Y02834*
X01968*
X01962Y02828*
X01948Y02834D02*
X01935D01*
X01942*
Y02795*
X01948Y02801*
G54D22*
X01304Y00379D02*
X01343D01*
Y00408*
X01323*
X01343*
Y00438*
X01284D02*
X01264D01*
X01274*
Y00399*
X01284*
X01235Y00438D02*
X01215D01*
X01225*
Y00379*
X01235*
X01176Y00389D02*
Y00399D01*
X01186*
X01166*
X01176*
Y00428*
X01166Y00438*
X01136Y00399D02*
Y00438D01*
Y00418*
X01127Y00408*
X01117Y00399*
X01107*
X01038Y00438D02*
X01077D01*
X01038Y00399*
Y00389*
X01048Y00379*
X01067*
X01077Y00389*
X01018Y00448D02*
X00979D01*
X00959Y00399D02*
X0094Y00438D01*
X0092Y00399*
X009Y00438D02*
X00881D01*
X0089*
Y00379*
X009Y00389*
X01643Y00563D02*
Y00503D01*
X01614*
X01604Y00513*
Y00533*
X01614Y00543*
X01643*
X01623D02*
X01604Y00563D01*
X01584D02*
X01564D01*
X01574*
Y00503*
X01584Y00513*
X01535D02*
X01525Y00503D01*
X01505*
X01495Y00513*
Y00553*
X01505Y00563*
X01525*
X01535Y00553*
Y00513*
X01476D02*
X01466Y00503D01*
X01446*
X01436Y00513*
Y00553*
X01446Y00563*
X01466*
X01476Y00553*
Y00513*
X01417Y00563D02*
Y00553D01*
X01407*
Y00563*
X01417*
X01328D02*
X01368D01*
X01328Y00523*
Y00513*
X01338Y00503*
X01358*
X01368Y00513*
X01309D02*
X01299Y00503D01*
X01279*
X01269Y00513*
Y00523*
X01279Y00533*
X01289*
X01279*
X01269Y00543*
Y00553*
X01279Y00563*
X01299*
X01309Y00553*
X0125Y00513D02*
X0124Y00503D01*
X0122*
X0121Y00513*
Y00553*
X0122Y00563*
X0124*
X0125Y00553*
Y00513*
X0119Y00563D02*
Y00553D01*
X01181*
Y00563*
X0119*
X01141Y00513D02*
X01131Y00503D01*
X01112*
X01102Y00513*
Y00553*
X01112Y00563*
X01131*
X01141Y00553*
Y00513*
X01043Y00503D02*
X01082D01*
Y00533*
X01063Y00523*
X01053*
X01043Y00533*
Y00553*
X01053Y00563*
X01072*
X01082Y00553*
X01023Y00513D02*
X01013Y00503D01*
X00994*
X00984Y00513*
Y00553*
X00994Y00563*
X01013*
X01023Y00553*
Y00513*
X00964Y00563D02*
Y00553D01*
X00954*
Y00563*
X00964*
X00915Y00513D02*
X00905Y00503D01*
X00885*
X00876Y00513*
Y00553*
X00885Y00563*
X00905*
X00915Y00553*
Y00513*
X00856D02*
X00846Y00503D01*
X00826*
X00817Y00513*
Y00553*
X00826Y00563*
X00846*
X00856Y00553*
Y00513*
X00797D02*
X00787Y00503D01*
X00767*
X00758Y00513*
Y00553*
X00767Y00563*
X00787*
X00797Y00553*
Y00513*
X00738Y00533D02*
X00699D01*
X00679Y00513D02*
X00669Y00503D01*
X00649*
X00639Y00513*
Y00553*
X00649Y00563*
X00669*
X00679Y00553*
Y00513*
X0062D02*
X0061Y00503D01*
X0059*
X0058Y00513*
Y00553*
X0059Y00563*
X0061*
X0062Y00553*
Y00513*
X01569Y00257D02*
X01589D01*
X01599Y00267*
Y00307*
X01589Y00316*
X01569*
X01559Y00307*
Y00267*
X01569Y00257*
X0154D02*
Y00316D01*
X015*
X01481Y00257D02*
X01441D01*
X01461*
Y00316*
X01382Y00257D02*
X01422D01*
Y00316*
X01382*
X01422Y00287D02*
X01402D01*
X01323Y00267D02*
X01333Y00257D01*
X01353*
X01363Y00267*
Y00277*
X01353Y00287*
X01333*
X01323Y00297*
Y00307*
X01333Y00316*
X01353*
X01363Y00307*
X01304Y00257D02*
X01264D01*
X01284*
Y00316*
X01146D02*
X01186D01*
X01146Y00277*
Y00267*
X01156Y00257*
X01176*
X01186Y00267*
X01127D02*
X01117Y00257D01*
X01097*
X01087Y00267*
Y00307*
X01097Y00316*
X01117*
X01127Y00307*
Y00267*
X01067Y00316D02*
Y00307D01*
X01058*
Y00316*
X01067*
X01018Y00267D02*
X01008Y00257D01*
X00989*
X00979Y00267*
Y00307*
X00989Y00316*
X01008*
X01018Y00307*
Y00267*
X0092Y00257D02*
X00959D01*
Y00287*
X0094Y00277*
X0093*
X0092Y00287*
Y00307*
X0093Y00316*
X00949*
X00959Y00307*
X009Y00316D02*
Y00307D01*
X0089*
Y00316*
X009*
X00812D02*
X00851D01*
X00812Y00277*
Y00267*
X00821Y00257*
X00841*
X00851Y00267*
X00792D02*
X00782Y00257D01*
X00762*
X00753Y00267*
Y00307*
X00762Y00316*
X00782*
X00792Y00307*
Y00267*
X00733Y00316D02*
X00713D01*
X00723*
Y00257*
X00733Y00267*
X00684Y00307D02*
X00674Y00316D01*
X00654*
X00644Y00307*
Y00267*
X00654Y00257*
X00674*
X00684Y00267*
Y00277*
X00674Y00287*
X00644*
G54D23*
X01112Y00826D03*
M02*