%FSTAX23Y23*%
%MOIN*%
%SFA1B1*%

%IPPOS*%
%ADD10C,0.078700*%
%ADD11C,0.095000*%
%ADD12C,0.098400*%
%ADD13C,0.080000*%
%ADD14C,0.315000*%
%ADD15C,0.275600*%
%ADD16C,0.047200*%
%ADD17R,1.200800X0.354300*%
%LNr100.230.050.001-00_filtr2-1*%
%LPD*%
G36*
X02244Y05315D02*
D01*
X02251*
X02267Y05312*
X02282Y05308*
X02296Y05303*
X02309Y05295*
X02322Y05285*
X02333Y05274*
X02342Y05262*
X0235Y05249*
X02356Y05234*
X0236Y05219*
X02362Y05204*
Y05196*
Y03346*
Y03338*
X0236Y03323*
X02356Y03308*
X0235Y03294*
X02342Y0328*
X02333Y03268*
X02322Y03257*
X02309Y03248*
X02296Y0324*
X02282Y03234*
X02267Y0323*
X02251Y03228*
X02244*
X01771*
X01763*
X01748Y0323*
X01733Y03234*
X01719Y0324*
X01705Y03248*
X01693Y03257*
X01682Y03268*
X01673Y0328*
X01665Y03294*
X01659Y03308*
X01655Y03323*
X01653Y03338*
Y03346*
Y03937*
X01653Y03944*
X01651Y0396*
X01647Y03975*
X01641Y03989*
X01633Y04002*
X01624Y04014*
X01613Y04025*
X01601Y04035*
X01587Y04042*
X01573Y04048*
X01558Y04052*
X01543Y04054*
X01535Y04055*
X01141*
X01134*
X01118Y04057*
X01103Y04061*
X01089Y04067*
X01076Y04074*
X01063Y04084*
X01052Y04095*
X01043Y04107*
X01035Y0412*
X01029Y04135*
X01025Y0415*
X01023Y04165*
Y04173*
Y04606*
X01023Y04614*
X01021Y04629*
X01017Y04644*
X01011Y04658*
X01003Y04671*
X00994Y04684*
X00983Y04695*
X00971Y04704*
X00957Y04712*
X00943Y04718*
X00928Y04722*
X00913Y04724*
X00905Y04724*
X00708*
X007*
X00685Y04726*
X0067Y0473*
X00656Y04736*
X00642Y04744*
X0063Y04753*
X00619Y04764*
X0061Y04776*
X00602Y0479*
X00596Y04804*
X00592Y04819*
X0059Y04834*
Y04842*
Y05196*
Y05204*
X00592Y05219*
X00596Y05234*
X00602Y05249*
X0061Y05262*
X00619Y05274*
X0063Y05285*
X00642Y05295*
X00656Y05303*
X0067Y05308*
X00685Y05312*
X007Y05315*
X00708*
X02244*
G37*
G36*
X01771Y0307D02*
X02244D01*
X02251*
X02267Y03068*
X02282Y03064*
X02296Y03058*
X02309Y03051*
X02322Y03041*
X02333Y0303*
X02342Y03018*
X0235Y03005*
X02356Y0299*
X0236Y02975*
X02362Y0296*
Y02952*
Y01299*
Y01291*
X0236Y01276*
X02356Y01261*
X0235Y01246*
X02342Y01233*
X02333Y01221*
X02322Y0121*
X02309Y012*
X02296Y01193*
X02282Y01187*
X02267Y01183*
X02251Y01181*
X02244*
X00315*
X00307*
X00291Y01183*
X00276Y01187*
X00262Y01193*
X00249Y012*
X00236Y0121*
X00226Y01221*
X00216Y01233*
X00208Y01246*
X00202Y01261*
X00198Y01276*
X00196Y01291*
Y01299*
Y02436*
Y0244*
Y02448*
X00198Y02464*
X00202Y02479*
X00208Y02493*
X00216Y02506*
X00226Y02519*
X00236Y02529*
X00249Y02539*
X00262Y02547*
X00276Y02553*
X00291Y02557*
X00307Y02559*
X00315*
X0153*
X01535*
X01543Y02559*
X01558Y02561*
X01573Y02565*
X01587Y02571*
X01601Y02579*
X01613Y02588*
X01624Y02599*
X01633Y02611*
X01641Y02624*
X01647Y02639*
X01651Y02654*
X01653Y02669*
X01653Y02677*
Y02952*
Y0296*
X01655Y02975*
X01659Y0299*
X01665Y03005*
X01673Y03018*
X01682Y0303*
X01693Y03041*
X01705Y03051*
X01719Y03058*
X01733Y03064*
X01748Y03068*
X01763Y0307*
X01771*
G37*
G36*
X05196Y03543D02*
X05204D01*
X05219Y03541*
X05234Y03537*
X05249Y03531*
X05262Y03523*
X05274Y03514*
X05285Y03503*
X05295Y03491*
X05303Y03477*
X05308Y03463*
X05312Y03448*
X05315Y03432*
Y03425*
Y01299*
Y01291*
X05312Y01276*
X05308Y01261*
X05303Y01246*
X05295Y01233*
X05285Y01221*
X05274Y0121*
X05262Y012*
X05249Y01193*
X05234Y01187*
X05219Y01183*
X05204Y01181*
X04448*
X04441*
X04425Y01183*
X0441Y01187*
X04396Y01193*
X04383Y012*
X0437Y0121*
X04359Y01221*
X0435Y01233*
X04342Y01246*
X04336Y01261*
X04332Y01276*
X0433Y01291*
Y01299*
Y03425*
Y03432*
X04332Y03448*
X04336Y03463*
X04342Y03477*
X0435Y03491*
X04359Y03503*
X0437Y03514*
X04383Y03523*
X04396Y03531*
X0441Y03537*
X04425Y03541*
X04441Y03543*
X04448*
X05196*
G37*
G36*
Y05787D02*
D01*
X05204*
X05219Y05785*
X05234Y05781*
X05249Y05775*
X05262Y05767*
X05274Y05758*
X05285Y05747*
X05295Y05735*
X05303Y05721*
X05308Y05707*
X05312Y05692*
X05315Y05677*
Y05669*
Y04448*
Y04441*
X05312Y04425*
X05308Y0441*
X05303Y04396*
X05295Y04383*
X05285Y0437*
X05274Y04359*
X05262Y0435*
X05249Y04342*
X05234Y04336*
X05219Y04332*
X05204Y0433*
X05196*
X04448*
X04441*
X04425Y04332*
X0441Y04336*
X04396Y04342*
X04383Y0435*
X0437Y04359*
X04359Y0437*
X0435Y04383*
X04342Y04396*
X04336Y0441*
X04332Y04425*
X0433Y04441*
Y04448*
Y05669*
Y05677*
X04332Y05692*
X04336Y05707*
X04342Y05721*
X0435Y05735*
X04359Y05747*
X0437Y05758*
X04383Y05767*
X04396Y05775*
X0441Y05781*
X04425Y05785*
X04441Y05787*
X04448*
X05196*
G37*
G36*
X00495Y04446D02*
X0051Y04442D01*
X00524Y04436*
X00538Y04429*
X0055Y04419*
X00561Y04408*
X0057Y04396*
X00578Y04383*
X00584Y04368*
X00588Y04353*
X0059Y04338*
Y0433*
Y04055*
X0059Y04047*
X00592Y04032*
X00596Y04017*
X00602Y04002*
X0061Y03989*
X00619Y03977*
X0063Y03966*
X00643Y03956*
X00656Y03949*
X0067Y03943*
X00685Y03939*
X007Y03937*
X00708Y03937*
X01378*
X01385*
X01401Y03935*
X01416Y03931*
X0143Y03925*
X01443Y03917*
X01456Y03907*
X01466Y03896*
X01476Y03884*
X01484Y03871*
X0149Y03856*
X01494Y03842*
X01496Y03826*
Y03818*
Y03771*
X01494Y03756*
X0149Y03741*
X01484Y03727*
X01476Y03713*
X01466Y03701*
X01456Y0369*
X01443Y03681*
X0143Y03673*
X01416Y03667*
X01401Y03663*
X01385Y03661*
X01378*
X00393*
X00386*
X0037Y03663*
X00355Y03667*
X00341Y03673*
X00327Y03681*
X00315Y0369*
X00304Y03701*
X00295Y03713*
X00287Y03727*
X00281Y03741*
X00277Y03756*
X00275Y03771*
Y03779*
Y0433*
Y04338*
X00277Y04353*
X00281Y04368*
X00287Y04383*
X00295Y04396*
X00304Y04408*
X00315Y04419*
X00327Y04429*
X00341Y04436*
X00355Y04442*
X0037Y04446*
X00386Y04448*
X00393*
X00472*
X0048*
X00495Y04446*
G37*
G54D10*
X01968Y02999D03*
Y03299D03*
G54D11*
X00784Y01574D03*
X00984D03*
X0496Y05472D03*
X0516D03*
X00823Y05039D03*
X01023D03*
X04957Y03149D03*
X05157D03*
G54D12*
X01469Y04212D03*
X00419D03*
X00078Y05984D03*
X05275D03*
G54D13*
X00511Y03818D03*
Y02342D03*
X01378Y03818D03*
Y02342D03*
G54D14*
X03228Y04763D03*
X03346Y01653D03*
G54D15*
X04734Y04763D03*
X01722D03*
X04852Y01653D03*
X0184D03*
G54D16*
X02307Y01834D03*
Y01716D03*
Y01598D03*
Y0148D03*
Y01362D03*
Y01244D03*
X02189Y01834D03*
Y01716D03*
Y01598D03*
Y0148D03*
Y01362D03*
Y01244D03*
X0207Y01834D03*
Y01716D03*
Y01598D03*
Y0148D03*
Y01362D03*
Y01244D03*
X01952Y01834D03*
Y0148D03*
Y01362D03*
Y01244D03*
X01834Y01834D03*
Y0148D03*
Y01362D03*
Y01244D03*
X01716Y01834D03*
Y0148D03*
Y01362D03*
Y01244D03*
X01598Y01834D03*
Y01716D03*
Y01598D03*
Y0148D03*
Y01362D03*
Y01244D03*
X0148Y01834D03*
Y01716D03*
Y01598D03*
Y0148D03*
Y01362D03*
Y01244D03*
X01362Y01834D03*
Y01716D03*
Y01598D03*
Y0148D03*
Y01362D03*
Y01244D03*
X01244Y01834D03*
Y01716D03*
Y01598D03*
Y0148D03*
Y01362D03*
Y01244D03*
X01126Y01834D03*
Y01716D03*
Y01598D03*
Y0148D03*
Y01362D03*
Y01244D03*
X01007Y01834D03*
Y01716D03*
Y0148D03*
Y01362D03*
Y01244D03*
X00889Y01834D03*
Y01716D03*
Y01244D03*
X00771Y01834D03*
Y01716D03*
Y0148D03*
Y01362D03*
Y01244D03*
X00653Y01834D03*
Y01716D03*
Y01598D03*
Y0148D03*
Y01362D03*
Y01244D03*
X00535Y01834D03*
Y01716D03*
Y01598D03*
Y0148D03*
Y01362D03*
Y01244D03*
X00417Y01834D03*
Y01716D03*
Y01598D03*
Y0148D03*
Y01362D03*
Y01244D03*
X00299Y01834D03*
Y01716D03*
Y01598D03*
Y0148D03*
Y01362D03*
Y01244D03*
X01952Y05141D03*
Y05023D03*
Y04905D03*
Y04787D03*
Y04669D03*
Y04551D03*
Y04433D03*
X01834Y05141D03*
Y05023D03*
Y04905D03*
Y04551D03*
Y04433D03*
X01716Y05141D03*
Y05023D03*
Y04551D03*
Y04433D03*
X01598Y05141D03*
Y05023D03*
Y04905D03*
Y04551D03*
Y04433D03*
X0148Y05141D03*
Y05023D03*
Y04905D03*
Y04787D03*
Y04669D03*
Y04551D03*
Y04433D03*
X01126Y05259D03*
Y05141D03*
Y05023D03*
Y04905D03*
Y04787D03*
X01007Y05259D03*
Y05141D03*
Y04905D03*
Y04787D03*
X00889Y05259D03*
Y05141D03*
Y04905D03*
X00771Y05259D03*
Y05141D03*
Y04905D03*
Y04787D03*
X00653Y05259D03*
Y05141D03*
Y05023D03*
Y04905D03*
Y04787D03*
X05259Y03252D03*
Y03133D03*
Y03015D03*
X05141Y0337D03*
Y03252D03*
Y03015D03*
Y02897D03*
X05023Y0337D03*
Y03252D03*
Y03015D03*
Y02897D03*
X04905Y0337D03*
Y03252D03*
Y03015D03*
Y02897D03*
X04787Y0337D03*
Y03252D03*
Y03133D03*
Y03015D03*
Y02897D03*
X04669Y0337D03*
Y03252D03*
Y03133D03*
Y03015D03*
Y02897D03*
X04551Y0337D03*
Y03252D03*
Y03133D03*
Y03015D03*
Y02897D03*
X04433Y03252D03*
Y03133D03*
Y03015D03*
X05236Y01948D03*
Y0183D03*
Y01712D03*
Y01594D03*
Y01476D03*
X05118Y02066D03*
Y01948D03*
Y0183D03*
Y01712D03*
Y01594D03*
Y01476D03*
Y01358D03*
X05Y02066D03*
Y01948D03*
Y01358D03*
X04881Y02066D03*
Y01948D03*
Y01358D03*
X04763Y02066D03*
Y01948D03*
Y01358D03*
X04645Y02066D03*
Y01948D03*
Y01358D03*
X04527Y02066D03*
Y01948D03*
Y0183D03*
Y01712D03*
Y01594D03*
Y01476D03*
Y01358D03*
X04409Y01948D03*
Y0183D03*
Y01712D03*
Y01594D03*
Y01476D03*
X05177Y05629D03*
Y05275D03*
Y05157D03*
Y05039D03*
Y04921D03*
Y04803D03*
Y04685D03*
Y04566D03*
Y04448D03*
X05059Y05629D03*
Y05275D03*
Y05039D03*
Y04921D03*
Y04803D03*
Y04685D03*
Y04566D03*
Y04448D03*
X0494Y05629D03*
Y05275D03*
Y05157D03*
Y05039D03*
Y04921D03*
Y04803D03*
Y04685D03*
Y04566D03*
Y04448D03*
X04822Y05629D03*
Y05511D03*
Y05393D03*
Y05275D03*
Y05157D03*
Y05039D03*
Y04566D03*
Y04448D03*
X04704Y05629D03*
Y05511D03*
Y05393D03*
Y05275D03*
Y05157D03*
Y05039D03*
Y04566D03*
Y04448D03*
X04586Y05629D03*
Y05511D03*
Y05393D03*
Y05275D03*
Y05157D03*
Y05039D03*
Y04566D03*
Y04448D03*
X04468Y05629D03*
Y05511D03*
Y05393D03*
Y05275D03*
Y05157D03*
Y05039D03*
Y04921D03*
Y04803D03*
Y04685D03*
Y04566D03*
Y04448D03*
G54D17*
X01092Y00413D03*
M02*