%FSTAX23Y23*%
%MOIN*%
%SFA1B1*%

%IPPOS*%
%ADD10C,0.078700*%
%ADD11C,0.095000*%
%ADD12C,0.098400*%
%ADD13C,0.080000*%
%ADD14C,0.315000*%
%ADD15C,0.275600*%
%ADD16C,0.047200*%
%LNr100.230.050.001-00_filtr2-1*%
%LPD*%
G36*
X04448Y05787D02*
X05196D01*
X05204*
X05219Y05785*
X05234Y05781*
X05249Y05775*
X05262Y05767*
X05274Y05758*
X05285Y05747*
X05295Y05735*
X05303Y05721*
X05308Y05707*
X05312Y05692*
X05315Y05677*
Y05669*
Y04448*
Y04441*
X05312Y04425*
X05308Y0441*
X05303Y04396*
X05295Y04383*
X05285Y0437*
X05274Y04359*
X05262Y0435*
X05249Y04342*
X05234Y04336*
X05219Y04332*
X05204Y0433*
X05196*
X04448*
X04441*
X04425Y04332*
X0441Y04336*
X04396Y04342*
X04383Y0435*
X0437Y04359*
X04359Y0437*
X0435Y04383*
X04342Y04396*
X04336Y0441*
X04332Y04425*
X0433Y04441*
Y04448*
Y05669*
Y05677*
X04332Y05692*
X04336Y05707*
X04342Y05721*
X0435Y05735*
X04359Y05747*
X0437Y05758*
X04383Y05767*
X04396Y05775*
X0441Y05781*
X04425Y05785*
X04441Y05787*
X04448*
G37*
G36*
X00472Y04448D02*
D01*
X0048*
X00495Y04446*
X0051Y04442*
X00524Y04436*
X00538Y04429*
X0055Y04419*
X00561Y04408*
X0057Y04396*
X00578Y04383*
X00584Y04368*
X00588Y04353*
X0059Y04338*
Y0433*
Y04055*
X0059Y04047*
X00592Y04032*
X00596Y04017*
X00602Y04002*
X0061Y03989*
X00619Y03977*
X0063Y03966*
X00643Y03956*
X00656Y03949*
X0067Y03943*
X00685Y03939*
X007Y03937*
X00708Y03937*
X01378*
X01385*
X01401Y03935*
X01416Y03931*
X0143Y03925*
X01443Y03917*
X01456Y03907*
X01466Y03896*
X01476Y03884*
X01484Y03871*
X0149Y03856*
X01494Y03842*
X01496Y03826*
Y03818*
Y03779*
Y03771*
X01494Y03756*
X0149Y03741*
X01484Y03727*
X01476Y03713*
X01466Y03701*
X01456Y0369*
X01443Y03681*
X0143Y03673*
X01416Y03667*
X01401Y03663*
X01385Y03661*
X01378*
X00393*
X00386*
X0037Y03663*
X00355Y03667*
X00341Y03673*
X00327Y03681*
X00315Y0369*
X00304Y03701*
X00295Y03713*
X00287Y03727*
X00281Y03741*
X00277Y03756*
X00275Y03771*
Y03779*
Y04326*
Y0433*
Y04338*
X00277Y04353*
X00281Y04368*
X00287Y04383*
X00295Y04396*
X00304Y04408*
X00315Y04419*
X00327Y04429*
X00341Y04436*
X00355Y04442*
X0037Y04446*
X00386Y04448*
X00393*
X00472*
G37*
G36*
X02244Y0307D02*
D01*
X02251*
X02267Y03068*
X02282Y03064*
X02296Y03058*
X02309Y03051*
X02322Y03041*
X02333Y0303*
X02342Y03018*
X0235Y03005*
X02356Y0299*
X0236Y02975*
X02362Y0296*
Y02952*
Y01299*
Y01291*
X0236Y01276*
X02356Y01261*
X0235Y01246*
X02342Y01233*
X02333Y01221*
X02322Y0121*
X02309Y012*
X02296Y01193*
X02282Y01187*
X02267Y01183*
X02251Y01181*
X02244*
X00315*
X00307*
X00291Y01183*
X00276Y01187*
X00262Y01193*
X00249Y012*
X00236Y0121*
X00226Y01221*
X00216Y01233*
X00208Y01246*
X00202Y01261*
X00198Y01276*
X00196Y01291*
Y01299*
Y02436*
Y0244*
Y02448*
X00198Y02464*
X00202Y02479*
X00208Y02493*
X00216Y02506*
X00226Y02519*
X00236Y02529*
X00249Y02539*
X00262Y02547*
X00276Y02553*
X00291Y02557*
X00307Y02559*
X00315*
X01535*
X01543Y02559*
X01558Y02561*
X01573Y02565*
X01587Y02571*
X01601Y02579*
X01613Y02588*
X01624Y02599*
X01633Y02611*
X01641Y02624*
X01647Y02639*
X01651Y02654*
X01653Y02669*
X01653Y02677*
Y02928*
Y02933*
Y02942*
X01655Y0296*
X0166Y02977*
X01667Y02994*
X01676Y03009*
X01687Y03024*
X017Y03036*
X01714Y03047*
X0173Y03056*
X01747Y03063*
X01764Y03068*
X01782Y0307*
X01791*
X02244*
G37*
G36*
Y05315D02*
D01*
X02251*
X02267Y05312*
X02282Y05308*
X02296Y05303*
X02309Y05295*
X02322Y05285*
X02333Y05274*
X02342Y05262*
X0235Y05249*
X02356Y05234*
X0236Y05219*
X02362Y05204*
Y05196*
Y03346*
Y03338*
X0236Y03323*
X02356Y03308*
X0235Y03294*
X02342Y0328*
X02333Y03268*
X02322Y03257*
X02309Y03248*
X02296Y0324*
X02282Y03234*
X02267Y0323*
X02251Y03228*
X02244*
X01771*
X01763*
X01748Y0323*
X01733Y03234*
X01719Y0324*
X01705Y03248*
X01693Y03257*
X01682Y03268*
X01673Y0328*
X01665Y03294*
X01659Y03308*
X01655Y03323*
X01653Y03338*
Y03346*
Y03937*
X01653Y03944*
X01651Y0396*
X01647Y03975*
X01641Y03989*
X01633Y04002*
X01624Y04014*
X01613Y04025*
X01601Y04035*
X01587Y04042*
X01573Y04048*
X01558Y04052*
X01543Y04054*
X01535Y04055*
X01141*
X01134*
X01118Y04057*
X01103Y04061*
X01089Y04067*
X01076Y04074*
X01063Y04084*
X01052Y04095*
X01043Y04107*
X01035Y0412*
X01029Y04135*
X01025Y0415*
X01023Y04165*
Y04173*
Y04606*
X01023Y04614*
X01021Y04629*
X01017Y04644*
X01011Y04658*
X01003Y04671*
X00994Y04684*
X00983Y04695*
X00971Y04704*
X00957Y04712*
X00943Y04718*
X00928Y04722*
X00913Y04724*
X00905Y04724*
X00708*
X007*
X00685Y04726*
X0067Y0473*
X00656Y04736*
X00642Y04744*
X0063Y04753*
X00619Y04764*
X0061Y04776*
X00602Y0479*
X00596Y04804*
X00592Y04819*
X0059Y04834*
Y04842*
Y05196*
Y05204*
X00592Y05219*
X00596Y05234*
X00602Y05249*
X0061Y05262*
X00619Y05274*
X0063Y05285*
X00642Y05295*
X00656Y05303*
X0067Y05308*
X00685Y05312*
X007Y05315*
X00708*
X02244*
G37*
G36*
X05196Y03543D02*
X05204D01*
X05219Y03541*
X05234Y03537*
X05249Y03531*
X05262Y03523*
X05274Y03514*
X05285Y03503*
X05295Y03491*
X05303Y03477*
X05308Y03463*
X05312Y03448*
X05315Y03432*
Y03425*
Y01299*
Y01291*
X05312Y01276*
X05308Y01261*
X05303Y01246*
X05295Y01233*
X05285Y01221*
X05274Y0121*
X05262Y012*
X05249Y01193*
X05234Y01187*
X05219Y01183*
X05204Y01181*
X05196*
X04441*
X04425Y01183*
X0441Y01187*
X04396Y01193*
X04383Y012*
X0437Y0121*
X04359Y01221*
X0435Y01233*
X04342Y01246*
X04336Y01261*
X04332Y01276*
X0433Y01291*
Y01299*
Y03425*
Y03432*
X04332Y03448*
X04336Y03463*
X04342Y03477*
X0435Y03491*
X04359Y03503*
X0437Y03514*
X04383Y03523*
X04396Y03531*
X0441Y03537*
X04425Y03541*
X04441Y03543*
X04448*
X05196*
G37*
%LNr100.230.050.001-00_filtr2-2*%
%LPC*%
G36*
X04753Y04912D02*
Y04783D01*
X04882*
X04882Y04787*
X04877Y0481*
X04868Y04831*
X04855Y04852*
X0484Y04869*
X04822Y04885*
X04802Y04897*
X0478Y04906*
X04757Y04912*
X04753Y04912*
G37*
G36*
X0514Y05528D02*
X05137Y05527D01*
X05127Y05522*
X05118Y05514*
X05111Y05505*
X05105Y05495*
X05104Y05492*
X0514*
Y05528*
G37*
G36*
X0494D02*
X04937Y05527D01*
X04927Y05522*
X04918Y05514*
X04911Y05505*
X04905Y05495*
X04904Y05492*
X0494*
Y05528*
G37*
G36*
X0518D02*
Y05492D01*
X05216*
X05215Y05495*
X0521Y05505*
X05202Y05514*
X05193Y05522*
X05183Y05527*
X0518Y05528*
G37*
G36*
X0498D02*
Y05492D01*
X05016*
X05015Y05495*
X0501Y05505*
X05002Y05514*
X04993Y05522*
X04983Y05527*
X0498Y05528*
G37*
G36*
X05216Y05452D02*
X0518D01*
Y05416*
X05183Y05417*
X05193Y05422*
X05202Y0543*
X0521Y05439*
X05215Y05449*
X05216Y05452*
G37*
G36*
X0494D02*
X04904D01*
X04905Y05449*
X04911Y05439*
X04918Y0543*
X04927Y05422*
X04937Y05417*
X0494Y05416*
Y05452*
G37*
G36*
X05016D02*
X0498D01*
Y05416*
X04983Y05417*
X04993Y05422*
X05002Y0543*
X0501Y05439*
X05015Y05449*
X05016Y05452*
G37*
G36*
X0514D02*
X05104D01*
X05105Y05449*
X05111Y05439*
X05118Y0543*
X05127Y05422*
X05137Y05417*
X0514Y05416*
Y05452*
G37*
G36*
X04714Y04744D02*
X04585D01*
X04586Y0474*
X04591Y04717*
X046Y04695*
X04612Y04675*
X04628Y04657*
X04646Y04642*
X04666Y0463*
X04687Y04621*
X0471Y04615*
X04714Y04615*
Y04744*
G37*
G36*
Y04912D02*
X0471Y04912D01*
X04687Y04906*
X04666Y04897*
X04646Y04885*
X04628Y04869*
X04612Y04852*
X046Y04831*
X04591Y0481*
X04586Y04787*
X04585Y04783*
X04714*
Y04912*
G37*
G36*
X04882Y04744D02*
X04753D01*
Y04615*
X04757Y04615*
X0478Y04621*
X04802Y0463*
X04822Y04642*
X0484Y04657*
X04855Y04675*
X04868Y04695*
X04877Y04717*
X04882Y0474*
X04882Y04744*
G37*
G36*
X004Y04192D02*
X00362D01*
X00363Y04189*
X00368Y04178*
X00376Y04169*
X00385Y04161*
X00396Y04155*
X004Y04154*
Y04192*
G37*
G36*
X01397Y03866D02*
Y03838D01*
X01425*
X01423Y03845*
X01414Y03855*
X01404Y03864*
X01397Y03866*
G37*
G36*
X00477Y04192D02*
X00439D01*
Y04154*
X00443Y04155*
X00453Y04161*
X00463Y04169*
X0047Y04178*
X00476Y04189*
X00477Y04192*
G37*
G36*
X01358Y03866D02*
X01351Y03864D01*
X01341Y03855*
X01332Y03845*
X0133Y03838*
X01358*
Y03866*
G37*
G36*
X01425Y03799D02*
X01397D01*
Y03771*
X01404Y03773*
X01414Y03781*
X01423Y03792*
X01425Y03799*
G37*
G36*
X01358D02*
X0133D01*
X01332Y03792*
X01341Y03781*
X01351Y03773*
X01358Y03771*
Y03799*
G37*
G36*
X00439Y0427D02*
Y04232D01*
X00477*
X00476Y04236*
X0047Y04246*
X00463Y04256*
X00453Y04263*
X00443Y04269*
X00439Y0427*
G37*
G36*
X004D02*
X00396Y04269D01*
X00385Y04263*
X00376Y04256*
X00368Y04246*
X00363Y04236*
X00362Y04232*
X004*
Y0427*
G37*
G36*
X01948Y03046D02*
X01942Y03044D01*
X01932Y03036*
X01923Y03025*
X01921Y03019*
X01948*
Y03046*
G37*
G36*
X01988Y03046D02*
Y03019D01*
X02015*
X02013Y03025*
X02005Y03036*
X01994Y03044*
X01988Y03046*
G37*
G36*
X01358Y0239D02*
X01351Y02387D01*
X01341Y02379*
X01332Y02368*
X0133Y02362*
X01358*
Y0239*
G37*
G36*
X00531D02*
Y02362D01*
X00559*
X00557Y02368*
X00548Y02379*
X00537Y02387*
X00531Y0239*
G37*
G36*
X01397D02*
Y02362D01*
X01425*
X01423Y02368*
X01414Y02379*
X01404Y02387*
X01397Y0239*
G37*
G36*
X01948Y02979D02*
X01921D01*
X01923Y02973*
X01932Y02963*
X01942Y02954*
X01948Y02952*
Y02979*
G37*
G36*
X02015D02*
X01988D01*
Y02952*
X01994Y02954*
X02005Y02963*
X02013Y02973*
X02015Y02979*
G37*
G36*
X00492Y0239D02*
X00485Y02387D01*
X00474Y02379*
X00466Y02368*
X00463Y02362*
X00492*
Y0239*
G37*
G36*
X0084Y01555D02*
X00803D01*
Y01518*
X00807Y01519*
X00817Y01525*
X00826Y01532*
X00833Y01541*
X00839Y01552*
X0084Y01555*
G37*
G36*
X00964D02*
X00928D01*
X00929Y01552*
X00934Y01541*
X00942Y01532*
X00951Y01525*
X00961Y01519*
X00964Y01518*
Y01555*
G37*
G36*
X0104D02*
X01003D01*
Y01518*
X01007Y01519*
X01017Y01525*
X01026Y01532*
X01033Y01541*
X01039Y01552*
X0104Y01555*
G37*
G36*
X00964Y0163D02*
X00961Y01629D01*
X00951Y01624*
X00942Y01616*
X00934Y01607*
X00929Y01597*
X00928Y01594*
X00964*
Y0163*
G37*
G36*
X00764D02*
X00761Y01629D01*
X00751Y01624*
X00742Y01616*
X00734Y01607*
X00729Y01597*
X00728Y01594*
X00764*
Y0163*
G37*
G36*
X01989Y01633D02*
X0186D01*
Y01505*
X01864Y01505*
X01886Y0151*
X01908Y01519*
X01928Y01532*
X01946Y01547*
X01962Y01565*
X01974Y01585*
X01983Y01607*
X01988Y0163*
X01989Y01633*
G37*
G36*
X0182D02*
X01692D01*
X01692Y0163*
X01697Y01607*
X01706Y01585*
X01719Y01565*
X01734Y01547*
X01752Y01532*
X01772Y01519*
X01794Y0151*
X01817Y01505*
X0182Y01505*
Y01633*
G37*
G36*
X00764Y01555D02*
X00728D01*
X00729Y01552*
X00734Y01541*
X00742Y01532*
X00751Y01525*
X00761Y01519*
X00764Y01518*
Y01555*
G37*
G36*
X00492Y02322D02*
X00463D01*
X00466Y02316*
X00474Y02305*
X00485Y02297*
X00492Y02294*
Y02322*
G37*
G36*
X01358D02*
X0133D01*
X01332Y02316*
X01341Y02305*
X01351Y02297*
X01358Y02294*
Y02322*
G37*
G36*
X01425D02*
X01397D01*
Y02294*
X01404Y02297*
X01414Y02305*
X01423Y02316*
X01425Y02322*
G37*
G36*
X00559D02*
X00531D01*
Y02294*
X00537Y02297*
X00548Y02305*
X00557Y02316*
X00559Y02322*
G37*
G36*
X01003Y0163D02*
Y01594D01*
X0104*
X01039Y01597*
X01033Y01607*
X01026Y01616*
X01017Y01624*
X01007Y01629*
X01003Y0163*
G37*
G36*
X00803D02*
Y01594D01*
X0084*
X00839Y01597*
X00833Y01607*
X00826Y01616*
X00817Y01624*
X00807Y01629*
X00803Y0163*
G37*
G36*
X0182Y01802D02*
X01817Y01801D01*
X01794Y01796*
X01772Y01787*
X01752Y01775*
X01734Y01759*
X01719Y01741*
X01706Y01721*
X01697Y01699*
X01692Y01677*
X01692Y01673*
X0182*
Y01802*
G37*
G36*
X0186D02*
Y01673D01*
X01989*
X01988Y01677*
X01983Y01699*
X01974Y01721*
X01962Y01741*
X01946Y01759*
X01928Y01775*
X01908Y01787*
X01886Y01796*
X01864Y01801*
X0186Y01802*
G37*
G36*
X01948Y03279D02*
X01921D01*
X01923Y03273*
X01932Y03263*
X01942Y03254*
X01948Y03252*
Y03279*
G37*
G36*
X02015D02*
X01988D01*
Y03252*
X01994Y03254*
X02005Y03263*
X02013Y03273*
X02015Y03279*
G37*
G36*
X01079Y05019D02*
X01043D01*
Y04983*
X01046Y04984*
X01056Y04989*
X01065Y04997*
X01073Y05006*
X01078Y05016*
X01079Y05019*
G37*
G36*
X00879D02*
X00843D01*
Y04983*
X00846Y04984*
X00856Y04989*
X00865Y04997*
X00873Y05006*
X00878Y05016*
X00879Y05019*
G37*
G36*
X00803Y05095D02*
X008Y05094D01*
X0079Y05088*
X00781Y05081*
X00774Y05072*
X00768Y05062*
X00767Y05059*
X00803*
Y05095*
G37*
G36*
X01003D02*
X01Y05094D01*
X0099Y05088*
X00981Y05081*
X00974Y05072*
X00968Y05062*
X00967Y05059*
X01003*
Y05095*
G37*
G36*
Y05019D02*
X00967D01*
X00968Y05016*
X00974Y05006*
X00981Y04997*
X0099Y04989*
X01Y04984*
X01003Y04983*
Y05019*
G37*
G36*
X01702Y04912D02*
X01699Y04912D01*
X01676Y04906*
X01654Y04897*
X01634Y04885*
X01616Y04869*
X01601Y04852*
X01588Y04831*
X01579Y0481*
X01574Y04787*
X01573Y04783*
X01702*
Y04912*
G37*
G36*
X00803Y05019D02*
X00767D01*
X00768Y05016*
X00774Y05006*
X00781Y04997*
X0079Y04989*
X008Y04984*
X00803Y04983*
Y05019*
G37*
G36*
X01742Y04912D02*
Y04783D01*
X01871*
X0187Y04787*
X01865Y0481*
X01856Y04831*
X01843Y04852*
X01828Y04869*
X0181Y04885*
X0179Y04897*
X01768Y04906*
X01745Y04912*
X01742Y04912*
G37*
G36*
X01043Y05095D02*
Y05059D01*
X01079*
X01078Y05062*
X01073Y05072*
X01065Y05081*
X01056Y05088*
X01046Y05094*
X01043Y05095*
G37*
G36*
X00843D02*
Y05059D01*
X00879*
X00878Y05062*
X00873Y05072*
X00865Y05081*
X00856Y05088*
X00846Y05094*
X00843Y05095*
G37*
G36*
X0145Y04192D02*
X01412D01*
X01413Y04189*
X01418Y04178*
X01426Y04169*
X01435Y04161*
X01446Y04155*
X0145Y04154*
Y04192*
G37*
G36*
X01988Y03346D02*
Y03319D01*
X02015*
X02013Y03325*
X02005Y03336*
X01994Y03344*
X01988Y03346*
G37*
G36*
X01948Y03346D02*
X01942Y03344D01*
X01932Y03336*
X01923Y03325*
X01921Y03319*
X01948*
Y03346*
G37*
G36*
X01527Y04192D02*
X01489D01*
Y04154*
X01493Y04155*
X01503Y04161*
X01513Y04169*
X0152Y04178*
X01526Y04189*
X01527Y04192*
G37*
G36*
X01871Y04744D02*
X01742D01*
Y04615*
X01745Y04615*
X01768Y04621*
X0179Y0463*
X0181Y04642*
X01828Y04657*
X01843Y04675*
X01856Y04695*
X01865Y04717*
X0187Y0474*
X01871Y04744*
G37*
G36*
X01702D02*
X01573D01*
X01574Y0474*
X01579Y04717*
X01588Y04695*
X01601Y04675*
X01616Y04657*
X01634Y04642*
X01654Y0463*
X01676Y04621*
X01699Y04615*
X01702Y04615*
Y04744*
G37*
G36*
X01489Y0427D02*
Y04232D01*
X01527*
X01526Y04236*
X0152Y04246*
X01513Y04256*
X01503Y04263*
X01493Y04269*
X01489Y0427*
G37*
G36*
X0145D02*
X01446Y04269D01*
X01435Y04263*
X01426Y04256*
X01418Y04246*
X01413Y04236*
X01412Y04232*
X0145*
Y0427*
G37*
G36*
X04977Y03205D02*
Y03169D01*
X05013*
X05012Y03172*
X05007Y03182*
X04999Y03191*
X0499Y03199*
X0498Y03204*
X04977Y03205*
G37*
G36*
X05137D02*
X05134Y03204D01*
X05124Y03199*
X05115Y03191*
X05107Y03182*
X05102Y03172*
X05101Y03169*
X05137*
Y03205*
G37*
G36*
X05177D02*
Y03169D01*
X05213*
X05212Y03172*
X05207Y03182*
X05199Y03191*
X0519Y03199*
X0518Y03204*
X05177Y03205*
G37*
G36*
X04937D02*
X04934Y03204D01*
X04924Y03199*
X04915Y03191*
X04907Y03182*
X04902Y03172*
X04901Y03169*
X04937*
Y03205*
G37*
G36*
X05137Y03129D02*
X05101D01*
X05102Y03126*
X05107Y03116*
X05115Y03107*
X05124Y031*
X05134Y03094*
X05137Y03093*
Y03129*
G37*
G36*
X04937D02*
X04901D01*
X04902Y03126*
X04907Y03116*
X04915Y03107*
X04924Y031*
X04934Y03094*
X04937Y03093*
Y03129*
G37*
G36*
X05213D02*
X05177D01*
Y03093*
X0518Y03094*
X0519Y031*
X05199Y03107*
X05207Y03116*
X05212Y03126*
X05213Y03129*
G37*
G36*
X05013D02*
X04977D01*
Y03093*
X0498Y03094*
X0499Y031*
X04999Y03107*
X05007Y03116*
X05012Y03126*
X05013Y03129*
G37*
G36*
X04832Y01633D02*
X04703D01*
X04704Y0163*
X04709Y01607*
X04718Y01585*
X04731Y01565*
X04746Y01547*
X04764Y01532*
X04784Y01519*
X04806Y0151*
X04828Y01505*
X04832Y01505*
Y01633*
G37*
G36*
X05D02*
X04872D01*
Y01505*
X04875Y01505*
X04898Y0151*
X0492Y01519*
X0494Y01532*
X04958Y01547*
X04973Y01565*
X04986Y01585*
X04995Y01607*
X05Y0163*
X05Y01633*
G37*
G36*
X04872Y01802D02*
Y01673D01*
X05*
X05Y01677*
X04995Y01699*
X04986Y01721*
X04973Y01741*
X04958Y01759*
X0494Y01775*
X0492Y01787*
X04898Y01796*
X04875Y01801*
X04872Y01802*
G37*
G36*
X04832D02*
X04828Y01801D01*
X04806Y01796*
X04784Y01787*
X04764Y01775*
X04746Y01759*
X04731Y01741*
X04718Y01721*
X04709Y01699*
X04704Y01677*
X04703Y01673*
X04832*
Y01802*
G37*
%LNr100.230.050.001-00_filtr2-3*%
%LPD*%
G54D10*
X01968Y02999D03*
Y03299D03*
G54D11*
X00784Y01574D03*
X00984D03*
X0496Y05472D03*
X0516D03*
X00823Y05039D03*
X01023D03*
X04957Y03149D03*
X05157D03*
G54D12*
X01469Y04212D03*
X00419D03*
X00078Y05984D03*
X05275D03*
G54D13*
X00511Y03818D03*
Y02342D03*
X01378Y03818D03*
Y02342D03*
G54D14*
X03228Y04763D03*
X03346Y01653D03*
G54D15*
X04734Y04763D03*
X01722D03*
X04852Y01653D03*
X0184D03*
G54D16*
X02307Y01834D03*
Y01716D03*
Y01598D03*
Y0148D03*
Y01362D03*
Y01244D03*
X02189Y01834D03*
Y01716D03*
Y01598D03*
Y0148D03*
Y01362D03*
Y01244D03*
X0207Y01834D03*
Y01716D03*
Y01598D03*
Y0148D03*
Y01362D03*
Y01244D03*
X01952Y01834D03*
Y0148D03*
Y01362D03*
Y01244D03*
X01834Y01834D03*
Y0148D03*
Y01362D03*
Y01244D03*
X01716Y01834D03*
Y0148D03*
Y01362D03*
Y01244D03*
X01598Y01834D03*
Y01716D03*
Y01598D03*
Y0148D03*
Y01362D03*
Y01244D03*
X0148Y01834D03*
Y01716D03*
Y01598D03*
Y0148D03*
Y01362D03*
Y01244D03*
X01362Y01834D03*
Y01716D03*
Y01598D03*
Y0148D03*
Y01362D03*
Y01244D03*
X01244Y01834D03*
Y01716D03*
Y01598D03*
Y0148D03*
Y01362D03*
Y01244D03*
X01126Y01834D03*
Y01716D03*
Y01598D03*
Y0148D03*
Y01362D03*
Y01244D03*
X01007Y01834D03*
Y01716D03*
Y0148D03*
Y01362D03*
Y01244D03*
X00889Y01834D03*
Y01716D03*
Y01244D03*
X00771Y01834D03*
Y01716D03*
Y0148D03*
Y01362D03*
Y01244D03*
X00653Y01834D03*
Y01716D03*
Y01598D03*
Y0148D03*
Y01362D03*
Y01244D03*
X00535Y01834D03*
Y01716D03*
Y01598D03*
Y0148D03*
Y01362D03*
Y01244D03*
X00417Y01834D03*
Y01716D03*
Y01598D03*
Y0148D03*
Y01362D03*
Y01244D03*
X00299Y01834D03*
Y01716D03*
Y01598D03*
Y0148D03*
Y01362D03*
Y01244D03*
X01952Y05141D03*
Y05023D03*
Y04905D03*
Y04787D03*
Y04669D03*
Y04551D03*
Y04433D03*
X01834Y05141D03*
Y05023D03*
Y04905D03*
Y04551D03*
Y04433D03*
X01716Y05141D03*
Y05023D03*
Y04551D03*
Y04433D03*
X01598Y05141D03*
Y05023D03*
Y04905D03*
Y04551D03*
Y04433D03*
X0148Y05141D03*
Y05023D03*
Y04905D03*
Y04787D03*
Y04669D03*
Y04551D03*
Y04433D03*
X01126Y05259D03*
Y05141D03*
Y05023D03*
Y04905D03*
Y04787D03*
X01007Y05259D03*
Y05141D03*
Y04905D03*
Y04787D03*
X00889Y05259D03*
Y05141D03*
Y04905D03*
X00771Y05259D03*
Y05141D03*
Y04905D03*
Y04787D03*
X00653Y05259D03*
Y05141D03*
Y05023D03*
Y04905D03*
Y04787D03*
X05259Y03252D03*
Y03133D03*
Y03015D03*
X05141Y0337D03*
Y03252D03*
Y03015D03*
Y02897D03*
X05023Y0337D03*
Y03252D03*
Y03015D03*
Y02897D03*
X04905Y0337D03*
Y03252D03*
Y03015D03*
Y02897D03*
X04787Y0337D03*
Y03252D03*
Y03133D03*
Y03015D03*
Y02897D03*
X04669Y0337D03*
Y03252D03*
Y03133D03*
Y03015D03*
Y02897D03*
X04551Y0337D03*
Y03252D03*
Y03133D03*
Y03015D03*
Y02897D03*
X04433Y03252D03*
Y03133D03*
Y03015D03*
X05236Y01948D03*
Y0183D03*
Y01712D03*
Y01594D03*
Y01476D03*
X05118Y02066D03*
Y01948D03*
Y0183D03*
Y01712D03*
Y01594D03*
Y01476D03*
Y01358D03*
X05Y02066D03*
Y01948D03*
Y01358D03*
X04881Y02066D03*
Y01948D03*
Y01358D03*
X04763Y02066D03*
Y01948D03*
Y01358D03*
X04645Y02066D03*
Y01948D03*
Y01358D03*
X04527Y02066D03*
Y01948D03*
Y0183D03*
Y01712D03*
Y01594D03*
Y01476D03*
Y01358D03*
X04409Y01948D03*
Y0183D03*
Y01712D03*
Y01594D03*
Y01476D03*
X05177Y05629D03*
Y05275D03*
Y05157D03*
Y05039D03*
Y04921D03*
Y04803D03*
Y04685D03*
Y04566D03*
Y04448D03*
X05059Y05629D03*
Y05275D03*
Y05039D03*
Y04921D03*
Y04803D03*
Y04685D03*
Y04566D03*
Y04448D03*
X0494Y05629D03*
Y05275D03*
Y05157D03*
Y05039D03*
Y04921D03*
Y04803D03*
Y04685D03*
Y04566D03*
Y04448D03*
X04822Y05629D03*
Y05511D03*
Y05393D03*
Y05275D03*
Y05157D03*
Y05039D03*
Y04566D03*
Y04448D03*
X04704Y05629D03*
Y05511D03*
Y05393D03*
Y05275D03*
Y05157D03*
Y05039D03*
Y04566D03*
Y04448D03*
X04586Y05629D03*
Y05511D03*
Y05393D03*
Y05275D03*
Y05157D03*
Y05039D03*
Y04566D03*
Y04448D03*
X04468Y05629D03*
Y05511D03*
Y05393D03*
Y05275D03*
Y05157D03*
Y05039D03*
Y04921D03*
Y04803D03*
Y04685D03*
Y04566D03*
Y04448D03*
M02*