G04 Layer_Color=65535*
%FSLAX24Y24*%
%MOIN*%
G70*
G01*
G75*
%ADD19C,0.0050*%
%ADD20C,0.0100*%
%ADD21C,0.0079*%
%ADD22C,0.0197*%
%ADD23C,0.0080*%
%ADD24C,0.0098*%
%ADD25C,0.0059*%
%ADD26R,0.8071X0.3150*%
D19*
X53969Y53928D02*
G03*
X53969Y55128I0J600D01*
G01*
X49969D02*
G03*
X49969Y53928I0J-600D01*
G01*
X53969D01*
X49969Y55128D02*
X53969D01*
D20*
X61417Y18307D02*
G03*
X61417Y18307I-17717J0D01*
G01*
X35827Y43110D02*
G03*
X35827Y43110I-17717J0D01*
G01*
X36457Y37264D02*
X40157D01*
Y41083D01*
X36457D02*
X40157D01*
X36457Y37264D02*
Y41083D01*
X36535Y41398D02*
X40236D01*
Y45217D01*
X36535D02*
X40236D01*
X36535Y41398D02*
Y45217D01*
Y45532D02*
X40236D01*
Y49350D01*
X36535D02*
X40236D01*
X36535Y45532D02*
Y49350D01*
Y49665D02*
X40236D01*
Y53484D01*
X36535D02*
X40236D01*
X36535Y49665D02*
Y53484D01*
X59449Y45472D02*
Y53346D01*
X43110Y45472D02*
X59449D01*
X43110D02*
Y49212D01*
Y53346D01*
X59449D01*
X43110Y37008D02*
Y44882D01*
X59449D01*
Y41142D02*
Y44882D01*
Y37008D02*
Y41142D01*
X43110Y37008D02*
X59449D01*
D21*
X48583Y56122D02*
Y57657D01*
X50630Y56122D02*
Y57657D01*
X55157Y56122D02*
Y57657D01*
X53110Y56122D02*
Y57657D01*
D22*
X40226Y39173D02*
X41654D01*
X40305Y43307D02*
X41732D01*
X40305Y47441D02*
X41732D01*
X40305Y51575D02*
X41732D01*
D23*
X6258Y17117D02*
X9458D01*
Y18317D01*
X6258D02*
X9458D01*
X6258Y17117D02*
Y18317D01*
X45482Y54880D02*
Y58080D01*
X44282D02*
X45482D01*
X44282Y54880D02*
Y58080D01*
Y54880D02*
X45482D01*
X18298Y3534D02*
Y6734D01*
Y3534D02*
X19498D01*
Y6734D01*
X18298D02*
X19498D01*
X57834Y54802D02*
Y58002D01*
Y54802D02*
X59034D01*
Y58002D01*
X57834D02*
X59034D01*
X50353Y59439D02*
X53553D01*
Y60639D01*
X50353D02*
X53553D01*
X50353Y59439D02*
Y60639D01*
D24*
X8021Y5024D02*
X8415D01*
Y5319D01*
X8218D01*
X8415D01*
Y5614D01*
X7825D02*
X7628D01*
X7726D01*
Y5221D01*
X7825D01*
X7333Y5614D02*
X7136D01*
X7234D01*
Y5024D01*
X7333D01*
X6742Y5122D02*
Y5221D01*
X6841D01*
X6644D01*
X6742D01*
Y5516D01*
X6644Y5614D01*
X6349Y5221D02*
Y5614D01*
Y5418D01*
X6250Y5319D01*
X6152Y5221D01*
X6053D01*
X5758Y5614D02*
X5561D01*
X5660D01*
Y5024D01*
X5758Y5122D01*
X12301Y6811D02*
Y6221D01*
X12006D01*
X11908Y6319D01*
Y6516D01*
X12006Y6614D01*
X12301D01*
X12105D02*
X11908Y6811D01*
X11711D02*
X11514D01*
X11613D01*
Y6221D01*
X11711Y6319D01*
X11219D02*
X11121Y6221D01*
X10924D01*
X10826Y6319D01*
Y6713D01*
X10924Y6811D01*
X11121D01*
X11219Y6713D01*
Y6319D01*
X10629D02*
X10530Y6221D01*
X10334D01*
X10235Y6319D01*
Y6713D01*
X10334Y6811D01*
X10530D01*
X10629Y6713D01*
Y6319D01*
X10038Y6811D02*
Y6713D01*
X9940D01*
Y6811D01*
X10038D01*
X9153D02*
X9546D01*
X9153Y6417D01*
Y6319D01*
X9251Y6221D01*
X9448D01*
X9546Y6319D01*
X8956D02*
X8858Y6221D01*
X8661D01*
X8562Y6319D01*
Y6417D01*
X8661Y6516D01*
X8759D01*
X8661D01*
X8562Y6614D01*
Y6713D01*
X8661Y6811D01*
X8858D01*
X8956Y6713D01*
X8366Y6319D02*
X8267Y6221D01*
X8071D01*
X7972Y6319D01*
Y6713D01*
X8071Y6811D01*
X8267D01*
X8366Y6713D01*
Y6319D01*
X7775Y6811D02*
Y6713D01*
X7677D01*
Y6811D01*
X7775D01*
X7283Y6319D02*
X7185Y6221D01*
X6988D01*
X6890Y6319D01*
Y6713D01*
X6988Y6811D01*
X7185D01*
X7283Y6713D01*
Y6319D01*
X6398Y6811D02*
Y6221D01*
X6693Y6516D01*
X6299D01*
X6103Y6319D02*
X6004Y6221D01*
X5807D01*
X5709Y6319D01*
Y6713D01*
X5807Y6811D01*
X6004D01*
X6103Y6713D01*
Y6319D01*
X5512Y6811D02*
Y6713D01*
X5414D01*
Y6811D01*
X5512D01*
X5020Y6319D02*
X4922Y6221D01*
X4725D01*
X4627Y6319D01*
Y6713D01*
X4725Y6811D01*
X4922D01*
X5020Y6713D01*
Y6319D01*
X4430D02*
X4332Y6221D01*
X4135D01*
X4036Y6319D01*
Y6713D01*
X4135Y6811D01*
X4332D01*
X4430Y6713D01*
Y6319D01*
X3840D02*
X3741Y6221D01*
X3544D01*
X3446Y6319D01*
Y6713D01*
X3544Y6811D01*
X3741D01*
X3840Y6713D01*
Y6319D01*
X3249Y6516D02*
X2856D01*
X2659Y6319D02*
X2560Y6221D01*
X2364D01*
X2265Y6319D01*
Y6713D01*
X2364Y6811D01*
X2560D01*
X2659Y6713D01*
Y6319D01*
X2069D02*
X1970Y6221D01*
X1773D01*
X1675Y6319D01*
Y6713D01*
X1773Y6811D01*
X1970D01*
X2069Y6713D01*
Y6319D01*
X11416Y3839D02*
X11613D01*
X11711Y3937D01*
Y4331D01*
X11613Y4429D01*
X11416D01*
X11317Y4331D01*
Y3937D01*
X11416Y3839D01*
X11121D02*
Y4429D01*
X10727D01*
X10530Y3839D02*
X10137D01*
X10334D01*
Y4429D01*
X9546Y3839D02*
X9940D01*
Y4429D01*
X9546D01*
X9940Y4134D02*
X9743D01*
X8956Y3937D02*
X9054Y3839D01*
X9251D01*
X9350Y3937D01*
Y4035D01*
X9251Y4134D01*
X9054D01*
X8956Y4232D01*
Y4331D01*
X9054Y4429D01*
X9251D01*
X9350Y4331D01*
X8759Y3839D02*
X8366D01*
X8562D01*
Y4429D01*
X7579D02*
X7382D01*
X7480D01*
Y3839D01*
X7579Y3937D01*
X6693Y3839D02*
X7087D01*
Y4134D01*
X6890Y4035D01*
X6791D01*
X6693Y4134D01*
Y4331D01*
X6791Y4429D01*
X6988D01*
X7087Y4331D01*
X6496Y4429D02*
Y4331D01*
X6398D01*
Y4429D01*
X6496D01*
X6004Y3937D02*
X5906Y3839D01*
X5709D01*
X5611Y3937D01*
Y4331D01*
X5709Y4429D01*
X5906D01*
X6004Y4331D01*
Y3937D01*
X5119Y4429D02*
Y3839D01*
X5414Y4134D01*
X5020D01*
X4824Y4429D02*
Y4331D01*
X4725D01*
Y4429D01*
X4824D01*
X3938D02*
X4332D01*
X3938Y4035D01*
Y3937D01*
X4036Y3839D01*
X4233D01*
X4332Y3937D01*
X3741D02*
X3643Y3839D01*
X3446D01*
X3348Y3937D01*
Y4331D01*
X3446Y4429D01*
X3643D01*
X3741Y4331D01*
Y3937D01*
X3151Y4429D02*
X2954D01*
X3052D01*
Y3839D01*
X3151Y3937D01*
X2659Y4331D02*
X2560Y4429D01*
X2364D01*
X2265Y4331D01*
Y3937D01*
X2364Y3839D01*
X2560D01*
X2659Y3937D01*
Y4035D01*
X2560Y4134D01*
X2265D01*
D25*
X19626Y860D02*
X19495D01*
X19560D01*
Y1253D01*
X19626D01*
X19495D01*
X19298D02*
Y991D01*
X19101D01*
X19036Y1057D01*
Y1253D01*
X18904Y1319D02*
X18642D01*
X18248Y1253D02*
X18511D01*
X18248Y991D01*
Y925D01*
X18314Y860D01*
X18445D01*
X18511Y925D01*
X8602Y20348D02*
X8471D01*
X8537D01*
Y20741D01*
X8602D01*
X8471D01*
X8274D02*
Y20479D01*
X8078D01*
X8012Y20545D01*
Y20741D01*
X7881Y20807D02*
X7618D01*
X7487Y20741D02*
X7356D01*
X7422D01*
Y20348D01*
X7487Y20414D01*
X41870Y56765D02*
X42001D01*
X42067Y56831D01*
Y57093D01*
X42001Y57159D01*
X41870D01*
X41805Y57093D01*
Y56831D01*
X41870Y56765D01*
X41673Y56896D02*
Y57093D01*
X41608Y57159D01*
X41411D01*
Y56896D01*
X41214Y56831D02*
Y56896D01*
X41280D01*
X41149D01*
X41214D01*
Y57093D01*
X41149Y57159D01*
X40952Y57224D02*
X40689D01*
X40558Y56831D02*
X40493Y56765D01*
X40361D01*
X40296Y56831D01*
Y56896D01*
X40361Y56962D01*
X40427D01*
X40361D01*
X40296Y57028D01*
Y57093D01*
X40361Y57159D01*
X40493D01*
X40558Y57093D01*
X60702Y54783D02*
Y54652D01*
X60768Y54587D01*
X61030D01*
X61096Y54652D01*
Y54783D01*
X61030Y54849D01*
X60768D01*
X60702Y54783D01*
X60833Y54980D02*
X61030D01*
X61096Y55046D01*
Y55243D01*
X60833D01*
X60768Y55439D02*
X60833D01*
Y55374D01*
Y55505D01*
Y55439D01*
X61030D01*
X61096Y55505D01*
X61161Y55702D02*
Y55964D01*
X61096Y56292D02*
X60702D01*
X60899Y56095D01*
Y56358D01*
X48694Y60046D02*
X48760Y59980D01*
X48891D01*
X48957Y60046D01*
Y60308D01*
X48891Y60374D01*
X48760D01*
X48694Y60308D01*
Y60177D01*
X48825D01*
X48563Y60374D02*
Y59980D01*
X48301Y60374D01*
Y59980D01*
X48170D02*
Y60374D01*
X47973D01*
X47907Y60308D01*
Y60046D01*
X47973Y59980D01*
X48170D01*
X3150Y56102D02*
Y56496D01*
X2887D01*
X2756D02*
X2625D01*
X2690D01*
Y56102D01*
X2756Y56168D01*
X52362Y57677D02*
X52100Y58071D01*
Y57677D02*
X52362Y58071D01*
X51706Y57677D02*
X51969D01*
Y57874D01*
X51837Y57808D01*
X51772D01*
X51706Y57874D01*
Y58005D01*
X51772Y58071D01*
X51903D01*
X51969Y58005D01*
X58858Y59055D02*
X58596Y59449D01*
Y59055D02*
X58858Y59449D01*
X58268D02*
Y59055D01*
X58465Y59252D01*
X58202D01*
X15551Y4725D02*
X15289Y5118D01*
Y4725D02*
X15551Y5118D01*
X15158Y4790D02*
X15092Y4725D01*
X14961D01*
X14895Y4790D01*
Y4856D01*
X14961Y4921D01*
X15026D01*
X14961D01*
X14895Y4987D01*
Y5053D01*
X14961Y5118D01*
X15092D01*
X15158Y5053D01*
X45472Y59055D02*
X45210Y59449D01*
Y59055D02*
X45472Y59449D01*
X44816D02*
X45079D01*
X44816Y59186D01*
Y59121D01*
X44882Y59055D01*
X45013D01*
X45079Y59121D01*
X41535Y50984D02*
Y50591D01*
X41339D01*
X41273Y50656D01*
Y50787D01*
X41339Y50853D01*
X41535D01*
X41404D02*
X41273Y50984D01*
X41142D02*
X41011D01*
X41076D01*
Y50591D01*
X41142Y50656D01*
X41535Y46850D02*
Y46457D01*
X41339D01*
X41273Y46522D01*
Y46654D01*
X41339Y46719D01*
X41535D01*
X41404D02*
X41273Y46850D01*
X40879D02*
X41142D01*
X40879Y46588D01*
Y46522D01*
X40945Y46457D01*
X41076D01*
X41142Y46522D01*
X55643Y58924D02*
X55709Y58858D01*
X55840D01*
X55906Y58924D01*
Y59186D01*
X55840Y59252D01*
X55709D01*
X55643Y59186D01*
X55250Y58858D02*
X55512D01*
Y59055D01*
X55381Y58990D01*
X55315D01*
X55250Y59055D01*
Y59186D01*
X55315Y59252D01*
X55446D01*
X55512Y59186D01*
X42257Y44948D02*
X42323Y44882D01*
X42454D01*
X42520Y44948D01*
Y45210D01*
X42454Y45276D01*
X42323D01*
X42257Y45210D01*
X41929Y45276D02*
Y44882D01*
X42126Y45079D01*
X41864D01*
X42257Y52822D02*
X42323Y52756D01*
X42454D01*
X42520Y52822D01*
Y53084D01*
X42454Y53150D01*
X42323D01*
X42257Y53084D01*
X42126Y52822D02*
X42061Y52756D01*
X41929D01*
X41864Y52822D01*
Y52887D01*
X41929Y52953D01*
X41995D01*
X41929D01*
X41864Y53018D01*
Y53084D01*
X41929Y53150D01*
X42061D01*
X42126Y53084D01*
X48557Y54396D02*
X48622Y54331D01*
X48753D01*
X48819Y54396D01*
Y54659D01*
X48753Y54724D01*
X48622D01*
X48557Y54659D01*
X48163Y54724D02*
X48425D01*
X48163Y54462D01*
Y54396D01*
X48229Y54331D01*
X48360D01*
X48425Y54396D01*
X48360Y58924D02*
X48425Y58858D01*
X48556D01*
X48622Y58924D01*
Y59186D01*
X48556Y59252D01*
X48425D01*
X48360Y59186D01*
X48228Y59252D02*
X48097D01*
X48163D01*
Y58858D01*
X48228Y58924D01*
X7874Y14173D02*
X7612Y14567D01*
Y14173D02*
X7874Y14567D01*
X7480D02*
X7349D01*
X7415D01*
Y14173D01*
X7480Y14239D01*
X41535Y42717D02*
Y42323D01*
X41339D01*
X41273Y42389D01*
Y42520D01*
X41339Y42585D01*
X41535D01*
X41404D02*
X41273Y42717D01*
X41142Y42389D02*
X41076Y42323D01*
X40945D01*
X40879Y42389D01*
Y42454D01*
X40945Y42520D01*
X41011D01*
X40945D01*
X40879Y42585D01*
Y42651D01*
X40945Y42717D01*
X41076D01*
X41142Y42651D01*
X41535Y38583D02*
Y38189D01*
X41339D01*
X41273Y38255D01*
Y38386D01*
X41339Y38451D01*
X41535D01*
X41404D02*
X41273Y38583D01*
X40945D02*
Y38189D01*
X41142Y38386D01*
X40879D01*
X24213Y15945D02*
Y16339D01*
X23950D01*
X23557D02*
X23819D01*
X23557Y16076D01*
Y16011D01*
X23622Y15945D01*
X23753D01*
X23819Y16011D01*
D26*
X6988Y9449D02*
D03*
M02*
