G04 Layer_Physical_Order=1*
G04 Layer_Color=255*
%FSLAX44Y44*%
%MOMM*%
G71*
G01*
G75*
%ADD10R,1.7500X1.1000*%
%ADD11O,0.6000X1.5500*%
%ADD12R,0.6000X1.5500*%
%ADD13R,2.0000X1.5500*%
%ADD14R,1.5500X2.0000*%
%ADD15R,3.3000X2.7000*%
%ADD16R,1.0000X2.7000*%
%ADD17R,2.1844X2.5970*%
%ADD18R,1.0000X1.1000*%
%ADD19R,1.1000X1.0000*%
%ADD20R,1.1500X2.8000*%
%ADD21R,1.0500X0.8000*%
%ADD22R,1.5000X0.9000*%
%ADD23R,1.1000X1.8500*%
%ADD24R,0.6000X1.4500*%
%ADD25O,0.6000X1.4500*%
%ADD26C,0.5000*%
%ADD27C,0.7500*%
%ADD28C,1.0000*%
%ADD29C,2.0566*%
%ADD30R,2.0566X2.0566*%
%ADD31C,1.3600*%
%ADD32R,1.3600X1.3600*%
%ADD33C,2.5000*%
%ADD34R,2.5000X2.5000*%
%ADD35C,1.2192*%
%ADD36R,1.2192X1.2192*%
%ADD37R,2.3000X2.3000*%
%ADD38C,2.3000*%
%ADD39R,3.5000X3.5000*%
%ADD40C,3.5000*%
%ADD41C,5.1000*%
%ADD42C,2.0320*%
%ADD43C,2.4130*%
%ADD44C,0.9000*%
%ADD45C,1.2000*%
G36*
X1480000Y1800000D02*
X1545000Y1800000D01*
X1545000Y1799999D01*
X1545000Y1800000D01*
X1546478Y1800000D01*
X1549375Y1799423D01*
X1552105Y1798292D01*
X1554562Y1796651D01*
X1556651Y1794562D01*
X1558293Y1792105D01*
X1559423Y1789375D01*
X1560000Y1786478D01*
Y1785000D01*
X1560000Y1335000D01*
X1560000Y1335000D01*
X1560000Y1333522D01*
X1559423Y1330624D01*
X1558293Y1327895D01*
X1556651Y1325438D01*
X1554562Y1323349D01*
X1552105Y1321707D01*
X1549375Y1320576D01*
X1546477Y1320000D01*
X1545000Y1320000D01*
X1480000Y1320000D01*
X1480000Y1320000D01*
X1478522Y1320000D01*
X1475625Y1320576D01*
X1472895Y1321707D01*
X1470438Y1323349D01*
X1468349Y1325438D01*
X1466707Y1327895D01*
X1465576Y1330625D01*
X1465000Y1333523D01*
Y1335000D01*
X1465000Y1783804D01*
X1465000Y1785000D01*
X1465000Y1785000D01*
X1465000Y1785000D01*
X1465000Y1786477D01*
X1465576Y1789375D01*
X1466707Y1792105D01*
X1468349Y1794562D01*
X1470438Y1796651D01*
X1472895Y1798293D01*
X1475625Y1799424D01*
X1478522Y1800000D01*
X1480000Y1800000D01*
D02*
G37*
G36*
X362500Y1337500D02*
X363977D01*
X366875Y1336924D01*
X369605Y1335793D01*
X372062Y1334151D01*
X374151Y1332062D01*
X375793Y1329605D01*
X376923Y1326875D01*
X377500Y1323977D01*
Y1322500D01*
X377500D01*
X377500Y1322500D01*
X377500Y1140000D01*
X377500Y1138522D01*
X376923Y1135624D01*
X375793Y1132895D01*
X374151Y1130438D01*
X372062Y1128349D01*
X369605Y1126707D01*
X366875Y1125576D01*
X363977Y1125000D01*
X362500Y1125000D01*
X362500Y1125000D01*
Y1125000D01*
X242500Y1125000D01*
X241023Y1125000D01*
X238125Y1125576D01*
X235395Y1126707D01*
X232938Y1128349D01*
X230849Y1130438D01*
X229207Y1132895D01*
X228076Y1135624D01*
X227500Y1138522D01*
Y1140000D01*
X227500Y1140000D01*
X227500Y1322500D01*
X227500Y1323977D01*
X228076Y1326875D01*
X229207Y1329605D01*
X230849Y1332062D01*
X232938Y1334151D01*
X235395Y1335793D01*
X238125Y1336924D01*
X241022Y1337500D01*
X242500Y1337500D01*
X242500Y1337500D01*
X362500Y1337500D01*
D02*
G37*
G36*
X492500Y545000D02*
X492500Y545000D01*
X492500Y545000D01*
X493977Y545000D01*
X496875Y544423D01*
X499605Y543293D01*
X502062Y541651D01*
X504151Y539562D01*
X505793Y537105D01*
X506923Y534375D01*
X507500Y531477D01*
X507500Y507500D01*
X540039D01*
X541023Y507403D01*
X541023Y507403D01*
X541023Y507403D01*
X542501Y507403D01*
X576962Y507403D01*
X579375Y506923D01*
X582105Y505793D01*
X584562Y504151D01*
X586651Y502062D01*
X588293Y499605D01*
X589423Y496875D01*
X589903Y494464D01*
X589903Y440537D01*
X589423Y438124D01*
X588293Y435395D01*
X586651Y432938D01*
X584562Y430849D01*
X582105Y429207D01*
X579375Y428076D01*
X576965Y427597D01*
X465536Y427597D01*
X463125Y428076D01*
X460395Y429207D01*
X457938Y430849D01*
X455849Y432938D01*
X454207Y435395D01*
X453076Y438125D01*
X452500Y441023D01*
X452500Y442500D01*
X452500Y530000D01*
X452500Y530000D01*
X452500Y530000D01*
X452500Y531477D01*
X453076Y534375D01*
X454207Y537105D01*
X455849Y539562D01*
X457938Y541651D01*
X460395Y543293D01*
X463125Y544423D01*
X466023Y545000D01*
X467500D01*
X492500Y545000D01*
D02*
G37*
G36*
X1270000Y1310000D02*
X1271477Y1310000D01*
X1274375Y1309423D01*
X1277105Y1308293D01*
X1279562Y1306651D01*
X1281651Y1304562D01*
X1283293Y1302105D01*
X1284423Y1299375D01*
X1285000Y1296477D01*
X1285000Y1295000D01*
X1285000Y1295000D01*
X1285000Y1295000D01*
X1285000Y1195000D01*
Y1193523D01*
X1284424Y1190625D01*
X1283293Y1187895D01*
X1281651Y1185438D01*
X1279562Y1183349D01*
X1277105Y1181707D01*
X1274375Y1180576D01*
X1271477Y1180000D01*
X1270000D01*
X1152500Y1180000D01*
X1151022D01*
X1148125Y1180576D01*
X1145395Y1181707D01*
X1142938Y1183349D01*
X1140849Y1185438D01*
X1139207Y1187895D01*
X1138076Y1190625D01*
X1137500Y1193523D01*
X1137500Y1195000D01*
X1137500Y1195000D01*
X1137500Y1295000D01*
X1137500Y1296477D01*
X1138076Y1299375D01*
X1139207Y1302105D01*
X1140849Y1304562D01*
X1142938Y1306651D01*
X1145395Y1308293D01*
X1148124Y1309423D01*
X1151022Y1310000D01*
X1152500Y1310000D01*
X1152500Y1310000D01*
X1270000Y1310000D01*
D02*
G37*
G36*
X1132500Y887500D02*
X1055000D01*
Y907500D01*
X997500D01*
Y903750D01*
X995000D01*
Y887500D01*
X952597D01*
Y915097D01*
X990000Y952500D01*
X995525D01*
X996506Y952403D01*
X996506D01*
X996506D01*
X1042499D01*
X1043238Y952403D01*
X1043238Y952403D01*
X1043239Y952403D01*
X1044221Y952500D01*
X1070000Y952500D01*
Y970000D01*
X1132500D01*
Y887500D01*
D02*
G37*
G36*
X1370000Y2025000D02*
X1480000Y2025000D01*
X1480000Y2025000D01*
X1480000Y2025000D01*
X1482216Y2025000D01*
X1486564Y2024136D01*
X1490659Y2022440D01*
X1494344Y2019978D01*
X1497478Y2016844D01*
X1499940Y2013159D01*
X1501636Y2009063D01*
X1502500Y2004716D01*
X1502500Y2002500D01*
X1502500Y1827500D01*
X1502500Y1827500D01*
Y1826269D01*
X1502019Y1823854D01*
X1501077Y1821579D01*
X1499709Y1819532D01*
X1497968Y1817791D01*
X1495921Y1816423D01*
X1493646Y1815480D01*
X1491231Y1815000D01*
X1462500Y1815000D01*
X1462500Y1815000D01*
X1461520Y1814952D01*
X1459597Y1814569D01*
X1457786Y1813819D01*
X1456156Y1812730D01*
X1454770Y1811344D01*
X1453681Y1809714D01*
X1452931Y1807903D01*
X1452548Y1805980D01*
X1452500Y1805000D01*
X1452500Y1802500D01*
X1452500Y1690000D01*
X1452500Y1690000D01*
X1452500Y1688522D01*
X1451923Y1685625D01*
X1450793Y1682895D01*
X1449151Y1680438D01*
X1447062Y1678349D01*
X1444605Y1676707D01*
X1441875Y1675576D01*
X1438977Y1675000D01*
X1437500Y1675000D01*
X1322500Y1675000D01*
X1322500Y1675000D01*
X1321029Y1674928D01*
X1318145Y1674354D01*
X1315429Y1673229D01*
X1312984Y1671595D01*
X1310905Y1669516D01*
X1309271Y1667071D01*
X1308146Y1664355D01*
X1307572Y1661471D01*
X1307500Y1660000D01*
X1307500Y1457500D01*
X1307584Y1455784D01*
X1308253Y1452419D01*
X1309566Y1449250D01*
X1311472Y1446397D01*
X1313898Y1443972D01*
X1316750Y1442066D01*
X1319920Y1440753D01*
X1323284Y1440084D01*
X1325000Y1440000D01*
X1440000Y1440000D01*
X1440000Y1440000D01*
X1440000Y1440000D01*
X1441231Y1440000D01*
X1443646Y1439520D01*
X1445922Y1438578D01*
X1447969Y1437210D01*
X1449710Y1435469D01*
X1451078Y1433421D01*
X1452020Y1431146D01*
X1452500Y1428731D01*
X1452500Y1427500D01*
X1452500Y1237500D01*
X1452584Y1235784D01*
X1453252Y1232419D01*
X1454565Y1229249D01*
X1456471Y1226397D01*
X1458897Y1223971D01*
X1461750Y1222065D01*
X1464919Y1220752D01*
X1468285Y1220084D01*
X1470000Y1220000D01*
X1470000Y1220000D01*
X1470000Y1220000D01*
X1472462Y1220001D01*
X1477293Y1219041D01*
X1481844Y1217157D01*
X1485939Y1214421D01*
X1489422Y1210939D01*
X1492157Y1206844D01*
X1494041Y1202293D01*
X1495001Y1197463D01*
X1495000Y1195000D01*
X1495000Y1185000D01*
X1495000Y919986D01*
X1495000Y919986D01*
Y918472D01*
X1494408Y915503D01*
X1493248Y912706D01*
X1491564Y910190D01*
X1489422Y908051D01*
X1486902Y906372D01*
X1484104Y905217D01*
X1481133Y904631D01*
X1479619Y904634D01*
X1184805Y905181D01*
X1183592Y905183D01*
X1181214Y905660D01*
X1178974Y906591D01*
X1176959Y907941D01*
X1175245Y909658D01*
X1173899Y911676D01*
X1172972Y913917D01*
X1172500Y916296D01*
X1172500Y917509D01*
X1172500Y1010000D01*
X1172500Y1010000D01*
X1172500D01*
X1172500Y1011232D01*
X1172979Y1013647D01*
X1173921Y1015922D01*
X1175289Y1017970D01*
X1177030Y1019712D01*
X1179078Y1021080D01*
X1181354Y1022021D01*
X1183769Y1022501D01*
X1185001Y1022501D01*
X1291229Y1022500D01*
X1292499Y1022500D01*
Y1022500D01*
X1293970Y1022571D01*
X1296855Y1023144D01*
X1299572Y1024269D01*
X1302017Y1025903D01*
X1304097Y1027982D01*
X1305730Y1030428D01*
X1306855Y1033145D01*
X1307428Y1036030D01*
X1307500Y1037500D01*
X1307500Y1317500D01*
X1307500Y1317500D01*
X1307500Y1317500D01*
X1307428Y1318970D01*
X1306855Y1321855D01*
X1305730Y1324572D01*
X1304096Y1327017D01*
X1302017Y1329096D01*
X1299572Y1330730D01*
X1296855Y1331855D01*
X1293970Y1332428D01*
X1292500Y1332500D01*
X1192500Y1332500D01*
X1191022Y1332500D01*
X1188124Y1333076D01*
X1185394Y1334207D01*
X1182937Y1335848D01*
X1180848Y1337938D01*
X1179207Y1340394D01*
X1178076Y1343125D01*
X1177500Y1346023D01*
X1177500Y1347500D01*
X1177500Y1652502D01*
X1177500Y1652502D01*
X1177500Y1652502D01*
X1177428Y1653972D01*
X1176855Y1656856D01*
X1175730Y1659572D01*
X1174097Y1662017D01*
X1172017Y1664096D01*
X1169573Y1665730D01*
X1166856Y1666855D01*
X1163972Y1667428D01*
X1162502Y1667500D01*
X375000Y1667500D01*
X375000Y1667500D01*
X373530Y1667428D01*
X370646Y1666854D01*
X367929Y1665729D01*
X365484Y1664095D01*
X363405Y1662016D01*
X361771Y1659571D01*
X360646Y1656854D01*
X360072Y1653970D01*
X360000Y1652500D01*
Y1455000D01*
X360000Y1455000D01*
X360000Y1453522D01*
X359423Y1450624D01*
X358293Y1447895D01*
X356651Y1445438D01*
X354562Y1443349D01*
X352105Y1441707D01*
X349375Y1440576D01*
X346477Y1440000D01*
X345000Y1440000D01*
X215000Y1440000D01*
X214999Y1439999D01*
X213529Y1439927D01*
X210645Y1439353D01*
X207929Y1438228D01*
X205484Y1436595D01*
X203405Y1434515D01*
X201771Y1432071D01*
X200646Y1429354D01*
X200072Y1426470D01*
X200000Y1425000D01*
X200000Y1087514D01*
X200118Y1083916D01*
X201057Y1076781D01*
X202919Y1069830D01*
X205673Y1063182D01*
X209271Y1056950D01*
X213652Y1051240D01*
X218741Y1046152D01*
X224450Y1041771D01*
X230682Y1038173D01*
X237330Y1035419D01*
X244282Y1033557D01*
X251416Y1032618D01*
X255014Y1032500D01*
X385000Y1032500D01*
X385000Y1032500D01*
X385000Y1032500D01*
X386477Y1032500D01*
X389375Y1031924D01*
X392105Y1030794D01*
X394562Y1029152D01*
X396652Y1027063D01*
X398293Y1024606D01*
X399424Y1021876D01*
X400000Y1018978D01*
X400000Y1017500D01*
X400000Y917501D01*
X400000Y917501D01*
X400000Y916024D01*
X399424Y913127D01*
X398294Y910399D01*
X396653Y907943D01*
X394565Y905855D01*
X392109Y904214D01*
X389381Y903083D01*
X386484Y902507D01*
X385007Y902507D01*
X240002Y902499D01*
X92499Y902501D01*
X88730D01*
X81257Y903484D01*
X73977Y905435D01*
X67013Y908320D01*
X60486Y912089D01*
X54506Y916677D01*
X49176Y922007D01*
X44587Y927987D01*
X40819Y934514D01*
X37935Y941478D01*
X35984Y948759D01*
X35000Y956232D01*
X35000Y960001D01*
X35000Y1958804D01*
X35000Y1960000D01*
X35000Y1960000D01*
X35000Y1960000D01*
X35000Y1960000D01*
X35000Y1961477D01*
X35576Y1964375D01*
X36706Y1967106D01*
X38348Y1969563D01*
X40437Y1971652D01*
X42894Y1973294D01*
X45624Y1974424D01*
X48523Y1975000D01*
X50000Y1975000D01*
X185000Y1975000D01*
X185000Y1975000D01*
X185000Y1975000D01*
X186477Y1975000D01*
X189375Y1974424D01*
X192105Y1973293D01*
X194562Y1971652D01*
X196652Y1969562D01*
X198293Y1967105D01*
X199424Y1964375D01*
X200000Y1961477D01*
X200000Y1960000D01*
X200000Y1812499D01*
X200084Y1810783D01*
X200753Y1807419D01*
X202066Y1804249D01*
X203972Y1801397D01*
X206398Y1798971D01*
X209251Y1797065D01*
X212420Y1795753D01*
X215785Y1795084D01*
X217500Y1795000D01*
X346290Y1795000D01*
X347500Y1795000D01*
X347500Y1795000D01*
X348725Y1795060D01*
X351129Y1795538D01*
X353393Y1796476D01*
X355430Y1797838D01*
X357163Y1799570D01*
X358524Y1801608D01*
X359462Y1803871D01*
X359940Y1806275D01*
X360000Y1807500D01*
X360000Y1811304D01*
X360000Y1812500D01*
X360000Y1812500D01*
X360000Y1812500D01*
X360000Y1812500D01*
X360000Y1813977D01*
X360576Y1816875D01*
X361707Y1819605D01*
X363348Y1822062D01*
X365438Y1824151D01*
X367895Y1825793D01*
X370624Y1826924D01*
X373522Y1827500D01*
X375000Y1827500D01*
X912500Y1827500D01*
X912500Y1827500D01*
Y1827500D01*
X913970Y1827572D01*
X916854Y1828146D01*
X919571Y1829271D01*
X922016Y1830905D01*
X924095Y1832984D01*
X925729Y1835429D01*
X926854Y1838146D01*
X927428Y1841030D01*
X927500Y1842500D01*
X927500Y1892500D01*
X927500Y1892500D01*
X927500Y1892500D01*
X927552Y1893748D01*
X927884Y1895417D01*
X928638Y1897237D01*
X929733Y1898875D01*
X931125Y1900267D01*
X932763Y1901362D01*
X934583Y1902116D01*
X936515Y1902500D01*
X962500Y1902500D01*
X962500Y1902500D01*
X962500Y1902500D01*
X962501D01*
X963670Y1902414D01*
X964688Y1902212D01*
X966052Y1901646D01*
X967281Y1900825D01*
X968326Y1899781D01*
X969146Y1898552D01*
X969712Y1897188D01*
X970000Y1895739D01*
X970000Y1842500D01*
X970072Y1841030D01*
X970646Y1838146D01*
X971771Y1835429D01*
X973405Y1832984D01*
X975484Y1830905D01*
X977929Y1829271D01*
X980646Y1828146D01*
X983530Y1827572D01*
X985000Y1827500D01*
X1331227Y1827500D01*
X1332497Y1827500D01*
X1332500Y1827500D01*
Y1827500D01*
X1333968Y1827572D01*
X1336853Y1828144D01*
X1339570Y1829269D01*
X1342016Y1830902D01*
X1344096Y1832982D01*
X1345730Y1835427D01*
X1346855Y1838145D01*
X1347428Y1841030D01*
X1347500Y1842500D01*
X1347500Y2001300D01*
X1347500Y2002496D01*
X1347500Y2002497D01*
X1347500Y2002497D01*
X1347499Y2004713D01*
X1348363Y2009061D01*
X1350058Y2013156D01*
X1352520Y2016842D01*
X1355654Y2019977D01*
X1359340Y2022440D01*
X1363436Y2024136D01*
X1367783Y2025000D01*
X1370000Y2025000D01*
D02*
G37*
G36*
X240000Y1967500D02*
X327500Y1967500D01*
X327500Y1967500D01*
X327500Y1967500D01*
X328977Y1967500D01*
X331875Y1966924D01*
X334605Y1965793D01*
X337062Y1964151D01*
X339151Y1962062D01*
X340793Y1959605D01*
X341923Y1956875D01*
X342500Y1953977D01*
X342500Y1952500D01*
X342500Y1832500D01*
X342500Y1832500D01*
X342500Y1831022D01*
X342284Y1829938D01*
X341283Y1828065D01*
X341283Y1828064D01*
X340152Y1825334D01*
X340152Y1825334D01*
X339653Y1823689D01*
X339151Y1822938D01*
X337062Y1820849D01*
X334605Y1819207D01*
X331875Y1818076D01*
X328977Y1817500D01*
X327500Y1817500D01*
X240000Y1817500D01*
X238522D01*
X235625Y1818076D01*
X232895Y1819207D01*
X230438Y1820849D01*
X228349Y1822938D01*
X226707Y1825395D01*
X225576Y1828125D01*
X225000Y1831023D01*
Y1832500D01*
X225000Y1951303D01*
X225000Y1952500D01*
X225000Y1952500D01*
X225000Y1952500D01*
X225000Y1952500D01*
X225000Y1953977D01*
X225576Y1956875D01*
X226707Y1959605D01*
X228349Y1962062D01*
X230438Y1964151D01*
X232895Y1965793D01*
X235625Y1966924D01*
X238523Y1967500D01*
X240000Y1967500D01*
D02*
G37*
G36*
X744375Y916925D02*
X747105Y915794D01*
X749563Y914153D01*
X751652Y912063D01*
X753294Y909606D01*
X754424Y906876D01*
X755000Y903978D01*
X755000Y902501D01*
X755000Y820000D01*
X755000Y805000D01*
X755000Y805000D01*
Y803522D01*
X754423Y800624D01*
X753292Y797895D01*
X751651Y795438D01*
X749562Y793349D01*
X747105Y791707D01*
X744375Y790576D01*
X741477Y790000D01*
X740000D01*
X682500Y790000D01*
X681022Y790000D01*
X678124Y790576D01*
X675394Y791706D01*
X672937Y793348D01*
X670848Y795437D01*
X669206Y797894D01*
X668076Y800624D01*
X667500Y803522D01*
X667500Y805000D01*
X667500Y807500D01*
X667500Y807500D01*
X667500Y807500D01*
X667440Y808725D01*
X666962Y811128D01*
X666024Y813392D01*
X664663Y815430D01*
X662931Y817163D01*
X660893Y818524D01*
X658629Y819462D01*
X656226Y819940D01*
X655000Y820000D01*
X537500Y820000D01*
X537500Y820000D01*
X536022Y820000D01*
X533124Y820576D01*
X530394Y821707D01*
X527937Y823348D01*
X525848Y825438D01*
X524207Y827895D01*
X523076Y830625D01*
X522500Y833523D01*
X522500Y835000D01*
X522500Y881303D01*
X522500Y882500D01*
X522500Y882500D01*
X522500Y882500D01*
X522500Y883977D01*
X523076Y886875D01*
X524207Y889605D01*
X525849Y892062D01*
X527938Y894151D01*
X530395Y895793D01*
X533125Y896923D01*
X536023Y897500D01*
X537500Y897500D01*
X600000Y897500D01*
X600980Y897548D01*
X601230Y897598D01*
X602903Y897931D01*
X604714Y898681D01*
X606344Y899770D01*
X607730Y901156D01*
X608819Y902786D01*
X609569Y904597D01*
X609952Y906520D01*
X610000Y907500D01*
X610000Y908485D01*
X610384Y910417D01*
X611138Y912237D01*
X612233Y913875D01*
X613625Y915267D01*
X615263Y916362D01*
X617083Y917116D01*
X619015Y917500D01*
X620000Y917500D01*
X739999Y917500D01*
X739999Y917500D01*
Y917500D01*
X741477Y917500D01*
X744375Y916925D01*
D02*
G37*
G36*
X989063Y801636D02*
X993158Y799940D01*
X996843Y797477D01*
X999977Y794343D01*
X1002440Y790658D01*
X1004136Y786563D01*
X1005000Y782216D01*
X1005000Y780000D01*
X1005000Y700000D01*
X1005000Y700000D01*
X1005000Y697537D01*
X1004039Y692708D01*
X1002154Y688158D01*
X999418Y684063D01*
X995936Y680581D01*
X991842Y677845D01*
X987292Y675961D01*
X982462Y675000D01*
X980000Y675000D01*
X943159D01*
X939517Y675539D01*
X935993Y676606D01*
X932664Y678178D01*
X929601Y680220D01*
X926870Y682689D01*
X924530Y685531D01*
X922631Y688685D01*
X921923Y690385D01*
X921923D01*
X921923Y690385D01*
X921919Y690394D01*
X921443Y691428D01*
X921411Y691479D01*
X920259Y693394D01*
X918801Y695165D01*
X917098Y696704D01*
X915189Y697977D01*
X913114Y698957D01*
X910917Y699622D01*
X908647Y699958D01*
X907500Y700000D01*
X674167Y700000D01*
X674167Y700000D01*
X672640Y699939D01*
X669625Y699449D01*
X666728Y698484D01*
X664023Y697066D01*
X661580Y695234D01*
X659462Y693034D01*
X657723Y690523D01*
X656410Y687766D01*
X655923Y686317D01*
X655923Y686317D01*
X655074Y685019D01*
X653068Y682652D01*
X650784Y680551D01*
X648258Y678749D01*
X645529Y677272D01*
X642638Y676145D01*
X639630Y675384D01*
X636551Y675000D01*
X635000D01*
X600000Y675000D01*
X599999Y675001D01*
X597537D01*
X592707Y675962D01*
X588157Y677846D01*
X584063Y680582D01*
X580581Y684064D01*
X577845Y688159D01*
X575961Y692708D01*
X575000Y697538D01*
Y700000D01*
X575000Y778803D01*
X575000Y779999D01*
X575000Y779999D01*
X575000Y779999D01*
X575000Y782215D01*
X575864Y786562D01*
X577560Y790657D01*
X580022Y794343D01*
X583156Y797477D01*
X586842Y799939D01*
X590937Y801636D01*
X595284Y802500D01*
X597500Y802500D01*
X632500Y802499D01*
X632500Y802499D01*
X632500Y802499D01*
X634391Y802500D01*
X638138Y801982D01*
X641779Y800956D01*
X645245Y799441D01*
X648471Y797467D01*
X651397Y795069D01*
X653966Y792292D01*
X656131Y789191D01*
X656992Y787507D01*
X657399Y786190D01*
X658531Y783679D01*
X660057Y781386D01*
X661937Y779373D01*
X664120Y777693D01*
X666548Y776393D01*
X669155Y775506D01*
X671873Y775056D01*
X673250Y775000D01*
X907778Y775000D01*
X908907Y775043D01*
X909023Y775060D01*
X911141Y775383D01*
X913297Y776057D01*
X915328Y777048D01*
X917185Y778334D01*
X918828Y779886D01*
X920217Y781667D01*
X921301Y783600D01*
X921322Y783638D01*
X921760Y784680D01*
X921760Y784680D01*
X921760Y784680D01*
X922494Y786632D01*
X924534Y790270D01*
X927100Y793559D01*
X930132Y796423D01*
X933561Y798798D01*
X937309Y800628D01*
X941291Y801871D01*
X945414Y802500D01*
X947500Y802500D01*
X982500Y802500D01*
X982500Y802500D01*
X982500Y802500D01*
X984716Y802500D01*
X989063Y801636D01*
D02*
G37*
G36*
X892502Y682500D02*
X893733Y682500D01*
X896148Y682020D01*
X898422Y681077D01*
X900469Y679710D01*
X902210Y677969D01*
X903577Y675922D01*
X904520Y673647D01*
X905000Y671233D01*
X905000Y670002D01*
X905000Y670002D01*
X905000Y670002D01*
X905000Y630000D01*
X905084Y628285D01*
X905753Y624920D01*
X907066Y621750D01*
X908972Y618898D01*
X911398Y616472D01*
X914250Y614566D01*
X917420Y613254D01*
X920785Y612584D01*
X922500Y612500D01*
X962500Y612500D01*
X963977Y612500D01*
X966875Y611924D01*
X969605Y610793D01*
X972062Y609151D01*
X974151Y607062D01*
X975793Y604605D01*
X976924Y601875D01*
X977500Y598977D01*
X977500Y597500D01*
X977500Y597500D01*
X977500Y597500D01*
Y577500D01*
X977572Y576030D01*
X978146Y573146D01*
X979271Y570429D01*
X980905Y567984D01*
X982984Y565905D01*
X985429Y564271D01*
X988146Y563146D01*
X991030Y562572D01*
X992500Y562500D01*
X1047500D01*
X1048485Y562500D01*
X1050417Y562116D01*
X1052237Y561362D01*
X1053875Y560268D01*
X1055268Y558875D01*
X1056362Y557237D01*
X1057116Y555417D01*
X1057457Y553700D01*
X1057500Y552505D01*
Y552500D01*
X1057500Y552500D01*
X1057500Y552500D01*
X1057500Y525000D01*
X1057500Y524015D01*
X1057116Y522083D01*
X1056362Y520263D01*
X1055268Y518625D01*
X1053875Y517232D01*
X1052237Y516138D01*
X1050417Y515384D01*
X1048485Y515000D01*
X1047500Y515000D01*
X999999D01*
X999024Y514904D01*
X997222Y514158D01*
X996813Y513750D01*
X995000D01*
Y510001D01*
X995000Y510000D01*
Y430000D01*
X995084Y428285D01*
X995753Y424920D01*
X997066Y421750D01*
X998972Y418898D01*
X1001398Y416472D01*
X1004250Y414566D01*
X1007420Y413254D01*
X1010785Y412584D01*
X1012500Y412500D01*
X1245000Y412500D01*
X1246723Y412500D01*
X1250105Y411828D01*
X1253289Y410509D01*
X1256156Y408594D01*
X1258593Y406156D01*
X1260508Y403290D01*
X1261828Y400105D01*
X1262500Y396724D01*
X1262500Y395000D01*
X1262500Y395000D01*
X1262500Y395000D01*
X1262500Y230000D01*
X1262500Y92500D01*
X1262500Y90776D01*
X1261828Y87395D01*
X1260509Y84210D01*
X1258593Y81344D01*
X1256156Y78906D01*
X1253289Y76991D01*
X1250105Y75672D01*
X1246723Y75000D01*
X1245000Y75000D01*
X1095000Y75000D01*
X1093523D01*
X1090624Y75576D01*
X1087895Y76707D01*
X1085438Y78349D01*
X1083348Y80438D01*
X1081707Y82895D01*
X1080576Y85625D01*
X1080000Y88523D01*
X1080000Y90000D01*
X1079999Y215000D01*
X1079927Y216471D01*
X1079354Y219354D01*
X1078228Y222071D01*
X1076595Y224516D01*
X1074516Y226595D01*
X1072071Y228229D01*
X1069354Y229354D01*
X1066470Y229928D01*
X1065000Y230000D01*
X1065000Y230000D01*
X1065000Y230000D01*
X792500Y230000D01*
X791023Y230000D01*
X788125Y230576D01*
X785395Y231707D01*
X782938Y233349D01*
X780849Y235438D01*
X779207Y237895D01*
X778076Y240625D01*
X777500Y243522D01*
Y245000D01*
Y672500D01*
X777500Y673485D01*
X777884Y675417D01*
X778638Y677237D01*
X779732Y678875D01*
X781125Y680267D01*
X782763Y681362D01*
X784583Y682115D01*
X786515Y682500D01*
X787500Y682500D01*
X787500Y682500D01*
X892502Y682500D01*
D02*
G37*
G36*
X746146Y684520D02*
X748421Y683577D01*
X750468Y682209D01*
X752209Y680468D01*
X753577Y678420D01*
X754519Y676145D01*
X754999Y673730D01*
X754999Y672499D01*
X754999Y672499D01*
X755000Y672499D01*
X755000Y660000D01*
Y527500D01*
X755000Y245000D01*
X755000Y243522D01*
X754424Y240624D01*
X753293Y237894D01*
X751652Y235438D01*
X749562Y233348D01*
X747105Y231707D01*
X744375Y230576D01*
X741477Y230000D01*
X740000Y230000D01*
X482500Y230000D01*
X481030Y229928D01*
X478146Y229354D01*
X475429Y228229D01*
X472984Y226595D01*
X470905Y224516D01*
X469271Y222071D01*
X468146Y219354D01*
X467572Y216470D01*
X467500Y215000D01*
X467500Y215000D01*
X467500Y215000D01*
X467500Y92500D01*
X467500Y90776D01*
X466827Y87395D01*
X465508Y84210D01*
X463593Y81344D01*
X461156Y78907D01*
X458289Y76992D01*
X455104Y75672D01*
X451724Y75000D01*
X450000Y75000D01*
X450000Y75000D01*
X450000Y75000D01*
X322500Y75000D01*
X320776Y75000D01*
X317395Y75672D01*
X314211Y76992D01*
X311344Y78907D01*
X308907Y81344D01*
X306992Y84211D01*
X305672Y87395D01*
X305000Y90776D01*
Y92500D01*
X305000Y92500D01*
X305000Y230000D01*
Y392500D01*
Y393977D01*
X305576Y396875D01*
X306707Y399605D01*
X308349Y402062D01*
X310438Y404151D01*
X312895Y405793D01*
X315625Y406923D01*
X318523Y407500D01*
X320000D01*
X320000Y407500D01*
X595000Y407500D01*
X596470Y407572D01*
X599354Y408146D01*
X602071Y409271D01*
X604516Y410905D01*
X606595Y412984D01*
X608229Y415429D01*
X609354Y418146D01*
X609928Y421030D01*
X610000Y422500D01*
X610000Y422500D01*
X610000Y512501D01*
X609928Y513971D01*
X609355Y516855D01*
X608229Y519572D01*
X606596Y522017D01*
X604516Y524096D01*
X602071Y525730D01*
X599355Y526855D01*
X596470Y527428D01*
X595000Y527500D01*
X595000Y527500D01*
X595000Y527500D01*
X542500Y527500D01*
X541023Y527500D01*
X538125Y528076D01*
X535395Y529207D01*
X532938Y530849D01*
X530849Y532938D01*
X529207Y535395D01*
X528076Y538125D01*
X527500Y541023D01*
X527500Y542500D01*
X527500Y560000D01*
X527500Y561478D01*
X528077Y564375D01*
X529207Y567105D01*
X530849Y569562D01*
X532938Y571651D01*
X535395Y573293D01*
X538125Y574424D01*
X541023Y575000D01*
X542500D01*
X542500Y575000D01*
X585000Y575000D01*
X585980Y575048D01*
X587903Y575430D01*
X589714Y576181D01*
X591344Y577270D01*
X592730Y578656D01*
X593819Y580286D01*
X594569Y582097D01*
X594952Y584020D01*
X595000Y585000D01*
X595000Y585000D01*
X595000Y650000D01*
X595000Y650985D01*
X595384Y652917D01*
X596138Y654736D01*
X597232Y656374D01*
X598625Y657767D01*
X600263Y658861D01*
X602082Y659615D01*
X604014Y659999D01*
X604999Y659999D01*
X604999Y659999D01*
X660000Y660000D01*
X660980Y660048D01*
X662902Y660431D01*
X664713Y661181D01*
X666343Y662270D01*
X667729Y663656D01*
X668818Y665285D01*
X669568Y667096D01*
X669950Y669019D01*
X669999Y669999D01*
X670000Y670000D01*
X670000Y674999D01*
X670000Y675984D01*
X670384Y677916D01*
X671138Y679736D01*
X672232Y681374D01*
X673625Y682767D01*
X675263Y683861D01*
X677083Y684615D01*
X679015Y684999D01*
X680000Y684999D01*
X680000Y685000D01*
X742500Y685000D01*
X743731Y685000D01*
X746146Y684520D01*
D02*
G37*
G36*
X1101464Y667500D02*
X1101464Y667500D01*
X1101464Y667500D01*
X1102899Y667500D01*
X1105715Y666940D01*
X1108366Y665842D01*
X1110753Y664247D01*
X1125732Y649268D01*
X1125732Y649268D01*
X1125732Y649268D01*
X1126747Y648253D01*
X1128342Y645866D01*
X1129440Y643215D01*
X1130000Y640400D01*
X1130000Y638965D01*
X1130000Y582500D01*
X1130000Y560000D01*
X1130000Y560000D01*
Y558769D01*
X1129519Y556354D01*
X1128577Y554079D01*
X1127209Y552032D01*
X1125468Y550291D01*
X1123421Y548923D01*
X1121146Y547980D01*
X1118731Y547500D01*
X1117500D01*
X1090000Y547500D01*
X1089999Y547500D01*
X1088768D01*
X1086354Y547980D01*
X1084079Y548923D01*
X1082031Y550291D01*
X1080290Y552032D01*
X1078923Y554079D01*
X1077980Y556354D01*
X1077500Y558769D01*
X1077500Y560000D01*
Y570000D01*
X1077500Y570000D01*
X1077500Y570000D01*
X1077439Y571225D01*
X1076962Y573628D01*
X1076024Y575892D01*
X1074662Y577930D01*
X1072930Y579662D01*
X1070892Y581024D01*
X1068628Y581962D01*
X1066225Y582440D01*
X1065000Y582500D01*
X1049469Y582500D01*
X1048484Y582597D01*
X1048483Y582597D01*
X1048483Y582597D01*
X1047498Y582597D01*
X1008282D01*
X1006354Y582980D01*
X1004079Y583923D01*
X1002031Y585290D01*
X1000290Y587032D01*
X998923Y589079D01*
X997980Y591354D01*
X997597Y593282D01*
Y597500D01*
X997597Y597502D01*
X997597Y598976D01*
X997500Y599958D01*
X997500Y655000D01*
X997500Y656231D01*
X997980Y658646D01*
X998923Y660921D01*
X1000291Y662968D01*
X1002032Y664709D01*
X1004079Y666077D01*
X1006354Y667020D01*
X1008769Y667500D01*
X1010000D01*
X1101464Y667500D01*
D02*
G37*
G36*
X1345000Y1592500D02*
X1437500D01*
X1437500Y1592500D01*
X1437500Y1592500D01*
X1438977D01*
X1441875Y1591924D01*
X1444605Y1590793D01*
X1447062Y1589151D01*
X1449151Y1587062D01*
X1450793Y1584605D01*
X1451923Y1581875D01*
X1452500Y1578977D01*
Y1577500D01*
X1452500Y1477500D01*
X1452500Y1477500D01*
Y1476022D01*
X1451923Y1473125D01*
X1450793Y1470395D01*
X1449151Y1467938D01*
X1447062Y1465849D01*
X1444605Y1464207D01*
X1441875Y1463076D01*
X1438977Y1462500D01*
X1437500Y1462500D01*
X1345000Y1462500D01*
X1343523Y1462500D01*
X1340625Y1463076D01*
X1337895Y1464207D01*
X1335438Y1465849D01*
X1333349Y1467938D01*
X1331707Y1470395D01*
X1330576Y1473125D01*
X1330000Y1476023D01*
Y1477500D01*
X1330000Y1576304D01*
X1330000Y1577500D01*
X1330000Y1577500D01*
X1330000Y1577500D01*
X1330000Y1577500D01*
X1330000Y1578977D01*
X1330576Y1581875D01*
X1331707Y1584605D01*
X1333349Y1587062D01*
X1335438Y1589151D01*
X1337895Y1590793D01*
X1340625Y1591924D01*
X1343523Y1592500D01*
X1345000Y1592500D01*
D02*
G37*
G36*
X534375Y1641924D02*
X537105Y1640793D01*
X539562Y1639151D01*
X541651Y1637062D01*
X543293Y1634605D01*
X544423Y1631875D01*
X545000Y1628977D01*
X545000Y1627500D01*
X545000D01*
X545000Y1457500D01*
Y1456022D01*
X544423Y1453125D01*
X543293Y1450395D01*
X541651Y1447938D01*
X539562Y1445849D01*
X537105Y1444207D01*
X534375Y1443076D01*
X531477Y1442500D01*
X530000D01*
X530000Y1442500D01*
X530000Y1442500D01*
X400000Y1442500D01*
X398523Y1442500D01*
X395625Y1443076D01*
X392895Y1444207D01*
X390438Y1445849D01*
X388349Y1447938D01*
X386707Y1450395D01*
X385576Y1453124D01*
X385000Y1456022D01*
X385000Y1457500D01*
X385000Y1457500D01*
X385000Y1627500D01*
X385000Y1628977D01*
X385576Y1631875D01*
X386707Y1634605D01*
X388349Y1637062D01*
X390438Y1639151D01*
X392895Y1640793D01*
X395625Y1641923D01*
X398522Y1642500D01*
X400000Y1642500D01*
X400000Y1642500D01*
X530000Y1642500D01*
X531477D01*
X534375Y1641924D01*
D02*
G37*
G36*
X1144375Y1639424D02*
X1147105Y1638293D01*
X1149562Y1636651D01*
X1151651Y1634562D01*
X1153293Y1632105D01*
X1154424Y1629375D01*
X1155000Y1626477D01*
X1155000Y1625000D01*
X1155000Y1625000D01*
X1155000Y1625000D01*
X1155000Y1525000D01*
Y1523522D01*
X1154423Y1520625D01*
X1153293Y1517895D01*
X1151651Y1515438D01*
X1149562Y1513349D01*
X1147105Y1511707D01*
X1144375Y1510576D01*
X1141477Y1510000D01*
X1140000Y1510000D01*
X1140000Y1510000D01*
Y1510000D01*
X1025000Y1510000D01*
X1023523D01*
X1020625Y1510576D01*
X1017895Y1511707D01*
X1015438Y1513349D01*
X1013349Y1515438D01*
X1011707Y1517895D01*
X1010576Y1520625D01*
X1010000Y1523522D01*
Y1525000D01*
X1010000Y1525000D01*
X1010000Y1625000D01*
X1010000Y1626477D01*
X1010576Y1629375D01*
X1011707Y1632105D01*
X1013349Y1634562D01*
X1015438Y1636651D01*
X1017895Y1638293D01*
X1020624Y1639424D01*
X1023522Y1640000D01*
X1025000Y1640000D01*
X1025000Y1640000D01*
X1140000Y1640000D01*
X1141477Y1640000D01*
X1144375Y1639424D01*
D02*
G37*
G36*
X1010429Y1100000D02*
X1010429Y1100000D01*
X1010429Y1100000D01*
X1012157Y1100000D01*
X1015597Y1099661D01*
X1018987Y1098987D01*
X1022294Y1097984D01*
X1025487Y1096661D01*
X1028536Y1095032D01*
X1031409Y1093112D01*
X1034081Y1090919D01*
X1035303Y1089697D01*
X1039697Y1085303D01*
X1039697Y1085303D01*
X1039697Y1085303D01*
X1039697Y1085303D01*
X1040919Y1084081D01*
X1043111Y1081409D01*
X1045032Y1078536D01*
X1046661Y1075487D01*
X1047984Y1072294D01*
X1048987Y1068987D01*
X1049661Y1065597D01*
X1050000Y1062157D01*
X1050000Y1060429D01*
X1050000Y980000D01*
X1050000Y980000D01*
X1050000Y979261D01*
X1049712Y977812D01*
X1049146Y976447D01*
X1048326Y975219D01*
X1047281Y974174D01*
X1046052Y973354D01*
X1044688Y972788D01*
X1043239Y972500D01*
X1042500Y972500D01*
X996506D01*
X992525Y973292D01*
X988774Y974845D01*
X985399Y977101D01*
X983964Y978536D01*
X980303Y982197D01*
X980303Y982197D01*
X980303Y982197D01*
X979053Y983387D01*
X976384Y985577D01*
X973514Y987495D01*
X970469Y989123D01*
X967280Y990444D01*
X963977Y991446D01*
X960591Y992119D01*
X957155Y992458D01*
X955429Y992500D01*
X932500Y992500D01*
X932500Y855000D01*
X932500Y855000D01*
Y853769D01*
X932019Y851354D01*
X931077Y849079D01*
X929709Y847032D01*
X927968Y845291D01*
X925921Y843923D01*
X923646Y842981D01*
X921231Y842500D01*
X920000D01*
X920000Y842500D01*
X919020Y842452D01*
X917097Y842069D01*
X915286Y841319D01*
X913656Y840230D01*
X912270Y838844D01*
X911181Y837214D01*
X910431Y835403D01*
X910048Y833480D01*
X910000Y832500D01*
X910000Y805000D01*
X910000Y805000D01*
X910000Y803522D01*
X909423Y800624D01*
X908293Y797895D01*
X906651Y795438D01*
X904562Y793348D01*
X902105Y791707D01*
X899375Y790576D01*
X896477Y790000D01*
X895000Y790000D01*
X792500D01*
X792500Y790000D01*
X791022D01*
X788125Y790576D01*
X785395Y791707D01*
X782938Y793349D01*
X780849Y795438D01*
X779207Y797895D01*
X778076Y800625D01*
X777500Y803522D01*
Y805000D01*
Y1062500D01*
X777500Y1062500D01*
X777500Y1062500D01*
Y1064958D01*
X778142Y1069831D01*
X779414Y1074580D01*
X781295Y1079121D01*
X783753Y1083379D01*
X786746Y1087279D01*
X790221Y1090754D01*
X794121Y1093747D01*
X798379Y1096205D01*
X802920Y1098086D01*
X807668Y1099358D01*
X812542Y1100000D01*
X815000D01*
X1010429Y1100000D01*
D02*
G37*
G36*
X1205000Y2062500D02*
X1310000Y2062500D01*
X1310000Y2062500D01*
X1310000Y2062500D01*
X1311477Y2062500D01*
X1314375Y2061924D01*
X1317105Y2060793D01*
X1319562Y2059151D01*
X1321651Y2057062D01*
X1323293Y2054605D01*
X1324424Y2051875D01*
X1325000Y2048977D01*
X1325000Y2047500D01*
Y1895000D01*
X1325000Y1895000D01*
Y1893276D01*
X1324327Y1889895D01*
X1323008Y1886711D01*
X1321093Y1883844D01*
X1318656Y1881407D01*
X1315789Y1879492D01*
X1312605Y1878173D01*
X1309224Y1877500D01*
X1307500D01*
X1205000Y1877500D01*
X1205000Y1877500D01*
X1203522Y1877500D01*
X1200624Y1878076D01*
X1197895Y1879207D01*
X1195438Y1880849D01*
X1193349Y1882938D01*
X1191707Y1885395D01*
X1190576Y1888125D01*
X1190000Y1891022D01*
Y1892500D01*
X1190000Y2046303D01*
X1190000Y2047500D01*
X1190000Y2047500D01*
X1190000Y2047500D01*
X1190000Y2048977D01*
X1190576Y2051875D01*
X1191707Y2054605D01*
X1193348Y2057062D01*
X1195438Y2059151D01*
X1197895Y2060793D01*
X1200624Y2061924D01*
X1203522Y2062500D01*
X1205000Y2062500D01*
D02*
G37*
G36*
X997500Y1347500D02*
X997500Y1347500D01*
X999962D01*
X1004792Y1346539D01*
X1009342Y1344655D01*
X1013437Y1341919D01*
X1016919Y1338436D01*
X1019655Y1334342D01*
X1021539Y1329792D01*
X1022500Y1324962D01*
X1022500Y1322500D01*
X1022500Y1280000D01*
X1022500Y1280000D01*
X1022500Y1277784D01*
X1021635Y1273437D01*
X1019939Y1269342D01*
X1017477Y1265657D01*
X1014343Y1262523D01*
X1010658Y1260061D01*
X1006563Y1258364D01*
X1002216Y1257500D01*
X1000000Y1257500D01*
X590000Y1257500D01*
X590000Y1257500D01*
X587537Y1257500D01*
X582707Y1258461D01*
X578158Y1260345D01*
X574063Y1263081D01*
X570581Y1266563D01*
X567845Y1270658D01*
X565961Y1275208D01*
X565000Y1280038D01*
X565000Y1282500D01*
X565000Y1322500D01*
X565000Y1322500D01*
X565000Y1322500D01*
X565000Y1324962D01*
X565961Y1329792D01*
X567845Y1334342D01*
X570581Y1338436D01*
X574063Y1341919D01*
X578158Y1344655D01*
X582708Y1346539D01*
X587538Y1347500D01*
X590000D01*
X997500Y1347500D01*
X997500Y1347500D01*
D02*
G37*
G36*
X597500Y210000D02*
X980000Y210000D01*
X980000Y210000D01*
Y210000D01*
X982462D01*
X987292Y209039D01*
X991842Y207154D01*
X995937Y204419D01*
X999419Y200936D01*
X1002154Y196842D01*
X1004039Y192292D01*
X1005000Y187462D01*
Y185000D01*
X1005000Y167500D01*
X1005000Y167500D01*
X1005000Y165038D01*
X1004039Y160208D01*
X1002155Y155658D01*
X999419Y151563D01*
X995937Y148081D01*
X991842Y145345D01*
X987292Y143461D01*
X982462Y142500D01*
X980000Y142500D01*
X595000Y142500D01*
X593030Y142500D01*
X589166Y143269D01*
X585526Y144776D01*
X582251Y146965D01*
X579465Y149751D01*
X577276Y153026D01*
X575768Y156666D01*
X575000Y160530D01*
X575000Y162500D01*
X575000Y186304D01*
X575000Y187500D01*
X575000Y187500D01*
X575000Y187500D01*
X575000Y187500D01*
X575000Y189716D01*
X575865Y194063D01*
X577561Y198158D01*
X580023Y201843D01*
X583157Y204977D01*
X586842Y207439D01*
X590937Y209135D01*
X595284Y210000D01*
X597500Y210000D01*
D02*
G37*
G36*
X570000Y965000D02*
X570000Y965000D01*
X571477Y965000D01*
X574375Y964424D01*
X577105Y963293D01*
X579562Y961651D01*
X581651Y959562D01*
X583293Y957105D01*
X584423Y954375D01*
X585000Y951477D01*
X585000Y950000D01*
X585000Y932500D01*
X585000Y932500D01*
Y931023D01*
X584423Y928125D01*
X583293Y925395D01*
X581651Y922938D01*
X579562Y920849D01*
X577105Y919207D01*
X574375Y918076D01*
X571964Y917597D01*
X537501Y917597D01*
X536023Y917597D01*
X536023Y917597D01*
X536023Y917597D01*
X535041Y917500D01*
X510000D01*
X510000Y917500D01*
X509265Y917464D01*
X507823Y917177D01*
X506464Y916614D01*
X505242Y915797D01*
X504202Y914758D01*
X503386Y913535D01*
X502823Y912177D01*
X502536Y910735D01*
X502500Y910000D01*
X502500Y910000D01*
Y909261D01*
X502211Y907812D01*
X501646Y906447D01*
X500825Y905219D01*
X499781Y904174D01*
X498552Y903354D01*
X497188Y902788D01*
X495739Y902500D01*
X450000Y902500D01*
X450000Y902500D01*
X448522Y902500D01*
X445625Y903077D01*
X442895Y904207D01*
X440438Y905849D01*
X438349Y907938D01*
X436707Y910395D01*
X435576Y913125D01*
X435000Y916023D01*
Y917500D01*
X435000Y950000D01*
X435000Y950000D01*
X435000Y950000D01*
X435000Y951477D01*
X435576Y954375D01*
X436707Y957105D01*
X438349Y959562D01*
X440438Y961651D01*
X442895Y963293D01*
X445625Y964423D01*
X448522Y965000D01*
X450000Y965000D01*
X570000Y965000D01*
X570000Y965000D01*
D02*
G37*
%LPC*%
G36*
X1480000Y1735000D02*
X1470319D01*
X1470611Y1734040D01*
X1472050Y1731347D01*
X1473987Y1728987D01*
X1476347Y1727050D01*
X1479040Y1725611D01*
X1480000Y1725319D01*
Y1735000D01*
D02*
G37*
G36*
X1499681D02*
X1490000D01*
Y1725319D01*
X1490960Y1725611D01*
X1493653Y1727050D01*
X1496013Y1728987D01*
X1497950Y1731347D01*
X1499389Y1734040D01*
X1499681Y1735000D01*
D02*
G37*
G36*
X1530000D02*
X1519500D01*
Y1724500D01*
X1530000D01*
Y1735000D01*
D02*
G37*
G36*
X1550500D02*
X1540000D01*
Y1724500D01*
X1550500D01*
Y1735000D01*
D02*
G37*
G36*
X1480000Y1754681D02*
X1479040Y1754389D01*
X1476347Y1752950D01*
X1473987Y1751013D01*
X1472050Y1748653D01*
X1470611Y1745960D01*
X1470319Y1745000D01*
X1480000D01*
Y1754681D01*
D02*
G37*
G36*
X1530000Y1755500D02*
X1519500D01*
Y1745000D01*
X1530000D01*
Y1755500D01*
D02*
G37*
G36*
X1490000Y1754681D02*
Y1745000D01*
X1499681D01*
X1499389Y1745960D01*
X1497950Y1748653D01*
X1496013Y1751013D01*
X1493653Y1752950D01*
X1490960Y1754389D01*
X1490000Y1754681D01*
D02*
G37*
G36*
X1550500Y1755500D02*
X1540000D01*
Y1745000D01*
X1550500D01*
Y1755500D01*
D02*
G37*
G36*
X1526726Y1355000D02*
X1517500D01*
Y1345774D01*
X1518293Y1346014D01*
X1520910Y1347413D01*
X1523204Y1349296D01*
X1525087Y1351590D01*
X1526486Y1354207D01*
X1526726Y1355000D01*
D02*
G37*
G36*
X1507500Y1374226D02*
X1506707Y1373986D01*
X1504090Y1372587D01*
X1501796Y1370704D01*
X1499913Y1368410D01*
X1498514Y1365793D01*
X1498274Y1365000D01*
X1507500D01*
Y1374226D01*
D02*
G37*
G36*
X1517500Y1374226D02*
Y1365000D01*
X1526726D01*
X1526486Y1365793D01*
X1525087Y1368410D01*
X1523204Y1370704D01*
X1520910Y1372587D01*
X1518293Y1373986D01*
X1517500Y1374226D01*
D02*
G37*
G36*
X1507500Y1355000D02*
X1498274D01*
X1498514Y1354207D01*
X1499913Y1351590D01*
X1501796Y1349296D01*
X1504090Y1347413D01*
X1506707Y1346014D01*
X1507500Y1345774D01*
Y1355000D01*
D02*
G37*
G36*
X1490000Y1534681D02*
Y1525000D01*
X1499681D01*
X1499389Y1525960D01*
X1497950Y1528653D01*
X1496013Y1531013D01*
X1493653Y1532950D01*
X1490960Y1534389D01*
X1490000Y1534681D01*
D02*
G37*
G36*
X1530000D02*
X1529040Y1534389D01*
X1526347Y1532950D01*
X1523987Y1531013D01*
X1522050Y1528653D01*
X1520611Y1525960D01*
X1520319Y1525000D01*
X1530000D01*
Y1534681D01*
D02*
G37*
G36*
X1540000D02*
Y1525000D01*
X1549681D01*
X1549389Y1525960D01*
X1547950Y1528653D01*
X1546013Y1531013D01*
X1543653Y1532950D01*
X1540960Y1534389D01*
X1540000Y1534681D01*
D02*
G37*
G36*
X1480000D02*
X1479040Y1534389D01*
X1476347Y1532950D01*
X1473987Y1531013D01*
X1472050Y1528653D01*
X1470611Y1525960D01*
X1470319Y1525000D01*
X1480000D01*
Y1534681D01*
D02*
G37*
G36*
X1517500Y1425026D02*
Y1415800D01*
X1526726D01*
X1526486Y1416593D01*
X1525087Y1419210D01*
X1523204Y1421504D01*
X1520910Y1423387D01*
X1518293Y1424786D01*
X1517500Y1425026D01*
D02*
G37*
G36*
X1507500Y1405800D02*
X1498274D01*
X1498514Y1405007D01*
X1499913Y1402390D01*
X1501796Y1400096D01*
X1504090Y1398213D01*
X1506707Y1396814D01*
X1507500Y1396574D01*
Y1405800D01*
D02*
G37*
G36*
X1526726D02*
X1517500D01*
Y1396574D01*
X1518293Y1396814D01*
X1520910Y1398213D01*
X1523204Y1400096D01*
X1525087Y1402390D01*
X1526486Y1405007D01*
X1526726Y1405800D01*
D02*
G37*
G36*
X1507500Y1425026D02*
X1506707Y1424786D01*
X1504090Y1423387D01*
X1501796Y1421504D01*
X1499913Y1419210D01*
X1498514Y1416593D01*
X1498274Y1415800D01*
X1507500D01*
Y1425026D01*
D02*
G37*
G36*
X1499681Y1515000D02*
X1490000D01*
Y1505319D01*
X1490960Y1505611D01*
X1493653Y1507050D01*
X1496013Y1508987D01*
X1497950Y1511347D01*
X1499389Y1514040D01*
X1499681Y1515000D01*
D02*
G37*
G36*
X1530000D02*
X1520319D01*
X1520611Y1514040D01*
X1522050Y1511347D01*
X1523987Y1508987D01*
X1526347Y1507050D01*
X1529040Y1505611D01*
X1530000Y1505319D01*
Y1515000D01*
D02*
G37*
G36*
X1549681D02*
X1540000D01*
Y1505319D01*
X1540960Y1505611D01*
X1543653Y1507050D01*
X1546013Y1508987D01*
X1547950Y1511347D01*
X1549389Y1514040D01*
X1549681Y1515000D01*
D02*
G37*
G36*
X1480000D02*
X1470319D01*
X1470611Y1514040D01*
X1472050Y1511347D01*
X1473987Y1508987D01*
X1476347Y1507050D01*
X1479040Y1505611D01*
X1480000Y1505319D01*
Y1515000D01*
D02*
G37*
G36*
X255000Y1205000D02*
X240094D01*
X240969Y1202117D01*
X242872Y1198556D01*
X245434Y1195434D01*
X248556Y1192872D01*
X252117Y1190969D01*
X255000Y1190094D01*
Y1205000D01*
D02*
G37*
G36*
X279906D02*
X265000D01*
Y1190094D01*
X267883Y1190969D01*
X271444Y1192872D01*
X274566Y1195434D01*
X277128Y1198556D01*
X279031Y1202117D01*
X279906Y1205000D01*
D02*
G37*
G36*
X265000Y1229906D02*
Y1215000D01*
X279906D01*
X279031Y1217883D01*
X277128Y1221444D01*
X274566Y1224566D01*
X271444Y1227128D01*
X267883Y1229031D01*
X265000Y1229906D01*
D02*
G37*
G36*
X255000D02*
X252117Y1229031D01*
X248556Y1227128D01*
X245434Y1224566D01*
X242872Y1221444D01*
X240969Y1217883D01*
X240094Y1215000D01*
X255000D01*
Y1229906D01*
D02*
G37*
G36*
X474500Y485000D02*
X471000D01*
Y477750D01*
X474500D01*
Y485000D01*
D02*
G37*
G36*
X461000Y502250D02*
X457500D01*
Y495000D01*
X461000D01*
Y502250D01*
D02*
G37*
G36*
X474500D02*
X471000D01*
Y495000D01*
X474500D01*
Y502250D01*
D02*
G37*
G36*
X573124Y485250D02*
X564500D01*
Y476626D01*
X566813Y477584D01*
X569841Y479908D01*
X572166Y482937D01*
X573124Y485250D01*
D02*
G37*
G36*
X554500D02*
X545876D01*
X546834Y482937D01*
X549159Y479908D01*
X552187Y477584D01*
X554500Y476626D01*
Y485250D01*
D02*
G37*
G36*
X461000Y485000D02*
X457500D01*
Y477750D01*
X461000D01*
Y485000D01*
D02*
G37*
G36*
X554500Y503873D02*
X552187Y502915D01*
X549159Y500591D01*
X546834Y497562D01*
X545876Y495250D01*
X554500D01*
Y503873D01*
D02*
G37*
G36*
X564500Y503873D02*
Y495250D01*
X573124D01*
X572166Y497562D01*
X569841Y500591D01*
X566813Y502915D01*
X564500Y503873D01*
D02*
G37*
G36*
X1252500Y1287406D02*
X1249617Y1286531D01*
X1246056Y1284628D01*
X1242934Y1282066D01*
X1240372Y1278944D01*
X1238469Y1275383D01*
X1237594Y1272500D01*
X1252500D01*
Y1287406D01*
D02*
G37*
G36*
X1262500Y1287406D02*
Y1272500D01*
X1277406D01*
X1276531Y1275383D01*
X1274628Y1278944D01*
X1272066Y1282066D01*
X1268944Y1284628D01*
X1265383Y1286531D01*
X1262500Y1287406D01*
D02*
G37*
G36*
X1277406Y1262500D02*
X1262500D01*
Y1247594D01*
X1265383Y1248469D01*
X1268944Y1250372D01*
X1272066Y1252934D01*
X1274628Y1256056D01*
X1276531Y1259617D01*
X1277406Y1262500D01*
D02*
G37*
G36*
X1252500D02*
X1237594D01*
X1238469Y1259617D01*
X1240372Y1256056D01*
X1242934Y1252934D01*
X1246056Y1250372D01*
X1249617Y1248469D01*
X1252500Y1247594D01*
Y1262500D01*
D02*
G37*
G36*
X1023500Y948373D02*
Y939750D01*
X1032124D01*
X1031166Y942062D01*
X1028841Y945091D01*
X1025813Y947415D01*
X1023500Y948373D01*
D02*
G37*
G36*
X1013500D02*
X1011188Y947415D01*
X1008158Y945091D01*
X1005834Y942062D01*
X1004876Y939750D01*
X1013500D01*
Y948373D01*
D02*
G37*
G36*
Y929750D02*
X1004876D01*
X1005834Y927437D01*
X1008158Y924408D01*
X1011188Y922084D01*
X1013500Y921126D01*
Y929750D01*
D02*
G37*
G36*
X1032124D02*
X1023500D01*
Y921126D01*
X1025813Y922084D01*
X1028841Y924408D01*
X1031166Y927437D01*
X1032124Y929750D01*
D02*
G37*
G36*
X180500Y1205000D02*
X165000D01*
Y1189500D01*
X180500D01*
Y1205000D01*
D02*
G37*
G36*
X155000D02*
X139500D01*
Y1189500D01*
X155000D01*
Y1205000D01*
D02*
G37*
G36*
X185000Y972173D02*
Y965000D01*
X192173D01*
X191495Y966637D01*
X189386Y969386D01*
X186637Y971495D01*
X185000Y972173D01*
D02*
G37*
G36*
X1385000Y947173D02*
X1383363Y946495D01*
X1380614Y944386D01*
X1378505Y941637D01*
X1377827Y940000D01*
X1385000D01*
Y947173D01*
D02*
G37*
G36*
X175000Y972173D02*
X173363Y971495D01*
X170614Y969386D01*
X168505Y966637D01*
X167827Y965000D01*
X175000D01*
Y972173D01*
D02*
G37*
G36*
X192173Y955000D02*
X185000D01*
Y947827D01*
X186637Y948505D01*
X189386Y950614D01*
X191495Y953363D01*
X192173Y955000D01*
D02*
G37*
G36*
X1395000Y947173D02*
Y940000D01*
X1402173D01*
X1401495Y941637D01*
X1399386Y944386D01*
X1396637Y946495D01*
X1395000Y947173D01*
D02*
G37*
G36*
X175000Y955000D02*
X167827D01*
X168505Y953363D01*
X170614Y950614D01*
X173363Y948505D01*
X175000Y947827D01*
Y955000D01*
D02*
G37*
G36*
X1385000Y930000D02*
X1377827D01*
X1378505Y928363D01*
X1380614Y925614D01*
X1383363Y923505D01*
X1385000Y922827D01*
Y930000D01*
D02*
G37*
G36*
X1402173D02*
X1395000D01*
Y922827D01*
X1396637Y923505D01*
X1399386Y925614D01*
X1401495Y928363D01*
X1402173Y930000D01*
D02*
G37*
G36*
X1430000Y1735000D02*
X1420319D01*
X1420611Y1734040D01*
X1422050Y1731347D01*
X1423987Y1728987D01*
X1426347Y1727050D01*
X1429040Y1725611D01*
X1430000Y1725319D01*
Y1735000D01*
D02*
G37*
G36*
X1380000D02*
X1370319D01*
X1370611Y1734040D01*
X1372050Y1731347D01*
X1373987Y1728987D01*
X1376347Y1727050D01*
X1379040Y1725611D01*
X1380000Y1725319D01*
Y1735000D01*
D02*
G37*
G36*
Y1754681D02*
X1379040Y1754389D01*
X1376347Y1752950D01*
X1373987Y1751013D01*
X1372050Y1748653D01*
X1370611Y1745960D01*
X1370319Y1745000D01*
X1380000D01*
Y1754681D01*
D02*
G37*
G36*
X1430000D02*
X1429040Y1754389D01*
X1426347Y1752950D01*
X1423987Y1751013D01*
X1422050Y1748653D01*
X1420611Y1745960D01*
X1420319Y1745000D01*
X1430000D01*
Y1754681D01*
D02*
G37*
G36*
X1399681Y1735000D02*
X1390000D01*
Y1725319D01*
X1390960Y1725611D01*
X1393653Y1727050D01*
X1396013Y1728987D01*
X1397950Y1731347D01*
X1399389Y1734040D01*
X1399681Y1735000D01*
D02*
G37*
G36*
X1449681D02*
X1440000D01*
Y1725319D01*
X1440960Y1725611D01*
X1443653Y1727050D01*
X1446013Y1728987D01*
X1447950Y1731347D01*
X1449389Y1734040D01*
X1449681Y1735000D01*
D02*
G37*
G36*
X1215000Y1610000D02*
X1199500D01*
Y1594500D01*
X1215000D01*
Y1610000D01*
D02*
G37*
G36*
X1240500D02*
X1225000D01*
Y1594500D01*
X1240500D01*
Y1610000D01*
D02*
G37*
G36*
X320000Y1550500D02*
X304500D01*
Y1535000D01*
X320000D01*
Y1550500D01*
D02*
G37*
G36*
X345500D02*
X330000D01*
Y1535000D01*
X345500D01*
Y1550500D01*
D02*
G37*
G36*
X1240500Y1635500D02*
X1225000D01*
Y1620000D01*
X1240500D01*
Y1635500D01*
D02*
G37*
G36*
X1215000D02*
X1199500D01*
Y1620000D01*
X1215000D01*
Y1635500D01*
D02*
G37*
G36*
X960783Y1898684D02*
X952500D01*
Y1890401D01*
X960783D01*
Y1898684D01*
D02*
G37*
G36*
X1385000Y1965000D02*
X1369500D01*
Y1949500D01*
X1385000D01*
Y1965000D01*
D02*
G37*
G36*
X1410500D02*
X1395000D01*
Y1949500D01*
X1410500D01*
Y1965000D01*
D02*
G37*
G36*
X942500Y1880401D02*
X934217D01*
Y1872119D01*
X942500D01*
Y1880401D01*
D02*
G37*
G36*
X960783D02*
X952500D01*
Y1872119D01*
X960783D01*
Y1880401D01*
D02*
G37*
G36*
X942500Y1898684D02*
X934217D01*
Y1890401D01*
X942500D01*
Y1898684D01*
D02*
G37*
G36*
X1410500Y1990500D02*
X1395000D01*
Y1975000D01*
X1410500D01*
Y1990500D01*
D02*
G37*
G36*
X1385000D02*
X1369500D01*
Y1975000D01*
X1385000D01*
Y1990500D01*
D02*
G37*
G36*
X155000Y1840000D02*
X139500D01*
Y1824500D01*
X155000D01*
Y1840000D01*
D02*
G37*
G36*
X180500D02*
X165000D01*
Y1824500D01*
X180500D01*
Y1840000D01*
D02*
G37*
G36*
X1390000Y1754681D02*
Y1745000D01*
X1399681D01*
X1399389Y1745960D01*
X1397950Y1748653D01*
X1396013Y1751013D01*
X1393653Y1752950D01*
X1390960Y1754389D01*
X1390000Y1754681D01*
D02*
G37*
G36*
X1440000D02*
Y1745000D01*
X1449681D01*
X1449389Y1745960D01*
X1447950Y1748653D01*
X1446013Y1751013D01*
X1443653Y1752950D01*
X1440960Y1754389D01*
X1440000Y1754681D01*
D02*
G37*
G36*
X180500Y1865500D02*
X165000D01*
Y1850000D01*
X180500D01*
Y1865500D01*
D02*
G37*
G36*
X155000D02*
X139500D01*
Y1850000D01*
X155000D01*
Y1865500D01*
D02*
G37*
G36*
X1352500Y1262500D02*
X1337000D01*
Y1247000D01*
X1352500D01*
Y1262500D01*
D02*
G37*
G36*
X1378000D02*
X1362500D01*
Y1247000D01*
X1378000D01*
Y1262500D01*
D02*
G37*
G36*
X155000Y1230500D02*
X139500D01*
Y1215000D01*
X155000D01*
Y1230500D01*
D02*
G37*
G36*
X180500D02*
X165000D01*
Y1215000D01*
X180500D01*
Y1230500D01*
D02*
G37*
G36*
X1378000Y1288000D02*
X1362500D01*
Y1272500D01*
X1378000D01*
Y1288000D01*
D02*
G37*
G36*
X1352500D02*
X1337000D01*
Y1272500D01*
X1352500D01*
Y1288000D01*
D02*
G37*
G36*
X320000Y1525000D02*
X304500D01*
Y1509500D01*
X320000D01*
Y1525000D01*
D02*
G37*
G36*
X345500D02*
X330000D01*
Y1509500D01*
X345500D01*
Y1525000D01*
D02*
G37*
G36*
X255000Y1864906D02*
X252117Y1864031D01*
X248556Y1862128D01*
X245434Y1859566D01*
X242872Y1856444D01*
X240969Y1852883D01*
X240094Y1850000D01*
X255000D01*
Y1864906D01*
D02*
G37*
G36*
X265000D02*
Y1850000D01*
X279906D01*
X279031Y1852883D01*
X277128Y1856444D01*
X274566Y1859566D01*
X271444Y1862128D01*
X267883Y1864031D01*
X265000Y1864906D01*
D02*
G37*
G36*
X255000Y1840000D02*
X240094D01*
X240969Y1837117D01*
X242872Y1833556D01*
X245434Y1830434D01*
X248556Y1827872D01*
X252117Y1825969D01*
X255000Y1825094D01*
Y1840000D01*
D02*
G37*
G36*
X279906D02*
X265000D01*
Y1825094D01*
X267883Y1825969D01*
X271444Y1827872D01*
X274566Y1830434D01*
X277128Y1833556D01*
X279031Y1837117D01*
X279906Y1840000D01*
D02*
G37*
G36*
X554500Y875250D02*
X545876D01*
X546834Y872937D01*
X549159Y869908D01*
X552187Y867584D01*
X554500Y866626D01*
Y875250D01*
D02*
G37*
G36*
X573124D02*
X564500D01*
Y866626D01*
X566813Y867584D01*
X569841Y869908D01*
X572166Y872937D01*
X573124Y875250D01*
D02*
G37*
G36*
X554500Y893873D02*
X552187Y892915D01*
X549159Y890591D01*
X546834Y887562D01*
X545876Y885250D01*
X554500D01*
Y893873D01*
D02*
G37*
G36*
X564500Y893873D02*
Y885250D01*
X573124D01*
X572166Y887562D01*
X569841Y890591D01*
X566813Y892915D01*
X564500Y893873D01*
D02*
G37*
G36*
X958500Y793859D02*
X954666Y792939D01*
X950521Y791222D01*
X946696Y788878D01*
X943285Y785965D01*
X940372Y782553D01*
X938028Y778728D01*
X936311Y774584D01*
X935391Y770750D01*
X958500D01*
Y793859D01*
D02*
G37*
G36*
X968500D02*
Y770750D01*
X991609D01*
X990689Y774584D01*
X988972Y778728D01*
X986628Y782553D01*
X983715Y785965D01*
X980304Y788878D01*
X976479Y791222D01*
X972334Y792939D01*
X968500Y793859D01*
D02*
G37*
G36*
X643610Y759750D02*
X615500D01*
X587391D01*
X588312Y755916D01*
X590028Y751771D01*
X592372Y747946D01*
X595286Y744535D01*
X598697Y741621D01*
X600715Y740385D01*
Y739115D01*
X598697Y737878D01*
X595286Y734965D01*
X592372Y731553D01*
X590028Y727728D01*
X588312Y723584D01*
X587391Y719750D01*
X615500D01*
X643610D01*
X642690Y723584D01*
X640973Y727728D01*
X638629Y731553D01*
X635715Y734965D01*
X632304Y737878D01*
X630286Y739115D01*
Y740385D01*
X632304Y741621D01*
X635715Y744535D01*
X638629Y747946D01*
X640973Y751771D01*
X642690Y755916D01*
X643610Y759750D01*
D02*
G37*
G36*
X991609Y760750D02*
X935391D01*
X936311Y756916D01*
X938028Y752771D01*
X940372Y748946D01*
X943285Y745535D01*
X946696Y742621D01*
X948715Y741385D01*
Y740115D01*
X946697Y738878D01*
X943286Y735965D01*
X940372Y732553D01*
X938028Y728728D01*
X936312Y724584D01*
X935391Y720750D01*
X991610D01*
X990689Y724584D01*
X988973Y728728D01*
X986629Y732553D01*
X983715Y735965D01*
X980304Y738878D01*
X978286Y740115D01*
Y741385D01*
X980304Y742621D01*
X983715Y745535D01*
X986628Y748946D01*
X988972Y752771D01*
X990689Y756916D01*
X991609Y760750D01*
D02*
G37*
G36*
X958501Y710750D02*
X935391D01*
X936312Y706916D01*
X938028Y702771D01*
X940372Y698946D01*
X943286Y695535D01*
X946697Y692621D01*
X950522Y690277D01*
X954666Y688561D01*
X958501Y687640D01*
Y710750D01*
D02*
G37*
G36*
X991610D02*
X968501D01*
Y687640D01*
X972335Y688561D01*
X976479Y690277D01*
X980304Y692621D01*
X983715Y695535D01*
X986629Y698946D01*
X988973Y702771D01*
X990689Y706916D01*
X991610Y710750D01*
D02*
G37*
G36*
X610500Y792859D02*
X606666Y791939D01*
X602522Y790222D01*
X598697Y787878D01*
X595286Y784965D01*
X592372Y781553D01*
X590028Y777729D01*
X588312Y773584D01*
X587391Y769750D01*
X610500D01*
Y792859D01*
D02*
G37*
G36*
X643610Y709750D02*
X620500D01*
Y686640D01*
X624335Y687561D01*
X628479Y689277D01*
X632304Y691621D01*
X635715Y694535D01*
X638629Y697946D01*
X640973Y701771D01*
X642690Y705916D01*
X643610Y709750D01*
D02*
G37*
G36*
X620500Y792859D02*
Y769750D01*
X643610D01*
X642690Y773584D01*
X640973Y777729D01*
X638629Y781553D01*
X635715Y784965D01*
X632304Y787878D01*
X628479Y790222D01*
X624335Y791939D01*
X620500Y792859D01*
D02*
G37*
G36*
X610500Y709750D02*
X587391D01*
X588312Y705916D01*
X590028Y701771D01*
X592372Y697946D01*
X595286Y694535D01*
X598697Y691621D01*
X602522Y689277D01*
X606666Y687561D01*
X610500Y686640D01*
Y709750D01*
D02*
G37*
G36*
X1217500Y194226D02*
X1216707Y193986D01*
X1214090Y192587D01*
X1211796Y190704D01*
X1209913Y188410D01*
X1208514Y185793D01*
X1208274Y185000D01*
X1217500D01*
Y194226D01*
D02*
G37*
G36*
X1176700Y194226D02*
Y185000D01*
X1185926D01*
X1185686Y185793D01*
X1184287Y188410D01*
X1182404Y190704D01*
X1180110Y192587D01*
X1177493Y193986D01*
X1176700Y194226D01*
D02*
G37*
G36*
X1227500D02*
Y185000D01*
X1236726D01*
X1236486Y185793D01*
X1235087Y188410D01*
X1233204Y190704D01*
X1230910Y192587D01*
X1228293Y193986D01*
X1227500Y194226D01*
D02*
G37*
G36*
X1166700Y194226D02*
X1165907Y193986D01*
X1163290Y192587D01*
X1160996Y190704D01*
X1159113Y188410D01*
X1157714Y185793D01*
X1157474Y185000D01*
X1166700D01*
Y194226D01*
D02*
G37*
G36*
X1236726Y175000D02*
X1227500D01*
Y165774D01*
X1228293Y166014D01*
X1230910Y167413D01*
X1233204Y169296D01*
X1235087Y171590D01*
X1236486Y174207D01*
X1236726Y175000D01*
D02*
G37*
G36*
X1166700D02*
X1157474D01*
X1157714Y174207D01*
X1159113Y171590D01*
X1160996Y169296D01*
X1163290Y167413D01*
X1165907Y166014D01*
X1166700Y165774D01*
Y175000D01*
D02*
G37*
G36*
X1217500D02*
X1208274D01*
X1208514Y174207D01*
X1209913Y171590D01*
X1211796Y169296D01*
X1214090Y167413D01*
X1216707Y166014D01*
X1217500Y165774D01*
Y175000D01*
D02*
G37*
G36*
X1185926D02*
X1176700D01*
Y165774D01*
X1177493Y166014D01*
X1180110Y167413D01*
X1182404Y169296D01*
X1184287Y171590D01*
X1185686Y174207D01*
X1185926Y175000D01*
D02*
G37*
G36*
X1023500Y558373D02*
Y549750D01*
X1032124D01*
X1031166Y552062D01*
X1028841Y555091D01*
X1025813Y557415D01*
X1023500Y558373D01*
D02*
G37*
G36*
X1013500Y558373D02*
X1011187Y557415D01*
X1008158Y555091D01*
X1005834Y552062D01*
X1004876Y549750D01*
X1013500D01*
Y558373D01*
D02*
G37*
G36*
Y539750D02*
X1004876D01*
X1005834Y537437D01*
X1008158Y534408D01*
X1011187Y532084D01*
X1013500Y531126D01*
Y539750D01*
D02*
G37*
G36*
X1032124D02*
X1023500D01*
Y531126D01*
X1025813Y532084D01*
X1028841Y534408D01*
X1031166Y537437D01*
X1032124Y539750D01*
D02*
G37*
G36*
X351700Y184226D02*
Y175000D01*
X360926D01*
X360686Y175793D01*
X359287Y178410D01*
X357404Y180704D01*
X355110Y182587D01*
X352493Y183986D01*
X351700Y184226D01*
D02*
G37*
G36*
X392500D02*
X391707Y183986D01*
X389090Y182587D01*
X386796Y180704D01*
X384913Y178410D01*
X383514Y175793D01*
X383274Y175000D01*
X392500D01*
Y184226D01*
D02*
G37*
G36*
X341700D02*
X340907Y183986D01*
X338290Y182587D01*
X335996Y180704D01*
X334113Y178410D01*
X332714Y175793D01*
X332474Y175000D01*
X341700D01*
Y184226D01*
D02*
G37*
G36*
X402500D02*
Y175000D01*
X411726D01*
X411486Y175793D01*
X410087Y178410D01*
X408204Y180704D01*
X405910Y182587D01*
X403293Y183986D01*
X402500Y184226D01*
D02*
G37*
G36*
X341700Y165000D02*
X332474D01*
X332714Y164207D01*
X334113Y161590D01*
X335996Y159296D01*
X338290Y157413D01*
X340907Y156014D01*
X341700Y155774D01*
Y165000D01*
D02*
G37*
G36*
X392500D02*
X383274D01*
X383514Y164207D01*
X384913Y161590D01*
X386796Y159296D01*
X389090Y157413D01*
X391707Y156014D01*
X392500Y155774D01*
Y165000D01*
D02*
G37*
G36*
X360926D02*
X351700D01*
Y155774D01*
X352493Y156014D01*
X355110Y157413D01*
X357404Y159296D01*
X359287Y161590D01*
X360686Y164207D01*
X360926Y165000D01*
D02*
G37*
G36*
X411726D02*
X402500D01*
Y155774D01*
X403293Y156014D01*
X405910Y157413D01*
X408204Y159296D01*
X410087Y161590D01*
X411486Y164207D01*
X411726Y165000D01*
D02*
G37*
G36*
X554500Y558373D02*
X552187Y557415D01*
X549159Y555091D01*
X546834Y552062D01*
X545876Y549750D01*
X554500D01*
Y558373D01*
D02*
G37*
G36*
X564500Y558373D02*
Y549750D01*
X573124D01*
X572166Y552062D01*
X569841Y555091D01*
X566813Y557415D01*
X564500Y558373D01*
D02*
G37*
G36*
X554500Y539750D02*
X545876D01*
X546834Y537437D01*
X549159Y534408D01*
X552187Y532084D01*
X554500Y531126D01*
Y539750D01*
D02*
G37*
G36*
X573124D02*
X564500D01*
Y531126D01*
X566813Y532084D01*
X569841Y534408D01*
X572166Y537437D01*
X573124Y539750D01*
D02*
G37*
G36*
X1032124Y594250D02*
X1023500D01*
Y585626D01*
X1025813Y586584D01*
X1028841Y588908D01*
X1031166Y591937D01*
X1032124Y594250D01*
D02*
G37*
G36*
X1013500D02*
X1004876D01*
X1005834Y591937D01*
X1008158Y588908D01*
X1011187Y586584D01*
X1013500Y585626D01*
Y594250D01*
D02*
G37*
G36*
X1023500Y612873D02*
Y604250D01*
X1032124D01*
X1031166Y606562D01*
X1028841Y609591D01*
X1025813Y611915D01*
X1023500Y612873D01*
D02*
G37*
G36*
X1114000Y612250D02*
X1110500D01*
Y605000D01*
X1114000D01*
Y612250D01*
D02*
G37*
G36*
X1127500D02*
X1124000D01*
Y605000D01*
X1127500D01*
Y612250D01*
D02*
G37*
G36*
X1114000Y595000D02*
X1110500D01*
Y587750D01*
X1114000D01*
Y595000D01*
D02*
G37*
G36*
X1127500D02*
X1124000D01*
Y587750D01*
X1127500D01*
Y595000D01*
D02*
G37*
G36*
X1013500Y612873D02*
X1011187Y611915D01*
X1008158Y609591D01*
X1005834Y606562D01*
X1004876Y604250D01*
X1013500D01*
Y612873D01*
D02*
G37*
G36*
X1380000Y1535500D02*
X1369500D01*
Y1525000D01*
X1380000D01*
Y1535500D01*
D02*
G37*
G36*
X1400500D02*
X1390000D01*
Y1525000D01*
X1400500D01*
Y1535500D01*
D02*
G37*
G36*
X1430000Y1534681D02*
X1429040Y1534389D01*
X1426347Y1532950D01*
X1423987Y1531013D01*
X1422050Y1528653D01*
X1420611Y1525960D01*
X1420319Y1525000D01*
X1430000D01*
Y1534681D01*
D02*
G37*
G36*
X1440000D02*
Y1525000D01*
X1449681D01*
X1449389Y1525960D01*
X1447950Y1528653D01*
X1446013Y1531013D01*
X1443653Y1532950D01*
X1440960Y1534389D01*
X1440000Y1534681D01*
D02*
G37*
G36*
X1380000Y1515000D02*
X1369500D01*
Y1504500D01*
X1380000D01*
Y1515000D01*
D02*
G37*
G36*
X1400500D02*
X1390000D01*
Y1504500D01*
X1400500D01*
Y1515000D01*
D02*
G37*
G36*
X1430000D02*
X1420319D01*
X1420611Y1514040D01*
X1422050Y1511347D01*
X1423987Y1508987D01*
X1426347Y1507050D01*
X1429040Y1505611D01*
X1430000Y1505319D01*
Y1515000D01*
D02*
G37*
G36*
X1449681D02*
X1440000D01*
Y1505319D01*
X1440960Y1505611D01*
X1443653Y1507050D01*
X1446013Y1508987D01*
X1447950Y1511347D01*
X1449389Y1514040D01*
X1449681Y1515000D01*
D02*
G37*
G36*
X430000Y1549906D02*
Y1535000D01*
X444906D01*
X444031Y1537883D01*
X442128Y1541444D01*
X439566Y1544566D01*
X436444Y1547128D01*
X432883Y1549031D01*
X430000Y1549906D01*
D02*
G37*
G36*
X420000D02*
X417117Y1549031D01*
X413556Y1547128D01*
X410434Y1544566D01*
X407872Y1541444D01*
X405969Y1537883D01*
X405094Y1535000D01*
X420000D01*
Y1549906D01*
D02*
G37*
G36*
X444906Y1525000D02*
X430000D01*
Y1510094D01*
X432883Y1510969D01*
X436444Y1512872D01*
X439566Y1515434D01*
X442128Y1518556D01*
X444031Y1522117D01*
X444906Y1525000D01*
D02*
G37*
G36*
X420000D02*
X405094D01*
X405969Y1522117D01*
X407872Y1518556D01*
X410434Y1515434D01*
X413556Y1512872D01*
X417117Y1510969D01*
X420000Y1510094D01*
Y1525000D01*
D02*
G37*
G36*
X1115000Y1634906D02*
X1112117Y1634031D01*
X1108556Y1632128D01*
X1105434Y1629566D01*
X1102872Y1626444D01*
X1100969Y1622883D01*
X1100094Y1620000D01*
X1115000D01*
Y1634906D01*
D02*
G37*
G36*
X1125000D02*
Y1620000D01*
X1139906D01*
X1139031Y1622883D01*
X1137128Y1626444D01*
X1134566Y1629566D01*
X1131444Y1632128D01*
X1127883Y1634031D01*
X1125000Y1634906D01*
D02*
G37*
G36*
X1115000Y1610000D02*
X1100094D01*
X1100969Y1607117D01*
X1102872Y1603556D01*
X1105434Y1600434D01*
X1108556Y1597872D01*
X1112117Y1595969D01*
X1115000Y1595094D01*
Y1610000D01*
D02*
G37*
G36*
X1139906D02*
X1125000D01*
Y1595094D01*
X1127883Y1595969D01*
X1131444Y1597872D01*
X1134566Y1600434D01*
X1137128Y1603556D01*
X1139031Y1607117D01*
X1139906Y1610000D01*
D02*
G37*
G36*
X1023500Y1002873D02*
Y994250D01*
X1032123D01*
X1031166Y996562D01*
X1028841Y999591D01*
X1025813Y1001915D01*
X1023500Y1002873D01*
D02*
G37*
G36*
X1013500Y984250D02*
X1004876D01*
X1005834Y981937D01*
X1008158Y978908D01*
X1011188Y976584D01*
X1013500Y975626D01*
Y984250D01*
D02*
G37*
G36*
Y1002873D02*
X1011188Y1001915D01*
X1008158Y999591D01*
X1005834Y996562D01*
X1004876Y994250D01*
X1013500D01*
Y1002873D01*
D02*
G37*
G36*
X1032124Y984250D02*
X1023500D01*
Y975626D01*
X1025813Y976584D01*
X1028841Y978908D01*
X1031166Y981937D01*
X1032124Y984250D01*
D02*
G37*
G36*
X1285000Y1989906D02*
X1282117Y1989031D01*
X1278556Y1987128D01*
X1275434Y1984566D01*
X1272872Y1981444D01*
X1270969Y1977883D01*
X1270094Y1975000D01*
X1285000D01*
Y1989906D01*
D02*
G37*
G36*
X1295000Y1989906D02*
Y1975000D01*
X1309906D01*
X1309031Y1977883D01*
X1307128Y1981444D01*
X1304566Y1984566D01*
X1301444Y1987128D01*
X1297883Y1989031D01*
X1295000Y1989906D01*
D02*
G37*
G36*
X1309906Y1965000D02*
X1295000D01*
Y1950094D01*
X1297883Y1950969D01*
X1301444Y1952872D01*
X1304566Y1955434D01*
X1307128Y1958556D01*
X1309031Y1962117D01*
X1309906Y1965000D01*
D02*
G37*
G36*
X1285000D02*
X1270094D01*
X1270969Y1962117D01*
X1272872Y1958556D01*
X1275434Y1955434D01*
X1278556Y1952872D01*
X1282117Y1950969D01*
X1285000Y1950094D01*
Y1965000D01*
D02*
G37*
G36*
X991609Y1300000D02*
X968500D01*
Y1276890D01*
X972334Y1277811D01*
X976479Y1279528D01*
X980304Y1281871D01*
X983715Y1284785D01*
X986628Y1288196D01*
X988972Y1292021D01*
X990689Y1296165D01*
X991609Y1300000D01*
D02*
G37*
G36*
X610500Y1332109D02*
X606666Y1331189D01*
X602522Y1329472D01*
X598697Y1327128D01*
X595286Y1324215D01*
X592372Y1320803D01*
X590028Y1316978D01*
X588312Y1312834D01*
X587391Y1309000D01*
X610500D01*
Y1332109D01*
D02*
G37*
G36*
X620500Y1332109D02*
Y1309000D01*
X643610D01*
X642690Y1312834D01*
X640973Y1316978D01*
X638629Y1320803D01*
X635715Y1324215D01*
X632304Y1327128D01*
X628479Y1329472D01*
X624335Y1331189D01*
X620500Y1332109D01*
D02*
G37*
G36*
X643610Y1299000D02*
X620500D01*
Y1275890D01*
X624335Y1276811D01*
X628479Y1278528D01*
X632304Y1280871D01*
X635715Y1283785D01*
X638629Y1287196D01*
X640973Y1291021D01*
X642690Y1295166D01*
X643610Y1299000D01*
D02*
G37*
G36*
X610500D02*
X587391D01*
X588312Y1295166D01*
X590028Y1291021D01*
X592372Y1287196D01*
X595286Y1283785D01*
X598697Y1280871D01*
X602522Y1278528D01*
X606666Y1276811D01*
X610500Y1275890D01*
Y1299000D01*
D02*
G37*
G36*
X958500Y1300000D02*
X935391D01*
X936311Y1296165D01*
X938028Y1292021D01*
X940372Y1288196D01*
X943285Y1284785D01*
X946696Y1281871D01*
X950521Y1279528D01*
X954666Y1277811D01*
X958500Y1276890D01*
Y1300000D01*
D02*
G37*
G36*
Y1333109D02*
X954666Y1332189D01*
X950521Y1330472D01*
X946696Y1328128D01*
X943285Y1325215D01*
X940372Y1321803D01*
X938028Y1317978D01*
X936311Y1313834D01*
X935391Y1310000D01*
X958500D01*
Y1333109D01*
D02*
G37*
G36*
X968500D02*
Y1310000D01*
X991609D01*
X990689Y1313834D01*
X988972Y1317978D01*
X986628Y1321803D01*
X983715Y1325215D01*
X980304Y1328128D01*
X976479Y1330472D01*
X972334Y1332189D01*
X968500Y1333109D01*
D02*
G37*
G36*
X610500Y203609D02*
X606666Y202689D01*
X602522Y200972D01*
X598697Y198628D01*
X595286Y195715D01*
X592372Y192303D01*
X590028Y188478D01*
X588312Y184334D01*
X587391Y180499D01*
X610500D01*
Y203609D01*
D02*
G37*
G36*
X620500Y203609D02*
Y180499D01*
X643610D01*
X642690Y184334D01*
X640973Y188478D01*
X638629Y192303D01*
X635715Y195715D01*
X632304Y198628D01*
X628479Y200972D01*
X624335Y202689D01*
X620500Y203609D01*
D02*
G37*
G36*
X958501Y204609D02*
X954666Y203689D01*
X950522Y201972D01*
X946697Y199628D01*
X943286Y196715D01*
X940372Y193303D01*
X938028Y189478D01*
X936312Y185334D01*
X935391Y181500D01*
X958501D01*
Y204609D01*
D02*
G37*
G36*
X968501D02*
Y181500D01*
X991610D01*
X990689Y185334D01*
X988973Y189478D01*
X986629Y193303D01*
X983715Y196715D01*
X980304Y199628D01*
X976479Y201972D01*
X972335Y203689D01*
X968501Y204609D01*
D02*
G37*
G36*
X991610Y171500D02*
X968501D01*
Y148390D01*
X972335Y149311D01*
X976479Y151027D01*
X980304Y153371D01*
X983715Y156285D01*
X986629Y159696D01*
X988973Y163521D01*
X990689Y167666D01*
X991610Y171500D01*
D02*
G37*
G36*
X643610Y170500D02*
X620500D01*
Y147390D01*
X624335Y148311D01*
X628479Y150028D01*
X632304Y152371D01*
X635715Y155285D01*
X638629Y158696D01*
X640973Y162521D01*
X642690Y166665D01*
X643610Y170500D01*
D02*
G37*
G36*
X610500D02*
X587391D01*
X588312Y166665D01*
X590028Y162521D01*
X592372Y158696D01*
X595286Y155285D01*
X598697Y152371D01*
X602522Y150028D01*
X606666Y148311D01*
X610500Y147390D01*
Y170500D01*
D02*
G37*
G36*
X958501Y171500D02*
X935391D01*
X936312Y167666D01*
X938028Y163521D01*
X940372Y159696D01*
X943286Y156285D01*
X946697Y153371D01*
X950522Y151027D01*
X954666Y149311D01*
X958501Y148390D01*
Y171500D01*
D02*
G37*
G36*
X564500Y948373D02*
Y939750D01*
X573124D01*
X572166Y942062D01*
X569841Y945091D01*
X566813Y947415D01*
X564500Y948373D01*
D02*
G37*
G36*
X573124Y929750D02*
X564500D01*
Y921126D01*
X566813Y922084D01*
X569841Y924408D01*
X572166Y927437D01*
X573124Y929750D01*
D02*
G37*
G36*
X554500Y948373D02*
X552187Y947415D01*
X549159Y945091D01*
X546834Y942062D01*
X545876Y939750D01*
X554500D01*
Y948373D01*
D02*
G37*
G36*
Y929750D02*
X545876D01*
X546834Y927437D01*
X549159Y924408D01*
X552187Y922084D01*
X554500Y921126D01*
Y929750D01*
D02*
G37*
%LPD*%
D10*
X1445000Y377250D02*
D03*
Y342750D02*
D03*
X125000Y382250D02*
D03*
Y347750D02*
D03*
D11*
X1404050Y322250D02*
D03*
X1391350D02*
D03*
X1378650D02*
D03*
X1365950D02*
D03*
X1404050Y267750D02*
D03*
X1391350D02*
D03*
X1378650D02*
D03*
X209050Y319750D02*
D03*
X196350D02*
D03*
X183650D02*
D03*
X170950D02*
D03*
X209050Y265250D02*
D03*
X196350D02*
D03*
X183650D02*
D03*
D12*
X1365950Y267750D02*
D03*
X170950Y265250D02*
D03*
D13*
X1097000Y495000D02*
D03*
X1143000D02*
D03*
X1077000Y860000D02*
D03*
X1123000D02*
D03*
X478000Y610000D02*
D03*
X432000D02*
D03*
X478000Y985000D02*
D03*
X432000D02*
D03*
D14*
X1260000Y742000D02*
D03*
Y788000D02*
D03*
X1122500Y742000D02*
D03*
Y788000D02*
D03*
X447500Y729500D02*
D03*
Y775500D02*
D03*
X312500Y734500D02*
D03*
Y780500D02*
D03*
D15*
X1370000Y388000D02*
D03*
X207500Y370500D02*
D03*
D16*
X1347000Y447000D02*
D03*
X1370000D02*
D03*
X1393000D02*
D03*
X184500Y429500D02*
D03*
X207500D02*
D03*
X230500D02*
D03*
D17*
X1505748Y202780D02*
D03*
X1474252D02*
D03*
X1505748Y167220D02*
D03*
X1474252D02*
D03*
X92748Y199555D02*
D03*
X61252D02*
D03*
X92748Y163995D02*
D03*
X61252D02*
D03*
D18*
X1430500Y152500D02*
D03*
X1414500D02*
D03*
X127000Y172500D02*
D03*
X143000D02*
D03*
X1380500Y485000D02*
D03*
X1364500D02*
D03*
X220500Y480000D02*
D03*
X204500D02*
D03*
D19*
X1395043Y240500D02*
D03*
Y224500D02*
D03*
X1377500Y240500D02*
D03*
Y224500D02*
D03*
X197500Y240500D02*
D03*
Y224500D02*
D03*
X180000Y240500D02*
D03*
Y224500D02*
D03*
D20*
X1194750Y835000D02*
D03*
X1160250D02*
D03*
X384750Y825000D02*
D03*
X350250D02*
D03*
D21*
X1402500Y177250D02*
D03*
Y192750D02*
D03*
X1380000Y177250D02*
D03*
Y192750D02*
D03*
X197500Y174750D02*
D03*
Y190250D02*
D03*
X175000Y174750D02*
D03*
Y190250D02*
D03*
D22*
X125000Y399500D02*
D03*
Y420500D02*
D03*
X1445000Y394500D02*
D03*
Y415500D02*
D03*
D23*
X1119000Y600000D02*
D03*
X1151000D02*
D03*
X1099000Y525000D02*
D03*
X1131000D02*
D03*
X1119000Y1000000D02*
D03*
X1151000D02*
D03*
X1076500Y830000D02*
D03*
X1108500D02*
D03*
X466000Y490000D02*
D03*
X434000D02*
D03*
X476000Y575000D02*
D03*
X444000D02*
D03*
X493500Y865000D02*
D03*
X461500D02*
D03*
X473500Y1012500D02*
D03*
X441500D02*
D03*
D24*
X1151900Y737750D02*
D03*
X341900Y727750D02*
D03*
D25*
X1164600Y737750D02*
D03*
X1177300D02*
D03*
X1190000D02*
D03*
X1202700D02*
D03*
X1215400D02*
D03*
X1228100D02*
D03*
X1151900Y792250D02*
D03*
X1164600D02*
D03*
X1177300D02*
D03*
X1190000D02*
D03*
X1202700D02*
D03*
X1215400D02*
D03*
X1228100D02*
D03*
X354600Y727750D02*
D03*
X367300D02*
D03*
X380000D02*
D03*
X392700D02*
D03*
X405400D02*
D03*
X418100D02*
D03*
X341900Y782250D02*
D03*
X354600D02*
D03*
X367300D02*
D03*
X380000D02*
D03*
X392700D02*
D03*
X405400D02*
D03*
X418100D02*
D03*
D26*
X392500Y715000D02*
Y727950D01*
X1202700Y725200D02*
Y749800D01*
X405400Y712900D02*
Y727750D01*
X1190000Y792250D02*
Y802500D01*
Y737750D02*
Y750000D01*
X1228100Y726900D02*
Y737750D01*
X1177300Y727700D02*
Y737750D01*
Y792250D02*
Y802300D01*
X1164600Y792250D02*
Y802100D01*
X1160000Y834750D02*
X1160250Y835000D01*
X1202700Y749800D02*
X1202898Y749998D01*
X1204998D01*
X1378650Y322250D02*
Y333850D01*
X1391350Y322250D02*
Y338650D01*
X1404050Y322250D02*
Y329050D01*
X1407500Y332500D01*
X1412500D01*
X1417500Y327500D01*
Y325000D02*
Y327500D01*
X1353750Y322500D02*
Y323750D01*
X1385000Y345000D02*
X1391350Y338650D01*
X1375500Y337000D02*
X1378650Y333850D01*
X1353750Y323750D02*
X1359000Y329000D01*
X1365950D01*
Y322250D02*
Y329000D01*
X1298000Y337000D02*
X1375500D01*
X1305000Y345000D02*
X1385000D01*
X1380000Y162500D02*
Y177250D01*
X1414999Y110000D02*
Y127501D01*
X1380000Y162500D02*
X1414999Y127501D01*
X1400000Y165000D02*
X1402500Y167500D01*
Y177250D01*
X1380000Y192750D02*
Y200000D01*
X1362500Y217500D02*
X1380000Y200000D01*
X1362500Y217500D02*
Y237500D01*
X1365500Y240500D01*
X1377500D01*
X1355000Y247500D02*
Y252500D01*
X1357500Y255000D01*
X1362500D01*
X1365950Y258450D01*
Y267750D01*
X1395043Y240500D02*
X1405737D01*
X1410000Y252500D02*
X1415000Y247500D01*
X1407500Y252500D02*
X1410000D01*
X1404050Y255950D02*
X1407500Y252500D01*
X1404050Y255950D02*
Y267750D01*
X1391350Y253650D02*
Y267750D01*
Y253650D02*
X1395043Y249958D01*
Y240500D02*
Y249958D01*
X1378650Y256150D02*
Y267750D01*
X1377500Y255000D02*
X1378650Y256150D01*
X1377500Y240500D02*
Y255000D01*
X1405737Y240500D02*
X1410000Y236236D01*
X1402500Y192750D02*
Y202500D01*
X1410000Y210000D01*
Y236236D01*
X1151900Y719400D02*
Y737750D01*
X1164600Y714600D02*
Y737750D01*
X1155000Y705000D02*
X1164600Y714600D01*
X1155000Y667500D02*
Y705000D01*
X1215400Y725400D02*
Y737750D01*
X1142500Y710000D02*
X1151900Y719400D01*
X1142500Y657500D02*
Y710000D01*
X1277500Y607500D02*
Y657500D01*
X1262500Y610000D02*
Y657500D01*
X1292500Y342500D02*
X1298000Y337000D01*
X1292500Y342500D02*
Y580000D01*
X1262500Y610000D02*
X1292500Y580000D01*
X1300500Y349500D02*
X1305000Y345000D01*
X1300500Y349500D02*
Y584500D01*
X1277500Y607500D02*
X1300500Y584500D01*
X354600Y782250D02*
X355000Y782650D01*
X380000Y782250D02*
Y792500D01*
X354600Y782250D02*
Y792100D01*
X367300Y782250D02*
Y792300D01*
X367500Y712500D02*
Y727550D01*
X367300Y727750D02*
X367500Y727550D01*
X377250Y737750D02*
Y742750D01*
Y737750D02*
X380000Y735000D01*
Y727750D02*
Y735000D01*
X392500Y727950D02*
Y742500D01*
X390000Y712500D02*
X392500Y715000D01*
Y727950D02*
X392700Y727750D01*
X418100Y714400D02*
X422500Y710000D01*
X418100Y714400D02*
Y727750D01*
X209050Y325000D02*
X220000D01*
X209050Y319750D02*
Y325000D01*
X165000Y332500D02*
X170000D01*
X196350Y319750D02*
Y328850D01*
X170950Y319750D02*
Y331550D01*
X170000Y332500D02*
X170950Y331550D01*
X183650Y319750D02*
Y328650D01*
X341900Y715600D02*
Y727750D01*
X354750Y715000D02*
X355000Y715250D01*
Y727500D01*
X222500Y250000D02*
Y262500D01*
X210000Y250000D02*
X222500D01*
X209050Y250950D02*
X210000Y250000D01*
X209050Y250950D02*
Y265250D01*
X152500Y252500D02*
Y262500D01*
Y252500D02*
X155000Y250000D01*
X170950Y253450D02*
Y265250D01*
X183650Y256150D02*
Y265250D01*
X180000Y252500D02*
X183650Y256150D01*
X180000Y240500D02*
Y252500D01*
X196350Y256150D02*
Y265250D01*
Y256150D02*
X197500Y255000D01*
Y240500D02*
Y255000D01*
X155000Y250000D02*
X167500D01*
X170950Y253450D01*
X197500Y240500D02*
X198000Y240000D01*
X162750Y232750D02*
X170500Y240500D01*
X180000D01*
X198000Y240000D02*
X207500D01*
X167250Y190250D02*
X175000D01*
X162750Y194750D02*
X167250Y190250D01*
X162750Y194750D02*
Y232750D01*
X197500Y190250D02*
X207750D01*
X207500Y240000D02*
X212500Y235000D01*
X207750Y190250D02*
X212500Y195000D01*
Y235000D01*
X175000Y162500D02*
Y174750D01*
X150000Y137500D02*
X175000Y162500D01*
X150000Y110001D02*
Y137500D01*
Y110001D02*
X150001Y110000D01*
X197500Y162500D02*
Y174750D01*
X170000Y135000D02*
X197500Y162500D01*
X170000Y110001D02*
Y135000D01*
X169999Y110000D02*
X170000Y110001D01*
D27*
X354600Y797500D02*
Y802100D01*
Y792100D02*
Y797500D01*
X312500Y780500D02*
Y792500D01*
X317500Y797500D01*
X354600D01*
X442500Y719500D02*
X450000Y727000D01*
X442500Y710000D02*
Y719500D01*
X252500Y337500D02*
X285000Y370000D01*
X274500Y374500D02*
Y647000D01*
X248000Y348000D02*
X274500Y374500D01*
Y647000D02*
X341900Y714400D01*
X185500Y348000D02*
X248000D01*
X183650Y346150D02*
X185500Y348000D01*
X48995Y163995D02*
X61252D01*
X45000Y160000D02*
X48995Y163995D01*
X405400Y610000D02*
Y712900D01*
Y610000D02*
X432000D01*
X1123000Y860000D02*
X1170000D01*
X1177300Y852700D01*
Y802300D02*
Y852700D01*
X1190000Y802500D02*
Y808750D01*
X1125000Y807500D02*
X1164600D01*
X1122500Y805000D02*
X1125000Y807500D01*
X1177500Y717500D02*
Y722500D01*
X1177300Y722700D02*
X1177500Y722500D01*
X1177300Y722700D02*
Y727700D01*
X1164600Y807500D02*
Y815400D01*
Y802100D02*
Y807500D01*
X1160000Y820000D02*
X1164600Y815400D01*
X1160000Y820000D02*
Y834750D01*
X1122500Y788000D02*
Y805000D01*
X1190000Y808750D02*
Y815000D01*
Y808750D02*
X1191250Y807500D01*
X1260000D01*
Y788000D02*
Y807500D01*
X1160000Y834750D02*
Y835000D01*
X1194750Y819750D02*
Y835000D01*
X1190000Y815000D02*
X1194750Y819750D01*
X1177500Y717500D02*
X1182500Y712500D01*
X1228100Y716900D02*
Y726900D01*
Y716900D02*
X1232500Y712500D01*
X1445000Y415500D02*
Y430000D01*
Y377250D02*
Y394500D01*
X1442500Y340250D02*
X1445000Y342750D01*
X1442500Y325000D02*
Y340250D01*
X1393000Y447000D02*
Y467000D01*
X1348000Y388000D02*
X1370000D01*
X1342500Y382500D02*
X1348000Y388000D01*
X1342500Y367500D02*
Y382500D01*
Y367500D02*
X1345000Y365000D01*
X1393000Y437500D02*
Y447000D01*
Y437500D02*
X1405000D01*
X1412500Y430000D01*
Y362500D02*
Y430000D01*
X1455000Y110000D02*
Y120000D01*
X1430500Y144500D02*
Y152500D01*
Y144500D02*
X1455000Y120000D01*
X1434998Y110000D02*
Y122502D01*
X1414500Y143000D02*
Y152500D01*
Y143000D02*
X1434998Y122502D01*
X1390000Y210000D02*
Y224500D01*
X1377500D02*
X1390000D01*
X1395043D01*
X1422500Y207500D02*
Y227500D01*
X1430500Y152500D02*
Y179500D01*
X1430000Y180000D02*
X1430500Y179500D01*
X1414500Y199500D02*
X1422500Y207500D01*
X1414500Y152500D02*
Y199500D01*
X1182500Y712500D02*
X1195000D01*
X1202700Y720200D01*
Y725200D01*
X1209469Y682500D02*
X1229719Y702750D01*
X1230250D01*
X1232500Y705000D01*
Y712299D01*
X1260000Y742000D02*
X1262497Y739502D01*
X1260000Y737005D02*
X1262497Y739502D01*
X1260000Y725000D02*
Y737005D01*
X1108500Y830000D02*
X1122500D01*
Y859500D01*
X1123000Y860000D01*
X445000Y797500D02*
X447500Y795000D01*
Y775500D02*
Y795000D01*
X380000Y802500D02*
X384750Y807250D01*
Y825000D01*
X380000Y797500D02*
X445000D01*
X380000Y792500D02*
Y797500D01*
Y802500D01*
X350250Y806450D02*
Y825000D01*
Y806450D02*
X354600Y802100D01*
X367300Y792300D02*
X367500Y792500D01*
Y865000D01*
X382500Y880000D01*
X402500D01*
X432000Y985000D02*
Y1012500D01*
X441500D01*
X473500Y989500D02*
X478000Y985000D01*
X473500Y989500D02*
Y1012500D01*
X478000Y985000D02*
X555250D01*
X559500Y989250D01*
X402500Y880000D02*
X417500Y895000D01*
Y982500D01*
X420000Y985000D01*
X432000D01*
X384750Y825000D02*
X385000Y825250D01*
Y855000D01*
X395000Y865000D01*
X461500D01*
X447500Y729500D02*
X450000Y727000D01*
X367500Y712500D02*
X390000D01*
X431500Y492500D02*
X434000Y490000D01*
X125000Y382250D02*
Y399500D01*
Y420500D02*
Y432500D01*
Y335000D02*
Y347750D01*
X1442500Y432500D02*
X1445000Y430000D01*
X1380500Y485000D02*
X1400000D01*
Y496500D01*
X1332500Y480000D02*
X1337500Y485000D01*
X1332500Y475000D02*
Y480000D01*
X1347000Y447000D02*
Y469500D01*
X1350000Y472500D01*
X1337500Y485000D02*
X1364500D01*
X1365000D01*
X1350000Y472500D02*
X1362500D01*
X1365000Y475000D01*
Y485000D01*
X1380500Y474500D02*
Y485000D01*
Y474500D02*
X1387500Y467500D01*
X1392500D01*
X180000Y480000D02*
X204500D01*
X177500Y482500D02*
X180000Y480000D01*
X177500Y482500D02*
Y487500D01*
X245000Y467500D02*
Y472500D01*
X184500Y429500D02*
Y459500D01*
X190000Y465000D01*
X200000D01*
X205000Y470000D01*
Y480000D01*
X230500Y429500D02*
Y457000D01*
X220000Y467500D02*
X230500Y457000D01*
X220000Y467500D02*
Y480000D01*
X183650Y328650D02*
Y346150D01*
X196350Y328850D02*
Y331350D01*
X202500Y337500D01*
X252500D01*
X422500Y492500D02*
X431500D01*
X390000Y525000D02*
X422500Y492500D01*
X390000Y525000D02*
Y712500D01*
X444000Y575000D02*
X444000Y575000D01*
X405400Y592100D02*
Y610000D01*
Y592100D02*
X422500Y575000D01*
X444000D01*
X237500Y480000D02*
X245000Y472500D01*
X220500Y480000D02*
X237500D01*
X341900Y714400D02*
Y715600D01*
X285000Y370000D02*
Y642500D01*
X354750Y712250D01*
Y715000D01*
X110000Y110000D02*
Y137500D01*
X127500Y155000D01*
Y172500D01*
X130002Y110000D02*
Y137498D01*
X142500Y149995D01*
Y172500D01*
X108995Y163995D02*
X110000Y165000D01*
X92748Y163995D02*
X108995D01*
X127000Y172500D02*
Y239500D01*
X127500Y240000D01*
X143000Y172500D02*
Y227000D01*
X188750Y211250D02*
Y224500D01*
D28*
X42500Y200000D02*
X42945Y199555D01*
X61252D01*
X130002Y87502D02*
Y110000D01*
X125000Y82500D02*
X130002Y87502D01*
X75000Y82500D02*
X125000D01*
X69923Y87577D02*
X75000Y82500D01*
X69923Y87577D02*
Y110000D01*
X558750Y600000D02*
X559500Y599250D01*
X530000Y600000D02*
X558750D01*
X520000Y610000D02*
X530000Y600000D01*
X478000Y610000D02*
X520000D01*
X476000Y608000D02*
X478000Y610000D01*
X476000Y575000D02*
Y608000D01*
X1122500Y722500D02*
Y742000D01*
X1018500Y989250D02*
X1034250D01*
X1045000Y1000000D01*
X1119000D01*
X1151000Y899000D02*
Y1000000D01*
X1143000Y495000D02*
Y524500D01*
X1142500Y525000D02*
X1143000Y524500D01*
X1131000Y525000D02*
X1142500D01*
X1172500D01*
X1082500Y522500D02*
X1085000Y525000D01*
X1099000D01*
X1082500Y495000D02*
Y522500D01*
X1065250Y490250D02*
X1070000Y495000D01*
X1018500Y490250D02*
X1065250D01*
X1070000Y495000D02*
X1082500D01*
X1097000D01*
X1530000Y152500D02*
Y162500D01*
X1525280Y167220D02*
X1530000Y162500D01*
X1505748Y167220D02*
X1525280D01*
X1451000Y171500D02*
Y178500D01*
Y171500D02*
X1455280Y167220D01*
X1474252D01*
Y202780D02*
Y226752D01*
X1505748Y248248D02*
X1507500Y250000D01*
X1505748Y202780D02*
Y248248D01*
X1474252Y226752D02*
X1475000Y227500D01*
X1507500Y250000D02*
X1530000D01*
X1427750Y377250D02*
X1445000D01*
X1370000Y388000D02*
Y447000D01*
X1425000Y380000D02*
Y457500D01*
Y380000D02*
X1427750Y377250D01*
X1434998Y97502D02*
Y110000D01*
X1495077Y97577D02*
Y110000D01*
X1487500Y90000D02*
X1495077Y97577D01*
X1434998Y97502D02*
X1442500Y90000D01*
X1487500D01*
X1455000Y145000D02*
X1522500D01*
X1530000Y152500D01*
X1151000Y600000D02*
X1165000D01*
X1215400Y712017D02*
Y725400D01*
X1172500Y525000D02*
X1185000Y537500D01*
X1165000Y600000D02*
X1172000Y607000D01*
Y697000D02*
X1172500Y697500D01*
X1172000Y607000D02*
Y697000D01*
X1185000Y537500D02*
Y681617D01*
X1215400Y712017D01*
X1235000Y587500D02*
Y690000D01*
Y587500D02*
X1247500Y575000D01*
Y495000D02*
Y575000D01*
X1232500Y712500D02*
X1249000D01*
Y598500D02*
Y712500D01*
X1262500Y475000D02*
Y585000D01*
X1249000Y598500D02*
X1262500Y585000D01*
X1076500Y830000D02*
Y859500D01*
X1077000Y860000D01*
X1022500D02*
X1077000D01*
X1018500Y864000D02*
X1022500Y860000D01*
X1018500Y864000D02*
Y880250D01*
X1151000Y899000D02*
X1194750Y855250D01*
Y835000D02*
Y855250D01*
X544250Y865000D02*
X559500Y880250D01*
X493500Y865000D02*
X544250D01*
X312500Y710000D02*
Y734500D01*
X125000Y347750D02*
X142750D01*
X147500Y352500D01*
Y365000D01*
X125000Y382250D02*
X139750D01*
X145000Y387500D01*
Y420000D01*
X207500Y370500D02*
Y429500D01*
X230500Y409500D02*
Y429500D01*
X170000Y370000D02*
X170500Y370500D01*
X207500D01*
X170000Y365000D02*
Y370000D01*
X237500Y365000D02*
Y402500D01*
X230500Y409500D02*
X237500Y402500D01*
X337500Y487500D02*
Y670000D01*
X360000Y487500D02*
Y665000D01*
X370000Y672500D01*
X92748Y199555D02*
X93193Y200000D01*
X110000D01*
D29*
X947500Y1964599D02*
D03*
Y1925000D02*
D03*
D30*
Y1885401D02*
D03*
D31*
X1475000Y402400D02*
D03*
Y377000D02*
D03*
Y351600D02*
D03*
Y275400D02*
D03*
X60000Y397575D02*
D03*
Y372175D02*
D03*
Y346775D02*
D03*
Y270575D02*
D03*
D32*
X1475000Y250000D02*
D03*
X60000Y245175D02*
D03*
D33*
X1485000Y1740000D02*
D03*
X1435000D02*
D03*
X1385000D02*
D03*
X1435000Y1520000D02*
D03*
X1485000D02*
D03*
X1535000D02*
D03*
D34*
Y1740000D02*
D03*
X1385000Y1520000D02*
D03*
D35*
X69923Y110000D02*
D03*
X90002D02*
D03*
X110000D02*
D03*
X130002D02*
D03*
X150001D02*
D03*
X1495077Y110000D02*
D03*
X1474998D02*
D03*
X1455000D02*
D03*
X1434998D02*
D03*
X1414999D02*
D03*
D36*
X169999Y110000D02*
D03*
X1395001Y110000D02*
D03*
D37*
X1018500Y880250D02*
D03*
X559500Y989250D02*
D03*
Y599250D02*
D03*
X1018500Y490250D02*
D03*
D38*
Y934750D02*
D03*
Y989250D02*
D03*
X559500Y934750D02*
D03*
Y880250D02*
D03*
Y544750D02*
D03*
Y490250D02*
D03*
X1018500Y544750D02*
D03*
Y599250D02*
D03*
D39*
X325000Y1530000D02*
D03*
X1390000Y1970000D02*
D03*
X1220000Y1615000D02*
D03*
X1357500Y1267500D02*
D03*
X160000Y1845000D02*
D03*
Y1210000D02*
D03*
D40*
X425000Y1530000D02*
D03*
X1290000Y1970000D02*
D03*
X1120000Y1615000D02*
D03*
X1257500Y1267500D02*
D03*
X260000Y1845000D02*
D03*
Y1210000D02*
D03*
D41*
X963501Y715750D02*
D03*
Y176500D02*
D03*
X615501Y175500D02*
D03*
Y714750D02*
D03*
X963500Y1305000D02*
D03*
Y765750D02*
D03*
X615500Y764750D02*
D03*
Y1304000D02*
D03*
D42*
X1390000Y935000D02*
D03*
Y560000D02*
D03*
X180000Y960000D02*
D03*
Y585000D02*
D03*
D43*
X1512500Y1410800D02*
D03*
Y1360000D02*
D03*
X397500Y170000D02*
D03*
X346700D02*
D03*
X722500Y1559200D02*
D03*
Y1610000D02*
D03*
X1222500Y180000D02*
D03*
X1171700D02*
D03*
D44*
X486000Y1606002D02*
D03*
Y1586002D02*
D03*
Y1566002D02*
D03*
Y1546002D02*
D03*
Y1526002D02*
D03*
Y1506002D02*
D03*
Y1486002D02*
D03*
Y1466002D02*
D03*
X466000Y1606002D02*
D03*
Y1586002D02*
D03*
Y1566002D02*
D03*
Y1546002D02*
D03*
Y1526002D02*
D03*
Y1506002D02*
D03*
Y1486002D02*
D03*
Y1466002D02*
D03*
X446000Y1606002D02*
D03*
Y1586002D02*
D03*
Y1566002D02*
D03*
Y1546002D02*
D03*
Y1506002D02*
D03*
Y1486002D02*
D03*
Y1466002D02*
D03*
X426000Y1606002D02*
D03*
Y1586002D02*
D03*
Y1566002D02*
D03*
Y1506002D02*
D03*
Y1486002D02*
D03*
Y1466002D02*
D03*
X406000Y1606002D02*
D03*
Y1586002D02*
D03*
Y1566002D02*
D03*
Y1506002D02*
D03*
Y1486002D02*
D03*
Y1466002D02*
D03*
X326000Y1946002D02*
D03*
Y1926002D02*
D03*
Y1906002D02*
D03*
Y1886002D02*
D03*
Y1866002D02*
D03*
Y1846002D02*
D03*
Y1826002D02*
D03*
X306000Y1946002D02*
D03*
Y1926002D02*
D03*
Y1906002D02*
D03*
Y1886002D02*
D03*
Y1866002D02*
D03*
Y1846002D02*
D03*
Y1826002D02*
D03*
X286000Y1946002D02*
D03*
Y1926002D02*
D03*
Y1906002D02*
D03*
Y1886002D02*
D03*
Y1866002D02*
D03*
Y1846002D02*
D03*
Y1826002D02*
D03*
X266000Y1946002D02*
D03*
Y1926002D02*
D03*
Y1906002D02*
D03*
Y1886002D02*
D03*
X246000Y1946002D02*
D03*
Y1926002D02*
D03*
Y1906002D02*
D03*
Y1886002D02*
D03*
X346000Y1626002D02*
D03*
Y1606002D02*
D03*
Y1586002D02*
D03*
Y1566002D02*
D03*
X326000Y1626002D02*
D03*
Y1606002D02*
D03*
Y1586002D02*
D03*
Y1566002D02*
D03*
Y1506002D02*
D03*
X306000Y1626002D02*
D03*
Y1606002D02*
D03*
Y1586002D02*
D03*
Y1566002D02*
D03*
X286000Y1626002D02*
D03*
Y1606002D02*
D03*
Y1586002D02*
D03*
Y1566002D02*
D03*
Y1546002D02*
D03*
Y1526002D02*
D03*
Y1506002D02*
D03*
X266000Y1626002D02*
D03*
Y1606002D02*
D03*
Y1586002D02*
D03*
Y1566002D02*
D03*
Y1546002D02*
D03*
Y1526002D02*
D03*
Y1506002D02*
D03*
X246000Y1626002D02*
D03*
Y1606002D02*
D03*
Y1586002D02*
D03*
Y1566002D02*
D03*
Y1546002D02*
D03*
Y1526002D02*
D03*
Y1506002D02*
D03*
X226000Y1626002D02*
D03*
Y1606002D02*
D03*
Y1586002D02*
D03*
Y1566002D02*
D03*
Y1546002D02*
D03*
Y1526002D02*
D03*
Y1506002D02*
D03*
X206000Y1626002D02*
D03*
Y1606002D02*
D03*
Y1586002D02*
D03*
Y1566002D02*
D03*
Y1546002D02*
D03*
Y1526002D02*
D03*
Y1506002D02*
D03*
X186000Y1926002D02*
D03*
Y1906002D02*
D03*
Y1886002D02*
D03*
Y1866002D02*
D03*
Y1846002D02*
D03*
Y1826002D02*
D03*
Y1326002D02*
D03*
Y1306002D02*
D03*
Y1286002D02*
D03*
Y1266002D02*
D03*
Y1246002D02*
D03*
Y1226002D02*
D03*
Y1206002D02*
D03*
X166000Y1946002D02*
D03*
Y1926002D02*
D03*
Y1906002D02*
D03*
Y1886002D02*
D03*
Y1806002D02*
D03*
Y1326002D02*
D03*
Y1306002D02*
D03*
Y1286002D02*
D03*
Y1266002D02*
D03*
Y1246002D02*
D03*
X146000Y1946002D02*
D03*
Y1926002D02*
D03*
Y1906002D02*
D03*
Y1886002D02*
D03*
Y1806002D02*
D03*
Y1326002D02*
D03*
Y1306002D02*
D03*
Y1286002D02*
D03*
Y1266002D02*
D03*
Y1246002D02*
D03*
X126000Y1946002D02*
D03*
Y1926002D02*
D03*
Y1906002D02*
D03*
Y1886002D02*
D03*
Y1866002D02*
D03*
Y1846002D02*
D03*
Y1826002D02*
D03*
Y1806002D02*
D03*
Y1326002D02*
D03*
Y1306002D02*
D03*
Y1286002D02*
D03*
Y1266002D02*
D03*
Y1246002D02*
D03*
Y1226002D02*
D03*
Y1206002D02*
D03*
X106000Y1946002D02*
D03*
Y1926002D02*
D03*
Y1906002D02*
D03*
Y1886002D02*
D03*
Y1866002D02*
D03*
Y1846002D02*
D03*
Y1826002D02*
D03*
Y1806002D02*
D03*
Y1326002D02*
D03*
Y1306002D02*
D03*
Y1286002D02*
D03*
Y1266002D02*
D03*
Y1246002D02*
D03*
Y1226002D02*
D03*
Y1206002D02*
D03*
X86000Y1946002D02*
D03*
Y1926002D02*
D03*
Y1906002D02*
D03*
Y1886002D02*
D03*
Y1866002D02*
D03*
Y1846002D02*
D03*
Y1826002D02*
D03*
Y1806002D02*
D03*
Y1326002D02*
D03*
Y1306002D02*
D03*
Y1286002D02*
D03*
Y1266002D02*
D03*
Y1246002D02*
D03*
Y1226002D02*
D03*
Y1206002D02*
D03*
X66000Y1946002D02*
D03*
Y1926002D02*
D03*
Y1906002D02*
D03*
Y1886002D02*
D03*
Y1866002D02*
D03*
Y1846002D02*
D03*
Y1826002D02*
D03*
Y1806002D02*
D03*
Y1306002D02*
D03*
Y1286002D02*
D03*
Y1266002D02*
D03*
Y1246002D02*
D03*
Y1226002D02*
D03*
Y1206002D02*
D03*
X46000Y1926002D02*
D03*
Y1906002D02*
D03*
Y1886002D02*
D03*
Y1866002D02*
D03*
Y1846002D02*
D03*
Y1826002D02*
D03*
Y1306002D02*
D03*
Y1286002D02*
D03*
Y1266002D02*
D03*
Y1246002D02*
D03*
Y1226002D02*
D03*
Y1206002D02*
D03*
X206000Y926002D02*
D03*
X246000D02*
D03*
X166000Y946002D02*
D03*
X206000D02*
D03*
X246000Y966002D02*
D03*
X286000Y946002D02*
D03*
X266000D02*
D03*
X326000Y966002D02*
D03*
X166000Y986002D02*
D03*
X186000Y1006002D02*
D03*
X266000Y986002D02*
D03*
X286000D02*
D03*
X306000D02*
D03*
X346000D02*
D03*
X306000Y1006002D02*
D03*
X366000Y986002D02*
D03*
Y946002D02*
D03*
X386000Y1006002D02*
D03*
X246000D02*
D03*
X1206001Y926002D02*
D03*
X1226001D02*
D03*
X1186001D02*
D03*
X1206001Y946002D02*
D03*
X1226001D02*
D03*
X1186001Y966002D02*
D03*
X1206001D02*
D03*
X1306001Y926002D02*
D03*
X1286001D02*
D03*
X1246001Y966002D02*
D03*
X1306001Y946002D02*
D03*
X1286001D02*
D03*
X1186001Y986002D02*
D03*
X1206001Y1006002D02*
D03*
X1186001D02*
D03*
X1246001D02*
D03*
X1266001Y966002D02*
D03*
X1286001D02*
D03*
X1326001D02*
D03*
X1286001Y986002D02*
D03*
X1266001Y1006002D02*
D03*
X1286001D02*
D03*
Y1606002D02*
D03*
X1326001Y1006002D02*
D03*
X1346001Y946002D02*
D03*
X1366001Y926002D02*
D03*
X1346001Y966002D02*
D03*
X1366001Y946002D02*
D03*
X1346001Y986002D02*
D03*
X1366001Y966002D02*
D03*
X1386001Y986002D02*
D03*
Y966002D02*
D03*
X1446001Y1246002D02*
D03*
X1426001D02*
D03*
X1406001Y1266002D02*
D03*
X1426001D02*
D03*
X1366001Y1326002D02*
D03*
Y1306002D02*
D03*
X1386001Y1286002D02*
D03*
Y1306002D02*
D03*
X1406001Y1286002D02*
D03*
X1386001Y1346002D02*
D03*
X1406001Y1306002D02*
D03*
X1446001D02*
D03*
X1406001Y1326002D02*
D03*
X1426001D02*
D03*
Y1346002D02*
D03*
X1206001Y1646002D02*
D03*
X1226001Y1666002D02*
D03*
Y1646002D02*
D03*
X1246001Y1626002D02*
D03*
Y1646002D02*
D03*
X1226001Y1686002D02*
D03*
X1266001Y1606002D02*
D03*
Y1666002D02*
D03*
Y1686002D02*
D03*
X1286001D02*
D03*
X1386001D02*
D03*
X1366001Y1766002D02*
D03*
X1346001D02*
D03*
X1386001Y1806002D02*
D03*
Y1786002D02*
D03*
Y1926002D02*
D03*
Y1906002D02*
D03*
X1406001Y1686002D02*
D03*
Y1726002D02*
D03*
X1426001Y1686002D02*
D03*
Y1766002D02*
D03*
X1406001Y1786002D02*
D03*
X1426001Y1806002D02*
D03*
X1406001Y1906002D02*
D03*
X1446001Y1806002D02*
D03*
Y1906002D02*
D03*
X1466001D02*
D03*
X1406001Y1926002D02*
D03*
X1446001Y1946002D02*
D03*
X1406001Y2006002D02*
D03*
X1426001Y1986002D02*
D03*
Y2006002D02*
D03*
X1446001Y1986002D02*
D03*
X1466001Y1926002D02*
D03*
Y1966002D02*
D03*
X1486001Y1926002D02*
D03*
X1446001Y2006002D02*
D03*
X1466001D02*
D03*
X1146001Y1206002D02*
D03*
Y1226002D02*
D03*
X1166001Y1206002D02*
D03*
X1186001Y1226002D02*
D03*
X1166001Y1266002D02*
D03*
X1146001Y1286002D02*
D03*
X1186001D02*
D03*
Y1206002D02*
D03*
X1246001D02*
D03*
X1226001Y1246002D02*
D03*
X1246001Y1226002D02*
D03*
X1266001D02*
D03*
X1206001Y1286002D02*
D03*
X1366001Y1486002D02*
D03*
X1346001Y1546002D02*
D03*
X1406001Y1486002D02*
D03*
Y1506002D02*
D03*
Y1526002D02*
D03*
X1206001Y1906002D02*
D03*
X1226001Y1886002D02*
D03*
Y1906002D02*
D03*
X1246001Y1886002D02*
D03*
X1206001Y1926002D02*
D03*
X1226001Y1946002D02*
D03*
Y1966002D02*
D03*
X1206001Y1986002D02*
D03*
Y2006002D02*
D03*
Y2046002D02*
D03*
X1226001D02*
D03*
X1246001Y1906002D02*
D03*
X1226001Y1986002D02*
D03*
Y2026002D02*
D03*
Y2006002D02*
D03*
X1246001Y2046002D02*
D03*
X1286001Y1886002D02*
D03*
X1266001Y1906002D02*
D03*
X1306001D02*
D03*
X1406001Y1566002D02*
D03*
X1426001D02*
D03*
X1386001Y1586002D02*
D03*
X1406001D02*
D03*
X1366001D02*
D03*
X1426001D02*
D03*
X1246001Y1966002D02*
D03*
X1266001Y1926002D02*
D03*
Y1986002D02*
D03*
X1246001Y2006002D02*
D03*
X1266001D02*
D03*
Y2026002D02*
D03*
X1306001Y1926002D02*
D03*
Y2006002D02*
D03*
X1286001Y2026002D02*
D03*
X1306001D02*
D03*
X616000Y875999D02*
D03*
X631000D02*
D03*
X646000D02*
D03*
X616000Y905999D02*
D03*
X631000D02*
D03*
X661000Y875999D02*
D03*
X646000Y860999D02*
D03*
X1190000Y750000D02*
D03*
X1126000Y950999D02*
D03*
Y935999D02*
D03*
Y920999D02*
D03*
Y905999D02*
D03*
X1111000Y950999D02*
D03*
Y935999D02*
D03*
Y920999D02*
D03*
Y905999D02*
D03*
X1096000Y950999D02*
D03*
Y935999D02*
D03*
Y920999D02*
D03*
Y905999D02*
D03*
X1081000Y950999D02*
D03*
Y935999D02*
D03*
Y920999D02*
D03*
Y905999D02*
D03*
X1066000Y935999D02*
D03*
Y920999D02*
D03*
Y905999D02*
D03*
X1051000Y935999D02*
D03*
Y920999D02*
D03*
X1036000Y935999D02*
D03*
Y920999D02*
D03*
X991000Y935999D02*
D03*
Y920999D02*
D03*
X976000D02*
D03*
Y905999D02*
D03*
X961000D02*
D03*
X1246001Y286001D02*
D03*
Y266001D02*
D03*
Y246001D02*
D03*
Y226001D02*
D03*
Y206001D02*
D03*
Y186001D02*
D03*
Y166001D02*
D03*
Y146001D02*
D03*
Y126001D02*
D03*
Y106001D02*
D03*
Y86001D02*
D03*
X1226001Y286001D02*
D03*
Y266001D02*
D03*
Y246001D02*
D03*
Y226001D02*
D03*
Y206001D02*
D03*
Y146001D02*
D03*
Y126001D02*
D03*
Y106001D02*
D03*
Y86001D02*
D03*
X1206001Y286001D02*
D03*
Y266001D02*
D03*
Y246001D02*
D03*
Y226001D02*
D03*
Y206001D02*
D03*
Y166001D02*
D03*
Y146001D02*
D03*
Y106001D02*
D03*
Y86001D02*
D03*
X1186001Y286001D02*
D03*
Y266001D02*
D03*
Y246001D02*
D03*
Y226001D02*
D03*
Y206001D02*
D03*
Y166001D02*
D03*
Y146001D02*
D03*
Y106001D02*
D03*
Y86001D02*
D03*
X1166001Y286001D02*
D03*
Y266001D02*
D03*
Y246001D02*
D03*
Y226001D02*
D03*
Y206001D02*
D03*
Y146001D02*
D03*
Y126001D02*
D03*
Y106001D02*
D03*
Y86001D02*
D03*
X1146001Y286001D02*
D03*
Y266001D02*
D03*
Y246001D02*
D03*
Y226001D02*
D03*
Y206001D02*
D03*
Y186001D02*
D03*
Y166001D02*
D03*
Y146001D02*
D03*
Y126001D02*
D03*
Y106001D02*
D03*
Y86001D02*
D03*
X556000Y470999D02*
D03*
Y455999D02*
D03*
Y440999D02*
D03*
X541000Y500999D02*
D03*
Y485999D02*
D03*
Y470999D02*
D03*
Y455999D02*
D03*
Y440999D02*
D03*
X526000Y500999D02*
D03*
Y485999D02*
D03*
Y470999D02*
D03*
Y455999D02*
D03*
Y440999D02*
D03*
X511000Y500999D02*
D03*
Y485999D02*
D03*
Y470999D02*
D03*
Y455999D02*
D03*
Y440999D02*
D03*
X496000Y530999D02*
D03*
Y515999D02*
D03*
Y500999D02*
D03*
Y485999D02*
D03*
Y470999D02*
D03*
Y455999D02*
D03*
Y440999D02*
D03*
X481000Y530999D02*
D03*
Y515999D02*
D03*
Y500999D02*
D03*
Y485999D02*
D03*
Y470999D02*
D03*
Y455999D02*
D03*
Y440999D02*
D03*
X796000Y485999D02*
D03*
X811000Y470999D02*
D03*
X826000D02*
D03*
X796000Y500999D02*
D03*
Y530999D02*
D03*
X811000Y500999D02*
D03*
Y485999D02*
D03*
X796000Y590999D02*
D03*
Y620999D02*
D03*
Y605999D02*
D03*
X811000Y530999D02*
D03*
Y545999D02*
D03*
X826000Y515999D02*
D03*
Y485999D02*
D03*
Y560999D02*
D03*
Y530999D02*
D03*
X811000Y605999D02*
D03*
Y590999D02*
D03*
Y620999D02*
D03*
X826000Y590999D02*
D03*
X841000Y485999D02*
D03*
Y470999D02*
D03*
X856000Y485999D02*
D03*
X871000Y470999D02*
D03*
X826000Y545999D02*
D03*
X841000Y530999D02*
D03*
Y560999D02*
D03*
X826000Y605999D02*
D03*
X856000Y515999D02*
D03*
Y500999D02*
D03*
X871000Y545999D02*
D03*
X856000Y620999D02*
D03*
X796000Y635999D02*
D03*
Y650999D02*
D03*
Y665999D02*
D03*
X811000Y650999D02*
D03*
Y665999D02*
D03*
X796000Y815999D02*
D03*
Y830999D02*
D03*
X811000Y860999D02*
D03*
Y635999D02*
D03*
X826000D02*
D03*
Y665999D02*
D03*
Y815999D02*
D03*
X811000D02*
D03*
Y845999D02*
D03*
X826000D02*
D03*
Y830999D02*
D03*
Y860999D02*
D03*
X796000Y890999D02*
D03*
Y875999D02*
D03*
Y920999D02*
D03*
Y905999D02*
D03*
X811000Y875999D02*
D03*
X826000Y920999D02*
D03*
Y875999D02*
D03*
X841000Y650999D02*
D03*
Y845999D02*
D03*
Y830999D02*
D03*
X856000Y845999D02*
D03*
X871000Y815999D02*
D03*
X856000D02*
D03*
X826000Y890999D02*
D03*
X856000Y920999D02*
D03*
X931000Y470999D02*
D03*
X961000D02*
D03*
X886000Y485999D02*
D03*
Y500999D02*
D03*
X901000Y485999D02*
D03*
X886000Y515999D02*
D03*
X901000Y500999D02*
D03*
X886000Y815999D02*
D03*
X901000Y515999D02*
D03*
Y815999D02*
D03*
X916000Y500999D02*
D03*
Y530999D02*
D03*
X946000Y515999D02*
D03*
X886000Y830999D02*
D03*
X916000Y1025999D02*
D03*
Y1010999D02*
D03*
X931000Y1025999D02*
D03*
Y1040999D02*
D03*
X946000Y1025999D02*
D03*
X931000Y1070999D02*
D03*
X946000Y1055999D02*
D03*
X961000Y485999D02*
D03*
X976000D02*
D03*
Y515999D02*
D03*
Y500999D02*
D03*
X961000Y515999D02*
D03*
X976000Y530999D02*
D03*
X991000Y980999D02*
D03*
X976000Y1010999D02*
D03*
X1036000Y545999D02*
D03*
X1051000Y530999D02*
D03*
X991000Y995999D02*
D03*
X1006000Y1010999D02*
D03*
X961000Y1040999D02*
D03*
Y1025999D02*
D03*
Y1070999D02*
D03*
X976000D02*
D03*
Y1085999D02*
D03*
X991000Y1025999D02*
D03*
Y1010999D02*
D03*
X1006000Y1025999D02*
D03*
X1036000D02*
D03*
X991000Y1055999D02*
D03*
Y1040999D02*
D03*
X1006000Y1055999D02*
D03*
X1051000Y545999D02*
D03*
X1036000Y530999D02*
D03*
X991000Y545999D02*
D03*
Y530999D02*
D03*
X976000Y470999D02*
D03*
X961000Y500999D02*
D03*
X946000D02*
D03*
Y485999D02*
D03*
Y470999D02*
D03*
X931000Y530999D02*
D03*
Y515999D02*
D03*
Y500999D02*
D03*
Y485999D02*
D03*
X916000Y515999D02*
D03*
Y485999D02*
D03*
Y470999D02*
D03*
X901000Y530999D02*
D03*
Y470999D02*
D03*
X886000Y530999D02*
D03*
Y470999D02*
D03*
X871000Y530999D02*
D03*
Y515999D02*
D03*
Y500999D02*
D03*
Y485999D02*
D03*
X856000Y665999D02*
D03*
Y650999D02*
D03*
Y635999D02*
D03*
Y605999D02*
D03*
Y590999D02*
D03*
Y575999D02*
D03*
Y560999D02*
D03*
Y545999D02*
D03*
Y530999D02*
D03*
Y470999D02*
D03*
X841000Y665999D02*
D03*
Y635999D02*
D03*
Y620999D02*
D03*
Y605999D02*
D03*
Y590999D02*
D03*
Y575999D02*
D03*
Y545999D02*
D03*
Y515999D02*
D03*
Y500999D02*
D03*
X826000Y650999D02*
D03*
Y620999D02*
D03*
Y575999D02*
D03*
Y500999D02*
D03*
X811000Y575999D02*
D03*
Y560999D02*
D03*
Y515999D02*
D03*
X796000Y575999D02*
D03*
Y560999D02*
D03*
Y545999D02*
D03*
Y515999D02*
D03*
Y470999D02*
D03*
X901000Y830999D02*
D03*
X871000D02*
D03*
X856000Y905999D02*
D03*
Y890999D02*
D03*
Y875999D02*
D03*
Y860999D02*
D03*
Y830999D02*
D03*
X841000Y920999D02*
D03*
Y905999D02*
D03*
Y890999D02*
D03*
Y875999D02*
D03*
Y860999D02*
D03*
Y815999D02*
D03*
X826000Y905999D02*
D03*
X811000Y920999D02*
D03*
Y905999D02*
D03*
Y890999D02*
D03*
Y830999D02*
D03*
X796000Y860999D02*
D03*
Y845999D02*
D03*
X1036000Y1010999D02*
D03*
Y980999D02*
D03*
X1021000Y1040999D02*
D03*
Y1025999D02*
D03*
Y1010999D02*
D03*
X1006000Y1040999D02*
D03*
X991000Y1070999D02*
D03*
X976000Y1055999D02*
D03*
Y1040999D02*
D03*
Y1025999D02*
D03*
Y995999D02*
D03*
X961000Y1085999D02*
D03*
Y1055999D02*
D03*
X946000Y1085999D02*
D03*
Y1070999D02*
D03*
Y1040999D02*
D03*
X931000Y1085999D02*
D03*
Y1055999D02*
D03*
X916000Y1085999D02*
D03*
Y1070999D02*
D03*
Y1055999D02*
D03*
Y1040999D02*
D03*
X436000Y123501D02*
D03*
Y103501D02*
D03*
Y83501D02*
D03*
X416000Y343501D02*
D03*
Y323501D02*
D03*
Y303501D02*
D03*
Y283501D02*
D03*
Y263501D02*
D03*
Y243501D02*
D03*
Y223501D02*
D03*
Y203501D02*
D03*
Y183501D02*
D03*
Y163501D02*
D03*
Y143501D02*
D03*
Y123501D02*
D03*
Y103501D02*
D03*
Y83501D02*
D03*
X396000Y343501D02*
D03*
Y323501D02*
D03*
Y303501D02*
D03*
Y283501D02*
D03*
Y263501D02*
D03*
Y243501D02*
D03*
Y223501D02*
D03*
Y203501D02*
D03*
Y143501D02*
D03*
Y123501D02*
D03*
Y103501D02*
D03*
Y83501D02*
D03*
X376000Y343501D02*
D03*
Y323501D02*
D03*
Y303501D02*
D03*
Y283501D02*
D03*
Y263501D02*
D03*
Y243501D02*
D03*
Y223501D02*
D03*
Y203501D02*
D03*
Y143501D02*
D03*
Y123501D02*
D03*
Y83501D02*
D03*
X356000Y343501D02*
D03*
Y323501D02*
D03*
Y303501D02*
D03*
Y283501D02*
D03*
Y263501D02*
D03*
Y243501D02*
D03*
Y223501D02*
D03*
Y203501D02*
D03*
Y143501D02*
D03*
Y123501D02*
D03*
Y83501D02*
D03*
X336000Y343501D02*
D03*
Y323501D02*
D03*
Y303501D02*
D03*
Y283501D02*
D03*
Y263501D02*
D03*
Y243501D02*
D03*
Y223501D02*
D03*
Y203501D02*
D03*
Y143501D02*
D03*
Y123501D02*
D03*
Y103501D02*
D03*
Y83501D02*
D03*
X316000Y343501D02*
D03*
Y323501D02*
D03*
Y303501D02*
D03*
Y283501D02*
D03*
Y263501D02*
D03*
Y243501D02*
D03*
Y223501D02*
D03*
Y203501D02*
D03*
Y183501D02*
D03*
Y163501D02*
D03*
Y143501D02*
D03*
Y123501D02*
D03*
Y103501D02*
D03*
X736000Y665999D02*
D03*
Y650999D02*
D03*
Y635999D02*
D03*
Y620999D02*
D03*
Y605999D02*
D03*
Y590999D02*
D03*
Y575999D02*
D03*
Y560999D02*
D03*
Y545999D02*
D03*
Y530999D02*
D03*
X721000Y665999D02*
D03*
Y650999D02*
D03*
Y635999D02*
D03*
Y620999D02*
D03*
Y605999D02*
D03*
Y590999D02*
D03*
Y575999D02*
D03*
Y560999D02*
D03*
Y545999D02*
D03*
Y530999D02*
D03*
X706000Y665999D02*
D03*
Y650999D02*
D03*
Y635999D02*
D03*
Y620999D02*
D03*
Y605999D02*
D03*
Y590999D02*
D03*
Y575999D02*
D03*
Y560999D02*
D03*
Y545999D02*
D03*
Y530999D02*
D03*
X691000Y665999D02*
D03*
Y650999D02*
D03*
Y635999D02*
D03*
Y620999D02*
D03*
Y605999D02*
D03*
Y590999D02*
D03*
Y575999D02*
D03*
Y560999D02*
D03*
Y545999D02*
D03*
Y530999D02*
D03*
X676000Y665999D02*
D03*
Y650999D02*
D03*
Y635999D02*
D03*
Y620999D02*
D03*
Y605999D02*
D03*
Y590999D02*
D03*
Y575999D02*
D03*
Y560999D02*
D03*
Y545999D02*
D03*
Y530999D02*
D03*
X661000Y650999D02*
D03*
Y635999D02*
D03*
Y620999D02*
D03*
Y605999D02*
D03*
Y590999D02*
D03*
Y575999D02*
D03*
Y560999D02*
D03*
Y545999D02*
D03*
Y530999D02*
D03*
X646000Y650999D02*
D03*
Y635999D02*
D03*
Y620999D02*
D03*
Y605999D02*
D03*
Y590999D02*
D03*
Y575999D02*
D03*
Y560999D02*
D03*
Y545999D02*
D03*
X631000Y650999D02*
D03*
Y635999D02*
D03*
Y620999D02*
D03*
Y605999D02*
D03*
Y590999D02*
D03*
Y575999D02*
D03*
Y560999D02*
D03*
X616000Y650999D02*
D03*
Y635999D02*
D03*
Y620999D02*
D03*
Y605999D02*
D03*
Y590999D02*
D03*
Y575999D02*
D03*
Y560999D02*
D03*
X601000Y635999D02*
D03*
Y620999D02*
D03*
Y605999D02*
D03*
Y590999D02*
D03*
Y575999D02*
D03*
Y560999D02*
D03*
Y545999D02*
D03*
X586000Y560999D02*
D03*
Y545999D02*
D03*
X571000Y560999D02*
D03*
X541000D02*
D03*
Y545999D02*
D03*
X166000Y926002D02*
D03*
X186000D02*
D03*
Y986002D02*
D03*
X206000Y966002D02*
D03*
Y986002D02*
D03*
Y1006002D02*
D03*
X226000Y926002D02*
D03*
Y946002D02*
D03*
Y966002D02*
D03*
Y986002D02*
D03*
Y1006002D02*
D03*
X246000Y946002D02*
D03*
Y986002D02*
D03*
X266000Y926002D02*
D03*
Y966002D02*
D03*
Y1006002D02*
D03*
X286000Y926002D02*
D03*
Y966002D02*
D03*
Y1006002D02*
D03*
X306000Y926002D02*
D03*
Y946002D02*
D03*
Y966002D02*
D03*
X326000Y926002D02*
D03*
Y946002D02*
D03*
Y986002D02*
D03*
Y1006002D02*
D03*
X346000Y926002D02*
D03*
Y946002D02*
D03*
Y966002D02*
D03*
Y1006002D02*
D03*
X366000Y926002D02*
D03*
Y966002D02*
D03*
Y1006002D02*
D03*
X386000Y926002D02*
D03*
Y946002D02*
D03*
Y966002D02*
D03*
Y986002D02*
D03*
X1186001Y946002D02*
D03*
X1206001Y986002D02*
D03*
X1226001Y966002D02*
D03*
Y986002D02*
D03*
Y1006002D02*
D03*
X1246001Y926002D02*
D03*
Y946002D02*
D03*
Y986002D02*
D03*
X1266001Y926002D02*
D03*
Y946002D02*
D03*
Y986002D02*
D03*
X1306001Y966002D02*
D03*
Y986002D02*
D03*
Y1006002D02*
D03*
X1326001Y926002D02*
D03*
Y946002D02*
D03*
Y986002D02*
D03*
X1346001Y926002D02*
D03*
Y1006002D02*
D03*
X1366001Y986002D02*
D03*
Y1006002D02*
D03*
X1386001D02*
D03*
X1204998Y749998D02*
D03*
X1155000Y667500D02*
D03*
X1142500Y657500D02*
D03*
X1262500D02*
D03*
X1277500D02*
D03*
X451000Y920999D02*
D03*
Y935999D02*
D03*
Y950999D02*
D03*
X466000Y920999D02*
D03*
Y935999D02*
D03*
Y950999D02*
D03*
X481000Y920999D02*
D03*
Y935999D02*
D03*
Y950999D02*
D03*
X496000Y920999D02*
D03*
Y935999D02*
D03*
Y950999D02*
D03*
X511000Y935999D02*
D03*
Y950999D02*
D03*
X526000Y935999D02*
D03*
Y950999D02*
D03*
X541000Y935999D02*
D03*
Y950999D02*
D03*
X571000D02*
D03*
X541000Y830999D02*
D03*
Y845999D02*
D03*
Y875999D02*
D03*
X556000Y830999D02*
D03*
Y845999D02*
D03*
Y860999D02*
D03*
X571000Y830999D02*
D03*
Y845999D02*
D03*
Y860999D02*
D03*
X586000Y830999D02*
D03*
Y845999D02*
D03*
Y860999D02*
D03*
Y875999D02*
D03*
X601000Y830999D02*
D03*
Y845999D02*
D03*
Y860999D02*
D03*
Y875999D02*
D03*
X616000Y830999D02*
D03*
Y845999D02*
D03*
Y860999D02*
D03*
Y890999D02*
D03*
X631000Y830999D02*
D03*
Y845999D02*
D03*
Y860999D02*
D03*
Y890999D02*
D03*
X646000Y830999D02*
D03*
Y845999D02*
D03*
X661000Y830999D02*
D03*
Y845999D02*
D03*
Y860999D02*
D03*
X676000Y815999D02*
D03*
Y830999D02*
D03*
Y845999D02*
D03*
Y860999D02*
D03*
Y875999D02*
D03*
X691000Y815999D02*
D03*
Y830999D02*
D03*
Y845999D02*
D03*
Y860999D02*
D03*
Y875999D02*
D03*
X706000Y815999D02*
D03*
Y830999D02*
D03*
Y845999D02*
D03*
Y860999D02*
D03*
Y875999D02*
D03*
X721000Y815999D02*
D03*
Y830999D02*
D03*
Y845999D02*
D03*
Y860999D02*
D03*
Y875999D02*
D03*
X736000Y815999D02*
D03*
Y830999D02*
D03*
Y845999D02*
D03*
Y860999D02*
D03*
Y875999D02*
D03*
X377250Y742750D02*
D03*
X392500Y742500D02*
D03*
X165000Y332500D02*
D03*
X220000Y325000D02*
D03*
X1366001Y1906002D02*
D03*
Y1926002D02*
D03*
Y1946002D02*
D03*
Y2006002D02*
D03*
X1386001D02*
D03*
X1426001Y1906002D02*
D03*
Y1926002D02*
D03*
Y1946002D02*
D03*
Y1966002D02*
D03*
X1446001Y1926002D02*
D03*
Y1966002D02*
D03*
X1466001Y1946002D02*
D03*
Y1986002D02*
D03*
X1486001Y1906002D02*
D03*
Y1946002D02*
D03*
Y1966002D02*
D03*
Y1986002D02*
D03*
Y2006002D02*
D03*
X1346001Y1706002D02*
D03*
Y1726002D02*
D03*
Y1746002D02*
D03*
Y1786002D02*
D03*
Y1806002D02*
D03*
X1366001Y1686002D02*
D03*
Y1706002D02*
D03*
Y1726002D02*
D03*
Y1786002D02*
D03*
Y1806002D02*
D03*
X1386001Y1706002D02*
D03*
Y1766002D02*
D03*
X1406001Y1706002D02*
D03*
Y1746002D02*
D03*
Y1766002D02*
D03*
Y1806002D02*
D03*
X1426001Y1706002D02*
D03*
Y1786002D02*
D03*
X1446001Y1686002D02*
D03*
Y1706002D02*
D03*
Y1766002D02*
D03*
Y1786002D02*
D03*
X1206001Y1666002D02*
D03*
Y1686002D02*
D03*
X1246001Y1606002D02*
D03*
Y1666002D02*
D03*
Y1686002D02*
D03*
X1266001Y1626002D02*
D03*
Y1646002D02*
D03*
X1286001Y1626002D02*
D03*
Y1646002D02*
D03*
Y1666002D02*
D03*
X1346001Y1686002D02*
D03*
Y1306002D02*
D03*
Y1326002D02*
D03*
Y1346002D02*
D03*
X1366001D02*
D03*
X1386001Y1246002D02*
D03*
Y1266002D02*
D03*
Y1326002D02*
D03*
X1406001Y1246002D02*
D03*
Y1346002D02*
D03*
X1426001Y1286002D02*
D03*
Y1306002D02*
D03*
X1446001Y1266002D02*
D03*
Y1286002D02*
D03*
Y1326002D02*
D03*
X1206001Y1886002D02*
D03*
Y1946002D02*
D03*
Y1966002D02*
D03*
Y2026002D02*
D03*
X1226001Y1926002D02*
D03*
X1246001D02*
D03*
Y1946002D02*
D03*
Y1986002D02*
D03*
Y2026002D02*
D03*
X1266001Y1886002D02*
D03*
Y1946002D02*
D03*
Y2046002D02*
D03*
X1286001Y1906002D02*
D03*
Y1926002D02*
D03*
Y2006002D02*
D03*
Y2046002D02*
D03*
X1306001Y1886002D02*
D03*
Y1946002D02*
D03*
Y2046002D02*
D03*
X1346001Y1486002D02*
D03*
Y1506002D02*
D03*
Y1526002D02*
D03*
Y1566002D02*
D03*
X1366001Y1546002D02*
D03*
X1386001Y1486002D02*
D03*
Y1546002D02*
D03*
X1406001D02*
D03*
X1426001Y1486002D02*
D03*
Y1546002D02*
D03*
X1446001Y1486002D02*
D03*
Y1546002D02*
D03*
Y1566002D02*
D03*
X1486001Y1686002D02*
D03*
Y1706002D02*
D03*
Y1766002D02*
D03*
Y1786002D02*
D03*
X1506001Y1686002D02*
D03*
Y1706002D02*
D03*
Y1726002D02*
D03*
Y1746002D02*
D03*
Y1766002D02*
D03*
Y1786002D02*
D03*
X1526001Y1686002D02*
D03*
Y1706002D02*
D03*
Y1766002D02*
D03*
Y1786002D02*
D03*
X1546001Y1686002D02*
D03*
Y1706002D02*
D03*
Y1766002D02*
D03*
Y1786002D02*
D03*
X1486001Y1466002D02*
D03*
Y1486002D02*
D03*
Y1546002D02*
D03*
Y1566002D02*
D03*
X1506001Y1466002D02*
D03*
Y1486002D02*
D03*
Y1506002D02*
D03*
Y1526002D02*
D03*
Y1546002D02*
D03*
Y1566002D02*
D03*
X1526001Y1466002D02*
D03*
Y1486002D02*
D03*
Y1546002D02*
D03*
Y1566002D02*
D03*
X1546001Y1466002D02*
D03*
Y1486002D02*
D03*
Y1546002D02*
D03*
Y1566002D02*
D03*
X1146001Y1246002D02*
D03*
Y1266002D02*
D03*
X1166001Y1226002D02*
D03*
Y1246002D02*
D03*
Y1286002D02*
D03*
X1186001Y1246002D02*
D03*
Y1266002D02*
D03*
X1206001Y1206002D02*
D03*
Y1226002D02*
D03*
Y1246002D02*
D03*
Y1266002D02*
D03*
X1226001Y1206002D02*
D03*
Y1226002D02*
D03*
Y1266002D02*
D03*
Y1286002D02*
D03*
X1266001Y1206002D02*
D03*
X1006000Y620999D02*
D03*
Y635999D02*
D03*
Y650999D02*
D03*
X1021000Y620999D02*
D03*
Y635999D02*
D03*
Y650999D02*
D03*
X1036000Y590999D02*
D03*
Y620999D02*
D03*
Y635999D02*
D03*
Y650999D02*
D03*
X1051000Y590999D02*
D03*
Y605999D02*
D03*
Y620999D02*
D03*
Y635999D02*
D03*
Y650999D02*
D03*
X1066000Y590999D02*
D03*
Y605999D02*
D03*
Y620999D02*
D03*
Y635999D02*
D03*
Y650999D02*
D03*
X1081000Y575999D02*
D03*
Y590999D02*
D03*
Y605999D02*
D03*
Y620999D02*
D03*
Y635999D02*
D03*
Y650999D02*
D03*
X1096000Y560999D02*
D03*
Y575999D02*
D03*
Y590999D02*
D03*
Y605999D02*
D03*
Y620999D02*
D03*
Y635999D02*
D03*
Y650999D02*
D03*
X1111000Y560999D02*
D03*
Y575999D02*
D03*
Y620999D02*
D03*
Y635999D02*
D03*
Y650999D02*
D03*
X1066001Y1526002D02*
D03*
Y1546002D02*
D03*
Y1566002D02*
D03*
X1106001Y1546002D02*
D03*
X1126001D02*
D03*
X1106001Y1566002D02*
D03*
X1086001Y1586002D02*
D03*
X1126001D02*
D03*
X1086001Y1606002D02*
D03*
X1146001Y1626002D02*
D03*
X1066001Y1586002D02*
D03*
Y1606002D02*
D03*
X1086001Y1526002D02*
D03*
Y1546002D02*
D03*
Y1566002D02*
D03*
X1106001Y1526002D02*
D03*
Y1586002D02*
D03*
X1126001Y1526002D02*
D03*
Y1566002D02*
D03*
X1146001D02*
D03*
Y1586002D02*
D03*
Y1606002D02*
D03*
X246000Y1166002D02*
D03*
Y1186002D02*
D03*
Y1246002D02*
D03*
Y1266002D02*
D03*
Y1286002D02*
D03*
X266000Y1166002D02*
D03*
Y1246002D02*
D03*
Y1266002D02*
D03*
Y1286002D02*
D03*
X286000Y1166002D02*
D03*
Y1186002D02*
D03*
Y1206002D02*
D03*
Y1226002D02*
D03*
Y1246002D02*
D03*
Y1266002D02*
D03*
Y1286002D02*
D03*
X306000Y1166002D02*
D03*
Y1186002D02*
D03*
Y1206002D02*
D03*
Y1226002D02*
D03*
Y1246002D02*
D03*
Y1266002D02*
D03*
Y1286002D02*
D03*
X326000Y1166002D02*
D03*
Y1186002D02*
D03*
Y1206002D02*
D03*
Y1226002D02*
D03*
Y1246002D02*
D03*
Y1266002D02*
D03*
Y1286002D02*
D03*
D45*
X442500Y710000D02*
D03*
X42500Y200000D02*
D03*
X45000Y160000D02*
D03*
X1182500Y712500D02*
D03*
X1232500Y712500D02*
D03*
X1451000Y178500D02*
D03*
X1475000Y227500D02*
D03*
X1530000Y250000D02*
D03*
X1417500Y325000D02*
D03*
X1425000Y457500D02*
D03*
X1442500Y325000D02*
D03*
X1353750Y322500D02*
D03*
X1345000Y365000D02*
D03*
X1412500Y362500D02*
D03*
X1455000Y145000D02*
D03*
X1400000Y165000D02*
D03*
X1355000Y247500D02*
D03*
X1415000D02*
D03*
X1422500Y227500D02*
D03*
X1390000Y210000D02*
D03*
X1430000Y180000D02*
D03*
X1122500Y722500D02*
D03*
X1172500Y697500D02*
D03*
X1247500Y495000D02*
D03*
X1262500Y475000D02*
D03*
X1235000Y690000D02*
D03*
X1209469Y682500D02*
D03*
X1260000Y725000D02*
D03*
X367500Y712500D02*
D03*
X422500Y710000D02*
D03*
X312500D02*
D03*
X125000Y432500D02*
D03*
Y335000D02*
D03*
X147500Y365000D02*
D03*
X145000Y420000D02*
D03*
X1442500Y432500D02*
D03*
X1400000Y496500D02*
D03*
X1332500Y475000D02*
D03*
X177500Y487500D02*
D03*
X245000Y467500D02*
D03*
X170000Y365000D02*
D03*
X237500D02*
D03*
X337500Y487500D02*
D03*
Y670000D02*
D03*
X360000Y487500D02*
D03*
X370000Y672500D02*
D03*
X110000Y200000D02*
D03*
Y165000D02*
D03*
X127500Y240000D02*
D03*
X143000Y227000D02*
D03*
X152500Y262500D02*
D03*
X222500D02*
D03*
X188750Y211250D02*
D03*
M02*
