G04 Layer_Color=16711935*
%FSLAX44Y44*%
%MOMM*%
G71*
G01*
G75*
G04:AMPARAMS|DCode=71|XSize=3.5mm|YSize=2.5mm|CornerRadius=0.25mm|HoleSize=0mm|Usage=FLASHONLY|Rotation=90.000|XOffset=0mm|YOffset=0mm|HoleType=Round|Shape=RoundedRectangle|*
%AMROUNDEDRECTD71*
21,1,3.5000,2.0000,0,0,90.0*
21,1,3.0000,2.5000,0,0,90.0*
1,1,0.5000,1.0000,1.5000*
1,1,0.5000,1.0000,-1.5000*
1,1,0.5000,-1.0000,-1.5000*
1,1,0.5000,-1.0000,1.5000*
%
%ADD71ROUNDEDRECTD71*%
%ADD81R,1.2032X1.3032*%
%ADD82R,1.3032X1.2032*%
%ADD83R,1.3532X3.0032*%
%ADD89C,2.3123*%
%ADD91C,1.5632*%
%ADD92R,1.5632X1.5632*%
%ADD93C,2.7032*%
%ADD94R,2.7032X2.7032*%
%ADD95C,1.4715*%
%ADD96R,1.4715X1.4715*%
%ADD97R,2.5032X2.5032*%
%ADD98C,2.5032*%
%ADD99R,3.7032X3.7032*%
%ADD100C,3.7032*%
%ADD101C,5.3032*%
%ADD102C,2.2352*%
%ADD103C,2.6162*%
%ADD104C,1.1032*%
%ADD105C,1.4032*%
%ADD106R,3.3532X2.6532*%
%ADD107R,2.6532X3.3532*%
%ADD108R,1.6532X2.1032*%
%ADD109R,2.1032X1.6532*%
%ADD110R,1.7032X2.6032*%
%ADD111R,2.6032X1.7032*%
%ADD112R,3.7032X1.2532*%
%ADD113R,5.6032X1.2532*%
%ADD114R,1.2532X5.6032*%
%ADD115R,1.0032X1.2532*%
%ADD116R,3.5332X1.4332*%
%ADD117R,1.4332X3.5332*%
D71*
X1152500Y615000D02*
D03*
Y575000D02*
D03*
X1212500D02*
D03*
X1182500D02*
D03*
X1212500Y535000D02*
D03*
Y615000D02*
D03*
X1182500D02*
D03*
X1242500D02*
D03*
Y535000D02*
D03*
X1272500Y615000D02*
D03*
Y535000D02*
D03*
X1302500Y615000D02*
D03*
Y535000D02*
D03*
X1242500Y575000D02*
D03*
X1272500D02*
D03*
X1302500D02*
D03*
X1332500D02*
D03*
Y535000D02*
D03*
X1362500D02*
D03*
X1392500D02*
D03*
X1422500D02*
D03*
X1332500Y615000D02*
D03*
X1362500D02*
D03*
X1392500D02*
D03*
X1422500D02*
D03*
X1452500Y565000D02*
D03*
X1482500D02*
D03*
X1512500D02*
D03*
X1542500D02*
D03*
X1542500Y605000D02*
D03*
X1512500D02*
D03*
X1482500D02*
D03*
X1452500D02*
D03*
X1542500Y645000D02*
D03*
X1512500D02*
D03*
X1482500D02*
D03*
X1452500D02*
D03*
X1542500Y685000D02*
D03*
X1512500D02*
D03*
X1482500D02*
D03*
X1452500D02*
D03*
Y925000D02*
D03*
X1482500D02*
D03*
X1512500D02*
D03*
X1542500D02*
D03*
Y885000D02*
D03*
X1512500D02*
D03*
X1482500D02*
D03*
X1452500D02*
D03*
X1542500Y845000D02*
D03*
X1512500D02*
D03*
X1482500D02*
D03*
X1452500D02*
D03*
Y805000D02*
D03*
X1482500D02*
D03*
X1512500D02*
D03*
X1542500D02*
D03*
X1452500Y765000D02*
D03*
X1482500D02*
D03*
X1512500D02*
D03*
X1542500D02*
D03*
X1452500Y725000D02*
D03*
X1482500D02*
D03*
X1512500D02*
D03*
X1542500D02*
D03*
Y965000D02*
D03*
X1512500D02*
D03*
X1482500D02*
D03*
X1452500D02*
D03*
X1542500Y1005000D02*
D03*
X1512500D02*
D03*
X1482500D02*
D03*
X1452500D02*
D03*
X1542500Y1045000D02*
D03*
X1512500D02*
D03*
X1482500D02*
D03*
X1452500D02*
D03*
X1182500Y1085000D02*
D03*
X1212500D02*
D03*
X1242500D02*
D03*
X1272500D02*
D03*
X1302500D02*
D03*
X1332500D02*
D03*
X1362500D02*
D03*
X1392500D02*
D03*
X1422500D02*
D03*
X1452500D02*
D03*
X1482500D02*
D03*
X1512500D02*
D03*
X1542500D02*
D03*
X1152500Y1125000D02*
D03*
X1182500D02*
D03*
X1212500D02*
D03*
X1242500D02*
D03*
X1272500D02*
D03*
X1302500D02*
D03*
X1332500D02*
D03*
X1362500D02*
D03*
X1392500D02*
D03*
X1422500D02*
D03*
X1452500D02*
D03*
X1482500D02*
D03*
X1512500D02*
D03*
X1542500D02*
D03*
Y1165000D02*
D03*
X1512500D02*
D03*
X1482500D02*
D03*
X1452500D02*
D03*
X1422500D02*
D03*
X1392500D02*
D03*
X1362500D02*
D03*
X1332500D02*
D03*
X1302500D02*
D03*
X1272500D02*
D03*
X1242500D02*
D03*
X1212500D02*
D03*
X1182500D02*
D03*
X1152500D02*
D03*
X1277500Y1332500D02*
D03*
X1247500D02*
D03*
X1217500D02*
D03*
X1187500D02*
D03*
X1157500D02*
D03*
Y1372500D02*
D03*
X1187500D02*
D03*
X1217500D02*
D03*
X1247500D02*
D03*
X1277500D02*
D03*
X1432500Y1415000D02*
D03*
Y1455000D02*
D03*
X1402500Y1415000D02*
D03*
Y1455000D02*
D03*
X1372500Y1415000D02*
D03*
Y1455000D02*
D03*
X1342500Y1415000D02*
D03*
Y1455000D02*
D03*
X1312500D02*
D03*
Y1415000D02*
D03*
Y1495000D02*
D03*
Y1535000D02*
D03*
X1282500Y1455000D02*
D03*
Y1415000D02*
D03*
Y1495000D02*
D03*
Y1535000D02*
D03*
X1252500Y1455000D02*
D03*
Y1415000D02*
D03*
Y1495000D02*
D03*
Y1535000D02*
D03*
X1222500Y1455000D02*
D03*
Y1415000D02*
D03*
Y1495000D02*
D03*
Y1535000D02*
D03*
X1192500Y1455000D02*
D03*
Y1415000D02*
D03*
Y1495000D02*
D03*
Y1535000D02*
D03*
X1162500D02*
D03*
Y1495000D02*
D03*
X1132500D02*
D03*
X1162500Y1415000D02*
D03*
X1132500D02*
D03*
X1162500Y1455000D02*
D03*
X1132500D02*
D03*
X1102500Y1495000D02*
D03*
X1072500D02*
D03*
X1102500Y1415000D02*
D03*
X1072500D02*
D03*
X1102500Y1455000D02*
D03*
X1072500D02*
D03*
X1012500Y1480000D02*
D03*
X1042500D02*
D03*
X1012500Y1440000D02*
D03*
X1042500D02*
D03*
X1012500Y1520000D02*
D03*
X1042500Y1560000D02*
D03*
X1012500D02*
D03*
X1042500Y1520000D02*
D03*
Y1600000D02*
D03*
X822500Y1070000D02*
D03*
X792500D02*
D03*
X882500D02*
D03*
X852500D02*
D03*
X852500Y1027500D02*
D03*
X792500D02*
D03*
X822500D02*
D03*
X802500Y987500D02*
D03*
X832500D02*
D03*
Y945000D02*
D03*
X802500D02*
D03*
X1122500Y107500D02*
D03*
X1092500Y107500D02*
D03*
X1062500D02*
D03*
X1032500Y107500D02*
D03*
X1002500D02*
D03*
X972500Y107500D02*
D03*
X942500D02*
D03*
X912500Y107500D02*
D03*
X882500Y125000D02*
D03*
X852500Y125000D02*
D03*
X822500D02*
D03*
X792500Y125000D02*
D03*
X882500Y165000D02*
D03*
X852500Y165000D02*
D03*
X822500D02*
D03*
X792500Y165000D02*
D03*
X882500Y205000D02*
D03*
X852500Y205000D02*
D03*
X822500D02*
D03*
X792500Y205000D02*
D03*
X882500Y245000D02*
D03*
X852500Y245000D02*
D03*
X822500D02*
D03*
X792500Y245000D02*
D03*
X882500Y285000D02*
D03*
X852500Y285000D02*
D03*
X822500D02*
D03*
X792500Y285000D02*
D03*
X882500Y325000D02*
D03*
X852500Y325000D02*
D03*
X822500D02*
D03*
X792500Y325000D02*
D03*
X882500Y365000D02*
D03*
X852500Y365000D02*
D03*
X822500D02*
D03*
X792500Y365000D02*
D03*
X882500Y405000D02*
D03*
X852500Y405000D02*
D03*
X822500D02*
D03*
X792500Y405000D02*
D03*
Y445000D02*
D03*
X822500Y445000D02*
D03*
X852500D02*
D03*
X882500Y445000D02*
D03*
X912500D02*
D03*
X942500Y445000D02*
D03*
X972500D02*
D03*
X495000Y105000D02*
D03*
X525000D02*
D03*
X555000D02*
D03*
X465000D02*
D03*
X675000Y145000D02*
D03*
X705000Y145000D02*
D03*
X735000D02*
D03*
Y105000D02*
D03*
X705000D02*
D03*
X675000Y105000D02*
D03*
X645000D02*
D03*
X615000D02*
D03*
X585000Y105000D02*
D03*
X675000Y265000D02*
D03*
X705000Y265000D02*
D03*
X735000D02*
D03*
Y225000D02*
D03*
X705000D02*
D03*
X675000Y225000D02*
D03*
X735000Y185000D02*
D03*
X705000D02*
D03*
X675000Y185000D02*
D03*
Y385000D02*
D03*
X705000Y385000D02*
D03*
X735000D02*
D03*
Y345000D02*
D03*
X705000D02*
D03*
X675000Y345000D02*
D03*
X735000Y305000D02*
D03*
X705000D02*
D03*
X675000Y305000D02*
D03*
Y505000D02*
D03*
X705000Y505000D02*
D03*
X735000D02*
D03*
Y465000D02*
D03*
X705000D02*
D03*
X675000Y465000D02*
D03*
X735000Y425000D02*
D03*
X705000D02*
D03*
X675000Y425000D02*
D03*
X890000Y782500D02*
D03*
Y742500D02*
D03*
X860000D02*
D03*
X800000Y782500D02*
D03*
X830000Y782500D02*
D03*
X860000D02*
D03*
X830000Y742500D02*
D03*
X800000Y742500D02*
D03*
X830000Y702500D02*
D03*
X800000Y702500D02*
D03*
X675000Y702500D02*
D03*
X705000Y702500D02*
D03*
X735000D02*
D03*
X675000Y742500D02*
D03*
X705000Y742500D02*
D03*
X735000D02*
D03*
Y782500D02*
D03*
X705000D02*
D03*
X675000Y782500D02*
D03*
X452500Y617500D02*
D03*
Y577500D02*
D03*
Y537500D02*
D03*
Y497500D02*
D03*
Y457500D02*
D03*
Y417500D02*
D03*
X422500Y417500D02*
D03*
Y457500D02*
D03*
Y497500D02*
D03*
Y537500D02*
D03*
Y577500D02*
D03*
Y617500D02*
D03*
X1137500Y2040000D02*
D03*
X1017500D02*
D03*
Y2000000D02*
D03*
Y1960000D02*
D03*
Y1920000D02*
D03*
Y1880000D02*
D03*
Y1840000D02*
D03*
X1017500Y1800000D02*
D03*
Y1760000D02*
D03*
Y1720000D02*
D03*
Y1680000D02*
D03*
X1012500Y1640000D02*
D03*
X1042500D02*
D03*
X1047500Y1680000D02*
D03*
Y1720000D02*
D03*
Y1760000D02*
D03*
Y1800000D02*
D03*
X1047500Y1840000D02*
D03*
Y1880000D02*
D03*
Y1920000D02*
D03*
Y1960000D02*
D03*
Y2000000D02*
D03*
Y2040000D02*
D03*
X1072500Y1640000D02*
D03*
X1077500Y1680000D02*
D03*
Y1720000D02*
D03*
Y1760000D02*
D03*
X1077500Y1800000D02*
D03*
X1077500Y1840000D02*
D03*
Y1880000D02*
D03*
X1077500Y1920000D02*
D03*
Y1960000D02*
D03*
Y2000000D02*
D03*
Y2040000D02*
D03*
X1107500Y1680000D02*
D03*
Y1720000D02*
D03*
Y1760000D02*
D03*
Y1800000D02*
D03*
X1107500Y1840000D02*
D03*
Y1880000D02*
D03*
Y1920000D02*
D03*
Y1960000D02*
D03*
Y2000000D02*
D03*
Y2040000D02*
D03*
X1137500Y1720000D02*
D03*
Y1760000D02*
D03*
X1137500Y1800000D02*
D03*
X1137500Y1960000D02*
D03*
Y2000000D02*
D03*
Y1920000D02*
D03*
X1167500D02*
D03*
Y2000000D02*
D03*
Y1960000D02*
D03*
Y2040000D02*
D03*
X1137500Y1680000D02*
D03*
X1137500Y1840000D02*
D03*
Y1880000D02*
D03*
X1012500Y1600000D02*
D03*
X987500Y1680000D02*
D03*
Y1720000D02*
D03*
Y1760000D02*
D03*
Y1800000D02*
D03*
X957500D02*
D03*
Y1760000D02*
D03*
Y1720000D02*
D03*
Y1680000D02*
D03*
X747500D02*
D03*
Y1720000D02*
D03*
Y1760000D02*
D03*
Y1800000D02*
D03*
X777500D02*
D03*
Y1760000D02*
D03*
Y1720000D02*
D03*
Y1680000D02*
D03*
X927500D02*
D03*
X927500Y1800000D02*
D03*
X927500Y1760000D02*
D03*
Y1720000D02*
D03*
X897500Y1800000D02*
D03*
Y1760000D02*
D03*
Y1720000D02*
D03*
Y1680000D02*
D03*
X867500Y1800000D02*
D03*
X867500Y1760000D02*
D03*
Y1720000D02*
D03*
Y1680000D02*
D03*
X837500Y1800000D02*
D03*
Y1760000D02*
D03*
Y1720000D02*
D03*
Y1680000D02*
D03*
X807500D02*
D03*
Y1720000D02*
D03*
Y1760000D02*
D03*
Y1800000D02*
D03*
X537500Y1680000D02*
D03*
Y1720000D02*
D03*
Y1760000D02*
D03*
Y1800000D02*
D03*
X567500D02*
D03*
Y1760000D02*
D03*
Y1720000D02*
D03*
Y1680000D02*
D03*
X717500D02*
D03*
X717500Y1800000D02*
D03*
X717500Y1760000D02*
D03*
Y1720000D02*
D03*
X687500Y1800000D02*
D03*
Y1760000D02*
D03*
Y1720000D02*
D03*
Y1680000D02*
D03*
X657500Y1800000D02*
D03*
X657500Y1760000D02*
D03*
Y1720000D02*
D03*
Y1680000D02*
D03*
X627500Y1800000D02*
D03*
Y1760000D02*
D03*
Y1720000D02*
D03*
Y1680000D02*
D03*
X597500D02*
D03*
Y1720000D02*
D03*
Y1760000D02*
D03*
Y1800000D02*
D03*
X505000Y1800000D02*
D03*
X505000Y1960000D02*
D03*
Y1920000D02*
D03*
Y1880000D02*
D03*
Y1840000D02*
D03*
Y1760000D02*
D03*
Y1720000D02*
D03*
Y1680000D02*
D03*
Y1640000D02*
D03*
X475000D02*
D03*
Y1680000D02*
D03*
Y1720000D02*
D03*
Y1760000D02*
D03*
Y1840000D02*
D03*
Y1880000D02*
D03*
Y1920000D02*
D03*
Y1960000D02*
D03*
X475000Y1800000D02*
D03*
X415000D02*
D03*
X415000Y1960000D02*
D03*
Y1920000D02*
D03*
Y1880000D02*
D03*
Y1840000D02*
D03*
Y1760000D02*
D03*
Y1720000D02*
D03*
Y1680000D02*
D03*
Y1640000D02*
D03*
X445000D02*
D03*
Y1680000D02*
D03*
Y1720000D02*
D03*
Y1760000D02*
D03*
Y1840000D02*
D03*
Y1880000D02*
D03*
Y1920000D02*
D03*
Y1960000D02*
D03*
X445000Y1800000D02*
D03*
X355000D02*
D03*
X355000Y1960000D02*
D03*
Y1920000D02*
D03*
Y1880000D02*
D03*
Y1840000D02*
D03*
Y1760000D02*
D03*
Y1720000D02*
D03*
X385000D02*
D03*
Y1760000D02*
D03*
Y1840000D02*
D03*
Y1880000D02*
D03*
Y1920000D02*
D03*
Y1960000D02*
D03*
X385000Y1800000D02*
D03*
X325000Y1800000D02*
D03*
Y1760000D02*
D03*
Y1720000D02*
D03*
X295000D02*
D03*
Y1760000D02*
D03*
Y1800000D02*
D03*
X265000D02*
D03*
Y1760000D02*
D03*
Y1720000D02*
D03*
X235000Y1800000D02*
D03*
Y1760000D02*
D03*
Y1720000D02*
D03*
X385000Y1680000D02*
D03*
X515000Y1600000D02*
D03*
Y1560000D02*
D03*
Y1520000D02*
D03*
Y1480000D02*
D03*
Y1440000D02*
D03*
Y1400000D02*
D03*
Y1360000D02*
D03*
Y1320000D02*
D03*
X485000Y1440000D02*
D03*
Y1400000D02*
D03*
Y1360000D02*
D03*
Y1320000D02*
D03*
X455000Y1440000D02*
D03*
Y1400000D02*
D03*
Y1360000D02*
D03*
Y1320000D02*
D03*
X425000Y1440000D02*
D03*
Y1400000D02*
D03*
Y1360000D02*
D03*
Y1320000D02*
D03*
X395000Y1440000D02*
D03*
Y1400000D02*
D03*
Y1360000D02*
D03*
Y1320000D02*
D03*
X365000Y1440000D02*
D03*
Y1400000D02*
D03*
Y1360000D02*
D03*
Y1320000D02*
D03*
X335000Y1440000D02*
D03*
Y1400000D02*
D03*
Y1360000D02*
D03*
Y1320000D02*
D03*
X305000Y1440000D02*
D03*
Y1400000D02*
D03*
Y1360000D02*
D03*
Y1320000D02*
D03*
X275000Y1440000D02*
D03*
Y1400000D02*
D03*
Y1360000D02*
D03*
Y1320000D02*
D03*
X245000Y1440000D02*
D03*
Y1400000D02*
D03*
Y1360000D02*
D03*
Y1320000D02*
D03*
X382500Y1160000D02*
D03*
Y1200000D02*
D03*
Y1240000D02*
D03*
Y1280000D02*
D03*
X352500D02*
D03*
Y1240000D02*
D03*
Y1200000D02*
D03*
Y1160000D02*
D03*
Y1080000D02*
D03*
Y1120000D02*
D03*
X382500D02*
D03*
Y1080000D02*
D03*
X322500Y1057500D02*
D03*
Y1097500D02*
D03*
X292500D02*
D03*
Y1057500D02*
D03*
Y1137500D02*
D03*
X322500D02*
D03*
X262500Y1057500D02*
D03*
Y1097500D02*
D03*
Y1137500D02*
D03*
X172500D02*
D03*
Y1097500D02*
D03*
Y1057500D02*
D03*
X232500Y1137500D02*
D03*
X202500D02*
D03*
Y1057500D02*
D03*
Y1097500D02*
D03*
X232500D02*
D03*
Y1057500D02*
D03*
X82500Y1137500D02*
D03*
Y1097500D02*
D03*
Y1057500D02*
D03*
X142500Y1137500D02*
D03*
X112500D02*
D03*
Y1057500D02*
D03*
Y1097500D02*
D03*
X142500D02*
D03*
Y1057500D02*
D03*
X52500Y1137500D02*
D03*
Y1097500D02*
D03*
Y1057500D02*
D03*
X62500Y937500D02*
D03*
Y977500D02*
D03*
X32500D02*
D03*
Y937500D02*
D03*
Y1017500D02*
D03*
X62500D02*
D03*
X122500Y977500D02*
D03*
Y937500D02*
D03*
Y1017500D02*
D03*
X92500Y937500D02*
D03*
Y977500D02*
D03*
Y1017500D02*
D03*
Y897500D02*
D03*
Y857500D02*
D03*
Y817500D02*
D03*
X122500Y897500D02*
D03*
Y817500D02*
D03*
Y857500D02*
D03*
X62500Y897500D02*
D03*
X32500D02*
D03*
Y817500D02*
D03*
Y857500D02*
D03*
X62500D02*
D03*
Y817500D02*
D03*
Y577500D02*
D03*
Y617500D02*
D03*
X32500D02*
D03*
Y577500D02*
D03*
Y657500D02*
D03*
X62500D02*
D03*
X122500Y617500D02*
D03*
Y577500D02*
D03*
Y657500D02*
D03*
X92500Y577500D02*
D03*
Y617500D02*
D03*
Y657500D02*
D03*
Y777500D02*
D03*
Y737500D02*
D03*
Y697500D02*
D03*
X122500Y777500D02*
D03*
Y697500D02*
D03*
Y737500D02*
D03*
X62500Y777500D02*
D03*
X32500D02*
D03*
Y697500D02*
D03*
Y737500D02*
D03*
X62500D02*
D03*
Y697500D02*
D03*
X92500Y537500D02*
D03*
X122500Y537500D02*
D03*
X32500D02*
D03*
X62500D02*
D03*
X182500D02*
D03*
X152500D02*
D03*
X242500D02*
D03*
X212500Y537500D02*
D03*
Y617500D02*
D03*
Y577500D02*
D03*
X242500Y577500D02*
D03*
Y617500D02*
D03*
X152500Y577500D02*
D03*
Y617500D02*
D03*
X182500D02*
D03*
X302500Y537500D02*
D03*
X272500D02*
D03*
X362500D02*
D03*
X332500Y537500D02*
D03*
Y617500D02*
D03*
Y577500D02*
D03*
X362500Y577500D02*
D03*
Y617500D02*
D03*
X272500Y577500D02*
D03*
Y617500D02*
D03*
X302500D02*
D03*
Y577500D02*
D03*
X392500Y617500D02*
D03*
Y577500D02*
D03*
Y537500D02*
D03*
D81*
X1493000Y165000D02*
D03*
X1477000D02*
D03*
X1393000Y242500D02*
D03*
X1377000D02*
D03*
X1210500Y712500D02*
D03*
X1194500D02*
D03*
X1393000Y322500D02*
D03*
X1377000D02*
D03*
X69500Y160000D02*
D03*
X85500D02*
D03*
X198000Y262500D02*
D03*
X182000D02*
D03*
X352000Y692500D02*
D03*
X368000D02*
D03*
X200500Y325000D02*
D03*
X184500D02*
D03*
D82*
X1452500Y369500D02*
D03*
Y385500D02*
D03*
X90000Y367000D02*
D03*
Y383000D02*
D03*
D83*
X385250Y690000D02*
D03*
X419750D02*
D03*
X1172250Y707500D02*
D03*
X1137750D02*
D03*
D89*
X947500Y1964599D02*
D03*
Y1925000D02*
D03*
Y1885401D02*
D03*
D91*
X1475000Y402400D02*
D03*
Y377000D02*
D03*
Y351600D02*
D03*
Y275400D02*
D03*
X60000Y397575D02*
D03*
Y372175D02*
D03*
Y346775D02*
D03*
Y270575D02*
D03*
D92*
X1475000Y250000D02*
D03*
X60000Y245175D02*
D03*
D93*
X1485000Y1740000D02*
D03*
X1435000D02*
D03*
X1385000D02*
D03*
X1435000Y1520000D02*
D03*
X1485000D02*
D03*
X1535000D02*
D03*
D94*
Y1740000D02*
D03*
X1385000Y1520000D02*
D03*
D95*
X69923Y110000D02*
D03*
X90002D02*
D03*
X110000D02*
D03*
X130002D02*
D03*
X150001D02*
D03*
X1495077Y110000D02*
D03*
X1474998D02*
D03*
X1455000D02*
D03*
X1434998D02*
D03*
X1414999D02*
D03*
D96*
X169999Y110000D02*
D03*
X1395001Y110000D02*
D03*
D97*
X1018500Y880250D02*
D03*
X559500Y989250D02*
D03*
Y599250D02*
D03*
X1018500Y490250D02*
D03*
D98*
Y934750D02*
D03*
Y989250D02*
D03*
X559500Y934750D02*
D03*
Y880250D02*
D03*
Y544750D02*
D03*
Y490250D02*
D03*
X1018500Y544750D02*
D03*
Y599250D02*
D03*
D99*
X325000Y1530000D02*
D03*
X1390000Y1970000D02*
D03*
X1220000Y1615000D02*
D03*
X1357500Y1267500D02*
D03*
X160000Y1845000D02*
D03*
Y1210000D02*
D03*
D100*
X425000Y1530000D02*
D03*
X1290000Y1970000D02*
D03*
X1120000Y1615000D02*
D03*
X1257500Y1267500D02*
D03*
X260000Y1845000D02*
D03*
Y1210000D02*
D03*
D101*
X963501Y715750D02*
D03*
Y176500D02*
D03*
X615501Y175500D02*
D03*
Y714750D02*
D03*
X963500Y1305000D02*
D03*
Y765750D02*
D03*
X615500Y764750D02*
D03*
Y1304000D02*
D03*
D102*
X1390000Y935000D02*
D03*
Y560000D02*
D03*
X180000Y960000D02*
D03*
Y585000D02*
D03*
D103*
X1512500Y1410800D02*
D03*
Y1360000D02*
D03*
X397500Y170000D02*
D03*
X346700D02*
D03*
X722500Y1559200D02*
D03*
Y1610000D02*
D03*
X1222500Y180000D02*
D03*
X1171700D02*
D03*
D104*
X486000Y1606002D02*
D03*
Y1586002D02*
D03*
Y1566002D02*
D03*
Y1546002D02*
D03*
Y1526002D02*
D03*
Y1506002D02*
D03*
Y1486002D02*
D03*
Y1466002D02*
D03*
X466000Y1606002D02*
D03*
Y1586002D02*
D03*
Y1566002D02*
D03*
Y1546002D02*
D03*
Y1526002D02*
D03*
Y1506002D02*
D03*
Y1486002D02*
D03*
Y1466002D02*
D03*
X446000Y1606002D02*
D03*
Y1586002D02*
D03*
Y1566002D02*
D03*
Y1546002D02*
D03*
Y1506002D02*
D03*
Y1486002D02*
D03*
Y1466002D02*
D03*
X426000Y1606002D02*
D03*
Y1586002D02*
D03*
Y1566002D02*
D03*
Y1506002D02*
D03*
Y1486002D02*
D03*
Y1466002D02*
D03*
X406000Y1606002D02*
D03*
Y1586002D02*
D03*
Y1566002D02*
D03*
Y1506002D02*
D03*
Y1486002D02*
D03*
Y1466002D02*
D03*
X326000Y1946002D02*
D03*
Y1926002D02*
D03*
Y1906002D02*
D03*
Y1886002D02*
D03*
Y1866002D02*
D03*
Y1846002D02*
D03*
Y1826002D02*
D03*
X306000Y1946002D02*
D03*
Y1926002D02*
D03*
Y1906002D02*
D03*
Y1886002D02*
D03*
Y1866002D02*
D03*
Y1846002D02*
D03*
Y1826002D02*
D03*
X286000Y1946002D02*
D03*
Y1926002D02*
D03*
Y1906002D02*
D03*
Y1886002D02*
D03*
Y1866002D02*
D03*
Y1846002D02*
D03*
Y1826002D02*
D03*
X266000Y1946002D02*
D03*
Y1926002D02*
D03*
Y1906002D02*
D03*
Y1886002D02*
D03*
X246000Y1946002D02*
D03*
Y1926002D02*
D03*
Y1906002D02*
D03*
Y1886002D02*
D03*
X346000Y1626002D02*
D03*
Y1606002D02*
D03*
Y1586002D02*
D03*
Y1566002D02*
D03*
X326000Y1626002D02*
D03*
Y1606002D02*
D03*
Y1586002D02*
D03*
Y1566002D02*
D03*
Y1506002D02*
D03*
X306000Y1626002D02*
D03*
Y1606002D02*
D03*
Y1586002D02*
D03*
Y1566002D02*
D03*
X286000Y1626002D02*
D03*
Y1606002D02*
D03*
Y1586002D02*
D03*
Y1566002D02*
D03*
Y1546002D02*
D03*
Y1526002D02*
D03*
Y1506002D02*
D03*
X266000Y1626002D02*
D03*
Y1606002D02*
D03*
Y1586002D02*
D03*
Y1566002D02*
D03*
Y1546002D02*
D03*
Y1526002D02*
D03*
Y1506002D02*
D03*
X246000Y1626002D02*
D03*
Y1606002D02*
D03*
Y1586002D02*
D03*
Y1566002D02*
D03*
Y1546002D02*
D03*
Y1526002D02*
D03*
Y1506002D02*
D03*
X226000Y1626002D02*
D03*
Y1606002D02*
D03*
Y1586002D02*
D03*
Y1566002D02*
D03*
Y1546002D02*
D03*
Y1526002D02*
D03*
Y1506002D02*
D03*
X206000Y1626002D02*
D03*
Y1606002D02*
D03*
Y1586002D02*
D03*
Y1566002D02*
D03*
Y1546002D02*
D03*
Y1526002D02*
D03*
Y1506002D02*
D03*
X186000Y1926002D02*
D03*
Y1906002D02*
D03*
Y1886002D02*
D03*
Y1866002D02*
D03*
Y1846002D02*
D03*
Y1826002D02*
D03*
Y1326002D02*
D03*
Y1306002D02*
D03*
Y1286002D02*
D03*
Y1266002D02*
D03*
Y1246002D02*
D03*
Y1226002D02*
D03*
Y1206002D02*
D03*
X166000Y1946002D02*
D03*
Y1926002D02*
D03*
Y1906002D02*
D03*
Y1886002D02*
D03*
Y1806002D02*
D03*
Y1326002D02*
D03*
Y1306002D02*
D03*
Y1286002D02*
D03*
Y1266002D02*
D03*
Y1246002D02*
D03*
X146000Y1946002D02*
D03*
Y1926002D02*
D03*
Y1906002D02*
D03*
Y1886002D02*
D03*
Y1806002D02*
D03*
Y1326002D02*
D03*
Y1306002D02*
D03*
Y1286002D02*
D03*
Y1266002D02*
D03*
Y1246002D02*
D03*
X126000Y1946002D02*
D03*
Y1926002D02*
D03*
Y1906002D02*
D03*
Y1886002D02*
D03*
Y1866002D02*
D03*
Y1846002D02*
D03*
Y1826002D02*
D03*
Y1806002D02*
D03*
Y1326002D02*
D03*
Y1306002D02*
D03*
Y1286002D02*
D03*
Y1266002D02*
D03*
Y1246002D02*
D03*
Y1226002D02*
D03*
Y1206002D02*
D03*
X106000Y1946002D02*
D03*
Y1926002D02*
D03*
Y1906002D02*
D03*
Y1886002D02*
D03*
Y1866002D02*
D03*
Y1846002D02*
D03*
Y1826002D02*
D03*
Y1806002D02*
D03*
Y1326002D02*
D03*
Y1306002D02*
D03*
Y1286002D02*
D03*
Y1266002D02*
D03*
Y1246002D02*
D03*
Y1226002D02*
D03*
Y1206002D02*
D03*
X86000Y1946002D02*
D03*
Y1926002D02*
D03*
Y1906002D02*
D03*
Y1886002D02*
D03*
Y1866002D02*
D03*
Y1846002D02*
D03*
Y1826002D02*
D03*
Y1806002D02*
D03*
Y1326002D02*
D03*
Y1306002D02*
D03*
Y1286002D02*
D03*
Y1266002D02*
D03*
Y1246002D02*
D03*
Y1226002D02*
D03*
Y1206002D02*
D03*
X66000Y1946002D02*
D03*
Y1926002D02*
D03*
Y1906002D02*
D03*
Y1886002D02*
D03*
Y1866002D02*
D03*
Y1846002D02*
D03*
Y1826002D02*
D03*
Y1806002D02*
D03*
Y1306002D02*
D03*
Y1286002D02*
D03*
Y1266002D02*
D03*
Y1246002D02*
D03*
Y1226002D02*
D03*
Y1206002D02*
D03*
X46000Y1926002D02*
D03*
Y1906002D02*
D03*
Y1886002D02*
D03*
Y1866002D02*
D03*
Y1846002D02*
D03*
Y1826002D02*
D03*
Y1306002D02*
D03*
Y1286002D02*
D03*
Y1266002D02*
D03*
Y1246002D02*
D03*
Y1226002D02*
D03*
Y1206002D02*
D03*
X206000Y926002D02*
D03*
X246000D02*
D03*
X166000Y946002D02*
D03*
X206000D02*
D03*
X246000Y966002D02*
D03*
X286000Y946002D02*
D03*
X266000D02*
D03*
X326000Y966002D02*
D03*
X166000Y986002D02*
D03*
X186000Y1006002D02*
D03*
X266000Y986002D02*
D03*
X286000D02*
D03*
X306000D02*
D03*
X346000D02*
D03*
X306000Y1006002D02*
D03*
X366000Y986002D02*
D03*
Y946002D02*
D03*
X386000Y1006002D02*
D03*
X246000D02*
D03*
X1206001Y926002D02*
D03*
X1226001D02*
D03*
X1186001D02*
D03*
X1206001Y946002D02*
D03*
X1226001D02*
D03*
X1186001Y966002D02*
D03*
X1206001D02*
D03*
X1306001Y926002D02*
D03*
X1286001D02*
D03*
X1246001Y966002D02*
D03*
X1306001Y946002D02*
D03*
X1286001D02*
D03*
X1186001Y986002D02*
D03*
X1206001Y1006002D02*
D03*
X1186001D02*
D03*
X1246001D02*
D03*
X1266001Y966002D02*
D03*
X1286001D02*
D03*
X1326001D02*
D03*
X1286001Y986002D02*
D03*
X1266001Y1006002D02*
D03*
X1286001D02*
D03*
Y1606002D02*
D03*
X1326001Y1006002D02*
D03*
X1346001Y946002D02*
D03*
X1366001Y926002D02*
D03*
X1346001Y966002D02*
D03*
X1366001Y946002D02*
D03*
X1346001Y986002D02*
D03*
X1366001Y966002D02*
D03*
X1386001Y986002D02*
D03*
Y966002D02*
D03*
X1446001Y1246002D02*
D03*
X1426001D02*
D03*
X1406001Y1266002D02*
D03*
X1426001D02*
D03*
X1366001Y1326002D02*
D03*
Y1306002D02*
D03*
X1386001Y1286002D02*
D03*
Y1306002D02*
D03*
X1406001Y1286002D02*
D03*
X1386001Y1346002D02*
D03*
X1406001Y1306002D02*
D03*
X1446001D02*
D03*
X1406001Y1326002D02*
D03*
X1426001D02*
D03*
Y1346002D02*
D03*
X1206001Y1646002D02*
D03*
X1226001Y1666002D02*
D03*
Y1646002D02*
D03*
X1246001Y1626002D02*
D03*
Y1646002D02*
D03*
X1226001Y1686002D02*
D03*
X1266001Y1606002D02*
D03*
Y1666002D02*
D03*
Y1686002D02*
D03*
X1286001D02*
D03*
X1386001D02*
D03*
X1366001Y1766002D02*
D03*
X1346001D02*
D03*
X1386001Y1806002D02*
D03*
Y1786002D02*
D03*
Y1926002D02*
D03*
Y1906002D02*
D03*
X1406001Y1686002D02*
D03*
Y1726002D02*
D03*
X1426001Y1686002D02*
D03*
Y1766002D02*
D03*
X1406001Y1786002D02*
D03*
X1426001Y1806002D02*
D03*
X1406001Y1906002D02*
D03*
X1446001Y1806002D02*
D03*
Y1906002D02*
D03*
X1466001D02*
D03*
X1406001Y1926002D02*
D03*
X1446001Y1946002D02*
D03*
X1406001Y2006002D02*
D03*
X1426001Y1986002D02*
D03*
Y2006002D02*
D03*
X1446001Y1986002D02*
D03*
X1466001Y1926002D02*
D03*
Y1966002D02*
D03*
X1486001Y1926002D02*
D03*
X1446001Y2006002D02*
D03*
X1466001D02*
D03*
X1146001Y1206002D02*
D03*
Y1226002D02*
D03*
X1166001Y1206002D02*
D03*
X1186001Y1226002D02*
D03*
X1166001Y1266002D02*
D03*
X1146001Y1286002D02*
D03*
X1186001D02*
D03*
Y1206002D02*
D03*
X1246001D02*
D03*
X1226001Y1246002D02*
D03*
X1246001Y1226002D02*
D03*
X1266001D02*
D03*
X1206001Y1286002D02*
D03*
X1366001Y1486002D02*
D03*
X1346001Y1546002D02*
D03*
X1406001Y1486002D02*
D03*
Y1506002D02*
D03*
Y1526002D02*
D03*
X1206001Y1906002D02*
D03*
X1226001Y1886002D02*
D03*
Y1906002D02*
D03*
X1246001Y1886002D02*
D03*
X1206001Y1926002D02*
D03*
X1226001Y1946002D02*
D03*
Y1966002D02*
D03*
X1206001Y1986002D02*
D03*
Y2006002D02*
D03*
Y2046002D02*
D03*
X1226001D02*
D03*
X1246001Y1906002D02*
D03*
X1226001Y1986002D02*
D03*
Y2026002D02*
D03*
Y2006002D02*
D03*
X1246001Y2046002D02*
D03*
X1286001Y1886002D02*
D03*
X1266001Y1906002D02*
D03*
X1306001D02*
D03*
X1406001Y1566002D02*
D03*
X1426001D02*
D03*
X1386001Y1586002D02*
D03*
X1406001D02*
D03*
X1366001D02*
D03*
X1426001D02*
D03*
X1246001Y1966002D02*
D03*
X1266001Y1926002D02*
D03*
Y1986002D02*
D03*
X1246001Y2006002D02*
D03*
X1266001D02*
D03*
Y2026002D02*
D03*
X1306001Y1926002D02*
D03*
Y2006002D02*
D03*
X1286001Y2026002D02*
D03*
X1306001D02*
D03*
X616000Y875999D02*
D03*
X631000D02*
D03*
X646000D02*
D03*
X616000Y905999D02*
D03*
X631000D02*
D03*
X661000Y875999D02*
D03*
X646000Y860999D02*
D03*
X1190000Y750000D02*
D03*
X1126000Y950999D02*
D03*
Y935999D02*
D03*
Y920999D02*
D03*
Y905999D02*
D03*
X1111000Y950999D02*
D03*
Y935999D02*
D03*
Y920999D02*
D03*
Y905999D02*
D03*
X1096000Y950999D02*
D03*
Y935999D02*
D03*
Y920999D02*
D03*
Y905999D02*
D03*
X1081000Y950999D02*
D03*
Y935999D02*
D03*
Y920999D02*
D03*
Y905999D02*
D03*
X1066000Y935999D02*
D03*
Y920999D02*
D03*
Y905999D02*
D03*
X1051000Y935999D02*
D03*
Y920999D02*
D03*
X1036000Y935999D02*
D03*
Y920999D02*
D03*
X991000Y935999D02*
D03*
Y920999D02*
D03*
X976000D02*
D03*
Y905999D02*
D03*
X961000D02*
D03*
X1246001Y286001D02*
D03*
Y266001D02*
D03*
Y246001D02*
D03*
Y226001D02*
D03*
Y206001D02*
D03*
Y186001D02*
D03*
Y166001D02*
D03*
Y146001D02*
D03*
Y126001D02*
D03*
Y106001D02*
D03*
Y86001D02*
D03*
X1226001Y286001D02*
D03*
Y266001D02*
D03*
Y246001D02*
D03*
Y226001D02*
D03*
Y206001D02*
D03*
Y146001D02*
D03*
Y126001D02*
D03*
Y106001D02*
D03*
Y86001D02*
D03*
X1206001Y286001D02*
D03*
Y266001D02*
D03*
Y246001D02*
D03*
Y226001D02*
D03*
Y206001D02*
D03*
Y166001D02*
D03*
Y146001D02*
D03*
Y106001D02*
D03*
Y86001D02*
D03*
X1186001Y286001D02*
D03*
Y266001D02*
D03*
Y246001D02*
D03*
Y226001D02*
D03*
Y206001D02*
D03*
Y166001D02*
D03*
Y146001D02*
D03*
Y106001D02*
D03*
Y86001D02*
D03*
X1166001Y286001D02*
D03*
Y266001D02*
D03*
Y246001D02*
D03*
Y226001D02*
D03*
Y206001D02*
D03*
Y146001D02*
D03*
Y126001D02*
D03*
Y106001D02*
D03*
Y86001D02*
D03*
X1146001Y286001D02*
D03*
Y266001D02*
D03*
Y246001D02*
D03*
Y226001D02*
D03*
Y206001D02*
D03*
Y186001D02*
D03*
Y166001D02*
D03*
Y146001D02*
D03*
Y126001D02*
D03*
Y106001D02*
D03*
Y86001D02*
D03*
X556000Y470999D02*
D03*
Y455999D02*
D03*
Y440999D02*
D03*
X541000Y500999D02*
D03*
Y485999D02*
D03*
Y470999D02*
D03*
Y455999D02*
D03*
Y440999D02*
D03*
X526000Y500999D02*
D03*
Y485999D02*
D03*
Y470999D02*
D03*
Y455999D02*
D03*
Y440999D02*
D03*
X511000Y500999D02*
D03*
Y485999D02*
D03*
Y470999D02*
D03*
Y455999D02*
D03*
Y440999D02*
D03*
X496000Y530999D02*
D03*
Y515999D02*
D03*
Y500999D02*
D03*
Y485999D02*
D03*
Y470999D02*
D03*
Y455999D02*
D03*
Y440999D02*
D03*
X481000Y530999D02*
D03*
Y515999D02*
D03*
Y500999D02*
D03*
Y485999D02*
D03*
Y470999D02*
D03*
Y455999D02*
D03*
Y440999D02*
D03*
X796000Y485999D02*
D03*
X811000Y470999D02*
D03*
X826000D02*
D03*
X796000Y500999D02*
D03*
Y530999D02*
D03*
X811000Y500999D02*
D03*
Y485999D02*
D03*
X796000Y590999D02*
D03*
Y620999D02*
D03*
Y605999D02*
D03*
X811000Y530999D02*
D03*
Y545999D02*
D03*
X826000Y515999D02*
D03*
Y485999D02*
D03*
Y560999D02*
D03*
Y530999D02*
D03*
X811000Y605999D02*
D03*
Y590999D02*
D03*
Y620999D02*
D03*
X826000Y590999D02*
D03*
X841000Y485999D02*
D03*
Y470999D02*
D03*
X856000Y485999D02*
D03*
X871000Y470999D02*
D03*
X826000Y545999D02*
D03*
X841000Y530999D02*
D03*
Y560999D02*
D03*
X826000Y605999D02*
D03*
X856000Y515999D02*
D03*
Y500999D02*
D03*
X871000Y545999D02*
D03*
X856000Y620999D02*
D03*
X796000Y635999D02*
D03*
Y650999D02*
D03*
Y665999D02*
D03*
X811000Y650999D02*
D03*
Y665999D02*
D03*
X796000Y815999D02*
D03*
Y830999D02*
D03*
X811000Y860999D02*
D03*
Y635999D02*
D03*
X826000D02*
D03*
Y665999D02*
D03*
Y815999D02*
D03*
X811000D02*
D03*
Y845999D02*
D03*
X826000D02*
D03*
Y830999D02*
D03*
Y860999D02*
D03*
X796000Y890999D02*
D03*
Y875999D02*
D03*
Y920999D02*
D03*
Y905999D02*
D03*
X811000Y875999D02*
D03*
X826000Y920999D02*
D03*
Y875999D02*
D03*
X841000Y650999D02*
D03*
Y845999D02*
D03*
Y830999D02*
D03*
X856000Y845999D02*
D03*
X871000Y815999D02*
D03*
X856000D02*
D03*
X826000Y890999D02*
D03*
X856000Y920999D02*
D03*
X931000Y470999D02*
D03*
X961000D02*
D03*
X886000Y485999D02*
D03*
Y500999D02*
D03*
X901000Y485999D02*
D03*
X886000Y515999D02*
D03*
X901000Y500999D02*
D03*
X886000Y815999D02*
D03*
X901000Y515999D02*
D03*
Y815999D02*
D03*
X916000Y500999D02*
D03*
Y530999D02*
D03*
X946000Y515999D02*
D03*
X886000Y830999D02*
D03*
X916000Y1025999D02*
D03*
Y1010999D02*
D03*
X931000Y1025999D02*
D03*
Y1040999D02*
D03*
X946000Y1025999D02*
D03*
X931000Y1070999D02*
D03*
X946000Y1055999D02*
D03*
X961000Y485999D02*
D03*
X976000D02*
D03*
Y515999D02*
D03*
Y500999D02*
D03*
X961000Y515999D02*
D03*
X976000Y530999D02*
D03*
X991000Y980999D02*
D03*
X976000Y1010999D02*
D03*
X1036000Y545999D02*
D03*
X1051000Y530999D02*
D03*
X991000Y995999D02*
D03*
X1006000Y1010999D02*
D03*
X961000Y1040999D02*
D03*
Y1025999D02*
D03*
Y1070999D02*
D03*
X976000D02*
D03*
Y1085999D02*
D03*
X991000Y1025999D02*
D03*
Y1010999D02*
D03*
X1006000Y1025999D02*
D03*
X1036000D02*
D03*
X991000Y1055999D02*
D03*
Y1040999D02*
D03*
X1006000Y1055999D02*
D03*
X1051000Y545999D02*
D03*
X1036000Y530999D02*
D03*
X991000Y545999D02*
D03*
Y530999D02*
D03*
X976000Y470999D02*
D03*
X961000Y500999D02*
D03*
X946000D02*
D03*
Y485999D02*
D03*
Y470999D02*
D03*
X931000Y530999D02*
D03*
Y515999D02*
D03*
Y500999D02*
D03*
Y485999D02*
D03*
X916000Y515999D02*
D03*
Y485999D02*
D03*
Y470999D02*
D03*
X901000Y530999D02*
D03*
Y470999D02*
D03*
X886000Y530999D02*
D03*
Y470999D02*
D03*
X871000Y530999D02*
D03*
Y515999D02*
D03*
Y500999D02*
D03*
Y485999D02*
D03*
X856000Y665999D02*
D03*
Y650999D02*
D03*
Y635999D02*
D03*
Y605999D02*
D03*
Y590999D02*
D03*
Y575999D02*
D03*
Y560999D02*
D03*
Y545999D02*
D03*
Y530999D02*
D03*
Y470999D02*
D03*
X841000Y665999D02*
D03*
Y635999D02*
D03*
Y620999D02*
D03*
Y605999D02*
D03*
Y590999D02*
D03*
Y575999D02*
D03*
Y545999D02*
D03*
Y515999D02*
D03*
Y500999D02*
D03*
X826000Y650999D02*
D03*
Y620999D02*
D03*
Y575999D02*
D03*
Y500999D02*
D03*
X811000Y575999D02*
D03*
Y560999D02*
D03*
Y515999D02*
D03*
X796000Y575999D02*
D03*
Y560999D02*
D03*
Y545999D02*
D03*
Y515999D02*
D03*
Y470999D02*
D03*
X901000Y830999D02*
D03*
X871000D02*
D03*
X856000Y905999D02*
D03*
Y890999D02*
D03*
Y875999D02*
D03*
Y860999D02*
D03*
Y830999D02*
D03*
X841000Y920999D02*
D03*
Y905999D02*
D03*
Y890999D02*
D03*
Y875999D02*
D03*
Y860999D02*
D03*
Y815999D02*
D03*
X826000Y905999D02*
D03*
X811000Y920999D02*
D03*
Y905999D02*
D03*
Y890999D02*
D03*
Y830999D02*
D03*
X796000Y860999D02*
D03*
Y845999D02*
D03*
X1036000Y1010999D02*
D03*
Y980999D02*
D03*
X1021000Y1040999D02*
D03*
Y1025999D02*
D03*
Y1010999D02*
D03*
X1006000Y1040999D02*
D03*
X991000Y1070999D02*
D03*
X976000Y1055999D02*
D03*
Y1040999D02*
D03*
Y1025999D02*
D03*
Y995999D02*
D03*
X961000Y1085999D02*
D03*
Y1055999D02*
D03*
X946000Y1085999D02*
D03*
Y1070999D02*
D03*
Y1040999D02*
D03*
X931000Y1085999D02*
D03*
Y1055999D02*
D03*
X916000Y1085999D02*
D03*
Y1070999D02*
D03*
Y1055999D02*
D03*
Y1040999D02*
D03*
X436000Y123501D02*
D03*
Y103501D02*
D03*
Y83501D02*
D03*
X416000Y343501D02*
D03*
Y323501D02*
D03*
Y303501D02*
D03*
Y283501D02*
D03*
Y263501D02*
D03*
Y243501D02*
D03*
Y223501D02*
D03*
Y203501D02*
D03*
Y183501D02*
D03*
Y163501D02*
D03*
Y143501D02*
D03*
Y123501D02*
D03*
Y103501D02*
D03*
Y83501D02*
D03*
X396000Y343501D02*
D03*
Y323501D02*
D03*
Y303501D02*
D03*
Y283501D02*
D03*
Y263501D02*
D03*
Y243501D02*
D03*
Y223501D02*
D03*
Y203501D02*
D03*
Y143501D02*
D03*
Y123501D02*
D03*
Y103501D02*
D03*
Y83501D02*
D03*
X376000Y343501D02*
D03*
Y323501D02*
D03*
Y303501D02*
D03*
Y283501D02*
D03*
Y263501D02*
D03*
Y243501D02*
D03*
Y223501D02*
D03*
Y203501D02*
D03*
Y143501D02*
D03*
Y123501D02*
D03*
Y83501D02*
D03*
X356000Y343501D02*
D03*
Y323501D02*
D03*
Y303501D02*
D03*
Y283501D02*
D03*
Y263501D02*
D03*
Y243501D02*
D03*
Y223501D02*
D03*
Y203501D02*
D03*
Y143501D02*
D03*
Y123501D02*
D03*
Y83501D02*
D03*
X336000Y343501D02*
D03*
Y323501D02*
D03*
Y303501D02*
D03*
Y283501D02*
D03*
Y263501D02*
D03*
Y243501D02*
D03*
Y223501D02*
D03*
Y203501D02*
D03*
Y143501D02*
D03*
Y123501D02*
D03*
Y103501D02*
D03*
Y83501D02*
D03*
X316000Y343501D02*
D03*
Y323501D02*
D03*
Y303501D02*
D03*
Y283501D02*
D03*
Y263501D02*
D03*
Y243501D02*
D03*
Y223501D02*
D03*
Y203501D02*
D03*
Y183501D02*
D03*
Y163501D02*
D03*
Y143501D02*
D03*
Y123501D02*
D03*
Y103501D02*
D03*
X736000Y665999D02*
D03*
Y650999D02*
D03*
Y635999D02*
D03*
Y620999D02*
D03*
Y605999D02*
D03*
Y590999D02*
D03*
Y575999D02*
D03*
Y560999D02*
D03*
Y545999D02*
D03*
Y530999D02*
D03*
X721000Y665999D02*
D03*
Y650999D02*
D03*
Y635999D02*
D03*
Y620999D02*
D03*
Y605999D02*
D03*
Y590999D02*
D03*
Y575999D02*
D03*
Y560999D02*
D03*
Y545999D02*
D03*
Y530999D02*
D03*
X706000Y665999D02*
D03*
Y650999D02*
D03*
Y635999D02*
D03*
Y620999D02*
D03*
Y605999D02*
D03*
Y590999D02*
D03*
Y575999D02*
D03*
Y560999D02*
D03*
Y545999D02*
D03*
Y530999D02*
D03*
X691000Y665999D02*
D03*
Y650999D02*
D03*
Y635999D02*
D03*
Y620999D02*
D03*
Y605999D02*
D03*
Y590999D02*
D03*
Y575999D02*
D03*
Y560999D02*
D03*
Y545999D02*
D03*
Y530999D02*
D03*
X676000Y665999D02*
D03*
Y650999D02*
D03*
Y635999D02*
D03*
Y620999D02*
D03*
Y605999D02*
D03*
Y590999D02*
D03*
Y575999D02*
D03*
Y560999D02*
D03*
Y545999D02*
D03*
Y530999D02*
D03*
X661000Y650999D02*
D03*
Y635999D02*
D03*
Y620999D02*
D03*
Y605999D02*
D03*
Y590999D02*
D03*
Y575999D02*
D03*
Y560999D02*
D03*
Y545999D02*
D03*
Y530999D02*
D03*
X646000Y650999D02*
D03*
Y635999D02*
D03*
Y620999D02*
D03*
Y605999D02*
D03*
Y590999D02*
D03*
Y575999D02*
D03*
Y560999D02*
D03*
Y545999D02*
D03*
X631000Y650999D02*
D03*
Y635999D02*
D03*
Y620999D02*
D03*
Y605999D02*
D03*
Y590999D02*
D03*
Y575999D02*
D03*
Y560999D02*
D03*
X616000Y650999D02*
D03*
Y635999D02*
D03*
Y620999D02*
D03*
Y605999D02*
D03*
Y590999D02*
D03*
Y575999D02*
D03*
Y560999D02*
D03*
X601000Y635999D02*
D03*
Y620999D02*
D03*
Y605999D02*
D03*
Y590999D02*
D03*
Y575999D02*
D03*
Y560999D02*
D03*
Y545999D02*
D03*
X586000Y560999D02*
D03*
Y545999D02*
D03*
X571000Y560999D02*
D03*
X541000D02*
D03*
Y545999D02*
D03*
X166000Y926002D02*
D03*
X186000D02*
D03*
Y986002D02*
D03*
X206000Y966002D02*
D03*
Y986002D02*
D03*
Y1006002D02*
D03*
X226000Y926002D02*
D03*
Y946002D02*
D03*
Y966002D02*
D03*
Y986002D02*
D03*
Y1006002D02*
D03*
X246000Y946002D02*
D03*
Y986002D02*
D03*
X266000Y926002D02*
D03*
Y966002D02*
D03*
Y1006002D02*
D03*
X286000Y926002D02*
D03*
Y966002D02*
D03*
Y1006002D02*
D03*
X306000Y926002D02*
D03*
Y946002D02*
D03*
Y966002D02*
D03*
X326000Y926002D02*
D03*
Y946002D02*
D03*
Y986002D02*
D03*
Y1006002D02*
D03*
X346000Y926002D02*
D03*
Y946002D02*
D03*
Y966002D02*
D03*
Y1006002D02*
D03*
X366000Y926002D02*
D03*
Y966002D02*
D03*
Y1006002D02*
D03*
X386000Y926002D02*
D03*
Y946002D02*
D03*
Y966002D02*
D03*
Y986002D02*
D03*
X1186001Y946002D02*
D03*
X1206001Y986002D02*
D03*
X1226001Y966002D02*
D03*
Y986002D02*
D03*
Y1006002D02*
D03*
X1246001Y926002D02*
D03*
Y946002D02*
D03*
Y986002D02*
D03*
X1266001Y926002D02*
D03*
Y946002D02*
D03*
Y986002D02*
D03*
X1306001Y966002D02*
D03*
Y986002D02*
D03*
Y1006002D02*
D03*
X1326001Y926002D02*
D03*
Y946002D02*
D03*
Y986002D02*
D03*
X1346001Y926002D02*
D03*
Y1006002D02*
D03*
X1366001Y986002D02*
D03*
Y1006002D02*
D03*
X1386001D02*
D03*
X1204998Y749998D02*
D03*
X1155000Y667500D02*
D03*
X1142500Y657500D02*
D03*
X1262500D02*
D03*
X1277500D02*
D03*
X451000Y920999D02*
D03*
Y935999D02*
D03*
Y950999D02*
D03*
X466000Y920999D02*
D03*
Y935999D02*
D03*
Y950999D02*
D03*
X481000Y920999D02*
D03*
Y935999D02*
D03*
Y950999D02*
D03*
X496000Y920999D02*
D03*
Y935999D02*
D03*
Y950999D02*
D03*
X511000Y935999D02*
D03*
Y950999D02*
D03*
X526000Y935999D02*
D03*
Y950999D02*
D03*
X541000Y935999D02*
D03*
Y950999D02*
D03*
X571000D02*
D03*
X541000Y830999D02*
D03*
Y845999D02*
D03*
Y875999D02*
D03*
X556000Y830999D02*
D03*
Y845999D02*
D03*
Y860999D02*
D03*
X571000Y830999D02*
D03*
Y845999D02*
D03*
Y860999D02*
D03*
X586000Y830999D02*
D03*
Y845999D02*
D03*
Y860999D02*
D03*
Y875999D02*
D03*
X601000Y830999D02*
D03*
Y845999D02*
D03*
Y860999D02*
D03*
Y875999D02*
D03*
X616000Y830999D02*
D03*
Y845999D02*
D03*
Y860999D02*
D03*
Y890999D02*
D03*
X631000Y830999D02*
D03*
Y845999D02*
D03*
Y860999D02*
D03*
Y890999D02*
D03*
X646000Y830999D02*
D03*
Y845999D02*
D03*
X661000Y830999D02*
D03*
Y845999D02*
D03*
Y860999D02*
D03*
X676000Y815999D02*
D03*
Y830999D02*
D03*
Y845999D02*
D03*
Y860999D02*
D03*
Y875999D02*
D03*
X691000Y815999D02*
D03*
Y830999D02*
D03*
Y845999D02*
D03*
Y860999D02*
D03*
Y875999D02*
D03*
X706000Y815999D02*
D03*
Y830999D02*
D03*
Y845999D02*
D03*
Y860999D02*
D03*
Y875999D02*
D03*
X721000Y815999D02*
D03*
Y830999D02*
D03*
Y845999D02*
D03*
Y860999D02*
D03*
Y875999D02*
D03*
X736000Y815999D02*
D03*
Y830999D02*
D03*
Y845999D02*
D03*
Y860999D02*
D03*
Y875999D02*
D03*
X377250Y742750D02*
D03*
X392500Y742500D02*
D03*
X165000Y332500D02*
D03*
X220000Y325000D02*
D03*
X1366001Y1906002D02*
D03*
Y1926002D02*
D03*
Y1946002D02*
D03*
Y2006002D02*
D03*
X1386001D02*
D03*
X1426001Y1906002D02*
D03*
Y1926002D02*
D03*
Y1946002D02*
D03*
Y1966002D02*
D03*
X1446001Y1926002D02*
D03*
Y1966002D02*
D03*
X1466001Y1946002D02*
D03*
Y1986002D02*
D03*
X1486001Y1906002D02*
D03*
Y1946002D02*
D03*
Y1966002D02*
D03*
Y1986002D02*
D03*
Y2006002D02*
D03*
X1346001Y1706002D02*
D03*
Y1726002D02*
D03*
Y1746002D02*
D03*
Y1786002D02*
D03*
Y1806002D02*
D03*
X1366001Y1686002D02*
D03*
Y1706002D02*
D03*
Y1726002D02*
D03*
Y1786002D02*
D03*
Y1806002D02*
D03*
X1386001Y1706002D02*
D03*
Y1766002D02*
D03*
X1406001Y1706002D02*
D03*
Y1746002D02*
D03*
Y1766002D02*
D03*
Y1806002D02*
D03*
X1426001Y1706002D02*
D03*
Y1786002D02*
D03*
X1446001Y1686002D02*
D03*
Y1706002D02*
D03*
Y1766002D02*
D03*
Y1786002D02*
D03*
X1206001Y1666002D02*
D03*
Y1686002D02*
D03*
X1246001Y1606002D02*
D03*
Y1666002D02*
D03*
Y1686002D02*
D03*
X1266001Y1626002D02*
D03*
Y1646002D02*
D03*
X1286001Y1626002D02*
D03*
Y1646002D02*
D03*
Y1666002D02*
D03*
X1346001Y1686002D02*
D03*
Y1306002D02*
D03*
Y1326002D02*
D03*
Y1346002D02*
D03*
X1366001D02*
D03*
X1386001Y1246002D02*
D03*
Y1266002D02*
D03*
Y1326002D02*
D03*
X1406001Y1246002D02*
D03*
Y1346002D02*
D03*
X1426001Y1286002D02*
D03*
Y1306002D02*
D03*
X1446001Y1266002D02*
D03*
Y1286002D02*
D03*
Y1326002D02*
D03*
X1206001Y1886002D02*
D03*
Y1946002D02*
D03*
Y1966002D02*
D03*
Y2026002D02*
D03*
X1226001Y1926002D02*
D03*
X1246001D02*
D03*
Y1946002D02*
D03*
Y1986002D02*
D03*
Y2026002D02*
D03*
X1266001Y1886002D02*
D03*
Y1946002D02*
D03*
Y2046002D02*
D03*
X1286001Y1906002D02*
D03*
Y1926002D02*
D03*
Y2006002D02*
D03*
Y2046002D02*
D03*
X1306001Y1886002D02*
D03*
Y1946002D02*
D03*
Y2046002D02*
D03*
X1346001Y1486002D02*
D03*
Y1506002D02*
D03*
Y1526002D02*
D03*
Y1566002D02*
D03*
X1366001Y1546002D02*
D03*
X1386001Y1486002D02*
D03*
Y1546002D02*
D03*
X1406001D02*
D03*
X1426001Y1486002D02*
D03*
Y1546002D02*
D03*
X1446001Y1486002D02*
D03*
Y1546002D02*
D03*
Y1566002D02*
D03*
X1486001Y1686002D02*
D03*
Y1706002D02*
D03*
Y1766002D02*
D03*
Y1786002D02*
D03*
X1506001Y1686002D02*
D03*
Y1706002D02*
D03*
Y1726002D02*
D03*
Y1746002D02*
D03*
Y1766002D02*
D03*
Y1786002D02*
D03*
X1526001Y1686002D02*
D03*
Y1706002D02*
D03*
Y1766002D02*
D03*
Y1786002D02*
D03*
X1546001Y1686002D02*
D03*
Y1706002D02*
D03*
Y1766002D02*
D03*
Y1786002D02*
D03*
X1486001Y1466002D02*
D03*
Y1486002D02*
D03*
Y1546002D02*
D03*
Y1566002D02*
D03*
X1506001Y1466002D02*
D03*
Y1486002D02*
D03*
Y1506002D02*
D03*
Y1526002D02*
D03*
Y1546002D02*
D03*
Y1566002D02*
D03*
X1526001Y1466002D02*
D03*
Y1486002D02*
D03*
Y1546002D02*
D03*
Y1566002D02*
D03*
X1546001Y1466002D02*
D03*
Y1486002D02*
D03*
Y1546002D02*
D03*
Y1566002D02*
D03*
X1146001Y1246002D02*
D03*
Y1266002D02*
D03*
X1166001Y1226002D02*
D03*
Y1246002D02*
D03*
Y1286002D02*
D03*
X1186001Y1246002D02*
D03*
Y1266002D02*
D03*
X1206001Y1206002D02*
D03*
Y1226002D02*
D03*
Y1246002D02*
D03*
Y1266002D02*
D03*
X1226001Y1206002D02*
D03*
Y1226002D02*
D03*
Y1266002D02*
D03*
Y1286002D02*
D03*
X1266001Y1206002D02*
D03*
X1006000Y620999D02*
D03*
Y635999D02*
D03*
Y650999D02*
D03*
X1021000Y620999D02*
D03*
Y635999D02*
D03*
Y650999D02*
D03*
X1036000Y590999D02*
D03*
Y620999D02*
D03*
Y635999D02*
D03*
Y650999D02*
D03*
X1051000Y590999D02*
D03*
Y605999D02*
D03*
Y620999D02*
D03*
Y635999D02*
D03*
Y650999D02*
D03*
X1066000Y590999D02*
D03*
Y605999D02*
D03*
Y620999D02*
D03*
Y635999D02*
D03*
Y650999D02*
D03*
X1081000Y575999D02*
D03*
Y590999D02*
D03*
Y605999D02*
D03*
Y620999D02*
D03*
Y635999D02*
D03*
Y650999D02*
D03*
X1096000Y560999D02*
D03*
Y575999D02*
D03*
Y590999D02*
D03*
Y605999D02*
D03*
Y620999D02*
D03*
Y635999D02*
D03*
Y650999D02*
D03*
X1111000Y560999D02*
D03*
Y575999D02*
D03*
Y620999D02*
D03*
Y635999D02*
D03*
Y650999D02*
D03*
X1066001Y1526002D02*
D03*
Y1546002D02*
D03*
Y1566002D02*
D03*
X1106001Y1546002D02*
D03*
X1126001D02*
D03*
X1106001Y1566002D02*
D03*
X1086001Y1586002D02*
D03*
X1126001D02*
D03*
X1086001Y1606002D02*
D03*
X1146001Y1626002D02*
D03*
X1066001Y1586002D02*
D03*
Y1606002D02*
D03*
X1086001Y1526002D02*
D03*
Y1546002D02*
D03*
Y1566002D02*
D03*
X1106001Y1526002D02*
D03*
Y1586002D02*
D03*
X1126001Y1526002D02*
D03*
Y1566002D02*
D03*
X1146001D02*
D03*
Y1586002D02*
D03*
Y1606002D02*
D03*
X246000Y1166002D02*
D03*
Y1186002D02*
D03*
Y1246002D02*
D03*
Y1266002D02*
D03*
Y1286002D02*
D03*
X266000Y1166002D02*
D03*
Y1246002D02*
D03*
Y1266002D02*
D03*
Y1286002D02*
D03*
X286000Y1166002D02*
D03*
Y1186002D02*
D03*
Y1206002D02*
D03*
Y1226002D02*
D03*
Y1246002D02*
D03*
Y1266002D02*
D03*
Y1286002D02*
D03*
X306000Y1166002D02*
D03*
Y1186002D02*
D03*
Y1206002D02*
D03*
Y1226002D02*
D03*
Y1246002D02*
D03*
Y1266002D02*
D03*
Y1286002D02*
D03*
X326000Y1166002D02*
D03*
Y1186002D02*
D03*
Y1206002D02*
D03*
Y1226002D02*
D03*
Y1246002D02*
D03*
Y1266002D02*
D03*
Y1286002D02*
D03*
D105*
X442500Y710000D02*
D03*
X42500Y200000D02*
D03*
X45000Y160000D02*
D03*
X1182500Y712500D02*
D03*
X1232500Y712500D02*
D03*
X1451000Y178500D02*
D03*
X1475000Y227500D02*
D03*
X1530000Y250000D02*
D03*
X1417500Y325000D02*
D03*
X1425000Y457500D02*
D03*
X1442500Y325000D02*
D03*
X1353750Y322500D02*
D03*
X1345000Y365000D02*
D03*
X1412500Y362500D02*
D03*
X1455000Y145000D02*
D03*
X1400000Y165000D02*
D03*
X1355000Y247500D02*
D03*
X1415000D02*
D03*
X1422500Y227500D02*
D03*
X1390000Y210000D02*
D03*
X1430000Y180000D02*
D03*
X1122500Y722500D02*
D03*
X1172500Y697500D02*
D03*
X1247500Y495000D02*
D03*
X1262500Y475000D02*
D03*
X1235000Y690000D02*
D03*
X1209469Y682500D02*
D03*
X1260000Y725000D02*
D03*
X367500Y712500D02*
D03*
X422500Y710000D02*
D03*
X312500D02*
D03*
X125000Y432500D02*
D03*
Y335000D02*
D03*
X147500Y365000D02*
D03*
X145000Y420000D02*
D03*
X1442500Y432500D02*
D03*
X1400000Y496500D02*
D03*
X1332500Y475000D02*
D03*
X177500Y487500D02*
D03*
X245000Y467500D02*
D03*
X170000Y365000D02*
D03*
X237500D02*
D03*
X337500Y487500D02*
D03*
Y670000D02*
D03*
X360000Y487500D02*
D03*
X370000Y672500D02*
D03*
X110000Y200000D02*
D03*
Y165000D02*
D03*
X127500Y240000D02*
D03*
X143000Y227000D02*
D03*
X152500Y262500D02*
D03*
X222500D02*
D03*
X188750Y211250D02*
D03*
D106*
X720000Y901250D02*
D03*
Y958750D02*
D03*
X892500Y1006250D02*
D03*
Y948750D02*
D03*
X905000Y648750D02*
D03*
Y591250D02*
D03*
D107*
X566250Y395957D02*
D03*
X623750D02*
D03*
D108*
X178500Y442500D02*
D03*
X146500D02*
D03*
X1398500Y362500D02*
D03*
X1366500D02*
D03*
X1456000Y475000D02*
D03*
X1424000D02*
D03*
X1501000Y145000D02*
D03*
X1469000D02*
D03*
X221000Y365000D02*
D03*
X189000D02*
D03*
X61000Y220775D02*
D03*
X93000D02*
D03*
X62000Y138775D02*
D03*
X94000D02*
D03*
D109*
X1510000Y281000D02*
D03*
Y249000D02*
D03*
D110*
X955250Y885000D02*
D03*
X914750D02*
D03*
D111*
X615000Y962000D02*
D03*
Y1002500D02*
D03*
X955543Y531707D02*
D03*
Y572207D02*
D03*
X622500Y535250D02*
D03*
Y494750D02*
D03*
D112*
X197500Y792750D02*
D03*
Y747250D02*
D03*
X485000Y777750D02*
D03*
Y732250D02*
D03*
X1365000Y770250D02*
D03*
Y724750D02*
D03*
X1082500Y765250D02*
D03*
Y719750D02*
D03*
D113*
X495000Y400000D02*
D03*
Y342500D02*
D03*
X472500Y1148750D02*
D03*
Y1091250D02*
D03*
X1070000Y1151250D02*
D03*
Y1093750D02*
D03*
D114*
X1093750Y425000D02*
D03*
X1151250D02*
D03*
D115*
X1205250Y765000D02*
D03*
X1189750D02*
D03*
X392750Y755000D02*
D03*
X377250D02*
D03*
D116*
X662500Y959850D02*
D03*
Y900150D02*
D03*
X947500Y957650D02*
D03*
Y1017350D02*
D03*
X962500Y592650D02*
D03*
Y652350D02*
D03*
D117*
X629850Y452500D02*
D03*
X570150D02*
D03*
M02*
