G04 Layer_Color=8388736*
%FSLAX44Y44*%
%MOMM*%
G71*
G01*
G75*
G04:AMPARAMS|DCode=71|XSize=3.5mm|YSize=2.5mm|CornerRadius=0.25mm|HoleSize=0mm|Usage=FLASHONLY|Rotation=90.000|XOffset=0mm|YOffset=0mm|HoleType=Round|Shape=RoundedRectangle|*
%AMROUNDEDRECTD71*
21,1,3.5000,2.0000,0,0,90.0*
21,1,3.0000,2.5000,0,0,90.0*
1,1,0.5000,1.0000,1.5000*
1,1,0.5000,1.0000,-1.5000*
1,1,0.5000,-1.0000,-1.5000*
1,1,0.5000,-1.0000,1.5000*
%
%ADD71ROUNDEDRECTD71*%
G04:AMPARAMS|DCode=72|XSize=3.5mm|YSize=2.5mm|CornerRadius=0.25mm|HoleSize=0mm|Usage=FLASHONLY|Rotation=0.000|XOffset=0mm|YOffset=0mm|HoleType=Round|Shape=RoundedRectangle|*
%AMROUNDEDRECTD72*
21,1,3.5000,2.0000,0,0,0.0*
21,1,3.0000,2.5000,0,0,0.0*
1,1,0.5000,1.5000,-1.0000*
1,1,0.5000,-1.5000,-1.0000*
1,1,0.5000,-1.5000,1.0000*
1,1,0.5000,1.5000,1.0000*
%
%ADD72ROUNDEDRECTD72*%
%ADD73R,1.9532X1.3032*%
%ADD74O,0.8032X1.7532*%
%ADD75R,0.8032X1.7532*%
%ADD76R,2.2032X1.7532*%
%ADD77R,1.7532X2.2032*%
%ADD78R,3.5032X2.9032*%
%ADD79R,1.2032X2.9032*%
%ADD80R,2.3876X2.8002*%
%ADD81R,1.2032X1.3032*%
%ADD82R,1.3032X1.2032*%
%ADD83R,1.3532X3.0032*%
%ADD84R,1.2532X1.0032*%
%ADD85R,1.7032X1.1032*%
%ADD86R,1.3032X2.0532*%
%ADD87R,0.8032X1.6532*%
%ADD88O,0.8032X1.6532*%
%ADD89C,2.3123*%
%ADD90R,2.3123X2.3123*%
%ADD91C,1.5632*%
%ADD92R,1.5632X1.5632*%
%ADD93C,2.7032*%
%ADD94R,2.7032X2.7032*%
%ADD95C,1.4715*%
%ADD96R,1.4715X1.4715*%
%ADD97R,2.5032X2.5032*%
%ADD98C,2.5032*%
%ADD99R,3.7032X3.7032*%
%ADD100C,3.7032*%
%ADD101C,5.3032*%
%ADD102C,2.2352*%
%ADD103C,2.6162*%
%ADD104C,1.1032*%
%ADD105C,1.4032*%
D71*
X1415000Y1120000D02*
D03*
X1445000Y1160000D02*
D03*
Y1120000D02*
D03*
X1475000Y1160000D02*
D03*
Y1120000D02*
D03*
X1325000Y1080000D02*
D03*
Y1040000D02*
D03*
X1475000Y960000D02*
D03*
X1445000Y960000D02*
D03*
X1415000D02*
D03*
X1475000Y1000000D02*
D03*
X1445000Y1000000D02*
D03*
X1415000D02*
D03*
X1475000Y1040000D02*
D03*
X1445000Y1040000D02*
D03*
X1415000D02*
D03*
X1385000D02*
D03*
X1355000D02*
D03*
X1475000Y1080000D02*
D03*
X1445000Y1080000D02*
D03*
X1415000D02*
D03*
X1385000D02*
D03*
X1355000D02*
D03*
X140000Y950000D02*
D03*
X110000D02*
D03*
X80000D02*
D03*
X140000Y990000D02*
D03*
X110000D02*
D03*
X80000D02*
D03*
X50000D02*
D03*
X140000Y1030000D02*
D03*
X110000D02*
D03*
X80000D02*
D03*
X50000D02*
D03*
X170000Y1030000D02*
D03*
X80000Y1070000D02*
D03*
X50000D02*
D03*
Y1110000D02*
D03*
Y1335000D02*
D03*
Y1375000D02*
D03*
X80000D02*
D03*
X110000D02*
D03*
X50000Y1655000D02*
D03*
X80000D02*
D03*
X110000D02*
D03*
X140000D02*
D03*
X50000Y1575000D02*
D03*
X80000D02*
D03*
X110000D02*
D03*
X140000D02*
D03*
Y1615000D02*
D03*
X110000D02*
D03*
X80000D02*
D03*
X50000D02*
D03*
Y1535000D02*
D03*
X80000D02*
D03*
X110000D02*
D03*
X140000D02*
D03*
Y1495000D02*
D03*
X110000D02*
D03*
X80000D02*
D03*
X50000D02*
D03*
X170000Y1495000D02*
D03*
Y1535000D02*
D03*
Y1615000D02*
D03*
Y1575000D02*
D03*
Y1655000D02*
D03*
Y1455000D02*
D03*
Y1415000D02*
D03*
X50000Y1415000D02*
D03*
X80000D02*
D03*
X110000D02*
D03*
X140000D02*
D03*
Y1455000D02*
D03*
X110000D02*
D03*
X80000D02*
D03*
X50000D02*
D03*
D72*
X775000Y1775000D02*
D03*
Y1745000D02*
D03*
Y1715000D02*
D03*
Y1685000D02*
D03*
X815000D02*
D03*
Y1715000D02*
D03*
Y1745000D02*
D03*
Y1775000D02*
D03*
X895000D02*
D03*
Y1745000D02*
D03*
Y1715000D02*
D03*
Y1685000D02*
D03*
X855000D02*
D03*
Y1715000D02*
D03*
Y1745000D02*
D03*
Y1775000D02*
D03*
X975000D02*
D03*
Y1745000D02*
D03*
Y1715000D02*
D03*
Y1685000D02*
D03*
X935000D02*
D03*
Y1715000D02*
D03*
Y1745000D02*
D03*
Y1775000D02*
D03*
X1015000Y1745000D02*
D03*
Y1775000D02*
D03*
Y1805000D02*
D03*
X1055000D02*
D03*
Y1775000D02*
D03*
X1095000Y1805000D02*
D03*
X1135000D02*
D03*
X1175000D02*
D03*
X1215000D02*
D03*
X1255000D02*
D03*
X1295000D02*
D03*
Y1775000D02*
D03*
X975000Y1805000D02*
D03*
X735000Y1775000D02*
D03*
Y1745000D02*
D03*
Y1715000D02*
D03*
Y1685000D02*
D03*
X655000Y1775000D02*
D03*
Y1745000D02*
D03*
Y1715000D02*
D03*
Y1685000D02*
D03*
X695000D02*
D03*
Y1715000D02*
D03*
Y1745000D02*
D03*
Y1775000D02*
D03*
X615000D02*
D03*
Y1745000D02*
D03*
Y1715000D02*
D03*
Y1685000D02*
D03*
X575000D02*
D03*
Y1715000D02*
D03*
Y1745000D02*
D03*
Y1775000D02*
D03*
X535000D02*
D03*
Y1745000D02*
D03*
Y1715000D02*
D03*
Y1685000D02*
D03*
X455000Y1775000D02*
D03*
Y1745000D02*
D03*
Y1715000D02*
D03*
X495000Y1685000D02*
D03*
Y1715000D02*
D03*
Y1745000D02*
D03*
Y1775000D02*
D03*
X415000D02*
D03*
Y1745000D02*
D03*
Y1715000D02*
D03*
X375000D02*
D03*
Y1745000D02*
D03*
X415000Y1805000D02*
D03*
X495000D02*
D03*
X455000D02*
D03*
X535000D02*
D03*
X575000D02*
D03*
X615000D02*
D03*
X695000D02*
D03*
X655000D02*
D03*
X735000D02*
D03*
X935000D02*
D03*
X855000D02*
D03*
X895000D02*
D03*
X815000D02*
D03*
X775000D02*
D03*
D73*
X1445000Y377250D02*
D03*
Y342750D02*
D03*
X125000Y382250D02*
D03*
Y347750D02*
D03*
D74*
X1404050Y322250D02*
D03*
X1391350D02*
D03*
X1378650D02*
D03*
X1365950D02*
D03*
X1404050Y267750D02*
D03*
X1391350D02*
D03*
X1378650D02*
D03*
X209050Y319750D02*
D03*
X196350D02*
D03*
X183650D02*
D03*
X170950D02*
D03*
X209050Y265250D02*
D03*
X196350D02*
D03*
X183650D02*
D03*
D75*
X1365950Y267750D02*
D03*
X170950Y265250D02*
D03*
D76*
X1097000Y495000D02*
D03*
X1143000D02*
D03*
X1077000Y860000D02*
D03*
X1123000D02*
D03*
X478000Y610000D02*
D03*
X432000D02*
D03*
X478000Y985000D02*
D03*
X432000D02*
D03*
D77*
X1260000Y742000D02*
D03*
Y788000D02*
D03*
X1122500Y742000D02*
D03*
Y788000D02*
D03*
X447500Y729500D02*
D03*
Y775500D02*
D03*
X312500Y734500D02*
D03*
Y780500D02*
D03*
D78*
X1370000Y388000D02*
D03*
X207500Y370500D02*
D03*
D79*
X1347000Y447000D02*
D03*
X1370000D02*
D03*
X1393000D02*
D03*
X184500Y429500D02*
D03*
X207500D02*
D03*
X230500D02*
D03*
D80*
X1505748Y202780D02*
D03*
X1474252D02*
D03*
X1505748Y167220D02*
D03*
X1474252D02*
D03*
X92748Y199555D02*
D03*
X61252D02*
D03*
X92748Y163995D02*
D03*
X61252D02*
D03*
D81*
X1430500Y152500D02*
D03*
X1414500D02*
D03*
X127000Y172500D02*
D03*
X143000D02*
D03*
X1380500Y485000D02*
D03*
X1364500D02*
D03*
X220500Y480000D02*
D03*
X204500D02*
D03*
D82*
X1395043Y240500D02*
D03*
Y224500D02*
D03*
X1377500Y240500D02*
D03*
Y224500D02*
D03*
X197500Y240500D02*
D03*
Y224500D02*
D03*
X180000Y240500D02*
D03*
Y224500D02*
D03*
D83*
X1194750Y835000D02*
D03*
X1160250D02*
D03*
X384750Y825000D02*
D03*
X350250D02*
D03*
D84*
X1402500Y177250D02*
D03*
Y192750D02*
D03*
X1380000Y177250D02*
D03*
Y192750D02*
D03*
X197500Y174750D02*
D03*
Y190250D02*
D03*
X175000Y174750D02*
D03*
Y190250D02*
D03*
D85*
X125000Y399500D02*
D03*
Y420500D02*
D03*
X1445000Y394500D02*
D03*
Y415500D02*
D03*
D86*
X1119000Y600000D02*
D03*
X1151000D02*
D03*
X1099000Y525000D02*
D03*
X1131000D02*
D03*
X1119000Y1000000D02*
D03*
X1151000D02*
D03*
X1076500Y830000D02*
D03*
X1108500D02*
D03*
X466000Y490000D02*
D03*
X434000D02*
D03*
X476000Y575000D02*
D03*
X444000D02*
D03*
X493500Y865000D02*
D03*
X461500D02*
D03*
X473500Y1012500D02*
D03*
X441500D02*
D03*
D87*
X1151900Y737750D02*
D03*
X341900Y727750D02*
D03*
D88*
X1164600Y737750D02*
D03*
X1177300D02*
D03*
X1190000D02*
D03*
X1202700D02*
D03*
X1215400D02*
D03*
X1228100D02*
D03*
X1151900Y792250D02*
D03*
X1164600D02*
D03*
X1177300D02*
D03*
X1190000D02*
D03*
X1202700D02*
D03*
X1215400D02*
D03*
X1228100D02*
D03*
X354600Y727750D02*
D03*
X367300D02*
D03*
X380000D02*
D03*
X392700D02*
D03*
X405400D02*
D03*
X418100D02*
D03*
X341900Y782250D02*
D03*
X354600D02*
D03*
X367300D02*
D03*
X380000D02*
D03*
X392700D02*
D03*
X405400D02*
D03*
X418100D02*
D03*
D89*
X947500Y1964599D02*
D03*
Y1925000D02*
D03*
D90*
Y1885401D02*
D03*
D91*
X1475000Y402400D02*
D03*
Y377000D02*
D03*
Y351600D02*
D03*
Y275400D02*
D03*
X60000Y397575D02*
D03*
Y372175D02*
D03*
Y346775D02*
D03*
Y270575D02*
D03*
D92*
X1475000Y250000D02*
D03*
X60000Y245175D02*
D03*
D93*
X1485000Y1740000D02*
D03*
X1435000D02*
D03*
X1385000D02*
D03*
X1435000Y1520000D02*
D03*
X1485000D02*
D03*
X1535000D02*
D03*
D94*
Y1740000D02*
D03*
X1385000Y1520000D02*
D03*
D95*
X69923Y110000D02*
D03*
X90002D02*
D03*
X110000D02*
D03*
X130002D02*
D03*
X150001D02*
D03*
X1495077Y110000D02*
D03*
X1474998D02*
D03*
X1455000D02*
D03*
X1434998D02*
D03*
X1414999D02*
D03*
D96*
X169999Y110000D02*
D03*
X1395001Y110000D02*
D03*
D97*
X1018500Y880250D02*
D03*
X559500Y989250D02*
D03*
Y599250D02*
D03*
X1018500Y490250D02*
D03*
D98*
Y934750D02*
D03*
Y989250D02*
D03*
X559500Y934750D02*
D03*
Y880250D02*
D03*
Y544750D02*
D03*
Y490250D02*
D03*
X1018500Y544750D02*
D03*
Y599250D02*
D03*
D99*
X325000Y1530000D02*
D03*
X1390000Y1970000D02*
D03*
X1220000Y1615000D02*
D03*
X1357500Y1267500D02*
D03*
X160000Y1845000D02*
D03*
Y1210000D02*
D03*
D100*
X425000Y1530000D02*
D03*
X1290000Y1970000D02*
D03*
X1120000Y1615000D02*
D03*
X1257500Y1267500D02*
D03*
X260000Y1845000D02*
D03*
Y1210000D02*
D03*
D101*
X963501Y715750D02*
D03*
Y176500D02*
D03*
X615501Y175500D02*
D03*
Y714750D02*
D03*
X963500Y1305000D02*
D03*
Y765750D02*
D03*
X615500Y764750D02*
D03*
Y1304000D02*
D03*
D102*
X1390000Y935000D02*
D03*
Y560000D02*
D03*
X180000Y960000D02*
D03*
Y585000D02*
D03*
D103*
X1512500Y1410800D02*
D03*
Y1360000D02*
D03*
X397500Y170000D02*
D03*
X346700D02*
D03*
X722500Y1559200D02*
D03*
Y1610000D02*
D03*
X1222500Y180000D02*
D03*
X1171700D02*
D03*
D104*
X486000Y1606002D02*
D03*
Y1586002D02*
D03*
Y1566002D02*
D03*
Y1546002D02*
D03*
Y1526002D02*
D03*
Y1506002D02*
D03*
Y1486002D02*
D03*
Y1466002D02*
D03*
X466000Y1606002D02*
D03*
Y1586002D02*
D03*
Y1566002D02*
D03*
Y1546002D02*
D03*
Y1526002D02*
D03*
Y1506002D02*
D03*
Y1486002D02*
D03*
Y1466002D02*
D03*
X446000Y1606002D02*
D03*
Y1586002D02*
D03*
Y1566002D02*
D03*
Y1546002D02*
D03*
Y1506002D02*
D03*
Y1486002D02*
D03*
Y1466002D02*
D03*
X426000Y1606002D02*
D03*
Y1586002D02*
D03*
Y1566002D02*
D03*
Y1506002D02*
D03*
Y1486002D02*
D03*
Y1466002D02*
D03*
X406000Y1606002D02*
D03*
Y1586002D02*
D03*
Y1566002D02*
D03*
Y1506002D02*
D03*
Y1486002D02*
D03*
Y1466002D02*
D03*
X326000Y1946002D02*
D03*
Y1926002D02*
D03*
Y1906002D02*
D03*
Y1886002D02*
D03*
Y1866002D02*
D03*
Y1846002D02*
D03*
Y1826002D02*
D03*
X306000Y1946002D02*
D03*
Y1926002D02*
D03*
Y1906002D02*
D03*
Y1886002D02*
D03*
Y1866002D02*
D03*
Y1846002D02*
D03*
Y1826002D02*
D03*
X286000Y1946002D02*
D03*
Y1926002D02*
D03*
Y1906002D02*
D03*
Y1886002D02*
D03*
Y1866002D02*
D03*
Y1846002D02*
D03*
Y1826002D02*
D03*
X266000Y1946002D02*
D03*
Y1926002D02*
D03*
Y1906002D02*
D03*
Y1886002D02*
D03*
X246000Y1946002D02*
D03*
Y1926002D02*
D03*
Y1906002D02*
D03*
Y1886002D02*
D03*
X346000Y1626002D02*
D03*
Y1606002D02*
D03*
Y1586002D02*
D03*
Y1566002D02*
D03*
X326000Y1626002D02*
D03*
Y1606002D02*
D03*
Y1586002D02*
D03*
Y1566002D02*
D03*
Y1506002D02*
D03*
X306000Y1626002D02*
D03*
Y1606002D02*
D03*
Y1586002D02*
D03*
Y1566002D02*
D03*
X286000Y1626002D02*
D03*
Y1606002D02*
D03*
Y1586002D02*
D03*
Y1566002D02*
D03*
Y1546002D02*
D03*
Y1526002D02*
D03*
Y1506002D02*
D03*
X266000Y1626002D02*
D03*
Y1606002D02*
D03*
Y1586002D02*
D03*
Y1566002D02*
D03*
Y1546002D02*
D03*
Y1526002D02*
D03*
Y1506002D02*
D03*
X246000Y1626002D02*
D03*
Y1606002D02*
D03*
Y1586002D02*
D03*
Y1566002D02*
D03*
Y1546002D02*
D03*
Y1526002D02*
D03*
Y1506002D02*
D03*
X226000Y1626002D02*
D03*
Y1606002D02*
D03*
Y1586002D02*
D03*
Y1566002D02*
D03*
Y1546002D02*
D03*
Y1526002D02*
D03*
Y1506002D02*
D03*
X206000Y1626002D02*
D03*
Y1606002D02*
D03*
Y1586002D02*
D03*
Y1566002D02*
D03*
Y1546002D02*
D03*
Y1526002D02*
D03*
Y1506002D02*
D03*
X186000Y1926002D02*
D03*
Y1906002D02*
D03*
Y1886002D02*
D03*
Y1866002D02*
D03*
Y1846002D02*
D03*
Y1826002D02*
D03*
Y1326002D02*
D03*
Y1306002D02*
D03*
Y1286002D02*
D03*
Y1266002D02*
D03*
Y1246002D02*
D03*
Y1226002D02*
D03*
Y1206002D02*
D03*
X166000Y1946002D02*
D03*
Y1926002D02*
D03*
Y1906002D02*
D03*
Y1886002D02*
D03*
Y1806002D02*
D03*
Y1326002D02*
D03*
Y1306002D02*
D03*
Y1286002D02*
D03*
Y1266002D02*
D03*
Y1246002D02*
D03*
X146000Y1946002D02*
D03*
Y1926002D02*
D03*
Y1906002D02*
D03*
Y1886002D02*
D03*
Y1806002D02*
D03*
Y1326002D02*
D03*
Y1306002D02*
D03*
Y1286002D02*
D03*
Y1266002D02*
D03*
Y1246002D02*
D03*
X126000Y1946002D02*
D03*
Y1926002D02*
D03*
Y1906002D02*
D03*
Y1886002D02*
D03*
Y1866002D02*
D03*
Y1846002D02*
D03*
Y1826002D02*
D03*
Y1806002D02*
D03*
Y1326002D02*
D03*
Y1306002D02*
D03*
Y1286002D02*
D03*
Y1266002D02*
D03*
Y1246002D02*
D03*
Y1226002D02*
D03*
Y1206002D02*
D03*
X106000Y1946002D02*
D03*
Y1926002D02*
D03*
Y1906002D02*
D03*
Y1886002D02*
D03*
Y1866002D02*
D03*
Y1846002D02*
D03*
Y1826002D02*
D03*
Y1806002D02*
D03*
Y1326002D02*
D03*
Y1306002D02*
D03*
Y1286002D02*
D03*
Y1266002D02*
D03*
Y1246002D02*
D03*
Y1226002D02*
D03*
Y1206002D02*
D03*
X86000Y1946002D02*
D03*
Y1926002D02*
D03*
Y1906002D02*
D03*
Y1886002D02*
D03*
Y1866002D02*
D03*
Y1846002D02*
D03*
Y1826002D02*
D03*
Y1806002D02*
D03*
Y1326002D02*
D03*
Y1306002D02*
D03*
Y1286002D02*
D03*
Y1266002D02*
D03*
Y1246002D02*
D03*
Y1226002D02*
D03*
Y1206002D02*
D03*
X66000Y1946002D02*
D03*
Y1926002D02*
D03*
Y1906002D02*
D03*
Y1886002D02*
D03*
Y1866002D02*
D03*
Y1846002D02*
D03*
Y1826002D02*
D03*
Y1806002D02*
D03*
Y1306002D02*
D03*
Y1286002D02*
D03*
Y1266002D02*
D03*
Y1246002D02*
D03*
Y1226002D02*
D03*
Y1206002D02*
D03*
X46000Y1926002D02*
D03*
Y1906002D02*
D03*
Y1886002D02*
D03*
Y1866002D02*
D03*
Y1846002D02*
D03*
Y1826002D02*
D03*
Y1306002D02*
D03*
Y1286002D02*
D03*
Y1266002D02*
D03*
Y1246002D02*
D03*
Y1226002D02*
D03*
Y1206002D02*
D03*
X206000Y926002D02*
D03*
X246000D02*
D03*
X166000Y946002D02*
D03*
X206000D02*
D03*
X246000Y966002D02*
D03*
X286000Y946002D02*
D03*
X266000D02*
D03*
X326000Y966002D02*
D03*
X166000Y986002D02*
D03*
X186000Y1006002D02*
D03*
X266000Y986002D02*
D03*
X286000D02*
D03*
X306000D02*
D03*
X346000D02*
D03*
X306000Y1006002D02*
D03*
X366000Y986002D02*
D03*
Y946002D02*
D03*
X386000Y1006002D02*
D03*
X246000D02*
D03*
X1206001Y926002D02*
D03*
X1226001D02*
D03*
X1186001D02*
D03*
X1206001Y946002D02*
D03*
X1226001D02*
D03*
X1186001Y966002D02*
D03*
X1206001D02*
D03*
X1306001Y926002D02*
D03*
X1286001D02*
D03*
X1246001Y966002D02*
D03*
X1306001Y946002D02*
D03*
X1286001D02*
D03*
X1186001Y986002D02*
D03*
X1206001Y1006002D02*
D03*
X1186001D02*
D03*
X1246001D02*
D03*
X1266001Y966002D02*
D03*
X1286001D02*
D03*
X1326001D02*
D03*
X1286001Y986002D02*
D03*
X1266001Y1006002D02*
D03*
X1286001D02*
D03*
Y1606002D02*
D03*
X1326001Y1006002D02*
D03*
X1346001Y946002D02*
D03*
X1366001Y926002D02*
D03*
X1346001Y966002D02*
D03*
X1366001Y946002D02*
D03*
X1346001Y986002D02*
D03*
X1366001Y966002D02*
D03*
X1386001Y986002D02*
D03*
Y966002D02*
D03*
X1446001Y1246002D02*
D03*
X1426001D02*
D03*
X1406001Y1266002D02*
D03*
X1426001D02*
D03*
X1366001Y1326002D02*
D03*
Y1306002D02*
D03*
X1386001Y1286002D02*
D03*
Y1306002D02*
D03*
X1406001Y1286002D02*
D03*
X1386001Y1346002D02*
D03*
X1406001Y1306002D02*
D03*
X1446001D02*
D03*
X1406001Y1326002D02*
D03*
X1426001D02*
D03*
Y1346002D02*
D03*
X1206001Y1646002D02*
D03*
X1226001Y1666002D02*
D03*
Y1646002D02*
D03*
X1246001Y1626002D02*
D03*
Y1646002D02*
D03*
X1226001Y1686002D02*
D03*
X1266001Y1606002D02*
D03*
Y1666002D02*
D03*
Y1686002D02*
D03*
X1286001D02*
D03*
X1386001D02*
D03*
X1366001Y1766002D02*
D03*
X1346001D02*
D03*
X1386001Y1806002D02*
D03*
Y1786002D02*
D03*
Y1926002D02*
D03*
Y1906002D02*
D03*
X1406001Y1686002D02*
D03*
Y1726002D02*
D03*
X1426001Y1686002D02*
D03*
Y1766002D02*
D03*
X1406001Y1786002D02*
D03*
X1426001Y1806002D02*
D03*
X1406001Y1906002D02*
D03*
X1446001Y1806002D02*
D03*
Y1906002D02*
D03*
X1466001D02*
D03*
X1406001Y1926002D02*
D03*
X1446001Y1946002D02*
D03*
X1406001Y2006002D02*
D03*
X1426001Y1986002D02*
D03*
Y2006002D02*
D03*
X1446001Y1986002D02*
D03*
X1466001Y1926002D02*
D03*
Y1966002D02*
D03*
X1486001Y1926002D02*
D03*
X1446001Y2006002D02*
D03*
X1466001D02*
D03*
X1146001Y1206002D02*
D03*
Y1226002D02*
D03*
X1166001Y1206002D02*
D03*
X1186001Y1226002D02*
D03*
X1166001Y1266002D02*
D03*
X1146001Y1286002D02*
D03*
X1186001D02*
D03*
Y1206002D02*
D03*
X1246001D02*
D03*
X1226001Y1246002D02*
D03*
X1246001Y1226002D02*
D03*
X1266001D02*
D03*
X1206001Y1286002D02*
D03*
X1366001Y1486002D02*
D03*
X1346001Y1546002D02*
D03*
X1406001Y1486002D02*
D03*
Y1506002D02*
D03*
Y1526002D02*
D03*
X1206001Y1906002D02*
D03*
X1226001Y1886002D02*
D03*
Y1906002D02*
D03*
X1246001Y1886002D02*
D03*
X1206001Y1926002D02*
D03*
X1226001Y1946002D02*
D03*
Y1966002D02*
D03*
X1206001Y1986002D02*
D03*
Y2006002D02*
D03*
Y2046002D02*
D03*
X1226001D02*
D03*
X1246001Y1906002D02*
D03*
X1226001Y1986002D02*
D03*
Y2026002D02*
D03*
Y2006002D02*
D03*
X1246001Y2046002D02*
D03*
X1286001Y1886002D02*
D03*
X1266001Y1906002D02*
D03*
X1306001D02*
D03*
X1406001Y1566002D02*
D03*
X1426001D02*
D03*
X1386001Y1586002D02*
D03*
X1406001D02*
D03*
X1366001D02*
D03*
X1426001D02*
D03*
X1246001Y1966002D02*
D03*
X1266001Y1926002D02*
D03*
Y1986002D02*
D03*
X1246001Y2006002D02*
D03*
X1266001D02*
D03*
Y2026002D02*
D03*
X1306001Y1926002D02*
D03*
Y2006002D02*
D03*
X1286001Y2026002D02*
D03*
X1306001D02*
D03*
X616000Y875999D02*
D03*
X631000D02*
D03*
X646000D02*
D03*
X616000Y905999D02*
D03*
X631000D02*
D03*
X661000Y875999D02*
D03*
X646000Y860999D02*
D03*
X1190000Y750000D02*
D03*
X1126000Y950999D02*
D03*
Y935999D02*
D03*
Y920999D02*
D03*
Y905999D02*
D03*
X1111000Y950999D02*
D03*
Y935999D02*
D03*
Y920999D02*
D03*
Y905999D02*
D03*
X1096000Y950999D02*
D03*
Y935999D02*
D03*
Y920999D02*
D03*
Y905999D02*
D03*
X1081000Y950999D02*
D03*
Y935999D02*
D03*
Y920999D02*
D03*
Y905999D02*
D03*
X1066000Y935999D02*
D03*
Y920999D02*
D03*
Y905999D02*
D03*
X1051000Y935999D02*
D03*
Y920999D02*
D03*
X1036000Y935999D02*
D03*
Y920999D02*
D03*
X991000Y935999D02*
D03*
Y920999D02*
D03*
X976000D02*
D03*
Y905999D02*
D03*
X961000D02*
D03*
X1246001Y286001D02*
D03*
Y266001D02*
D03*
Y246001D02*
D03*
Y226001D02*
D03*
Y206001D02*
D03*
Y186001D02*
D03*
Y166001D02*
D03*
Y146001D02*
D03*
Y126001D02*
D03*
Y106001D02*
D03*
Y86001D02*
D03*
X1226001Y286001D02*
D03*
Y266001D02*
D03*
Y246001D02*
D03*
Y226001D02*
D03*
Y206001D02*
D03*
Y146001D02*
D03*
Y126001D02*
D03*
Y106001D02*
D03*
Y86001D02*
D03*
X1206001Y286001D02*
D03*
Y266001D02*
D03*
Y246001D02*
D03*
Y226001D02*
D03*
Y206001D02*
D03*
Y166001D02*
D03*
Y146001D02*
D03*
Y106001D02*
D03*
Y86001D02*
D03*
X1186001Y286001D02*
D03*
Y266001D02*
D03*
Y246001D02*
D03*
Y226001D02*
D03*
Y206001D02*
D03*
Y166001D02*
D03*
Y146001D02*
D03*
Y106001D02*
D03*
Y86001D02*
D03*
X1166001Y286001D02*
D03*
Y266001D02*
D03*
Y246001D02*
D03*
Y226001D02*
D03*
Y206001D02*
D03*
Y146001D02*
D03*
Y126001D02*
D03*
Y106001D02*
D03*
Y86001D02*
D03*
X1146001Y286001D02*
D03*
Y266001D02*
D03*
Y246001D02*
D03*
Y226001D02*
D03*
Y206001D02*
D03*
Y186001D02*
D03*
Y166001D02*
D03*
Y146001D02*
D03*
Y126001D02*
D03*
Y106001D02*
D03*
Y86001D02*
D03*
X556000Y470999D02*
D03*
Y455999D02*
D03*
Y440999D02*
D03*
X541000Y500999D02*
D03*
Y485999D02*
D03*
Y470999D02*
D03*
Y455999D02*
D03*
Y440999D02*
D03*
X526000Y500999D02*
D03*
Y485999D02*
D03*
Y470999D02*
D03*
Y455999D02*
D03*
Y440999D02*
D03*
X511000Y500999D02*
D03*
Y485999D02*
D03*
Y470999D02*
D03*
Y455999D02*
D03*
Y440999D02*
D03*
X496000Y530999D02*
D03*
Y515999D02*
D03*
Y500999D02*
D03*
Y485999D02*
D03*
Y470999D02*
D03*
Y455999D02*
D03*
Y440999D02*
D03*
X481000Y530999D02*
D03*
Y515999D02*
D03*
Y500999D02*
D03*
Y485999D02*
D03*
Y470999D02*
D03*
Y455999D02*
D03*
Y440999D02*
D03*
X796000Y485999D02*
D03*
X811000Y470999D02*
D03*
X826000D02*
D03*
X796000Y500999D02*
D03*
Y530999D02*
D03*
X811000Y500999D02*
D03*
Y485999D02*
D03*
X796000Y590999D02*
D03*
Y620999D02*
D03*
Y605999D02*
D03*
X811000Y530999D02*
D03*
Y545999D02*
D03*
X826000Y515999D02*
D03*
Y485999D02*
D03*
Y560999D02*
D03*
Y530999D02*
D03*
X811000Y605999D02*
D03*
Y590999D02*
D03*
Y620999D02*
D03*
X826000Y590999D02*
D03*
X841000Y485999D02*
D03*
Y470999D02*
D03*
X856000Y485999D02*
D03*
X871000Y470999D02*
D03*
X826000Y545999D02*
D03*
X841000Y530999D02*
D03*
Y560999D02*
D03*
X826000Y605999D02*
D03*
X856000Y515999D02*
D03*
Y500999D02*
D03*
X871000Y545999D02*
D03*
X856000Y620999D02*
D03*
X796000Y635999D02*
D03*
Y650999D02*
D03*
Y665999D02*
D03*
X811000Y650999D02*
D03*
Y665999D02*
D03*
X796000Y815999D02*
D03*
Y830999D02*
D03*
X811000Y860999D02*
D03*
Y635999D02*
D03*
X826000D02*
D03*
Y665999D02*
D03*
Y815999D02*
D03*
X811000D02*
D03*
Y845999D02*
D03*
X826000D02*
D03*
Y830999D02*
D03*
Y860999D02*
D03*
X796000Y890999D02*
D03*
Y875999D02*
D03*
Y920999D02*
D03*
Y905999D02*
D03*
X811000Y875999D02*
D03*
X826000Y920999D02*
D03*
Y875999D02*
D03*
X841000Y650999D02*
D03*
Y845999D02*
D03*
Y830999D02*
D03*
X856000Y845999D02*
D03*
X871000Y815999D02*
D03*
X856000D02*
D03*
X826000Y890999D02*
D03*
X856000Y920999D02*
D03*
X931000Y470999D02*
D03*
X961000D02*
D03*
X886000Y485999D02*
D03*
Y500999D02*
D03*
X901000Y485999D02*
D03*
X886000Y515999D02*
D03*
X901000Y500999D02*
D03*
X886000Y815999D02*
D03*
X901000Y515999D02*
D03*
Y815999D02*
D03*
X916000Y500999D02*
D03*
Y530999D02*
D03*
X946000Y515999D02*
D03*
X886000Y830999D02*
D03*
X916000Y1025999D02*
D03*
Y1010999D02*
D03*
X931000Y1025999D02*
D03*
Y1040999D02*
D03*
X946000Y1025999D02*
D03*
X931000Y1070999D02*
D03*
X946000Y1055999D02*
D03*
X961000Y485999D02*
D03*
X976000D02*
D03*
Y515999D02*
D03*
Y500999D02*
D03*
X961000Y515999D02*
D03*
X976000Y530999D02*
D03*
X991000Y980999D02*
D03*
X976000Y1010999D02*
D03*
X1036000Y545999D02*
D03*
X1051000Y530999D02*
D03*
X991000Y995999D02*
D03*
X1006000Y1010999D02*
D03*
X961000Y1040999D02*
D03*
Y1025999D02*
D03*
Y1070999D02*
D03*
X976000D02*
D03*
Y1085999D02*
D03*
X991000Y1025999D02*
D03*
Y1010999D02*
D03*
X1006000Y1025999D02*
D03*
X1036000D02*
D03*
X991000Y1055999D02*
D03*
Y1040999D02*
D03*
X1006000Y1055999D02*
D03*
X1051000Y545999D02*
D03*
X1036000Y530999D02*
D03*
X991000Y545999D02*
D03*
Y530999D02*
D03*
X976000Y470999D02*
D03*
X961000Y500999D02*
D03*
X946000D02*
D03*
Y485999D02*
D03*
Y470999D02*
D03*
X931000Y530999D02*
D03*
Y515999D02*
D03*
Y500999D02*
D03*
Y485999D02*
D03*
X916000Y515999D02*
D03*
Y485999D02*
D03*
Y470999D02*
D03*
X901000Y530999D02*
D03*
Y470999D02*
D03*
X886000Y530999D02*
D03*
Y470999D02*
D03*
X871000Y530999D02*
D03*
Y515999D02*
D03*
Y500999D02*
D03*
Y485999D02*
D03*
X856000Y665999D02*
D03*
Y650999D02*
D03*
Y635999D02*
D03*
Y605999D02*
D03*
Y590999D02*
D03*
Y575999D02*
D03*
Y560999D02*
D03*
Y545999D02*
D03*
Y530999D02*
D03*
Y470999D02*
D03*
X841000Y665999D02*
D03*
Y635999D02*
D03*
Y620999D02*
D03*
Y605999D02*
D03*
Y590999D02*
D03*
Y575999D02*
D03*
Y545999D02*
D03*
Y515999D02*
D03*
Y500999D02*
D03*
X826000Y650999D02*
D03*
Y620999D02*
D03*
Y575999D02*
D03*
Y500999D02*
D03*
X811000Y575999D02*
D03*
Y560999D02*
D03*
Y515999D02*
D03*
X796000Y575999D02*
D03*
Y560999D02*
D03*
Y545999D02*
D03*
Y515999D02*
D03*
Y470999D02*
D03*
X901000Y830999D02*
D03*
X871000D02*
D03*
X856000Y905999D02*
D03*
Y890999D02*
D03*
Y875999D02*
D03*
Y860999D02*
D03*
Y830999D02*
D03*
X841000Y920999D02*
D03*
Y905999D02*
D03*
Y890999D02*
D03*
Y875999D02*
D03*
Y860999D02*
D03*
Y815999D02*
D03*
X826000Y905999D02*
D03*
X811000Y920999D02*
D03*
Y905999D02*
D03*
Y890999D02*
D03*
Y830999D02*
D03*
X796000Y860999D02*
D03*
Y845999D02*
D03*
X1036000Y1010999D02*
D03*
Y980999D02*
D03*
X1021000Y1040999D02*
D03*
Y1025999D02*
D03*
Y1010999D02*
D03*
X1006000Y1040999D02*
D03*
X991000Y1070999D02*
D03*
X976000Y1055999D02*
D03*
Y1040999D02*
D03*
Y1025999D02*
D03*
Y995999D02*
D03*
X961000Y1085999D02*
D03*
Y1055999D02*
D03*
X946000Y1085999D02*
D03*
Y1070999D02*
D03*
Y1040999D02*
D03*
X931000Y1085999D02*
D03*
Y1055999D02*
D03*
X916000Y1085999D02*
D03*
Y1070999D02*
D03*
Y1055999D02*
D03*
Y1040999D02*
D03*
X436000Y123501D02*
D03*
Y103501D02*
D03*
Y83501D02*
D03*
X416000Y343501D02*
D03*
Y323501D02*
D03*
Y303501D02*
D03*
Y283501D02*
D03*
Y263501D02*
D03*
Y243501D02*
D03*
Y223501D02*
D03*
Y203501D02*
D03*
Y183501D02*
D03*
Y163501D02*
D03*
Y143501D02*
D03*
Y123501D02*
D03*
Y103501D02*
D03*
Y83501D02*
D03*
X396000Y343501D02*
D03*
Y323501D02*
D03*
Y303501D02*
D03*
Y283501D02*
D03*
Y263501D02*
D03*
Y243501D02*
D03*
Y223501D02*
D03*
Y203501D02*
D03*
Y143501D02*
D03*
Y123501D02*
D03*
Y103501D02*
D03*
Y83501D02*
D03*
X376000Y343501D02*
D03*
Y323501D02*
D03*
Y303501D02*
D03*
Y283501D02*
D03*
Y263501D02*
D03*
Y243501D02*
D03*
Y223501D02*
D03*
Y203501D02*
D03*
Y143501D02*
D03*
Y123501D02*
D03*
Y83501D02*
D03*
X356000Y343501D02*
D03*
Y323501D02*
D03*
Y303501D02*
D03*
Y283501D02*
D03*
Y263501D02*
D03*
Y243501D02*
D03*
Y223501D02*
D03*
Y203501D02*
D03*
Y143501D02*
D03*
Y123501D02*
D03*
Y83501D02*
D03*
X336000Y343501D02*
D03*
Y323501D02*
D03*
Y303501D02*
D03*
Y283501D02*
D03*
Y263501D02*
D03*
Y243501D02*
D03*
Y223501D02*
D03*
Y203501D02*
D03*
Y143501D02*
D03*
Y123501D02*
D03*
Y103501D02*
D03*
Y83501D02*
D03*
X316000Y343501D02*
D03*
Y323501D02*
D03*
Y303501D02*
D03*
Y283501D02*
D03*
Y263501D02*
D03*
Y243501D02*
D03*
Y223501D02*
D03*
Y203501D02*
D03*
Y183501D02*
D03*
Y163501D02*
D03*
Y143501D02*
D03*
Y123501D02*
D03*
Y103501D02*
D03*
X736000Y665999D02*
D03*
Y650999D02*
D03*
Y635999D02*
D03*
Y620999D02*
D03*
Y605999D02*
D03*
Y590999D02*
D03*
Y575999D02*
D03*
Y560999D02*
D03*
Y545999D02*
D03*
Y530999D02*
D03*
X721000Y665999D02*
D03*
Y650999D02*
D03*
Y635999D02*
D03*
Y620999D02*
D03*
Y605999D02*
D03*
Y590999D02*
D03*
Y575999D02*
D03*
Y560999D02*
D03*
Y545999D02*
D03*
Y530999D02*
D03*
X706000Y665999D02*
D03*
Y650999D02*
D03*
Y635999D02*
D03*
Y620999D02*
D03*
Y605999D02*
D03*
Y590999D02*
D03*
Y575999D02*
D03*
Y560999D02*
D03*
Y545999D02*
D03*
Y530999D02*
D03*
X691000Y665999D02*
D03*
Y650999D02*
D03*
Y635999D02*
D03*
Y620999D02*
D03*
Y605999D02*
D03*
Y590999D02*
D03*
Y575999D02*
D03*
Y560999D02*
D03*
Y545999D02*
D03*
Y530999D02*
D03*
X676000Y665999D02*
D03*
Y650999D02*
D03*
Y635999D02*
D03*
Y620999D02*
D03*
Y605999D02*
D03*
Y590999D02*
D03*
Y575999D02*
D03*
Y560999D02*
D03*
Y545999D02*
D03*
Y530999D02*
D03*
X661000Y650999D02*
D03*
Y635999D02*
D03*
Y620999D02*
D03*
Y605999D02*
D03*
Y590999D02*
D03*
Y575999D02*
D03*
Y560999D02*
D03*
Y545999D02*
D03*
Y530999D02*
D03*
X646000Y650999D02*
D03*
Y635999D02*
D03*
Y620999D02*
D03*
Y605999D02*
D03*
Y590999D02*
D03*
Y575999D02*
D03*
Y560999D02*
D03*
Y545999D02*
D03*
X631000Y650999D02*
D03*
Y635999D02*
D03*
Y620999D02*
D03*
Y605999D02*
D03*
Y590999D02*
D03*
Y575999D02*
D03*
Y560999D02*
D03*
X616000Y650999D02*
D03*
Y635999D02*
D03*
Y620999D02*
D03*
Y605999D02*
D03*
Y590999D02*
D03*
Y575999D02*
D03*
Y560999D02*
D03*
X601000Y635999D02*
D03*
Y620999D02*
D03*
Y605999D02*
D03*
Y590999D02*
D03*
Y575999D02*
D03*
Y560999D02*
D03*
Y545999D02*
D03*
X586000Y560999D02*
D03*
Y545999D02*
D03*
X571000Y560999D02*
D03*
X541000D02*
D03*
Y545999D02*
D03*
X166000Y926002D02*
D03*
X186000D02*
D03*
Y986002D02*
D03*
X206000Y966002D02*
D03*
Y986002D02*
D03*
Y1006002D02*
D03*
X226000Y926002D02*
D03*
Y946002D02*
D03*
Y966002D02*
D03*
Y986002D02*
D03*
Y1006002D02*
D03*
X246000Y946002D02*
D03*
Y986002D02*
D03*
X266000Y926002D02*
D03*
Y966002D02*
D03*
Y1006002D02*
D03*
X286000Y926002D02*
D03*
Y966002D02*
D03*
Y1006002D02*
D03*
X306000Y926002D02*
D03*
Y946002D02*
D03*
Y966002D02*
D03*
X326000Y926002D02*
D03*
Y946002D02*
D03*
Y986002D02*
D03*
Y1006002D02*
D03*
X346000Y926002D02*
D03*
Y946002D02*
D03*
Y966002D02*
D03*
Y1006002D02*
D03*
X366000Y926002D02*
D03*
Y966002D02*
D03*
Y1006002D02*
D03*
X386000Y926002D02*
D03*
Y946002D02*
D03*
Y966002D02*
D03*
Y986002D02*
D03*
X1186001Y946002D02*
D03*
X1206001Y986002D02*
D03*
X1226001Y966002D02*
D03*
Y986002D02*
D03*
Y1006002D02*
D03*
X1246001Y926002D02*
D03*
Y946002D02*
D03*
Y986002D02*
D03*
X1266001Y926002D02*
D03*
Y946002D02*
D03*
Y986002D02*
D03*
X1306001Y966002D02*
D03*
Y986002D02*
D03*
Y1006002D02*
D03*
X1326001Y926002D02*
D03*
Y946002D02*
D03*
Y986002D02*
D03*
X1346001Y926002D02*
D03*
Y1006002D02*
D03*
X1366001Y986002D02*
D03*
Y1006002D02*
D03*
X1386001D02*
D03*
X1204998Y749998D02*
D03*
X1155000Y667500D02*
D03*
X1142500Y657500D02*
D03*
X1262500D02*
D03*
X1277500D02*
D03*
X451000Y920999D02*
D03*
Y935999D02*
D03*
Y950999D02*
D03*
X466000Y920999D02*
D03*
Y935999D02*
D03*
Y950999D02*
D03*
X481000Y920999D02*
D03*
Y935999D02*
D03*
Y950999D02*
D03*
X496000Y920999D02*
D03*
Y935999D02*
D03*
Y950999D02*
D03*
X511000Y935999D02*
D03*
Y950999D02*
D03*
X526000Y935999D02*
D03*
Y950999D02*
D03*
X541000Y935999D02*
D03*
Y950999D02*
D03*
X571000D02*
D03*
X541000Y830999D02*
D03*
Y845999D02*
D03*
Y875999D02*
D03*
X556000Y830999D02*
D03*
Y845999D02*
D03*
Y860999D02*
D03*
X571000Y830999D02*
D03*
Y845999D02*
D03*
Y860999D02*
D03*
X586000Y830999D02*
D03*
Y845999D02*
D03*
Y860999D02*
D03*
Y875999D02*
D03*
X601000Y830999D02*
D03*
Y845999D02*
D03*
Y860999D02*
D03*
Y875999D02*
D03*
X616000Y830999D02*
D03*
Y845999D02*
D03*
Y860999D02*
D03*
Y890999D02*
D03*
X631000Y830999D02*
D03*
Y845999D02*
D03*
Y860999D02*
D03*
Y890999D02*
D03*
X646000Y830999D02*
D03*
Y845999D02*
D03*
X661000Y830999D02*
D03*
Y845999D02*
D03*
Y860999D02*
D03*
X676000Y815999D02*
D03*
Y830999D02*
D03*
Y845999D02*
D03*
Y860999D02*
D03*
Y875999D02*
D03*
X691000Y815999D02*
D03*
Y830999D02*
D03*
Y845999D02*
D03*
Y860999D02*
D03*
Y875999D02*
D03*
X706000Y815999D02*
D03*
Y830999D02*
D03*
Y845999D02*
D03*
Y860999D02*
D03*
Y875999D02*
D03*
X721000Y815999D02*
D03*
Y830999D02*
D03*
Y845999D02*
D03*
Y860999D02*
D03*
Y875999D02*
D03*
X736000Y815999D02*
D03*
Y830999D02*
D03*
Y845999D02*
D03*
Y860999D02*
D03*
Y875999D02*
D03*
X377250Y742750D02*
D03*
X392500Y742500D02*
D03*
X165000Y332500D02*
D03*
X220000Y325000D02*
D03*
X1366001Y1906002D02*
D03*
Y1926002D02*
D03*
Y1946002D02*
D03*
Y2006002D02*
D03*
X1386001D02*
D03*
X1426001Y1906002D02*
D03*
Y1926002D02*
D03*
Y1946002D02*
D03*
Y1966002D02*
D03*
X1446001Y1926002D02*
D03*
Y1966002D02*
D03*
X1466001Y1946002D02*
D03*
Y1986002D02*
D03*
X1486001Y1906002D02*
D03*
Y1946002D02*
D03*
Y1966002D02*
D03*
Y1986002D02*
D03*
Y2006002D02*
D03*
X1346001Y1706002D02*
D03*
Y1726002D02*
D03*
Y1746002D02*
D03*
Y1786002D02*
D03*
Y1806002D02*
D03*
X1366001Y1686002D02*
D03*
Y1706002D02*
D03*
Y1726002D02*
D03*
Y1786002D02*
D03*
Y1806002D02*
D03*
X1386001Y1706002D02*
D03*
Y1766002D02*
D03*
X1406001Y1706002D02*
D03*
Y1746002D02*
D03*
Y1766002D02*
D03*
Y1806002D02*
D03*
X1426001Y1706002D02*
D03*
Y1786002D02*
D03*
X1446001Y1686002D02*
D03*
Y1706002D02*
D03*
Y1766002D02*
D03*
Y1786002D02*
D03*
X1206001Y1666002D02*
D03*
Y1686002D02*
D03*
X1246001Y1606002D02*
D03*
Y1666002D02*
D03*
Y1686002D02*
D03*
X1266001Y1626002D02*
D03*
Y1646002D02*
D03*
X1286001Y1626002D02*
D03*
Y1646002D02*
D03*
Y1666002D02*
D03*
X1346001Y1686002D02*
D03*
Y1306002D02*
D03*
Y1326002D02*
D03*
Y1346002D02*
D03*
X1366001D02*
D03*
X1386001Y1246002D02*
D03*
Y1266002D02*
D03*
Y1326002D02*
D03*
X1406001Y1246002D02*
D03*
Y1346002D02*
D03*
X1426001Y1286002D02*
D03*
Y1306002D02*
D03*
X1446001Y1266002D02*
D03*
Y1286002D02*
D03*
Y1326002D02*
D03*
X1206001Y1886002D02*
D03*
Y1946002D02*
D03*
Y1966002D02*
D03*
Y2026002D02*
D03*
X1226001Y1926002D02*
D03*
X1246001D02*
D03*
Y1946002D02*
D03*
Y1986002D02*
D03*
Y2026002D02*
D03*
X1266001Y1886002D02*
D03*
Y1946002D02*
D03*
Y2046002D02*
D03*
X1286001Y1906002D02*
D03*
Y1926002D02*
D03*
Y2006002D02*
D03*
Y2046002D02*
D03*
X1306001Y1886002D02*
D03*
Y1946002D02*
D03*
Y2046002D02*
D03*
X1346001Y1486002D02*
D03*
Y1506002D02*
D03*
Y1526002D02*
D03*
Y1566002D02*
D03*
X1366001Y1546002D02*
D03*
X1386001Y1486002D02*
D03*
Y1546002D02*
D03*
X1406001D02*
D03*
X1426001Y1486002D02*
D03*
Y1546002D02*
D03*
X1446001Y1486002D02*
D03*
Y1546002D02*
D03*
Y1566002D02*
D03*
X1486001Y1686002D02*
D03*
Y1706002D02*
D03*
Y1766002D02*
D03*
Y1786002D02*
D03*
X1506001Y1686002D02*
D03*
Y1706002D02*
D03*
Y1726002D02*
D03*
Y1746002D02*
D03*
Y1766002D02*
D03*
Y1786002D02*
D03*
X1526001Y1686002D02*
D03*
Y1706002D02*
D03*
Y1766002D02*
D03*
Y1786002D02*
D03*
X1546001Y1686002D02*
D03*
Y1706002D02*
D03*
Y1766002D02*
D03*
Y1786002D02*
D03*
X1486001Y1466002D02*
D03*
Y1486002D02*
D03*
Y1546002D02*
D03*
Y1566002D02*
D03*
X1506001Y1466002D02*
D03*
Y1486002D02*
D03*
Y1506002D02*
D03*
Y1526002D02*
D03*
Y1546002D02*
D03*
Y1566002D02*
D03*
X1526001Y1466002D02*
D03*
Y1486002D02*
D03*
Y1546002D02*
D03*
Y1566002D02*
D03*
X1546001Y1466002D02*
D03*
Y1486002D02*
D03*
Y1546002D02*
D03*
Y1566002D02*
D03*
X1146001Y1246002D02*
D03*
Y1266002D02*
D03*
X1166001Y1226002D02*
D03*
Y1246002D02*
D03*
Y1286002D02*
D03*
X1186001Y1246002D02*
D03*
Y1266002D02*
D03*
X1206001Y1206002D02*
D03*
Y1226002D02*
D03*
Y1246002D02*
D03*
Y1266002D02*
D03*
X1226001Y1206002D02*
D03*
Y1226002D02*
D03*
Y1266002D02*
D03*
Y1286002D02*
D03*
X1266001Y1206002D02*
D03*
X1006000Y620999D02*
D03*
Y635999D02*
D03*
Y650999D02*
D03*
X1021000Y620999D02*
D03*
Y635999D02*
D03*
Y650999D02*
D03*
X1036000Y590999D02*
D03*
Y620999D02*
D03*
Y635999D02*
D03*
Y650999D02*
D03*
X1051000Y590999D02*
D03*
Y605999D02*
D03*
Y620999D02*
D03*
Y635999D02*
D03*
Y650999D02*
D03*
X1066000Y590999D02*
D03*
Y605999D02*
D03*
Y620999D02*
D03*
Y635999D02*
D03*
Y650999D02*
D03*
X1081000Y575999D02*
D03*
Y590999D02*
D03*
Y605999D02*
D03*
Y620999D02*
D03*
Y635999D02*
D03*
Y650999D02*
D03*
X1096000Y560999D02*
D03*
Y575999D02*
D03*
Y590999D02*
D03*
Y605999D02*
D03*
Y620999D02*
D03*
Y635999D02*
D03*
Y650999D02*
D03*
X1111000Y560999D02*
D03*
Y575999D02*
D03*
Y620999D02*
D03*
Y635999D02*
D03*
Y650999D02*
D03*
X1066001Y1526002D02*
D03*
Y1546002D02*
D03*
Y1566002D02*
D03*
X1106001Y1546002D02*
D03*
X1126001D02*
D03*
X1106001Y1566002D02*
D03*
X1086001Y1586002D02*
D03*
X1126001D02*
D03*
X1086001Y1606002D02*
D03*
X1146001Y1626002D02*
D03*
X1066001Y1586002D02*
D03*
Y1606002D02*
D03*
X1086001Y1526002D02*
D03*
Y1546002D02*
D03*
Y1566002D02*
D03*
X1106001Y1526002D02*
D03*
Y1586002D02*
D03*
X1126001Y1526002D02*
D03*
Y1566002D02*
D03*
X1146001D02*
D03*
Y1586002D02*
D03*
Y1606002D02*
D03*
X246000Y1166002D02*
D03*
Y1186002D02*
D03*
Y1246002D02*
D03*
Y1266002D02*
D03*
Y1286002D02*
D03*
X266000Y1166002D02*
D03*
Y1246002D02*
D03*
Y1266002D02*
D03*
Y1286002D02*
D03*
X286000Y1166002D02*
D03*
Y1186002D02*
D03*
Y1206002D02*
D03*
Y1226002D02*
D03*
Y1246002D02*
D03*
Y1266002D02*
D03*
Y1286002D02*
D03*
X306000Y1166002D02*
D03*
Y1186002D02*
D03*
Y1206002D02*
D03*
Y1226002D02*
D03*
Y1246002D02*
D03*
Y1266002D02*
D03*
Y1286002D02*
D03*
X326000Y1166002D02*
D03*
Y1186002D02*
D03*
Y1206002D02*
D03*
Y1226002D02*
D03*
Y1246002D02*
D03*
Y1266002D02*
D03*
Y1286002D02*
D03*
D105*
X442500Y710000D02*
D03*
X42500Y200000D02*
D03*
X45000Y160000D02*
D03*
X1182500Y712500D02*
D03*
X1232500Y712500D02*
D03*
X1451000Y178500D02*
D03*
X1475000Y227500D02*
D03*
X1530000Y250000D02*
D03*
X1417500Y325000D02*
D03*
X1425000Y457500D02*
D03*
X1442500Y325000D02*
D03*
X1353750Y322500D02*
D03*
X1345000Y365000D02*
D03*
X1412500Y362500D02*
D03*
X1455000Y145000D02*
D03*
X1400000Y165000D02*
D03*
X1355000Y247500D02*
D03*
X1415000D02*
D03*
X1422500Y227500D02*
D03*
X1390000Y210000D02*
D03*
X1430000Y180000D02*
D03*
X1122500Y722500D02*
D03*
X1172500Y697500D02*
D03*
X1247500Y495000D02*
D03*
X1262500Y475000D02*
D03*
X1235000Y690000D02*
D03*
X1209469Y682500D02*
D03*
X1260000Y725000D02*
D03*
X367500Y712500D02*
D03*
X422500Y710000D02*
D03*
X312500D02*
D03*
X125000Y432500D02*
D03*
Y335000D02*
D03*
X147500Y365000D02*
D03*
X145000Y420000D02*
D03*
X1442500Y432500D02*
D03*
X1400000Y496500D02*
D03*
X1332500Y475000D02*
D03*
X177500Y487500D02*
D03*
X245000Y467500D02*
D03*
X170000Y365000D02*
D03*
X237500D02*
D03*
X337500Y487500D02*
D03*
Y670000D02*
D03*
X360000Y487500D02*
D03*
X370000Y672500D02*
D03*
X110000Y200000D02*
D03*
Y165000D02*
D03*
X127500Y240000D02*
D03*
X143000Y227000D02*
D03*
X152500Y262500D02*
D03*
X222500D02*
D03*
X188750Y211250D02*
D03*
M02*
