G04 Layer_Color=32896*
%FSLAX44Y44*%
%MOMM*%
G71*
G01*
G75*
%ADD59C,0.2500*%
%ADD60C,0.1270*%
%ADD62C,0.2540*%
%ADD63C,0.2000*%
%ADD65C,0.1524*%
%ADD67C,0.1000*%
%ADD68C,0.1500*%
D59*
X850000Y1909502D02*
Y1924498D01*
X842503D01*
X840003Y1921998D01*
Y1917000D01*
X842503Y1914501D01*
X850000D01*
X845002D02*
X840003Y1909502D01*
X835005D02*
X830006D01*
X832506D01*
Y1924498D01*
X835005Y1921998D01*
X822509D02*
X820010Y1924498D01*
X815011D01*
X812512Y1921998D01*
Y1912002D01*
X815011Y1909502D01*
X820010D01*
X822509Y1912002D01*
Y1921998D01*
X807514D02*
X805015Y1924498D01*
X800016D01*
X797517Y1921998D01*
Y1912002D01*
X800016Y1909502D01*
X805015D01*
X807514Y1912002D01*
Y1921998D01*
X792519Y1909502D02*
Y1912002D01*
X790020D01*
Y1909502D01*
X792519D01*
X770026D02*
X780023D01*
X770026Y1919499D01*
Y1921998D01*
X772525Y1924498D01*
X777523D01*
X780023Y1921998D01*
X765027D02*
X762528Y1924498D01*
X757530D01*
X755031Y1921998D01*
Y1919499D01*
X757530Y1917000D01*
X760029D01*
X757530D01*
X755031Y1914501D01*
Y1912002D01*
X757530Y1909502D01*
X762528D01*
X765027Y1912002D01*
X750032Y1921998D02*
X747533Y1924498D01*
X742535D01*
X740036Y1921998D01*
Y1912002D01*
X742535Y1909502D01*
X747533D01*
X750032Y1912002D01*
Y1921998D01*
X735037Y1909502D02*
Y1912002D01*
X732538D01*
Y1909502D01*
X735037D01*
X722541Y1921998D02*
X720042Y1924498D01*
X715044D01*
X712544Y1921998D01*
Y1912002D01*
X715044Y1909502D01*
X720042D01*
X722541Y1912002D01*
Y1921998D01*
X707546Y1909502D02*
X702548D01*
X705047D01*
Y1924498D01*
X707546Y1921998D01*
X695050D02*
X692551Y1924498D01*
X687553D01*
X685053Y1921998D01*
Y1912002D01*
X687553Y1909502D01*
X692551D01*
X695050Y1912002D01*
Y1921998D01*
X680055Y1909502D02*
Y1912002D01*
X677556D01*
Y1909502D01*
X680055D01*
X667559Y1921998D02*
X665060Y1924498D01*
X660061D01*
X657562Y1921998D01*
Y1912002D01*
X660061Y1909502D01*
X665060D01*
X667559Y1912002D01*
Y1921998D01*
X652564D02*
X650065Y1924498D01*
X645066D01*
X642567Y1921998D01*
Y1912002D01*
X645066Y1909502D01*
X650065D01*
X652564Y1912002D01*
Y1921998D01*
X637569Y1909502D02*
X632570D01*
X635070D01*
Y1924498D01*
X637569Y1921998D01*
X815617Y1961139D02*
X810619D01*
X813118D01*
Y1946144D01*
X815617D01*
X810619D01*
X803121D02*
Y1956141D01*
X795624D01*
X793124Y1953642D01*
Y1946144D01*
X788126Y1956141D02*
X783128Y1946144D01*
X778129Y1956141D01*
X765633Y1946144D02*
X770632D01*
X773131Y1948643D01*
Y1953642D01*
X770632Y1956141D01*
X765633D01*
X763134Y1953642D01*
Y1951142D01*
X773131D01*
X758136Y1956141D02*
Y1946144D01*
Y1951142D01*
X755637Y1953642D01*
X753137Y1956141D01*
X750638D01*
X740641Y1958640D02*
Y1956141D01*
X743141D01*
X738142D01*
X740641D01*
Y1948643D01*
X738142Y1946144D01*
X728145D02*
X723147D01*
X720648Y1948643D01*
Y1953642D01*
X723147Y1956141D01*
X728145D01*
X730645Y1953642D01*
Y1948643D01*
X728145Y1946144D01*
X715649Y1956141D02*
Y1946144D01*
Y1951142D01*
X713150Y1953642D01*
X710651Y1956141D01*
X708152D01*
X700654Y1943645D02*
X690658D01*
X685659Y1956141D02*
X680661Y1946144D01*
X675662Y1956141D01*
X670664Y1946144D02*
X665666D01*
X668165D01*
Y1961139D01*
X670664Y1958640D01*
D60*
X377750Y705750D02*
X427250D01*
X377750Y674500D02*
Y705750D01*
Y674500D02*
X427250D01*
Y705750D01*
X1130250Y691750D02*
X1179750D01*
Y723000D01*
X1130250D02*
X1179750D01*
X1130250Y691750D02*
Y723000D01*
D62*
X697500Y883250D02*
X742500D01*
X870000Y1024250D02*
X915000D01*
X882500Y666750D02*
X927500D01*
X548250Y373457D02*
Y418457D01*
D63*
X739750Y894000D02*
X751500D01*
X739750Y966000D02*
X751500D01*
X688500Y894000D02*
X700250D01*
X688500Y966000D02*
X700250D01*
X751500Y894000D02*
Y966000D01*
X688500Y894000D02*
Y966000D01*
X861000Y1013500D02*
X872750D01*
X861000Y941500D02*
X872750D01*
X912250Y1013500D02*
X924000D01*
X912250Y941500D02*
X924000D01*
X861000D02*
Y1013500D01*
X924000Y941500D02*
Y1013500D01*
X873500Y656000D02*
X885250D01*
X873500Y584000D02*
X885250D01*
X924750Y656000D02*
X936500D01*
X924750Y584000D02*
X936500D01*
X873500D02*
Y656000D01*
X936500Y584000D02*
Y656000D01*
X559000Y364458D02*
Y376208D01*
X631000Y364458D02*
Y376208D01*
X559000Y415708D02*
Y427458D01*
X631000Y415708D02*
Y427458D01*
X559000Y364458D02*
X631000D01*
X559000Y427458D02*
X631000D01*
X395000Y677000D02*
X410000D01*
X395000Y703000D02*
X410000D01*
X1147500Y720500D02*
X1162500D01*
X1147500Y694500D02*
X1162500D01*
X927500Y896000D02*
X942500D01*
X927500Y874000D02*
X942500D01*
X626000Y974750D02*
Y989750D01*
X604000Y974750D02*
Y989750D01*
X966543Y544458D02*
Y559458D01*
X944542Y544458D02*
Y559458D01*
X611500Y507500D02*
Y522500D01*
X633500Y507500D02*
Y522500D01*
X181000Y756500D02*
Y783500D01*
X214000Y756500D02*
Y783500D01*
X468500Y741500D02*
Y768500D01*
X501500Y741500D02*
Y768500D01*
X1348500Y734000D02*
Y761000D01*
X1381500Y734000D02*
Y761000D01*
X1066000Y729000D02*
Y756000D01*
X1099000Y729000D02*
Y756000D01*
X469000Y351750D02*
Y390750D01*
X521000Y351750D02*
Y390750D01*
X446500Y1100500D02*
Y1139500D01*
X498500Y1100500D02*
Y1139500D01*
X1044000Y1103000D02*
Y1142000D01*
X1096000Y1103000D02*
Y1142000D01*
X1103000Y399000D02*
X1142000D01*
X1103000Y451000D02*
X1142000D01*
X646850Y910000D02*
Y950000D01*
X678150Y910000D02*
Y950000D01*
X963150Y967500D02*
Y1007500D01*
X931850Y967500D02*
Y1007500D01*
X580000Y468150D02*
X620000D01*
X580000Y436850D02*
X620000D01*
X978150Y602500D02*
Y642500D01*
X946850Y602500D02*
Y642500D01*
D65*
X718751Y980690D02*
Y975612D01*
X716212Y978151D02*
X721290D01*
X893749Y926810D02*
Y931888D01*
X896288Y929349D02*
X891210D01*
X906249Y569310D02*
Y574388D01*
X908788Y571849D02*
X903710D01*
X645690Y397206D02*
X640612D01*
X643151Y399745D02*
Y394667D01*
D67*
X1456500Y376000D02*
Y379000D01*
X1448500Y376000D02*
Y379000D01*
X1445500Y363000D02*
X1459500D01*
X1445500D02*
Y392000D01*
X1459500D01*
Y363000D02*
Y392000D01*
X1483500Y169000D02*
X1486500D01*
X1483500Y161000D02*
X1486500D01*
X1499500Y158000D02*
Y172000D01*
X1470500Y158000D02*
X1499500D01*
X1470500D02*
Y172000D01*
X1499500D01*
X1383500Y246500D02*
X1386500D01*
X1383500Y238500D02*
X1386500D01*
X1399500Y235500D02*
Y249500D01*
X1370500Y235500D02*
X1399500D01*
X1370500D02*
Y249500D01*
X1399500D01*
X1201000Y716500D02*
X1204000D01*
X1201000Y708500D02*
X1204000D01*
X1217000Y705500D02*
Y719500D01*
X1188000Y705500D02*
X1217000D01*
X1188000D02*
Y719500D01*
X1217000D01*
X1383500Y326500D02*
X1386500D01*
X1383500Y318500D02*
X1386500D01*
X1399500Y315500D02*
Y329500D01*
X1370500Y315500D02*
X1399500D01*
X1370500D02*
Y329500D01*
X1399500D01*
X94000Y373500D02*
Y376500D01*
X86000Y373500D02*
Y376500D01*
X83000Y360500D02*
X97000D01*
X83000D02*
Y389500D01*
X97000D01*
Y360500D02*
Y389500D01*
X76000Y156000D02*
X79000D01*
X76000Y164000D02*
X79000D01*
X63000Y153000D02*
Y167000D01*
X92000D01*
Y153000D02*
Y167000D01*
X63000Y153000D02*
X92000D01*
X188500Y266500D02*
X191500D01*
X188500Y258500D02*
X191500D01*
X204500Y255500D02*
Y269500D01*
X175500Y255500D02*
X204500D01*
X175500D02*
Y269500D01*
X204500D01*
X358500Y688500D02*
X361500D01*
X358500Y696500D02*
X361500D01*
X345500Y685500D02*
Y699500D01*
X374500D01*
Y685500D02*
Y699500D01*
X345500Y685500D02*
X374500D01*
X191000Y329000D02*
X194000D01*
X191000Y321000D02*
X194000D01*
X207000Y318000D02*
Y332000D01*
X178000Y318000D02*
X207000D01*
X178000D02*
Y332000D01*
X207000D01*
X155000Y451000D02*
X170000D01*
X155000Y434000D02*
X170000D01*
X187250Y431500D02*
Y453500D01*
X137750Y431500D02*
X187250D01*
X137750D02*
Y453500D01*
X187250D01*
X1375000Y371000D02*
X1390000D01*
X1375000Y354000D02*
X1390000D01*
X1407250Y351500D02*
Y373500D01*
X1357750Y351500D02*
X1407250D01*
X1357750D02*
Y373500D01*
X1407250D01*
X1432500Y483500D02*
X1447500D01*
X1432500Y466500D02*
X1447500D01*
X1464750Y464000D02*
Y486000D01*
X1415250Y464000D02*
X1464750D01*
X1415250D02*
Y486000D01*
X1464750D01*
X1501500Y257500D02*
Y272500D01*
X1518500Y257500D02*
Y272500D01*
X1499000Y289750D02*
X1521000D01*
Y240250D02*
Y289750D01*
X1499000Y240250D02*
X1521000D01*
X1499000D02*
Y289750D01*
X1477500Y153500D02*
X1492500D01*
X1477500Y136500D02*
X1492500D01*
X1509750Y134000D02*
Y156000D01*
X1460250Y134000D02*
X1509750D01*
X1460250D02*
Y156000D01*
X1509750D01*
X197500Y373500D02*
X212500D01*
X197500Y356500D02*
X212500D01*
X229750Y354000D02*
Y376000D01*
X180250Y354000D02*
X229750D01*
X180250D02*
Y376000D01*
X229750D01*
X69500Y212275D02*
X84500D01*
X69500Y229275D02*
X84500D01*
X52250Y209775D02*
Y231775D01*
X101750D01*
Y209775D02*
Y231775D01*
X52250Y209775D02*
X101750D01*
X70500Y130275D02*
X85500D01*
X70500Y147275D02*
X85500D01*
X53250Y127775D02*
Y149775D01*
X102750D01*
Y127775D02*
Y149775D01*
X53250Y127775D02*
X102750D01*
X1184250Y771750D02*
X1210750D01*
X1184250Y758250D02*
Y771750D01*
Y758250D02*
X1210750D01*
Y771750D01*
X1196500Y769250D02*
X1198500D01*
X1195500Y760750D02*
X1199500D01*
X1198500Y769250D02*
X1199500D01*
X1195500D02*
X1196500D01*
X371750Y761750D02*
X398250D01*
X371750Y748250D02*
Y761750D01*
Y748250D02*
X398250D01*
Y761750D01*
X384000Y759250D02*
X386000D01*
X383000Y750750D02*
X387000D01*
X386000Y759250D02*
X387000D01*
X383000D02*
X384000D01*
D68*
X602500Y352497D02*
Y345832D01*
X599168Y342500D01*
X595835Y345832D01*
Y352497D01*
X592503D02*
Y342500D01*
X587505D01*
X585839Y344166D01*
Y350831D01*
X587505Y352497D01*
X592503D01*
X575842D02*
X579174Y350831D01*
X582506Y347498D01*
Y344166D01*
X580840Y342500D01*
X577508D01*
X575842Y344166D01*
Y345832D01*
X577508Y347498D01*
X582506D01*
X915000Y687497D02*
Y680832D01*
X911668Y677500D01*
X908335Y680832D01*
Y687497D01*
X905003D02*
Y677500D01*
X900005D01*
X898339Y679166D01*
Y685831D01*
X900005Y687497D01*
X905003D01*
X888342D02*
X895006D01*
Y682498D01*
X891674Y684165D01*
X890008D01*
X888342Y682498D01*
Y679166D01*
X890008Y677500D01*
X893340D01*
X895006Y679166D01*
X922497Y900000D02*
X915832D01*
X912500Y903332D01*
X915832Y906665D01*
X922497D01*
Y909997D02*
X912500D01*
Y914995D01*
X914166Y916661D01*
X920831D01*
X922497Y914995D01*
Y909997D01*
X920831Y919994D02*
X922497Y921660D01*
Y924992D01*
X920831Y926658D01*
X919165D01*
X917498Y924992D01*
Y923326D01*
Y924992D01*
X915832Y926658D01*
X914166D01*
X912500Y924992D01*
Y921660D01*
X914166Y919994D01*
X749997Y982500D02*
X743332D01*
X740000Y985832D01*
X743332Y989165D01*
X749997D01*
Y992497D02*
X740000D01*
Y997495D01*
X741666Y999161D01*
X748331D01*
X749997Y997495D01*
Y992497D01*
X740000Y1009158D02*
Y1002494D01*
X746665Y1009158D01*
X748331D01*
X749997Y1007492D01*
Y1004160D01*
X748331Y1002494D01*
X985000Y615000D02*
X994997D01*
Y619998D01*
X993331Y621665D01*
X989998D01*
X988332Y619998D01*
Y615000D01*
Y618332D02*
X985000Y621665D01*
X986666Y624997D02*
X985000Y626663D01*
Y629995D01*
X986666Y631661D01*
X993331D01*
X994997Y629995D01*
Y626663D01*
X993331Y624997D01*
X991665D01*
X989998Y626663D01*
Y631661D01*
X645000Y442500D02*
X654997D01*
Y447498D01*
X653331Y449165D01*
X649998D01*
X648332Y447498D01*
Y442500D01*
Y445832D02*
X645000Y449165D01*
X653331Y452497D02*
X654997Y454163D01*
Y457495D01*
X653331Y459161D01*
X651665D01*
X649998Y457495D01*
X648332Y459161D01*
X646666D01*
X645000Y457495D01*
Y454163D01*
X646666Y452497D01*
X648332D01*
X649998Y454163D01*
X651665Y452497D01*
X653331D01*
X649998Y454163D02*
Y457495D01*
X972500Y957500D02*
X982497D01*
Y962498D01*
X980831Y964165D01*
X977498D01*
X975832Y962498D01*
Y957500D01*
Y960832D02*
X972500Y964165D01*
X980831Y967497D02*
X982497Y969163D01*
Y972495D01*
X980831Y974161D01*
X979165D01*
X977498Y972495D01*
Y970829D01*
Y972495D01*
X975832Y974161D01*
X974166D01*
X972500Y972495D01*
Y969163D01*
X974166Y967497D01*
X657500Y975000D02*
X667497D01*
Y979998D01*
X665831Y981665D01*
X662498D01*
X660832Y979998D01*
Y975000D01*
Y978332D02*
X657500Y981665D01*
Y991661D02*
Y984997D01*
X664165Y991661D01*
X665831D01*
X667497Y989995D01*
Y986663D01*
X665831Y984997D01*
X1128335Y388331D02*
X1130002Y389997D01*
X1133334D01*
X1135000Y388331D01*
Y381666D01*
X1133334Y380000D01*
X1130002D01*
X1128335Y381666D01*
X1125003Y388331D02*
X1123337Y389997D01*
X1120005D01*
X1118339Y388331D01*
Y386665D01*
X1120005Y384998D01*
X1121671D01*
X1120005D01*
X1118339Y383332D01*
Y381666D01*
X1120005Y380000D01*
X1123337D01*
X1125003Y381666D01*
X1115006Y388331D02*
X1113340Y389997D01*
X1110008D01*
X1108342Y388331D01*
Y381666D01*
X1110008Y380000D01*
X1113340D01*
X1115006Y381666D01*
Y388331D01*
X650831Y504165D02*
X652497Y502498D01*
Y499166D01*
X650831Y497500D01*
X644166D01*
X642500Y499166D01*
Y502498D01*
X644166Y504165D01*
X642500Y514161D02*
Y507497D01*
X649165Y514161D01*
X650831D01*
X652497Y512495D01*
Y509163D01*
X650831Y507497D01*
X644166Y517494D02*
X642500Y519160D01*
Y522492D01*
X644166Y524158D01*
X650831D01*
X652497Y522492D01*
Y519160D01*
X650831Y517494D01*
X649165D01*
X647498Y519160D01*
Y524158D01*
X983331Y561665D02*
X984997Y559998D01*
Y556666D01*
X983331Y555000D01*
X976666D01*
X975000Y556666D01*
Y559998D01*
X976666Y561665D01*
X975000Y571661D02*
Y564997D01*
X981665Y571661D01*
X983331D01*
X984997Y569995D01*
Y566663D01*
X983331Y564997D01*
X984997Y581658D02*
X983331Y578326D01*
X979998Y574994D01*
X976666D01*
X975000Y576660D01*
Y579992D01*
X976666Y581658D01*
X978332D01*
X979998Y579992D01*
Y574994D01*
X1053331Y736665D02*
X1054997Y734998D01*
Y731666D01*
X1053331Y730000D01*
X1046666D01*
X1045000Y731666D01*
Y734998D01*
X1046666Y736665D01*
X1045000Y746661D02*
Y739997D01*
X1051665Y746661D01*
X1053331D01*
X1054997Y744995D01*
Y741663D01*
X1053331Y739997D01*
X1045000Y754992D02*
X1054997D01*
X1049998Y749994D01*
Y756658D01*
X1335831Y746665D02*
X1337497Y744998D01*
Y741666D01*
X1335831Y740000D01*
X1329166D01*
X1327500Y741666D01*
Y744998D01*
X1329166Y746665D01*
X1327500Y749997D02*
Y753329D01*
Y751663D01*
X1337497D01*
X1335831Y749997D01*
X1337497Y764992D02*
X1335831Y761660D01*
X1332498Y758327D01*
X1329166D01*
X1327500Y759994D01*
Y763326D01*
X1329166Y764992D01*
X1330832D01*
X1332498Y763326D01*
Y758327D01*
X518331Y746665D02*
X519997Y744998D01*
Y741666D01*
X518331Y740000D01*
X511666D01*
X510000Y741666D01*
Y744998D01*
X511666Y746665D01*
X510000Y754995D02*
X519997D01*
X514998Y749997D01*
Y756661D01*
X593331Y994165D02*
X594997Y992498D01*
Y989166D01*
X593331Y987500D01*
X586666D01*
X585000Y989166D01*
Y992498D01*
X586666Y994165D01*
X593331Y997497D02*
X594997Y999163D01*
Y1002495D01*
X593331Y1004161D01*
X591665D01*
X589998Y1002495D01*
Y1000829D01*
Y1002495D01*
X588332Y1004161D01*
X586666D01*
X585000Y1002495D01*
Y999163D01*
X586666Y997497D01*
X935835Y863331D02*
X937502Y864997D01*
X940834D01*
X942500Y863331D01*
Y856666D01*
X940834Y855000D01*
X937502D01*
X935835Y856666D01*
X925839Y855000D02*
X932503D01*
X925839Y861665D01*
Y863331D01*
X927505Y864997D01*
X930837D01*
X932503Y863331D01*
X1113331Y1116164D02*
X1114997Y1114498D01*
Y1111166D01*
X1113331Y1109500D01*
X1106666D01*
X1105000Y1111166D01*
Y1114498D01*
X1106666Y1116164D01*
X1105000Y1119497D02*
Y1122829D01*
Y1121163D01*
X1114997D01*
X1113331Y1119497D01*
X165831Y766665D02*
X167497Y764998D01*
Y761666D01*
X165831Y760000D01*
X159166D01*
X157500Y761666D01*
Y764998D01*
X159166Y766665D01*
X165831Y769997D02*
X167497Y771663D01*
Y774995D01*
X165831Y776661D01*
X164165D01*
X162498Y774995D01*
Y773329D01*
Y774995D01*
X160832Y776661D01*
X159166D01*
X157500Y774995D01*
Y771663D01*
X159166Y769997D01*
X165831Y779994D02*
X167497Y781660D01*
Y784992D01*
X165831Y786658D01*
X164165D01*
X162498Y784992D01*
Y783326D01*
Y784992D01*
X160832Y786658D01*
X159166D01*
X157500Y784992D01*
Y781660D01*
X159166Y779994D01*
X200835Y310831D02*
X202502Y312497D01*
X205834D01*
X207500Y310831D01*
Y304166D01*
X205834Y302500D01*
X202502D01*
X200835Y304166D01*
X197503Y310831D02*
X195837Y312497D01*
X192505D01*
X190839Y310831D01*
Y309165D01*
X192505Y307498D01*
X194171D01*
X192505D01*
X190839Y305832D01*
Y304166D01*
X192505Y302500D01*
X195837D01*
X197503Y304166D01*
X187506Y312497D02*
X180842D01*
Y310831D01*
X187506Y304166D01*
Y302500D01*
X328335Y695831D02*
X330002Y697497D01*
X333334D01*
X335000Y695831D01*
Y689166D01*
X333334Y687500D01*
X330002D01*
X328335Y689166D01*
X325003Y695831D02*
X323337Y697497D01*
X320005D01*
X318339Y695831D01*
Y694165D01*
X320005Y692498D01*
X321671D01*
X320005D01*
X318339Y690832D01*
Y689166D01*
X320005Y687500D01*
X323337D01*
X325003Y689166D01*
X315006Y695831D02*
X313340Y697497D01*
X310008D01*
X308342Y695831D01*
Y694165D01*
X310008Y692498D01*
X308342Y690832D01*
Y689166D01*
X310008Y687500D01*
X313340D01*
X315006Y689166D01*
Y690832D01*
X313340Y692498D01*
X315006Y694165D01*
Y695831D01*
X313340Y692498D02*
X310008D01*
X196749Y284817D02*
X198416Y286483D01*
X201748D01*
X203414Y284817D01*
Y278152D01*
X201748Y276486D01*
X198416D01*
X196749Y278152D01*
X193417Y284817D02*
X191751Y286483D01*
X188419D01*
X186753Y284817D01*
Y283151D01*
X188419Y281484D01*
X190085D01*
X188419D01*
X186753Y279818D01*
Y278152D01*
X188419Y276486D01*
X191751D01*
X193417Y278152D01*
X183420D02*
X181754Y276486D01*
X178422D01*
X176756Y278152D01*
Y284817D01*
X178422Y286483D01*
X181754D01*
X183420Y284817D01*
Y283151D01*
X181754Y281484D01*
X176756D01*
X43331Y121664D02*
X44997Y119998D01*
Y116666D01*
X43331Y115000D01*
X36666D01*
X35000Y116666D01*
Y119998D01*
X36666Y121664D01*
X35000Y129995D02*
X44997D01*
X39998Y124997D01*
Y131661D01*
X43331Y134994D02*
X44997Y136660D01*
Y139992D01*
X43331Y141658D01*
X36666D01*
X35000Y139992D01*
Y136660D01*
X36666Y134994D01*
X43331D01*
X83336Y183331D02*
X85002Y184997D01*
X88334D01*
X90000Y183331D01*
Y176666D01*
X88334Y175000D01*
X85002D01*
X83336Y176666D01*
X75005Y175000D02*
Y184997D01*
X80003Y179998D01*
X73339D01*
X70006Y175000D02*
X66674D01*
X68340D01*
Y184997D01*
X70006Y183331D01*
X98336Y248331D02*
X100002Y249997D01*
X103334D01*
X105000Y248331D01*
Y241666D01*
X103334Y240000D01*
X100002D01*
X98336Y241666D01*
X90005Y240000D02*
Y249997D01*
X95003Y244998D01*
X88339D01*
X78342Y240000D02*
X85006D01*
X78342Y246665D01*
Y248331D01*
X80008Y249997D01*
X83340D01*
X85006Y248331D01*
X113331Y369165D02*
X114997Y367498D01*
Y364166D01*
X113331Y362500D01*
X106666D01*
X105000Y364166D01*
Y367498D01*
X106666Y369165D01*
X105000Y377495D02*
X114997D01*
X109998Y372497D01*
Y379161D01*
X105000Y387492D02*
X114997D01*
X109998Y382494D01*
Y389158D01*
X218335Y390331D02*
X220002Y391997D01*
X223334D01*
X225000Y390331D01*
Y383666D01*
X223334Y382000D01*
X220002D01*
X218335Y383666D01*
X210005Y382000D02*
Y391997D01*
X215003Y386998D01*
X208339D01*
X198342Y391997D02*
X201674Y390331D01*
X205006Y386998D01*
Y383666D01*
X203340Y382000D01*
X200008D01*
X198342Y383666D01*
Y385332D01*
X200008Y386998D01*
X205006D01*
X1390836Y308331D02*
X1392502Y309997D01*
X1395834D01*
X1397500Y308331D01*
Y301666D01*
X1395834Y300000D01*
X1392502D01*
X1390836Y301666D01*
X1380839Y309997D02*
X1387503D01*
Y304998D01*
X1384171Y306665D01*
X1382505D01*
X1380839Y304998D01*
Y301666D01*
X1382505Y300000D01*
X1385837D01*
X1387503Y301666D01*
X1377506Y300000D02*
X1374174D01*
X1375840D01*
Y309997D01*
X1377506Y308331D01*
X1209239Y734947D02*
X1210905Y736613D01*
X1214237D01*
X1215903Y734947D01*
Y728282D01*
X1214237Y726616D01*
X1210905D01*
X1209239Y728282D01*
X1199242Y736613D02*
X1205907D01*
Y731615D01*
X1202574Y733281D01*
X1200908D01*
X1199242Y731615D01*
Y728282D01*
X1200908Y726616D01*
X1204240D01*
X1205907Y728282D01*
X1189245Y726616D02*
X1195910D01*
X1189245Y733281D01*
Y734947D01*
X1190911Y736613D01*
X1194244D01*
X1195910Y734947D01*
X1395836Y230831D02*
X1397502Y232497D01*
X1400834D01*
X1402500Y230831D01*
Y224166D01*
X1400834Y222500D01*
X1397502D01*
X1395836Y224166D01*
X1385839Y232497D02*
X1392503D01*
Y227498D01*
X1389171Y229165D01*
X1387505D01*
X1385839Y227498D01*
Y224166D01*
X1387505Y222500D01*
X1390837D01*
X1392503Y224166D01*
X1382506Y230831D02*
X1380840Y232497D01*
X1377508D01*
X1375842Y230831D01*
Y229165D01*
X1377508Y227498D01*
X1379174D01*
X1377508D01*
X1375842Y225832D01*
Y224166D01*
X1377508Y222500D01*
X1380840D01*
X1382506Y224166D01*
X1538336Y143331D02*
X1540002Y144997D01*
X1543334D01*
X1545000Y143331D01*
Y136666D01*
X1543334Y135000D01*
X1540002D01*
X1538336Y136666D01*
X1528339Y144997D02*
X1535003D01*
Y139998D01*
X1531671Y141664D01*
X1530005D01*
X1528339Y139998D01*
Y136666D01*
X1530005Y135000D01*
X1533337D01*
X1535003Y136666D01*
X1520008Y135000D02*
Y144997D01*
X1525006Y139998D01*
X1518342D01*
X1533331Y271665D02*
X1534997Y269998D01*
Y266666D01*
X1533331Y265000D01*
X1526666D01*
X1525000Y266666D01*
Y269998D01*
X1526666Y271665D01*
X1534997Y281661D02*
Y274997D01*
X1529998D01*
X1531664Y278329D01*
Y279995D01*
X1529998Y281661D01*
X1526666D01*
X1525000Y279995D01*
Y276663D01*
X1526666Y274997D01*
X1534997Y291658D02*
Y284994D01*
X1529998D01*
X1531664Y288326D01*
Y289992D01*
X1529998Y291658D01*
X1526666D01*
X1525000Y289992D01*
Y286660D01*
X1526666Y284994D01*
X1450836Y500831D02*
X1452502Y502497D01*
X1455834D01*
X1457500Y500831D01*
Y494166D01*
X1455834Y492500D01*
X1452502D01*
X1450836Y494166D01*
X1440839Y502497D02*
X1447503D01*
Y497498D01*
X1444171Y499165D01*
X1442505D01*
X1440839Y497498D01*
Y494166D01*
X1442505Y492500D01*
X1445837D01*
X1447503Y494166D01*
X1430842Y502497D02*
X1434174Y500831D01*
X1437506Y497498D01*
Y494166D01*
X1435840Y492500D01*
X1432508D01*
X1430842Y494166D01*
Y495832D01*
X1432508Y497498D01*
X1437506D01*
X1530836Y173331D02*
X1532502Y174997D01*
X1535834D01*
X1537500Y173331D01*
Y166666D01*
X1535834Y165000D01*
X1532502D01*
X1530836Y166666D01*
X1520839Y174997D02*
X1527503D01*
Y169998D01*
X1524171Y171665D01*
X1522505D01*
X1520839Y169998D01*
Y166666D01*
X1522505Y165000D01*
X1525837D01*
X1527503Y166666D01*
X1517506Y174997D02*
X1510842D01*
Y173331D01*
X1517506Y166666D01*
Y165000D01*
X1440831Y371665D02*
X1442497Y369998D01*
Y366666D01*
X1440831Y365000D01*
X1434166D01*
X1432500Y366666D01*
Y369998D01*
X1434166Y371665D01*
X1442497Y381661D02*
Y374997D01*
X1437498D01*
X1439164Y378329D01*
Y379995D01*
X1437498Y381661D01*
X1434166D01*
X1432500Y379995D01*
Y376663D01*
X1434166Y374997D01*
X1440831Y384994D02*
X1442497Y386660D01*
Y389992D01*
X1440831Y391658D01*
X1439164D01*
X1437498Y389992D01*
X1435832Y391658D01*
X1434166D01*
X1432500Y389992D01*
Y386660D01*
X1434166Y384994D01*
X1435832D01*
X1437498Y386660D01*
X1439164Y384994D01*
X1440831D01*
X1437498Y386660D02*
Y389992D01*
X1163335Y685831D02*
X1165002Y687497D01*
X1168334D01*
X1170000Y685831D01*
Y679166D01*
X1168334Y677500D01*
X1165002D01*
X1163335Y679166D01*
X1153339Y687497D02*
X1160003D01*
Y682498D01*
X1156671Y684165D01*
X1155005D01*
X1153339Y682498D01*
Y679166D01*
X1155005Y677500D01*
X1158337D01*
X1160003Y679166D01*
X1150006D02*
X1148340Y677500D01*
X1145008D01*
X1143342Y679166D01*
Y685831D01*
X1145008Y687497D01*
X1148340D01*
X1150006Y685831D01*
Y684165D01*
X1148340Y682498D01*
X1143342D01*
X1388336Y390831D02*
X1390002Y392497D01*
X1393334D01*
X1395000Y390831D01*
Y384166D01*
X1393334Y382500D01*
X1390002D01*
X1388336Y384166D01*
X1378339Y392497D02*
X1381671Y390831D01*
X1385003Y387498D01*
Y384166D01*
X1383337Y382500D01*
X1380005D01*
X1378339Y384166D01*
Y385832D01*
X1380005Y387498D01*
X1385003D01*
X1375006Y390831D02*
X1373340Y392497D01*
X1370008D01*
X1368342Y390831D01*
Y384166D01*
X1370008Y382500D01*
X1373340D01*
X1375006Y384166D01*
Y390831D01*
X400000Y770000D02*
Y779997D01*
X395002D01*
X393335Y778331D01*
Y774998D01*
X395002Y773332D01*
X400000D01*
X396668D02*
X393335Y770000D01*
X383339D02*
X390003D01*
X383339Y776665D01*
Y778331D01*
X385005Y779997D01*
X388337D01*
X390003Y778331D01*
X373342Y770000D02*
X380006D01*
X373342Y776665D01*
Y778331D01*
X375008Y779997D01*
X378340D01*
X380006Y778331D01*
X1210000Y777500D02*
Y787497D01*
X1205002D01*
X1203335Y785831D01*
Y782498D01*
X1205002Y780832D01*
X1210000D01*
X1206668D02*
X1203335Y777500D01*
X1200003Y785831D02*
X1198337Y787497D01*
X1195005D01*
X1193339Y785831D01*
Y784165D01*
X1195005Y782498D01*
X1196671D01*
X1195005D01*
X1193339Y780832D01*
Y779166D01*
X1195005Y777500D01*
X1198337D01*
X1200003Y779166D01*
X1190006Y785831D02*
X1188340Y787497D01*
X1185008D01*
X1183342Y785831D01*
Y779166D01*
X1185008Y777500D01*
X1188340D01*
X1190006Y779166D01*
Y785831D01*
X200831Y436665D02*
X202497Y434998D01*
Y431666D01*
X200831Y430000D01*
X194166D01*
X192500Y431666D01*
Y434998D01*
X194166Y436665D01*
X192500Y444995D02*
X202497D01*
X197498Y439997D01*
Y446661D01*
X200831Y449994D02*
X202497Y451660D01*
Y454992D01*
X200831Y456658D01*
X199165D01*
X197498Y454992D01*
Y453326D01*
Y454992D01*
X195832Y456658D01*
X194166D01*
X192500Y454992D01*
Y451660D01*
X194166Y449994D01*
X403335Y728331D02*
X405002Y729997D01*
X408334D01*
X410000Y728331D01*
Y721666D01*
X408334Y720000D01*
X405002D01*
X403335Y721666D01*
X395005Y720000D02*
Y729997D01*
X400003Y724998D01*
X393339D01*
X383342Y729997D02*
X390006D01*
Y724998D01*
X386674Y726665D01*
X385008D01*
X383342Y724998D01*
Y721666D01*
X385008Y720000D01*
X388340D01*
X390006Y721666D01*
X518331Y1119165D02*
X519997Y1117498D01*
Y1114166D01*
X518331Y1112500D01*
X511666D01*
X510000Y1114166D01*
Y1117498D01*
X511666Y1119165D01*
X519997Y1129161D02*
Y1122497D01*
X514998D01*
X516665Y1125829D01*
Y1127495D01*
X514998Y1129161D01*
X511666D01*
X510000Y1127495D01*
Y1124163D01*
X511666Y1122497D01*
X458331Y371665D02*
X459997Y369998D01*
Y366666D01*
X458331Y365000D01*
X451666D01*
X450000Y366666D01*
Y369998D01*
X451666Y371665D01*
X459997Y374997D02*
Y381661D01*
X458331D01*
X451666Y374997D01*
X450000D01*
M02*
