G04 Layer_Physical_Order=2*
G04 Layer_Color=16711680*
%FSLAX44Y44*%
%MOMM*%
G71*
G01*
G75*
%ADD18R,1.0000X1.1000*%
%ADD19R,1.1000X1.0000*%
%ADD20R,1.1500X2.8000*%
%ADD26C,0.5000*%
%ADD27C,0.7500*%
%ADD28C,1.0000*%
%ADD29C,2.0566*%
%ADD31C,1.3600*%
%ADD32R,1.3600X1.3600*%
%ADD33C,2.5000*%
%ADD34R,2.5000X2.5000*%
%ADD35C,1.2192*%
%ADD36R,1.2192X1.2192*%
%ADD37R,2.3000X2.3000*%
%ADD38C,2.3000*%
%ADD39R,3.5000X3.5000*%
%ADD40C,3.5000*%
%ADD41C,5.1000*%
%ADD42C,2.0320*%
%ADD43C,2.4130*%
%ADD44C,0.9000*%
%ADD45C,1.2000*%
%ADD46R,3.1500X2.4500*%
%ADD47R,2.4500X3.1500*%
%ADD48R,1.4500X1.9000*%
%ADD49R,1.9000X1.4500*%
%ADD50R,1.5000X2.4000*%
%ADD51R,2.4000X1.5000*%
%ADD52R,3.5000X1.0500*%
%ADD53R,5.4000X1.0500*%
%ADD54R,1.0500X5.4000*%
%ADD55R,0.8000X1.0500*%
%ADD56R,3.3300X1.2300*%
%ADD57R,1.2300X3.3300*%
G36*
X645000Y1025000D02*
X740000Y1025000D01*
X741477D01*
X744375Y1024424D01*
X747105Y1023293D01*
X749562Y1021651D01*
X751651Y1019562D01*
X753293Y1017105D01*
X754424Y1014375D01*
X755000Y1011477D01*
X755000Y1010000D01*
X755000D01*
X755000Y952500D01*
X755000Y951515D01*
X754616Y949583D01*
X753862Y947763D01*
X752767Y946125D01*
X751375Y944732D01*
X749737Y943638D01*
X747917Y942884D01*
X746248Y942552D01*
X745000Y942500D01*
X655000Y942500D01*
X654015Y942500D01*
X652083Y942884D01*
X650263Y943638D01*
X648625Y944732D01*
X647233Y946125D01*
X646138Y947763D01*
X645384Y949583D01*
X645000Y951515D01*
Y952500D01*
X645000Y952500D01*
X645000Y992500D01*
X607500Y992500D01*
X606515Y992500D01*
X604583Y992884D01*
X602763Y993638D01*
X601125Y994733D01*
X599733Y996125D01*
X598638Y997763D01*
X597884Y999583D01*
X597500Y1001515D01*
Y1002500D01*
X597500Y1002500D01*
X597500Y1015000D01*
X597500Y1015985D01*
X597884Y1017917D01*
X598638Y1019737D01*
X599733Y1021375D01*
X601125Y1022768D01*
X602763Y1023862D01*
X604583Y1024616D01*
X606515Y1025000D01*
X607500Y1025000D01*
X607500Y1025000D01*
X645000Y1025000D01*
D02*
G37*
G36*
X960000Y970000D02*
X960000Y970000D01*
X960001D01*
X961170Y969914D01*
X962188Y969712D01*
X963553Y969147D01*
X964781Y968326D01*
X965826Y967281D01*
X966646Y966053D01*
X967212Y964688D01*
X967500Y963239D01*
X967500Y962500D01*
X967500Y955000D01*
X967500Y955000D01*
Y954261D01*
X967212Y952812D01*
X966646Y951447D01*
X965826Y950219D01*
X964781Y949174D01*
X963553Y948354D01*
X962188Y947788D01*
X960739Y947500D01*
X935000Y947500D01*
X935000Y947500D01*
X934020Y947452D01*
X932097Y947069D01*
X930286Y946319D01*
X928656Y945230D01*
X927270Y943844D01*
X926181Y942214D01*
X925431Y940403D01*
X925048Y938480D01*
X925000Y937500D01*
X925000Y875000D01*
X925000Y875000D01*
X925000Y873769D01*
X924520Y871354D01*
X923577Y869079D01*
X922209Y867032D01*
X920468Y865291D01*
X918421Y863923D01*
X916146Y862980D01*
X913731Y862500D01*
X886269Y862500D01*
X883854Y862980D01*
X881579Y863922D01*
X879532Y865290D01*
X877791Y867031D01*
X876423Y869079D01*
X875480Y871354D01*
X875000Y873769D01*
X875000Y875000D01*
Y957500D01*
X875000Y958731D01*
X875480Y961146D01*
X876423Y963421D01*
X877790Y965468D01*
X879531Y967209D01*
X881579Y968577D01*
X883854Y969520D01*
X886269Y970000D01*
X887500Y970000D01*
X960000Y970000D01*
X960000Y970000D01*
D02*
G37*
G36*
X968097Y1099662D02*
X971487Y1098988D01*
X974794Y1097984D01*
X977988Y1096662D01*
X981036Y1095032D01*
X983910Y1093112D01*
X986581Y1090919D01*
X987803Y1089696D01*
X987803Y1089696D01*
X987804Y1089696D01*
X1031161Y1046339D01*
X1033099Y1044401D01*
X1036577Y1040165D01*
X1039622Y1035607D01*
X1042206Y1030773D01*
X1044303Y1025710D01*
X1045894Y1020464D01*
X1046963Y1015089D01*
X1047500Y1009634D01*
X1047499Y1006893D01*
X1047499Y1006893D01*
X1047500Y1006893D01*
X1047500Y985000D01*
X1047500Y984015D01*
X1047116Y982083D01*
X1046362Y980263D01*
X1045268Y978625D01*
X1043875Y977232D01*
X1042237Y976137D01*
X1040417Y975384D01*
X1038972Y975097D01*
X1002856Y975097D01*
X1000393Y975097D01*
X1000393Y975097D01*
X1000393Y975097D01*
X999413Y975000D01*
X996035D01*
X994006Y975000D01*
X990025Y975792D01*
X986274Y977345D01*
X982899Y979600D01*
X981464Y981035D01*
X981465Y981036D01*
X976036Y986464D01*
X974537Y987823D01*
X971179Y990068D01*
X967446Y991613D01*
X963484Y992401D01*
X961465Y992499D01*
X961464Y992500D01*
X961464Y992500D01*
X875000Y992500D01*
X873775Y992440D01*
X871371Y991962D01*
X869107Y991025D01*
X867069Y989663D01*
X865337Y987931D01*
X863975Y985893D01*
X863038Y983629D01*
X862560Y981225D01*
X862500Y980000D01*
Y857500D01*
X862597Y855539D01*
X863362Y851694D01*
X864862Y848072D01*
X867040Y844812D01*
X869812Y842040D01*
X873072Y839862D01*
X876694Y838361D01*
X880540Y837596D01*
X882500Y837500D01*
X905000Y837500D01*
X906477Y837500D01*
X909375Y836924D01*
X912105Y835793D01*
X914562Y834151D01*
X916651Y832062D01*
X918293Y829605D01*
X919423Y826875D01*
X920000Y823977D01*
X919999Y822500D01*
X919999Y822500D01*
X920000Y822499D01*
X920000Y705000D01*
Y703523D01*
X919423Y700625D01*
X918293Y697895D01*
X916651Y695438D01*
X914562Y693349D01*
X912105Y691707D01*
X909375Y690576D01*
X906477Y690000D01*
X905000D01*
X872500Y690000D01*
X871520Y689952D01*
X869597Y689570D01*
X867786Y688820D01*
X866156Y687730D01*
X864770Y686344D01*
X863680Y684714D01*
X862931Y682903D01*
X862598Y681230D01*
X862548Y680980D01*
X862500Y680000D01*
X862500D01*
X862500Y680000D01*
X862500Y662023D01*
X862465Y661572D01*
X862480Y660822D01*
X862403Y660076D01*
X862403Y660069D01*
X862407Y660031D01*
X862403Y659993D01*
X862403Y639261D01*
X862500Y638278D01*
X862500Y582863D01*
X862538Y581223D01*
X862841Y577958D01*
X863445Y574736D01*
X864345Y571583D01*
X865533Y568527D01*
X866999Y565594D01*
X868730Y562809D01*
X870712Y560196D01*
X871791Y558962D01*
X871791Y558962D01*
X871791Y558962D01*
X878771Y551342D01*
X880214Y549922D01*
X883500Y547566D01*
X887201Y545937D01*
X891158Y545105D01*
X893180Y545000D01*
X962322Y545000D01*
X964731Y545118D01*
X969455Y546058D01*
X973905Y547901D01*
X977910Y550577D01*
X979696Y552196D01*
X979697Y552197D01*
X980622Y553122D01*
X982645Y554783D01*
X984822Y556237D01*
X987131Y557471D01*
X989549Y558473D01*
X992054Y559233D01*
X994621Y559743D01*
X997226Y560000D01*
X998535Y560000D01*
X998536Y560000D01*
X1014788Y560000D01*
X1015770Y559903D01*
X1015771Y559903D01*
X1015772Y559903D01*
X1017495Y559903D01*
X1017499Y559904D01*
X1017503Y559903D01*
X1046718Y559903D01*
X1048646Y559520D01*
X1050921Y558577D01*
X1052969Y557210D01*
X1054710Y555468D01*
X1056077Y553421D01*
X1057020Y551146D01*
X1057500Y548731D01*
X1057499Y547500D01*
X1057499Y547500D01*
X1057500Y547499D01*
X1057500Y527500D01*
X1057500Y526269D01*
X1057020Y523853D01*
X1056078Y521578D01*
X1054710Y519531D01*
X1052969Y517790D01*
X1050921Y516422D01*
X1048646Y515480D01*
X1046231Y515000D01*
X1045000Y515000D01*
X1000001D01*
X999021Y514952D01*
X997098Y514570D01*
X995286Y513819D01*
X995182Y513750D01*
X995000D01*
Y513628D01*
X993656Y512730D01*
X992270Y511343D01*
X991180Y509713D01*
X990430Y507901D01*
X990097Y506228D01*
X990048Y505979D01*
X990000Y504999D01*
X990000D01*
Y504998D01*
X990000Y503728D01*
X990000Y435000D01*
X990000Y433276D01*
X989328Y429895D01*
X988009Y426710D01*
X986094Y423844D01*
X983656Y421406D01*
X980789Y419491D01*
X977604Y418172D01*
X974223Y417500D01*
X972500Y417500D01*
X972500Y417500D01*
X972499Y417500D01*
X927500Y417500D01*
X925784Y417416D01*
X922420Y416747D01*
X919250Y415434D01*
X916398Y413528D01*
X913972Y411102D01*
X912066Y408250D01*
X910753Y405080D01*
X910084Y401715D01*
X910000Y400000D01*
X910000D01*
X910000Y400000D01*
X910000Y155000D01*
X910084Y153285D01*
X910753Y149920D01*
X912066Y146751D01*
X913972Y143898D01*
X916398Y141472D01*
X919250Y139566D01*
X922420Y138254D01*
X925785Y137584D01*
X927500Y137500D01*
X927500Y137500D01*
X1132500Y137500D01*
X1132500Y280000D01*
X1132500Y281724D01*
X1133172Y285105D01*
X1134492Y288289D01*
X1136407Y291155D01*
X1138844Y293593D01*
X1141711Y295508D01*
X1144895Y296827D01*
X1148276Y297500D01*
X1150000Y297500D01*
X1150000Y297500D01*
X1244995Y297500D01*
X1246719Y297500D01*
X1250101Y296827D01*
X1253287Y295508D01*
X1256154Y293592D01*
X1258592Y291154D01*
X1260508Y288286D01*
X1261827Y285101D01*
X1262500Y281719D01*
X1262500Y279995D01*
X1262500Y279995D01*
X1262500Y279995D01*
X1262500Y137500D01*
X1262500Y92500D01*
X1262500Y90776D01*
X1261828Y87395D01*
X1260508Y84211D01*
X1258593Y81344D01*
X1256156Y78907D01*
X1253289Y76992D01*
X1250105Y75672D01*
X1246723Y75000D01*
X1245000Y75000D01*
X795000Y75000D01*
X793276Y75000D01*
X789895Y75672D01*
X786711Y76992D01*
X783844Y78907D01*
X781407Y81344D01*
X779492Y84211D01*
X778172Y87395D01*
X777500Y90776D01*
X777500Y92500D01*
X777500Y92500D01*
X777500Y490000D01*
X777500Y1080000D01*
Y1081970D01*
X778269Y1085834D01*
X779776Y1089473D01*
X781965Y1092749D01*
X784751Y1095535D01*
X788026Y1097723D01*
X791666Y1099231D01*
X795530Y1099999D01*
X797499Y1099999D01*
X797500Y1100000D01*
X962929Y1100000D01*
X964657Y1100000D01*
X968097Y1099662D01*
D02*
G37*
G36*
X1100000Y1107500D02*
X1100000Y1107500D01*
X1100000D01*
X1101170Y1107414D01*
X1102188Y1107212D01*
X1103553Y1106647D01*
X1104781Y1105826D01*
X1105826Y1104781D01*
X1106647Y1103552D01*
X1107212Y1102188D01*
X1107501Y1100738D01*
X1107500Y1100000D01*
X1107500Y1095427D01*
X1107545Y1093600D01*
X1107904Y1089962D01*
X1108617Y1086378D01*
X1109678Y1082880D01*
X1111076Y1079503D01*
X1112799Y1076280D01*
X1114830Y1073241D01*
X1117149Y1070415D01*
X1118409Y1069091D01*
X1149393Y1038107D01*
Y1038107D01*
X1151287Y1036303D01*
X1155329Y1032986D01*
X1159677Y1030081D01*
X1164289Y1027616D01*
X1169120Y1025614D01*
X1174124Y1024097D01*
X1179253Y1023076D01*
X1184456Y1022564D01*
X1187071Y1022500D01*
X1390000Y1022500D01*
X1390000Y1022500D01*
X1390000Y1022500D01*
X1391477Y1022500D01*
X1394375Y1021924D01*
X1397106Y1020793D01*
X1399562Y1019152D01*
X1401652Y1017062D01*
X1403293Y1014605D01*
X1404424Y1011876D01*
X1405000Y1008977D01*
X1405000Y1007500D01*
X1405000Y912500D01*
X1405000Y912500D01*
Y911761D01*
X1404712Y910312D01*
X1404146Y908947D01*
X1403325Y907719D01*
X1402281Y906674D01*
X1401052Y905854D01*
X1399688Y905288D01*
X1398239Y905000D01*
X1397500D01*
Y905000D01*
X1396520Y904952D01*
X1394597Y904569D01*
X1392786Y903819D01*
X1391156Y902730D01*
X1389770Y901344D01*
X1388681Y899714D01*
X1387931Y897903D01*
X1387548Y895980D01*
X1387500Y895000D01*
X1387500Y767500D01*
X1387500Y767500D01*
Y766761D01*
X1387212Y765312D01*
X1386646Y763948D01*
X1385826Y762719D01*
X1384781Y761674D01*
X1383553Y760854D01*
X1382188Y760288D01*
X1380739Y760000D01*
X1350000Y760000D01*
X1349261Y760000D01*
X1347812Y760288D01*
X1346447Y760853D01*
X1345219Y761674D01*
X1344174Y762719D01*
X1343353Y763947D01*
X1342788Y765312D01*
X1342500Y766761D01*
X1342500Y767500D01*
X1342500Y892500D01*
X1342500D01*
X1342500Y892500D01*
X1342440Y893725D01*
X1341962Y896129D01*
X1341024Y898393D01*
X1339663Y900430D01*
X1337930Y902163D01*
X1335893Y903524D01*
X1333629Y904462D01*
X1331225Y904940D01*
X1330000Y905000D01*
X1145000Y905000D01*
X1145000Y904999D01*
X1144020Y904951D01*
X1142097Y904569D01*
X1140286Y903819D01*
X1138656Y902730D01*
X1137270Y901344D01*
X1136181Y899714D01*
X1135430Y897903D01*
X1135048Y895980D01*
X1135000Y895000D01*
X1135000D01*
X1135000Y894015D01*
X1134616Y892083D01*
X1133862Y890263D01*
X1132767Y888625D01*
X1131375Y887232D01*
X1129737Y886138D01*
X1127917Y885384D01*
X1125985Y885000D01*
X1125000Y885000D01*
X1115000Y885000D01*
X1115000Y885000D01*
X1113775Y884940D01*
X1111371Y884462D01*
X1109108Y883524D01*
X1107070Y882162D01*
X1105337Y880430D01*
X1103976Y878392D01*
X1103038Y876128D01*
X1102560Y873725D01*
X1102500Y872500D01*
X1102500Y762500D01*
X1102500Y762500D01*
X1102500Y761761D01*
X1102212Y760312D01*
X1101646Y758947D01*
X1100826Y757719D01*
X1099781Y756674D01*
X1098552Y755854D01*
X1097188Y755288D01*
X1095739Y755000D01*
X1095000Y755000D01*
X1070000Y755000D01*
X1069296Y755000D01*
X1067915Y755275D01*
X1066614Y755813D01*
X1065443Y756596D01*
X1064447Y757591D01*
X1063665Y758762D01*
X1063126Y760063D01*
X1062851Y761444D01*
X1062851Y762149D01*
X1062851Y877149D01*
X1062851D01*
X1062851Y877149D01*
X1062851Y877149D01*
X1062796Y878083D01*
X1062739Y878317D01*
X1062354Y879899D01*
X1061496Y881559D01*
X1060270Y882969D01*
X1059540Y883555D01*
X1058487Y884300D01*
X1056794Y886247D01*
X1055610Y888539D01*
X1055000Y891046D01*
X1055000Y892336D01*
X1055000Y897500D01*
X1055000D01*
X1055000Y897500D01*
X1055000Y897500D01*
X1054964Y898235D01*
X1054878Y898668D01*
X1054677Y899677D01*
X1054115Y901035D01*
X1053298Y902258D01*
X1052258Y903298D01*
X1051036Y904114D01*
X1049677Y904677D01*
X1048235Y904964D01*
X1047500Y905000D01*
X1002500Y905000D01*
X1002500Y905000D01*
X1001765Y904964D01*
X1000323Y904677D01*
X998964Y904114D01*
X998419Y903750D01*
X995000D01*
Y867500D01*
X995000Y867500D01*
Y866515D01*
X994616Y864583D01*
X993862Y862763D01*
X992767Y861125D01*
X991375Y859733D01*
X989737Y858638D01*
X987917Y857884D01*
X985985Y857500D01*
X977500Y857500D01*
X952500Y857500D01*
X952500Y857500D01*
X951515Y857500D01*
X949583Y857884D01*
X947763Y858638D01*
X946125Y859732D01*
X944732Y861125D01*
X943638Y862763D01*
X942884Y864583D01*
X942500Y866515D01*
X942500Y867500D01*
X942500Y910000D01*
X942500Y925000D01*
X942500Y925000D01*
X942552Y926248D01*
X942884Y927917D01*
X943638Y929737D01*
X944732Y931375D01*
X946125Y932767D01*
X947763Y933862D01*
X949583Y934616D01*
X951515Y935000D01*
X952500Y935000D01*
X959233Y935000D01*
X960428Y935000D01*
X960428Y935000D01*
X960428Y935000D01*
X961858Y935035D01*
X964705Y935315D01*
X967510Y935873D01*
X970246Y936703D01*
X972889Y937798D01*
X975411Y939146D01*
X975941Y939500D01*
X976150D01*
Y939640D01*
X977789Y940735D01*
X980000Y942549D01*
X981036Y943536D01*
X985178Y947678D01*
X986919Y949419D01*
X991013Y952155D01*
X995563Y954039D01*
X1000393Y955000D01*
X1002855Y955000D01*
X1053806Y955000D01*
X1055000Y955000D01*
X1055000Y955000D01*
X1055000Y955000D01*
X1056470Y955072D01*
X1059354Y955646D01*
X1062071Y956771D01*
X1064516Y958404D01*
X1066596Y960484D01*
X1068229Y962929D01*
X1069354Y965646D01*
X1069928Y968530D01*
X1070000Y970000D01*
X1070000Y1021893D01*
X1070000D01*
X1070000Y1021893D01*
X1069940Y1024334D01*
X1069462Y1029193D01*
X1068510Y1033981D01*
X1067093Y1038653D01*
X1065224Y1043164D01*
X1062923Y1047469D01*
X1060210Y1051529D01*
X1057113Y1055303D01*
X1055429Y1057071D01*
X1047500Y1065000D01*
X1038536Y1073964D01*
X1038536D01*
X1037100Y1075399D01*
X1034845Y1078774D01*
X1033292Y1082525D01*
X1032500Y1086506D01*
X1032500Y1088536D01*
X1032500Y1100000D01*
X1032500Y1100000D01*
X1032597Y1101229D01*
X1032788Y1102188D01*
X1033353Y1103553D01*
X1034174Y1104781D01*
X1035219Y1105826D01*
X1036447Y1106646D01*
X1037812Y1107212D01*
X1039261Y1107500D01*
X1040000Y1107500D01*
X1100000Y1107500D01*
X1100000Y1107500D01*
D02*
G37*
G36*
X510000Y1102500D02*
X510985Y1102500D01*
X512917Y1102116D01*
X514737Y1101362D01*
X516375Y1100268D01*
X517768Y1098875D01*
X518862Y1097237D01*
X519616Y1095417D01*
X519959Y1093688D01*
X520000Y1092504D01*
Y1092500D01*
X520000Y1092500D01*
X520000Y1092500D01*
X520000Y1032500D01*
Y980000D01*
X520072Y978530D01*
X520646Y975646D01*
X521771Y972929D01*
X523405Y970484D01*
X525484Y968405D01*
X527929Y966771D01*
X530645Y965646D01*
X533530Y965072D01*
X535000Y965000D01*
X582500Y965000D01*
X582988Y965048D01*
X583889Y965421D01*
X584579Y966111D01*
X584952Y967012D01*
X585000Y967500D01*
X585000Y967500D01*
X585000Y968495D01*
X585761Y970332D01*
X587168Y971739D01*
X589005Y972500D01*
X590000Y972500D01*
X590000Y972500D01*
X625003Y972500D01*
X625998Y972500D01*
X627836Y971738D01*
X629242Y970331D01*
X629917Y968695D01*
X630000Y967499D01*
Y967497D01*
X630000Y967497D01*
X630000Y967497D01*
X630000Y945000D01*
X630001Y944005D01*
X629240Y942166D01*
X627832Y940759D01*
X626228Y940096D01*
X624998Y940000D01*
X623728Y940000D01*
X605000Y940000D01*
X597496Y940000D01*
X596516Y939952D01*
X594593Y939571D01*
X592781Y938821D01*
X591151Y937732D01*
X589765Y936346D01*
X588677Y934715D01*
X587928Y932903D01*
X587587Y931182D01*
X587547Y930980D01*
X587500Y930001D01*
X587500Y930000D01*
X587500Y930000D01*
X587500Y930000D01*
X587500Y928769D01*
X587020Y926353D01*
X586078Y924078D01*
X584710Y922031D01*
X582969Y920290D01*
X580921Y918922D01*
X578646Y917980D01*
X576231Y917499D01*
X575000Y917500D01*
X515000Y917499D01*
X514020Y917452D01*
X512097Y917070D01*
X510285Y916320D01*
X508655Y915231D01*
X507269Y913844D01*
X506180Y912214D01*
X505430Y910403D01*
X505098Y908730D01*
X505048Y908480D01*
X505000Y907500D01*
X505000Y907500D01*
X505000Y907500D01*
X505000Y777500D01*
X505000Y776515D01*
X504616Y774583D01*
X503863Y772763D01*
X502768Y771124D01*
X501375Y769731D01*
X499737Y768637D01*
X497917Y767884D01*
X496248Y767552D01*
X495000Y767500D01*
Y767500D01*
X475000Y767500D01*
X474015Y767500D01*
X472083Y767884D01*
X470263Y768638D01*
X468625Y769732D01*
X467232Y771125D01*
X466138Y772763D01*
X465384Y774583D01*
X465000Y776515D01*
X465000Y777500D01*
X465000Y902500D01*
X235000D01*
X233530Y902428D01*
X230646Y901854D01*
X227929Y900729D01*
X225484Y899096D01*
X223404Y897016D01*
X221771Y894571D01*
X220646Y891854D01*
X220072Y888970D01*
X220000Y887500D01*
X220000Y887500D01*
X220000Y887500D01*
X220000Y792500D01*
X220000Y791515D01*
X219616Y789583D01*
X218862Y787763D01*
X217768Y786125D01*
X216375Y784732D01*
X214737Y783638D01*
X212917Y782884D01*
X211248Y782552D01*
X210000Y782500D01*
Y782500D01*
X185000Y782500D01*
X184015Y782500D01*
X182083Y782884D01*
X180263Y783638D01*
X178625Y784732D01*
X177232Y786125D01*
X176138Y787763D01*
X175384Y789583D01*
X175000Y791515D01*
X175000Y792500D01*
Y892500D01*
X174952Y893480D01*
X174569Y895403D01*
X173819Y897214D01*
X172730Y898844D01*
X171344Y900230D01*
X169714Y901319D01*
X167903Y902069D01*
X166170Y902414D01*
X165980Y902452D01*
X165005Y902500D01*
X165000Y902500D01*
X165000Y902500D01*
X165000Y902500D01*
X164998D01*
X163829Y902573D01*
X162168Y903261D01*
X160761Y904667D01*
X160000Y906505D01*
Y907499D01*
X160000Y997500D01*
X160000Y998977D01*
X160576Y1001875D01*
X161707Y1004605D01*
X163349Y1007062D01*
X165438Y1009151D01*
X167895Y1010793D01*
X170625Y1011924D01*
X173523Y1012500D01*
X175000Y1012500D01*
Y1012500D01*
X420000Y1012500D01*
X421470Y1012572D01*
X424354Y1013146D01*
X427071Y1014271D01*
X429516Y1015905D01*
X431595Y1017984D01*
X433228Y1020429D01*
X434354Y1023146D01*
X434928Y1026030D01*
X435000Y1027500D01*
X435000Y1027500D01*
X435000Y1037500D01*
X435000Y1047500D01*
X435000Y1092500D01*
X435000Y1093485D01*
X435384Y1095417D01*
X436138Y1097237D01*
X437232Y1098875D01*
X438625Y1100267D01*
X440263Y1101362D01*
X442083Y1102116D01*
X444015Y1102500D01*
X445000Y1102500D01*
X445000Y1102500D01*
X510000Y1102500D01*
D02*
G37*
G36*
X1106146Y459520D02*
X1108421Y458577D01*
X1110469Y457209D01*
X1112210Y455468D01*
X1113577Y453421D01*
X1114520Y451146D01*
X1115000Y448731D01*
X1115000Y447500D01*
X1115000Y447500D01*
X1115000Y447500D01*
X1115000Y167500D01*
X1115000Y165776D01*
X1114327Y162395D01*
X1113008Y159211D01*
X1111093Y156344D01*
X1108656Y153907D01*
X1105789Y151992D01*
X1102605Y150672D01*
X1099223Y150000D01*
X1097500Y150000D01*
X1097500Y150000D01*
X1097500Y150000D01*
X945000Y150000D01*
X944015Y150000D01*
X942083Y150384D01*
X940263Y151138D01*
X938625Y152233D01*
X937233Y153625D01*
X936138Y155263D01*
X935384Y157083D01*
X935000Y159015D01*
X935000Y160000D01*
Y198485D01*
X935384Y200417D01*
X936138Y202237D01*
X937233Y203875D01*
X938625Y205268D01*
X940263Y206362D01*
X942083Y207116D01*
X944015Y207500D01*
X945000D01*
X945000Y207500D01*
X1037500Y207500D01*
X1039215Y207584D01*
X1042580Y208253D01*
X1045749Y209566D01*
X1048602Y211472D01*
X1051028Y213898D01*
X1052934Y216750D01*
X1054246Y219920D01*
X1054915Y223284D01*
X1055000Y225000D01*
X1055000Y225000D01*
X1055000Y447500D01*
X1055000Y448731D01*
X1055480Y451146D01*
X1056422Y453421D01*
X1057790Y455468D01*
X1059531Y457209D01*
X1061579Y458577D01*
X1063854Y459519D01*
X1066269Y460000D01*
X1067500Y460000D01*
X1067500Y460000D01*
X1102500Y460000D01*
X1103731Y460000D01*
X1106146Y459520D01*
D02*
G37*
G36*
X517500Y357500D02*
X518977D01*
X521875Y356923D01*
X524605Y355793D01*
X527062Y354151D01*
X529151Y352062D01*
X530793Y349605D01*
X531923Y346875D01*
X532500Y343977D01*
Y342500D01*
X532500Y225000D01*
X532500D01*
X532572Y223530D01*
X533146Y220646D01*
X534271Y217929D01*
X535905Y215484D01*
X537984Y213405D01*
X540429Y211771D01*
X543146Y210646D01*
X546030Y210072D01*
X547500Y210000D01*
X630000Y210000D01*
X630000Y210000D01*
X630000Y210000D01*
X631477Y210000D01*
X634375Y209423D01*
X637105Y208293D01*
X639562Y206651D01*
X641651Y204562D01*
X643293Y202105D01*
X644424Y199375D01*
X645000Y196477D01*
Y195000D01*
X645000Y160000D01*
X645000Y160000D01*
X645000Y158769D01*
X644520Y156354D01*
X643577Y154079D01*
X642209Y152032D01*
X640469Y150291D01*
X638421Y148923D01*
X636147Y147980D01*
X633732Y147500D01*
X632500Y147500D01*
X475000Y147500D01*
X473523Y147500D01*
X470625Y148076D01*
X467895Y149207D01*
X465438Y150849D01*
X463349Y152938D01*
X461707Y155395D01*
X460576Y158125D01*
X460000Y161022D01*
Y162500D01*
X460000Y342500D01*
X460000Y342500D01*
X460000Y342500D01*
X460000Y343977D01*
X460576Y346875D01*
X461707Y349605D01*
X463349Y352062D01*
X465438Y354151D01*
X467895Y355793D01*
X470625Y356923D01*
X473523Y357500D01*
X475000Y357500D01*
X517500Y357500D01*
Y357500D01*
D02*
G37*
G36*
X630000Y507500D02*
X631231Y507500D01*
X633646Y507019D01*
X635921Y506077D01*
X637968Y504709D01*
X639709Y502968D01*
X641077Y500921D01*
X642020Y498646D01*
X642500Y496231D01*
X642500Y495000D01*
X642500D01*
X642500Y495000D01*
X642500Y372500D01*
X642500Y371022D01*
X641924Y368125D01*
X640793Y365395D01*
X639151Y362938D01*
X637062Y360849D01*
X634605Y359207D01*
X631875Y358076D01*
X628977Y357500D01*
X627500Y357500D01*
X620000Y357500D01*
X618523Y357500D01*
X615625Y358076D01*
X612895Y359207D01*
X610438Y360849D01*
X608349Y362938D01*
X606707Y365395D01*
X605576Y368125D01*
X605000Y371022D01*
X605000Y372500D01*
X605000Y497500D01*
Y498485D01*
X605384Y500417D01*
X606138Y502237D01*
X607233Y503875D01*
X608625Y505267D01*
X610263Y506362D01*
X612083Y507116D01*
X614015Y507500D01*
X615000Y507500D01*
X615000Y507500D01*
X630000Y507500D01*
D02*
G37*
G36*
X744377Y916926D02*
X747108Y915796D01*
X749566Y914155D01*
X751655Y912065D01*
X753297Y909607D01*
X754426Y906876D01*
X755001Y903977D01*
X755000Y902499D01*
X755000D01*
X755000Y902499D01*
X755000Y527500D01*
X755000Y89999D01*
X755001Y88521D01*
X754425Y85623D01*
X753295Y82892D01*
X751653Y80435D01*
X749563Y78345D01*
X747105Y76704D01*
X744374Y75574D01*
X741476Y74999D01*
X739998Y75000D01*
X657500Y75000D01*
X320000Y75000D01*
X318522D01*
X315624Y75577D01*
X312895Y76707D01*
X310438Y78349D01*
X308349Y80438D01*
X306707Y82895D01*
X305576Y85625D01*
X305000Y88523D01*
X305000Y90000D01*
Y340000D01*
Y341477D01*
X305576Y344375D01*
X306707Y347105D01*
X308349Y349562D01*
X310438Y351651D01*
X312895Y353293D01*
X315625Y354423D01*
X318523Y355000D01*
X320000D01*
X320000Y355000D01*
X410039Y355000D01*
X411025Y354903D01*
X411025Y354903D01*
X411026Y354903D01*
X412504Y354903D01*
X419464D01*
X421875Y354423D01*
X424605Y353293D01*
X427062Y351651D01*
X429151Y349562D01*
X430793Y347105D01*
X431923Y344375D01*
X432500Y341477D01*
X432500Y340000D01*
X432500D01*
X432500Y340000D01*
Y150000D01*
X432572Y148530D01*
X433146Y145646D01*
X434271Y142929D01*
X435905Y140484D01*
X437984Y138405D01*
X440429Y136771D01*
X443146Y135646D01*
X446030Y135072D01*
X447500Y135000D01*
X447500Y135000D01*
X642500Y135000D01*
X643970Y135072D01*
X646854Y135646D01*
X649571Y136771D01*
X652016Y138405D01*
X654096Y140484D01*
X655729Y142929D01*
X656854Y145646D01*
X657428Y148530D01*
X657500Y150000D01*
X657500Y150000D01*
X657500Y512500D01*
X657429Y513971D01*
X656856Y516855D01*
X655731Y519573D01*
X654097Y522018D01*
X652018Y524098D01*
X649572Y525731D01*
X646855Y526856D01*
X643970Y527428D01*
X642500Y527500D01*
X642500Y527500D01*
X642500Y527500D01*
X574965Y527500D01*
X573969Y527598D01*
X573967Y527598D01*
X573966Y527598D01*
X572521Y527597D01*
X572520Y527597D01*
X572520Y527597D01*
X572500Y527597D01*
X572499Y527597D01*
X540536Y527597D01*
X538125Y528076D01*
X535395Y529207D01*
X532938Y530848D01*
X530849Y532937D01*
X529207Y535393D01*
X528077Y538123D01*
X527500Y541021D01*
X527500Y542498D01*
Y560000D01*
X527500Y561477D01*
X528076Y564375D01*
X529207Y567105D01*
X530848Y569561D01*
X532937Y571650D01*
X535394Y573292D01*
X538124Y574422D01*
X541021Y574999D01*
X542499Y574999D01*
X542500Y575000D01*
X577500Y575000D01*
X578970Y575072D01*
X581854Y575646D01*
X582105Y575750D01*
X583000D01*
Y576120D01*
X584571Y576771D01*
X587015Y578405D01*
X589095Y580484D01*
X590728Y582929D01*
X591853Y585645D01*
X592427Y588529D01*
X592499Y589999D01*
X592500Y590000D01*
X592500Y645000D01*
X592500Y646477D01*
X593076Y649375D01*
X594207Y652105D01*
X595848Y654561D01*
X597938Y656650D01*
X600394Y658292D01*
X603124Y659423D01*
X606022Y659999D01*
X607499Y659999D01*
X607500Y660000D01*
X642500Y660000D01*
X643970Y660072D01*
X646854Y660646D01*
X649570Y661771D01*
X652015Y663405D01*
X654094Y665484D01*
X655728Y667929D01*
X656853Y670645D01*
X657427Y673529D01*
X657499Y674999D01*
X657500Y675000D01*
X657500Y805000D01*
X657429Y806471D01*
X656857Y809356D01*
X655732Y812073D01*
X654099Y814519D01*
X652019Y816599D01*
X649573Y818232D01*
X646855Y819356D01*
X643970Y819928D01*
X642500Y819999D01*
X642500Y820000D01*
X642500Y820000D01*
X537500Y820000D01*
X536269Y820000D01*
X533854Y820481D01*
X531579Y821423D01*
X529532Y822791D01*
X527790Y824532D01*
X526422Y826579D01*
X525480Y828854D01*
X525097Y830781D01*
X525097Y884219D01*
X525480Y886146D01*
X526422Y888421D01*
X527790Y890468D01*
X529532Y892209D01*
X531579Y893577D01*
X533854Y894519D01*
X536269Y895000D01*
X537500D01*
X537500Y895000D01*
X597502Y895000D01*
X598727Y895060D01*
X601130Y895538D01*
X603394Y896475D01*
X605431Y897837D01*
X607163Y899569D01*
X608524Y901606D01*
X609462Y903870D01*
X609940Y906273D01*
X610000Y907498D01*
X610000Y907498D01*
X610000Y908483D01*
X610384Y910415D01*
X611138Y912235D01*
X612233Y913874D01*
X613625Y915267D01*
X615264Y916361D01*
X617084Y917115D01*
X619016Y917500D01*
X620001Y917499D01*
X620001Y917500D01*
X740001Y917500D01*
X741478Y917501D01*
X744377Y916926D01*
D02*
G37*
G36*
X968334Y611732D02*
X971974Y610224D01*
X975249Y608035D01*
X978035Y605250D01*
X980224Y601974D01*
X981732Y598334D01*
X982500Y594470D01*
X982500Y592500D01*
X982500Y580000D01*
X982500Y580000D01*
Y578030D01*
X981731Y574166D01*
X980224Y570526D01*
X978035Y567251D01*
X975249Y564465D01*
X971973Y562276D01*
X968334Y560769D01*
X964470Y560000D01*
X905000D01*
X903030Y560000D01*
X899166Y560769D01*
X895526Y562276D01*
X892251Y564465D01*
X889465Y567251D01*
X887276Y570527D01*
X885769Y574166D01*
X885000Y578030D01*
X885000Y580000D01*
Y592500D01*
X885000Y594470D01*
X885768Y598334D01*
X887276Y601973D01*
X889464Y605249D01*
X892250Y608035D01*
X895526Y610224D01*
X899166Y611731D01*
X903030Y612500D01*
X905000Y612500D01*
X962500Y612500D01*
X962500Y612500D01*
X962500Y612500D01*
X964470Y612500D01*
X968334Y611732D01*
D02*
G37*
G36*
X1437500Y1827500D02*
X1438977Y1827500D01*
X1441875Y1826924D01*
X1444605Y1825793D01*
X1447062Y1824151D01*
X1449151Y1822062D01*
X1450793Y1819605D01*
X1451924Y1816875D01*
X1452500Y1813977D01*
X1452500Y1812500D01*
X1452500Y1812500D01*
X1452500Y1812500D01*
X1452500Y1690000D01*
X1452500Y1688523D01*
X1451924Y1685625D01*
X1450793Y1682895D01*
X1449151Y1680438D01*
X1447062Y1678349D01*
X1444605Y1676707D01*
X1441875Y1675576D01*
X1438977Y1675000D01*
X1437500Y1675000D01*
X1437500Y1675000D01*
X1437500Y1675000D01*
X1340000Y1675000D01*
X1338523Y1675000D01*
X1335625Y1675576D01*
X1332895Y1676707D01*
X1330438Y1678349D01*
X1328349Y1680438D01*
X1326707Y1682895D01*
X1325576Y1685625D01*
X1325000Y1688522D01*
Y1690000D01*
X1325000Y1690000D01*
X1325000Y1812500D01*
Y1813977D01*
X1325576Y1816875D01*
X1326707Y1819605D01*
X1328349Y1822062D01*
X1330438Y1824151D01*
X1332895Y1825793D01*
X1335625Y1826923D01*
X1338522Y1827500D01*
X1340000D01*
X1340000Y1827500D01*
X1437500Y1827500D01*
D02*
G37*
G36*
X1200000Y1707500D02*
X1292500D01*
X1292500Y1707500D01*
X1292500Y1707500D01*
X1293977Y1707500D01*
X1296875Y1706924D01*
X1299605Y1705793D01*
X1302062Y1704151D01*
X1304151Y1702062D01*
X1305793Y1699605D01*
X1306924Y1696875D01*
X1307500Y1693977D01*
X1307500Y1692500D01*
X1307500Y1597500D01*
X1307500D01*
X1307500Y1596023D01*
X1306924Y1593125D01*
X1305793Y1590395D01*
X1304151Y1587938D01*
X1302062Y1585849D01*
X1299605Y1584207D01*
X1296875Y1583076D01*
X1293977Y1582500D01*
X1292500Y1582500D01*
X1200000Y1582500D01*
X1198522D01*
X1195625Y1583076D01*
X1192895Y1584207D01*
X1190438Y1585849D01*
X1188349Y1587938D01*
X1186707Y1590395D01*
X1185576Y1593125D01*
X1185000Y1596023D01*
Y1597500D01*
X1185000Y1691304D01*
X1185000Y1692500D01*
X1185000Y1692500D01*
X1185000Y1692500D01*
X1185000Y1693977D01*
X1185576Y1696875D01*
X1186707Y1699605D01*
X1188349Y1702062D01*
X1190438Y1704151D01*
X1192895Y1705793D01*
X1195625Y1706924D01*
X1198523Y1707500D01*
X1200000Y1707500D01*
D02*
G37*
G36*
X55000Y1957500D02*
X182500Y1957500D01*
X182500Y1957500D01*
X182500Y1957500D01*
X183977Y1957500D01*
X186875Y1956923D01*
X189605Y1955793D01*
X192062Y1954151D01*
X194151Y1952062D01*
X195793Y1949605D01*
X196924Y1946875D01*
X197500Y1943977D01*
X197500Y1942500D01*
X197500Y1800000D01*
X197500Y1800000D01*
X197500Y1798523D01*
X196924Y1795625D01*
X195793Y1792895D01*
X194151Y1790438D01*
X192062Y1788349D01*
X189605Y1786707D01*
X186875Y1785576D01*
X183977Y1785000D01*
X182500D01*
X55000Y1785000D01*
X55000Y1785000D01*
X53522Y1785000D01*
X50624Y1785576D01*
X47895Y1786707D01*
X45438Y1788349D01*
X43349Y1790438D01*
X41707Y1792895D01*
X40576Y1795625D01*
X40000Y1798523D01*
Y1800000D01*
X40000Y1941304D01*
X40000Y1942500D01*
X40000Y1942500D01*
X40000Y1942500D01*
X40000Y1943977D01*
X40576Y1946875D01*
X41707Y1949605D01*
X43349Y1952062D01*
X45438Y1954151D01*
X47895Y1955793D01*
X50624Y1956924D01*
X53523Y1957500D01*
X55000Y1957500D01*
D02*
G37*
G36*
X1010000Y2062500D02*
X1020000Y2062500D01*
X1025000Y2062500D01*
X1314990Y2062500D01*
X1314994Y2062492D01*
X1314994Y2062492D01*
X1316472Y2062493D01*
X1319370Y2061920D01*
X1322101Y2060791D01*
X1324559Y2059151D01*
X1326650Y2057062D01*
X1328293Y2054606D01*
X1329424Y2051876D01*
X1330000Y2048978D01*
X1330000Y2047500D01*
X1330000Y1892500D01*
X1329992Y1892492D01*
Y1891015D01*
X1329416Y1888119D01*
X1328286Y1885391D01*
X1326645Y1882935D01*
X1324557Y1880847D01*
X1322101Y1879207D01*
X1319373Y1878077D01*
X1316477Y1877500D01*
X1315000D01*
X1175000Y1877500D01*
X1174992Y1877492D01*
X1173522Y1877420D01*
X1170640Y1876846D01*
X1167925Y1875721D01*
X1165481Y1874089D01*
X1163403Y1872011D01*
X1161770Y1869567D01*
X1160646Y1866852D01*
X1160072Y1863969D01*
X1160000Y1862500D01*
X1160000Y1572492D01*
X1160072Y1571022D01*
X1160645Y1568139D01*
X1161771Y1565423D01*
X1163404Y1562978D01*
X1165484Y1560900D01*
X1167929Y1559267D01*
X1170646Y1558143D01*
X1173530Y1557571D01*
X1175000Y1557500D01*
X1326224Y1557500D01*
X1327494Y1557500D01*
X1327500Y1557500D01*
Y1557500D01*
X1328720Y1557558D01*
X1331125Y1558034D01*
X1333391Y1558970D01*
X1335430Y1560332D01*
X1337164Y1562065D01*
X1338526Y1564103D01*
X1339464Y1566369D01*
X1339941Y1568774D01*
X1340000Y1570000D01*
X1340000Y1578783D01*
X1340000Y1579994D01*
X1340000Y1579994D01*
X1340000Y1580000D01*
X1340000Y1580000D01*
X1339998Y1581226D01*
X1340476Y1583643D01*
X1341417Y1585920D01*
X1342785Y1587969D01*
X1344526Y1589711D01*
X1346575Y1591080D01*
X1348851Y1592022D01*
X1351268Y1592501D01*
X1352500Y1592500D01*
X1437490Y1592500D01*
X1437494Y1592492D01*
X1437494Y1592492D01*
X1438972Y1592493D01*
X1441870Y1591920D01*
X1444601Y1590791D01*
X1447059Y1589151D01*
X1449150Y1587062D01*
X1450792Y1584606D01*
X1451924Y1581876D01*
X1452500Y1578977D01*
X1452500Y1577500D01*
X1452500Y1557500D01*
X1452500Y1405000D01*
X1452492Y1404992D01*
Y1403515D01*
X1451915Y1400619D01*
X1450785Y1397891D01*
X1449145Y1395435D01*
X1447056Y1393347D01*
X1444601Y1391706D01*
X1441873Y1390576D01*
X1438976Y1390000D01*
X1437500D01*
X1315000Y1390000D01*
X1314992Y1389992D01*
X1313522Y1389920D01*
X1310640Y1389346D01*
X1307925Y1388222D01*
X1305481Y1386589D01*
X1303403Y1384511D01*
X1301770Y1382067D01*
X1300645Y1379352D01*
X1300072Y1376469D01*
X1300000Y1375000D01*
X1300000Y1219992D01*
X1300096Y1218032D01*
X1300861Y1214187D01*
X1302361Y1210565D01*
X1304540Y1207306D01*
X1307312Y1204535D01*
X1310572Y1202357D01*
X1314195Y1200859D01*
X1318040Y1200095D01*
X1320000Y1200000D01*
X1544990Y1200000D01*
X1544994Y1199992D01*
X1544994Y1199992D01*
X1546471Y1199994D01*
X1549370Y1199420D01*
X1552101Y1198291D01*
X1554559Y1196651D01*
X1556650Y1194562D01*
X1558292Y1192105D01*
X1559424Y1189376D01*
X1560000Y1186477D01*
X1560000Y1185000D01*
X1560000Y532500D01*
X1559992Y532492D01*
Y530769D01*
X1559320Y527390D01*
X1558001Y524206D01*
X1556087Y521342D01*
X1553650Y518905D01*
X1550785Y516991D01*
X1547602Y515672D01*
X1544223Y515000D01*
X1542500D01*
X1240000Y515000D01*
X1239992Y514992D01*
X1238767Y514932D01*
X1236366Y514454D01*
X1234103Y513517D01*
X1232067Y512156D01*
X1230336Y510425D01*
X1228975Y508389D01*
X1228038Y506126D01*
X1227560Y503725D01*
X1227500Y502500D01*
X1227501Y405000D01*
X1227492Y404992D01*
X1227492Y403762D01*
X1227012Y401348D01*
X1226071Y399075D01*
X1224704Y397029D01*
X1222963Y395289D01*
X1220917Y393922D01*
X1218644Y392980D01*
X1216230Y392500D01*
X1215000Y392500D01*
X1147500Y392500D01*
X1147493Y392500D01*
X1146754Y392500D01*
X1145306Y392788D01*
X1143941Y393354D01*
X1142714Y394174D01*
X1141670Y395219D01*
X1140850Y396448D01*
X1140286Y397813D01*
X1139999Y399262D01*
X1140000Y400000D01*
X1140000Y446223D01*
X1140000Y447493D01*
X1140040Y448007D01*
X1140097Y448730D01*
X1140285Y449684D01*
X1140849Y451050D01*
X1141669Y452281D01*
X1142715Y453327D01*
X1143944Y454148D01*
X1145311Y454714D01*
X1146761Y455001D01*
X1147500Y455000D01*
X1161242Y455000D01*
X1161243Y455000D01*
X1162501Y455000D01*
Y455001D01*
X1163965Y455071D01*
X1166851Y455643D01*
X1169569Y456767D01*
X1172016Y458400D01*
X1174096Y460480D01*
X1175731Y462926D01*
X1176856Y465644D01*
X1177429Y468529D01*
X1177500Y470000D01*
X1177500Y532500D01*
X1177500Y532500D01*
X1177491Y532504D01*
X1177421Y533964D01*
X1176849Y536849D01*
X1175726Y539566D01*
X1174094Y542013D01*
X1172015Y544093D01*
X1169571Y545728D01*
X1166854Y546854D01*
X1163970Y547428D01*
X1162500Y547500D01*
X1095000Y547500D01*
X1093558Y547500D01*
X1090709Y547913D01*
X1087949Y548729D01*
X1085334Y549932D01*
X1082918Y551497D01*
X1080751Y553391D01*
X1078878Y555577D01*
X1077337Y558008D01*
X1076749Y559321D01*
X1076749D01*
X1076736Y559324D01*
X1076189Y560523D01*
X1075015Y562907D01*
X1073749Y565242D01*
X1072391Y567526D01*
X1071679Y568647D01*
X1071679D01*
X1071668Y568649D01*
X1070793Y569915D01*
X1068804Y572286D01*
X1066535Y574390D01*
X1064023Y576196D01*
X1061305Y577676D01*
X1058424Y578806D01*
X1055425Y579568D01*
X1052355Y579952D01*
X1050807Y580000D01*
X1017503Y580000D01*
X1017495Y580000D01*
X1015771Y580000D01*
X1012390Y580673D01*
X1009205Y581992D01*
X1006339Y583908D01*
X1003903Y586346D01*
X1001988Y589213D01*
X1000670Y592398D01*
X999999Y595780D01*
X1000000Y597503D01*
Y619996D01*
X1000000Y619996D01*
X999991Y620000D01*
X999932Y621215D01*
X999457Y623620D01*
X998520Y625886D01*
X997160Y627926D01*
X995427Y629660D01*
X993390Y631023D01*
X991125Y631962D01*
X988720Y632441D01*
X987495Y632501D01*
X890001Y632499D01*
X889262Y632499D01*
X887813Y632787D01*
X886448Y633353D01*
X885219Y634174D01*
X884175Y635218D01*
X883354Y636447D01*
X882788Y637812D01*
X882500Y639261D01*
X882500Y659993D01*
X882500Y660000D01*
X882597Y661230D01*
X882785Y662183D01*
X883349Y663550D01*
X884169Y664780D01*
X885214Y665826D01*
X886444Y666648D01*
X887810Y667213D01*
X889261Y667501D01*
X890000Y667500D01*
X1041241Y667500D01*
X1041242Y667500D01*
X1042499Y667500D01*
Y667501D01*
X1044454Y667595D01*
X1048301Y668358D01*
X1051925Y669857D01*
X1055187Y672035D01*
X1057961Y674808D01*
X1060140Y678069D01*
X1061640Y681693D01*
X1062404Y685540D01*
X1062500Y687501D01*
X1062500Y724993D01*
X1062500D01*
X1062500Y725000D01*
X1062596Y726229D01*
X1062785Y727184D01*
X1063349Y728550D01*
X1064169Y729781D01*
X1065214Y730827D01*
X1066444Y731648D01*
X1067810Y732214D01*
X1069261Y732501D01*
X1070000Y732500D01*
X1094989D01*
X1094994Y732491D01*
X1094994Y732491D01*
X1095110Y732491D01*
X1096181Y732404D01*
X1097182Y732207D01*
X1098548Y731644D01*
X1099778Y730824D01*
X1100823Y729781D01*
X1101645Y728553D01*
X1102211Y727188D01*
X1102500Y725739D01*
X1102500Y725000D01*
Y687500D01*
X1102602Y684393D01*
X1103413Y678233D01*
X1105021Y672232D01*
X1107398Y666491D01*
X1110505Y661110D01*
X1114287Y656181D01*
X1118681Y651787D01*
X1123610Y648005D01*
X1128991Y644899D01*
X1134732Y642521D01*
X1137369Y641814D01*
X1139265Y641239D01*
X1139662Y641200D01*
X1140733Y640913D01*
X1146893Y640102D01*
X1150000Y640000D01*
X1326222Y640000D01*
X1327492Y640000D01*
X1327499Y640000D01*
Y640000D01*
X1328963Y640071D01*
X1331849Y640642D01*
X1334568Y641766D01*
X1337015Y643399D01*
X1339096Y645479D01*
X1340730Y647925D01*
X1341856Y650644D01*
X1342428Y653530D01*
X1342500Y655001D01*
X1342500Y728723D01*
X1342500Y729993D01*
X1342540Y730506D01*
X1342596Y731230D01*
X1342784Y732183D01*
X1343348Y733550D01*
X1344169Y734781D01*
X1345214Y735827D01*
X1346443Y736648D01*
X1347810Y737214D01*
X1349261Y737501D01*
X1350000Y737500D01*
X1379988Y737500D01*
X1379993Y737490D01*
X1379993Y737490D01*
X1380115Y737490D01*
X1381180Y737404D01*
X1382182Y737206D01*
X1383548Y736643D01*
X1384777Y735824D01*
X1385823Y734780D01*
X1386645Y733552D01*
X1387211Y732188D01*
X1387500Y730739D01*
X1387500Y730000D01*
X1387500Y655000D01*
X1387500Y654991D01*
X1387572Y653521D01*
X1388146Y650638D01*
X1389271Y647922D01*
X1390905Y645478D01*
X1392985Y643399D01*
X1395430Y641767D01*
X1398146Y640643D01*
X1401030Y640071D01*
X1402500Y640000D01*
X1411223Y640000D01*
X1412493Y640000D01*
X1412500Y640000D01*
Y640000D01*
X1413964Y640071D01*
X1416850Y640642D01*
X1419568Y641766D01*
X1422015Y643399D01*
X1424096Y645479D01*
X1425730Y647925D01*
X1426856Y650643D01*
X1427428Y653529D01*
X1427500Y655000D01*
X1427500Y1030000D01*
X1427500Y1030000D01*
X1427489Y1030005D01*
X1427419Y1031463D01*
X1426848Y1034348D01*
X1425726Y1037066D01*
X1424093Y1039512D01*
X1422015Y1041593D01*
X1419571Y1043227D01*
X1416854Y1044353D01*
X1413970Y1044928D01*
X1412500Y1045000D01*
X1207500Y1045000D01*
X1204061D01*
X1197216Y1045674D01*
X1190471Y1047016D01*
X1183889Y1049012D01*
X1177535Y1051644D01*
X1171469Y1054887D01*
X1165751Y1058708D01*
X1160434Y1063071D01*
X1155571Y1067934D01*
X1151208Y1073251D01*
X1147386Y1078969D01*
X1144144Y1085035D01*
X1141512Y1091389D01*
X1139516Y1097971D01*
X1138174Y1104716D01*
X1137500Y1111561D01*
Y1115000D01*
X1137500Y1375000D01*
X1137500Y1375000D01*
X1137489Y1375005D01*
X1137419Y1376463D01*
X1136848Y1379348D01*
X1135725Y1382066D01*
X1134093Y1384512D01*
X1132015Y1386593D01*
X1129571Y1388227D01*
X1126854Y1389354D01*
X1123970Y1389928D01*
X1122500Y1390000D01*
X1024992Y1390000D01*
X1010000Y1390000D01*
X1008523Y1390000D01*
X1005625Y1390576D01*
X1002895Y1391707D01*
X1000438Y1393348D01*
X998349Y1395438D01*
X996707Y1397894D01*
X995576Y1400624D01*
X995000Y1403522D01*
X995000Y1405000D01*
X995000Y1642500D01*
X995000D01*
X995000Y1642500D01*
X994928Y1643970D01*
X994355Y1646855D01*
X993229Y1649571D01*
X991596Y1652016D01*
X989516Y1654096D01*
X987071Y1655729D01*
X984354Y1656855D01*
X981470Y1657428D01*
X980000Y1657500D01*
X555000Y1657500D01*
X555000Y1657500D01*
X553530Y1657428D01*
X550646Y1656854D01*
X547929Y1655729D01*
X545484Y1654095D01*
X543405Y1652016D01*
X541771Y1649571D01*
X540646Y1646854D01*
X540072Y1643970D01*
X540000Y1642500D01*
X540000Y1310000D01*
X540000Y1310000D01*
Y1308523D01*
X539424Y1305625D01*
X538293Y1302895D01*
X536651Y1300438D01*
X534562Y1298349D01*
X532105Y1296707D01*
X529375Y1295576D01*
X526477Y1295000D01*
X525000D01*
X412500Y1295000D01*
X412500Y1295000D01*
X411030Y1294928D01*
X408146Y1294354D01*
X405429Y1293229D01*
X402984Y1291595D01*
X400905Y1289516D01*
X399271Y1287071D01*
X398146Y1284354D01*
X397572Y1281470D01*
X397500Y1280000D01*
X397500Y1059996D01*
X397500Y1050000D01*
X397500Y1050000D01*
Y1048522D01*
X396923Y1045624D01*
X395793Y1042895D01*
X394151Y1040438D01*
X392062Y1038349D01*
X389605Y1036707D01*
X386875Y1035576D01*
X383977Y1035000D01*
X382500Y1035000D01*
X152500Y1035000D01*
X152500Y1035000D01*
X151030Y1034928D01*
X148146Y1034354D01*
X145429Y1033229D01*
X142984Y1031595D01*
X140905Y1029516D01*
X139271Y1027071D01*
X138146Y1024354D01*
X137572Y1021470D01*
X137500Y1020000D01*
X137500Y655000D01*
X137572Y653530D01*
X138145Y650645D01*
X139270Y647928D01*
X140904Y645483D01*
X142983Y643404D01*
X145428Y641770D01*
X148145Y640645D01*
X151030Y640072D01*
X152500Y640000D01*
X160000Y640000D01*
X161471Y640071D01*
X164355Y640644D01*
X167073Y641768D01*
X169519Y643402D01*
X171598Y645481D01*
X173232Y647927D01*
X174356Y650645D01*
X174929Y653530D01*
X175000Y655000D01*
X175000Y750000D01*
X175000Y750000D01*
X175051Y751249D01*
X175382Y752918D01*
X176135Y754739D01*
X177229Y756377D01*
X178623Y757771D01*
X180261Y758865D01*
X182082Y759618D01*
X184015Y760001D01*
X185000Y760000D01*
X210000Y760000D01*
X210000Y760000D01*
X210000Y760000D01*
X210001D01*
X211174Y759963D01*
X212917Y759617D01*
X214738Y758864D01*
X216376Y757769D01*
X217770Y756376D01*
X218864Y754738D01*
X219617Y752917D01*
X220001Y750985D01*
X220000Y750000D01*
X220000Y655000D01*
X220072Y653530D01*
X220645Y650645D01*
X221770Y647928D01*
X223404Y645483D01*
X225483Y643404D01*
X227928Y641770D01*
X230645Y640645D01*
X233530Y640072D01*
X235000Y640000D01*
X450000Y640000D01*
X451470Y640071D01*
X454355Y640643D01*
X457073Y641768D01*
X459519Y643401D01*
X461598Y645481D01*
X463232Y647927D01*
X464356Y650644D01*
X464929Y653529D01*
X465000Y655000D01*
X465000Y732493D01*
X465000Y732493D01*
X465051Y733742D01*
X465382Y735413D01*
X466135Y737235D01*
X467230Y738875D01*
X468625Y740269D01*
X470264Y741364D01*
X472086Y742118D01*
X474021Y742501D01*
X475006Y742500D01*
X495000Y742500D01*
X495000Y742500D01*
X495000Y742500D01*
X496249Y742448D01*
X497918Y742117D01*
X499738Y741364D01*
X501376Y740270D01*
X502770Y738877D01*
X503864Y737238D01*
X504617Y735418D01*
X505001Y733485D01*
X505000Y732500D01*
X505000Y525003D01*
X505084Y523287D01*
X505753Y519921D01*
X507066Y516751D01*
X508972Y513898D01*
X511398Y511472D01*
X514252Y509565D01*
X517422Y508253D01*
X520788Y507584D01*
X522503Y507500D01*
X572499Y507500D01*
X572499Y507500D01*
X572499Y507500D01*
X573977Y507501D01*
X576876Y506926D01*
X579606Y505796D01*
X582064Y504154D01*
X584154Y502064D01*
X585795Y499607D01*
X586925Y496876D01*
X587501Y493978D01*
X587500Y492500D01*
X587500Y387500D01*
Y375000D01*
Y365000D01*
X587500Y365000D01*
X587500Y364015D01*
X587116Y362083D01*
X586362Y360263D01*
X585268Y358625D01*
X583875Y357232D01*
X582237Y356138D01*
X580417Y355384D01*
X578485Y355000D01*
X577500Y355000D01*
X560000Y355000D01*
X559015Y355000D01*
X557083Y355384D01*
X555263Y356138D01*
X553625Y357232D01*
X552232Y358625D01*
X551138Y360263D01*
X550384Y362083D01*
X550000Y364015D01*
X550000Y365000D01*
X550000D01*
X549952Y365980D01*
X549569Y367903D01*
X548819Y369714D01*
X547730Y371344D01*
X546344Y372730D01*
X544714Y373819D01*
X542903Y374569D01*
X540980Y374952D01*
X540000Y375000D01*
X412500Y375000D01*
X411022Y375000D01*
X408124Y375576D01*
X405394Y376706D01*
X402937Y378348D01*
X400848Y380437D01*
X399206Y382894D01*
X398076Y385625D01*
X397500Y388523D01*
X397500Y390000D01*
X397500Y455000D01*
X397500Y500000D01*
X397500Y500000D01*
X397499Y500000D01*
X397428Y501470D01*
X396855Y504355D01*
X395731Y507072D01*
X394097Y509517D01*
X392018Y511597D01*
X389572Y513231D01*
X386855Y514356D01*
X383970Y514928D01*
X382500Y515000D01*
X137500Y515000D01*
X30000Y515000D01*
X28522D01*
X25624Y515576D01*
X22894Y516707D01*
X20438Y518349D01*
X18348Y520438D01*
X16707Y522895D01*
X15576Y525625D01*
X15000Y528523D01*
X15000Y530000D01*
X15000Y1141303D01*
X15000Y1142499D01*
X15000Y1142500D01*
X15000Y1142500D01*
X15000Y1143977D01*
X15576Y1146875D01*
X16707Y1149605D01*
X18348Y1152062D01*
X20438Y1154151D01*
X22894Y1155793D01*
X25624Y1156924D01*
X28523Y1157500D01*
X30000Y1157500D01*
X208770Y1157500D01*
X210000Y1157500D01*
X210000Y1157500D01*
X211470Y1157572D01*
X214354Y1158146D01*
X217071Y1159271D01*
X219516Y1160904D01*
X221595Y1162984D01*
X223229Y1165429D01*
X224354Y1168146D01*
X224928Y1171030D01*
X225000Y1172500D01*
X225000Y1185000D01*
X225000Y1446302D01*
X225000Y1447499D01*
X225000Y1447500D01*
X225000Y1447500D01*
X224999Y1448976D01*
X225575Y1451875D01*
X226705Y1454606D01*
X228346Y1457063D01*
X230436Y1459153D01*
X232893Y1460794D01*
X235624Y1461925D01*
X238522Y1462500D01*
X240000Y1462500D01*
X361241Y1462500D01*
X361253Y1462500D01*
X362500Y1462500D01*
Y1462500D01*
X363969Y1462572D01*
X366854Y1463144D01*
X369571Y1464269D01*
X372017Y1465903D01*
X374097Y1467982D01*
X375730Y1470428D01*
X376855Y1473145D01*
X377428Y1476029D01*
X377500Y1477500D01*
X377500Y1632499D01*
X377500Y1647500D01*
X377500Y1647500D01*
X377498Y1647501D01*
X377426Y1648970D01*
X376853Y1651854D01*
X375728Y1654570D01*
X374095Y1657015D01*
X372015Y1659095D01*
X369571Y1660728D01*
X366854Y1661854D01*
X363970Y1662428D01*
X362500Y1662500D01*
X235000Y1662500D01*
X234998Y1662500D01*
X233521Y1662500D01*
X230623Y1663076D01*
X227894Y1664207D01*
X225437Y1665849D01*
X223348Y1667938D01*
X221707Y1670395D01*
X220576Y1673125D01*
X220000Y1676023D01*
X220000Y1677500D01*
X220000Y1690000D01*
X220000Y1965000D01*
Y1966478D01*
X220576Y1969375D01*
X221707Y1972105D01*
X223349Y1974562D01*
X225438Y1976651D01*
X227895Y1978293D01*
X230625Y1979424D01*
X233523Y1980000D01*
X235000D01*
X524997Y1980000D01*
X524998Y1979998D01*
X524998Y1979998D01*
X526476Y1979998D01*
X529374Y1979423D01*
X532104Y1978293D01*
X534562Y1976652D01*
X536651Y1974563D01*
X538293Y1972106D01*
X539424Y1969376D01*
X540000Y1966478D01*
X540000Y1965000D01*
X540000Y1842500D01*
X540000Y1842498D01*
X540072Y1841028D01*
X540646Y1838144D01*
X541771Y1835428D01*
X543405Y1832983D01*
X545484Y1830904D01*
X547929Y1829270D01*
X550646Y1828145D01*
X553530Y1827572D01*
X555000Y1827500D01*
X978741Y1827500D01*
X978749Y1827500D01*
X980000Y1827500D01*
Y1827500D01*
X981469Y1827572D01*
X984353Y1828145D01*
X987071Y1829270D01*
X989516Y1830903D01*
X991596Y1832983D01*
X993229Y1835428D01*
X994355Y1838145D01*
X994928Y1841029D01*
X995000Y1842500D01*
Y1932500D01*
X995000Y1932500D01*
X994997Y1932501D01*
X994926Y1933969D01*
X994353Y1936853D01*
X993228Y1939570D01*
X991595Y1942015D01*
X989516Y1944095D01*
X987071Y1945728D01*
X984354Y1946854D01*
X981470Y1947428D01*
X980000Y1947500D01*
X927500Y1947500D01*
X927498Y1947502D01*
X926513D01*
X924582Y1947886D01*
X922762Y1948640D01*
X921124Y1949734D01*
X919732Y1951127D01*
X918638Y1952764D01*
X917884Y1954584D01*
X917500Y1956515D01*
X917500Y1969998D01*
X917500Y1969998D01*
X917511Y1970256D01*
X917552Y1971248D01*
X917884Y1972916D01*
X918637Y1974736D01*
X919731Y1976375D01*
X921124Y1977768D01*
X922762Y1978862D01*
X924583Y1979616D01*
X926515Y1980000D01*
X927500Y1980000D01*
X978741Y1980000D01*
X978750Y1980000D01*
X980000Y1980000D01*
Y1980000D01*
X981469Y1980072D01*
X984353Y1980645D01*
X987070Y1981770D01*
X989516Y1983404D01*
X991595Y1985483D01*
X993229Y1987928D01*
X994354Y1990645D01*
X994928Y1993529D01*
X995000Y1995000D01*
X995000Y2046228D01*
X995000Y2047500D01*
X995000Y2047500D01*
X994999Y2048975D01*
X995575Y2051874D01*
X996705Y2054604D01*
X998347Y2057062D01*
X1000436Y2059152D01*
X1002894Y2060793D01*
X1005624Y2061924D01*
X1008522Y2062500D01*
X1010000Y2062500D01*
D02*
G37*
G36*
X1367500Y2025000D02*
X1487500Y2025000D01*
X1487500Y2025000D01*
X1487500Y2025000D01*
X1488977Y2025000D01*
X1491875Y2024424D01*
X1494605Y2023293D01*
X1497062Y2021651D01*
X1499151Y2019562D01*
X1500793Y2017105D01*
X1501924Y2014375D01*
X1502500Y2011477D01*
X1502500Y2010000D01*
X1502500Y1897500D01*
X1502500Y1897500D01*
Y1896023D01*
X1501924Y1893125D01*
X1500793Y1890395D01*
X1499151Y1887938D01*
X1497062Y1885849D01*
X1494605Y1884207D01*
X1491875Y1883077D01*
X1488978Y1882500D01*
X1487500Y1882500D01*
X1367500Y1882500D01*
X1366022Y1882500D01*
X1363125Y1883076D01*
X1360395Y1884207D01*
X1357938Y1885849D01*
X1355849Y1887938D01*
X1354207Y1890395D01*
X1353076Y1893125D01*
X1352500Y1896023D01*
X1352500Y1897500D01*
X1352500Y2008803D01*
X1352500Y2010000D01*
X1352500Y2010000D01*
X1352500Y2010000D01*
X1352500Y2011477D01*
X1353076Y2014375D01*
X1354207Y2017105D01*
X1355848Y2019562D01*
X1357938Y2021651D01*
X1360394Y2023293D01*
X1363124Y2024424D01*
X1366022Y2025000D01*
X1367500Y2025000D01*
D02*
G37*
G36*
X1545000Y1800000D02*
X1545000Y1800000D01*
Y1800000D01*
X1546477D01*
X1549375Y1799423D01*
X1552105Y1798293D01*
X1554562Y1796651D01*
X1556651Y1794562D01*
X1558293Y1792105D01*
X1559423Y1789375D01*
X1560000Y1786477D01*
X1560000Y1785000D01*
X1560000Y1335000D01*
X1560000Y1335000D01*
X1560000Y1333522D01*
X1559423Y1330624D01*
X1558293Y1327895D01*
X1556651Y1325438D01*
X1554562Y1323349D01*
X1552105Y1321707D01*
X1549375Y1320576D01*
X1546477Y1320000D01*
X1545000Y1320000D01*
X1480000Y1320000D01*
X1480000Y1320000D01*
X1478522Y1320000D01*
X1475624Y1320576D01*
X1472895Y1321707D01*
X1470438Y1323349D01*
X1468349Y1325438D01*
X1466707Y1327895D01*
X1465576Y1330625D01*
X1465000Y1333523D01*
X1465000Y1335000D01*
X1465000Y1785000D01*
Y1786477D01*
X1465576Y1789375D01*
X1466707Y1792105D01*
X1468349Y1794562D01*
X1470438Y1796651D01*
X1472895Y1798293D01*
X1475625Y1799424D01*
X1478523Y1800000D01*
X1480000D01*
X1545000Y1800000D01*
D02*
G37*
G36*
X1337500Y1352500D02*
X1437500Y1352500D01*
X1437500Y1352500D01*
X1437500Y1352500D01*
X1438977Y1352500D01*
X1441875Y1351923D01*
X1444605Y1350793D01*
X1447062Y1349151D01*
X1449151Y1347062D01*
X1450793Y1344605D01*
X1451924Y1341875D01*
X1452500Y1338977D01*
X1452500Y1337500D01*
X1452500Y1240000D01*
X1452500Y1240000D01*
Y1238522D01*
X1451923Y1235625D01*
X1450793Y1232895D01*
X1449151Y1230438D01*
X1447062Y1228349D01*
X1444605Y1226707D01*
X1441875Y1225576D01*
X1438977Y1225000D01*
X1337500D01*
X1336023Y1225000D01*
X1333125Y1225576D01*
X1330395Y1226707D01*
X1327938Y1228349D01*
X1325849Y1230438D01*
X1324207Y1232895D01*
X1323076Y1235625D01*
X1322500Y1238523D01*
X1322500Y1240000D01*
Y1332500D01*
X1322500Y1336304D01*
X1322500Y1337500D01*
X1322500Y1337500D01*
X1322500Y1337500D01*
X1322500Y1337500D01*
X1322500Y1338977D01*
X1323076Y1341875D01*
X1324207Y1344605D01*
X1325849Y1347062D01*
X1327938Y1349151D01*
X1330395Y1350793D01*
X1333125Y1351924D01*
X1336023Y1352500D01*
X1337500Y1352500D01*
D02*
G37*
G36*
X189375Y1344424D02*
X192105Y1343293D01*
X194562Y1341651D01*
X196651Y1339562D01*
X198293Y1337105D01*
X199423Y1334375D01*
X200000Y1331477D01*
X200000Y1330000D01*
X200000Y1330000D01*
X200000Y1330000D01*
X200000Y1195000D01*
X200000Y1193523D01*
X199424Y1190625D01*
X198293Y1187895D01*
X196651Y1185438D01*
X194562Y1183349D01*
X192105Y1181707D01*
X189375Y1180576D01*
X186477Y1180000D01*
X185000Y1180000D01*
X50000Y1180000D01*
X48523Y1180000D01*
X45625Y1180576D01*
X42895Y1181707D01*
X40438Y1183349D01*
X38349Y1185438D01*
X36707Y1187895D01*
X35576Y1190624D01*
X35000Y1193522D01*
Y1195000D01*
X35000Y1195000D01*
X35000Y1330000D01*
X35000Y1331478D01*
X35576Y1334375D01*
X36707Y1337105D01*
X38349Y1339562D01*
X40438Y1341651D01*
X42895Y1343293D01*
X45624Y1344423D01*
X48522Y1345000D01*
X50000Y1345000D01*
X50000Y1345000D01*
X185000Y1345000D01*
X186477Y1345000D01*
X189375Y1344424D01*
D02*
G37*
G36*
X340000Y1640000D02*
X340000Y1640000D01*
X341477Y1640000D01*
X344375Y1639424D01*
X347105Y1638293D01*
X349562Y1636651D01*
X351651Y1634562D01*
X353293Y1632105D01*
X354423Y1629375D01*
X355000Y1626477D01*
X355000Y1625000D01*
X355000Y1502500D01*
X355000Y1502500D01*
Y1500776D01*
X354327Y1497395D01*
X353008Y1494211D01*
X351093Y1491344D01*
X348656Y1488907D01*
X345789Y1486992D01*
X342604Y1485673D01*
X339224Y1485000D01*
X337500Y1485000D01*
X200000Y1485000D01*
X200000Y1485000D01*
X198523D01*
X195625Y1485576D01*
X192895Y1486707D01*
X190438Y1488349D01*
X188349Y1490438D01*
X186707Y1492895D01*
X185576Y1495625D01*
X185000Y1498523D01*
Y1500000D01*
Y1625000D01*
X185000Y1625000D01*
X185000Y1625000D01*
X185000Y1626477D01*
X185576Y1629375D01*
X186707Y1632105D01*
X188349Y1634562D01*
X190438Y1636651D01*
X192895Y1638293D01*
X195625Y1639424D01*
X198523Y1640000D01*
X200000D01*
X340000Y1640000D01*
X340000Y1640000D01*
D02*
G37*
G36*
X685000Y1632500D02*
X760000Y1632500D01*
X760000Y1632500D01*
X760000Y1632500D01*
X761477Y1632500D01*
X764375Y1631923D01*
X767105Y1630793D01*
X769562Y1629151D01*
X771651Y1627062D01*
X773293Y1624605D01*
X774424Y1621875D01*
X775000Y1618977D01*
X775000Y1617500D01*
X775000Y1347500D01*
X997500Y1347500D01*
X997500Y1347500D01*
X997500Y1347500D01*
X999962Y1347500D01*
X1004792Y1346540D01*
X1009342Y1344655D01*
X1013437Y1341919D01*
X1016919Y1338437D01*
X1019655Y1334342D01*
X1021540Y1329792D01*
X1022500Y1324962D01*
X1022500Y1322500D01*
X1022500Y1227500D01*
X1022500Y1227500D01*
X1022572Y1226030D01*
X1023146Y1223146D01*
X1024271Y1220429D01*
X1025905Y1217984D01*
X1027984Y1215905D01*
X1030429Y1214271D01*
X1033146Y1213146D01*
X1036030Y1212572D01*
X1037500Y1212500D01*
X1089998Y1212500D01*
X1089998Y1212500D01*
X1089998Y1212500D01*
X1091722Y1212500D01*
X1095103Y1211827D01*
X1098288Y1210508D01*
X1101155Y1208593D01*
X1103593Y1206155D01*
X1105508Y1203289D01*
X1106827Y1200104D01*
X1107500Y1196722D01*
X1107500Y1194998D01*
X1107500Y1150000D01*
X1107500Y1150000D01*
Y1148769D01*
X1107019Y1146354D01*
X1106077Y1144079D01*
X1104709Y1142032D01*
X1102968Y1140291D01*
X1100921Y1138923D01*
X1098646Y1137980D01*
X1096231Y1137500D01*
X1095000D01*
X1022500Y1137500D01*
X950000Y1137500D01*
X948522D01*
X945624Y1138076D01*
X942895Y1139207D01*
X940438Y1140849D01*
X938349Y1142938D01*
X936707Y1145395D01*
X935576Y1148125D01*
X935000Y1151022D01*
Y1152500D01*
X935000Y1245000D01*
X935000Y1245000D01*
X935000Y1245000D01*
X934940Y1246225D01*
X934462Y1248628D01*
X933524Y1250892D01*
X932163Y1252930D01*
X930430Y1254662D01*
X928392Y1256024D01*
X926128Y1256962D01*
X923725Y1257440D01*
X922500Y1257500D01*
X642500Y1257500D01*
X642500Y1257499D01*
X641519Y1257451D01*
X639597Y1257069D01*
X637786Y1256319D01*
X636156Y1255230D01*
X634770Y1253844D01*
X633681Y1252214D01*
X632931Y1250403D01*
X632548Y1248480D01*
X632500Y1247500D01*
Y1152500D01*
X632500Y1152500D01*
X632500Y1151022D01*
X631923Y1148124D01*
X630793Y1145394D01*
X629151Y1142937D01*
X627062Y1140848D01*
X624605Y1139206D01*
X621875Y1138076D01*
X618977Y1137499D01*
X617499Y1137499D01*
X565000Y1137499D01*
X447501Y1137499D01*
Y1137499D01*
X446269D01*
X443854Y1137980D01*
X441579Y1138922D01*
X439532Y1140290D01*
X437791Y1142031D01*
X436423Y1144079D01*
X435480Y1146354D01*
X435000Y1148769D01*
Y1150000D01*
X435000Y1198804D01*
X435000Y1200000D01*
X435000Y1200000D01*
X435000Y1200000D01*
X435000Y1200000D01*
X435000Y1201231D01*
X435480Y1203646D01*
X436423Y1205921D01*
X437790Y1207968D01*
X439532Y1209710D01*
X441579Y1211078D01*
X443854Y1212020D01*
X446269Y1212500D01*
X447500Y1212500D01*
X550000Y1212500D01*
X551470Y1212572D01*
X554354Y1213146D01*
X557071Y1214271D01*
X559516Y1215905D01*
X561595Y1217984D01*
X563229Y1220429D01*
X564354Y1223146D01*
X564927Y1226030D01*
X565000Y1227500D01*
X565000Y1323802D01*
X565000Y1324998D01*
X565000Y1324998D01*
X565000Y1324999D01*
X565000Y1324999D01*
X565000Y1327215D01*
X565864Y1331562D01*
X567560Y1335657D01*
X570022Y1339343D01*
X573156Y1342477D01*
X576841Y1344939D01*
X580936Y1346635D01*
X585284Y1347500D01*
X587500Y1347500D01*
X670000Y1347500D01*
X670000Y1616304D01*
X670000Y1617500D01*
X670000Y1617500D01*
X670000Y1617500D01*
X670000Y1618977D01*
X670576Y1621875D01*
X671707Y1624605D01*
X673349Y1627062D01*
X675438Y1629151D01*
X677895Y1630793D01*
X680625Y1631924D01*
X683523Y1632500D01*
X685000Y1632500D01*
D02*
G37*
D18*
X1493000Y165000D02*
D03*
X1477000D02*
D03*
X1393000Y242500D02*
D03*
X1377000D02*
D03*
X1210500Y712500D02*
D03*
X1194500D02*
D03*
X1393000Y322500D02*
D03*
X1377000D02*
D03*
X69500Y160000D02*
D03*
X85500D02*
D03*
X198000Y262500D02*
D03*
X182000D02*
D03*
X352000Y692500D02*
D03*
X368000D02*
D03*
X200500Y325000D02*
D03*
X184500D02*
D03*
D19*
X1452500Y369500D02*
D03*
Y385500D02*
D03*
X90000Y367000D02*
D03*
Y383000D02*
D03*
D20*
X385250Y690000D02*
D03*
X419750D02*
D03*
X1172250Y707500D02*
D03*
X1137750D02*
D03*
D26*
X1189750Y765000D02*
X1190000Y764750D01*
Y750000D02*
Y764750D01*
X1204998Y749998D02*
Y764748D01*
X1205250Y765000D01*
X1393000Y322500D02*
X1415000D01*
X1417500Y325000D01*
X1353750Y322500D02*
X1377000D01*
X1366500Y346000D02*
Y362500D01*
Y346000D02*
X1377000Y335500D01*
Y322500D02*
Y335500D01*
X1393000Y322500D02*
Y335500D01*
X1398500Y341000D01*
Y362500D01*
X1395001Y110000D02*
Y160001D01*
X1400000Y165000D01*
X1360000Y242500D02*
X1377000D01*
X1355000Y247500D02*
X1360000Y242500D01*
X1393000D02*
X1410000D01*
X1415000Y247500D01*
X1142500Y657500D02*
X1143000Y657000D01*
X1262000D01*
X1262500Y657500D01*
X1277500D02*
Y662500D01*
X1155000Y667500D02*
X1272500D01*
X1277500Y662500D01*
X377250Y742750D02*
Y755000D01*
Y742750D02*
X377500Y742500D01*
X392500Y754750D02*
X392750Y755000D01*
X392500Y742500D02*
Y754750D01*
X165000Y332500D02*
X170000D01*
Y325000D02*
Y332500D01*
Y325000D02*
X184500D01*
X185000D01*
X200500D02*
X220000D01*
X200500D02*
Y330500D01*
X205000Y335000D01*
X215000D01*
X220000Y340000D01*
Y365000D01*
X185000Y325000D02*
Y347500D01*
X187500Y350000D01*
Y365000D01*
D27*
X422500Y687500D02*
Y710000D01*
X442500D02*
Y725000D01*
X437500Y730000D02*
X442500Y725000D01*
X372500Y730000D02*
X437500D01*
X422500Y687500D02*
X425000Y690000D01*
X435000D01*
Y662500D02*
Y690000D01*
X102000Y383000D02*
Y429500D01*
X90000Y383000D02*
X102000D01*
X90000Y367000D02*
X104500D01*
X90000Y357500D02*
Y367000D01*
X79275Y346775D02*
X90000Y357500D01*
X60000Y346775D02*
X79275D01*
X90000Y383000D02*
Y390000D01*
X82425Y397575D02*
X90000Y390000D01*
X60000Y397575D02*
X82425D01*
X45000Y160000D02*
X69500D01*
Y146275D02*
Y160000D01*
X62000Y138775D02*
X69500Y146275D01*
X85500Y147275D02*
Y160000D01*
Y147275D02*
X94000Y138775D01*
X1210500Y712500D02*
X1210500Y712500D01*
X1182500Y712500D02*
X1194500D01*
X1182500D02*
Y722500D01*
X1187500Y727500D01*
X1257500D01*
X1137500Y699750D02*
X1137750Y700000D01*
X1210500Y712500D02*
X1232500D01*
X1470000Y165000D02*
X1477000D01*
X1469000Y164000D02*
X1470000Y165000D01*
X1469000Y145000D02*
Y164000D01*
X1493000Y165000D02*
X1500000D01*
X1501000Y164000D01*
X1452500Y357500D02*
Y369500D01*
Y357500D02*
X1458400Y351600D01*
X1475000D01*
X1452500Y385500D02*
Y395000D01*
X1459900Y402400D01*
X1475000D01*
X1442000Y385500D02*
Y432000D01*
Y385500D02*
X1452500D01*
X1443000Y369500D02*
X1452500D01*
X1442500Y325000D02*
Y330000D01*
X1443000Y330500D02*
Y369500D01*
X1442500Y330000D02*
X1443000Y330500D01*
X1345000Y365000D02*
X1347500Y362500D01*
X1366500D01*
X1398500D02*
X1412500D01*
X1400000Y227500D02*
X1422500D01*
X1393000Y234500D02*
X1400000Y227500D01*
X1390000Y210000D02*
X1393000Y213000D01*
Y234500D01*
Y242500D01*
X1422500Y187500D02*
X1430000Y180000D01*
X1380000Y187500D02*
X1422500D01*
X1375000Y192500D02*
X1380000Y187500D01*
X1375000Y192500D02*
Y227500D01*
X1377500Y230000D01*
Y242000D01*
X1377000Y242500D02*
X1377500Y242000D01*
X1137500Y690000D02*
Y699750D01*
X1257500Y727500D02*
X1260000Y725000D01*
X1137500Y690000D02*
X1147500Y680000D01*
X1206969D01*
X1209469Y682500D01*
X367500Y712500D02*
Y725000D01*
X372500Y730000D01*
X368000Y692500D02*
Y712000D01*
X367500Y712500D02*
X368000Y712000D01*
X420000Y692250D02*
Y707500D01*
X422500Y710000D01*
X102000Y429500D02*
X105000Y432500D01*
X105000Y432500D01*
X125000D01*
X104500Y335000D02*
Y367000D01*
Y335000D02*
X125000D01*
X1364500Y474500D02*
X1365000Y475000D01*
X1442000Y432000D02*
X1442500Y432500D01*
X352000Y660500D02*
X355000Y657500D01*
X430000D01*
X435000Y662500D01*
X352000Y660500D02*
Y692000D01*
X368000Y692500D02*
X370000D01*
X85500Y160000D02*
X90500Y165000D01*
X110000D01*
X182500Y252500D02*
Y262500D01*
X127500Y240000D02*
X130000Y242500D01*
X172500D01*
X182500Y252500D01*
X143000Y227000D02*
X179500D01*
X197500Y245000D01*
Y262500D01*
X152500D02*
X182000D01*
X198000D02*
X222500D01*
X188750Y211250D02*
X216250D01*
X222500Y217500D01*
Y262500D01*
D28*
X1501000Y164000D02*
Y174000D01*
X1425000Y473500D02*
X1426500Y475000D01*
X48075Y270575D02*
X60000D01*
X35000Y257500D02*
X48075Y270575D01*
X35000Y232500D02*
Y257500D01*
Y232500D02*
X46725Y220775D01*
X61000D01*
X93000D02*
Y234500D01*
X82325Y245175D02*
X93000Y234500D01*
X60000Y245175D02*
X82325D01*
X61000Y200000D02*
Y220775D01*
X42500Y200000D02*
X61000D01*
X92500Y220275D02*
X93000Y220775D01*
X92500Y200000D02*
Y220275D01*
X94000Y116500D02*
Y138775D01*
X90002Y112502D02*
X94000Y116500D01*
X90002Y110000D02*
Y112502D01*
X62000Y117923D02*
Y138775D01*
Y117923D02*
X69923Y110000D01*
X1172250Y709750D02*
X1175000Y712500D01*
X1182500D01*
X1474998Y110000D02*
Y122502D01*
X1469000Y128500D02*
X1474998Y122502D01*
X1469000Y128500D02*
Y145000D01*
X1495077Y110000D02*
Y122423D01*
X1501000Y128346D01*
Y145000D01*
X1496500Y178500D02*
X1501000Y174000D01*
X1451000Y178500D02*
X1496500D01*
X1501000Y145000D02*
Y164000D01*
X1476000Y249000D02*
X1510000D01*
X1475000Y250000D02*
X1476000Y249000D01*
X1475000Y227500D02*
X1542500D01*
X1510000Y249000D02*
X1529000D01*
X1542500Y227500D02*
X1547500Y232500D01*
Y275000D01*
X1541500Y281000D02*
X1547500Y275000D01*
X1510000Y281000D02*
X1541500D01*
X1529000Y249000D02*
X1530000Y250000D01*
X1475000Y275400D02*
X1492900D01*
X1498500Y281000D01*
X1510000D01*
X1425000Y457500D02*
Y473500D01*
X1456000Y453500D02*
Y475000D01*
X1425000Y380000D02*
Y437500D01*
Y380000D02*
X1435500Y369500D01*
X1443000D01*
X1469000Y145000D02*
X1469000Y145000D01*
X1455000Y145000D02*
X1469000D01*
X1137500Y722500D02*
X1137750Y722250D01*
X1122500Y722500D02*
X1137500D01*
X1172250Y700000D02*
Y707500D01*
Y709750D01*
X1137750Y700000D02*
Y707500D01*
Y722250D01*
X1456000Y475000D02*
Y496500D01*
X1452500Y450000D02*
X1456000Y453500D01*
X1425000Y437500D02*
X1437500Y450000D01*
X1452500D01*
X1247500Y495000D02*
X1249000Y496500D01*
X1194500Y700500D02*
Y712500D01*
Y700500D02*
X1198500Y696500D01*
X1228500D01*
X1235000Y690000D01*
X312500Y695000D02*
Y710000D01*
X145000Y441000D02*
X146500Y442500D01*
X145000Y420000D02*
Y441000D01*
X147500Y387500D02*
X155000Y395000D01*
X147500Y365000D02*
Y387500D01*
X155000Y395000D02*
X178500D01*
Y442500D01*
X1365000Y475000D02*
X1424000D01*
X1249000Y496500D02*
X1400000D01*
X1456000D01*
X1262500Y475000D02*
X1332500D01*
X1365000D01*
X178500Y442500D02*
Y467500D01*
X146500Y442500D02*
Y487500D01*
X177500D01*
X178500Y467500D02*
X245000D01*
X187500Y365000D02*
X189000D01*
X170000D02*
X187500D01*
X222500D02*
X237500D01*
X177500Y487500D02*
X337500D01*
X245000Y467500D02*
X360000D01*
X337500Y670000D02*
Y690000D01*
X312500Y695000D02*
X315000Y692500D01*
X337500Y690000D02*
X340000Y692500D01*
X352000D01*
X315000D02*
X340000D01*
X360000Y467500D02*
Y487500D01*
X370000Y672500D02*
Y692500D01*
X385250D01*
X92500Y200000D02*
X110000D01*
D29*
X947500Y1964599D02*
D03*
Y1925000D02*
D03*
Y1885401D02*
D03*
D31*
X1475000Y402400D02*
D03*
Y377000D02*
D03*
Y351600D02*
D03*
Y275400D02*
D03*
X60000Y397575D02*
D03*
Y372175D02*
D03*
Y346775D02*
D03*
Y270575D02*
D03*
D32*
X1475000Y250000D02*
D03*
X60000Y245175D02*
D03*
D33*
X1485000Y1740000D02*
D03*
X1435000D02*
D03*
X1385000D02*
D03*
X1435000Y1520000D02*
D03*
X1485000D02*
D03*
X1535000D02*
D03*
D34*
Y1740000D02*
D03*
X1385000Y1520000D02*
D03*
D35*
X69923Y110000D02*
D03*
X90002D02*
D03*
X110000D02*
D03*
X130002D02*
D03*
X150001D02*
D03*
X1495077Y110000D02*
D03*
X1474998D02*
D03*
X1455000D02*
D03*
X1434998D02*
D03*
X1414999D02*
D03*
D36*
X169999Y110000D02*
D03*
X1395001Y110000D02*
D03*
D37*
X1018500Y880250D02*
D03*
X559500Y989250D02*
D03*
Y599250D02*
D03*
X1018500Y490250D02*
D03*
D38*
Y934750D02*
D03*
Y989250D02*
D03*
X559500Y934750D02*
D03*
Y880250D02*
D03*
Y544750D02*
D03*
Y490250D02*
D03*
X1018500Y544750D02*
D03*
Y599250D02*
D03*
D39*
X325000Y1530000D02*
D03*
X1390000Y1970000D02*
D03*
X1220000Y1615000D02*
D03*
X1357500Y1267500D02*
D03*
X160000Y1845000D02*
D03*
Y1210000D02*
D03*
D40*
X425000Y1530000D02*
D03*
X1290000Y1970000D02*
D03*
X1120000Y1615000D02*
D03*
X1257500Y1267500D02*
D03*
X260000Y1845000D02*
D03*
Y1210000D02*
D03*
D41*
X963501Y715750D02*
D03*
Y176500D02*
D03*
X615501Y175500D02*
D03*
Y714750D02*
D03*
X963500Y1305000D02*
D03*
Y765750D02*
D03*
X615500Y764750D02*
D03*
Y1304000D02*
D03*
D42*
X1390000Y935000D02*
D03*
Y560000D02*
D03*
X180000Y960000D02*
D03*
Y585000D02*
D03*
D43*
X1512500Y1410800D02*
D03*
Y1360000D02*
D03*
X397500Y170000D02*
D03*
X346700D02*
D03*
X722500Y1559200D02*
D03*
Y1610000D02*
D03*
X1222500Y180000D02*
D03*
X1171700D02*
D03*
D44*
X486000Y1606002D02*
D03*
Y1586002D02*
D03*
Y1566002D02*
D03*
Y1546002D02*
D03*
Y1526002D02*
D03*
Y1506002D02*
D03*
Y1486002D02*
D03*
Y1466002D02*
D03*
X466000Y1606002D02*
D03*
Y1586002D02*
D03*
Y1566002D02*
D03*
Y1546002D02*
D03*
Y1526002D02*
D03*
Y1506002D02*
D03*
Y1486002D02*
D03*
Y1466002D02*
D03*
X446000Y1606002D02*
D03*
Y1586002D02*
D03*
Y1566002D02*
D03*
Y1546002D02*
D03*
Y1506002D02*
D03*
Y1486002D02*
D03*
Y1466002D02*
D03*
X426000Y1606002D02*
D03*
Y1586002D02*
D03*
Y1566002D02*
D03*
Y1506002D02*
D03*
Y1486002D02*
D03*
Y1466002D02*
D03*
X406000Y1606002D02*
D03*
Y1586002D02*
D03*
Y1566002D02*
D03*
Y1506002D02*
D03*
Y1486002D02*
D03*
Y1466002D02*
D03*
X326000Y1946002D02*
D03*
Y1926002D02*
D03*
Y1906002D02*
D03*
Y1886002D02*
D03*
Y1866002D02*
D03*
Y1846002D02*
D03*
Y1826002D02*
D03*
X306000Y1946002D02*
D03*
Y1926002D02*
D03*
Y1906002D02*
D03*
Y1886002D02*
D03*
Y1866002D02*
D03*
Y1846002D02*
D03*
Y1826002D02*
D03*
X286000Y1946002D02*
D03*
Y1926002D02*
D03*
Y1906002D02*
D03*
Y1886002D02*
D03*
Y1866002D02*
D03*
Y1846002D02*
D03*
Y1826002D02*
D03*
X266000Y1946002D02*
D03*
Y1926002D02*
D03*
Y1906002D02*
D03*
Y1886002D02*
D03*
X246000Y1946002D02*
D03*
Y1926002D02*
D03*
Y1906002D02*
D03*
Y1886002D02*
D03*
X346000Y1626002D02*
D03*
Y1606002D02*
D03*
Y1586002D02*
D03*
Y1566002D02*
D03*
X326000Y1626002D02*
D03*
Y1606002D02*
D03*
Y1586002D02*
D03*
Y1566002D02*
D03*
Y1506002D02*
D03*
X306000Y1626002D02*
D03*
Y1606002D02*
D03*
Y1586002D02*
D03*
Y1566002D02*
D03*
X286000Y1626002D02*
D03*
Y1606002D02*
D03*
Y1586002D02*
D03*
Y1566002D02*
D03*
Y1546002D02*
D03*
Y1526002D02*
D03*
Y1506002D02*
D03*
X266000Y1626002D02*
D03*
Y1606002D02*
D03*
Y1586002D02*
D03*
Y1566002D02*
D03*
Y1546002D02*
D03*
Y1526002D02*
D03*
Y1506002D02*
D03*
X246000Y1626002D02*
D03*
Y1606002D02*
D03*
Y1586002D02*
D03*
Y1566002D02*
D03*
Y1546002D02*
D03*
Y1526002D02*
D03*
Y1506002D02*
D03*
X226000Y1626002D02*
D03*
Y1606002D02*
D03*
Y1586002D02*
D03*
Y1566002D02*
D03*
Y1546002D02*
D03*
Y1526002D02*
D03*
Y1506002D02*
D03*
X206000Y1626002D02*
D03*
Y1606002D02*
D03*
Y1586002D02*
D03*
Y1566002D02*
D03*
Y1546002D02*
D03*
Y1526002D02*
D03*
Y1506002D02*
D03*
X186000Y1926002D02*
D03*
Y1906002D02*
D03*
Y1886002D02*
D03*
Y1866002D02*
D03*
Y1846002D02*
D03*
Y1826002D02*
D03*
Y1326002D02*
D03*
Y1306002D02*
D03*
Y1286002D02*
D03*
Y1266002D02*
D03*
Y1246002D02*
D03*
Y1226002D02*
D03*
Y1206002D02*
D03*
X166000Y1946002D02*
D03*
Y1926002D02*
D03*
Y1906002D02*
D03*
Y1886002D02*
D03*
Y1806002D02*
D03*
Y1326002D02*
D03*
Y1306002D02*
D03*
Y1286002D02*
D03*
Y1266002D02*
D03*
Y1246002D02*
D03*
X146000Y1946002D02*
D03*
Y1926002D02*
D03*
Y1906002D02*
D03*
Y1886002D02*
D03*
Y1806002D02*
D03*
Y1326002D02*
D03*
Y1306002D02*
D03*
Y1286002D02*
D03*
Y1266002D02*
D03*
Y1246002D02*
D03*
X126000Y1946002D02*
D03*
Y1926002D02*
D03*
Y1906002D02*
D03*
Y1886002D02*
D03*
Y1866002D02*
D03*
Y1846002D02*
D03*
Y1826002D02*
D03*
Y1806002D02*
D03*
Y1326002D02*
D03*
Y1306002D02*
D03*
Y1286002D02*
D03*
Y1266002D02*
D03*
Y1246002D02*
D03*
Y1226002D02*
D03*
Y1206002D02*
D03*
X106000Y1946002D02*
D03*
Y1926002D02*
D03*
Y1906002D02*
D03*
Y1886002D02*
D03*
Y1866002D02*
D03*
Y1846002D02*
D03*
Y1826002D02*
D03*
Y1806002D02*
D03*
Y1326002D02*
D03*
Y1306002D02*
D03*
Y1286002D02*
D03*
Y1266002D02*
D03*
Y1246002D02*
D03*
Y1226002D02*
D03*
Y1206002D02*
D03*
X86000Y1946002D02*
D03*
Y1926002D02*
D03*
Y1906002D02*
D03*
Y1886002D02*
D03*
Y1866002D02*
D03*
Y1846002D02*
D03*
Y1826002D02*
D03*
Y1806002D02*
D03*
Y1326002D02*
D03*
Y1306002D02*
D03*
Y1286002D02*
D03*
Y1266002D02*
D03*
Y1246002D02*
D03*
Y1226002D02*
D03*
Y1206002D02*
D03*
X66000Y1946002D02*
D03*
Y1926002D02*
D03*
Y1906002D02*
D03*
Y1886002D02*
D03*
Y1866002D02*
D03*
Y1846002D02*
D03*
Y1826002D02*
D03*
Y1806002D02*
D03*
Y1306002D02*
D03*
Y1286002D02*
D03*
Y1266002D02*
D03*
Y1246002D02*
D03*
Y1226002D02*
D03*
Y1206002D02*
D03*
X46000Y1926002D02*
D03*
Y1906002D02*
D03*
Y1886002D02*
D03*
Y1866002D02*
D03*
Y1846002D02*
D03*
Y1826002D02*
D03*
Y1306002D02*
D03*
Y1286002D02*
D03*
Y1266002D02*
D03*
Y1246002D02*
D03*
Y1226002D02*
D03*
Y1206002D02*
D03*
X206000Y926002D02*
D03*
X246000D02*
D03*
X166000Y946002D02*
D03*
X206000D02*
D03*
X246000Y966002D02*
D03*
X286000Y946002D02*
D03*
X266000D02*
D03*
X326000Y966002D02*
D03*
X166000Y986002D02*
D03*
X186000Y1006002D02*
D03*
X266000Y986002D02*
D03*
X286000D02*
D03*
X306000D02*
D03*
X346000D02*
D03*
X306000Y1006002D02*
D03*
X366000Y986002D02*
D03*
Y946002D02*
D03*
X386000Y1006002D02*
D03*
X246000D02*
D03*
X1206001Y926002D02*
D03*
X1226001D02*
D03*
X1186001D02*
D03*
X1206001Y946002D02*
D03*
X1226001D02*
D03*
X1186001Y966002D02*
D03*
X1206001D02*
D03*
X1306001Y926002D02*
D03*
X1286001D02*
D03*
X1246001Y966002D02*
D03*
X1306001Y946002D02*
D03*
X1286001D02*
D03*
X1186001Y986002D02*
D03*
X1206001Y1006002D02*
D03*
X1186001D02*
D03*
X1246001D02*
D03*
X1266001Y966002D02*
D03*
X1286001D02*
D03*
X1326001D02*
D03*
X1286001Y986002D02*
D03*
X1266001Y1006002D02*
D03*
X1286001D02*
D03*
Y1606002D02*
D03*
X1326001Y1006002D02*
D03*
X1346001Y946002D02*
D03*
X1366001Y926002D02*
D03*
X1346001Y966002D02*
D03*
X1366001Y946002D02*
D03*
X1346001Y986002D02*
D03*
X1366001Y966002D02*
D03*
X1386001Y986002D02*
D03*
Y966002D02*
D03*
X1446001Y1246002D02*
D03*
X1426001D02*
D03*
X1406001Y1266002D02*
D03*
X1426001D02*
D03*
X1366001Y1326002D02*
D03*
Y1306002D02*
D03*
X1386001Y1286002D02*
D03*
Y1306002D02*
D03*
X1406001Y1286002D02*
D03*
X1386001Y1346002D02*
D03*
X1406001Y1306002D02*
D03*
X1446001D02*
D03*
X1406001Y1326002D02*
D03*
X1426001D02*
D03*
Y1346002D02*
D03*
X1206001Y1646002D02*
D03*
X1226001Y1666002D02*
D03*
Y1646002D02*
D03*
X1246001Y1626002D02*
D03*
Y1646002D02*
D03*
X1226001Y1686002D02*
D03*
X1266001Y1606002D02*
D03*
Y1666002D02*
D03*
Y1686002D02*
D03*
X1286001D02*
D03*
X1386001D02*
D03*
X1366001Y1766002D02*
D03*
X1346001D02*
D03*
X1386001Y1806002D02*
D03*
Y1786002D02*
D03*
Y1926002D02*
D03*
Y1906002D02*
D03*
X1406001Y1686002D02*
D03*
Y1726002D02*
D03*
X1426001Y1686002D02*
D03*
Y1766002D02*
D03*
X1406001Y1786002D02*
D03*
X1426001Y1806002D02*
D03*
X1406001Y1906002D02*
D03*
X1446001Y1806002D02*
D03*
Y1906002D02*
D03*
X1466001D02*
D03*
X1406001Y1926002D02*
D03*
X1446001Y1946002D02*
D03*
X1406001Y2006002D02*
D03*
X1426001Y1986002D02*
D03*
Y2006002D02*
D03*
X1446001Y1986002D02*
D03*
X1466001Y1926002D02*
D03*
Y1966002D02*
D03*
X1486001Y1926002D02*
D03*
X1446001Y2006002D02*
D03*
X1466001D02*
D03*
X1146001Y1206002D02*
D03*
Y1226002D02*
D03*
X1166001Y1206002D02*
D03*
X1186001Y1226002D02*
D03*
X1166001Y1266002D02*
D03*
X1146001Y1286002D02*
D03*
X1186001D02*
D03*
Y1206002D02*
D03*
X1246001D02*
D03*
X1226001Y1246002D02*
D03*
X1246001Y1226002D02*
D03*
X1266001D02*
D03*
X1206001Y1286002D02*
D03*
X1366001Y1486002D02*
D03*
X1346001Y1546002D02*
D03*
X1406001Y1486002D02*
D03*
Y1506002D02*
D03*
Y1526002D02*
D03*
X1206001Y1906002D02*
D03*
X1226001Y1886002D02*
D03*
Y1906002D02*
D03*
X1246001Y1886002D02*
D03*
X1206001Y1926002D02*
D03*
X1226001Y1946002D02*
D03*
Y1966002D02*
D03*
X1206001Y1986002D02*
D03*
Y2006002D02*
D03*
Y2046002D02*
D03*
X1226001D02*
D03*
X1246001Y1906002D02*
D03*
X1226001Y1986002D02*
D03*
Y2026002D02*
D03*
Y2006002D02*
D03*
X1246001Y2046002D02*
D03*
X1286001Y1886002D02*
D03*
X1266001Y1906002D02*
D03*
X1306001D02*
D03*
X1406001Y1566002D02*
D03*
X1426001D02*
D03*
X1386001Y1586002D02*
D03*
X1406001D02*
D03*
X1366001D02*
D03*
X1426001D02*
D03*
X1246001Y1966002D02*
D03*
X1266001Y1926002D02*
D03*
Y1986002D02*
D03*
X1246001Y2006002D02*
D03*
X1266001D02*
D03*
Y2026002D02*
D03*
X1306001Y1926002D02*
D03*
Y2006002D02*
D03*
X1286001Y2026002D02*
D03*
X1306001D02*
D03*
X616000Y875999D02*
D03*
X631000D02*
D03*
X646000D02*
D03*
X616000Y905999D02*
D03*
X631000D02*
D03*
X661000Y875999D02*
D03*
X646000Y860999D02*
D03*
X1190000Y750000D02*
D03*
X1126000Y950999D02*
D03*
Y935999D02*
D03*
Y920999D02*
D03*
Y905999D02*
D03*
X1111000Y950999D02*
D03*
Y935999D02*
D03*
Y920999D02*
D03*
Y905999D02*
D03*
X1096000Y950999D02*
D03*
Y935999D02*
D03*
Y920999D02*
D03*
Y905999D02*
D03*
X1081000Y950999D02*
D03*
Y935999D02*
D03*
Y920999D02*
D03*
Y905999D02*
D03*
X1066000Y935999D02*
D03*
Y920999D02*
D03*
Y905999D02*
D03*
X1051000Y935999D02*
D03*
Y920999D02*
D03*
X1036000Y935999D02*
D03*
Y920999D02*
D03*
X991000Y935999D02*
D03*
Y920999D02*
D03*
X976000D02*
D03*
Y905999D02*
D03*
X961000D02*
D03*
X1246001Y286001D02*
D03*
Y266001D02*
D03*
Y246001D02*
D03*
Y226001D02*
D03*
Y206001D02*
D03*
Y186001D02*
D03*
Y166001D02*
D03*
Y146001D02*
D03*
Y126001D02*
D03*
Y106001D02*
D03*
Y86001D02*
D03*
X1226001Y286001D02*
D03*
Y266001D02*
D03*
Y246001D02*
D03*
Y226001D02*
D03*
Y206001D02*
D03*
Y146001D02*
D03*
Y126001D02*
D03*
Y106001D02*
D03*
Y86001D02*
D03*
X1206001Y286001D02*
D03*
Y266001D02*
D03*
Y246001D02*
D03*
Y226001D02*
D03*
Y206001D02*
D03*
Y166001D02*
D03*
Y146001D02*
D03*
Y106001D02*
D03*
Y86001D02*
D03*
X1186001Y286001D02*
D03*
Y266001D02*
D03*
Y246001D02*
D03*
Y226001D02*
D03*
Y206001D02*
D03*
Y166001D02*
D03*
Y146001D02*
D03*
Y106001D02*
D03*
Y86001D02*
D03*
X1166001Y286001D02*
D03*
Y266001D02*
D03*
Y246001D02*
D03*
Y226001D02*
D03*
Y206001D02*
D03*
Y146001D02*
D03*
Y126001D02*
D03*
Y106001D02*
D03*
Y86001D02*
D03*
X1146001Y286001D02*
D03*
Y266001D02*
D03*
Y246001D02*
D03*
Y226001D02*
D03*
Y206001D02*
D03*
Y186001D02*
D03*
Y166001D02*
D03*
Y146001D02*
D03*
Y126001D02*
D03*
Y106001D02*
D03*
Y86001D02*
D03*
X556000Y470999D02*
D03*
Y455999D02*
D03*
Y440999D02*
D03*
X541000Y500999D02*
D03*
Y485999D02*
D03*
Y470999D02*
D03*
Y455999D02*
D03*
Y440999D02*
D03*
X526000Y500999D02*
D03*
Y485999D02*
D03*
Y470999D02*
D03*
Y455999D02*
D03*
Y440999D02*
D03*
X511000Y500999D02*
D03*
Y485999D02*
D03*
Y470999D02*
D03*
Y455999D02*
D03*
Y440999D02*
D03*
X496000Y530999D02*
D03*
Y515999D02*
D03*
Y500999D02*
D03*
Y485999D02*
D03*
Y470999D02*
D03*
Y455999D02*
D03*
Y440999D02*
D03*
X481000Y530999D02*
D03*
Y515999D02*
D03*
Y500999D02*
D03*
Y485999D02*
D03*
Y470999D02*
D03*
Y455999D02*
D03*
Y440999D02*
D03*
X796000Y485999D02*
D03*
X811000Y470999D02*
D03*
X826000D02*
D03*
X796000Y500999D02*
D03*
Y530999D02*
D03*
X811000Y500999D02*
D03*
Y485999D02*
D03*
X796000Y590999D02*
D03*
Y620999D02*
D03*
Y605999D02*
D03*
X811000Y530999D02*
D03*
Y545999D02*
D03*
X826000Y515999D02*
D03*
Y485999D02*
D03*
Y560999D02*
D03*
Y530999D02*
D03*
X811000Y605999D02*
D03*
Y590999D02*
D03*
Y620999D02*
D03*
X826000Y590999D02*
D03*
X841000Y485999D02*
D03*
Y470999D02*
D03*
X856000Y485999D02*
D03*
X871000Y470999D02*
D03*
X826000Y545999D02*
D03*
X841000Y530999D02*
D03*
Y560999D02*
D03*
X826000Y605999D02*
D03*
X856000Y515999D02*
D03*
Y500999D02*
D03*
X871000Y545999D02*
D03*
X856000Y620999D02*
D03*
X796000Y635999D02*
D03*
Y650999D02*
D03*
Y665999D02*
D03*
X811000Y650999D02*
D03*
Y665999D02*
D03*
X796000Y815999D02*
D03*
Y830999D02*
D03*
X811000Y860999D02*
D03*
Y635999D02*
D03*
X826000D02*
D03*
Y665999D02*
D03*
Y815999D02*
D03*
X811000D02*
D03*
Y845999D02*
D03*
X826000D02*
D03*
Y830999D02*
D03*
Y860999D02*
D03*
X796000Y890999D02*
D03*
Y875999D02*
D03*
Y920999D02*
D03*
Y905999D02*
D03*
X811000Y875999D02*
D03*
X826000Y920999D02*
D03*
Y875999D02*
D03*
X841000Y650999D02*
D03*
Y845999D02*
D03*
Y830999D02*
D03*
X856000Y845999D02*
D03*
X871000Y815999D02*
D03*
X856000D02*
D03*
X826000Y890999D02*
D03*
X856000Y920999D02*
D03*
X931000Y470999D02*
D03*
X961000D02*
D03*
X886000Y485999D02*
D03*
Y500999D02*
D03*
X901000Y485999D02*
D03*
X886000Y515999D02*
D03*
X901000Y500999D02*
D03*
X886000Y815999D02*
D03*
X901000Y515999D02*
D03*
Y815999D02*
D03*
X916000Y500999D02*
D03*
Y530999D02*
D03*
X946000Y515999D02*
D03*
X886000Y830999D02*
D03*
X916000Y1025999D02*
D03*
Y1010999D02*
D03*
X931000Y1025999D02*
D03*
Y1040999D02*
D03*
X946000Y1025999D02*
D03*
X931000Y1070999D02*
D03*
X946000Y1055999D02*
D03*
X961000Y485999D02*
D03*
X976000D02*
D03*
Y515999D02*
D03*
Y500999D02*
D03*
X961000Y515999D02*
D03*
X976000Y530999D02*
D03*
X991000Y980999D02*
D03*
X976000Y1010999D02*
D03*
X1036000Y545999D02*
D03*
X1051000Y530999D02*
D03*
X991000Y995999D02*
D03*
X1006000Y1010999D02*
D03*
X961000Y1040999D02*
D03*
Y1025999D02*
D03*
Y1070999D02*
D03*
X976000D02*
D03*
Y1085999D02*
D03*
X991000Y1025999D02*
D03*
Y1010999D02*
D03*
X1006000Y1025999D02*
D03*
X1036000D02*
D03*
X991000Y1055999D02*
D03*
Y1040999D02*
D03*
X1006000Y1055999D02*
D03*
X1051000Y545999D02*
D03*
X1036000Y530999D02*
D03*
X991000Y545999D02*
D03*
Y530999D02*
D03*
X976000Y470999D02*
D03*
X961000Y500999D02*
D03*
X946000D02*
D03*
Y485999D02*
D03*
Y470999D02*
D03*
X931000Y530999D02*
D03*
Y515999D02*
D03*
Y500999D02*
D03*
Y485999D02*
D03*
X916000Y515999D02*
D03*
Y485999D02*
D03*
Y470999D02*
D03*
X901000Y530999D02*
D03*
Y470999D02*
D03*
X886000Y530999D02*
D03*
Y470999D02*
D03*
X871000Y530999D02*
D03*
Y515999D02*
D03*
Y500999D02*
D03*
Y485999D02*
D03*
X856000Y665999D02*
D03*
Y650999D02*
D03*
Y635999D02*
D03*
Y605999D02*
D03*
Y590999D02*
D03*
Y575999D02*
D03*
Y560999D02*
D03*
Y545999D02*
D03*
Y530999D02*
D03*
Y470999D02*
D03*
X841000Y665999D02*
D03*
Y635999D02*
D03*
Y620999D02*
D03*
Y605999D02*
D03*
Y590999D02*
D03*
Y575999D02*
D03*
Y545999D02*
D03*
Y515999D02*
D03*
Y500999D02*
D03*
X826000Y650999D02*
D03*
Y620999D02*
D03*
Y575999D02*
D03*
Y500999D02*
D03*
X811000Y575999D02*
D03*
Y560999D02*
D03*
Y515999D02*
D03*
X796000Y575999D02*
D03*
Y560999D02*
D03*
Y545999D02*
D03*
Y515999D02*
D03*
Y470999D02*
D03*
X901000Y830999D02*
D03*
X871000D02*
D03*
X856000Y905999D02*
D03*
Y890999D02*
D03*
Y875999D02*
D03*
Y860999D02*
D03*
Y830999D02*
D03*
X841000Y920999D02*
D03*
Y905999D02*
D03*
Y890999D02*
D03*
Y875999D02*
D03*
Y860999D02*
D03*
Y815999D02*
D03*
X826000Y905999D02*
D03*
X811000Y920999D02*
D03*
Y905999D02*
D03*
Y890999D02*
D03*
Y830999D02*
D03*
X796000Y860999D02*
D03*
Y845999D02*
D03*
X1036000Y1010999D02*
D03*
Y980999D02*
D03*
X1021000Y1040999D02*
D03*
Y1025999D02*
D03*
Y1010999D02*
D03*
X1006000Y1040999D02*
D03*
X991000Y1070999D02*
D03*
X976000Y1055999D02*
D03*
Y1040999D02*
D03*
Y1025999D02*
D03*
Y995999D02*
D03*
X961000Y1085999D02*
D03*
Y1055999D02*
D03*
X946000Y1085999D02*
D03*
Y1070999D02*
D03*
Y1040999D02*
D03*
X931000Y1085999D02*
D03*
Y1055999D02*
D03*
X916000Y1085999D02*
D03*
Y1070999D02*
D03*
Y1055999D02*
D03*
Y1040999D02*
D03*
X436000Y123501D02*
D03*
Y103501D02*
D03*
Y83501D02*
D03*
X416000Y343501D02*
D03*
Y323501D02*
D03*
Y303501D02*
D03*
Y283501D02*
D03*
Y263501D02*
D03*
Y243501D02*
D03*
Y223501D02*
D03*
Y203501D02*
D03*
Y183501D02*
D03*
Y163501D02*
D03*
Y143501D02*
D03*
Y123501D02*
D03*
Y103501D02*
D03*
Y83501D02*
D03*
X396000Y343501D02*
D03*
Y323501D02*
D03*
Y303501D02*
D03*
Y283501D02*
D03*
Y263501D02*
D03*
Y243501D02*
D03*
Y223501D02*
D03*
Y203501D02*
D03*
Y143501D02*
D03*
Y123501D02*
D03*
Y103501D02*
D03*
Y83501D02*
D03*
X376000Y343501D02*
D03*
Y323501D02*
D03*
Y303501D02*
D03*
Y283501D02*
D03*
Y263501D02*
D03*
Y243501D02*
D03*
Y223501D02*
D03*
Y203501D02*
D03*
Y143501D02*
D03*
Y123501D02*
D03*
Y83501D02*
D03*
X356000Y343501D02*
D03*
Y323501D02*
D03*
Y303501D02*
D03*
Y283501D02*
D03*
Y263501D02*
D03*
Y243501D02*
D03*
Y223501D02*
D03*
Y203501D02*
D03*
Y143501D02*
D03*
Y123501D02*
D03*
Y83501D02*
D03*
X336000Y343501D02*
D03*
Y323501D02*
D03*
Y303501D02*
D03*
Y283501D02*
D03*
Y263501D02*
D03*
Y243501D02*
D03*
Y223501D02*
D03*
Y203501D02*
D03*
Y143501D02*
D03*
Y123501D02*
D03*
Y103501D02*
D03*
Y83501D02*
D03*
X316000Y343501D02*
D03*
Y323501D02*
D03*
Y303501D02*
D03*
Y283501D02*
D03*
Y263501D02*
D03*
Y243501D02*
D03*
Y223501D02*
D03*
Y203501D02*
D03*
Y183501D02*
D03*
Y163501D02*
D03*
Y143501D02*
D03*
Y123501D02*
D03*
Y103501D02*
D03*
X736000Y665999D02*
D03*
Y650999D02*
D03*
Y635999D02*
D03*
Y620999D02*
D03*
Y605999D02*
D03*
Y590999D02*
D03*
Y575999D02*
D03*
Y560999D02*
D03*
Y545999D02*
D03*
Y530999D02*
D03*
X721000Y665999D02*
D03*
Y650999D02*
D03*
Y635999D02*
D03*
Y620999D02*
D03*
Y605999D02*
D03*
Y590999D02*
D03*
Y575999D02*
D03*
Y560999D02*
D03*
Y545999D02*
D03*
Y530999D02*
D03*
X706000Y665999D02*
D03*
Y650999D02*
D03*
Y635999D02*
D03*
Y620999D02*
D03*
Y605999D02*
D03*
Y590999D02*
D03*
Y575999D02*
D03*
Y560999D02*
D03*
Y545999D02*
D03*
Y530999D02*
D03*
X691000Y665999D02*
D03*
Y650999D02*
D03*
Y635999D02*
D03*
Y620999D02*
D03*
Y605999D02*
D03*
Y590999D02*
D03*
Y575999D02*
D03*
Y560999D02*
D03*
Y545999D02*
D03*
Y530999D02*
D03*
X676000Y665999D02*
D03*
Y650999D02*
D03*
Y635999D02*
D03*
Y620999D02*
D03*
Y605999D02*
D03*
Y590999D02*
D03*
Y575999D02*
D03*
Y560999D02*
D03*
Y545999D02*
D03*
Y530999D02*
D03*
X661000Y650999D02*
D03*
Y635999D02*
D03*
Y620999D02*
D03*
Y605999D02*
D03*
Y590999D02*
D03*
Y575999D02*
D03*
Y560999D02*
D03*
Y545999D02*
D03*
Y530999D02*
D03*
X646000Y650999D02*
D03*
Y635999D02*
D03*
Y620999D02*
D03*
Y605999D02*
D03*
Y590999D02*
D03*
Y575999D02*
D03*
Y560999D02*
D03*
Y545999D02*
D03*
X631000Y650999D02*
D03*
Y635999D02*
D03*
Y620999D02*
D03*
Y605999D02*
D03*
Y590999D02*
D03*
Y575999D02*
D03*
Y560999D02*
D03*
X616000Y650999D02*
D03*
Y635999D02*
D03*
Y620999D02*
D03*
Y605999D02*
D03*
Y590999D02*
D03*
Y575999D02*
D03*
Y560999D02*
D03*
X601000Y635999D02*
D03*
Y620999D02*
D03*
Y605999D02*
D03*
Y590999D02*
D03*
Y575999D02*
D03*
Y560999D02*
D03*
Y545999D02*
D03*
X586000Y560999D02*
D03*
Y545999D02*
D03*
X571000Y560999D02*
D03*
X541000D02*
D03*
Y545999D02*
D03*
X166000Y926002D02*
D03*
X186000D02*
D03*
Y986002D02*
D03*
X206000Y966002D02*
D03*
Y986002D02*
D03*
Y1006002D02*
D03*
X226000Y926002D02*
D03*
Y946002D02*
D03*
Y966002D02*
D03*
Y986002D02*
D03*
Y1006002D02*
D03*
X246000Y946002D02*
D03*
Y986002D02*
D03*
X266000Y926002D02*
D03*
Y966002D02*
D03*
Y1006002D02*
D03*
X286000Y926002D02*
D03*
Y966002D02*
D03*
Y1006002D02*
D03*
X306000Y926002D02*
D03*
Y946002D02*
D03*
Y966002D02*
D03*
X326000Y926002D02*
D03*
Y946002D02*
D03*
Y986002D02*
D03*
Y1006002D02*
D03*
X346000Y926002D02*
D03*
Y946002D02*
D03*
Y966002D02*
D03*
Y1006002D02*
D03*
X366000Y926002D02*
D03*
Y966002D02*
D03*
Y1006002D02*
D03*
X386000Y926002D02*
D03*
Y946002D02*
D03*
Y966002D02*
D03*
Y986002D02*
D03*
X1186001Y946002D02*
D03*
X1206001Y986002D02*
D03*
X1226001Y966002D02*
D03*
Y986002D02*
D03*
Y1006002D02*
D03*
X1246001Y926002D02*
D03*
Y946002D02*
D03*
Y986002D02*
D03*
X1266001Y926002D02*
D03*
Y946002D02*
D03*
Y986002D02*
D03*
X1306001Y966002D02*
D03*
Y986002D02*
D03*
Y1006002D02*
D03*
X1326001Y926002D02*
D03*
Y946002D02*
D03*
Y986002D02*
D03*
X1346001Y926002D02*
D03*
Y1006002D02*
D03*
X1366001Y986002D02*
D03*
Y1006002D02*
D03*
X1386001D02*
D03*
X1204998Y749998D02*
D03*
X1155000Y667500D02*
D03*
X1142500Y657500D02*
D03*
X1262500D02*
D03*
X1277500D02*
D03*
X451000Y920999D02*
D03*
Y935999D02*
D03*
Y950999D02*
D03*
X466000Y920999D02*
D03*
Y935999D02*
D03*
Y950999D02*
D03*
X481000Y920999D02*
D03*
Y935999D02*
D03*
Y950999D02*
D03*
X496000Y920999D02*
D03*
Y935999D02*
D03*
Y950999D02*
D03*
X511000Y935999D02*
D03*
Y950999D02*
D03*
X526000Y935999D02*
D03*
Y950999D02*
D03*
X541000Y935999D02*
D03*
Y950999D02*
D03*
X571000D02*
D03*
X541000Y830999D02*
D03*
Y845999D02*
D03*
Y875999D02*
D03*
X556000Y830999D02*
D03*
Y845999D02*
D03*
Y860999D02*
D03*
X571000Y830999D02*
D03*
Y845999D02*
D03*
Y860999D02*
D03*
X586000Y830999D02*
D03*
Y845999D02*
D03*
Y860999D02*
D03*
Y875999D02*
D03*
X601000Y830999D02*
D03*
Y845999D02*
D03*
Y860999D02*
D03*
Y875999D02*
D03*
X616000Y830999D02*
D03*
Y845999D02*
D03*
Y860999D02*
D03*
Y890999D02*
D03*
X631000Y830999D02*
D03*
Y845999D02*
D03*
Y860999D02*
D03*
Y890999D02*
D03*
X646000Y830999D02*
D03*
Y845999D02*
D03*
X661000Y830999D02*
D03*
Y845999D02*
D03*
Y860999D02*
D03*
X676000Y815999D02*
D03*
Y830999D02*
D03*
Y845999D02*
D03*
Y860999D02*
D03*
Y875999D02*
D03*
X691000Y815999D02*
D03*
Y830999D02*
D03*
Y845999D02*
D03*
Y860999D02*
D03*
Y875999D02*
D03*
X706000Y815999D02*
D03*
Y830999D02*
D03*
Y845999D02*
D03*
Y860999D02*
D03*
Y875999D02*
D03*
X721000Y815999D02*
D03*
Y830999D02*
D03*
Y845999D02*
D03*
Y860999D02*
D03*
Y875999D02*
D03*
X736000Y815999D02*
D03*
Y830999D02*
D03*
Y845999D02*
D03*
Y860999D02*
D03*
Y875999D02*
D03*
X377250Y742750D02*
D03*
X392500Y742500D02*
D03*
X165000Y332500D02*
D03*
X220000Y325000D02*
D03*
X1366001Y1906002D02*
D03*
Y1926002D02*
D03*
Y1946002D02*
D03*
Y2006002D02*
D03*
X1386001D02*
D03*
X1426001Y1906002D02*
D03*
Y1926002D02*
D03*
Y1946002D02*
D03*
Y1966002D02*
D03*
X1446001Y1926002D02*
D03*
Y1966002D02*
D03*
X1466001Y1946002D02*
D03*
Y1986002D02*
D03*
X1486001Y1906002D02*
D03*
Y1946002D02*
D03*
Y1966002D02*
D03*
Y1986002D02*
D03*
Y2006002D02*
D03*
X1346001Y1706002D02*
D03*
Y1726002D02*
D03*
Y1746002D02*
D03*
Y1786002D02*
D03*
Y1806002D02*
D03*
X1366001Y1686002D02*
D03*
Y1706002D02*
D03*
Y1726002D02*
D03*
Y1786002D02*
D03*
Y1806002D02*
D03*
X1386001Y1706002D02*
D03*
Y1766002D02*
D03*
X1406001Y1706002D02*
D03*
Y1746002D02*
D03*
Y1766002D02*
D03*
Y1806002D02*
D03*
X1426001Y1706002D02*
D03*
Y1786002D02*
D03*
X1446001Y1686002D02*
D03*
Y1706002D02*
D03*
Y1766002D02*
D03*
Y1786002D02*
D03*
X1206001Y1666002D02*
D03*
Y1686002D02*
D03*
X1246001Y1606002D02*
D03*
Y1666002D02*
D03*
Y1686002D02*
D03*
X1266001Y1626002D02*
D03*
Y1646002D02*
D03*
X1286001Y1626002D02*
D03*
Y1646002D02*
D03*
Y1666002D02*
D03*
X1346001Y1686002D02*
D03*
Y1306002D02*
D03*
Y1326002D02*
D03*
Y1346002D02*
D03*
X1366001D02*
D03*
X1386001Y1246002D02*
D03*
Y1266002D02*
D03*
Y1326002D02*
D03*
X1406001Y1246002D02*
D03*
Y1346002D02*
D03*
X1426001Y1286002D02*
D03*
Y1306002D02*
D03*
X1446001Y1266002D02*
D03*
Y1286002D02*
D03*
Y1326002D02*
D03*
X1206001Y1886002D02*
D03*
Y1946002D02*
D03*
Y1966002D02*
D03*
Y2026002D02*
D03*
X1226001Y1926002D02*
D03*
X1246001D02*
D03*
Y1946002D02*
D03*
Y1986002D02*
D03*
Y2026002D02*
D03*
X1266001Y1886002D02*
D03*
Y1946002D02*
D03*
Y2046002D02*
D03*
X1286001Y1906002D02*
D03*
Y1926002D02*
D03*
Y2006002D02*
D03*
Y2046002D02*
D03*
X1306001Y1886002D02*
D03*
Y1946002D02*
D03*
Y2046002D02*
D03*
X1346001Y1486002D02*
D03*
Y1506002D02*
D03*
Y1526002D02*
D03*
Y1566002D02*
D03*
X1366001Y1546002D02*
D03*
X1386001Y1486002D02*
D03*
Y1546002D02*
D03*
X1406001D02*
D03*
X1426001Y1486002D02*
D03*
Y1546002D02*
D03*
X1446001Y1486002D02*
D03*
Y1546002D02*
D03*
Y1566002D02*
D03*
X1486001Y1686002D02*
D03*
Y1706002D02*
D03*
Y1766002D02*
D03*
Y1786002D02*
D03*
X1506001Y1686002D02*
D03*
Y1706002D02*
D03*
Y1726002D02*
D03*
Y1746002D02*
D03*
Y1766002D02*
D03*
Y1786002D02*
D03*
X1526001Y1686002D02*
D03*
Y1706002D02*
D03*
Y1766002D02*
D03*
Y1786002D02*
D03*
X1546001Y1686002D02*
D03*
Y1706002D02*
D03*
Y1766002D02*
D03*
Y1786002D02*
D03*
X1486001Y1466002D02*
D03*
Y1486002D02*
D03*
Y1546002D02*
D03*
Y1566002D02*
D03*
X1506001Y1466002D02*
D03*
Y1486002D02*
D03*
Y1506002D02*
D03*
Y1526002D02*
D03*
Y1546002D02*
D03*
Y1566002D02*
D03*
X1526001Y1466002D02*
D03*
Y1486002D02*
D03*
Y1546002D02*
D03*
Y1566002D02*
D03*
X1546001Y1466002D02*
D03*
Y1486002D02*
D03*
Y1546002D02*
D03*
Y1566002D02*
D03*
X1146001Y1246002D02*
D03*
Y1266002D02*
D03*
X1166001Y1226002D02*
D03*
Y1246002D02*
D03*
Y1286002D02*
D03*
X1186001Y1246002D02*
D03*
Y1266002D02*
D03*
X1206001Y1206002D02*
D03*
Y1226002D02*
D03*
Y1246002D02*
D03*
Y1266002D02*
D03*
X1226001Y1206002D02*
D03*
Y1226002D02*
D03*
Y1266002D02*
D03*
Y1286002D02*
D03*
X1266001Y1206002D02*
D03*
X1006000Y620999D02*
D03*
Y635999D02*
D03*
Y650999D02*
D03*
X1021000Y620999D02*
D03*
Y635999D02*
D03*
Y650999D02*
D03*
X1036000Y590999D02*
D03*
Y620999D02*
D03*
Y635999D02*
D03*
Y650999D02*
D03*
X1051000Y590999D02*
D03*
Y605999D02*
D03*
Y620999D02*
D03*
Y635999D02*
D03*
Y650999D02*
D03*
X1066000Y590999D02*
D03*
Y605999D02*
D03*
Y620999D02*
D03*
Y635999D02*
D03*
Y650999D02*
D03*
X1081000Y575999D02*
D03*
Y590999D02*
D03*
Y605999D02*
D03*
Y620999D02*
D03*
Y635999D02*
D03*
Y650999D02*
D03*
X1096000Y560999D02*
D03*
Y575999D02*
D03*
Y590999D02*
D03*
Y605999D02*
D03*
Y620999D02*
D03*
Y635999D02*
D03*
Y650999D02*
D03*
X1111000Y560999D02*
D03*
Y575999D02*
D03*
Y620999D02*
D03*
Y635999D02*
D03*
Y650999D02*
D03*
X1066001Y1526002D02*
D03*
Y1546002D02*
D03*
Y1566002D02*
D03*
X1106001Y1546002D02*
D03*
X1126001D02*
D03*
X1106001Y1566002D02*
D03*
X1086001Y1586002D02*
D03*
X1126001D02*
D03*
X1086001Y1606002D02*
D03*
X1146001Y1626002D02*
D03*
X1066001Y1586002D02*
D03*
Y1606002D02*
D03*
X1086001Y1526002D02*
D03*
Y1546002D02*
D03*
Y1566002D02*
D03*
X1106001Y1526002D02*
D03*
Y1586002D02*
D03*
X1126001Y1526002D02*
D03*
Y1566002D02*
D03*
X1146001D02*
D03*
Y1586002D02*
D03*
Y1606002D02*
D03*
X246000Y1166002D02*
D03*
Y1186002D02*
D03*
Y1246002D02*
D03*
Y1266002D02*
D03*
Y1286002D02*
D03*
X266000Y1166002D02*
D03*
Y1246002D02*
D03*
Y1266002D02*
D03*
Y1286002D02*
D03*
X286000Y1166002D02*
D03*
Y1186002D02*
D03*
Y1206002D02*
D03*
Y1226002D02*
D03*
Y1246002D02*
D03*
Y1266002D02*
D03*
Y1286002D02*
D03*
X306000Y1166002D02*
D03*
Y1186002D02*
D03*
Y1206002D02*
D03*
Y1226002D02*
D03*
Y1246002D02*
D03*
Y1266002D02*
D03*
Y1286002D02*
D03*
X326000Y1166002D02*
D03*
Y1186002D02*
D03*
Y1206002D02*
D03*
Y1226002D02*
D03*
Y1246002D02*
D03*
Y1266002D02*
D03*
Y1286002D02*
D03*
D45*
X442500Y710000D02*
D03*
X42500Y200000D02*
D03*
X45000Y160000D02*
D03*
X1182500Y712500D02*
D03*
X1232500Y712500D02*
D03*
X1451000Y178500D02*
D03*
X1475000Y227500D02*
D03*
X1530000Y250000D02*
D03*
X1417500Y325000D02*
D03*
X1425000Y457500D02*
D03*
X1442500Y325000D02*
D03*
X1353750Y322500D02*
D03*
X1345000Y365000D02*
D03*
X1412500Y362500D02*
D03*
X1455000Y145000D02*
D03*
X1400000Y165000D02*
D03*
X1355000Y247500D02*
D03*
X1415000D02*
D03*
X1422500Y227500D02*
D03*
X1390000Y210000D02*
D03*
X1430000Y180000D02*
D03*
X1122500Y722500D02*
D03*
X1172500Y697500D02*
D03*
X1247500Y495000D02*
D03*
X1262500Y475000D02*
D03*
X1235000Y690000D02*
D03*
X1209469Y682500D02*
D03*
X1260000Y725000D02*
D03*
X367500Y712500D02*
D03*
X422500Y710000D02*
D03*
X312500D02*
D03*
X125000Y432500D02*
D03*
Y335000D02*
D03*
X147500Y365000D02*
D03*
X145000Y420000D02*
D03*
X1442500Y432500D02*
D03*
X1400000Y496500D02*
D03*
X1332500Y475000D02*
D03*
X177500Y487500D02*
D03*
X245000Y467500D02*
D03*
X170000Y365000D02*
D03*
X237500D02*
D03*
X337500Y487500D02*
D03*
Y670000D02*
D03*
X360000Y487500D02*
D03*
X370000Y672500D02*
D03*
X110000Y200000D02*
D03*
Y165000D02*
D03*
X127500Y240000D02*
D03*
X143000Y227000D02*
D03*
X152500Y262500D02*
D03*
X222500D02*
D03*
X188750Y211250D02*
D03*
D46*
X720000Y901250D02*
D03*
Y958750D02*
D03*
X892500Y1006250D02*
D03*
Y948750D02*
D03*
X905000Y648750D02*
D03*
Y591250D02*
D03*
D47*
X566250Y395957D02*
D03*
X623750D02*
D03*
D48*
X178500Y442500D02*
D03*
X146500D02*
D03*
X1398500Y362500D02*
D03*
X1366500D02*
D03*
X1456000Y475000D02*
D03*
X1424000D02*
D03*
X1501000Y145000D02*
D03*
X1469000D02*
D03*
X221000Y365000D02*
D03*
X189000D02*
D03*
X61000Y220775D02*
D03*
X93000D02*
D03*
X62000Y138775D02*
D03*
X94000D02*
D03*
D49*
X1510000Y281000D02*
D03*
Y249000D02*
D03*
D50*
X955250Y885000D02*
D03*
X914750D02*
D03*
D51*
X615000Y962000D02*
D03*
Y1002500D02*
D03*
X955543Y531707D02*
D03*
Y572207D02*
D03*
X622500Y535250D02*
D03*
Y494750D02*
D03*
D52*
X197500Y792750D02*
D03*
Y747250D02*
D03*
X485000Y777750D02*
D03*
Y732250D02*
D03*
X1365000Y770250D02*
D03*
Y724750D02*
D03*
X1082500Y765250D02*
D03*
Y719750D02*
D03*
D53*
X495000Y400000D02*
D03*
Y342500D02*
D03*
X472500Y1148750D02*
D03*
Y1091250D02*
D03*
X1070000Y1151250D02*
D03*
Y1093750D02*
D03*
D54*
X1093750Y425000D02*
D03*
X1151250D02*
D03*
D55*
X1205250Y765000D02*
D03*
X1189750D02*
D03*
X392750Y755000D02*
D03*
X377250D02*
D03*
D56*
X662500Y959850D02*
D03*
Y900150D02*
D03*
X947500Y957650D02*
D03*
Y1017350D02*
D03*
X962500Y592650D02*
D03*
Y652350D02*
D03*
D57*
X629850Y452500D02*
D03*
X570150D02*
D03*
M02*
