M48
;Layer_Color=9474304
;FILE_FORMAT=4:4
METRIC,LZ
;TYPE=PLATED
T1F00S00C0.5000
T2F00S00C0.7000
T3F00S00C0.8000
T4F00S00C1.2000
T5F00S00C1.5000
T6F00S00C1.8000
T7F00S00C2.2000
T8F00S00C3.0000
%
T01
X00336Y00083501
X00356
X00376
X00396
X00416
X00436
Y00103501
Y00123501
X00416
Y00103501
X00396
Y00123501
X00376
X00356
X00336
Y00103501
X00316
Y00123501
X01146001Y00126001
X01166001
Y00106001
X01186001
X01206001
X01226001
X01246001
Y00126001
X01226001
Y00086001
X01246001
X01206001
X01186001
X01166001
X01146001
Y00106001
Y00146001
X01166001
X01186001
X01206001
X01226001
X01246001
Y00166001
Y00186001
Y00206001
Y00226001
Y00246001
Y00266001
Y00286001
X01226001
Y00266001
Y00246001
Y00226001
Y00206001
X01206001
Y00226001
Y00246001
Y00266001
Y00286001
X01186001
Y00266001
Y00246001
Y00226001
Y00206001
X01166001
Y00226001
Y00246001
Y00266001
Y00286001
X01146001
Y00266001
Y00246001
Y00226001
Y00206001
Y00186001
Y00166001
X01186001
X01206001
X00976Y00470999
X00961
Y00485999
X00976
Y00500999
Y00515999
X00961
X00946
Y00500999
X00961
X00946Y00485999
Y00470999
X00931
Y00485999
Y00500999
X00916
X00901
X00886
Y00485999
X00901
X00916
Y00470999
X00901
X00886
X00871
Y00485999
X00856
X00841
X00826
Y00470999
X00811
Y00485999
X00796
Y00500999
X00811
X00826
Y00515999
X00841
X00856
Y00500999
X00871
Y00515999
X00886
X00901
X00916
X00931
X00841Y00500999
Y00470999
X00856
X00796
Y00515999
X00811
X00541Y00500999
Y00485999
Y00470999
X00556
Y00455999
Y00440999
X00541
Y00455999
X00526
Y00470999
Y00485999
Y00500999
X00511
Y00485999
Y00470999
Y00455999
Y00440999
X00526
X00496
Y00455999
Y00470999
Y00485999
Y00500999
Y00515999
X00481
Y00500999
Y00485999
Y00470999
Y00455999
Y00440999
X00416Y00343501
Y00323501
Y00303501
Y00283501
Y00263501
Y00243501
Y00223501
Y00203501
Y00183501
Y00163501
Y00143501
X00396
X00376
X00356
X00336
X00316
Y00163501
Y00183501
Y00203501
X00336
X00356
X00376
X00396
Y00223501
Y00243501
Y00263501
Y00283501
Y00303501
Y00323501
Y00343501
X00376
Y00323501
Y00303501
Y00283501
Y00263501
Y00243501
Y00223501
X00356
Y00243501
Y00263501
Y00283501
Y00303501
Y00323501
Y00343501
X00336
Y00323501
Y00303501
Y00283501
Y00263501
Y00243501
Y00223501
X00316
Y00243501
Y00263501
Y00283501
Y00303501
Y00323501
Y00343501
X0022Y00325
X00165Y003325
X00481Y00530999
X00496
X003925Y007425
X0037725Y0074275
X00451Y00920999
X00466
X00481
X00496
X00541Y00875999
Y00845999
Y00830999
X00556
Y00845999
Y00860999
X00571
Y00845999
Y00830999
X00586
Y00845999
Y00860999
Y00875999
X00601
X00616
X00631
X00646
X00661
Y00860999
X00646
X00631
X00616
X00601
Y00845999
Y00830999
X00616
Y00845999
X00631
Y00830999
X00646
Y00845999
X00661
Y00830999
X00676
Y00815999
X00691
Y00830999
Y00845999
X00676
Y00860999
Y00875999
X00691
Y00860999
X00706
Y00845999
Y00830999
Y00815999
X00721
Y00830999
Y00845999
Y00860999
Y00875999
X00706
X00736
Y00860999
Y00845999
Y00830999
Y00815999
X00796
Y00830999
X00811
Y00815999
X00826
Y00830999
Y00845999
X00811
Y00860999
X00826
Y00875999
X00811
X00796
Y00890999
Y00905999
Y00920999
X00811
X00826
X00841
X00856
Y00905999
Y00890999
Y00875999
Y00860999
Y00845999
X00841
Y00830999
X00856
Y00815999
X00871
X00886
X00901
Y00830999
X00886
X00871
X00841Y00815999
Y00860999
Y00875999
Y00890999
X00826
Y00905999
X00841
X00811
Y00890999
X00796Y00860999
Y00845999
Y00665999
Y00650999
Y00635999
Y00620999
Y00605999
Y00590999
X00811
Y00605999
Y00620999
Y00635999
Y00650999
Y00665999
X00826
X00841
Y00650999
X00856
Y00665999
Y00635999
Y00620999
Y00605999
Y00590999
Y00575999
Y00560999
X00841
X00826
Y00545999
X00811
Y00530999
X00796
Y00545999
Y00560999
X00811
Y00575999
X00826
Y00590999
Y00605999
X00841
Y00620999
Y00635999
X00826
Y00650999
Y00620999
X00841Y00590999
Y00575999
Y00545999
Y00530999
X00826
X00856
X00871
Y00545999
X00856
X00886Y00530999
X00901
X00916
X00931
X00796Y00575999
X00736
Y00590999
Y00605999
Y00620999
Y00635999
Y00650999
Y00665999
X00721
Y00650999
Y00635999
Y00620999
Y00605999
Y00590999
Y00575999
Y00560999
X00736
Y00545999
Y00530999
X00721
Y00545999
X00706
Y00560999
Y00575999
Y00590999
Y00605999
Y00620999
Y00635999
Y00650999
Y00665999
X00691
Y00650999
Y00635999
Y00620999
Y00605999
Y00590999
Y00575999
Y00560999
Y00545999
Y00530999
X00706
X00676
Y00545999
Y00560999
Y00575999
Y00590999
Y00605999
Y00620999
Y00635999
Y00650999
Y00665999
X00661Y00650999
Y00635999
Y00620999
Y00605999
Y00590999
Y00575999
Y00560999
Y00545999
Y00530999
X00646Y00545999
Y00560999
Y00575999
Y00590999
Y00605999
Y00620999
Y00635999
Y00650999
X00631
Y00635999
Y00620999
Y00605999
Y00590999
Y00575999
Y00560999
X00616
Y00575999
Y00590999
Y00605999
Y00620999
Y00635999
Y00650999
X00601Y00635999
Y00620999
Y00605999
Y00590999
Y00575999
Y00560999
Y00545999
X00586
Y00560999
X00571
X00541
Y00545999
X00616Y00890999
Y00905999
X00631
Y00890999
X00961Y00905999
X00976
Y00920999
X00991
X01036
X01051
X01066
X01081
X01096
X01111
X01126
Y00905999
X01111
X01096
X01081
X01066
Y00650999
X01051
X01036
X01021
X01006
Y00635999
Y00620999
X01021
Y00635999
X01036
Y00620999
X01051
Y00605999
Y00590999
X01036
X01066
Y00605999
Y00620999
Y00635999
X01051
X01081
Y00620999
Y00605999
Y00590999
Y00575999
X01096
Y00560999
X01111
Y00575999
X01096Y00590999
Y00605999
Y00620999
Y00635999
Y00650999
X01081
X01111
Y00635999
Y00620999
X011425Y006575
X01155Y006675
X0119Y0075
X01204998Y00749998
X012625Y006575
X012775
X01051Y00545999
X01036
Y00530999
X01051
X00991
X00976
X00991Y00545999
X01346001Y00926002
Y00946002
Y00966002
Y00986002
Y01006002
X01366001
Y00986002
Y00966002
Y00946002
Y00926002
X01386001Y00966002
Y00986002
Y01006002
Y01246002
Y01266002
X01406001
X01426001
Y01246002
X01446001
Y01266002
Y01286002
Y01306002
X01426001
X01406001
X01386001
X01366001
X01346001
X01386001Y01286002
X01406001
X01426001
X01406001Y01246002
X01266001Y01226002
X01246001
Y01206002
X01226001
X01206001
X01186001
X01166001
X01146001
Y01226002
Y01246002
Y01266002
X01166001
Y01246002
Y01226002
X01186001
Y01246002
Y01266002
Y01286002
X01206001
Y01266002
Y01246002
X01226001
Y01226002
X01206001
X01226001Y01266002
Y01286002
X01166001
X01146001
X01266001Y01206002
Y01006002
X01246001
X01226001
X01206001
X01186001
Y00986002
Y00966002
X01206001
Y00946002
Y00926002
X01226001
Y00946002
Y00966002
X01246001
X01266001
X01286001
Y00946002
Y00926002
X01306001
Y00946002
Y00966002
X01326001
Y00946002
Y00926002
X01266001
X01246001
Y00946002
X01266001
Y00986002
X01286001
Y01006002
X01306001
X01326001
Y00986002
X01306001
X01246001
X01226001
X01206001
X01186001Y00946002
Y00926002
X01126Y00935999
Y00950999
X01111
Y00935999
X01096
Y00950999
X01081
Y00935999
X01066
X01051
X01036
X00991
Y00980999
Y00995999
Y01010999
X00976
Y01025999
X00961
X00946
Y01040999
Y01055999
X00961
Y01040999
X00976
X00991
Y01025999
X01006
Y01010999
X01021
X01036
Y01025999
X01021
Y01040999
X01006
Y01055999
X00991
Y01070999
X00976
X00961
Y01085999
X00976
Y01055999
X00946Y01070999
Y01085999
X00976Y00995999
X01036Y00980999
X00916Y01010999
Y01025999
X00931
Y01040999
Y01055999
Y01070999
Y01085999
X00916
Y01070999
Y01055999
Y01040999
X00571Y00950999
X00541
Y00935999
X00526
X00511
X00496
X00481
X00466
X00451
Y00950999
X00466
X00481
X00496
X00511
X00526
X00386Y00946002
X00366
X00346
X00326
Y00966002
X00306
Y00986002
X00286
X00266
X00246
Y00966002
X00226
X00206
Y00946002
Y00926002
X00186
X00166
Y00946002
Y00986002
X00186
Y01006002
X00206
Y00986002
X00226
Y01006002
X00246
X00266
X00286
X00306
X00326
Y00986002
X00346
X00366
Y00966002
X00346
Y00926002
X00326
X00306
X00286
Y00946002
X00266
X00246
Y00926002
X00226
Y00946002
X00266Y00926002
Y00966002
X00286
X00306Y00946002
X00366Y00926002
X00386
Y00966002
Y00986002
Y01006002
X00366
X00346
X00326Y01166002
X00306
X00286
X00266
X00246
Y01186002
X00286
Y01206002
Y01226002
Y01246002
X00266
X00246
Y01266002
Y01286002
X00266
Y01266002
X00286
Y01286002
X00306
Y01266002
Y01246002
Y01226002
Y01206002
Y01186002
X00326
Y01206002
Y01226002
Y01246002
Y01266002
Y01286002
X00186
Y01306002
X00166
Y01286002
Y01266002
X00186
Y01246002
Y01226002
Y01206002
X00166Y01246002
X00146
Y01266002
Y01286002
Y01306002
X00126
Y01286002
Y01266002
Y01246002
Y01226002
Y01206002
X00106
Y01226002
Y01246002
Y01266002
Y01286002
Y01306002
X00086
Y01286002
Y01266002
Y01246002
Y01226002
Y01206002
X00066
Y01226002
Y01246002
Y01266002
Y01286002
Y01306002
X00046
Y01286002
Y01266002
Y01246002
Y01226002
Y01206002
X00086Y01326002
X00106
X00126
X00146
X00166
X00186
X00206Y01506002
X00226
X00246
X00266
X00286
Y01526002
Y01546002
Y01566002
X00306
X00326
X00346
Y01586002
Y01606002
Y01626002
X00326
Y01606002
Y01586002
X00306
Y01606002
Y01626002
X00286
Y01606002
Y01586002
X00266
Y01606002
Y01626002
X00246
Y01606002
Y01586002
Y01566002
X00266
Y01546002
Y01526002
X00246
Y01546002
X00226
Y01566002
Y01586002
Y01606002
Y01626002
X00206
Y01606002
Y01586002
Y01566002
Y01546002
Y01526002
X00226
X00326Y01506002
X00406
X00426
X00446
X00466
X00486
Y01526002
Y01546002
Y01566002
Y01586002
Y01606002
X00466
Y01586002
Y01566002
Y01546002
Y01526002
Y01486002
X00486
Y01466002
X00466
X00446
Y01486002
X00426
Y01466002
X00406
Y01486002
Y01566002
X00426
X00446
Y01586002
Y01606002
X00426
Y01586002
X00406
Y01606002
X00446Y01546002
X01066001
Y01526002
X01086001
Y01546002
X01106001
X01126001
Y01526002
X01106001
Y01566002
X01086001
X01066001
Y01586002
X01086001
Y01606002
X01066001
X01106001Y01586002
X01126001
Y01566002
X01146001
Y01586002
Y01606002
Y01626002
X01206001Y01646002
X01226001
Y01666002
Y01686002
X01206001
Y01666002
X01246001
Y01646002
Y01626002
Y01606002
X01266001
X01286001
Y01626002
X01266001
Y01646002
Y01666002
Y01686002
X01286001
Y01666002
Y01646002
X01246001Y01686002
X01346001
Y01706002
X01366001
Y01686002
X01386001
X01406001
X01426001
Y01706002
X01406001
X01386001
X01446001
Y01686002
X01486001
Y01706002
X01506001
Y01686002
X01526001
Y01706002
X01546001
Y01686002
Y01566002
X01526001
X01506001
X01486001
Y01546002
X01506001
Y01526002
Y01506002
Y01486002
X01486001
Y01466002
X01506001
X01526001
Y01486002
X01546001
Y01466002
Y01546002
X01526001
X01446001
X01426001
Y01566002
X01406001
Y01586002
X01386001
X01366001
X01346001Y01566002
Y01546002
Y01526002
Y01506002
Y01486002
X01366001
X01386001
X01406001
Y01506002
Y01526002
Y01546002
X01386001
X01366001
X01426001Y01586002
X01446001Y01566002
Y01486002
X01426001
Y01346002
Y01326002
X01406001
X01386001
X01366001
X01346001
Y01346002
X01366001
X01386001
X01406001
X01446001Y01326002
X01406001Y01726002
Y01746002
Y01766002
X01426001
Y01786002
X01406001
X01386001
Y01806002
X01366001
X01346001
Y01786002
Y01766002
X01366001
Y01786002
X01386001Y01766002
X01346001Y01746002
Y01726002
X01366001
X01406001Y01806002
X01426001
X01446001
Y01786002
Y01766002
X01486001
Y01786002
X01506001
Y01766002
Y01746002
Y01726002
X01526001Y01766002
Y01786002
X01546001
Y01766002
X01486001Y01906002
X01466001
X01446001
X01426001
X01406001
X01386001
Y01926002
X01406001
X01426001
Y01946002
X01446001
Y01926002
X01466001
X01486001
Y01946002
X01466001
Y01966002
X01446001
Y01986002
X01426001
Y02006002
X01406001
X01386001
X01366001
Y01946002
Y01926002
Y01906002
X01426001Y01966002
X01446001Y02006002
X01466001
Y01986002
X01486001
Y01966002
Y02006002
X01306001
Y02026002
X01286001
X01266001
Y02006002
Y01986002
X01246001
X01226001
Y01966002
Y01946002
X01206001
Y01926002
Y01906002
X01226001
Y01886002
X01246001
Y01906002
X01266001
Y01926002
X01246001
X01226001
X01246001Y01946002
Y01966002
Y02006002
X01226001
X01206001
Y01986002
Y01966002
Y02026002
Y02046002
X01226001
Y02026002
X01246001
Y02046002
X01266001
X01286001
X01306001
X01286001Y02006002
X01266001Y01946002
X01286001Y01926002
X01306001
Y01906002
X01286001
Y01886002
X01266001
X01306001
Y01946002
X01206001Y01886002
X00326
Y01906002
Y01926002
Y01946002
X00306
Y01926002
Y01906002
Y01886002
Y01866002
X00326
Y01846002
Y01826002
X00306
Y01846002
X00286
Y01866002
Y01886002
Y01906002
Y01926002
Y01946002
X00266
Y01926002
Y01906002
Y01886002
X00246
Y01906002
Y01926002
Y01946002
X00186Y01926002
Y01906002
Y01886002
Y01866002
Y01846002
Y01826002
X00166Y01806002
X00146
Y01886002
X00166
Y01906002
Y01926002
Y01946002
X00146
Y01926002
Y01906002
X00286Y01826002
X00126
Y01846002
Y01866002
Y01886002
Y01906002
Y01926002
Y01946002
X00106
Y01926002
Y01906002
Y01886002
Y01866002
Y01846002
Y01826002
Y01806002
X00126
X00086
Y01826002
Y01846002
Y01866002
Y01886002
Y01906002
Y01926002
Y01946002
X00066
Y01926002
Y01906002
Y01886002
Y01866002
Y01846002
Y01826002
Y01806002
X00046Y01826002
Y01846002
Y01866002
Y01886002
Y01906002
Y01926002
T02
X014Y00165
X0143Y0018
X01451Y001785
X01455Y00145
X01475Y002275
X014225
X01415Y002475
X01355
X0139Y0021
X014175Y00325
X014425
X014125Y003625
X01345Y00365
X0135375Y003225
X014425Y004325
X01425Y004575
X014Y004965
X0153Y0025
X013325Y00475
X012625
X012475Y00495
X0036Y004875
X003375
X00245Y004675
X001775Y004875
X00145Y0042
X001475Y00365
X0017
X002375
X002225Y002625
X001525
X00143Y00227
X0018875Y0021125
X0011Y002
Y00165
X00045Y0016
X000425Y002
X001275Y0024
X00125Y00335
Y004325
X003375Y0067
X0037Y006725
X003675Y007125
X004225Y0071
X004425
X003125
X011225Y007225
X011825Y007125
X011725Y006975
X01209469Y006825
X01235Y0069
X012325Y007125
X0126Y00725
T03
X00069923Y0011
X00090002
X0011
X00130002
X00150001
X00169999
X01395001Y0011
X01414999
X01434998
X01455
X01474998
X01495077
X01475Y0025
Y002754
Y003516
Y00377
Y004024
X0006Y00397575
Y00372175
Y00346775
Y00270575
Y00245175
T04
X0018Y00585
X0139Y0056
Y00935
X0018Y0096
T05
X011717Y0018
X012225
X010185Y0049025
X005595
X003975Y0017
X003467
X005595Y0054475
Y0059925
Y0088025
X010185
Y0059925
Y0054475
Y0093475
Y0098925
X005595
Y0093475
X007225Y015592
Y0161
X015125Y014108
Y0136
X009475Y01885401
Y01925
Y01964599
T06
X01385Y0152
X01435
X01485
X01535
Y0174
X01485
X01435
X01385
T07
X013575Y012675
X012575
X0026Y0121
X0016
X00325Y0153
X00425
X0112Y01615
X0122
X0139Y0197
X0129
X0026Y01845
X0016
T08
X00963501Y001765
X00615501Y001755
Y0071475
X006155Y0076475
X009635Y0076575
X00963501Y0071575
X009635Y01305
X006155Y01304
M30
