G04 Layer_Color=65535*
%FSLAX44Y44*%
%MOMM*%
G71*
G01*
G75*
%ADD58C,0.6000*%
%ADD59C,0.2500*%
%ADD60C,0.1270*%
%ADD61C,0.2032*%
%ADD62C,0.2540*%
%ADD63C,0.2000*%
%ADD64C,0.1998*%
%ADD65C,0.1524*%
%ADD66C,0.4000*%
%ADD67C,0.1000*%
%ADD68C,0.1500*%
%ADD69R,16.5000X8.4500*%
%ADD70R,40.0000X15.0000*%
D58*
X1373000Y289000D02*
G03*
X1373000Y289000I-3000J0D01*
G01*
X178000Y286500D02*
G03*
X178000Y286500I-3000J0D01*
G01*
X1159500Y759000D02*
G03*
X1159500Y759000I-3000J0D01*
G01*
X349500Y749000D02*
G03*
X349500Y749000I-3000J0D01*
G01*
D59*
X1358700Y267750D02*
G03*
X1358700Y267750I-1250J0D01*
G01*
X163700Y265250D02*
G03*
X163700Y265250I-1250J0D01*
G01*
X1404750Y447000D02*
G03*
X1404750Y447000I-1250J0D01*
G01*
X242250Y429500D02*
G03*
X242250Y429500I-1250J0D01*
G01*
X1144650Y737750D02*
G03*
X1144650Y737750I-1250J0D01*
G01*
X334650Y727750D02*
G03*
X334650Y727750I-1250J0D01*
G01*
X675024Y2043639D02*
X680023D01*
X677523D01*
Y2028644D01*
X675024D01*
X680023D01*
X687520D02*
Y2038641D01*
X695018D01*
X697517Y2036142D01*
Y2028644D01*
X702515Y2038641D02*
X707514Y2028644D01*
X712512Y2038641D01*
X725008Y2028644D02*
X720010D01*
X717511Y2031143D01*
Y2036142D01*
X720010Y2038641D01*
X725008D01*
X727507Y2036142D01*
Y2033642D01*
X717511D01*
X732506Y2038641D02*
Y2028644D01*
Y2033642D01*
X735005Y2036142D01*
X737504Y2038641D01*
X740003D01*
X750000Y2041140D02*
Y2038641D01*
X747501D01*
X752499D01*
X750000D01*
Y2031143D01*
X752499Y2028644D01*
X762496D02*
X767494D01*
X769994Y2031143D01*
Y2036142D01*
X767494Y2038641D01*
X762496D01*
X759997Y2036142D01*
Y2031143D01*
X762496Y2028644D01*
X774992Y2038641D02*
Y2028644D01*
Y2033642D01*
X777491Y2036142D01*
X779990Y2038641D01*
X782489D01*
X789987Y2026145D02*
X799984D01*
X804982Y2038641D02*
X809981Y2028644D01*
X814979Y2038641D01*
X819977Y2028644D02*
X824976D01*
X822477D01*
Y2043639D01*
X819977Y2041140D01*
X612500Y1997002D02*
Y2011998D01*
X619997D01*
X622497Y2009498D01*
Y2004500D01*
X619997Y2002001D01*
X612500D01*
X617498D02*
X622497Y1997002D01*
X627495D02*
X632494D01*
X629994D01*
Y2011998D01*
X627495Y2009498D01*
X639991D02*
X642490Y2011998D01*
X647489D01*
X649988Y2009498D01*
Y1999502D01*
X647489Y1997002D01*
X642490D01*
X639991Y1999502D01*
Y2009498D01*
X654986D02*
X657485Y2011998D01*
X662484D01*
X664983Y2009498D01*
Y1999502D01*
X662484Y1997002D01*
X657485D01*
X654986Y1999502D01*
Y2009498D01*
X669981Y1997002D02*
Y1999502D01*
X672480D01*
Y1997002D01*
X669981D01*
X692474D02*
X682477D01*
X692474Y2006999D01*
Y2009498D01*
X689975Y2011998D01*
X684977D01*
X682477Y2009498D01*
X697473D02*
X699972Y2011998D01*
X704970D01*
X707469Y2009498D01*
Y2006999D01*
X704970Y2004500D01*
X702471D01*
X704970D01*
X707469Y2002001D01*
Y1999502D01*
X704970Y1997002D01*
X699972D01*
X697473Y1999502D01*
X712468Y2009498D02*
X714967Y2011998D01*
X719965D01*
X722464Y2009498D01*
Y1999502D01*
X719965Y1997002D01*
X714967D01*
X712468Y1999502D01*
Y2009498D01*
X727463Y1997002D02*
Y1999502D01*
X729962D01*
Y1997002D01*
X727463D01*
X739959Y2009498D02*
X742458Y2011998D01*
X747456D01*
X749956Y2009498D01*
Y1999502D01*
X747456Y1997002D01*
X742458D01*
X739959Y1999502D01*
Y2009498D01*
X754954Y1997002D02*
X759952D01*
X757453D01*
Y2011998D01*
X754954Y2009498D01*
X767450D02*
X769949Y2011998D01*
X774947D01*
X777447Y2009498D01*
Y1999502D01*
X774947Y1997002D01*
X769949D01*
X767450Y1999502D01*
Y2009498D01*
X782445Y1997002D02*
Y1999502D01*
X784944D01*
Y1997002D01*
X782445D01*
X794941Y2009498D02*
X797440Y2011998D01*
X802439D01*
X804938Y2009498D01*
Y1999502D01*
X802439Y1997002D01*
X797440D01*
X794941Y1999502D01*
Y2009498D01*
X809936D02*
X812435Y2011998D01*
X817434D01*
X819933Y2009498D01*
Y1999502D01*
X817434Y1997002D01*
X812435D01*
X809936Y1999502D01*
Y2009498D01*
X824931D02*
X827430Y2011998D01*
X832429D01*
X834928Y2009498D01*
Y1999502D01*
X832429Y1997002D01*
X827430D01*
X824931Y1999502D01*
Y2009498D01*
X839926Y2004500D02*
X849923D01*
X854921Y2009498D02*
X857421Y2011998D01*
X862419D01*
X864918Y2009498D01*
Y1999502D01*
X862419Y1997002D01*
X857421D01*
X854921Y1999502D01*
Y2009498D01*
X869917D02*
X872416Y2011998D01*
X877414D01*
X879913Y2009498D01*
Y1999502D01*
X877414Y1997002D01*
X872416D01*
X869917Y1999502D01*
Y2009498D01*
X642536Y2071992D02*
X637538D01*
X635038Y2069493D01*
Y2059496D01*
X637538Y2056997D01*
X642536D01*
X645035Y2059496D01*
Y2069493D01*
X642536Y2071992D01*
X650034D02*
Y2056997D01*
X660030D01*
X665029Y2071992D02*
X675025D01*
X670027D01*
Y2056997D01*
X690021Y2071992D02*
X680024D01*
Y2056997D01*
X690021D01*
X680024Y2064495D02*
X685022D01*
X705016Y2069493D02*
X702517Y2071992D01*
X697518D01*
X695019Y2069493D01*
Y2066994D01*
X697518Y2064495D01*
X702517D01*
X705016Y2061995D01*
Y2059496D01*
X702517Y2056997D01*
X697518D01*
X695019Y2059496D01*
X710014Y2071992D02*
X720011D01*
X715013D01*
Y2056997D01*
X740004D02*
X745003D01*
X742504D01*
Y2071992D01*
X740004Y2069493D01*
X752500Y2056997D02*
X757499D01*
X755000D01*
Y2071992D01*
X752500Y2069493D01*
X764996Y2056997D02*
Y2059496D01*
X767495D01*
Y2056997D01*
X764996D01*
X777492Y2069493D02*
X779992Y2071992D01*
X784990D01*
X787489Y2069493D01*
Y2059496D01*
X784990Y2056997D01*
X779992D01*
X777492Y2059496D01*
Y2069493D01*
X799985Y2056997D02*
Y2071992D01*
X792487Y2064495D01*
X802484D01*
X807483Y2056997D02*
Y2059496D01*
X809982D01*
Y2056997D01*
X807483D01*
X829975D02*
X819979D01*
X829975Y2066994D01*
Y2069493D01*
X827476Y2071992D01*
X822478D01*
X819979Y2069493D01*
X834974D02*
X837473Y2071992D01*
X842471D01*
X844970Y2069493D01*
Y2059496D01*
X842471Y2056997D01*
X837473D01*
X834974Y2059496D01*
Y2069493D01*
X849969Y2056997D02*
X854967D01*
X852468D01*
Y2071992D01*
X849969Y2069493D01*
X862465Y2059496D02*
X864964Y2056997D01*
X869962D01*
X872462Y2059496D01*
Y2069493D01*
X869962Y2071992D01*
X864964D01*
X862465Y2069493D01*
Y2066994D01*
X864964Y2064495D01*
X872462D01*
D60*
X550000Y1530000D02*
G03*
X550000Y1530000I-175000J0D01*
G01*
X1515000Y1970000D02*
G03*
X1515000Y1970000I-175000J0D01*
G01*
X1345000Y1615000D02*
G03*
X1345000Y1615000I-175000J0D01*
G01*
X1482500Y1267500D02*
G03*
X1482500Y1267500I-175000J0D01*
G01*
X385000Y1845000D02*
G03*
X385000Y1845000I-175000J0D01*
G01*
Y1210000D02*
G03*
X385000Y1210000I-175000J0D01*
G01*
X914480Y1885401D02*
Y1965411D01*
X896700D02*
X914480D01*
X896700Y1885401D02*
Y1965411D01*
Y1885401D02*
X914480D01*
X1433750Y335000D02*
Y385000D01*
X1456250D01*
Y335000D02*
Y385000D01*
X1433750Y335000D02*
X1456250D01*
X113750Y340000D02*
Y390000D01*
X136250D01*
Y340000D02*
Y390000D01*
X113750Y340000D02*
X136250D01*
X87589Y74503D02*
Y86501D01*
Y74503D02*
X151588D01*
Y86501D01*
X87589D02*
X151588D01*
X99848D02*
Y93503D01*
Y86501D02*
X140848D01*
Y93503D01*
X99848D02*
X140848D01*
X1477411Y133499D02*
Y145497D01*
X1413412D02*
X1477411D01*
X1413412Y133499D02*
Y145497D01*
Y133499D02*
X1477411D01*
X1465152Y126497D02*
Y133499D01*
X1424152D02*
X1465152D01*
X1424152Y126497D02*
Y133499D01*
Y126497D02*
X1465152D01*
X1152750Y850750D02*
X1202250D01*
Y819500D02*
Y850750D01*
X1152750Y819500D02*
X1202250D01*
X1152750D02*
Y850750D01*
X342750Y840750D02*
X392250D01*
Y809500D02*
Y840750D01*
X342750Y809500D02*
X392250D01*
X342750D02*
Y840750D01*
X318650Y1558030D02*
X331350D01*
X325000Y1551680D02*
Y1564380D01*
X1383650Y1941970D02*
X1396350D01*
X1390000Y1935620D02*
Y1948320D01*
X1213650Y1586970D02*
X1226350D01*
X1220000Y1580620D02*
Y1593320D01*
X1351150Y1239470D02*
X1363850D01*
X1357500Y1233120D02*
Y1245820D01*
X153650Y1873030D02*
X166350D01*
X160000Y1866680D02*
Y1879380D01*
X153650Y1238030D02*
X166350D01*
X160000Y1231680D02*
Y1244380D01*
D61*
X927180Y1865903D02*
X995760D01*
X927180D02*
Y1984461D01*
X995760D01*
Y1865903D02*
Y1984461D01*
X927002Y1874903D02*
Y1975571D01*
X914480D02*
X927002D01*
X914480Y1874903D02*
Y1975571D01*
Y1874903D02*
X927002D01*
X1497260Y1344760D02*
Y1426040D01*
Y1344760D02*
X1527740D01*
Y1426040D01*
X1497260D02*
X1527740D01*
X331460Y185240D02*
X412740D01*
X331460Y154760D02*
Y185240D01*
Y154760D02*
X412740D01*
Y185240D01*
X737740Y1543960D02*
Y1625240D01*
X707260D02*
X737740D01*
X707260Y1543960D02*
Y1625240D01*
Y1543960D02*
X737740D01*
X1156460Y195240D02*
X1237740D01*
X1156460Y164760D02*
Y195240D01*
Y164760D02*
X1237740D01*
Y195240D01*
D62*
X998500Y1884651D02*
X1008500Y1874651D01*
Y1894651D01*
X998500Y1884651D02*
X1008500Y1894651D01*
X1525800Y410020D02*
Y425260D01*
X1459760D02*
X1525800D01*
X1459760Y224600D02*
Y425260D01*
Y224600D02*
X1525800D01*
Y410020D01*
X110800Y405195D02*
Y420435D01*
X44760D02*
X110800D01*
X44760Y219775D02*
Y420435D01*
Y219775D02*
X110800D01*
Y405195D01*
X1539250Y1702500D02*
X1549250Y1692500D01*
X1529250D02*
X1549250D01*
X1529250D02*
X1539250Y1702500D01*
X1378000Y1705000D02*
Y1720000D01*
X1545000D01*
Y1705000D02*
Y1720000D01*
X1362250Y1705000D02*
X1560000D01*
X1362250D02*
Y1790000D01*
X1560000D01*
Y1705000D02*
Y1790000D01*
X1370750Y1567500D02*
X1380750Y1557500D01*
X1370750Y1567500D02*
X1390750D01*
X1380750Y1557500D02*
X1390750Y1567500D01*
X1542000Y1540000D02*
Y1555000D01*
X1375000Y1540000D02*
X1542000D01*
X1375000D02*
Y1555000D01*
X1360000D02*
X1557750D01*
Y1470000D02*
Y1555000D01*
X1360000Y1470000D02*
X1557750D01*
X1360000D02*
Y1555000D01*
X1156750Y482500D02*
Y507500D01*
X1247500Y801750D02*
X1272500D01*
X1110000Y801750D02*
X1135000D01*
X1136750Y847500D02*
Y872500D01*
X418250Y597500D02*
Y622500D01*
X435000Y789250D02*
X460000D01*
X300000Y794250D02*
X325000D01*
X418250Y972500D02*
Y997500D01*
X169499Y142250D02*
X179499Y152250D01*
X159499D02*
X179499D01*
X159499D02*
X169499Y142250D01*
X1385501Y67750D02*
X1395501Y77750D01*
X1385501Y67750D02*
X1405501D01*
X1395501Y77750D02*
X1405501Y67750D01*
X189750Y1521750D02*
Y1534250D01*
X183500Y1528250D02*
X196000D01*
X1525250Y1965750D02*
Y1978250D01*
X1519000Y1971750D02*
X1531500D01*
X1355250Y1610750D02*
Y1623250D01*
X1349000Y1616750D02*
X1361500D01*
X1492750Y1263250D02*
Y1275750D01*
X1486500Y1269250D02*
X1499000D01*
X24750Y1836750D02*
Y1849250D01*
X18500Y1843250D02*
X31000D01*
X24750Y1201750D02*
Y1214250D01*
X18500Y1208250D02*
X31000D01*
X791001Y155750D02*
X937251D01*
X791001D02*
Y735750D01*
X937251D01*
Y155750D02*
Y735750D01*
X1111001D01*
X937501Y155750D02*
X1111001D01*
Y735750D01*
X641751Y735500D02*
X788001D01*
Y155500D02*
Y735500D01*
X641751Y155500D02*
X788001D01*
X641751D02*
Y735500D01*
X468001Y155500D02*
X641751D01*
X468001Y735500D02*
X641501D01*
X468001Y155500D02*
Y735500D01*
X791000Y745000D02*
X937250D01*
X791000D02*
Y1325000D01*
X937250D01*
Y745000D02*
Y1325000D01*
X1111000D01*
X937500Y745000D02*
X1111000D01*
Y1325000D01*
X641751Y1324750D02*
X788001D01*
Y744750D02*
Y1324750D01*
X641751Y744750D02*
X788001D01*
X641751D02*
Y1324750D01*
X468000Y744750D02*
X641751D01*
X468000Y1324750D02*
X641500D01*
X468000Y744750D02*
Y1324750D01*
X1290000Y540000D02*
X1490000D01*
X1290000D02*
Y955000D01*
X1384986D01*
X1490000D01*
Y540000D02*
Y955000D01*
X80000Y565000D02*
X280000D01*
X80000D02*
Y980000D01*
X174986D01*
X280000D01*
Y565000D02*
Y980000D01*
D63*
X1410000Y279000D02*
Y311000D01*
X1360000Y279000D02*
Y311000D01*
X1410000D01*
X1360000Y279000D02*
X1410000D01*
X215000Y276500D02*
Y308500D01*
X165000Y276500D02*
Y308500D01*
X215000D01*
X165000Y276500D02*
X215000D01*
X1093500Y509000D02*
X1146500D01*
X1093500Y481000D02*
X1146500D01*
X1093500Y506750D02*
Y509000D01*
X1146500Y506750D02*
Y509000D01*
X1093500Y481000D02*
Y483250D01*
X1146500Y481000D02*
Y483250D01*
X1246000Y738500D02*
Y791500D01*
X1274000Y738500D02*
Y791500D01*
X1246000Y738500D02*
X1248250D01*
X1246000Y791500D02*
X1248250D01*
X1271750Y738500D02*
X1274000D01*
X1271750Y791500D02*
X1274000D01*
X1108500Y738500D02*
Y791500D01*
X1136500Y738500D02*
Y791500D01*
X1108500Y738500D02*
X1110750D01*
X1108500Y791500D02*
X1110750D01*
X1134250Y738500D02*
X1136500D01*
X1134250Y791500D02*
X1136500D01*
X1073500Y874000D02*
X1126500D01*
X1073500Y846000D02*
X1126500D01*
X1073500Y871750D02*
Y874000D01*
X1126500Y871750D02*
Y874000D01*
X1073500Y846000D02*
Y848250D01*
X1126500Y846000D02*
Y848250D01*
X428500Y596000D02*
X481500D01*
X428500Y624000D02*
X481500D01*
Y596000D02*
Y598250D01*
X428500Y596000D02*
Y598250D01*
X481500Y621750D02*
Y624000D01*
X428500Y621750D02*
Y624000D01*
X433500Y726000D02*
Y779000D01*
X461500Y726000D02*
Y779000D01*
X433500Y726000D02*
X435750D01*
X433500Y779000D02*
X435750D01*
X459250Y726000D02*
X461500D01*
X459250Y779000D02*
X461500D01*
X298500Y731000D02*
Y784000D01*
X326500Y731000D02*
Y784000D01*
X298500Y731000D02*
X300750D01*
X298500Y784000D02*
X300750D01*
X324250Y731000D02*
X326500D01*
X324250Y784000D02*
X326500D01*
X428500Y971000D02*
X481500D01*
X428500Y999000D02*
X481500D01*
Y971000D02*
Y973250D01*
X428500Y971000D02*
Y973250D01*
X481500Y996750D02*
Y999000D01*
X428500Y996750D02*
Y999000D01*
X1336500Y404500D02*
Y430500D01*
X1403500Y404500D02*
Y430500D01*
X1336500Y404500D02*
X1403500D01*
X1336500Y430500D02*
X1403500D01*
X174000Y387000D02*
Y413000D01*
X241000Y387000D02*
Y413000D01*
X174000Y387000D02*
X241000D01*
X174000Y413000D02*
X241000D01*
X1170000Y822000D02*
X1185000D01*
X1170000Y848000D02*
X1185000D01*
X360000Y812000D02*
X375000D01*
X360000Y838000D02*
X375000D01*
X996500Y855250D02*
Y1014250D01*
X991500Y855250D02*
Y1014250D01*
X1044500Y855250D02*
Y1014250D01*
X991500Y855250D02*
X1044500D01*
X991500Y1014250D02*
X1044500D01*
X581500Y855250D02*
Y1014250D01*
X586500Y855250D02*
Y1014250D01*
X533500Y855250D02*
Y1014250D01*
X586500D01*
X533500Y855250D02*
X586500D01*
X581500Y465250D02*
Y624250D01*
X586500Y465250D02*
Y624250D01*
X533500Y465250D02*
Y624250D01*
X586500D01*
X533500Y465250D02*
X586500D01*
X996500D02*
Y624250D01*
X991500Y465250D02*
Y624250D01*
X1044500Y465250D02*
Y624250D01*
X991500Y465250D02*
X1044500D01*
X991500Y624250D02*
X1044500D01*
X1146500Y749000D02*
X1233500D01*
X1146500Y781000D02*
X1233500D01*
X1146500Y749000D02*
Y781000D01*
X1233500Y749000D02*
Y781000D01*
X336500Y739000D02*
X423500D01*
X336500Y771000D02*
X423500D01*
X336500Y739000D02*
Y771000D01*
X423500Y739000D02*
Y771000D01*
D64*
X48587Y139498D02*
X191496D01*
Y84503D02*
Y139498D01*
X173496Y84503D02*
X191496D01*
X173496D02*
Y93503D01*
X86501D02*
X173496D01*
X65351Y93490D02*
X86501Y93503D01*
X65351Y84503D02*
Y93490D01*
X48587Y84503D02*
X65351D01*
X48587D02*
Y139498D01*
X1373504Y80502D02*
X1516413D01*
X1373504D02*
Y135497D01*
X1391504D01*
Y126497D02*
Y135497D01*
Y126497D02*
X1478499D01*
X1499649Y126510D01*
Y135497D01*
X1516413D01*
Y80502D02*
Y135497D01*
D65*
X1461000Y152250D02*
X1518750D01*
Y218000D01*
X1461000Y152250D02*
Y218000D01*
X1518750D01*
X48000Y149025D02*
X105750D01*
Y214775D01*
X48000Y149025D02*
Y214775D01*
X105750D01*
X1444441Y326750D02*
Y331828D01*
X1441902Y329289D02*
X1446980D01*
X124441Y331750D02*
Y336828D01*
X121902Y334289D02*
X126980D01*
X1079500Y495059D02*
X1084578D01*
X1082039Y497598D02*
Y492520D01*
X1259941Y724500D02*
Y729578D01*
X1257402Y727039D02*
X1262480D01*
X1122441Y724500D02*
Y729578D01*
X1119902Y727039D02*
X1124980D01*
X1059500Y860059D02*
X1064578D01*
X1062039Y862598D02*
Y857520D01*
X495500Y609941D02*
X490422D01*
X492961Y607402D02*
Y612480D01*
X447441Y712000D02*
Y717078D01*
X444902Y714539D02*
X449980D01*
X312441Y717000D02*
Y722078D01*
X309902Y719539D02*
X314980D01*
X495500Y984941D02*
X490422D01*
X492961Y982402D02*
Y987480D01*
D66*
X1524000Y165000D02*
Y205000D01*
X111000Y161775D02*
Y201775D01*
D67*
X1421000Y148500D02*
X1424000D01*
X1421000Y156500D02*
X1424000D01*
X1437000Y145500D02*
Y159500D01*
X1408000D02*
X1437000D01*
X1408000Y145500D02*
Y159500D01*
Y145500D02*
X1437000D01*
X133500Y176500D02*
X136500D01*
X133500Y168500D02*
X136500D01*
X120500Y165500D02*
Y179500D01*
Y165500D02*
X149500D01*
Y179500D01*
X120500D02*
X149500D01*
X1371000Y481000D02*
X1374000D01*
X1371000Y489000D02*
X1374000D01*
X1387000Y478000D02*
Y492000D01*
X1358000D02*
X1387000D01*
X1358000Y478000D02*
Y492000D01*
Y478000D02*
X1387000D01*
X1399043Y231000D02*
Y234000D01*
X1391042Y231000D02*
Y234000D01*
X1388042Y247000D02*
X1402043D01*
X1388042Y218000D02*
Y247000D01*
Y218000D02*
X1402043D01*
Y247000D01*
X1381500Y231000D02*
Y234000D01*
X1373500Y231000D02*
Y234000D01*
X1370500Y247000D02*
X1384500D01*
X1370500Y218000D02*
Y247000D01*
Y218000D02*
X1384500D01*
Y247000D01*
X211000Y476000D02*
X214000D01*
X211000Y484000D02*
X214000D01*
X227000Y473000D02*
Y487000D01*
X198000D02*
X227000D01*
X198000Y473000D02*
Y487000D01*
Y473000D02*
X227000D01*
X201500Y231000D02*
Y234000D01*
X193500Y231000D02*
Y234000D01*
X190500Y247000D02*
X204500D01*
X190500Y218000D02*
Y247000D01*
Y218000D02*
X204500D01*
Y247000D01*
X184000Y231000D02*
Y234000D01*
X176000Y231000D02*
Y234000D01*
X173000Y247000D02*
X187000D01*
X173000Y218000D02*
Y247000D01*
Y218000D02*
X187000D01*
Y247000D01*
X1395750Y171750D02*
Y198250D01*
X1409250D01*
Y171750D02*
Y198250D01*
X1395750Y171750D02*
X1409250D01*
X1398250Y184000D02*
Y186000D01*
X1406750Y183000D02*
Y187000D01*
X1398250Y183000D02*
Y184000D01*
Y186000D02*
Y187000D01*
X1373250Y171750D02*
Y198250D01*
X1386750D01*
Y171750D02*
Y198250D01*
X1373250Y171750D02*
X1386750D01*
X1375750Y184000D02*
Y186000D01*
X1384250Y183000D02*
Y187000D01*
X1375750Y183000D02*
Y184000D01*
Y186000D02*
Y187000D01*
X190750Y169250D02*
Y195750D01*
X204250D01*
Y169250D02*
Y195750D01*
X190750Y169250D02*
X204250D01*
X193250Y181500D02*
Y183500D01*
X201750Y180500D02*
Y184500D01*
X193250Y180500D02*
Y181500D01*
Y183500D02*
Y184500D01*
X168250Y169250D02*
Y195750D01*
X181750D01*
Y169250D02*
Y195750D01*
X168250Y169250D02*
X181750D01*
X170750Y181500D02*
Y183500D01*
X179250Y180500D02*
Y184500D01*
X170750Y180500D02*
Y181500D01*
Y183500D02*
Y184500D01*
X118500Y406000D02*
Y414000D01*
X131500Y406000D02*
Y414000D01*
X115750Y426750D02*
X134250D01*
X115750Y393250D02*
Y426750D01*
Y393250D02*
X134250D01*
Y426750D01*
X1438500Y401000D02*
Y409000D01*
X1451500Y401000D02*
Y409000D01*
X1435750Y421750D02*
X1454250D01*
X1435750Y388250D02*
Y421750D01*
Y388250D02*
X1454250D01*
Y421750D01*
X1112000Y589250D02*
X1158000D01*
X1112000D02*
Y610750D01*
X1158000D01*
Y589250D02*
Y610750D01*
X1130500Y608250D02*
X1139500D01*
X1130500Y591750D02*
X1139500D01*
X1092000Y514250D02*
X1138000D01*
X1092000D02*
Y535750D01*
X1138000D01*
Y514250D02*
Y535750D01*
X1110500Y533250D02*
X1119500D01*
X1110500Y516750D02*
X1119500D01*
X1112000Y989250D02*
X1158000D01*
X1112000D02*
Y1010750D01*
X1158000D01*
Y989250D02*
Y1010750D01*
X1130500Y1008250D02*
X1139500D01*
X1130500Y991750D02*
X1139500D01*
X1069500Y819250D02*
X1115500D01*
X1069500D02*
Y840750D01*
X1115500D01*
Y819250D02*
Y840750D01*
X1088000Y838250D02*
X1097000D01*
X1088000Y821750D02*
X1097000D01*
X427000Y500750D02*
X473000D01*
Y479250D02*
Y500750D01*
X427000Y479250D02*
X473000D01*
X427000D02*
Y500750D01*
X445500Y481750D02*
X454500D01*
X445500Y498250D02*
X454500D01*
X437000Y585750D02*
X483000D01*
Y564250D02*
Y585750D01*
X437000Y564250D02*
X483000D01*
X437000D02*
Y585750D01*
X455500Y566750D02*
X464500D01*
X455500Y583250D02*
X464500D01*
X454500Y875750D02*
X500500D01*
Y854250D02*
Y875750D01*
X454500Y854250D02*
X500500D01*
X454500D02*
Y875750D01*
X473000Y856750D02*
X482000D01*
X473000Y873250D02*
X482000D01*
X434500Y1023250D02*
X480500D01*
Y1001750D02*
Y1023250D01*
X434500Y1001750D02*
X480500D01*
X434500D02*
Y1023250D01*
X453000Y1004250D02*
X462000D01*
X453000Y1020750D02*
X462000D01*
D68*
X1153958Y58084D02*
X1150626D01*
X1148960Y56418D01*
Y49753D01*
X1150626Y48087D01*
X1153958D01*
X1155624Y49753D01*
Y56418D01*
X1153958Y58084D01*
X1158957Y54751D02*
Y49753D01*
X1160623Y48087D01*
X1165621D01*
Y54751D01*
X1170620Y56418D02*
Y54751D01*
X1168953D01*
X1172286D01*
X1170620D01*
Y49753D01*
X1172286Y48087D01*
X1177284Y46421D02*
X1183949D01*
X1193945Y48087D02*
X1187281D01*
X1193945Y54751D01*
Y56418D01*
X1192279Y58084D01*
X1188947D01*
X1187281Y56418D01*
X1190000Y129997D02*
X1196665Y120000D01*
Y129997D02*
X1190000Y120000D01*
X1206661Y129997D02*
X1203329Y128331D01*
X1199997Y124998D01*
Y121666D01*
X1201663Y120000D01*
X1204995D01*
X1206661Y121666D01*
Y123332D01*
X1204995Y124998D01*
X1199997D01*
X707826Y1642937D02*
X714491Y1632940D01*
Y1642937D02*
X707826Y1632940D01*
X717823Y1634606D02*
X719489Y1632940D01*
X722821D01*
X724487Y1634606D01*
Y1641271D01*
X722821Y1642937D01*
X719489D01*
X717823Y1641271D01*
Y1639604D01*
X719489Y1637938D01*
X724487D01*
X360000Y109997D02*
X366665Y100000D01*
Y109997D02*
X360000Y100000D01*
X376661Y109997D02*
X369997D01*
Y104998D01*
X373329Y106664D01*
X374995D01*
X376661Y104998D01*
Y101666D01*
X374995Y100000D01*
X371663D01*
X369997Y101666D01*
X945000Y2024997D02*
X951665Y2015000D01*
Y2024997D02*
X945000Y2015000D01*
X959995D02*
Y2024997D01*
X954997Y2019998D01*
X961661D01*
X1415003Y1440000D02*
X1425000Y1446664D01*
X1415003D02*
X1425000Y1440000D01*
Y1456661D02*
Y1449997D01*
X1418336Y1456661D01*
X1416669D01*
X1415003Y1454995D01*
Y1451663D01*
X1416669Y1449997D01*
X1510003Y1292500D02*
X1520000Y1299164D01*
X1510003D02*
X1520000Y1292500D01*
X1511669Y1302497D02*
X1510003Y1304163D01*
Y1307495D01*
X1511669Y1309161D01*
X1513336D01*
X1515002Y1307495D01*
Y1305829D01*
Y1307495D01*
X1516668Y1309161D01*
X1518334D01*
X1520000Y1307495D01*
Y1304163D01*
X1518334Y1302497D01*
X1520003Y1810000D02*
X1530000Y1816664D01*
X1520003D02*
X1530000Y1810000D01*
Y1819997D02*
Y1823329D01*
Y1821663D01*
X1520003D01*
X1521669Y1819997D01*
X1010000Y454997D02*
Y448332D01*
X1013332Y445000D01*
X1016665Y448332D01*
Y454997D01*
X1019997D02*
X1026661D01*
X1023329D01*
Y445000D01*
X1034992D02*
Y454997D01*
X1029994Y449998D01*
X1036658D01*
X537500Y644997D02*
Y638332D01*
X540832Y635000D01*
X544165Y638332D01*
Y644997D01*
X547497D02*
X554161D01*
X550829D01*
Y635000D01*
X557494Y643331D02*
X559160Y644997D01*
X562492D01*
X564158Y643331D01*
Y641665D01*
X562492Y639998D01*
X560826D01*
X562492D01*
X564158Y638332D01*
Y636666D01*
X562492Y635000D01*
X559160D01*
X557494Y636666D01*
X545000Y1037497D02*
Y1030832D01*
X548332Y1027500D01*
X551665Y1030832D01*
Y1037497D01*
X554997D02*
X561661D01*
X558329D01*
Y1027500D01*
X564994D02*
X568326D01*
X566660D01*
Y1037497D01*
X564994Y1035831D01*
X1050000Y1022497D02*
Y1015832D01*
X1053332Y1012500D01*
X1056665Y1015832D01*
Y1022497D01*
X1059997D02*
X1066661D01*
X1063329D01*
Y1012500D01*
X1076658D02*
X1069994D01*
X1076658Y1019165D01*
Y1020831D01*
X1074992Y1022497D01*
X1071660D01*
X1069994Y1020831D01*
X512500Y1352497D02*
Y1342500D01*
Y1347498D01*
X519165D01*
Y1352497D01*
Y1342500D01*
X529161Y1350831D02*
X527495Y1352497D01*
X524163D01*
X522497Y1350831D01*
Y1349164D01*
X524163Y1347498D01*
X527495D01*
X529161Y1345832D01*
Y1344166D01*
X527495Y1342500D01*
X524163D01*
X522497Y1344166D01*
X537492Y1342500D02*
Y1352497D01*
X532494Y1347498D01*
X539158D01*
X1050000Y1349997D02*
Y1340000D01*
Y1344998D01*
X1056665D01*
Y1349997D01*
Y1340000D01*
X1066661Y1348331D02*
X1064995Y1349997D01*
X1061663D01*
X1059997Y1348331D01*
Y1346664D01*
X1061663Y1344998D01*
X1064995D01*
X1066661Y1343332D01*
Y1341666D01*
X1064995Y1340000D01*
X1061663D01*
X1059997Y1341666D01*
X1069994Y1348331D02*
X1071660Y1349997D01*
X1074992D01*
X1076658Y1348331D01*
Y1346664D01*
X1074992Y1344998D01*
X1073326D01*
X1074992D01*
X1076658Y1343332D01*
Y1341666D01*
X1074992Y1340000D01*
X1071660D01*
X1069994Y1341666D01*
X430000Y684997D02*
Y675000D01*
Y679998D01*
X436665D01*
Y684997D01*
Y675000D01*
X446661Y683331D02*
X444995Y684997D01*
X441663D01*
X439997Y683331D01*
Y681665D01*
X441663Y679998D01*
X444995D01*
X446661Y678332D01*
Y676666D01*
X444995Y675000D01*
X441663D01*
X439997Y676666D01*
X456658Y675000D02*
X449994D01*
X456658Y681665D01*
Y683331D01*
X454992Y684997D01*
X451660D01*
X449994Y683331D01*
X1120000Y707497D02*
Y697500D01*
Y702498D01*
X1126665D01*
Y707497D01*
Y697500D01*
X1136661Y705831D02*
X1134995Y707497D01*
X1131663D01*
X1129997Y705831D01*
Y704165D01*
X1131663Y702498D01*
X1134995D01*
X1136661Y700832D01*
Y699166D01*
X1134995Y697500D01*
X1131663D01*
X1129997Y699166D01*
X1139994Y697500D02*
X1143326D01*
X1141660D01*
Y707497D01*
X1139994Y705831D01*
X294169Y594165D02*
X292503Y592498D01*
Y589166D01*
X294169Y587500D01*
X300834D01*
X302500Y589166D01*
Y592498D01*
X300834Y594165D01*
X302500Y597497D02*
Y600829D01*
Y599163D01*
X292503D01*
X294169Y597497D01*
X292503Y605827D02*
Y612492D01*
X294169D01*
X300834Y605827D01*
X302500D01*
X1266669Y869165D02*
X1265003Y867498D01*
Y864166D01*
X1266669Y862500D01*
X1273334D01*
X1275000Y864166D01*
Y867498D01*
X1273334Y869165D01*
X1275000Y872497D02*
Y875829D01*
Y874163D01*
X1265003D01*
X1266669Y872497D01*
X1265003Y887492D02*
Y880827D01*
X1270002D01*
X1268335Y884160D01*
Y885826D01*
X1270002Y887492D01*
X1273334D01*
X1275000Y885826D01*
Y882494D01*
X1273334Y880827D01*
X14169Y1274165D02*
X12503Y1272498D01*
Y1269166D01*
X14169Y1267500D01*
X20834D01*
X22500Y1269166D01*
Y1272498D01*
X20834Y1274165D01*
X22500Y1277497D02*
Y1280829D01*
Y1279163D01*
X12503D01*
X14169Y1277497D01*
X22500Y1292492D02*
Y1285827D01*
X15835Y1292492D01*
X14169D01*
X12503Y1290826D01*
Y1287494D01*
X14169Y1285827D01*
X214169Y2034164D02*
X212503Y2032498D01*
Y2029166D01*
X214169Y2027500D01*
X220834D01*
X222500Y2029166D01*
Y2032498D01*
X220834Y2034164D01*
X222500Y2037497D02*
Y2040829D01*
Y2039163D01*
X212503D01*
X214169Y2037497D01*
Y2045827D02*
X212503Y2047494D01*
Y2050826D01*
X214169Y2052492D01*
X220834D01*
X222500Y2050826D01*
Y2047494D01*
X220834Y2045827D01*
X214169D01*
X1504164Y1243331D02*
X1502498Y1244997D01*
X1499166D01*
X1497500Y1243331D01*
Y1236666D01*
X1499166Y1235000D01*
X1502498D01*
X1504164Y1236666D01*
X1507497D02*
X1509163Y1235000D01*
X1512495D01*
X1514161Y1236666D01*
Y1243331D01*
X1512495Y1244997D01*
X1509163D01*
X1507497Y1243331D01*
Y1241665D01*
X1509163Y1239998D01*
X1514161D01*
X1110665Y1613331D02*
X1108998Y1614997D01*
X1105666D01*
X1104000Y1613331D01*
Y1606666D01*
X1105666Y1605000D01*
X1108998D01*
X1110665Y1606666D01*
X1113997Y1613331D02*
X1115663Y1614997D01*
X1118995D01*
X1120661Y1613331D01*
Y1611664D01*
X1118995Y1609998D01*
X1120661Y1608332D01*
Y1606666D01*
X1118995Y1605000D01*
X1115663D01*
X1113997Y1606666D01*
Y1608332D01*
X1115663Y1609998D01*
X1113997Y1611664D01*
Y1613331D01*
X1115663Y1609998D02*
X1118995D01*
X1516664Y1898331D02*
X1514998Y1899997D01*
X1511666D01*
X1510000Y1898331D01*
Y1891666D01*
X1511666Y1890000D01*
X1514998D01*
X1516664Y1891666D01*
X1526661Y1899997D02*
X1523329Y1898331D01*
X1519997Y1894998D01*
Y1891666D01*
X1521663Y1890000D01*
X1524995D01*
X1526661Y1891666D01*
Y1893332D01*
X1524995Y1894998D01*
X1519997D01*
X161669Y226665D02*
X160003Y224998D01*
Y221666D01*
X161669Y220000D01*
X168334D01*
X170000Y221666D01*
Y224998D01*
X168334Y226665D01*
X161669Y229997D02*
X160003Y231663D01*
Y234995D01*
X161669Y236661D01*
X163335D01*
X165002Y234995D01*
Y233329D01*
Y234995D01*
X166668Y236661D01*
X168334D01*
X170000Y234995D01*
Y231663D01*
X168334Y229997D01*
X170000Y244992D02*
X160003D01*
X165002Y239994D01*
Y246658D01*
X209169Y226665D02*
X207503Y224998D01*
Y221666D01*
X209169Y220000D01*
X215834D01*
X217500Y221666D01*
Y224998D01*
X215834Y226665D01*
X209169Y229997D02*
X207503Y231663D01*
Y234995D01*
X209169Y236661D01*
X210835D01*
X212502Y234995D01*
Y233329D01*
Y234995D01*
X214168Y236661D01*
X215834D01*
X217500Y234995D01*
Y231663D01*
X215834Y229997D01*
X207503Y246658D02*
Y239994D01*
X212502D01*
X210835Y243326D01*
Y244992D01*
X212502Y246658D01*
X215834D01*
X217500Y244992D01*
Y241660D01*
X215834Y239994D01*
X353664Y858581D02*
X351998Y860247D01*
X348666D01*
X347000Y858581D01*
Y851916D01*
X348666Y850250D01*
X351998D01*
X353664Y851916D01*
X356996Y858581D02*
X358662Y860247D01*
X361995D01*
X363661Y858581D01*
Y856915D01*
X361995Y855249D01*
X360328D01*
X361995D01*
X363661Y853583D01*
Y851916D01*
X361995Y850250D01*
X358662D01*
X356996Y851916D01*
X373657Y860247D02*
X370325Y858581D01*
X366993Y855249D01*
Y851916D01*
X368659Y850250D01*
X371991D01*
X373657Y851916D01*
Y853583D01*
X371991Y855249D01*
X366993D01*
X206665Y498331D02*
X204998Y499997D01*
X201666D01*
X200000Y498331D01*
Y491666D01*
X201666Y490000D01*
X204998D01*
X206665Y491666D01*
X214995Y490000D02*
Y499997D01*
X209997Y494998D01*
X216661D01*
X219994Y499997D02*
X226658D01*
Y498331D01*
X219994Y491666D01*
Y490000D01*
X1359169Y214165D02*
X1357503Y212498D01*
Y209166D01*
X1359169Y207500D01*
X1365834D01*
X1367500Y209166D01*
Y212498D01*
X1365834Y214165D01*
X1367500Y222495D02*
X1357503D01*
X1362502Y217497D01*
Y224161D01*
X1359169Y227494D02*
X1357503Y229160D01*
Y232492D01*
X1359169Y234158D01*
X1360836D01*
X1362502Y232492D01*
X1364168Y234158D01*
X1365834D01*
X1367500Y232492D01*
Y229160D01*
X1365834Y227494D01*
X1364168D01*
X1362502Y229160D01*
X1360836Y227494D01*
X1359169D01*
X1362502Y229160D02*
Y232492D01*
X1406669Y216665D02*
X1405003Y214998D01*
Y211666D01*
X1406669Y210000D01*
X1413334D01*
X1415000Y211666D01*
Y214998D01*
X1413334Y216665D01*
X1415000Y224995D02*
X1405003D01*
X1410002Y219997D01*
Y226661D01*
X1413334Y229994D02*
X1415000Y231660D01*
Y234992D01*
X1413334Y236658D01*
X1406669D01*
X1405003Y234992D01*
Y231660D01*
X1406669Y229994D01*
X1408336D01*
X1410002Y231660D01*
Y236658D01*
X1169165Y865831D02*
X1167498Y867497D01*
X1164166D01*
X1162500Y865831D01*
Y859166D01*
X1164166Y857500D01*
X1167498D01*
X1169165Y859166D01*
X1179161Y867497D02*
X1172497D01*
Y862498D01*
X1175829Y864165D01*
X1177495D01*
X1179161Y862498D01*
Y859166D01*
X1177495Y857500D01*
X1174163D01*
X1172497Y859166D01*
X1182494Y865831D02*
X1184160Y867497D01*
X1187492D01*
X1189158Y865831D01*
Y859166D01*
X1187492Y857500D01*
X1184160D01*
X1182494Y859166D01*
Y865831D01*
X1366664Y505831D02*
X1364998Y507497D01*
X1361666D01*
X1360000Y505831D01*
Y499166D01*
X1361666Y497500D01*
X1364998D01*
X1366664Y499166D01*
X1376661Y507497D02*
X1373329Y505831D01*
X1369997Y502498D01*
Y499166D01*
X1371663Y497500D01*
X1374995D01*
X1376661Y499166D01*
Y500832D01*
X1374995Y502498D01*
X1369997D01*
X1379994Y497500D02*
X1383326D01*
X1381660D01*
Y507497D01*
X1379994Y505831D01*
X402500Y814997D02*
Y805000D01*
X407498D01*
X409165Y806666D01*
Y813331D01*
X407498Y814997D01*
X402500D01*
X412497Y805000D02*
Y811665D01*
X415829Y814997D01*
X419161Y811665D01*
Y805000D01*
Y809998D01*
X412497D01*
X422494Y805000D02*
X425826D01*
X424160D01*
Y814997D01*
X422494Y813331D01*
X57500Y434997D02*
Y425000D01*
X62498D01*
X64165Y426666D01*
Y433331D01*
X62498Y434997D01*
X57500D01*
X67497D02*
Y425000D01*
X72495D01*
X74161Y426666D01*
Y433331D01*
X72495Y434997D01*
X67497D01*
X77494Y433331D02*
X79160Y434997D01*
X82492D01*
X84158Y433331D01*
Y431665D01*
X82492Y429998D01*
X80826D01*
X82492D01*
X84158Y428332D01*
Y426666D01*
X82492Y425000D01*
X79160D01*
X77494Y426666D01*
X247500Y404997D02*
Y395000D01*
X252498D01*
X254165Y396666D01*
Y403331D01*
X252498Y404997D01*
X247500D01*
X257497Y395000D02*
Y401665D01*
X260829Y404997D01*
X264161Y401665D01*
Y395000D01*
Y399998D01*
X257497D01*
X267493Y403331D02*
X269160Y404997D01*
X272492D01*
X274158Y403331D01*
Y401665D01*
X272492Y399998D01*
X270826D01*
X272492D01*
X274158Y398332D01*
Y396666D01*
X272492Y395000D01*
X269160D01*
X267493Y396666D01*
X1206000Y821997D02*
Y812000D01*
X1210998D01*
X1212664Y813666D01*
Y820331D01*
X1210998Y821997D01*
X1206000D01*
X1215997Y812000D02*
Y818664D01*
X1219329Y821997D01*
X1222661Y818664D01*
Y812000D01*
Y816998D01*
X1215997D01*
X1230992Y812000D02*
Y821997D01*
X1225993Y816998D01*
X1232658D01*
X1480000Y444997D02*
Y435000D01*
X1484998D01*
X1486664Y436666D01*
Y443331D01*
X1484998Y444997D01*
X1480000D01*
X1489997D02*
Y435000D01*
X1494995D01*
X1496661Y436666D01*
Y443331D01*
X1494995Y444997D01*
X1489997D01*
X1504992Y435000D02*
Y444997D01*
X1499993Y439998D01*
X1506658D01*
X1317503Y402500D02*
X1327500D01*
Y407498D01*
X1325834Y409165D01*
X1319169D01*
X1317503Y407498D01*
Y402500D01*
X1327500Y412497D02*
X1320836D01*
X1317503Y415829D01*
X1320836Y419161D01*
X1327500D01*
X1322502D01*
Y412497D01*
X1317503Y429158D02*
X1319169Y425826D01*
X1322502Y422494D01*
X1325834D01*
X1327500Y424160D01*
Y427492D01*
X1325834Y429158D01*
X1324168D01*
X1322502Y427492D01*
Y422494D01*
X220000Y314997D02*
Y305000D01*
X224998D01*
X226665Y306666D01*
Y313331D01*
X224998Y314997D01*
X220000D01*
X229997D02*
Y305000D01*
X234995D01*
X236661Y306666D01*
Y313331D01*
X234995Y314997D01*
X229997D01*
X239994Y305000D02*
X243326D01*
X241660D01*
Y314997D01*
X239994Y313331D01*
X1320000Y309997D02*
Y300000D01*
X1324998D01*
X1326664Y301666D01*
Y308331D01*
X1324998Y309997D01*
X1320000D01*
X1329997D02*
Y300000D01*
X1334995D01*
X1336661Y301666D01*
Y308331D01*
X1334995Y309997D01*
X1329997D01*
X1346658Y300000D02*
X1339994D01*
X1346658Y306665D01*
Y308331D01*
X1344992Y309997D01*
X1341660D01*
X1339994Y308331D01*
X22500Y182497D02*
Y172500D01*
X29165D01*
X32497Y174166D02*
X34163Y172500D01*
X37495D01*
X39161Y174166D01*
Y180831D01*
X37495Y182497D01*
X34163D01*
X32497Y180831D01*
Y179165D01*
X34163Y177498D01*
X39161D01*
X1530003Y175000D02*
X1540000D01*
Y181665D01*
Y184997D02*
Y188329D01*
Y186663D01*
X1530003D01*
X1531669Y184997D01*
Y193327D02*
X1530003Y194994D01*
Y198326D01*
X1531669Y199992D01*
X1538334D01*
X1540000Y198326D01*
Y194994D01*
X1538334Y193327D01*
X1531669D01*
X165000Y165000D02*
X155003D01*
Y169998D01*
X156669Y171665D01*
X160002D01*
X161668Y169998D01*
Y165000D01*
Y168332D02*
X165000Y171665D01*
Y174997D02*
Y178329D01*
Y176663D01*
X155003D01*
X156669Y174997D01*
X155003Y183327D02*
Y189992D01*
X156669D01*
X163334Y183327D01*
X165000D01*
X225000Y170000D02*
X215003D01*
Y174998D01*
X216669Y176665D01*
X220002D01*
X221668Y174998D01*
Y170000D01*
Y173332D02*
X225000Y176665D01*
Y179997D02*
Y183329D01*
Y181663D01*
X215003D01*
X216669Y179997D01*
Y188327D02*
X215003Y189993D01*
Y193326D01*
X216669Y194992D01*
X218335D01*
X220002Y193326D01*
X221668Y194992D01*
X223334D01*
X225000Y193326D01*
Y189993D01*
X223334Y188327D01*
X221668D01*
X220002Y189993D01*
X218335Y188327D01*
X216669D01*
X220002Y189993D02*
Y193326D01*
X442500Y1027500D02*
Y1037497D01*
X447498D01*
X449165Y1035831D01*
Y1032498D01*
X447498Y1030832D01*
X442500D01*
X445832D02*
X449165Y1027500D01*
X452497D02*
X455829D01*
X454163D01*
Y1037497D01*
X452497Y1035831D01*
X460827Y1029166D02*
X462494Y1027500D01*
X465826D01*
X467492Y1029166D01*
Y1035831D01*
X465826Y1037497D01*
X462494D01*
X460827Y1035831D01*
Y1034165D01*
X462494Y1032498D01*
X467492D01*
X477500Y837500D02*
Y847497D01*
X482498D01*
X484165Y845831D01*
Y842498D01*
X482498Y840832D01*
X477500D01*
X480832D02*
X484165Y837500D01*
X494161D02*
X487497D01*
X494161Y844165D01*
Y845831D01*
X492495Y847497D01*
X489163D01*
X487497Y845831D01*
X497494D02*
X499160Y847497D01*
X502492D01*
X504158Y845831D01*
Y839166D01*
X502492Y837500D01*
X499160D01*
X497494Y839166D01*
Y845831D01*
X432500Y547500D02*
Y557497D01*
X437498D01*
X439165Y555831D01*
Y552498D01*
X437498Y550832D01*
X432500D01*
X435832D02*
X439165Y547500D01*
X449161D02*
X442497D01*
X449161Y554165D01*
Y555831D01*
X447495Y557497D01*
X444163D01*
X442497Y555831D01*
X452494D02*
X454160Y557497D01*
X457492D01*
X459158Y555831D01*
Y554165D01*
X457492Y552498D01*
X455826D01*
X457492D01*
X459158Y550832D01*
Y549166D01*
X457492Y547500D01*
X454160D01*
X452494Y549166D01*
X437500Y460000D02*
Y469997D01*
X442498D01*
X444165Y468331D01*
Y464998D01*
X442498Y463332D01*
X437500D01*
X440832D02*
X444165Y460000D01*
X454161D02*
X447497D01*
X454161Y466665D01*
Y468331D01*
X452495Y469997D01*
X449163D01*
X447497Y468331D01*
X462492Y460000D02*
Y469997D01*
X457494Y464998D01*
X464158D01*
X1370000Y167500D02*
X1360003D01*
Y172498D01*
X1361669Y174165D01*
X1365002D01*
X1366668Y172498D01*
Y167500D01*
Y170832D02*
X1370000Y174165D01*
Y184161D02*
Y177497D01*
X1363336Y184161D01*
X1361669D01*
X1360003Y182495D01*
Y179163D01*
X1361669Y177497D01*
X1360003Y194158D02*
Y187494D01*
X1365002D01*
X1363336Y190826D01*
Y192492D01*
X1365002Y194158D01*
X1368334D01*
X1370000Y192492D01*
Y189160D01*
X1368334Y187494D01*
X1422500Y170000D02*
X1412503D01*
Y174998D01*
X1414169Y176665D01*
X1417502D01*
X1419168Y174998D01*
Y170000D01*
Y173332D02*
X1422500Y176665D01*
Y186661D02*
Y179997D01*
X1415836Y186661D01*
X1414169D01*
X1412503Y184995D01*
Y181663D01*
X1414169Y179997D01*
X1412503Y196658D02*
X1414169Y193326D01*
X1417502Y189993D01*
X1420834D01*
X1422500Y191660D01*
Y194992D01*
X1420834Y196658D01*
X1419168D01*
X1417502Y194992D01*
Y189993D01*
X1075000Y802500D02*
Y812497D01*
X1079998D01*
X1081665Y810831D01*
Y807498D01*
X1079998Y805832D01*
X1075000D01*
X1078332D02*
X1081665Y802500D01*
X1091661D02*
X1084997D01*
X1091661Y809165D01*
Y810831D01*
X1089995Y812497D01*
X1086663D01*
X1084997Y810831D01*
X1094994Y812497D02*
X1101658D01*
Y810831D01*
X1094994Y804166D01*
Y802500D01*
X1120000Y1017500D02*
Y1027497D01*
X1124998D01*
X1126665Y1025831D01*
Y1022498D01*
X1124998Y1020832D01*
X1120000D01*
X1123332D02*
X1126665Y1017500D01*
X1136661D02*
X1129997D01*
X1136661Y1024165D01*
Y1025831D01*
X1134995Y1027497D01*
X1131663D01*
X1129997Y1025831D01*
X1139994D02*
X1141660Y1027497D01*
X1144992D01*
X1146658Y1025831D01*
Y1024165D01*
X1144992Y1022498D01*
X1146658Y1020832D01*
Y1019166D01*
X1144992Y1017500D01*
X1141660D01*
X1139994Y1019166D01*
Y1020832D01*
X1141660Y1022498D01*
X1139994Y1024165D01*
Y1025831D01*
X1141660Y1022498D02*
X1144992D01*
X1427500Y392500D02*
X1417503D01*
Y397498D01*
X1419169Y399165D01*
X1422502D01*
X1424168Y397498D01*
Y392500D01*
Y395832D02*
X1427500Y399165D01*
Y409161D02*
Y402497D01*
X1420836Y409161D01*
X1419169D01*
X1417503Y407495D01*
Y404163D01*
X1419169Y402497D01*
X1425834Y412494D02*
X1427500Y414160D01*
Y417492D01*
X1425834Y419158D01*
X1419169D01*
X1417503Y417492D01*
Y414160D01*
X1419169Y412494D01*
X1420836D01*
X1422502Y414160D01*
Y419158D01*
X1120000Y540000D02*
Y549997D01*
X1124998D01*
X1126665Y548331D01*
Y544998D01*
X1124998Y543332D01*
X1120000D01*
X1123332D02*
X1126665Y540000D01*
X1129997Y548331D02*
X1131663Y549997D01*
X1134995D01*
X1136661Y548331D01*
Y546665D01*
X1134995Y544998D01*
X1133329D01*
X1134995D01*
X1136661Y543332D01*
Y541666D01*
X1134995Y540000D01*
X1131663D01*
X1129997Y541666D01*
X1139994Y540000D02*
X1143326D01*
X1141660D01*
Y549997D01*
X1139994Y548331D01*
X1127500Y572500D02*
Y582497D01*
X1132498D01*
X1134165Y580831D01*
Y577498D01*
X1132498Y575832D01*
X1127500D01*
X1130832D02*
X1134165Y572500D01*
X1137497Y580831D02*
X1139163Y582497D01*
X1142495D01*
X1144161Y580831D01*
Y579165D01*
X1142495Y577498D01*
X1140829D01*
X1142495D01*
X1144161Y575832D01*
Y574166D01*
X1142495Y572500D01*
X1139163D01*
X1137497Y574166D01*
X1154158Y572500D02*
X1147494D01*
X1154158Y579165D01*
Y580831D01*
X1152492Y582497D01*
X1149160D01*
X1147494Y580831D01*
X422500Y967497D02*
Y960832D01*
X425832Y957500D01*
X429165Y960832D01*
Y967497D01*
X432497D02*
Y957500D01*
X437495D01*
X439161Y959166D01*
Y965831D01*
X437495Y967497D01*
X432497D01*
X442494Y957500D02*
X445826D01*
X444160D01*
Y967497D01*
X442494Y965831D01*
X450824D02*
X452490Y967497D01*
X455823D01*
X457489Y965831D01*
Y959166D01*
X455823Y957500D01*
X452490D01*
X450824Y959166D01*
Y965831D01*
X292500Y812497D02*
Y805832D01*
X295832Y802500D01*
X299165Y805832D01*
Y812497D01*
X302497D02*
Y802500D01*
X307495D01*
X309161Y804166D01*
Y810831D01*
X307495Y812497D01*
X302497D01*
X312494Y802500D02*
X315826D01*
X314160D01*
Y812497D01*
X312494Y810831D01*
X320824Y802500D02*
X324156D01*
X322490D01*
Y812497D01*
X320824Y810831D01*
X442503Y797500D02*
X449168D01*
X452500Y800832D01*
X449168Y804165D01*
X442503D01*
Y807497D02*
X452500D01*
Y812495D01*
X450834Y814161D01*
X444169D01*
X442503Y812495D01*
Y807497D01*
X452500Y817494D02*
Y820826D01*
Y819160D01*
X442503D01*
X444169Y817494D01*
X452500Y832489D02*
Y825824D01*
X445835Y832489D01*
X444169D01*
X442503Y830823D01*
Y827490D01*
X444169Y825824D01*
X418498Y643343D02*
Y636678D01*
X421830Y633346D01*
X425163Y636678D01*
Y643343D01*
X428495D02*
Y633346D01*
X433493D01*
X435159Y635012D01*
Y641677D01*
X433493Y643343D01*
X428495D01*
X438492Y633346D02*
X441824D01*
X440158D01*
Y643343D01*
X438492Y641677D01*
X446822D02*
X448488Y643343D01*
X451821D01*
X453487Y641677D01*
Y640011D01*
X451821Y638344D01*
X450154D01*
X451821D01*
X453487Y636678D01*
Y635012D01*
X451821Y633346D01*
X448488D01*
X446822Y635012D01*
X145003Y320000D02*
X151668D01*
X155000Y323332D01*
X151668Y326665D01*
X145003D01*
Y329997D02*
X155000D01*
Y334995D01*
X153334Y336661D01*
X146669D01*
X145003Y334995D01*
Y329997D01*
X155000Y339994D02*
Y343326D01*
Y341660D01*
X145003D01*
X146669Y339994D01*
X155000Y353323D02*
X145003D01*
X150002Y348324D01*
Y354989D01*
X1071000Y892997D02*
Y886332D01*
X1074332Y883000D01*
X1077664Y886332D01*
Y892997D01*
X1080997D02*
Y883000D01*
X1085995D01*
X1087661Y884666D01*
Y891331D01*
X1085995Y892997D01*
X1080997D01*
X1090994Y883000D02*
X1094326D01*
X1092660D01*
Y892997D01*
X1090994Y891331D01*
X1105989Y892997D02*
X1099324D01*
Y887998D01*
X1102656Y889665D01*
X1104323D01*
X1105989Y887998D01*
Y884666D01*
X1104323Y883000D01*
X1100990D01*
X1099324Y884666D01*
X1067500Y777497D02*
Y770832D01*
X1070832Y767500D01*
X1074165Y770832D01*
Y777497D01*
X1077497D02*
Y767500D01*
X1082495D01*
X1084161Y769166D01*
Y775831D01*
X1082495Y777497D01*
X1077497D01*
X1087494Y767500D02*
X1090826D01*
X1089160D01*
Y777497D01*
X1087494Y775831D01*
X1102489Y777497D02*
X1099156Y775831D01*
X1095824Y772498D01*
Y769166D01*
X1097490Y767500D01*
X1100823D01*
X1102489Y769166D01*
Y770832D01*
X1100823Y772498D01*
X1095824D01*
X1270003Y685000D02*
X1276668D01*
X1280000Y688332D01*
X1276668Y691665D01*
X1270003D01*
Y694997D02*
X1280000D01*
Y699995D01*
X1278334Y701661D01*
X1271669D01*
X1270003Y699995D01*
Y694997D01*
X1280000Y704994D02*
Y708326D01*
Y706660D01*
X1270003D01*
X1271669Y704994D01*
X1270003Y713324D02*
Y719989D01*
X1271669D01*
X1278334Y713324D01*
X1280000D01*
X1120000Y474997D02*
Y468332D01*
X1123332Y465000D01*
X1126665Y468332D01*
Y474997D01*
X1129997D02*
Y465000D01*
X1134995D01*
X1136661Y466666D01*
Y473331D01*
X1134995Y474997D01*
X1129997D01*
X1139994Y465000D02*
X1143326D01*
X1141660D01*
Y474997D01*
X1139994Y473331D01*
X1148324D02*
X1149990Y474997D01*
X1153323D01*
X1154989Y473331D01*
Y471665D01*
X1153323Y469998D01*
X1154989Y468332D01*
Y466666D01*
X1153323Y465000D01*
X1149990D01*
X1148324Y466666D01*
Y468332D01*
X1149990Y469998D01*
X1148324Y471665D01*
Y473331D01*
X1149990Y469998D02*
X1153323D01*
X1420003Y345000D02*
X1426668D01*
X1430000Y348332D01*
X1426668Y351665D01*
X1420003D01*
Y354997D02*
X1430000D01*
Y359995D01*
X1428334Y361661D01*
X1421669D01*
X1420003Y359995D01*
Y354997D01*
X1430000Y364994D02*
Y368326D01*
Y366660D01*
X1420003D01*
X1421669Y364994D01*
X1428334Y373324D02*
X1430000Y374990D01*
Y378323D01*
X1428334Y379989D01*
X1421669D01*
X1420003Y378323D01*
Y374990D01*
X1421669Y373324D01*
X1423336D01*
X1425002Y374990D01*
Y379989D01*
X1445000Y69997D02*
X1451664Y60000D01*
Y69997D02*
X1445000Y60000D01*
X1454997Y68331D02*
X1456663Y69997D01*
X1459995D01*
X1461661Y68331D01*
Y66665D01*
X1459995Y64998D01*
X1461661Y63332D01*
Y61666D01*
X1459995Y60000D01*
X1456663D01*
X1454997Y61666D01*
Y63332D01*
X1456663Y64998D01*
X1454997Y66665D01*
Y68331D01*
X1456663Y64998D02*
X1459995D01*
X126664Y193331D02*
X124998Y194997D01*
X121666D01*
X120000Y193331D01*
Y186666D01*
X121666Y185000D01*
X124998D01*
X126664Y186666D01*
X136661Y194997D02*
X133329Y193331D01*
X129997Y189998D01*
Y186666D01*
X131663Y185000D01*
X134995D01*
X136661Y186666D01*
Y188332D01*
X134995Y189998D01*
X129997D01*
X146658Y185000D02*
X139993D01*
X146658Y191665D01*
Y193331D01*
X144992Y194997D01*
X141660D01*
X139993Y193331D01*
X1381664Y150831D02*
X1379998Y152497D01*
X1376666D01*
X1375000Y150831D01*
Y144166D01*
X1376666Y142500D01*
X1379998D01*
X1381664Y144166D01*
X1391661Y152497D02*
X1388329Y150831D01*
X1384997Y147498D01*
Y144166D01*
X1386663Y142500D01*
X1389995D01*
X1391661Y144166D01*
Y145832D01*
X1389995Y147498D01*
X1384997D01*
X1394994Y150831D02*
X1396660Y152497D01*
X1399992D01*
X1401658Y150831D01*
Y149164D01*
X1399992Y147498D01*
X1398326D01*
X1399992D01*
X1401658Y145832D01*
Y144166D01*
X1399992Y142500D01*
X1396660D01*
X1394994Y144166D01*
X105000Y64997D02*
X111664Y55000D01*
Y64997D02*
X105000Y55000D01*
X114997Y64997D02*
X121661D01*
Y63331D01*
X114997Y56666D01*
Y55000D01*
X112500Y430000D02*
X102503D01*
Y434998D01*
X104169Y436665D01*
X107502D01*
X109168Y434998D01*
Y430000D01*
Y433332D02*
X112500Y436665D01*
Y446661D02*
Y439997D01*
X105836Y446661D01*
X104169D01*
X102503Y444995D01*
Y441663D01*
X104169Y439997D01*
X112500Y449994D02*
Y453326D01*
Y451660D01*
X102503D01*
X104169Y449994D01*
X561665Y1595831D02*
X559998Y1597497D01*
X556666D01*
X555000Y1595831D01*
Y1589166D01*
X556666Y1587500D01*
X559998D01*
X561665Y1589166D01*
X564997Y1587500D02*
X568329D01*
X566663D01*
Y1597497D01*
X564997Y1595831D01*
X573327Y1587500D02*
X576660D01*
X574994D01*
Y1597497D01*
X573327Y1595831D01*
X796665Y1573331D02*
X794998Y1574997D01*
X791666D01*
X790000Y1573331D01*
Y1566666D01*
X791666Y1565000D01*
X794998D01*
X796665Y1566666D01*
Y1569998D01*
X793332D01*
X799997Y1565000D02*
Y1574997D01*
X806661Y1565000D01*
Y1574997D01*
X809994D02*
Y1565000D01*
X814992D01*
X816658Y1566666D01*
Y1573331D01*
X814992Y1574997D01*
X809994D01*
X929998Y2004997D02*
X926666D01*
X925000Y2003331D01*
Y1996666D01*
X926666Y1995000D01*
X929998D01*
X931665Y1996666D01*
Y2003331D01*
X929998Y2004997D01*
X934997Y2001664D02*
X938329Y1995000D01*
X941661Y2001664D01*
X949992Y1995000D02*
X946660D01*
X944994Y1996666D01*
Y1999998D01*
X946660Y2001664D01*
X949992D01*
X951658Y1999998D01*
Y1998332D01*
X944994D01*
X954990Y2001664D02*
Y1995000D01*
Y1998332D01*
X956656Y1999998D01*
X958323Y2001664D01*
X959989D01*
X964987Y1993334D02*
X971652D01*
X974984Y2004997D02*
Y1996666D01*
X976650Y1995000D01*
X979982D01*
X981648Y1996666D01*
Y2004997D01*
X1440000Y1589997D02*
X1443332D01*
X1441666D01*
Y1580000D01*
X1440000D01*
X1443332D01*
X1448331D02*
Y1586664D01*
X1453329D01*
X1454995Y1584998D01*
Y1580000D01*
X1458327Y1578334D02*
X1464992D01*
X1468324Y1584998D02*
X1474989D01*
X1484986Y1580000D02*
X1478321D01*
X1484986Y1586664D01*
Y1588331D01*
X1483319Y1589997D01*
X1479987D01*
X1478321Y1588331D01*
X1488318D02*
X1489984Y1589997D01*
X1493316D01*
X1494982Y1588331D01*
Y1581666D01*
X1493316Y1580000D01*
X1489984D01*
X1488318Y1581666D01*
Y1588331D01*
X1498315D02*
X1499981Y1589997D01*
X1503313D01*
X1504979Y1588331D01*
Y1581666D01*
X1503313Y1580000D01*
X1499981D01*
X1498315Y1581666D01*
Y1588331D01*
X1508311Y1589997D02*
Y1583332D01*
X1511644Y1580000D01*
X1514976Y1583332D01*
Y1589997D01*
X1430000Y1679997D02*
X1433332D01*
X1431666D01*
Y1670000D01*
X1430000D01*
X1433332D01*
X1438331D02*
Y1676664D01*
X1443329D01*
X1444995Y1674998D01*
Y1670000D01*
X1448327Y1668334D02*
X1454992D01*
X1458324Y1674998D02*
X1464989D01*
X1461656Y1678331D02*
Y1671666D01*
X1474986Y1670000D02*
X1468321D01*
X1474986Y1676664D01*
Y1678331D01*
X1473319Y1679997D01*
X1469987D01*
X1468321Y1678331D01*
X1478318D02*
X1479984Y1679997D01*
X1483316D01*
X1484982Y1678331D01*
Y1671666D01*
X1483316Y1670000D01*
X1479984D01*
X1478318Y1671666D01*
Y1678331D01*
X1488315D02*
X1489981Y1679997D01*
X1493313D01*
X1494979Y1678331D01*
Y1671666D01*
X1493313Y1670000D01*
X1489981D01*
X1488315Y1671666D01*
Y1678331D01*
X1498311Y1679997D02*
Y1673332D01*
X1501644Y1670000D01*
X1504976Y1673332D01*
Y1679997D01*
X1551669Y1376664D02*
X1550003Y1374998D01*
Y1371666D01*
X1551669Y1370000D01*
X1558334D01*
X1560000Y1371666D01*
Y1374998D01*
X1558334Y1376664D01*
X1555002D01*
Y1373332D01*
X1560000Y1379997D02*
X1550003D01*
X1560000Y1386661D01*
X1550003D01*
Y1389994D02*
X1560000D01*
Y1394992D01*
X1558334Y1396658D01*
X1551669D01*
X1550003Y1394992D01*
Y1389994D01*
X1368000Y43997D02*
Y34000D01*
X1372998D01*
X1374664Y35666D01*
Y42331D01*
X1372998Y43997D01*
X1368000D01*
X1377997Y40665D02*
Y34000D01*
Y37332D01*
X1379663Y38998D01*
X1381329Y40665D01*
X1382995D01*
X1387993Y34000D02*
X1391326D01*
X1389660D01*
Y40665D01*
X1387993D01*
X1396324D02*
X1399656Y34000D01*
X1402989Y40665D01*
X1411319Y34000D02*
X1407987D01*
X1406321Y35666D01*
Y38998D01*
X1407987Y40665D01*
X1411319D01*
X1412986Y38998D01*
Y37332D01*
X1406321D01*
X1416318Y40665D02*
Y34000D01*
Y37332D01*
X1417984Y38998D01*
X1419650Y40665D01*
X1421316D01*
X1436311Y43997D02*
X1439644D01*
X1437977D01*
Y34000D01*
X1436311D01*
X1439644D01*
X1444642D02*
Y40665D01*
X1449640D01*
X1451306Y38998D01*
Y34000D01*
X1454639Y40665D02*
X1457971Y34000D01*
X1461303Y40665D01*
X1469634Y34000D02*
X1466302D01*
X1464635Y35666D01*
Y38998D01*
X1466302Y40665D01*
X1469634D01*
X1471300Y38998D01*
Y37332D01*
X1464635D01*
X1474632Y40665D02*
Y34000D01*
Y37332D01*
X1476298Y38998D01*
X1477964Y40665D01*
X1479631D01*
X1486295Y42331D02*
Y40665D01*
X1484629D01*
X1487961D01*
X1486295D01*
Y35666D01*
X1487961Y34000D01*
X1494626D02*
X1497958D01*
X1499624Y35666D01*
Y38998D01*
X1497958Y40665D01*
X1494626D01*
X1492960Y38998D01*
Y35666D01*
X1494626Y34000D01*
X1502957Y30668D02*
Y40665D01*
X1507955D01*
X1509621Y38998D01*
Y35666D01*
X1507955Y34000D01*
X1502957D01*
X68000Y38997D02*
Y29000D01*
X72998D01*
X74665Y30666D01*
Y37331D01*
X72998Y38997D01*
X68000D01*
X77997Y35665D02*
Y29000D01*
Y32332D01*
X79663Y33998D01*
X81329Y35665D01*
X82995D01*
X87994Y29000D02*
X91326D01*
X89660D01*
Y35665D01*
X87994D01*
X96324D02*
X99656Y29000D01*
X102989Y35665D01*
X111319Y29000D02*
X107987D01*
X106321Y30666D01*
Y33998D01*
X107987Y35665D01*
X111319D01*
X112985Y33998D01*
Y32332D01*
X106321D01*
X116318Y35665D02*
Y29000D01*
Y32332D01*
X117984Y33998D01*
X119650Y35665D01*
X121316D01*
X136311Y38997D02*
X139644D01*
X137977D01*
Y29000D01*
X136311D01*
X139644D01*
X144642D02*
Y35665D01*
X149640D01*
X151306Y33998D01*
Y29000D01*
X154639Y35665D02*
X157971Y29000D01*
X161303Y35665D01*
X169634Y29000D02*
X166302D01*
X164636Y30666D01*
Y33998D01*
X166302Y35665D01*
X169634D01*
X171300Y33998D01*
Y32332D01*
X164636D01*
X174632Y35665D02*
Y29000D01*
Y32332D01*
X176298Y33998D01*
X177964Y35665D01*
X179631D01*
X186295Y37331D02*
Y35665D01*
X184629D01*
X187961D01*
X186295D01*
Y30666D01*
X187961Y29000D01*
X194626D02*
X197958D01*
X199624Y30666D01*
Y33998D01*
X197958Y35665D01*
X194626D01*
X192960Y33998D01*
Y30666D01*
X194626Y29000D01*
X202957Y25668D02*
Y35665D01*
X207955D01*
X209621Y33998D01*
Y30666D01*
X207955Y29000D01*
X202957D01*
X1356664Y1658331D02*
X1354998Y1659997D01*
X1351666D01*
X1350000Y1658331D01*
Y1651666D01*
X1351666Y1650000D01*
X1354998D01*
X1356664Y1651666D01*
X1359997Y1658331D02*
X1361663Y1659997D01*
X1364995D01*
X1366661Y1658331D01*
Y1656664D01*
X1364995Y1654998D01*
X1366661Y1653332D01*
Y1651666D01*
X1364995Y1650000D01*
X1361663D01*
X1359997Y1651666D01*
Y1653332D01*
X1361663Y1654998D01*
X1359997Y1656664D01*
Y1658331D01*
X1361663Y1654998D02*
X1364995D01*
X1051754Y890247D02*
X1049255Y887747D01*
Y882749D01*
X1051754Y880250D01*
X1061751D01*
X1064250Y882749D01*
Y887747D01*
X1061751Y890247D01*
X1056752D01*
Y885248D01*
X1051754Y939666D02*
X1049255Y937167D01*
Y932169D01*
X1051754Y929670D01*
X1061751D01*
X1064250Y932169D01*
Y937167D01*
X1061751Y939666D01*
X1049255Y994166D02*
Y984170D01*
X1064250D01*
Y994166D01*
X1056752Y984170D02*
Y989168D01*
X526246Y979253D02*
X528745Y981752D01*
Y986750D01*
X526246Y989250D01*
X516249D01*
X513750Y986750D01*
Y981752D01*
X516249Y979253D01*
X521247D01*
Y984251D01*
X526246Y929833D02*
X528745Y932332D01*
Y937330D01*
X526246Y939830D01*
X516249D01*
X513750Y937330D01*
Y932332D01*
X516249Y929833D01*
X528745Y875333D02*
Y885330D01*
X513750D01*
Y875333D01*
X521247Y885330D02*
Y880331D01*
X526246Y589253D02*
X528745Y591752D01*
Y596750D01*
X526246Y599250D01*
X516249D01*
X513750Y596750D01*
Y591752D01*
X516249Y589253D01*
X521247D01*
Y594251D01*
X526246Y539833D02*
X528745Y542332D01*
Y547331D01*
X526246Y549830D01*
X516249D01*
X513750Y547331D01*
Y542332D01*
X516249Y539833D01*
X528745Y485333D02*
Y495330D01*
X513750D01*
Y485333D01*
X521247Y495330D02*
Y490331D01*
X1051754Y500246D02*
X1049255Y497747D01*
Y492749D01*
X1051754Y490250D01*
X1061751D01*
X1064250Y492749D01*
Y497747D01*
X1061751Y500246D01*
X1056752D01*
Y495248D01*
X1051754Y549666D02*
X1049255Y547167D01*
Y542169D01*
X1051754Y539670D01*
X1061751D01*
X1064250Y542169D01*
Y547167D01*
X1061751Y549666D01*
X1049255Y604166D02*
Y594170D01*
X1064250D01*
Y604166D01*
X1056752Y594170D02*
Y599168D01*
X344998Y59997D02*
X341666D01*
X340000Y58331D01*
Y51666D01*
X341666Y50000D01*
X344998D01*
X346665Y51666D01*
Y58331D01*
X344998Y59997D01*
X349997Y56665D02*
Y51666D01*
X351663Y50000D01*
X356661D01*
Y56665D01*
X361660Y58331D02*
Y56665D01*
X359994D01*
X363326D01*
X361660D01*
Y51666D01*
X363326Y50000D01*
X368324Y48334D02*
X374989D01*
X378321Y50000D02*
X381653D01*
X379987D01*
Y59997D01*
X378321Y58331D01*
D69*
X750000Y1919750D02*
D03*
D70*
X790000Y1415000D02*
D03*
M02*
