G04 Layer_Physical_Order=1*
G04 Layer_Color=255*
%FSLAX44Y44*%
%MOMM*%
G71*
G01*
G75*
%ADD10R,1.1000X1.8500*%
%ADD11R,1.8500X1.1000*%
%ADD12R,1.9000X1.4500*%
%ADD13R,1.1000X1.0000*%
%ADD14R,1.8500X0.6000*%
%ADD15O,1.8500X0.6000*%
%ADD16R,1.4500X1.9000*%
%ADD17R,0.8000X1.0500*%
%ADD18R,0.9000X1.5000*%
%ADD19R,1.5000X0.9000*%
%ADD20R,7.6400X4.2700*%
%ADD21R,1.6600X4.2700*%
%ADD22R,1.7500X1.1000*%
%ADD23C,0.5000*%
%ADD24C,0.7500*%
%ADD25R,1.2192X1.2192*%
%ADD26C,1.2192*%
%ADD27C,2.5000*%
%ADD28C,2.4130*%
%ADD29C,5.8000*%
%ADD30C,1.2700*%
%ADD31C,1.0000*%
%ADD32C,1.3000*%
G36*
X589000Y161000D02*
X589000Y129000D01*
X580000Y120000D01*
X489000Y120000D01*
X480000Y129000D01*
X480000Y161000D01*
X489000Y170000D01*
X580000Y170000D01*
X589000Y161000D01*
D02*
G37*
G36*
X580000Y297000D02*
X589000Y288000D01*
X589000Y221000D01*
X580000Y212000D01*
X427000D01*
X413000Y226000D01*
Y297000D01*
X580000Y297000D01*
D02*
G37*
G36*
X591000Y383000D02*
X591000Y320000D01*
X582000Y311000D01*
X413000Y311000D01*
X413000Y378000D01*
X427000Y392000D01*
X582000Y392000D01*
X591000Y383000D01*
D02*
G37*
G36*
X172000Y5000D02*
X108000D01*
X108000Y56000D01*
X107891Y59335D01*
X107020Y65950D01*
X105293Y72393D01*
X102740Y78557D01*
X99405Y84334D01*
X95344Y89627D01*
X90627Y94344D01*
X85334Y98405D01*
X79557Y101740D01*
X73393Y104293D01*
X66950Y106020D01*
X60335Y106891D01*
X57000Y107000D01*
X57000Y107000D01*
X57000Y107000D01*
X4000Y107000D01*
Y394000D01*
X57000Y394000D01*
X60139Y394103D01*
X66364Y394922D01*
X72429Y396547D01*
X78230Y398950D01*
X83667Y402090D01*
X88649Y405912D01*
X93088Y410351D01*
X96910Y415333D01*
X100050Y420770D01*
X102453Y426571D01*
X104078Y432636D01*
X104897Y438861D01*
X105000Y442000D01*
X105000Y442000D01*
X105000Y497000D01*
X172000D01*
Y5000D01*
D02*
G37*
%LPC*%
G36*
X148000Y266698D02*
X135500D01*
X133338Y266269D01*
X131506Y265044D01*
X130281Y263212D01*
X129852Y261050D01*
X130281Y258888D01*
X131506Y257056D01*
X133338Y255831D01*
X135500Y255401D01*
X148000D01*
X150162Y255831D01*
X151994Y257056D01*
X153219Y258888D01*
X153649Y261050D01*
X153219Y263212D01*
X151994Y265044D01*
X150162Y266269D01*
X148000Y266698D01*
D02*
G37*
G36*
X109290Y305790D02*
X96210D01*
Y290210D01*
X109290D01*
Y292861D01*
X111872D01*
X121916Y282816D01*
X123583Y281702D01*
X125550Y281311D01*
X133219D01*
X133338Y281231D01*
X135500Y280802D01*
X148000D01*
X150162Y281231D01*
X151994Y282456D01*
X153219Y284288D01*
X153649Y286450D01*
X153219Y288612D01*
X151994Y290444D01*
X150162Y291669D01*
X148000Y292099D01*
X135500D01*
X133338Y291669D01*
X133219Y291589D01*
X127678D01*
X117634Y301634D01*
X115967Y302748D01*
X114000Y303139D01*
X109290D01*
Y305790D01*
D02*
G37*
G36*
X40000Y328667D02*
X37745Y328370D01*
X35645Y327500D01*
X33841Y326116D01*
X32457Y324312D01*
X31586Y322211D01*
X31290Y319957D01*
X31586Y317702D01*
X32457Y315601D01*
X33841Y313797D01*
X35645Y312413D01*
X37745Y311543D01*
X40000Y311246D01*
X42254Y311543D01*
X44355Y312413D01*
X46159Y313797D01*
X46942Y314818D01*
X50915D01*
X60556Y305177D01*
X59747Y304190D01*
X59076Y304638D01*
X57109Y305029D01*
X46942D01*
X46159Y306050D01*
X44355Y307434D01*
X42254Y308304D01*
X40000Y308601D01*
X37745Y308304D01*
X35645Y307434D01*
X33841Y306050D01*
X32457Y304246D01*
X31586Y302145D01*
X31290Y299891D01*
X31586Y297636D01*
X32457Y295535D01*
X33841Y293731D01*
X35645Y292347D01*
X37745Y291477D01*
X40000Y291180D01*
X42254Y291477D01*
X44355Y292347D01*
X46159Y293731D01*
X46942Y294752D01*
X54981D01*
X72366Y277366D01*
X74033Y276252D01*
X76000Y275861D01*
X105084D01*
X106125Y274696D01*
X106033Y274000D01*
X106339Y271679D01*
X107235Y269517D01*
X108660Y267660D01*
X110517Y266235D01*
X112679Y265339D01*
X115000Y265033D01*
X117321Y265339D01*
X119483Y266235D01*
X121340Y267660D01*
X122071Y268611D01*
X133219D01*
X133338Y268531D01*
X135500Y268102D01*
X148000D01*
X150162Y268531D01*
X151994Y269756D01*
X153219Y271588D01*
X153649Y273750D01*
X153219Y275912D01*
X151994Y277744D01*
X150162Y278969D01*
X148000Y279398D01*
X135500D01*
X133338Y278969D01*
X133219Y278889D01*
X122454D01*
X121340Y280340D01*
X119483Y281765D01*
X117321Y282661D01*
X115000Y282967D01*
X113498Y282769D01*
X111634Y284634D01*
X109966Y285748D01*
X108000Y286139D01*
X78128D01*
X71553Y292714D01*
X72363Y293701D01*
X73033Y293252D01*
X75000Y292861D01*
X80710D01*
Y290210D01*
X93790D01*
Y305790D01*
X80710D01*
Y303139D01*
X77129D01*
X56677Y323590D01*
X55010Y324704D01*
X53043Y325095D01*
X46942D01*
X46159Y326116D01*
X44355Y327500D01*
X42254Y328370D01*
X40000Y328667D01*
D02*
G37*
G36*
Y288789D02*
X37745Y288492D01*
X35645Y287622D01*
X33841Y286238D01*
X32457Y284434D01*
X31586Y282333D01*
X31290Y280079D01*
X31586Y277824D01*
X32457Y275723D01*
X33841Y273919D01*
X35645Y272535D01*
X37745Y271665D01*
X40000Y271368D01*
X42254Y271665D01*
X44355Y272535D01*
X46159Y273919D01*
X46942Y274940D01*
X50793D01*
X60447Y265286D01*
X59637Y264299D01*
X58966Y264748D01*
X57000Y265139D01*
X46942D01*
X46159Y266159D01*
X44355Y267544D01*
X42254Y268414D01*
X40000Y268710D01*
X37745Y268414D01*
X35645Y267544D01*
X33841Y266159D01*
X32457Y264355D01*
X31586Y262254D01*
X31290Y260000D01*
X31586Y257745D01*
X32457Y255645D01*
X33841Y253841D01*
X35645Y252456D01*
X37745Y251586D01*
X40000Y251290D01*
X42254Y251586D01*
X44355Y252456D01*
X46159Y253841D01*
X46942Y254861D01*
X54872D01*
X64445Y245287D01*
X63636Y244301D01*
X62965Y244749D01*
X60998Y245140D01*
X46942D01*
X46159Y246161D01*
X44355Y247545D01*
X42254Y248416D01*
X40000Y248712D01*
X37745Y248416D01*
X35645Y247545D01*
X33841Y246161D01*
X32457Y244357D01*
X31586Y242256D01*
X31290Y240002D01*
X31586Y237747D01*
X32457Y235646D01*
X33841Y233843D01*
X35645Y232458D01*
X37745Y231588D01*
X40000Y231291D01*
X42254Y231588D01*
X44355Y232458D01*
X46159Y233843D01*
X46942Y234863D01*
X58870D01*
X67622Y226110D01*
X66997Y224940D01*
X66001Y225138D01*
X46942D01*
X46159Y226159D01*
X44355Y227543D01*
X42254Y228413D01*
X40000Y228710D01*
X37745Y228413D01*
X35645Y227543D01*
X33841Y226159D01*
X32457Y224354D01*
X31586Y222254D01*
X31290Y219999D01*
X31586Y217745D01*
X32457Y215644D01*
X33841Y213840D01*
X35645Y212456D01*
X37745Y211586D01*
X40000Y211289D01*
X42254Y211586D01*
X44355Y212456D01*
X46159Y213840D01*
X46942Y214860D01*
X63872D01*
X72366Y206366D01*
X74033Y205252D01*
X76000Y204861D01*
X85953D01*
X86133Y204512D01*
X86290Y203591D01*
X84660Y202340D01*
X83235Y200483D01*
X82339Y198321D01*
X82033Y196000D01*
X82289Y194060D01*
X81497Y192790D01*
X80960D01*
Y189413D01*
X72656D01*
X57534Y204536D01*
X55453Y205926D01*
X52999Y206414D01*
X45828D01*
X44355Y207544D01*
X42254Y208415D01*
X40000Y208711D01*
X37745Y208415D01*
X35645Y207544D01*
X33841Y206160D01*
X32457Y204356D01*
X31586Y202255D01*
X31290Y200001D01*
X31586Y197747D01*
X32457Y195646D01*
X33841Y193842D01*
X35645Y192457D01*
X37745Y191587D01*
X40000Y191290D01*
X42254Y191587D01*
X44355Y192457D01*
X45828Y193588D01*
X50343D01*
X65465Y178465D01*
X67546Y177075D01*
X70000Y176587D01*
X80960D01*
Y173210D01*
X105040D01*
Y176460D01*
X120040D01*
Y191540D01*
X120949Y192411D01*
X133219D01*
X133338Y192331D01*
X135500Y191901D01*
X148000D01*
X150162Y192331D01*
X151994Y193556D01*
X153219Y195388D01*
X153649Y197550D01*
X153219Y199712D01*
X151994Y201544D01*
X150162Y202769D01*
X148000Y203199D01*
X135500D01*
X133338Y202769D01*
X133219Y202689D01*
X116550D01*
X115008Y202382D01*
X114467Y203512D01*
X114459Y203568D01*
X115452Y204861D01*
X134194D01*
X135500Y204601D01*
X148000D01*
X150162Y205031D01*
X151994Y206256D01*
X153219Y208088D01*
X153649Y210250D01*
X153219Y212412D01*
X151994Y214244D01*
X150162Y215469D01*
X148000Y215898D01*
X135500D01*
X133338Y215469D01*
X132845Y215139D01*
X126445D01*
X126013Y216409D01*
X126340Y216660D01*
X127262Y217861D01*
X133144D01*
X133338Y217731D01*
X135500Y217302D01*
X148000D01*
X150162Y217731D01*
X151994Y218956D01*
X153219Y220788D01*
X153649Y222950D01*
X153219Y225112D01*
X151994Y226944D01*
X150162Y228169D01*
X148000Y228598D01*
X135500D01*
X133338Y228169D01*
X133294Y228139D01*
X127262D01*
X126417Y229241D01*
X126558Y229981D01*
X126738Y230511D01*
X133219D01*
X133338Y230431D01*
X135500Y230002D01*
X148000D01*
X150162Y230431D01*
X151994Y231656D01*
X153219Y233488D01*
X153649Y235650D01*
X153219Y237812D01*
X151994Y239644D01*
X150162Y240869D01*
X148000Y241299D01*
X135500D01*
X133338Y240869D01*
X133219Y240789D01*
X114531D01*
X113647Y241941D01*
X114179Y243211D01*
X133219D01*
X133338Y243131D01*
X135500Y242701D01*
X148000D01*
X150162Y243131D01*
X151994Y244356D01*
X153219Y246188D01*
X153649Y248350D01*
X153219Y250512D01*
X151994Y252344D01*
X150162Y253569D01*
X148000Y253999D01*
X135500D01*
X133338Y253569D01*
X133219Y253489D01*
X100771D01*
X100661Y254321D01*
X99765Y256483D01*
X99553Y256760D01*
X99290Y257210D01*
Y272790D01*
X86210D01*
Y258763D01*
X85660Y258340D01*
X85060Y257559D01*
X83790Y257990D01*
X83790Y258242D01*
Y272790D01*
X70710D01*
Y271353D01*
X69440Y270827D01*
X56555Y283712D01*
X54888Y284826D01*
X52921Y285217D01*
X46942D01*
X46159Y286238D01*
X44355Y287622D01*
X42254Y288492D01*
X40000Y288789D01*
D02*
G37*
%LPD*%
G36*
X66034Y260252D02*
X68000Y259861D01*
X70710D01*
Y257210D01*
X82843D01*
X83215Y257210D01*
X83377Y257094D01*
X83631Y256703D01*
X84055Y256050D01*
X83339Y254321D01*
X83033Y252000D01*
X83339Y249679D01*
X84235Y247517D01*
X85660Y245660D01*
X87517Y244235D01*
X89679Y243339D01*
X92000Y243033D01*
X94321Y243339D01*
X94544Y243431D01*
X95650Y243211D01*
X99821D01*
X100353Y241941D01*
X99469Y240789D01*
X83478D01*
X64553Y259714D01*
X65363Y260701D01*
X66034Y260252D01*
D02*
G37*
D10*
X351000Y200000D02*
D03*
X319000D02*
D03*
X364000Y121000D02*
D03*
X332000D02*
D03*
X410000D02*
D03*
X378000D02*
D03*
X456000D02*
D03*
X424000D02*
D03*
D11*
X328000Y142000D02*
D03*
Y174000D02*
D03*
D12*
X93000Y183000D02*
D03*
Y151000D02*
D03*
D13*
X112000Y184000D02*
D03*
Y168000D02*
D03*
D14*
X236250Y184850D02*
D03*
D15*
Y197550D02*
D03*
Y210250D02*
D03*
Y222950D02*
D03*
Y235650D02*
D03*
Y248350D02*
D03*
Y261050D02*
D03*
Y273750D02*
D03*
Y286450D02*
D03*
Y299150D02*
D03*
X141750Y184850D02*
D03*
Y197550D02*
D03*
Y210250D02*
D03*
Y222950D02*
D03*
Y235650D02*
D03*
Y248350D02*
D03*
Y261050D02*
D03*
Y273750D02*
D03*
Y286450D02*
D03*
Y299150D02*
D03*
D16*
X488000Y152000D02*
D03*
X456000D02*
D03*
X371000Y329000D02*
D03*
X339000D02*
D03*
X372000Y270000D02*
D03*
X340000D02*
D03*
X372000Y234000D02*
D03*
X340000D02*
D03*
D17*
X77250Y265000D02*
D03*
X92750D02*
D03*
X87250Y298000D02*
D03*
X102750D02*
D03*
D18*
X338500Y309000D02*
D03*
X317500D02*
D03*
X338500Y291000D02*
D03*
X317500D02*
D03*
D19*
X374000Y369500D02*
D03*
Y348500D02*
D03*
Y310500D02*
D03*
Y289500D02*
D03*
D20*
X453250Y275250D02*
D03*
Y336750D02*
D03*
D21*
X400650Y275250D02*
D03*
Y336750D02*
D03*
D22*
X279000Y147250D02*
D03*
Y112750D02*
D03*
X302000D02*
D03*
Y147250D02*
D03*
X278001Y207250D02*
D03*
Y172750D02*
D03*
X301000Y172750D02*
D03*
Y207250D02*
D03*
X295000Y285750D02*
D03*
Y320250D02*
D03*
D23*
X249550Y197550D02*
Y208450D01*
X301000Y206000D02*
X318000D01*
X236250Y273750D02*
X260250D01*
X245000Y148000D02*
Y185000D01*
X81350Y235650D02*
X141750D01*
X268610Y313830D02*
X272390Y317610D01*
X268610Y264490D02*
Y313830D01*
X216000Y308000D02*
X228999Y320999D01*
X255000D01*
X256999Y286450D02*
Y293999D01*
X236250Y286450D02*
X256999D01*
X295000Y285750D02*
Y287000D01*
X280000D02*
X295000D01*
X268610Y264490D02*
X272390D01*
X256999Y272999D02*
X259499D01*
X260250Y273750D01*
X278000Y320250D02*
X295000D01*
X128850Y184850D02*
X141750D01*
X247750Y210250D02*
X249550Y208450D01*
X236250Y210250D02*
X247750D01*
X112000Y168000D02*
X123000D01*
X115250Y273750D02*
X141750D01*
X116550Y197550D02*
X141750D01*
X125550Y286450D02*
X141750D01*
X114000Y298000D02*
X125550Y286450D01*
X125000Y181000D02*
X128850Y184850D01*
X95650Y248350D02*
X141750D01*
X108000Y210000D02*
X141500D01*
X120000Y223000D02*
X141700D01*
X216000Y299000D02*
X236100D01*
X216000D02*
Y308000D01*
X108000Y281000D02*
X115000Y274000D01*
X112000Y193000D02*
X116550Y197550D01*
X78000Y223000D02*
X120000D01*
X76000Y281000D02*
X108000D01*
X92000Y252000D02*
Y264250D01*
X76000Y210000D02*
X108000D01*
X57000Y260000D02*
X81350Y235650D01*
X66001Y219999D02*
X76000Y210000D01*
X60998Y240002D02*
X78000Y223000D01*
X236250Y235650D02*
X287350D01*
X289000Y234000D01*
Y207250D02*
Y234000D01*
X371000Y345500D02*
X374000Y348500D01*
X371000Y329000D02*
Y345500D01*
Y329000D02*
X374000Y326000D01*
Y310500D02*
Y326000D01*
X372000Y287500D02*
X374000Y289500D01*
X372000Y270000D02*
Y287500D01*
X395400Y270000D02*
X400650Y275250D01*
X372000Y270000D02*
X395400D01*
X338500Y271500D02*
X340000Y270000D01*
X338500Y271500D02*
Y291000D01*
Y328500D02*
X339000Y329000D01*
X338500Y309000D02*
Y328500D01*
X374000Y369500D02*
Y382000D01*
X375000Y383000D01*
X386000D01*
X400650Y368350D01*
Y336750D02*
Y368350D01*
X317000Y336000D02*
X317500Y335500D01*
Y309000D02*
Y335500D01*
X317000Y265000D02*
X317500Y265500D01*
Y291000D01*
X295000Y273000D02*
Y285750D01*
X270350Y248350D02*
X295000Y273000D01*
X236250Y248350D02*
X270350D01*
X268950Y261050D02*
X272390Y264490D01*
X236250Y261050D02*
X268950D01*
X236250Y222950D02*
X261390D01*
Y112750D02*
Y222950D01*
X279000Y112750D02*
X302000D01*
X261390D02*
X279000D01*
X236100Y299000D02*
X236250Y299150D01*
Y197550D02*
X249550D01*
X236400Y185000D02*
X245000D01*
X236250Y184850D02*
X236400Y185000D01*
X318000Y201000D02*
Y206000D01*
X301000D02*
Y207250D01*
X301000Y207250D01*
X318000Y201000D02*
X319000Y200000D01*
X301000Y172750D02*
X302000Y171750D01*
Y147250D02*
Y171750D01*
X278001Y172750D02*
X279000Y171752D01*
Y147250D02*
Y171752D01*
X278001Y207250D02*
X289000D01*
X301000D01*
X351000Y184000D02*
Y200000D01*
X348000Y181000D02*
X351000Y184000D01*
X348000Y176000D02*
Y181000D01*
X346000Y174000D02*
X348000Y176000D01*
X330000Y174000D02*
X346000D01*
X329000Y173000D02*
X330000Y174000D01*
X328000Y174000D02*
X329000Y173000D01*
X332000Y121000D02*
Y130000D01*
X328000Y134000D02*
X332000Y130000D01*
X328000Y134000D02*
Y142000D01*
X321000Y121000D02*
X332000D01*
X312750Y112750D02*
X321000Y121000D01*
X302000Y112750D02*
X312750D01*
X364000Y121000D02*
X378000D01*
X410000D02*
X424000D01*
X456000Y152000D02*
X456000Y152000D01*
Y121000D02*
Y152000D01*
X141750Y299150D02*
X141900Y299000D01*
X157000D01*
X156850Y184850D02*
X157000Y185000D01*
X141750Y184850D02*
X156850D01*
X57109Y299891D02*
X76000Y281000D01*
X102750Y298000D02*
X114000D01*
X75000D02*
X87250D01*
X53043Y319957D02*
X75000Y298000D01*
X40000Y319957D02*
X53043D01*
X40000Y299891D02*
X57109D01*
X115000Y274000D02*
X115000D01*
X115250Y273750D01*
X92000Y252000D02*
X95650Y248350D01*
X68000Y265000D02*
X77250D01*
X52921Y280079D02*
X68000Y265000D01*
X40000Y280079D02*
X52921D01*
X92000Y264250D02*
X92750Y265000D01*
X91000Y183000D02*
Y196000D01*
X40000Y260000D02*
X57000D01*
X40000Y240002D02*
X60998D01*
X40000Y219999D02*
X66001D01*
X141700Y223000D02*
X141750Y222950D01*
X141500Y210000D02*
X141750Y210250D01*
X123000Y168000D02*
X125000Y170000D01*
Y181000D01*
X112000Y184000D02*
Y193000D01*
D24*
X93000Y151000D02*
X112000D01*
X64000D02*
X93000D01*
Y183000D02*
X111000D01*
X91000D02*
X93000D01*
X319000Y234000D02*
X340000D01*
X372000D02*
X373000Y235000D01*
X430000D01*
X112000Y151000D02*
Y168000D01*
X111000Y183000D02*
X112000Y184000D01*
X70000Y183000D02*
X91000D01*
X52999Y200001D02*
X70000Y183000D01*
X40000Y200001D02*
X52999D01*
X59000Y156000D02*
X64000Y151000D01*
X59000Y156000D02*
Y171000D01*
X50000Y180000D02*
X59000Y171000D01*
X40003Y180000D02*
X50000D01*
X40000Y180003D02*
X40003Y180000D01*
D25*
X40000Y180003D02*
D03*
D26*
Y200001D02*
D03*
Y219999D02*
D03*
Y240002D02*
D03*
Y260000D02*
D03*
Y280079D02*
D03*
Y299891D02*
D03*
Y319957D02*
D03*
D27*
X573400Y328260D02*
D03*
X522600D02*
D03*
X548000Y280000D02*
D03*
Y229200D02*
D03*
D28*
X524000Y143000D02*
D03*
X574800D02*
D03*
D29*
X550000Y450000D02*
D03*
Y50000D02*
D03*
X50000D02*
D03*
Y450000D02*
D03*
D30*
X255000Y320999D02*
D03*
X256999Y272999D02*
D03*
Y293999D02*
D03*
X280000Y287000D02*
D03*
X278000Y320250D02*
D03*
X319000Y234000D02*
D03*
X317000Y336000D02*
D03*
Y265000D02*
D03*
X216000Y299000D02*
D03*
X245000Y148000D02*
D03*
X250000Y198000D02*
D03*
X319000Y200000D02*
D03*
X348000Y181000D02*
D03*
X328000Y142000D02*
D03*
X157000Y299000D02*
D03*
Y185000D02*
D03*
X115000Y274000D02*
D03*
X92000Y252000D02*
D03*
X91000Y196000D02*
D03*
X120000Y223000D02*
D03*
X107000Y236000D02*
D03*
D31*
X580000Y280000D02*
D03*
Y265000D02*
D03*
Y250000D02*
D03*
Y235000D02*
D03*
X565000Y265000D02*
D03*
Y250000D02*
D03*
Y220000D02*
D03*
X550000Y250000D02*
D03*
X535000Y265000D02*
D03*
Y250000D02*
D03*
X520000Y280000D02*
D03*
Y265000D02*
D03*
Y250000D02*
D03*
Y235000D02*
D03*
Y220000D02*
D03*
X505000Y280000D02*
D03*
Y265000D02*
D03*
Y250000D02*
D03*
Y235000D02*
D03*
Y220000D02*
D03*
X490000Y235000D02*
D03*
Y220000D02*
D03*
X475000Y235000D02*
D03*
Y220000D02*
D03*
X460000Y235000D02*
D03*
Y220000D02*
D03*
X445000Y235000D02*
D03*
Y220000D02*
D03*
X430000Y235000D02*
D03*
Y220000D02*
D03*
X580000Y370000D02*
D03*
Y355000D02*
D03*
X565000Y385000D02*
D03*
Y370000D02*
D03*
Y355000D02*
D03*
X550000Y385000D02*
D03*
Y370000D02*
D03*
Y355000D02*
D03*
Y340000D02*
D03*
Y325000D02*
D03*
X535000Y385000D02*
D03*
Y370000D02*
D03*
Y355000D02*
D03*
X520000Y385000D02*
D03*
Y370000D02*
D03*
Y355000D02*
D03*
X505000Y385000D02*
D03*
Y370000D02*
D03*
Y355000D02*
D03*
Y340000D02*
D03*
X490000Y385000D02*
D03*
Y370000D02*
D03*
X475000Y385000D02*
D03*
Y370000D02*
D03*
X460000Y385000D02*
D03*
Y370000D02*
D03*
X445000Y385000D02*
D03*
Y370000D02*
D03*
X430000Y385000D02*
D03*
Y370000D02*
D03*
D32*
X108000Y210000D02*
D03*
M02*
