G04 Layer_Color=16711935*
%FSLAX44Y44*%
%MOMM*%
G71*
G01*
G75*
%ADD48R,2.1032X1.6532*%
%ADD49R,1.3032X1.2032*%
%ADD58R,1.9532X1.3032*%
%ADD59R,1.4715X1.4715*%
%ADD60C,1.4715*%
%ADD61C,2.7032*%
%ADD62C,2.6162*%
%ADD63C,6.0032*%
%ADD64C,1.4732*%
%ADD65C,1.2032*%
%ADD66C,1.5032*%
%ADD67R,1.2032X1.3032*%
%ADD68R,1.4032X1.7032*%
%ADD69R,1.2532X1.0032*%
D48*
X263000Y176000D02*
D03*
Y144000D02*
D03*
D49*
X245000Y178000D02*
D03*
Y162000D02*
D03*
X328000Y164000D02*
D03*
Y148000D02*
D03*
X314000Y307000D02*
D03*
Y323000D02*
D03*
Y278000D02*
D03*
Y294000D02*
D03*
D58*
X295000Y321250D02*
D03*
Y286750D02*
D03*
D59*
X40000Y180003D02*
D03*
D60*
Y200001D02*
D03*
Y219999D02*
D03*
Y240002D02*
D03*
Y260000D02*
D03*
Y280079D02*
D03*
Y299891D02*
D03*
Y319957D02*
D03*
D61*
X573400Y328260D02*
D03*
X522600D02*
D03*
X548000Y280000D02*
D03*
Y229200D02*
D03*
D62*
X524000Y143000D02*
D03*
X574800D02*
D03*
D63*
X550000Y450000D02*
D03*
Y50000D02*
D03*
X50000D02*
D03*
Y450000D02*
D03*
D64*
X255000Y320999D02*
D03*
X256999Y272999D02*
D03*
Y293999D02*
D03*
X280000Y287000D02*
D03*
X278000Y320250D02*
D03*
X319000Y234000D02*
D03*
X317000Y336000D02*
D03*
Y265000D02*
D03*
X216000Y299000D02*
D03*
X245000Y148000D02*
D03*
X250000Y198000D02*
D03*
X319000Y200000D02*
D03*
X348000Y181000D02*
D03*
X328000Y142000D02*
D03*
X157000Y299000D02*
D03*
Y185000D02*
D03*
X115000Y274000D02*
D03*
X92000Y252000D02*
D03*
X91000Y196000D02*
D03*
X120000Y223000D02*
D03*
X107000Y236000D02*
D03*
D65*
X580000Y280000D02*
D03*
Y265000D02*
D03*
Y250000D02*
D03*
Y235000D02*
D03*
X565000Y265000D02*
D03*
Y250000D02*
D03*
Y220000D02*
D03*
X550000Y250000D02*
D03*
X535000Y265000D02*
D03*
Y250000D02*
D03*
X520000Y280000D02*
D03*
Y265000D02*
D03*
Y250000D02*
D03*
Y235000D02*
D03*
Y220000D02*
D03*
X505000Y280000D02*
D03*
Y265000D02*
D03*
Y250000D02*
D03*
Y235000D02*
D03*
Y220000D02*
D03*
X490000Y235000D02*
D03*
Y220000D02*
D03*
X475000Y235000D02*
D03*
Y220000D02*
D03*
X460000Y235000D02*
D03*
Y220000D02*
D03*
X445000Y235000D02*
D03*
Y220000D02*
D03*
X430000Y235000D02*
D03*
Y220000D02*
D03*
X580000Y370000D02*
D03*
Y355000D02*
D03*
X565000Y385000D02*
D03*
Y370000D02*
D03*
Y355000D02*
D03*
X550000Y385000D02*
D03*
Y370000D02*
D03*
Y355000D02*
D03*
Y340000D02*
D03*
Y325000D02*
D03*
X535000Y385000D02*
D03*
Y370000D02*
D03*
Y355000D02*
D03*
X520000Y385000D02*
D03*
Y370000D02*
D03*
Y355000D02*
D03*
X505000Y385000D02*
D03*
Y370000D02*
D03*
Y355000D02*
D03*
Y340000D02*
D03*
X490000Y385000D02*
D03*
Y370000D02*
D03*
X475000Y385000D02*
D03*
Y370000D02*
D03*
X460000Y385000D02*
D03*
Y370000D02*
D03*
X445000Y385000D02*
D03*
Y370000D02*
D03*
X430000Y385000D02*
D03*
Y370000D02*
D03*
D66*
X108000Y210000D02*
D03*
D67*
X327000Y200000D02*
D03*
X343000D02*
D03*
X241000Y311000D02*
D03*
X225000D02*
D03*
X225000Y261000D02*
D03*
X241000D02*
D03*
X150000Y274000D02*
D03*
X134000D02*
D03*
X150000Y237000D02*
D03*
X134000D02*
D03*
X150000Y223000D02*
D03*
X134000D02*
D03*
X150000Y209000D02*
D03*
X134000D02*
D03*
D68*
X246500Y295000D02*
D03*
X225500D02*
D03*
X246500Y277000D02*
D03*
X225500D02*
D03*
D69*
X92000Y228250D02*
D03*
Y243750D02*
D03*
M02*
