G04 Layer_Color=65535*
%FSLAX44Y44*%
%MOMM*%
G71*
G01*
G75*
%ADD36C,0.2500*%
%ADD37C,0.6000*%
%ADD38C,0.1000*%
%ADD39C,0.2540*%
%ADD40C,0.1270*%
%ADD41C,0.1998*%
%ADD42C,0.1524*%
%ADD43C,0.2032*%
%ADD44C,0.1500*%
%ADD45R,14.4500X5.5750*%
D36*
X237500Y176350D02*
G03*
X237500Y176350I-1250J0D01*
G01*
D37*
X216500Y174500D02*
G03*
X216500Y174500I-3000J0D01*
G01*
D38*
X312000Y210750D02*
X358000D01*
Y189250D02*
Y210750D01*
X312000Y189250D02*
X358000D01*
X312000D02*
Y210750D01*
X330500Y191750D02*
X339500D01*
X330500Y208250D02*
X339500D01*
X338750Y135000D02*
Y181000D01*
X317250Y135000D02*
X338750D01*
X317250D02*
Y181000D01*
X338750D01*
X319750Y153500D02*
Y162500D01*
X336250Y153500D02*
Y162500D01*
X101500Y159500D02*
Y174500D01*
X84500Y159500D02*
Y174500D01*
X82000Y191750D02*
X104000D01*
X82000Y142250D02*
Y191750D01*
Y142250D02*
X104000D01*
Y191750D01*
X116000Y174500D02*
Y177500D01*
X108000Y174500D02*
Y177500D01*
X105000Y190500D02*
X119000D01*
X105000Y161500D02*
Y190500D01*
Y161500D02*
X119000D01*
Y190500D01*
X223000Y165000D02*
Y319000D01*
X155000Y165000D02*
Y319000D01*
Y165000D02*
X223000D01*
X155000Y319000D02*
X223000D01*
X447250Y163000D02*
X496500D01*
Y141250D02*
Y163000D01*
X447250Y141250D02*
X496500D01*
X447250D02*
Y163000D01*
X464500Y143500D02*
X479500D01*
X464500Y160500D02*
X479500D01*
X330250Y340000D02*
X379500D01*
Y318250D02*
Y340000D01*
X330250Y318250D02*
X379500D01*
X330250D02*
Y340000D01*
X347500Y320500D02*
X362500D01*
X347500Y337500D02*
X362500D01*
X331250Y281000D02*
X380500D01*
Y259250D02*
Y281000D01*
X331250Y259250D02*
X380500D01*
X331250D02*
Y281000D01*
X348500Y261500D02*
X363500D01*
X348500Y278500D02*
X363500D01*
X331250Y245000D02*
X380500D01*
Y223250D02*
Y245000D01*
X331250Y223250D02*
X380500D01*
X331250D02*
Y245000D01*
X348500Y225500D02*
X363500D01*
X348500Y242500D02*
X363500D01*
X325000Y131750D02*
X371000D01*
Y110250D02*
Y131750D01*
X325000Y110250D02*
X371000D01*
X325000D02*
Y131750D01*
X343500Y112750D02*
X352500D01*
X343500Y129250D02*
X352500D01*
X371000Y131750D02*
X417000D01*
Y110250D02*
Y131750D01*
X371000Y110250D02*
X417000D01*
X371000D02*
Y131750D01*
X389500Y112750D02*
X398500D01*
X389500Y129250D02*
X398500D01*
X417000Y131750D02*
X463000D01*
Y110250D02*
Y131750D01*
X417000Y110250D02*
X463000D01*
X417000D02*
Y131750D01*
X435500Y112750D02*
X444500D01*
X435500Y129250D02*
X444500D01*
X71750Y271750D02*
X98250D01*
Y258250D02*
Y271750D01*
X71750Y258250D02*
X98250D01*
X71750D02*
Y271750D01*
X84000Y269250D02*
X86000D01*
X83000Y260750D02*
X87000D01*
X83000Y269250D02*
X84000D01*
X86000D02*
X87000D01*
X324000Y302500D02*
X332000D01*
X324000Y315500D02*
X332000D01*
X311250Y299750D02*
Y318250D01*
Y299750D02*
X344750D01*
Y318250D01*
X311250D02*
X344750D01*
X380500Y355000D02*
Y363000D01*
X367500Y355000D02*
Y363000D01*
X364750Y342250D02*
X383250D01*
Y375750D01*
X364750D02*
X383250D01*
X364750Y342250D02*
Y375750D01*
X81750Y304750D02*
X108250D01*
Y291250D02*
Y304750D01*
X81750Y291250D02*
X108250D01*
X81750D02*
Y304750D01*
X94000Y302250D02*
X96000D01*
X93000Y293750D02*
X97000D01*
X93000Y302250D02*
X94000D01*
X96000D02*
X97000D01*
X324000Y284500D02*
X332000D01*
X324000Y297500D02*
X332000D01*
X311250Y281750D02*
Y300250D01*
Y281750D02*
X344750D01*
Y300250D01*
X311250D02*
X344750D01*
X380500Y296000D02*
Y304000D01*
X367500Y296000D02*
Y304000D01*
X364750Y283250D02*
X383250D01*
Y316750D01*
X364750D02*
X383250D01*
X364750Y283250D02*
Y316750D01*
X301000Y261000D02*
X314000Y281750D01*
X271000Y261000D02*
X301000D01*
X323000Y345000D02*
X327000Y318250D01*
X299000Y345000D02*
X323000D01*
D39*
X390000Y251750D02*
X493750D01*
Y360250D01*
X390000D02*
X493750D01*
X390000Y251750D02*
Y360250D01*
X72000Y180253D02*
X82000Y190253D01*
Y170253D02*
Y190253D01*
X72000Y180253D02*
X82000Y170253D01*
D40*
X267750Y105000D02*
Y155000D01*
X290250D01*
Y105000D02*
Y155000D01*
X267750Y105000D02*
X290250D01*
X313250D02*
Y155000D01*
X290750Y105000D02*
X313250D01*
X290750D02*
Y155000D01*
X313250D01*
X266751Y165000D02*
Y215000D01*
X289251D01*
Y165000D02*
Y215000D01*
X266751Y165000D02*
X289251D01*
X312250Y165000D02*
Y215000D01*
X289750Y165000D02*
X312250D01*
X289750D02*
Y215000D01*
X312250D01*
X306250Y278000D02*
Y328000D01*
X283750Y278000D02*
X306250D01*
X283750D02*
Y328000D01*
X306250D01*
X16501Y271235D02*
X23503D01*
X16501Y230235D02*
Y271235D01*
Y230235D02*
X23503D01*
Y271235D01*
X4503Y283241D02*
X16501D01*
X4503Y219241D02*
Y283241D01*
Y219241D02*
X16501D01*
Y283241D01*
D41*
X14503Y341293D02*
X69464D01*
X14503Y323767D02*
Y341293D01*
Y323767D02*
X23490D01*
X23503Y263501D01*
Y176506D02*
Y263501D01*
X14503Y176506D02*
X23503D01*
X14503Y158506D02*
Y176506D01*
Y158506D02*
X69498D01*
Y281501D01*
X69464Y341293D02*
X69498Y281501D01*
D42*
X531400Y213260D02*
X564400D01*
X531400Y295260D02*
X564400D01*
Y213260D02*
Y295260D01*
X531400Y213260D02*
Y295260D01*
X506400Y312260D02*
X589400D01*
X506400D02*
Y344260D01*
X589400D01*
Y312260D02*
Y344260D01*
X593400Y193260D02*
Y375260D01*
X501400Y193260D02*
X593400D01*
X501400D02*
Y375260D01*
X593400D01*
D43*
X508760Y127760D02*
X590040D01*
Y158240D01*
X508760D02*
X590040D01*
X508760Y127760D02*
Y158240D01*
D44*
X365000Y190000D02*
Y199997D01*
X369998D01*
X371665Y198331D01*
Y194998D01*
X369998Y193332D01*
X365000D01*
X368332D02*
X371665Y190000D01*
X381661Y199997D02*
X374997D01*
Y194998D01*
X378329Y196665D01*
X379995D01*
X381661Y194998D01*
Y191666D01*
X379995Y190000D01*
X376663D01*
X374997Y191666D01*
X345000Y155000D02*
Y164997D01*
X349998D01*
X351665Y163331D01*
Y159998D01*
X349998Y158332D01*
X345000D01*
X348332D02*
X351665Y155000D01*
X359995D02*
Y164997D01*
X354997Y159998D01*
X361661D01*
X86664Y135331D02*
X84998Y136997D01*
X81666D01*
X80000Y135331D01*
Y128666D01*
X81666Y127000D01*
X84998D01*
X86664Y128666D01*
X94995Y127000D02*
Y136997D01*
X89997Y131998D01*
X96661D01*
X116664Y157331D02*
X114998Y158997D01*
X111666D01*
X110000Y157331D01*
Y150666D01*
X111666Y149000D01*
X114998D01*
X116664Y150666D01*
X126661Y158997D02*
X119997D01*
Y153998D01*
X123329Y155665D01*
X124995D01*
X126661Y153998D01*
Y150666D01*
X124995Y149000D01*
X121663D01*
X119997Y150666D01*
X145000Y333997D02*
Y324000D01*
X149998D01*
X151664Y325666D01*
Y332331D01*
X149998Y333997D01*
X145000D01*
X154997Y324000D02*
Y330664D01*
X158329Y333997D01*
X161661Y330664D01*
Y324000D01*
Y328998D01*
X154997D01*
X164993Y324000D02*
X168326D01*
X166660D01*
Y333997D01*
X164993Y332331D01*
X448182Y180163D02*
Y170166D01*
X454846D01*
X458179D02*
X461511D01*
X459845D01*
Y180163D01*
X458179Y178497D01*
X342000Y354997D02*
Y345000D01*
X348665D01*
X358661D02*
X351997D01*
X358661Y351665D01*
Y353331D01*
X356995Y354997D01*
X353663D01*
X351997Y353331D01*
X314000Y257997D02*
Y248000D01*
X320664D01*
X323997Y256331D02*
X325663Y257997D01*
X328995D01*
X330661Y256331D01*
Y254664D01*
X328995Y252998D01*
X327329D01*
X328995D01*
X330661Y251332D01*
Y249666D01*
X328995Y248000D01*
X325663D01*
X323997Y249666D01*
X365000Y220997D02*
Y211000D01*
X371665D01*
X379995D02*
Y220997D01*
X374997Y215998D01*
X381661D01*
X340000Y96000D02*
Y105997D01*
X344998D01*
X346665Y104331D01*
Y100998D01*
X344998Y99332D01*
X340000D01*
X343332D02*
X346665Y96000D01*
X349997D02*
X353329D01*
X351663D01*
Y105997D01*
X349997Y104331D01*
X385000Y96000D02*
Y105997D01*
X389998D01*
X391665Y104331D01*
Y100998D01*
X389998Y99332D01*
X385000D01*
X388332D02*
X391665Y96000D01*
X401661D02*
X394997D01*
X401661Y102664D01*
Y104331D01*
X399995Y105997D01*
X396663D01*
X394997Y104331D01*
X432000Y98000D02*
Y107997D01*
X436998D01*
X438665Y106331D01*
Y102998D01*
X436998Y101332D01*
X432000D01*
X435332D02*
X438665Y98000D01*
X441997Y106331D02*
X443663Y107997D01*
X446995D01*
X448661Y106331D01*
Y104664D01*
X446995Y102998D01*
X445329D01*
X446995D01*
X448661Y101332D01*
Y99666D01*
X446995Y98000D01*
X443663D01*
X441997Y99666D01*
X79000Y274000D02*
Y283997D01*
X83998D01*
X85665Y282331D01*
Y278998D01*
X83998Y277332D01*
X79000D01*
X82332D02*
X85665Y274000D01*
X95661Y283997D02*
X92329Y282331D01*
X88997Y278998D01*
Y275666D01*
X90663Y274000D01*
X93995D01*
X95661Y275666D01*
Y277332D01*
X93995Y278998D01*
X88997D01*
X303000Y347000D02*
Y356997D01*
X307998D01*
X309664Y355331D01*
Y351998D01*
X307998Y350332D01*
X303000D01*
X306332D02*
X309664Y347000D01*
X312997Y356997D02*
X319661D01*
Y355331D01*
X312997Y348666D01*
Y347000D01*
X365000Y378000D02*
Y387997D01*
X369998D01*
X371665Y386331D01*
Y382998D01*
X369998Y381332D01*
X365000D01*
X368332D02*
X371665Y378000D01*
X374997Y386331D02*
X376663Y387997D01*
X379995D01*
X381661Y386331D01*
Y384664D01*
X379995Y382998D01*
X381661Y381332D01*
Y379666D01*
X379995Y378000D01*
X376663D01*
X374997Y379666D01*
Y381332D01*
X376663Y382998D01*
X374997Y384664D01*
Y386331D01*
X376663Y382998D02*
X379995D01*
X394000Y363000D02*
Y372997D01*
X398998D01*
X400664Y371331D01*
Y367998D01*
X398998Y366332D01*
X394000D01*
X397332D02*
X400664Y363000D01*
X403997Y364666D02*
X405663Y363000D01*
X408995D01*
X410661Y364666D01*
Y371331D01*
X408995Y372997D01*
X405663D01*
X403997Y371331D01*
Y369664D01*
X405663Y367998D01*
X410661D01*
X83000Y309000D02*
Y318997D01*
X87998D01*
X89664Y317331D01*
Y313998D01*
X87998Y312332D01*
X83000D01*
X86332D02*
X89664Y309000D01*
X92997D02*
X96329D01*
X94663D01*
Y318997D01*
X92997Y317331D01*
X101327D02*
X102994Y318997D01*
X106326D01*
X107992Y317331D01*
Y310666D01*
X106326Y309000D01*
X102994D01*
X101327Y310666D01*
Y317331D01*
X273000Y263000D02*
Y272997D01*
X277998D01*
X279664Y271331D01*
Y267998D01*
X277998Y266332D01*
X273000D01*
X276332D02*
X279664Y263000D01*
X282997D02*
X286329D01*
X284663D01*
Y272997D01*
X282997Y271331D01*
X291327D02*
X292994Y272997D01*
X296326D01*
X297992Y271331D01*
Y269664D01*
X296326Y267998D01*
X294660D01*
X296326D01*
X297992Y266332D01*
Y264666D01*
X296326Y263000D01*
X292994D01*
X291327Y264666D01*
X272003Y69000D02*
X278668D01*
X282000Y72332D01*
X278668Y75665D01*
X272003D01*
Y78997D02*
X282000D01*
Y83995D01*
X280334Y85661D01*
X273669D01*
X272003Y83995D01*
Y78997D01*
X282000Y88994D02*
Y92326D01*
Y90660D01*
X272003D01*
X273669Y88994D01*
X277252Y96750D02*
Y103414D01*
X273919Y100082D02*
X280584D01*
X297003Y74000D02*
X303668D01*
X307000Y77332D01*
X303668Y80665D01*
X297003D01*
Y83997D02*
X307000D01*
Y88995D01*
X305334Y90661D01*
X298669D01*
X297003Y88995D01*
Y83997D01*
X307000Y100658D02*
Y93994D01*
X300336Y100658D01*
X298669D01*
X297003Y98992D01*
Y95660D01*
X298669Y93994D01*
X303748Y163250D02*
Y156586D01*
X307081Y159918D02*
X300416D01*
X271003Y219000D02*
X277668D01*
X281000Y222332D01*
X277668Y225665D01*
X271003D01*
Y228997D02*
X281000D01*
Y233995D01*
X279334Y235661D01*
X272669D01*
X271003Y233995D01*
Y228997D01*
X272669Y238994D02*
X271003Y240660D01*
Y243992D01*
X272669Y245658D01*
X274335D01*
X276002Y243992D01*
Y242326D01*
Y243992D01*
X277668Y245658D01*
X279334D01*
X281000Y243992D01*
Y240660D01*
X279334Y238994D01*
X276253Y156750D02*
Y163415D01*
X272921Y160083D02*
X279585D01*
X298003Y227000D02*
X304668D01*
X308000Y230332D01*
X304668Y233664D01*
X298003D01*
Y236997D02*
X308000D01*
Y241995D01*
X306334Y243661D01*
X299669D01*
X298003Y241995D01*
Y236997D01*
X308000Y251992D02*
X298003D01*
X303002Y246994D01*
Y253658D01*
X302748Y223250D02*
Y216586D01*
X306081Y219918D02*
X299416D01*
X278003Y333000D02*
X284668D01*
X288000Y336332D01*
X284668Y339664D01*
X278003D01*
Y342997D02*
X288000D01*
Y347995D01*
X286334Y349661D01*
X279669D01*
X278003Y347995D01*
Y342997D01*
Y359658D02*
Y352994D01*
X283002D01*
X281336Y356326D01*
Y357992D01*
X283002Y359658D01*
X286334D01*
X288000Y357992D01*
Y354660D01*
X286334Y352994D01*
X296748Y336250D02*
Y329585D01*
X300081Y332918D02*
X293416D01*
X37000Y359997D02*
X43664Y350000D01*
Y359997D02*
X37000Y350000D01*
X53661D02*
X46997D01*
X53661Y356665D01*
Y358331D01*
X51995Y359997D01*
X48663D01*
X46997Y358331D01*
X576000Y393997D02*
X582664Y384000D01*
Y393997D02*
X576000Y384000D01*
X585997Y392331D02*
X587663Y393997D01*
X590995D01*
X592661Y392331D01*
Y390664D01*
X590995Y388998D01*
X589329D01*
X590995D01*
X592661Y387332D01*
Y385666D01*
X590995Y384000D01*
X587663D01*
X585997Y385666D01*
X579000Y109997D02*
X585664Y100000D01*
Y109997D02*
X579000Y100000D01*
X588997D02*
X592329D01*
X590663D01*
Y109997D01*
X588997Y108331D01*
X362000Y288000D02*
X352003D01*
Y292998D01*
X353669Y294664D01*
X357002D01*
X358668Y292998D01*
Y288000D01*
Y291332D02*
X362000Y294664D01*
Y297997D02*
Y301329D01*
Y299663D01*
X352003D01*
X353669Y297997D01*
X362000Y312992D02*
Y306327D01*
X355336Y312992D01*
X353669D01*
X352003Y311326D01*
Y307994D01*
X353669Y306327D01*
X212000Y435000D02*
Y444997D01*
X215332Y441665D01*
X218664Y444997D01*
Y435000D01*
X226995D02*
X223663D01*
X221997Y436666D01*
Y439998D01*
X223663Y441665D01*
X226995D01*
X228661Y439998D01*
Y438332D01*
X221997D01*
X233660Y441665D02*
X236992D01*
X238658Y439998D01*
Y435000D01*
X233660D01*
X231994Y436666D01*
X233660Y438332D01*
X238658D01*
X241990Y435000D02*
X246989D01*
X248655Y436666D01*
X246989Y438332D01*
X243657D01*
X241990Y439998D01*
X243657Y441665D01*
X248655D01*
X251987Y444997D02*
X255319D01*
X253653D01*
Y435000D01*
X251987D01*
X255319D01*
X260318D02*
Y441665D01*
X265316D01*
X266982Y439998D01*
Y435000D01*
X270315Y444997D02*
Y436666D01*
X271981Y435000D01*
X275313D01*
X276979Y436666D01*
Y444997D01*
X280311D02*
X283644D01*
X281978D01*
Y435000D01*
X280311D01*
X283644D01*
X212000Y455000D02*
Y464997D01*
X216998D01*
X218664Y463331D01*
Y459998D01*
X216998Y458332D01*
X212000D01*
X215332D02*
X218664Y455000D01*
X221997D02*
X225329D01*
X223663D01*
Y464997D01*
X221997Y463331D01*
X230327D02*
X231994Y464997D01*
X235326D01*
X236992Y463331D01*
Y456666D01*
X235326Y455000D01*
X231994D01*
X230327Y456666D01*
Y463331D01*
X240324D02*
X241990Y464997D01*
X245323D01*
X246989Y463331D01*
Y456666D01*
X245323Y455000D01*
X241990D01*
X240324Y456666D01*
Y463331D01*
X250321Y455000D02*
Y456666D01*
X251987D01*
Y455000D01*
X250321D01*
X265316D02*
X258652D01*
X265316Y461665D01*
Y463331D01*
X263650Y464997D01*
X260318D01*
X258652Y463331D01*
X268648D02*
X270315Y464997D01*
X273647D01*
X275313Y463331D01*
Y461665D01*
X273647Y459998D01*
X271981D01*
X273647D01*
X275313Y458332D01*
Y456666D01*
X273647Y455000D01*
X270315D01*
X268648Y456666D01*
X278645Y463331D02*
X280311Y464997D01*
X283644D01*
X285310Y463331D01*
Y456666D01*
X283644Y455000D01*
X280311D01*
X278645Y456666D01*
Y463331D01*
X288642Y455000D02*
Y456666D01*
X290308D01*
Y455000D01*
X288642D01*
X296973Y463331D02*
X298639Y464997D01*
X301971D01*
X303637Y463331D01*
Y456666D01*
X301971Y455000D01*
X298639D01*
X296973Y456666D01*
Y463331D01*
X313634Y455000D02*
X306969D01*
X313634Y461665D01*
Y463331D01*
X311968Y464997D01*
X308636D01*
X306969Y463331D01*
X316966D02*
X318632Y464997D01*
X321965D01*
X323631Y463331D01*
Y456666D01*
X321965Y455000D01*
X318632D01*
X316966Y456666D01*
Y463331D01*
X326963Y455000D02*
Y456666D01*
X328629D01*
Y455000D01*
X326963D01*
X335294Y463331D02*
X336960Y464997D01*
X340292D01*
X341958Y463331D01*
Y456666D01*
X340292Y455000D01*
X336960D01*
X335294Y456666D01*
Y463331D01*
X345290D02*
X346956Y464997D01*
X350289D01*
X351955Y463331D01*
Y456666D01*
X350289Y455000D01*
X346956D01*
X345290Y456666D01*
Y463331D01*
X355287D02*
X356953Y464997D01*
X360285D01*
X361952Y463331D01*
Y456666D01*
X360285Y455000D01*
X356953D01*
X355287Y456666D01*
Y463331D01*
X215998Y486997D02*
X212666D01*
X211000Y485331D01*
Y478666D01*
X212666Y477000D01*
X215998D01*
X217665Y478666D01*
Y485331D01*
X215998Y486997D01*
X220997D02*
Y477000D01*
X227661D01*
X230994Y486997D02*
X237658D01*
X234326D01*
Y477000D01*
X247655Y486997D02*
X240990D01*
Y477000D01*
X247655D01*
X240990Y481998D02*
X244323D01*
X257652Y485331D02*
X255986Y486997D01*
X252653D01*
X250987Y485331D01*
Y483665D01*
X252653Y481998D01*
X255986D01*
X257652Y480332D01*
Y478666D01*
X255986Y477000D01*
X252653D01*
X250987Y478666D01*
X260984Y486997D02*
X267648D01*
X264316D01*
Y477000D01*
X287642D02*
X280977D01*
X287642Y483665D01*
Y485331D01*
X285976Y486997D01*
X282644D01*
X280977Y485331D01*
X290974D02*
X292640Y486997D01*
X295973D01*
X297639Y485331D01*
Y483665D01*
X295973Y481998D01*
X297639Y480332D01*
Y478666D01*
X295973Y477000D01*
X292640D01*
X290974Y478666D01*
Y480332D01*
X292640Y481998D01*
X290974Y483665D01*
Y485331D01*
X292640Y481998D02*
X295973D01*
X300971Y477000D02*
Y478666D01*
X302637D01*
Y477000D01*
X300971D01*
X309302Y485331D02*
X310968Y486997D01*
X314300D01*
X315966Y485331D01*
Y478666D01*
X314300Y477000D01*
X310968D01*
X309302Y478666D01*
Y485331D01*
X325963Y486997D02*
X319298D01*
Y481998D01*
X322631Y483665D01*
X324297D01*
X325963Y481998D01*
Y478666D01*
X324297Y477000D01*
X320965D01*
X319298Y478666D01*
X329295Y477000D02*
Y478666D01*
X330961D01*
Y477000D01*
X329295D01*
X344290D02*
X337626D01*
X344290Y483665D01*
Y485331D01*
X342624Y486997D01*
X339292D01*
X337626Y485331D01*
X347623D02*
X349289Y486997D01*
X352621D01*
X354287Y485331D01*
Y478666D01*
X352621Y477000D01*
X349289D01*
X347623Y478666D01*
Y485331D01*
X357619Y477000D02*
X360952D01*
X359286D01*
Y486997D01*
X357619Y485331D01*
X365950Y478666D02*
X367616Y477000D01*
X370948D01*
X372615Y478666D01*
Y485331D01*
X370948Y486997D01*
X367616D01*
X365950Y485331D01*
Y483665D01*
X367616Y481998D01*
X372615D01*
D45*
X282750Y400875D02*
D03*
M02*
