M48
;Layer_Color=9474304
;FILE_FORMAT=4:4
METRIC,LZ
;TYPE=PLATED
T1F00S00C0.5000
T2F00S00C0.7000
T3F00S00C0.8000
T4F00S00C1.5000
T5F00S00C3.5000
%
T01
X0043Y0022
X00445
X0046
X00475
X0049
X00505
X0052
Y00235
Y0025
X00535
X0055
X00565
X0058
Y00265
Y0028
X00565Y00265
X00535
X0052
Y0028
X00505
Y00265
Y0025
Y00235
X0049
X00475
X0046
X00445
X0043
Y0037
X00445
X0046
X00475
X0049
X00505
X0052
X00535
X0055
X00565
X0058
Y00355
X00565
X0055
Y0034
Y00325
X00535Y00355
X0052
X00505
Y0034
Y00385
X0052
X00535
X0055
X00565
X0049
X00475
X0046
X00445
X0043
X0058Y00235
X00565Y0022
T02
X00328Y00142
X00245Y00148
X0025Y00198
X00256999Y00272999
Y00293999
X00255Y00320999
X00278Y0032025
X0028Y00287
X00216Y00299
X00157
X00115Y00274
X00092Y00252
X00107Y00236
X0012Y00223
X00108Y0021
X00091Y00196
X00157Y00185
X00319Y002
Y00234
X00317Y00265
Y00336
X00348Y00181
T03
X0004Y00180003
Y00200001
Y00219999
Y00240002
Y0026
Y00280079
Y00299891
Y00319957
T04
X00524Y00143
X005748
X00548Y002292
Y0028
X005734Y0032826
X005226
T05
X0055Y0005
X0005
Y0045
X0055Y0045
M30
