G04 Layer_Color=32896*
%FSLAX44Y44*%
%MOMM*%
G71*
G01*
G75*
%ADD38C,0.1000*%
%ADD40C,0.1270*%
%ADD44C,0.1500*%
D38*
X241000Y168500D02*
Y171500D01*
X249000Y168500D02*
Y171500D01*
X238000Y184500D02*
X252000D01*
Y155500D02*
Y184500D01*
X238000Y155500D02*
X252000D01*
X238000D02*
Y184500D01*
X324000Y154500D02*
Y157500D01*
X332000Y154500D02*
Y157500D01*
X321000Y170500D02*
X335000D01*
Y141500D02*
Y170500D01*
X321000Y141500D02*
X335000D01*
X321000D02*
Y170500D01*
X254500Y152500D02*
Y167500D01*
X271500Y152500D02*
Y167500D01*
X252000Y184750D02*
X274000D01*
Y135250D02*
Y184750D01*
X252000Y135250D02*
X274000D01*
X252000D02*
Y184750D01*
X333500Y196000D02*
X336500D01*
X333500Y204000D02*
X336500D01*
X320500Y193000D02*
Y207000D01*
X349500D01*
Y193000D02*
Y207000D01*
X320500Y193000D02*
X349500D01*
X232500Y301750D02*
X239500D01*
X232500Y288250D02*
X239500D01*
X218000Y286000D02*
Y304000D01*
X254000D01*
Y286000D02*
Y304000D01*
X218000Y286000D02*
X254000D01*
X231500Y315000D02*
X234500D01*
X231500Y307000D02*
X234500D01*
X247500Y304000D02*
Y318000D01*
X218500Y304000D02*
X247500D01*
X218500D02*
Y318000D01*
X247500D01*
X232500Y283750D02*
X239500D01*
X232500Y270250D02*
X239500D01*
X218000Y268000D02*
Y286000D01*
X254000D01*
Y268000D02*
Y286000D01*
X218000Y268000D02*
X254000D01*
X231500Y257000D02*
X234500D01*
X231500Y265000D02*
X234500D01*
X218500Y254000D02*
Y268000D01*
X247500D01*
Y254000D02*
Y268000D01*
X218500Y254000D02*
X247500D01*
X140500Y278000D02*
X143500D01*
X140500Y270000D02*
X143500D01*
X156500Y267000D02*
Y281000D01*
X127500Y267000D02*
X156500D01*
X127500D02*
Y281000D01*
X156500D01*
X140500Y241000D02*
X143500D01*
X140500Y233000D02*
X143500D01*
X156500Y230000D02*
Y244000D01*
X127500Y230000D02*
X156500D01*
X127500D02*
Y244000D01*
X156500D01*
X140500Y227000D02*
X143500D01*
X140500Y219000D02*
X143500D01*
X156500Y216000D02*
Y230000D01*
X127500Y216000D02*
X156500D01*
X127500D02*
Y230000D01*
X156500D01*
X140500Y213000D02*
X143500D01*
X140500Y205000D02*
X143500D01*
X156500Y202000D02*
Y216000D01*
X127500Y202000D02*
X156500D01*
X127500D02*
Y216000D01*
X156500D01*
X318000Y313500D02*
Y316500D01*
X310000Y313500D02*
Y316500D01*
X307000Y300500D02*
X321000D01*
X307000D02*
Y329500D01*
X321000D01*
Y300500D02*
Y329500D01*
X318000Y284500D02*
Y287500D01*
X310000Y284500D02*
Y287500D01*
X307000Y271500D02*
X321000D01*
X307000D02*
Y300500D01*
X321000D01*
Y271500D02*
Y300500D01*
X98750Y222750D02*
Y249250D01*
X85250D02*
X98750D01*
X85250Y222750D02*
Y249250D01*
Y222750D02*
X98750D01*
X96250Y235000D02*
Y237000D01*
X87750Y234000D02*
Y238000D01*
X96250Y234000D02*
Y235000D01*
Y237000D02*
Y238000D01*
D40*
X306250Y279000D02*
Y329000D01*
X283750D02*
X306250D01*
X283750Y279000D02*
Y329000D01*
Y279000D02*
X306250D01*
D44*
X244414Y199833D02*
X246080Y201499D01*
X249412D01*
X251078Y199833D01*
Y193168D01*
X249412Y191502D01*
X246080D01*
X244414Y193168D01*
X241081Y191502D02*
X237749D01*
X239415D01*
Y201499D01*
X241081Y199833D01*
X350336Y161331D02*
X352002Y162997D01*
X355334D01*
X357000Y161331D01*
Y154666D01*
X355334Y153000D01*
X352002D01*
X350336Y154666D01*
X340339Y153000D02*
X347003D01*
X340339Y159664D01*
Y161331D01*
X342005Y162997D01*
X345337D01*
X347003Y161331D01*
X266336Y130331D02*
X268002Y131997D01*
X271334D01*
X273000Y130331D01*
Y123666D01*
X271334Y122000D01*
X268002D01*
X266336Y123666D01*
X263003Y130331D02*
X261337Y131997D01*
X258005D01*
X256339Y130331D01*
Y128665D01*
X258005Y126998D01*
X259671D01*
X258005D01*
X256339Y125332D01*
Y123666D01*
X258005Y122000D01*
X261337D01*
X263003Y123666D01*
X330336Y220331D02*
X332002Y221997D01*
X335334D01*
X337000Y220331D01*
Y213666D01*
X335334Y212000D01*
X332002D01*
X330336Y213666D01*
X320339Y221997D02*
X323671Y220331D01*
X327003Y216998D01*
Y213666D01*
X325337Y212000D01*
X322005D01*
X320339Y213666D01*
Y215332D01*
X322005Y216998D01*
X327003D01*
X203335Y288331D02*
X205002Y289997D01*
X208334D01*
X210000Y288331D01*
Y281666D01*
X208334Y280000D01*
X205002D01*
X203335Y281666D01*
X200003Y289997D02*
X193339D01*
Y288331D01*
X200003Y281666D01*
Y280000D01*
X239841Y333437D02*
X241508Y335103D01*
X244840D01*
X246506Y333437D01*
Y326772D01*
X244840Y325106D01*
X241508D01*
X239841Y326772D01*
X236509Y333437D02*
X234843Y335103D01*
X231511D01*
X229845Y333437D01*
Y331771D01*
X231511Y330104D01*
X229845Y328438D01*
Y326772D01*
X231511Y325106D01*
X234843D01*
X236509Y326772D01*
Y328438D01*
X234843Y330104D01*
X236509Y331771D01*
Y333437D01*
X234843Y330104D02*
X231511D01*
X206669Y263335D02*
X205003Y265002D01*
Y268334D01*
X206669Y270000D01*
X213334D01*
X215000Y268334D01*
Y265002D01*
X213334Y263335D01*
Y260003D02*
X215000Y258337D01*
Y255005D01*
X213334Y253339D01*
X206669D01*
X205003Y255005D01*
Y258337D01*
X206669Y260003D01*
X208335D01*
X210002Y258337D01*
Y253339D01*
X238335Y248331D02*
X240002Y249997D01*
X243334D01*
X245000Y248331D01*
Y241666D01*
X243334Y240000D01*
X240002D01*
X238335Y241666D01*
X235003Y240000D02*
X231671D01*
X233337D01*
Y249997D01*
X235003Y248331D01*
X226673D02*
X225006Y249997D01*
X221674D01*
X220008Y248331D01*
Y241666D01*
X221674Y240000D01*
X225006D01*
X226673Y241666D01*
Y248331D01*
X148910Y296353D02*
X150576Y298019D01*
X153908D01*
X155574Y296353D01*
Y289688D01*
X153908Y288022D01*
X150576D01*
X148910Y289688D01*
X145577Y288022D02*
X142245D01*
X143911D01*
Y298019D01*
X145577Y296353D01*
X137247Y288022D02*
X133914D01*
X135581D01*
Y298019D01*
X137247Y296353D01*
X147336Y257331D02*
X149002Y258997D01*
X152334D01*
X154000Y257331D01*
Y250666D01*
X152334Y249000D01*
X149002D01*
X147336Y250666D01*
X144003Y249000D02*
X140671D01*
X142337D01*
Y258997D01*
X144003Y257331D01*
X129008Y249000D02*
X135673D01*
X129008Y255665D01*
Y257331D01*
X130674Y258997D01*
X134006D01*
X135673Y257331D01*
X162669Y226336D02*
X161003Y228002D01*
Y231334D01*
X162669Y233000D01*
X169334D01*
X171000Y231334D01*
Y228002D01*
X169334Y226336D01*
X171000Y223003D02*
Y219671D01*
Y221337D01*
X161003D01*
X162669Y223003D01*
Y214673D02*
X161003Y213006D01*
Y209674D01*
X162669Y208008D01*
X164335D01*
X166002Y209674D01*
Y211340D01*
Y209674D01*
X167668Y208008D01*
X169334D01*
X171000Y209674D01*
Y213006D01*
X169334Y214673D01*
X146335Y195331D02*
X148002Y196997D01*
X151334D01*
X153000Y195331D01*
Y188666D01*
X151334Y187000D01*
X148002D01*
X146335Y188666D01*
X143003Y187000D02*
X139671D01*
X141337D01*
Y196997D01*
X143003Y195331D01*
X129674Y187000D02*
Y196997D01*
X134673Y191998D01*
X128008D01*
X326669Y323335D02*
X325003Y325002D01*
Y328334D01*
X326669Y330000D01*
X333334D01*
X335000Y328334D01*
Y325002D01*
X333334Y323335D01*
X335000Y320003D02*
Y316671D01*
Y318337D01*
X325003D01*
X326669Y320003D01*
X325003Y305008D02*
Y311673D01*
X330002D01*
X328335Y308340D01*
Y306674D01*
X330002Y305008D01*
X333334D01*
X335000Y306674D01*
Y310006D01*
X333334Y311673D01*
X326669Y290336D02*
X325003Y292002D01*
Y295334D01*
X326669Y297000D01*
X333334D01*
X335000Y295334D01*
Y292002D01*
X333334Y290336D01*
X335000Y287003D02*
Y283671D01*
Y285337D01*
X325003D01*
X326669Y287003D01*
X325003Y272008D02*
X326669Y275340D01*
X330002Y278673D01*
X333334D01*
X335000Y277006D01*
Y273674D01*
X333334Y272008D01*
X331668D01*
X330002Y273674D01*
Y278673D01*
X80000Y249000D02*
X70003D01*
Y244002D01*
X71669Y242335D01*
X75002D01*
X76668Y244002D01*
Y249000D01*
Y245668D02*
X80000Y242335D01*
Y239003D02*
Y235671D01*
Y237337D01*
X70003D01*
X71669Y239003D01*
X80000Y230673D02*
Y227340D01*
Y229007D01*
X70003D01*
X71669Y230673D01*
X269003Y349000D02*
X275668D01*
X279000Y345668D01*
X275668Y342336D01*
X269003D01*
Y339003D02*
X279000D01*
Y334005D01*
X277334Y332339D01*
X270669D01*
X269003Y334005D01*
Y339003D01*
Y322342D02*
X270669Y325674D01*
X274002Y329006D01*
X277334D01*
X279000Y327340D01*
Y324008D01*
X277334Y322342D01*
X275668D01*
X274002Y324008D01*
Y329006D01*
X296748Y270750D02*
Y277414D01*
X300081Y274082D02*
X293416D01*
X471000Y450000D02*
Y459997D01*
X467668Y456665D01*
X464336Y459997D01*
Y450000D01*
X456005D02*
X459337D01*
X461003Y451666D01*
Y454998D01*
X459337Y456665D01*
X456005D01*
X454339Y454998D01*
Y453332D01*
X461003D01*
X449340Y456665D02*
X446008D01*
X444342Y454998D01*
Y450000D01*
X449340D01*
X451006Y451666D01*
X449340Y453332D01*
X444342D01*
X441010Y450000D02*
X436011D01*
X434345Y451666D01*
X436011Y453332D01*
X439343D01*
X441010Y454998D01*
X439343Y456665D01*
X434345D01*
X431013Y459997D02*
X427681D01*
X429347D01*
Y450000D01*
X431013D01*
X427681D01*
X422682D02*
Y456665D01*
X417684D01*
X416018Y454998D01*
Y450000D01*
X412686Y459997D02*
Y451666D01*
X411019Y450000D01*
X407687D01*
X406021Y451666D01*
Y459997D01*
X402689D02*
X399356D01*
X401022D01*
Y450000D01*
X402689D01*
X399356D01*
X468000Y475000D02*
Y484997D01*
X463002D01*
X461335Y483331D01*
Y479998D01*
X463002Y478332D01*
X468000D01*
X464668D02*
X461335Y475000D01*
X458003D02*
X454671D01*
X456337D01*
Y484997D01*
X458003Y483331D01*
X449673D02*
X448006Y484997D01*
X444674D01*
X443008Y483331D01*
Y476666D01*
X444674Y475000D01*
X448006D01*
X449673Y476666D01*
Y483331D01*
X439676D02*
X438010Y484997D01*
X434677D01*
X433011Y483331D01*
Y476666D01*
X434677Y475000D01*
X438010D01*
X439676Y476666D01*
Y483331D01*
X429679Y475000D02*
Y476666D01*
X428013D01*
Y475000D01*
X429679D01*
X414684D02*
X421348D01*
X414684Y481665D01*
Y483331D01*
X416350Y484997D01*
X419682D01*
X421348Y483331D01*
X411352D02*
X409686Y484997D01*
X406353D01*
X404687Y483331D01*
Y481665D01*
X406353Y479998D01*
X408019D01*
X406353D01*
X404687Y478332D01*
Y476666D01*
X406353Y475000D01*
X409686D01*
X411352Y476666D01*
X401355Y483331D02*
X399689Y484997D01*
X396356D01*
X394690Y483331D01*
Y476666D01*
X396356Y475000D01*
X399689D01*
X401355Y476666D01*
Y483331D01*
X391358Y475000D02*
Y476666D01*
X389692D01*
Y475000D01*
X391358D01*
X383027Y483331D02*
X381361Y484997D01*
X378029D01*
X376363Y483331D01*
Y476666D01*
X378029Y475000D01*
X381361D01*
X383027Y476666D01*
Y483331D01*
X366366Y475000D02*
X373031D01*
X366366Y481665D01*
Y483331D01*
X368032Y484997D01*
X371365D01*
X373031Y483331D01*
X363034D02*
X361368Y484997D01*
X358036D01*
X356369Y483331D01*
Y476666D01*
X358036Y475000D01*
X361368D01*
X363034Y476666D01*
Y483331D01*
X353037Y475000D02*
Y476666D01*
X351371D01*
Y475000D01*
X353037D01*
X344706Y483331D02*
X343040Y484997D01*
X339708D01*
X338042Y483331D01*
Y476666D01*
X339708Y475000D01*
X343040D01*
X344706Y476666D01*
Y483331D01*
X334710D02*
X333044Y484997D01*
X329711D01*
X328045Y483331D01*
Y476666D01*
X329711Y475000D01*
X333044D01*
X334710Y476666D01*
Y483331D01*
X324713Y475000D02*
X321381D01*
X323047D01*
Y484997D01*
X324713Y483331D01*
M02*
