G04 Layer_Color=16711935*
%FSLAX24Y24*%
%MOIN*%
G70*
G01*
G75*
%ADD24C,0.0098*%
%ADD28C,0.0867*%
%ADD29C,0.1064*%
%ADD30C,0.0880*%
%ADD31C,0.1030*%
%ADD32C,0.2836*%
%ADD33C,0.4017*%
%ADD34C,0.0080*%
%ADD35C,0.0434*%
D24*
X1527Y6220D02*
Y5630D01*
X1822D01*
X1921Y5728D01*
Y5925D01*
X1822Y6024D01*
X1527D01*
X1724D02*
X1921Y6220D01*
X2118D02*
X2314D01*
X2216D01*
Y5630D01*
X2118Y5728D01*
X2610D02*
X2708Y5630D01*
X2905D01*
X3003Y5728D01*
Y6122D01*
X2905Y6220D01*
X2708D01*
X2610Y6122D01*
Y5728D01*
X3200D02*
X3298Y5630D01*
X3495D01*
X3594Y5728D01*
Y6122D01*
X3495Y6220D01*
X3298D01*
X3200Y6122D01*
Y5728D01*
X3790Y6220D02*
Y6122D01*
X3889D01*
Y6220D01*
X3790D01*
X4676D02*
X4282D01*
X4676Y5827D01*
Y5728D01*
X4577Y5630D01*
X4381D01*
X4282Y5728D01*
X4873D02*
X4971Y5630D01*
X5168D01*
X5266Y5728D01*
Y5827D01*
X5168Y5925D01*
X5069D01*
X5168D01*
X5266Y6024D01*
Y6122D01*
X5168Y6220D01*
X4971D01*
X4873Y6122D01*
X5463Y5728D02*
X5561Y5630D01*
X5758D01*
X5857Y5728D01*
Y6122D01*
X5758Y6220D01*
X5561D01*
X5463Y6122D01*
Y5728D01*
X6053Y6220D02*
Y6122D01*
X6152D01*
Y6220D01*
X6053D01*
X6545Y5728D02*
X6644Y5630D01*
X6841D01*
X6939Y5728D01*
Y6122D01*
X6841Y6220D01*
X6644D01*
X6545Y6122D01*
Y5728D01*
X7431Y6220D02*
Y5630D01*
X7136Y5925D01*
X7529D01*
X7726Y5728D02*
X7824Y5630D01*
X8021D01*
X8120Y5728D01*
Y6122D01*
X8021Y6220D01*
X7824D01*
X7726Y6122D01*
Y5728D01*
X8316Y6220D02*
Y6122D01*
X8415D01*
Y6220D01*
X8316D01*
X8808Y5728D02*
X8907Y5630D01*
X9104D01*
X9202Y5728D01*
Y6122D01*
X9104Y6220D01*
X8907D01*
X8808Y6122D01*
Y5728D01*
X9399D02*
X9497Y5630D01*
X9694D01*
X9792Y5728D01*
Y6122D01*
X9694Y6220D01*
X9497D01*
X9399Y6122D01*
Y5728D01*
X9989Y6220D02*
X10186D01*
X10088D01*
Y5630D01*
X9989Y5728D01*
X10481Y5925D02*
X10875D01*
X11071Y5728D02*
X11170Y5630D01*
X11367D01*
X11465Y5728D01*
Y6122D01*
X11367Y6220D01*
X11170D01*
X11071Y6122D01*
Y5728D01*
X11662D02*
X11760Y5630D01*
X11957D01*
X12055Y5728D01*
Y6122D01*
X11957Y6220D01*
X11760D01*
X11662Y6122D01*
Y5728D01*
X4922Y4384D02*
X4528D01*
Y4679D01*
X4725D01*
X4528D01*
Y4975D01*
X5119D02*
X5315D01*
X5217D01*
Y4581D01*
X5119D01*
X5611Y4975D02*
X5807D01*
X5709D01*
Y4384D01*
X5611D01*
X6201Y4483D02*
Y4581D01*
X6103D01*
X6299D01*
X6201D01*
Y4876D01*
X6299Y4975D01*
X6595Y4581D02*
Y4975D01*
Y4778D01*
X6693Y4679D01*
X6791Y4581D01*
X6890D01*
X7185Y4975D02*
X7382D01*
X7283D01*
Y4384D01*
X7185Y4483D01*
X7677Y5073D02*
X8070D01*
X8267Y4581D02*
X8464Y4975D01*
X8661Y4581D01*
X8858Y4975D02*
X9054D01*
X8956D01*
Y4384D01*
X8858Y4483D01*
D28*
X50469Y54528D02*
D03*
X53468D02*
D03*
D29*
X42323Y39173D02*
D03*
X38307D02*
D03*
X42402Y43307D02*
D03*
X38386D02*
D03*
X42402Y47441D02*
D03*
X38386D02*
D03*
X42402Y51575D02*
D03*
X38386D02*
D03*
D30*
X43898Y49409D02*
D03*
X58661D02*
D03*
Y40945D02*
D03*
X43898D02*
D03*
D31*
X6858Y17717D02*
D03*
X8858D02*
D03*
X44882Y55480D02*
D03*
Y57480D02*
D03*
X18898Y6134D02*
D03*
Y4134D02*
D03*
X58434Y57402D02*
D03*
Y55402D02*
D03*
X50953Y60039D02*
D03*
X52953D02*
D03*
D32*
X57286Y31892D02*
D03*
X30122Y4715D02*
D03*
X7098Y27367D02*
D03*
X29130Y58848D02*
D03*
D33*
X43701Y18307D02*
D03*
X18110Y43110D02*
D03*
D34*
X47877Y14131D02*
D03*
X39525D02*
D03*
Y22483D02*
D03*
X47877D02*
D03*
X43701Y26659D02*
D03*
Y9955D02*
D03*
X35349Y18307D02*
D03*
X52052D02*
D03*
X26335Y44560D02*
D03*
X9885Y41660D02*
D03*
X19560Y34885D02*
D03*
X16660Y51335D02*
D03*
X21497Y47948D02*
D03*
X13273Y46498D02*
D03*
X14723Y38273D02*
D03*
X22948Y39723D02*
D03*
D35*
X16772Y2598D02*
D03*
Y3386D02*
D03*
Y4173D02*
D03*
Y4961D02*
D03*
Y5748D02*
D03*
Y6535D02*
D03*
Y7323D02*
D03*
Y8110D02*
D03*
Y8898D02*
D03*
Y9685D02*
D03*
X17559Y2598D02*
D03*
Y3386D02*
D03*
Y4173D02*
D03*
Y4961D02*
D03*
Y5748D02*
D03*
Y6535D02*
D03*
Y7323D02*
D03*
Y8110D02*
D03*
Y8898D02*
D03*
Y9685D02*
D03*
X18346Y2598D02*
D03*
Y3386D02*
D03*
Y7323D02*
D03*
Y8110D02*
D03*
Y8898D02*
D03*
Y9685D02*
D03*
X19134Y2598D02*
D03*
Y3386D02*
D03*
Y7323D02*
D03*
Y8110D02*
D03*
Y8898D02*
D03*
Y9685D02*
D03*
X19921Y2598D02*
D03*
Y3386D02*
D03*
Y4173D02*
D03*
Y4961D02*
D03*
Y5748D02*
D03*
Y6535D02*
D03*
Y7323D02*
D03*
Y8110D02*
D03*
Y8898D02*
D03*
Y9685D02*
D03*
X20709Y2598D02*
D03*
Y3386D02*
D03*
Y4173D02*
D03*
Y4961D02*
D03*
Y5748D02*
D03*
Y6535D02*
D03*
Y7323D02*
D03*
Y8110D02*
D03*
Y8898D02*
D03*
Y9685D02*
D03*
X21496Y2598D02*
D03*
Y3386D02*
D03*
Y4173D02*
D03*
Y4961D02*
D03*
Y5748D02*
D03*
Y6535D02*
D03*
Y7323D02*
D03*
Y8110D02*
D03*
Y8898D02*
D03*
Y9685D02*
D03*
X27008Y2598D02*
D03*
Y3386D02*
D03*
Y4173D02*
D03*
Y4961D02*
D03*
Y5748D02*
D03*
Y6535D02*
D03*
Y7323D02*
D03*
Y8110D02*
D03*
Y8898D02*
D03*
Y9685D02*
D03*
X27795Y2598D02*
D03*
Y3386D02*
D03*
Y4173D02*
D03*
Y4961D02*
D03*
Y5748D02*
D03*
Y6535D02*
D03*
Y7323D02*
D03*
Y8110D02*
D03*
Y8898D02*
D03*
Y9685D02*
D03*
X28583Y2598D02*
D03*
Y5748D02*
D03*
Y6535D02*
D03*
Y7323D02*
D03*
Y8110D02*
D03*
Y8898D02*
D03*
Y9685D02*
D03*
X29370Y2598D02*
D03*
Y6535D02*
D03*
Y7323D02*
D03*
Y8110D02*
D03*
Y8898D02*
D03*
Y9685D02*
D03*
X30157Y2598D02*
D03*
Y6535D02*
D03*
Y7323D02*
D03*
Y8110D02*
D03*
Y8898D02*
D03*
Y9685D02*
D03*
X30945Y2598D02*
D03*
Y6535D02*
D03*
Y7323D02*
D03*
Y8110D02*
D03*
Y8898D02*
D03*
Y9685D02*
D03*
X31732Y2598D02*
D03*
Y3386D02*
D03*
Y4173D02*
D03*
Y4961D02*
D03*
Y5748D02*
D03*
Y6535D02*
D03*
Y7323D02*
D03*
Y8110D02*
D03*
Y8898D02*
D03*
Y9685D02*
D03*
X32520Y2598D02*
D03*
Y3386D02*
D03*
Y4173D02*
D03*
Y4961D02*
D03*
Y5748D02*
D03*
Y6535D02*
D03*
Y7323D02*
D03*
Y8110D02*
D03*
Y8898D02*
D03*
Y9685D02*
D03*
X4173Y15197D02*
D03*
Y15984D02*
D03*
Y16772D02*
D03*
Y17559D02*
D03*
Y18346D02*
D03*
Y19134D02*
D03*
Y19921D02*
D03*
X4961Y15197D02*
D03*
Y15984D02*
D03*
Y16772D02*
D03*
Y17559D02*
D03*
Y18346D02*
D03*
Y19134D02*
D03*
Y19921D02*
D03*
X5748Y15197D02*
D03*
Y15984D02*
D03*
Y16772D02*
D03*
Y17559D02*
D03*
Y18346D02*
D03*
Y19134D02*
D03*
Y19921D02*
D03*
X6535Y15197D02*
D03*
Y15984D02*
D03*
Y16772D02*
D03*
Y19134D02*
D03*
Y19921D02*
D03*
X7323Y15197D02*
D03*
Y15984D02*
D03*
Y16772D02*
D03*
Y18346D02*
D03*
Y19134D02*
D03*
Y19921D02*
D03*
X8110Y15197D02*
D03*
Y15984D02*
D03*
Y16772D02*
D03*
Y17559D02*
D03*
Y18346D02*
D03*
Y19134D02*
D03*
Y19921D02*
D03*
X8898Y15197D02*
D03*
Y15984D02*
D03*
Y16772D02*
D03*
Y19134D02*
D03*
Y19921D02*
D03*
X9685Y15197D02*
D03*
Y15984D02*
D03*
Y16772D02*
D03*
Y17559D02*
D03*
Y18346D02*
D03*
Y19134D02*
D03*
Y19921D02*
D03*
X10472Y15197D02*
D03*
Y15984D02*
D03*
Y16772D02*
D03*
Y17559D02*
D03*
Y18346D02*
D03*
Y19134D02*
D03*
Y19921D02*
D03*
X11260Y15197D02*
D03*
Y15984D02*
D03*
Y16772D02*
D03*
Y17559D02*
D03*
Y18346D02*
D03*
Y19134D02*
D03*
Y19921D02*
D03*
X12047Y15197D02*
D03*
Y15984D02*
D03*
Y16772D02*
D03*
Y17559D02*
D03*
Y18346D02*
D03*
Y19134D02*
D03*
Y19921D02*
D03*
X4173Y23071D02*
D03*
Y23858D02*
D03*
Y24646D02*
D03*
Y25433D02*
D03*
Y26220D02*
D03*
Y27008D02*
D03*
Y27795D02*
D03*
Y28583D02*
D03*
Y29370D02*
D03*
X4961Y23071D02*
D03*
Y23858D02*
D03*
Y24646D02*
D03*
Y25433D02*
D03*
Y26220D02*
D03*
Y27008D02*
D03*
Y27795D02*
D03*
Y28583D02*
D03*
Y29370D02*
D03*
X5748Y23071D02*
D03*
Y23858D02*
D03*
Y24646D02*
D03*
Y25433D02*
D03*
Y28583D02*
D03*
Y29370D02*
D03*
X6535Y23071D02*
D03*
Y23858D02*
D03*
Y24646D02*
D03*
Y29370D02*
D03*
X7323Y23071D02*
D03*
Y23858D02*
D03*
Y24646D02*
D03*
Y29370D02*
D03*
X8110Y23071D02*
D03*
Y23858D02*
D03*
Y24646D02*
D03*
Y25433D02*
D03*
Y28583D02*
D03*
Y29370D02*
D03*
X8898Y23071D02*
D03*
Y23858D02*
D03*
Y24646D02*
D03*
Y25433D02*
D03*
Y26220D02*
D03*
Y27008D02*
D03*
Y27795D02*
D03*
Y28583D02*
D03*
Y29370D02*
D03*
X9685Y23071D02*
D03*
Y23858D02*
D03*
Y24646D02*
D03*
Y25433D02*
D03*
Y26220D02*
D03*
Y27008D02*
D03*
Y27795D02*
D03*
Y28583D02*
D03*
Y29370D02*
D03*
X10472Y23071D02*
D03*
Y23858D02*
D03*
Y24646D02*
D03*
Y25433D02*
D03*
Y26220D02*
D03*
Y27008D02*
D03*
Y27795D02*
D03*
Y28583D02*
D03*
Y29370D02*
D03*
X11260Y23071D02*
D03*
Y23858D02*
D03*
Y24646D02*
D03*
Y25433D02*
D03*
Y26220D02*
D03*
Y27008D02*
D03*
Y27795D02*
D03*
Y28583D02*
D03*
Y29370D02*
D03*
X12047Y23071D02*
D03*
Y23858D02*
D03*
Y24646D02*
D03*
Y25433D02*
D03*
Y26220D02*
D03*
Y27008D02*
D03*
Y27795D02*
D03*
Y28583D02*
D03*
Y29370D02*
D03*
X52992Y27795D02*
D03*
Y28583D02*
D03*
Y29370D02*
D03*
Y30157D02*
D03*
Y30945D02*
D03*
Y31732D02*
D03*
Y32520D02*
D03*
Y33307D02*
D03*
Y34095D02*
D03*
Y34882D02*
D03*
Y35669D02*
D03*
Y36457D02*
D03*
X53780Y27795D02*
D03*
Y28583D02*
D03*
Y29370D02*
D03*
Y30157D02*
D03*
Y30945D02*
D03*
Y31732D02*
D03*
Y32520D02*
D03*
Y33307D02*
D03*
Y34095D02*
D03*
Y34882D02*
D03*
Y35669D02*
D03*
Y36457D02*
D03*
X54567Y27795D02*
D03*
Y28583D02*
D03*
Y29370D02*
D03*
Y30157D02*
D03*
Y30945D02*
D03*
Y31732D02*
D03*
Y32520D02*
D03*
Y33307D02*
D03*
Y34095D02*
D03*
Y34882D02*
D03*
Y35669D02*
D03*
Y36457D02*
D03*
X55354Y27795D02*
D03*
Y28583D02*
D03*
Y29370D02*
D03*
Y30157D02*
D03*
Y30945D02*
D03*
Y31732D02*
D03*
Y32520D02*
D03*
Y33307D02*
D03*
Y34095D02*
D03*
Y34882D02*
D03*
Y35669D02*
D03*
Y36457D02*
D03*
X56142Y27795D02*
D03*
Y28583D02*
D03*
Y29370D02*
D03*
Y30157D02*
D03*
Y34095D02*
D03*
Y34882D02*
D03*
Y35669D02*
D03*
Y36457D02*
D03*
X56929Y27795D02*
D03*
Y28583D02*
D03*
Y29370D02*
D03*
Y30157D02*
D03*
Y34095D02*
D03*
Y34882D02*
D03*
Y35669D02*
D03*
Y36457D02*
D03*
X57717Y27795D02*
D03*
Y28583D02*
D03*
Y29370D02*
D03*
Y30157D02*
D03*
Y34095D02*
D03*
Y34882D02*
D03*
Y35669D02*
D03*
Y36457D02*
D03*
X58504Y27795D02*
D03*
Y28583D02*
D03*
Y29370D02*
D03*
Y30157D02*
D03*
Y34095D02*
D03*
Y34882D02*
D03*
Y35669D02*
D03*
Y36457D02*
D03*
X59291Y27795D02*
D03*
Y28583D02*
D03*
Y29370D02*
D03*
Y30157D02*
D03*
Y30945D02*
D03*
Y33307D02*
D03*
Y34095D02*
D03*
Y34882D02*
D03*
Y35669D02*
D03*
Y36457D02*
D03*
X24646Y53780D02*
D03*
Y54567D02*
D03*
Y55354D02*
D03*
Y56142D02*
D03*
Y56929D02*
D03*
Y57717D02*
D03*
Y58504D02*
D03*
Y59291D02*
D03*
Y60079D02*
D03*
X25433Y52992D02*
D03*
Y53780D02*
D03*
Y54567D02*
D03*
Y55354D02*
D03*
Y56142D02*
D03*
Y56929D02*
D03*
Y57717D02*
D03*
Y58504D02*
D03*
Y59291D02*
D03*
Y60079D02*
D03*
X26220Y52992D02*
D03*
Y53780D02*
D03*
Y54567D02*
D03*
Y55354D02*
D03*
Y56142D02*
D03*
Y56929D02*
D03*
Y57717D02*
D03*
Y58504D02*
D03*
Y59291D02*
D03*
Y60079D02*
D03*
X27008Y52992D02*
D03*
Y53780D02*
D03*
Y54567D02*
D03*
Y55354D02*
D03*
Y56142D02*
D03*
Y56929D02*
D03*
Y57717D02*
D03*
Y58504D02*
D03*
Y59291D02*
D03*
Y60079D02*
D03*
X27795Y52992D02*
D03*
Y53780D02*
D03*
Y54567D02*
D03*
Y55354D02*
D03*
Y56142D02*
D03*
Y56929D02*
D03*
Y57717D02*
D03*
X28583Y52992D02*
D03*
Y53780D02*
D03*
Y54567D02*
D03*
Y55354D02*
D03*
Y56142D02*
D03*
Y56929D02*
D03*
X29370Y52992D02*
D03*
Y53780D02*
D03*
Y54567D02*
D03*
Y55354D02*
D03*
Y56142D02*
D03*
Y56929D02*
D03*
X30157Y52992D02*
D03*
Y53780D02*
D03*
Y54567D02*
D03*
Y55354D02*
D03*
Y56142D02*
D03*
Y56929D02*
D03*
X30945Y52992D02*
D03*
Y53780D02*
D03*
Y54567D02*
D03*
Y55354D02*
D03*
Y56142D02*
D03*
Y56929D02*
D03*
Y57717D02*
D03*
X31732Y52992D02*
D03*
Y53780D02*
D03*
Y54567D02*
D03*
Y55354D02*
D03*
Y56142D02*
D03*
Y56929D02*
D03*
Y57717D02*
D03*
Y58504D02*
D03*
Y59291D02*
D03*
Y60079D02*
D03*
X32520Y52992D02*
D03*
Y53780D02*
D03*
Y54567D02*
D03*
Y55354D02*
D03*
Y56142D02*
D03*
Y56929D02*
D03*
Y57717D02*
D03*
Y58504D02*
D03*
Y59291D02*
D03*
Y60079D02*
D03*
X33307Y52992D02*
D03*
Y53780D02*
D03*
Y54567D02*
D03*
Y55354D02*
D03*
Y56142D02*
D03*
Y56929D02*
D03*
Y57717D02*
D03*
Y58504D02*
D03*
Y59291D02*
D03*
Y60079D02*
D03*
X42756Y53780D02*
D03*
Y54567D02*
D03*
Y55354D02*
D03*
Y56142D02*
D03*
Y56929D02*
D03*
Y57717D02*
D03*
Y58504D02*
D03*
Y59291D02*
D03*
X43543Y53780D02*
D03*
Y54567D02*
D03*
Y55354D02*
D03*
Y56142D02*
D03*
Y56929D02*
D03*
Y57717D02*
D03*
Y58504D02*
D03*
Y59291D02*
D03*
X44331Y53780D02*
D03*
Y54567D02*
D03*
Y56142D02*
D03*
Y56929D02*
D03*
Y58504D02*
D03*
Y59291D02*
D03*
X45118Y53780D02*
D03*
Y54567D02*
D03*
Y58504D02*
D03*
Y59291D02*
D03*
X45906Y53780D02*
D03*
Y54567D02*
D03*
Y55354D02*
D03*
Y56142D02*
D03*
Y56929D02*
D03*
Y57717D02*
D03*
Y58504D02*
D03*
Y59291D02*
D03*
X56929Y53780D02*
D03*
Y54567D02*
D03*
Y55354D02*
D03*
Y56142D02*
D03*
Y56929D02*
D03*
Y57717D02*
D03*
X57717Y53780D02*
D03*
Y54567D02*
D03*
Y55354D02*
D03*
Y56142D02*
D03*
Y56929D02*
D03*
Y57717D02*
D03*
X58504Y53780D02*
D03*
Y54567D02*
D03*
Y56142D02*
D03*
X59291Y53780D02*
D03*
Y54567D02*
D03*
Y55354D02*
D03*
Y56142D02*
D03*
Y56929D02*
D03*
Y57717D02*
D03*
M02*
