G04 Layer_Color=16711935*
%FSLAX24Y24*%
%MOIN*%
G70*
G01*
G75*
G04:AMPARAMS|DCode=72|XSize=137.8mil|YSize=98.4mil|CornerRadius=9.8mil|HoleSize=0mil|Usage=FLASHONLY|Rotation=90.000|XOffset=0mil|YOffset=0mil|HoleType=Round|Shape=RoundedRectangle|*
%AMROUNDEDRECTD72*
21,1,0.1378,0.0787,0,0,90.0*
21,1,0.1181,0.0984,0,0,90.0*
1,1,0.0197,0.0394,0.0591*
1,1,0.0197,0.0394,-0.0591*
1,1,0.0197,-0.0394,-0.0591*
1,1,0.0197,-0.0394,0.0591*
%
%ADD72ROUNDEDRECTD72*%
%ADD78R,0.0533X0.1182*%
%ADD79R,0.0513X0.0474*%
%ADD80R,0.0474X0.0513*%
%ADD89C,0.1030*%
%ADD90C,0.0880*%
%ADD91C,0.2088*%
%ADD92C,0.1458*%
%ADD93R,0.1458X0.1458*%
%ADD94C,0.0986*%
%ADD95R,0.0986X0.0986*%
%ADD96R,0.0579X0.0579*%
%ADD97C,0.0579*%
%ADD98C,0.1064*%
%ADD99R,0.1064X0.1064*%
%ADD100R,0.0615X0.0615*%
%ADD101C,0.0615*%
%ADD103C,0.0910*%
%ADD104C,0.0434*%
%ADD105C,0.0552*%
%ADD106R,0.1391X0.0564*%
%ADD107R,0.0564X0.1391*%
%ADD108R,0.0395X0.0493*%
%ADD109R,0.0493X0.2206*%
%ADD110R,0.2206X0.0493*%
%ADD111R,0.1458X0.0493*%
%ADD112R,0.1025X0.0671*%
%ADD113R,0.0671X0.1025*%
%ADD114R,0.0651X0.0828*%
%ADD115R,0.0828X0.0651*%
%ADD116R,0.1045X0.1320*%
%ADD117R,0.1320X0.1045*%
D72*
X15453Y21161D02*
D03*
Y22736D02*
D03*
Y24311D02*
D03*
X11909Y22736D02*
D03*
Y24311D02*
D03*
X10728D02*
D03*
Y22736D02*
D03*
X14272Y24311D02*
D03*
Y22736D02*
D03*
X13091Y22736D02*
D03*
Y24311D02*
D03*
Y21161D02*
D03*
X14272Y21161D02*
D03*
X10728D02*
D03*
X11909D02*
D03*
X7185Y24311D02*
D03*
X6004D02*
D03*
Y22736D02*
D03*
X9547Y24311D02*
D03*
Y22736D02*
D03*
X8366Y22736D02*
D03*
Y24311D02*
D03*
Y21161D02*
D03*
X9547Y21161D02*
D03*
X6004D02*
D03*
X7185D02*
D03*
X2461D02*
D03*
X1280D02*
D03*
X4823D02*
D03*
X3642Y21161D02*
D03*
X2461Y27461D02*
D03*
Y29035D02*
D03*
X1280D02*
D03*
Y27461D02*
D03*
Y30610D02*
D03*
X2461D02*
D03*
X4823Y29035D02*
D03*
Y27461D02*
D03*
Y30610D02*
D03*
X3642Y27461D02*
D03*
Y29035D02*
D03*
Y30610D02*
D03*
Y25886D02*
D03*
Y24311D02*
D03*
Y22736D02*
D03*
X4823Y25886D02*
D03*
Y22736D02*
D03*
Y24311D02*
D03*
X2461Y25886D02*
D03*
X1280D02*
D03*
Y22736D02*
D03*
Y24311D02*
D03*
X2461D02*
D03*
Y22736D02*
D03*
Y32185D02*
D03*
Y33760D02*
D03*
X1280D02*
D03*
Y32185D02*
D03*
Y35335D02*
D03*
X2461D02*
D03*
X4823Y33760D02*
D03*
Y32185D02*
D03*
Y35335D02*
D03*
X3642Y32185D02*
D03*
Y33760D02*
D03*
Y35335D02*
D03*
Y40059D02*
D03*
Y38484D02*
D03*
Y36909D02*
D03*
X4823Y40059D02*
D03*
Y36909D02*
D03*
Y38484D02*
D03*
X2461Y40059D02*
D03*
X1280D02*
D03*
Y36909D02*
D03*
Y38484D02*
D03*
X2461D02*
D03*
Y36909D02*
D03*
X2067Y41634D02*
D03*
Y43209D02*
D03*
Y44783D02*
D03*
X5610Y41634D02*
D03*
Y43209D02*
D03*
X4429D02*
D03*
Y41634D02*
D03*
Y44783D02*
D03*
X5610D02*
D03*
X3248Y41634D02*
D03*
Y43209D02*
D03*
Y44783D02*
D03*
X9154Y41634D02*
D03*
Y43209D02*
D03*
X7972D02*
D03*
Y41634D02*
D03*
Y44783D02*
D03*
X9154D02*
D03*
X6791Y41634D02*
D03*
Y43209D02*
D03*
Y44783D02*
D03*
X10335D02*
D03*
Y43209D02*
D03*
Y41634D02*
D03*
X12697Y44783D02*
D03*
X11516D02*
D03*
Y41634D02*
D03*
Y43209D02*
D03*
X12697D02*
D03*
Y41634D02*
D03*
X15059Y42520D02*
D03*
Y44094D02*
D03*
X13878D02*
D03*
Y42520D02*
D03*
Y45669D02*
D03*
Y47244D02*
D03*
Y48819D02*
D03*
Y50394D02*
D03*
X15059D02*
D03*
Y48819D02*
D03*
Y47244D02*
D03*
Y45669D02*
D03*
X9646Y51968D02*
D03*
Y53543D02*
D03*
Y55118D02*
D03*
Y56693D02*
D03*
X10827Y51968D02*
D03*
Y53543D02*
D03*
Y55118D02*
D03*
Y56693D02*
D03*
X12008Y51968D02*
D03*
Y53543D02*
D03*
Y55118D02*
D03*
Y56693D02*
D03*
X13189Y51968D02*
D03*
Y53543D02*
D03*
Y55118D02*
D03*
Y56693D02*
D03*
X14370Y51968D02*
D03*
Y53543D02*
D03*
Y55118D02*
D03*
Y56693D02*
D03*
X15551Y51968D02*
D03*
Y53543D02*
D03*
Y55118D02*
D03*
Y56693D02*
D03*
X16732Y51968D02*
D03*
Y53543D02*
D03*
Y55118D02*
D03*
Y56693D02*
D03*
X17913Y51968D02*
D03*
Y53543D02*
D03*
Y55118D02*
D03*
Y56693D02*
D03*
X19094Y51968D02*
D03*
Y53543D02*
D03*
Y55118D02*
D03*
Y56693D02*
D03*
X20276Y51968D02*
D03*
Y53543D02*
D03*
Y55118D02*
D03*
Y56693D02*
D03*
Y58268D02*
D03*
Y59843D02*
D03*
Y61417D02*
D03*
Y62992D02*
D03*
X15157Y66142D02*
D03*
X9252Y67717D02*
D03*
Y69291D02*
D03*
Y70866D02*
D03*
X10433Y67717D02*
D03*
Y69291D02*
D03*
Y70866D02*
D03*
X11614D02*
D03*
Y69291D02*
D03*
Y67717D02*
D03*
X12795D02*
D03*
Y69291D02*
D03*
Y70866D02*
D03*
X15157Y70866D02*
D03*
X15157Y77165D02*
D03*
Y75591D02*
D03*
Y74016D02*
D03*
Y72441D02*
D03*
Y69291D02*
D03*
Y67717D02*
D03*
X13976D02*
D03*
Y69291D02*
D03*
Y72441D02*
D03*
Y74016D02*
D03*
Y75591D02*
D03*
Y77165D02*
D03*
X13976Y70866D02*
D03*
X17520D02*
D03*
X17520Y77165D02*
D03*
Y75591D02*
D03*
Y74016D02*
D03*
Y72441D02*
D03*
Y69291D02*
D03*
Y67717D02*
D03*
Y66142D02*
D03*
Y64567D02*
D03*
X16339D02*
D03*
Y66142D02*
D03*
Y67717D02*
D03*
Y69291D02*
D03*
Y72441D02*
D03*
Y74016D02*
D03*
Y75591D02*
D03*
Y77165D02*
D03*
X16339Y70866D02*
D03*
X18701D02*
D03*
X18701Y77165D02*
D03*
Y75591D02*
D03*
Y74016D02*
D03*
Y72441D02*
D03*
Y69291D02*
D03*
Y67717D02*
D03*
Y66142D02*
D03*
Y64567D02*
D03*
X19882D02*
D03*
Y66142D02*
D03*
Y67717D02*
D03*
Y69291D02*
D03*
Y72441D02*
D03*
Y74016D02*
D03*
Y75591D02*
D03*
Y77165D02*
D03*
X19882Y70866D02*
D03*
X23524Y70866D02*
D03*
Y69291D02*
D03*
Y67717D02*
D03*
Y66142D02*
D03*
X24705D02*
D03*
Y67717D02*
D03*
Y69291D02*
D03*
Y70866D02*
D03*
X25886Y66142D02*
D03*
Y67717D02*
D03*
Y69291D02*
D03*
X25886Y70866D02*
D03*
X27067Y66142D02*
D03*
Y67717D02*
D03*
Y69291D02*
D03*
Y70866D02*
D03*
X28248Y67717D02*
D03*
Y69291D02*
D03*
X28248Y70866D02*
D03*
X28248Y66142D02*
D03*
X22343D02*
D03*
Y67717D02*
D03*
Y69291D02*
D03*
Y70866D02*
D03*
X21161D02*
D03*
Y69291D02*
D03*
Y67717D02*
D03*
Y66142D02*
D03*
X31791Y70866D02*
D03*
Y69291D02*
D03*
Y67717D02*
D03*
Y66142D02*
D03*
X32972D02*
D03*
Y67717D02*
D03*
Y69291D02*
D03*
Y70866D02*
D03*
X34154Y66142D02*
D03*
Y67717D02*
D03*
Y69291D02*
D03*
X34154Y70866D02*
D03*
X35335Y66142D02*
D03*
Y67717D02*
D03*
Y69291D02*
D03*
Y70866D02*
D03*
X36516Y67717D02*
D03*
Y69291D02*
D03*
X36516Y70866D02*
D03*
X36516Y66142D02*
D03*
X30610D02*
D03*
Y67717D02*
D03*
Y69291D02*
D03*
Y70866D02*
D03*
X29429D02*
D03*
Y69291D02*
D03*
Y67717D02*
D03*
Y66142D02*
D03*
X37697D02*
D03*
Y67717D02*
D03*
Y69291D02*
D03*
Y70866D02*
D03*
X38878D02*
D03*
Y69291D02*
D03*
Y67717D02*
D03*
Y66142D02*
D03*
X39862Y62992D02*
D03*
X44783Y74016D02*
D03*
Y72441D02*
D03*
X44783Y66142D02*
D03*
X45965Y80315D02*
D03*
Y77165D02*
D03*
Y78740D02*
D03*
Y75591D02*
D03*
X44783D02*
D03*
Y78740D02*
D03*
Y77165D02*
D03*
X44783Y70866D02*
D03*
X44783Y69291D02*
D03*
Y67717D02*
D03*
X43602Y80315D02*
D03*
Y78740D02*
D03*
Y77165D02*
D03*
Y75591D02*
D03*
Y74016D02*
D03*
Y72441D02*
D03*
X43602Y70866D02*
D03*
Y69291D02*
D03*
Y67717D02*
D03*
Y66142D02*
D03*
X42421Y80315D02*
D03*
Y78740D02*
D03*
Y77165D02*
D03*
Y75591D02*
D03*
X42421Y74016D02*
D03*
Y72441D02*
D03*
X42421Y70866D02*
D03*
X42421Y69291D02*
D03*
Y67717D02*
D03*
Y66142D02*
D03*
X42224Y64567D02*
D03*
X41240Y80315D02*
D03*
Y78740D02*
D03*
Y77165D02*
D03*
Y75591D02*
D03*
Y74016D02*
D03*
Y72441D02*
D03*
X41240Y70866D02*
D03*
Y69291D02*
D03*
Y67717D02*
D03*
Y66142D02*
D03*
X41043Y64567D02*
D03*
X39862D02*
D03*
X40059Y66142D02*
D03*
Y67717D02*
D03*
Y69291D02*
D03*
Y70866D02*
D03*
X40059Y72441D02*
D03*
Y74016D02*
D03*
Y75591D02*
D03*
Y77165D02*
D03*
Y78740D02*
D03*
Y80315D02*
D03*
X44783D02*
D03*
X16634Y24311D02*
D03*
Y22736D02*
D03*
Y21161D02*
D03*
Y19587D02*
D03*
Y18012D02*
D03*
Y16437D02*
D03*
X17815Y16437D02*
D03*
Y18012D02*
D03*
Y19587D02*
D03*
Y21161D02*
D03*
Y22736D02*
D03*
Y24311D02*
D03*
X26575Y30807D02*
D03*
X27756Y30807D02*
D03*
X28937D02*
D03*
Y29232D02*
D03*
X27756D02*
D03*
X26575Y29232D02*
D03*
X28937Y27657D02*
D03*
X27756D02*
D03*
X26575Y27657D02*
D03*
X31496Y27657D02*
D03*
X32677Y27657D02*
D03*
X31496Y29232D02*
D03*
X32677Y29232D02*
D03*
X33858Y30807D02*
D03*
X32677D02*
D03*
X31496Y30807D02*
D03*
X33858Y29232D02*
D03*
X35039D02*
D03*
Y30807D02*
D03*
X26575Y16732D02*
D03*
X27756Y16732D02*
D03*
X28937D02*
D03*
X26575Y18307D02*
D03*
X27756Y18307D02*
D03*
X28937D02*
D03*
Y19882D02*
D03*
X27756D02*
D03*
X26575Y19882D02*
D03*
Y12008D02*
D03*
X27756Y12008D02*
D03*
X28937D02*
D03*
X26575Y13583D02*
D03*
X27756Y13583D02*
D03*
X28937D02*
D03*
Y15157D02*
D03*
X27756D02*
D03*
X26575Y15157D02*
D03*
Y7283D02*
D03*
X27756Y7283D02*
D03*
X28937D02*
D03*
X26575Y8858D02*
D03*
X27756Y8858D02*
D03*
X28937D02*
D03*
Y10433D02*
D03*
X27756D02*
D03*
X26575Y10433D02*
D03*
X23031Y4134D02*
D03*
X24213Y4134D02*
D03*
X25394D02*
D03*
X26575D02*
D03*
X27756Y4134D02*
D03*
X28937D02*
D03*
Y5709D02*
D03*
X27756D02*
D03*
X26575Y5709D02*
D03*
X18307Y4134D02*
D03*
X21850D02*
D03*
X20669D02*
D03*
X19488D02*
D03*
X38287Y17520D02*
D03*
X37106D02*
D03*
X35925Y17520D02*
D03*
X34744D02*
D03*
X33563Y17520D02*
D03*
X32382D02*
D03*
X31201Y17520D02*
D03*
Y15945D02*
D03*
X32382Y15945D02*
D03*
X33563D02*
D03*
X34744Y15945D02*
D03*
X31201Y14370D02*
D03*
X32382Y14370D02*
D03*
X33563D02*
D03*
X34744Y14370D02*
D03*
X31201Y12795D02*
D03*
X32382Y12795D02*
D03*
X33563D02*
D03*
X34744Y12795D02*
D03*
X31201Y11220D02*
D03*
X32382Y11220D02*
D03*
X33563D02*
D03*
X34744Y11220D02*
D03*
X31201Y9646D02*
D03*
X32382Y9646D02*
D03*
X33563D02*
D03*
X34744Y9646D02*
D03*
X31201Y8071D02*
D03*
X32382Y8071D02*
D03*
X33563D02*
D03*
X34744Y8071D02*
D03*
X31201Y6496D02*
D03*
X32382Y6496D02*
D03*
X33563D02*
D03*
X34744Y6496D02*
D03*
X31201Y4921D02*
D03*
X32382Y4921D02*
D03*
X33563D02*
D03*
X34744Y4921D02*
D03*
X35925Y4232D02*
D03*
X37106Y4232D02*
D03*
X38287D02*
D03*
X39469Y4232D02*
D03*
X40650D02*
D03*
X41831Y4232D02*
D03*
X43012D02*
D03*
X44193Y4232D02*
D03*
X31594Y37205D02*
D03*
X32776D02*
D03*
Y38878D02*
D03*
X31594D02*
D03*
X32382Y40453D02*
D03*
X31201D02*
D03*
X33563D02*
D03*
X33563Y42126D02*
D03*
X34744D02*
D03*
X31201D02*
D03*
X32382D02*
D03*
X41043Y62992D02*
D03*
Y59843D02*
D03*
X39862Y61417D02*
D03*
X41043D02*
D03*
X39862Y59843D02*
D03*
X41043Y56693D02*
D03*
X39862D02*
D03*
X41043Y58268D02*
D03*
X39862D02*
D03*
X42224Y57283D02*
D03*
X43406D02*
D03*
X42224Y55709D02*
D03*
X43406D02*
D03*
X42224Y58858D02*
D03*
X43406D02*
D03*
X44587Y57283D02*
D03*
X45768D02*
D03*
X44587Y55709D02*
D03*
X45768D02*
D03*
X44587Y58858D02*
D03*
X45768D02*
D03*
Y60433D02*
D03*
X46949D02*
D03*
Y58858D02*
D03*
Y55709D02*
D03*
Y57283D02*
D03*
X48130Y60433D02*
D03*
Y58858D02*
D03*
Y55709D02*
D03*
Y57283D02*
D03*
X49311Y60433D02*
D03*
Y58858D02*
D03*
Y55709D02*
D03*
Y57283D02*
D03*
X50492Y60433D02*
D03*
Y58858D02*
D03*
Y55709D02*
D03*
Y57283D02*
D03*
X51673Y60433D02*
D03*
Y58858D02*
D03*
Y55709D02*
D03*
Y57283D02*
D03*
X52854D02*
D03*
Y55709D02*
D03*
X54035Y57283D02*
D03*
Y55709D02*
D03*
X55217Y57283D02*
D03*
Y55709D02*
D03*
X56398Y57283D02*
D03*
Y55709D02*
D03*
X50295Y54035D02*
D03*
X49114D02*
D03*
X47933D02*
D03*
X46752D02*
D03*
X45571D02*
D03*
Y52461D02*
D03*
X46752D02*
D03*
X47933D02*
D03*
X49114D02*
D03*
X50295D02*
D03*
X45374Y45866D02*
D03*
X46555D02*
D03*
X47736D02*
D03*
X48917D02*
D03*
X50098D02*
D03*
X51280D02*
D03*
X52461D02*
D03*
X53642D02*
D03*
X54823D02*
D03*
X56004D02*
D03*
X57185D02*
D03*
X58366D02*
D03*
X59547D02*
D03*
X60728D02*
D03*
Y44291D02*
D03*
X59547D02*
D03*
X58366D02*
D03*
X57185D02*
D03*
X56004D02*
D03*
X54823D02*
D03*
X53642D02*
D03*
X52461D02*
D03*
X51280D02*
D03*
X50098D02*
D03*
X48917D02*
D03*
X47736D02*
D03*
X46555D02*
D03*
X45374D02*
D03*
X60728Y42717D02*
D03*
X59547D02*
D03*
X58366D02*
D03*
X57185D02*
D03*
X56004D02*
D03*
X54823D02*
D03*
X53642D02*
D03*
X52461D02*
D03*
X51280D02*
D03*
X50098D02*
D03*
X48917D02*
D03*
X47736D02*
D03*
X46555D02*
D03*
X57185Y41142D02*
D03*
X58366D02*
D03*
X59547D02*
D03*
X60728D02*
D03*
X57185Y39567D02*
D03*
X58366D02*
D03*
X59547D02*
D03*
X60728D02*
D03*
X57185Y37992D02*
D03*
X58366D02*
D03*
X59547D02*
D03*
X60728D02*
D03*
Y28543D02*
D03*
X59547D02*
D03*
X58366D02*
D03*
X57185D02*
D03*
X60728Y30118D02*
D03*
X59547D02*
D03*
X58366D02*
D03*
X57185D02*
D03*
X60728Y31693D02*
D03*
X59547D02*
D03*
X58366D02*
D03*
X57185D02*
D03*
Y33268D02*
D03*
X58366D02*
D03*
X59547D02*
D03*
X60728D02*
D03*
X57185Y34843D02*
D03*
X58366D02*
D03*
X59547D02*
D03*
X60728D02*
D03*
Y36417D02*
D03*
X59547D02*
D03*
X58366D02*
D03*
X57185D02*
D03*
Y26969D02*
D03*
X58366D02*
D03*
X59547D02*
D03*
X60728D02*
D03*
X57185Y25394D02*
D03*
X58366D02*
D03*
X59547D02*
D03*
X60728D02*
D03*
X57185Y23819D02*
D03*
X58366D02*
D03*
X59547D02*
D03*
X60728D02*
D03*
X60728Y22244D02*
D03*
X59547D02*
D03*
X58366D02*
D03*
X57185D02*
D03*
X56004Y24213D02*
D03*
X54823D02*
D03*
X53642D02*
D03*
X52461D02*
D03*
X56004Y21063D02*
D03*
X54823D02*
D03*
X53642D02*
D03*
X52461D02*
D03*
Y22638D02*
D03*
X51280D02*
D03*
X50098D02*
D03*
X48917D02*
D03*
X51280Y21063D02*
D03*
Y24213D02*
D03*
X50098Y21063D02*
D03*
Y24213D02*
D03*
X48917Y21063D02*
D03*
Y24213D02*
D03*
X46555D02*
D03*
X47736D02*
D03*
Y21063D02*
D03*
X46555Y22638D02*
D03*
X47736D02*
D03*
X45374D02*
D03*
Y24213D02*
D03*
D78*
X44793Y27854D02*
D03*
X46152D02*
D03*
X16526Y27165D02*
D03*
X15167D02*
D03*
D79*
X3543Y15079D02*
D03*
Y14449D02*
D03*
X57185Y15177D02*
D03*
Y14547D02*
D03*
D80*
X7264Y12795D02*
D03*
X7894D02*
D03*
X14488Y27264D02*
D03*
X13858D02*
D03*
X7165Y10335D02*
D03*
X7795D02*
D03*
X3366Y6299D02*
D03*
X2736D02*
D03*
X54213Y12697D02*
D03*
X54843D02*
D03*
X47028Y28051D02*
D03*
X47657D02*
D03*
X54213Y9547D02*
D03*
X54843D02*
D03*
X58150Y6496D02*
D03*
X58780D02*
D03*
D89*
X46130Y7087D02*
D03*
X48130D02*
D03*
X28445Y63386D02*
D03*
Y61386D02*
D03*
X13650Y6693D02*
D03*
X15650D02*
D03*
X59547Y53543D02*
D03*
Y55543D02*
D03*
D90*
X7087Y23031D02*
D03*
Y37795D02*
D03*
X54724Y22047D02*
D03*
Y36811D02*
D03*
D91*
X24232Y51339D02*
D03*
Y30108D02*
D03*
X37933Y30148D02*
D03*
Y51378D02*
D03*
X24232Y28140D02*
D03*
Y6909D02*
D03*
X37933Y6949D02*
D03*
Y28179D02*
D03*
D92*
X10236Y47638D02*
D03*
Y72638D02*
D03*
X49508Y49902D02*
D03*
X44094Y63583D02*
D03*
X50787Y77559D02*
D03*
X16732Y60236D02*
D03*
D93*
X6299Y47638D02*
D03*
Y72638D02*
D03*
X53445Y49902D02*
D03*
X48032Y63583D02*
D03*
X54724Y77559D02*
D03*
X12795Y60236D02*
D03*
D94*
X40098Y23593D02*
D03*
Y21447D02*
D03*
X22028Y19301D02*
D03*
Y21447D02*
D03*
Y34655D02*
D03*
Y36801D02*
D03*
X40098Y38947D02*
D03*
Y36801D02*
D03*
D95*
Y19301D02*
D03*
X22028Y23593D02*
D03*
Y38947D02*
D03*
X40098Y34655D02*
D03*
D96*
X54921Y4331D02*
D03*
X6693Y4331D02*
D03*
D97*
X55709Y4331D02*
D03*
X56496D02*
D03*
X57283D02*
D03*
X58071D02*
D03*
X58861D02*
D03*
X5906Y4331D02*
D03*
X5118D02*
D03*
X4331D02*
D03*
X3543D02*
D03*
X2753D02*
D03*
D98*
X60433Y59843D02*
D03*
X58465D02*
D03*
X56496D02*
D03*
X54528Y68504D02*
D03*
X56496D02*
D03*
X58465D02*
D03*
D99*
X54528Y59843D02*
D03*
X60433Y68504D02*
D03*
D100*
X2362Y9653D02*
D03*
X58071Y9843D02*
D03*
D101*
X2362Y10653D02*
D03*
Y13653D02*
D03*
Y14653D02*
D03*
Y15653D02*
D03*
X58071Y10843D02*
D03*
Y13843D02*
D03*
Y14843D02*
D03*
Y15843D02*
D03*
D103*
X37303Y74228D02*
D03*
Y75787D02*
D03*
Y77346D02*
D03*
D104*
X12835Y50630D02*
D03*
Y49843D02*
D03*
Y49055D02*
D03*
Y48268D02*
D03*
Y47480D02*
D03*
Y46693D02*
D03*
Y45906D02*
D03*
X12047Y50630D02*
D03*
Y49843D02*
D03*
Y49055D02*
D03*
Y48268D02*
D03*
Y47480D02*
D03*
Y46693D02*
D03*
Y45906D02*
D03*
X11260Y50630D02*
D03*
Y49843D02*
D03*
Y49055D02*
D03*
Y48268D02*
D03*
Y47480D02*
D03*
Y46693D02*
D03*
Y45906D02*
D03*
X10472Y50630D02*
D03*
Y49843D02*
D03*
Y49055D02*
D03*
Y45906D02*
D03*
X9685Y50630D02*
D03*
Y49843D02*
D03*
Y49055D02*
D03*
Y46693D02*
D03*
Y45906D02*
D03*
X45118Y63228D02*
D03*
Y62441D02*
D03*
Y61654D02*
D03*
X44331D02*
D03*
Y60079D02*
D03*
X43543Y62441D02*
D03*
Y60079D02*
D03*
X42756Y61654D02*
D03*
Y60866D02*
D03*
Y60079D02*
D03*
X41969Y63228D02*
D03*
Y62441D02*
D03*
X45118Y64016D02*
D03*
X42756Y63228D02*
D03*
X44331Y62441D02*
D03*
X42756D02*
D03*
X43543Y61654D02*
D03*
X44331Y60866D02*
D03*
X43543D02*
D03*
X41969Y61654D02*
D03*
Y60866D02*
D03*
Y60079D02*
D03*
X43740Y25630D02*
D03*
Y25039D02*
D03*
Y24449D02*
D03*
Y22677D02*
D03*
Y22087D02*
D03*
X43150Y25630D02*
D03*
Y25039D02*
D03*
Y24449D02*
D03*
Y23858D02*
D03*
Y23268D02*
D03*
Y22677D02*
D03*
Y22087D02*
D03*
X42559Y25630D02*
D03*
Y25039D02*
D03*
Y24449D02*
D03*
Y23858D02*
D03*
Y23268D02*
D03*
Y22677D02*
D03*
X41968Y25630D02*
D03*
Y25039D02*
D03*
Y24449D02*
D03*
Y23858D02*
D03*
Y23268D02*
D03*
X41378Y25630D02*
D03*
Y25039D02*
D03*
Y24449D02*
D03*
Y23858D02*
D03*
Y23268D02*
D03*
X40787Y25630D02*
D03*
Y25039D02*
D03*
Y24449D02*
D03*
Y23268D02*
D03*
X40197Y25630D02*
D03*
Y25039D02*
D03*
Y24449D02*
D03*
X39606Y25630D02*
D03*
Y25039D02*
D03*
Y24449D02*
D03*
X49843Y47480D02*
D03*
X48268Y50630D02*
D03*
Y49843D02*
D03*
Y48268D02*
D03*
Y47480D02*
D03*
X47480Y49843D02*
D03*
Y49055D02*
D03*
Y48268D02*
D03*
Y47480D02*
D03*
X46693Y49843D02*
D03*
Y49055D02*
D03*
X45906Y50630D02*
D03*
Y49055D02*
D03*
Y48268D02*
D03*
X45118Y49843D02*
D03*
Y49055D02*
D03*
X60866Y61654D02*
D03*
Y60866D02*
D03*
Y58504D02*
D03*
Y57717D02*
D03*
X60079Y61654D02*
D03*
Y60866D02*
D03*
Y58504D02*
D03*
Y57717D02*
D03*
X59291Y61654D02*
D03*
Y60866D02*
D03*
Y60079D02*
D03*
Y59291D02*
D03*
Y58504D02*
D03*
Y57717D02*
D03*
X58504Y61654D02*
D03*
Y60866D02*
D03*
Y58504D02*
D03*
Y57717D02*
D03*
X60866Y70315D02*
D03*
Y69528D02*
D03*
Y67165D02*
D03*
Y66378D02*
D03*
X60079Y70315D02*
D03*
Y69528D02*
D03*
Y67165D02*
D03*
Y66378D02*
D03*
X59291Y70315D02*
D03*
Y69528D02*
D03*
Y68740D02*
D03*
Y67953D02*
D03*
Y67165D02*
D03*
Y66378D02*
D03*
X58504Y70315D02*
D03*
Y69528D02*
D03*
Y67165D02*
D03*
Y66378D02*
D03*
X56929Y61654D02*
D03*
Y60866D02*
D03*
Y58504D02*
D03*
X56142Y60866D02*
D03*
Y58504D02*
D03*
X55354Y60866D02*
D03*
X54567D02*
D03*
Y58504D02*
D03*
X53780Y60866D02*
D03*
X52992Y61654D02*
D03*
Y60079D02*
D03*
Y59291D02*
D03*
Y58504D02*
D03*
X51417Y80551D02*
D03*
Y76614D02*
D03*
Y74252D02*
D03*
X50630Y80551D02*
D03*
Y78976D02*
D03*
Y75827D02*
D03*
Y75039D02*
D03*
X49843Y80551D02*
D03*
Y76614D02*
D03*
Y74252D02*
D03*
X49055Y79764D02*
D03*
Y78189D02*
D03*
Y76614D02*
D03*
Y75827D02*
D03*
X48268D02*
D03*
X47480Y79764D02*
D03*
Y77402D02*
D03*
Y76614D02*
D03*
Y74252D02*
D03*
X56929Y52205D02*
D03*
Y50630D02*
D03*
Y49843D02*
D03*
X56142Y51417D02*
D03*
Y50630D02*
D03*
X55354Y52992D02*
D03*
Y49055D02*
D03*
X54567Y52205D02*
D03*
Y49843D02*
D03*
Y49055D02*
D03*
X53780Y52992D02*
D03*
X52992D02*
D03*
Y52205D02*
D03*
Y51417D02*
D03*
Y66378D02*
D03*
X50630Y65591D02*
D03*
Y64803D02*
D03*
Y64016D02*
D03*
X49843Y64803D02*
D03*
Y64016D02*
D03*
X49055Y66378D02*
D03*
Y65591D02*
D03*
Y63228D02*
D03*
X47480Y66378D02*
D03*
Y65591D02*
D03*
X56929Y70315D02*
D03*
Y69528D02*
D03*
Y67165D02*
D03*
Y66378D02*
D03*
X56142Y70315D02*
D03*
Y67165D02*
D03*
X55354Y71102D02*
D03*
Y69528D02*
D03*
Y68740D02*
D03*
Y67165D02*
D03*
X54567Y69528D02*
D03*
Y67165D02*
D03*
X53780Y71102D02*
D03*
Y70315D02*
D03*
Y67953D02*
D03*
Y67165D02*
D03*
Y66378D02*
D03*
X52992Y71102D02*
D03*
Y70315D02*
D03*
Y68740D02*
D03*
Y67953D02*
D03*
Y67165D02*
D03*
X58504Y78976D02*
D03*
Y78189D02*
D03*
Y77402D02*
D03*
Y76614D02*
D03*
Y75039D02*
D03*
X57717Y78189D02*
D03*
Y76614D02*
D03*
X56929Y77402D02*
D03*
Y75827D02*
D03*
X56142Y77402D02*
D03*
Y76614D02*
D03*
Y75827D02*
D03*
Y75039D02*
D03*
X54567Y78976D02*
D03*
X53780D02*
D03*
Y76614D02*
D03*
Y75827D02*
D03*
Y75039D02*
D03*
X8661Y12795D02*
D03*
X6496Y13091D02*
D03*
X15453Y29232D02*
D03*
X14852Y29242D02*
D03*
X28976Y34488D02*
D03*
Y33898D02*
D03*
Y33307D02*
D03*
Y32717D02*
D03*
Y32126D02*
D03*
X28386Y34488D02*
D03*
Y33898D02*
D03*
Y33307D02*
D03*
Y32717D02*
D03*
Y32126D02*
D03*
X27795Y34488D02*
D03*
Y33898D02*
D03*
Y33307D02*
D03*
Y32717D02*
D03*
Y32126D02*
D03*
X27205Y34488D02*
D03*
Y33898D02*
D03*
Y33307D02*
D03*
Y32717D02*
D03*
Y32126D02*
D03*
X26614Y34488D02*
D03*
Y33898D02*
D03*
Y33307D02*
D03*
Y32717D02*
D03*
Y32126D02*
D03*
X26024Y33898D02*
D03*
Y33307D02*
D03*
Y32717D02*
D03*
X25433Y33307D02*
D03*
Y32717D02*
D03*
X24843Y35079D02*
D03*
Y33898D02*
D03*
Y33307D02*
D03*
Y32717D02*
D03*
X24252Y35079D02*
D03*
Y33898D02*
D03*
Y33307D02*
D03*
Y32717D02*
D03*
X23661Y34488D02*
D03*
Y33898D02*
D03*
Y33307D02*
D03*
Y32717D02*
D03*
X23071Y34488D02*
D03*
Y33898D02*
D03*
Y33307D02*
D03*
Y32717D02*
D03*
X22480Y33898D02*
D03*
Y33307D02*
D03*
Y32717D02*
D03*
X21890Y33898D02*
D03*
Y33307D02*
D03*
Y32717D02*
D03*
X21299Y34488D02*
D03*
Y33307D02*
D03*
Y32717D02*
D03*
X22480Y37441D02*
D03*
X21299D02*
D03*
Y36850D02*
D03*
X20709Y37441D02*
D03*
Y36850D02*
D03*
X20118Y37441D02*
D03*
Y36850D02*
D03*
X19528Y37441D02*
D03*
Y36850D02*
D03*
Y36260D02*
D03*
X18937Y37441D02*
D03*
Y36850D02*
D03*
Y36260D02*
D03*
X18346Y37441D02*
D03*
Y36850D02*
D03*
Y36260D02*
D03*
X17756Y37441D02*
D03*
Y36850D02*
D03*
Y36260D02*
D03*
X50295Y25886D02*
D03*
X49705D02*
D03*
X44980D02*
D03*
X45472Y26280D02*
D03*
X47441Y29527D02*
D03*
X54567Y39606D02*
D03*
X53780D02*
D03*
Y38819D02*
D03*
X52992Y39606D02*
D03*
Y36457D02*
D03*
X52205Y38819D02*
D03*
Y37244D02*
D03*
Y36457D02*
D03*
X51417Y39606D02*
D03*
Y38819D02*
D03*
Y38032D02*
D03*
X49843Y38819D02*
D03*
Y37244D02*
D03*
Y36457D02*
D03*
X49055Y38819D02*
D03*
Y37244D02*
D03*
Y36457D02*
D03*
X48268Y39606D02*
D03*
Y38819D02*
D03*
Y38032D02*
D03*
X47480Y38819D02*
D03*
X46693Y37244D02*
D03*
X15197Y38819D02*
D03*
Y38032D02*
D03*
Y37244D02*
D03*
Y36457D02*
D03*
X14409Y39606D02*
D03*
Y38032D02*
D03*
Y36457D02*
D03*
X13622Y39606D02*
D03*
Y38032D02*
D03*
Y37244D02*
D03*
Y36457D02*
D03*
X12835Y39606D02*
D03*
Y38819D02*
D03*
Y37244D02*
D03*
Y36457D02*
D03*
X12047Y38032D02*
D03*
Y37244D02*
D03*
Y36457D02*
D03*
X11260Y39606D02*
D03*
Y38032D02*
D03*
Y36457D02*
D03*
X10472Y39606D02*
D03*
Y38032D02*
D03*
Y36457D02*
D03*
X9685Y38819D02*
D03*
Y37244D02*
D03*
X8898Y39606D02*
D03*
Y38819D02*
D03*
Y38032D02*
D03*
Y37244D02*
D03*
Y36457D02*
D03*
X8110Y39606D02*
D03*
Y38819D02*
D03*
Y38032D02*
D03*
X7323Y38819D02*
D03*
Y36457D02*
D03*
X6535D02*
D03*
X21299Y21496D02*
D03*
Y22087D02*
D03*
X22480D02*
D03*
X23071Y21496D02*
D03*
Y22087D02*
D03*
X23661Y21496D02*
D03*
Y22087D02*
D03*
Y22677D02*
D03*
Y23268D02*
D03*
Y23858D02*
D03*
Y24449D02*
D03*
Y25039D02*
D03*
X24252Y22087D02*
D03*
Y22677D02*
D03*
Y23268D02*
D03*
Y23858D02*
D03*
Y24449D02*
D03*
Y25039D02*
D03*
Y25630D02*
D03*
X24843Y22087D02*
D03*
Y22677D02*
D03*
Y23268D02*
D03*
Y23858D02*
D03*
Y24449D02*
D03*
Y25039D02*
D03*
Y25630D02*
D03*
X25433Y21496D02*
D03*
Y22087D02*
D03*
Y22677D02*
D03*
Y23268D02*
D03*
Y23858D02*
D03*
Y24449D02*
D03*
Y25039D02*
D03*
Y25630D02*
D03*
X26024Y20905D02*
D03*
Y21496D02*
D03*
Y22087D02*
D03*
Y22677D02*
D03*
Y23268D02*
D03*
Y23858D02*
D03*
Y24449D02*
D03*
Y25039D02*
D03*
Y25630D02*
D03*
X26614Y20905D02*
D03*
Y21496D02*
D03*
Y22087D02*
D03*
Y22677D02*
D03*
Y23268D02*
D03*
Y23858D02*
D03*
Y24449D02*
D03*
Y25039D02*
D03*
Y25630D02*
D03*
Y26220D02*
D03*
X27205Y20905D02*
D03*
Y21496D02*
D03*
Y22087D02*
D03*
Y22677D02*
D03*
Y23268D02*
D03*
Y23858D02*
D03*
Y24449D02*
D03*
Y25039D02*
D03*
Y25630D02*
D03*
Y26220D02*
D03*
X27795Y20905D02*
D03*
Y21496D02*
D03*
Y22087D02*
D03*
Y22677D02*
D03*
Y23268D02*
D03*
Y23858D02*
D03*
Y24449D02*
D03*
Y25039D02*
D03*
Y25630D02*
D03*
Y26220D02*
D03*
X28386Y20905D02*
D03*
Y21496D02*
D03*
Y22087D02*
D03*
Y22677D02*
D03*
Y23268D02*
D03*
Y23858D02*
D03*
Y24449D02*
D03*
Y25039D02*
D03*
Y25630D02*
D03*
Y26220D02*
D03*
X28976Y20905D02*
D03*
Y21496D02*
D03*
Y22087D02*
D03*
Y22677D02*
D03*
Y23268D02*
D03*
Y23858D02*
D03*
Y24449D02*
D03*
Y25039D02*
D03*
Y25630D02*
D03*
Y26220D02*
D03*
X12441Y4075D02*
D03*
Y4862D02*
D03*
Y5650D02*
D03*
Y6437D02*
D03*
Y7224D02*
D03*
Y8012D02*
D03*
Y8799D02*
D03*
Y9587D02*
D03*
Y10374D02*
D03*
Y11161D02*
D03*
Y11949D02*
D03*
Y12736D02*
D03*
Y13524D02*
D03*
X13228Y3287D02*
D03*
Y4075D02*
D03*
Y4862D02*
D03*
Y5650D02*
D03*
Y8012D02*
D03*
Y8799D02*
D03*
Y9587D02*
D03*
Y10374D02*
D03*
Y11161D02*
D03*
Y11949D02*
D03*
Y12736D02*
D03*
Y13524D02*
D03*
X14016Y3287D02*
D03*
Y4862D02*
D03*
Y5650D02*
D03*
Y8012D02*
D03*
Y8799D02*
D03*
Y9587D02*
D03*
Y10374D02*
D03*
Y11161D02*
D03*
Y11949D02*
D03*
Y12736D02*
D03*
Y13524D02*
D03*
X14803Y3287D02*
D03*
Y4862D02*
D03*
Y5650D02*
D03*
Y8012D02*
D03*
Y8799D02*
D03*
Y9587D02*
D03*
Y10374D02*
D03*
Y11161D02*
D03*
Y11949D02*
D03*
Y12736D02*
D03*
Y13524D02*
D03*
X15591Y3287D02*
D03*
Y4075D02*
D03*
Y4862D02*
D03*
Y5650D02*
D03*
Y8012D02*
D03*
Y8799D02*
D03*
Y9587D02*
D03*
Y10374D02*
D03*
Y11161D02*
D03*
Y11949D02*
D03*
Y12736D02*
D03*
Y13524D02*
D03*
X16378Y3287D02*
D03*
Y4075D02*
D03*
Y4862D02*
D03*
Y5650D02*
D03*
Y6437D02*
D03*
Y7224D02*
D03*
Y8012D02*
D03*
Y8799D02*
D03*
Y9587D02*
D03*
Y10374D02*
D03*
Y11161D02*
D03*
Y11949D02*
D03*
Y12736D02*
D03*
Y13524D02*
D03*
X17165Y3287D02*
D03*
Y4075D02*
D03*
Y4862D02*
D03*
X36063Y40984D02*
D03*
Y41575D02*
D03*
Y42165D02*
D03*
Y42756D02*
D03*
X36654Y41575D02*
D03*
Y42756D02*
D03*
X37244Y40984D02*
D03*
Y42165D02*
D03*
Y42756D02*
D03*
X37835Y41575D02*
D03*
Y42756D02*
D03*
X38425Y39213D02*
D03*
Y40394D02*
D03*
Y40984D02*
D03*
Y41575D02*
D03*
X39016Y42165D02*
D03*
X39606Y40984D02*
D03*
X40197Y39803D02*
D03*
Y40394D02*
D03*
Y40984D02*
D03*
X40787Y38622D02*
D03*
Y39803D02*
D03*
X31339Y33307D02*
D03*
Y33898D02*
D03*
X31929Y32717D02*
D03*
Y35079D02*
D03*
Y35669D02*
D03*
Y36260D02*
D03*
X32520Y35669D02*
D03*
X33110Y32126D02*
D03*
Y33898D02*
D03*
Y34488D02*
D03*
Y35079D02*
D03*
Y35669D02*
D03*
Y36260D02*
D03*
X33701Y32717D02*
D03*
Y33898D02*
D03*
Y34488D02*
D03*
Y35079D02*
D03*
Y35669D02*
D03*
X34291Y32717D02*
D03*
X35472D02*
D03*
X31339Y18543D02*
D03*
Y20315D02*
D03*
Y21496D02*
D03*
Y22087D02*
D03*
Y22677D02*
D03*
X31929Y20315D02*
D03*
Y22087D02*
D03*
Y22677D02*
D03*
X32520Y19724D02*
D03*
Y22677D02*
D03*
Y24449D02*
D03*
Y25630D02*
D03*
X33110Y19724D02*
D03*
Y20315D02*
D03*
Y21496D02*
D03*
Y22677D02*
D03*
Y23268D02*
D03*
Y23858D02*
D03*
Y24449D02*
D03*
Y25039D02*
D03*
Y26220D02*
D03*
X33701Y18543D02*
D03*
Y20905D02*
D03*
Y21496D02*
D03*
Y22087D02*
D03*
Y22677D02*
D03*
Y23268D02*
D03*
Y23858D02*
D03*
Y25039D02*
D03*
Y25630D02*
D03*
Y26220D02*
D03*
X34291Y19134D02*
D03*
Y19724D02*
D03*
Y20315D02*
D03*
Y20905D02*
D03*
X34882Y18543D02*
D03*
Y20905D02*
D03*
X35472Y18543D02*
D03*
Y20905D02*
D03*
X36063Y18543D02*
D03*
Y19134D02*
D03*
Y20315D02*
D03*
X36654Y19134D02*
D03*
Y19724D02*
D03*
Y20315D02*
D03*
Y20905D02*
D03*
X37244Y18543D02*
D03*
Y19134D02*
D03*
Y19724D02*
D03*
X37835D02*
D03*
X38425Y18543D02*
D03*
X39016Y20905D02*
D03*
Y21496D02*
D03*
X40787Y20905D02*
D03*
X41378Y21496D02*
D03*
X39606Y41575D02*
D03*
X39016Y40984D02*
D03*
Y41575D02*
D03*
X40787Y40394D02*
D03*
X39606D02*
D03*
X39016Y39803D02*
D03*
Y40394D02*
D03*
X38425Y42756D02*
D03*
Y42165D02*
D03*
X37835D02*
D03*
Y40394D02*
D03*
Y40984D02*
D03*
X39606Y39803D02*
D03*
X39016Y39213D02*
D03*
X41378Y20905D02*
D03*
X40787Y21496D02*
D03*
X38425Y39803D02*
D03*
X39016Y38622D02*
D03*
X38425Y20905D02*
D03*
X37835Y20315D02*
D03*
X38425Y19724D02*
D03*
Y20315D02*
D03*
Y19134D02*
D03*
X37835D02*
D03*
X37244Y41575D02*
D03*
X36654Y42165D02*
D03*
X37244Y40394D02*
D03*
X36654Y40984D02*
D03*
Y40394D02*
D03*
X36063Y39803D02*
D03*
Y40394D02*
D03*
X34882Y32717D02*
D03*
X37244Y20315D02*
D03*
X36063Y20905D02*
D03*
Y19724D02*
D03*
X35472Y32126D02*
D03*
Y20315D02*
D03*
X34882Y32126D02*
D03*
X35472Y19724D02*
D03*
X34882Y20315D02*
D03*
X35472Y19134D02*
D03*
X34882Y19724D02*
D03*
Y19134D02*
D03*
X37835Y18543D02*
D03*
X36654D02*
D03*
X33701Y36260D02*
D03*
X32520Y35079D02*
D03*
X33701Y32126D02*
D03*
X34291D02*
D03*
X33701Y33307D02*
D03*
X33110Y32717D02*
D03*
Y33307D02*
D03*
Y25630D02*
D03*
X32520Y34488D02*
D03*
Y36260D02*
D03*
X31929Y34488D02*
D03*
X31339Y35669D02*
D03*
Y36260D02*
D03*
Y34488D02*
D03*
Y35079D02*
D03*
X32520Y33898D02*
D03*
Y32717D02*
D03*
Y33307D02*
D03*
X31929D02*
D03*
Y32126D02*
D03*
X32520D02*
D03*
Y26220D02*
D03*
Y25039D02*
D03*
X31929D02*
D03*
Y33898D02*
D03*
X31339Y32717D02*
D03*
Y32126D02*
D03*
X31929Y26220D02*
D03*
Y25630D02*
D03*
X31339Y26220D02*
D03*
Y25630D02*
D03*
Y25039D02*
D03*
X33701Y24449D02*
D03*
X34291Y21496D02*
D03*
X33701Y19724D02*
D03*
Y20315D02*
D03*
X32520Y23858D02*
D03*
X33110Y22087D02*
D03*
Y20905D02*
D03*
X32520Y21496D02*
D03*
X34291Y18543D02*
D03*
X33701Y19134D02*
D03*
X33110Y18543D02*
D03*
Y19134D02*
D03*
X32520Y23268D02*
D03*
X31929Y24449D02*
D03*
Y23268D02*
D03*
Y23858D02*
D03*
X32520Y20905D02*
D03*
Y22087D02*
D03*
Y19134D02*
D03*
Y20315D02*
D03*
X31929Y21496D02*
D03*
Y20905D02*
D03*
X31339Y23858D02*
D03*
Y24449D02*
D03*
Y23268D02*
D03*
X31929Y19134D02*
D03*
Y19724D02*
D03*
X31339Y20905D02*
D03*
Y19724D02*
D03*
X32520Y18543D02*
D03*
X31929D02*
D03*
X31339Y19134D02*
D03*
X18937Y17362D02*
D03*
Y17953D02*
D03*
Y18543D02*
D03*
Y19134D02*
D03*
Y19724D02*
D03*
Y20315D02*
D03*
Y20905D02*
D03*
X19528Y17362D02*
D03*
Y17953D02*
D03*
Y18543D02*
D03*
Y19134D02*
D03*
Y19724D02*
D03*
Y20315D02*
D03*
Y20905D02*
D03*
X20118Y17362D02*
D03*
Y17953D02*
D03*
Y18543D02*
D03*
Y19134D02*
D03*
Y19724D02*
D03*
X20709Y17362D02*
D03*
Y17953D02*
D03*
Y18543D02*
D03*
Y19134D02*
D03*
Y19724D02*
D03*
X21299Y17362D02*
D03*
Y17953D02*
D03*
Y18543D02*
D03*
Y19134D02*
D03*
Y19724D02*
D03*
X21890Y17362D02*
D03*
Y17953D02*
D03*
Y18543D02*
D03*
X45118Y3386D02*
D03*
Y4173D02*
D03*
Y4961D02*
D03*
Y5748D02*
D03*
Y6535D02*
D03*
Y7323D02*
D03*
Y8110D02*
D03*
Y8898D02*
D03*
Y9685D02*
D03*
Y10472D02*
D03*
Y11260D02*
D03*
X45906Y3386D02*
D03*
Y4173D02*
D03*
Y4961D02*
D03*
Y5748D02*
D03*
Y8110D02*
D03*
Y8898D02*
D03*
Y9685D02*
D03*
Y10472D02*
D03*
Y11260D02*
D03*
X46693Y3386D02*
D03*
Y4173D02*
D03*
Y5748D02*
D03*
Y6535D02*
D03*
Y8110D02*
D03*
Y8898D02*
D03*
Y9685D02*
D03*
Y10472D02*
D03*
Y11260D02*
D03*
X47480Y3386D02*
D03*
Y4173D02*
D03*
Y5748D02*
D03*
Y6535D02*
D03*
Y8110D02*
D03*
Y8898D02*
D03*
Y9685D02*
D03*
Y10472D02*
D03*
Y11260D02*
D03*
X48268Y3386D02*
D03*
Y4173D02*
D03*
Y4961D02*
D03*
Y5748D02*
D03*
Y8110D02*
D03*
Y8898D02*
D03*
Y9685D02*
D03*
Y10472D02*
D03*
Y11260D02*
D03*
X49055Y3386D02*
D03*
Y4173D02*
D03*
Y4961D02*
D03*
Y5748D02*
D03*
Y6535D02*
D03*
Y7323D02*
D03*
Y8110D02*
D03*
Y8898D02*
D03*
Y9685D02*
D03*
Y10472D02*
D03*
Y11260D02*
D03*
X37835Y35669D02*
D03*
X38425D02*
D03*
Y36260D02*
D03*
X39016D02*
D03*
Y36850D02*
D03*
X40787Y36260D02*
D03*
Y36850D02*
D03*
X41378Y36260D02*
D03*
Y36850D02*
D03*
X41968Y35669D02*
D03*
Y36260D02*
D03*
Y36850D02*
D03*
X42559Y35669D02*
D03*
Y36260D02*
D03*
Y36850D02*
D03*
Y37441D02*
D03*
X43150Y35669D02*
D03*
Y36260D02*
D03*
Y36850D02*
D03*
Y37441D02*
D03*
X43740Y35669D02*
D03*
Y36260D02*
D03*
Y36850D02*
D03*
Y37441D02*
D03*
X44331Y35669D02*
D03*
Y36260D02*
D03*
Y36850D02*
D03*
Y37441D02*
D03*
X46850Y29528D02*
D03*
X25433Y33898D02*
D03*
X26024Y34488D02*
D03*
X24843Y35669D02*
D03*
X24252D02*
D03*
X25433Y34488D02*
D03*
X24843D02*
D03*
X24252D02*
D03*
X51417Y79764D02*
D03*
X50630D02*
D03*
X51417Y78976D02*
D03*
Y75827D02*
D03*
X49843Y79764D02*
D03*
Y78976D02*
D03*
X49055D02*
D03*
X49843Y78189D02*
D03*
Y75827D02*
D03*
X49055Y77402D02*
D03*
X56142Y62441D02*
D03*
X53780D02*
D03*
X55354D02*
D03*
X54567D02*
D03*
X56142Y61654D02*
D03*
X55354D02*
D03*
X51417Y75039D02*
D03*
X49843D02*
D03*
X50630Y74252D02*
D03*
X49055Y80551D02*
D03*
X48268Y78976D02*
D03*
Y79764D02*
D03*
Y78189D02*
D03*
X49055Y75039D02*
D03*
X48268Y80551D02*
D03*
X47480D02*
D03*
Y78976D02*
D03*
Y78189D02*
D03*
X48268Y77402D02*
D03*
Y76614D02*
D03*
X47480Y75827D02*
D03*
X49055Y74252D02*
D03*
X48268Y75039D02*
D03*
Y74252D02*
D03*
X47480Y75039D02*
D03*
X55354Y60079D02*
D03*
Y59291D02*
D03*
Y58504D02*
D03*
X52992Y60866D02*
D03*
X53780Y58504D02*
D03*
X47480Y50630D02*
D03*
X49843Y48268D02*
D03*
X49055D02*
D03*
X48268Y49055D02*
D03*
X49055Y47480D02*
D03*
X46693D02*
D03*
Y50630D02*
D03*
X45118D02*
D03*
X45906Y49843D02*
D03*
X46693Y48268D02*
D03*
X45906Y47480D02*
D03*
X45118Y48268D02*
D03*
Y47480D02*
D03*
X57717Y78976D02*
D03*
X56929D02*
D03*
X58504Y75827D02*
D03*
X57717Y77402D02*
D03*
Y75827D02*
D03*
X56929Y78189D02*
D03*
X56142Y78976D02*
D03*
Y78189D02*
D03*
X55354Y78976D02*
D03*
X56929Y76614D02*
D03*
X55354Y75827D02*
D03*
X57717Y75039D02*
D03*
X56929D02*
D03*
Y71102D02*
D03*
X55354Y75039D02*
D03*
X56142Y71102D02*
D03*
X55354Y70315D02*
D03*
X56142Y69528D02*
D03*
Y66378D02*
D03*
X55354Y67953D02*
D03*
Y66378D02*
D03*
X54567Y75039D02*
D03*
Y75827D02*
D03*
Y70315D02*
D03*
Y71102D02*
D03*
X52992Y69528D02*
D03*
X53780D02*
D03*
X54567Y66378D02*
D03*
X50630D02*
D03*
X49843D02*
D03*
Y65591D02*
D03*
Y63228D02*
D03*
X48268Y66378D02*
D03*
X49055Y64803D02*
D03*
Y64016D02*
D03*
X48268Y64803D02*
D03*
Y65591D02*
D03*
X47480Y64803D02*
D03*
X56142Y52992D02*
D03*
Y52205D02*
D03*
X55354D02*
D03*
X56929Y51417D02*
D03*
X55354D02*
D03*
X54567Y52992D02*
D03*
X55354Y50630D02*
D03*
X54567Y51417D02*
D03*
Y50630D02*
D03*
X53780Y51417D02*
D03*
Y52205D02*
D03*
X56142Y49843D02*
D03*
X55354D02*
D03*
X56142Y49055D02*
D03*
X56929D02*
D03*
X54567Y38032D02*
D03*
Y38819D02*
D03*
X53780Y38032D02*
D03*
X52992Y38819D02*
D03*
X53780Y37244D02*
D03*
X52992Y38032D02*
D03*
X53780Y36457D02*
D03*
X52992Y37244D02*
D03*
X52205Y39606D02*
D03*
X50630Y63228D02*
D03*
Y39606D02*
D03*
X49843D02*
D03*
X50630Y38819D02*
D03*
X52205Y38032D02*
D03*
X50630D02*
D03*
X49843D02*
D03*
X49055Y39606D02*
D03*
X46693D02*
D03*
X47480D02*
D03*
X46693Y38819D02*
D03*
X50630Y37244D02*
D03*
X51417D02*
D03*
X49055Y38032D02*
D03*
X50630Y36457D02*
D03*
X51417D02*
D03*
X47480Y38032D02*
D03*
X46693D02*
D03*
X48268Y37244D02*
D03*
X47480D02*
D03*
X46693Y36457D02*
D03*
X48268D02*
D03*
X47480D02*
D03*
X9685Y39606D02*
D03*
X15197D02*
D03*
X14409Y37244D02*
D03*
Y38819D02*
D03*
X12047Y39606D02*
D03*
X13622Y38819D02*
D03*
X12047D02*
D03*
X11260D02*
D03*
X10472D02*
D03*
X7323Y39606D02*
D03*
X6535Y38819D02*
D03*
X12835Y38032D02*
D03*
X10472Y37244D02*
D03*
X11260D02*
D03*
X9685Y38032D02*
D03*
X8110Y37244D02*
D03*
X6535D02*
D03*
X9685Y36457D02*
D03*
X8110D02*
D03*
X1811Y47480D02*
D03*
Y48268D02*
D03*
Y49055D02*
D03*
Y49843D02*
D03*
Y50630D02*
D03*
Y51417D02*
D03*
Y71890D02*
D03*
Y72677D02*
D03*
Y73465D02*
D03*
Y74252D02*
D03*
Y75039D02*
D03*
Y75827D02*
D03*
X2598Y47480D02*
D03*
Y48268D02*
D03*
Y49055D02*
D03*
Y49843D02*
D03*
Y50630D02*
D03*
Y51417D02*
D03*
Y71102D02*
D03*
Y71890D02*
D03*
Y72677D02*
D03*
Y73465D02*
D03*
Y74252D02*
D03*
Y75039D02*
D03*
Y75827D02*
D03*
Y76614D02*
D03*
X3386Y47480D02*
D03*
Y48268D02*
D03*
Y49055D02*
D03*
Y49843D02*
D03*
Y50630D02*
D03*
Y51417D02*
D03*
Y52205D02*
D03*
Y71102D02*
D03*
Y71890D02*
D03*
Y72677D02*
D03*
Y73465D02*
D03*
Y74252D02*
D03*
Y75039D02*
D03*
Y75827D02*
D03*
Y76614D02*
D03*
X4173Y47480D02*
D03*
Y48268D02*
D03*
Y49055D02*
D03*
Y49843D02*
D03*
Y50630D02*
D03*
Y51417D02*
D03*
Y52205D02*
D03*
Y71102D02*
D03*
Y71890D02*
D03*
Y72677D02*
D03*
Y73465D02*
D03*
Y74252D02*
D03*
Y75039D02*
D03*
Y75827D02*
D03*
Y76614D02*
D03*
X4961Y47480D02*
D03*
Y48268D02*
D03*
Y49055D02*
D03*
Y49843D02*
D03*
Y50630D02*
D03*
Y51417D02*
D03*
Y52205D02*
D03*
Y71102D02*
D03*
Y71890D02*
D03*
Y72677D02*
D03*
Y73465D02*
D03*
Y74252D02*
D03*
Y75039D02*
D03*
Y75827D02*
D03*
Y76614D02*
D03*
X5748Y49055D02*
D03*
Y49843D02*
D03*
Y50630D02*
D03*
Y51417D02*
D03*
Y52205D02*
D03*
Y71102D02*
D03*
Y74252D02*
D03*
Y75039D02*
D03*
Y75827D02*
D03*
Y76614D02*
D03*
X6535Y49055D02*
D03*
Y49843D02*
D03*
Y50630D02*
D03*
Y51417D02*
D03*
Y52205D02*
D03*
Y71102D02*
D03*
Y74252D02*
D03*
Y75039D02*
D03*
Y75827D02*
D03*
Y76614D02*
D03*
X7323Y47480D02*
D03*
Y48268D02*
D03*
Y49055D02*
D03*
Y49843D02*
D03*
Y50630D02*
D03*
Y51417D02*
D03*
Y52205D02*
D03*
Y71890D02*
D03*
Y72677D02*
D03*
Y73465D02*
D03*
Y74252D02*
D03*
Y75039D02*
D03*
Y75827D02*
D03*
X8110Y59291D02*
D03*
Y60079D02*
D03*
Y60866D02*
D03*
Y61654D02*
D03*
Y62441D02*
D03*
Y63228D02*
D03*
Y64016D02*
D03*
X8898Y59291D02*
D03*
Y60079D02*
D03*
Y60866D02*
D03*
Y61654D02*
D03*
Y62441D02*
D03*
Y63228D02*
D03*
Y64016D02*
D03*
X9685Y59291D02*
D03*
Y60079D02*
D03*
Y60866D02*
D03*
Y61654D02*
D03*
Y62441D02*
D03*
Y63228D02*
D03*
Y64016D02*
D03*
X10472Y59291D02*
D03*
Y60079D02*
D03*
Y60866D02*
D03*
Y61654D02*
D03*
Y62441D02*
D03*
Y63228D02*
D03*
Y64016D02*
D03*
X11260Y59291D02*
D03*
Y60079D02*
D03*
Y60866D02*
D03*
Y61654D02*
D03*
Y62441D02*
D03*
Y63228D02*
D03*
Y64016D02*
D03*
X12047Y61654D02*
D03*
Y62441D02*
D03*
Y63228D02*
D03*
Y64016D02*
D03*
X12835Y59291D02*
D03*
Y61654D02*
D03*
Y62441D02*
D03*
Y63228D02*
D03*
Y64016D02*
D03*
X13622Y61654D02*
D03*
Y62441D02*
D03*
Y63228D02*
D03*
Y64016D02*
D03*
X9685Y74252D02*
D03*
Y75039D02*
D03*
Y75827D02*
D03*
Y76614D02*
D03*
X10472Y74252D02*
D03*
Y75039D02*
D03*
Y75827D02*
D03*
Y76614D02*
D03*
X11260Y71890D02*
D03*
Y72677D02*
D03*
Y73465D02*
D03*
Y74252D02*
D03*
Y75039D02*
D03*
Y75827D02*
D03*
Y76614D02*
D03*
X12047Y71890D02*
D03*
Y72677D02*
D03*
Y73465D02*
D03*
Y74252D02*
D03*
Y75039D02*
D03*
Y75827D02*
D03*
Y76614D02*
D03*
X12835Y71890D02*
D03*
Y72677D02*
D03*
Y73465D02*
D03*
Y74252D02*
D03*
Y75039D02*
D03*
Y75827D02*
D03*
Y76614D02*
D03*
X15984Y57717D02*
D03*
Y58504D02*
D03*
Y59291D02*
D03*
Y61654D02*
D03*
Y62441D02*
D03*
Y63228D02*
D03*
X16772Y57717D02*
D03*
Y58504D02*
D03*
Y59291D02*
D03*
Y61654D02*
D03*
Y62441D02*
D03*
Y63228D02*
D03*
X17559Y57717D02*
D03*
Y58504D02*
D03*
Y59291D02*
D03*
Y60866D02*
D03*
Y61654D02*
D03*
Y62441D02*
D03*
Y63228D02*
D03*
X18346Y57717D02*
D03*
Y58504D02*
D03*
Y59291D02*
D03*
Y60079D02*
D03*
Y60866D02*
D03*
Y61654D02*
D03*
Y62441D02*
D03*
Y63228D02*
D03*
X19134Y57717D02*
D03*
Y58504D02*
D03*
Y59291D02*
D03*
Y60079D02*
D03*
Y60866D02*
D03*
Y61654D02*
D03*
Y62441D02*
D03*
Y63228D02*
D03*
D105*
X7431Y8317D02*
D03*
X8760Y10335D02*
D03*
X6004D02*
D03*
X5630Y8937D02*
D03*
X5020Y9449D02*
D03*
X4331Y6496D02*
D03*
Y7874D02*
D03*
X14567Y26476D02*
D03*
X14173Y19193D02*
D03*
X13287Y26378D02*
D03*
Y19193D02*
D03*
X9350Y14370D02*
D03*
X6693D02*
D03*
X9646Y18406D02*
D03*
X6988Y19193D02*
D03*
X52461Y18701D02*
D03*
X55118Y19547D02*
D03*
X56791Y17028D02*
D03*
X5709Y16535D02*
D03*
X5807Y14370D02*
D03*
X4921Y13189D02*
D03*
Y17028D02*
D03*
X12303Y27953D02*
D03*
X16634D02*
D03*
X14468Y28051D02*
D03*
X49606Y28543D02*
D03*
X47617Y26870D02*
D03*
X48622Y27165D02*
D03*
X49705Y18701D02*
D03*
X49114Y19488D02*
D03*
X46161Y27461D02*
D03*
X44193Y28445D02*
D03*
X56299Y7087D02*
D03*
X54724Y8268D02*
D03*
X56004Y8957D02*
D03*
X55709Y9744D02*
D03*
X53346D02*
D03*
X55118Y6496D02*
D03*
X57283Y5709D02*
D03*
X55610Y14272D02*
D03*
X52953Y14370D02*
D03*
X53297Y12697D02*
D03*
X56791Y12795D02*
D03*
X56102Y18012D02*
D03*
X55807Y12795D02*
D03*
X60236Y9843D02*
D03*
X58071Y8957D02*
D03*
X57126Y7028D02*
D03*
X48524Y28051D02*
D03*
X46555Y28051D02*
D03*
X1772Y6299D02*
D03*
X1673Y7874D02*
D03*
X17421Y27953D02*
D03*
D106*
X37894Y25683D02*
D03*
Y23333D02*
D03*
X37303Y40053D02*
D03*
Y37703D02*
D03*
X26083Y35439D02*
D03*
Y37789D02*
D03*
D107*
X22447Y17815D02*
D03*
X24797D02*
D03*
D108*
X14852Y29724D02*
D03*
X15463D02*
D03*
X46841Y30118D02*
D03*
X47451D02*
D03*
D109*
X45325Y16732D02*
D03*
X43061D02*
D03*
D110*
X42126Y43061D02*
D03*
Y45325D02*
D03*
X18602Y42963D02*
D03*
Y45226D02*
D03*
X19488Y13484D02*
D03*
Y15748D02*
D03*
D111*
X42618Y28337D02*
D03*
Y30128D02*
D03*
X53740Y28533D02*
D03*
Y30325D02*
D03*
X19094Y28829D02*
D03*
Y30620D02*
D03*
X7776Y29419D02*
D03*
Y31211D02*
D03*
D112*
X24508Y19478D02*
D03*
Y21073D02*
D03*
X37620Y22528D02*
D03*
Y20933D02*
D03*
X24213Y39469D02*
D03*
Y37874D02*
D03*
D113*
X36014Y34843D02*
D03*
X37608D02*
D03*
D114*
X3701Y5464D02*
D03*
X2441D02*
D03*
X3661Y8692D02*
D03*
X2402D02*
D03*
X7441Y14370D02*
D03*
X8701D02*
D03*
X57835Y5709D02*
D03*
X59094D02*
D03*
X56063Y18701D02*
D03*
X57323D02*
D03*
X53799Y14272D02*
D03*
X55059D02*
D03*
X5768Y17421D02*
D03*
X7028D02*
D03*
D115*
X59449Y9803D02*
D03*
Y11063D02*
D03*
D116*
X24557Y15589D02*
D03*
X22293D02*
D03*
D117*
X35630Y23278D02*
D03*
Y25541D02*
D03*
X35138Y37352D02*
D03*
Y39616D02*
D03*
X28346Y37746D02*
D03*
Y35482D02*
D03*
M02*
