G04 Layer_Physical_Order=2*
G04 Layer_Color=16711680*
%FSLAX24Y24*%
%MOIN*%
G70*
G01*
G75*
%ADD15R,0.0453X0.1102*%
%ADD16R,0.0433X0.0394*%
%ADD17R,0.0394X0.0433*%
%ADD26C,0.0197*%
%ADD27C,0.0295*%
%ADD28C,0.0394*%
%ADD29C,0.0950*%
%ADD30C,0.0800*%
%ADD31C,0.2008*%
%ADD32C,0.1378*%
%ADD33R,0.1378X0.1378*%
%ADD34C,0.0906*%
%ADD35R,0.0906X0.0906*%
%ADD36R,0.0480X0.0480*%
%ADD37C,0.0480*%
%ADD38C,0.0984*%
%ADD39R,0.0984X0.0984*%
%ADD40R,0.0535X0.0535*%
%ADD41C,0.0535*%
%ADD43C,0.0810*%
%ADD44C,0.0354*%
%ADD45C,0.0472*%
%ADD46R,0.1311X0.0484*%
%ADD47R,0.0484X0.1311*%
%ADD48R,0.0315X0.0413*%
%ADD49R,0.0413X0.2126*%
%ADD50R,0.2126X0.0413*%
%ADD51R,0.1378X0.0413*%
%ADD52R,0.0945X0.0591*%
%ADD53R,0.0591X0.0945*%
%ADD54R,0.0571X0.0748*%
%ADD55R,0.0748X0.0571*%
%ADD56R,0.0965X0.1240*%
%ADD57R,0.1240X0.0965*%
G36*
X25394Y40354D02*
X29134Y40354D01*
X29192D01*
X29306Y40332D01*
X29414Y40287D01*
X29510Y40222D01*
X29593Y40140D01*
X29657Y40044D01*
X29702Y39936D01*
X29724Y39822D01*
X29724Y39764D01*
X29724D01*
X29724Y37500D01*
X29724Y37461D01*
X29709Y37385D01*
X29680Y37314D01*
X29637Y37249D01*
X29582Y37194D01*
X29517Y37151D01*
X29446Y37121D01*
X29380Y37108D01*
X29331Y37106D01*
X25787Y37106D01*
X25749Y37106D01*
X25673Y37121D01*
X25601Y37151D01*
X25536Y37194D01*
X25482Y37249D01*
X25439Y37314D01*
X25409Y37385D01*
X25394Y37461D01*
Y37500D01*
X25394Y37500D01*
X25394Y39075D01*
X23917Y39075D01*
X23879Y39075D01*
X23802Y39090D01*
X23731Y39120D01*
X23666Y39163D01*
X23612Y39218D01*
X23568Y39282D01*
X23539Y39354D01*
X23524Y39430D01*
Y39469D01*
X23524Y39469D01*
X23524Y39961D01*
X23524Y39999D01*
X23539Y40075D01*
X23568Y40147D01*
X23612Y40212D01*
X23666Y40266D01*
X23731Y40310D01*
X23802Y40339D01*
X23879Y40354D01*
X23917Y40354D01*
X23917Y40354D01*
X25394Y40354D01*
D02*
G37*
G36*
X37795Y38189D02*
X37795Y38189D01*
X37795D01*
X37841Y38186D01*
X37881Y38178D01*
X37935Y38155D01*
X37984Y38123D01*
X38025Y38082D01*
X38057Y38034D01*
X38079Y37980D01*
X38091Y37923D01*
X38091Y37894D01*
X38091Y37598D01*
X38091Y37598D01*
Y37569D01*
X38079Y37512D01*
X38057Y37459D01*
X38025Y37410D01*
X37984Y37369D01*
X37935Y37337D01*
X37881Y37315D01*
X37824Y37303D01*
X36811Y37303D01*
X36811Y37303D01*
X36772Y37301D01*
X36697Y37286D01*
X36625Y37257D01*
X36561Y37214D01*
X36507Y37159D01*
X36464Y37095D01*
X36434Y37024D01*
X36419Y36948D01*
X36417Y36909D01*
X36417Y34449D01*
X36417Y34449D01*
X36417Y34400D01*
X36398Y34305D01*
X36361Y34216D01*
X36307Y34135D01*
X36239Y34067D01*
X36158Y34013D01*
X36069Y33976D01*
X35974Y33957D01*
X34892Y33957D01*
X34797Y33976D01*
X34708Y34013D01*
X34627Y34067D01*
X34559Y34135D01*
X34505Y34216D01*
X34468Y34305D01*
X34449Y34400D01*
X34449Y34449D01*
Y37697D01*
X34449Y37745D01*
X34468Y37840D01*
X34505Y37930D01*
X34559Y38011D01*
X34627Y38079D01*
X34708Y38133D01*
X34797Y38170D01*
X34892Y38189D01*
X34941Y38189D01*
X37795Y38189D01*
X37795Y38189D01*
D02*
G37*
G36*
X38114Y43294D02*
X38248Y43267D01*
X38378Y43228D01*
X38503Y43176D01*
X38623Y43112D01*
X38737Y43036D01*
X38842Y42950D01*
X38890Y42901D01*
X38890Y42901D01*
X38890Y42901D01*
X40597Y41194D01*
X40673Y41118D01*
X40810Y40951D01*
X40930Y40772D01*
X41032Y40582D01*
X41114Y40382D01*
X41177Y40176D01*
X41219Y39964D01*
X41240Y39749D01*
X41240Y39641D01*
X41240Y39641D01*
X41240Y39641D01*
X41240Y38780D01*
X41240Y38741D01*
X41225Y38665D01*
X41195Y38593D01*
X41152Y38529D01*
X41097Y38474D01*
X41033Y38431D01*
X40961Y38401D01*
X40904Y38390D01*
X39483Y38390D01*
X39386Y38390D01*
X39386Y38390D01*
X39386Y38390D01*
X39347Y38386D01*
X39214D01*
X39134Y38386D01*
X38977Y38417D01*
X38830Y38478D01*
X38697Y38567D01*
X38640Y38623D01*
X38640Y38623D01*
X38427Y38837D01*
X38368Y38891D01*
X38235Y38979D01*
X38088Y39040D01*
X37932Y39071D01*
X37853Y39075D01*
X37853Y39075D01*
X37853Y39075D01*
X34449Y39075D01*
X34401Y39072D01*
X34306Y39054D01*
X34217Y39017D01*
X34137Y38963D01*
X34068Y38895D01*
X34015Y38815D01*
X33978Y38726D01*
X33959Y38631D01*
X33957Y38583D01*
Y33760D01*
X33960Y33683D01*
X33991Y33531D01*
X34050Y33389D01*
X34135Y33260D01*
X34245Y33151D01*
X34373Y33065D01*
X34516Y33006D01*
X34667Y32976D01*
X34744Y32972D01*
X35630Y32972D01*
X35688Y32972D01*
X35802Y32950D01*
X35910Y32905D01*
X36006Y32841D01*
X36089Y32758D01*
X36153Y32662D01*
X36198Y32554D01*
X36220Y32440D01*
X36220Y32382D01*
X36220Y32382D01*
X36220Y32382D01*
X36220Y27756D01*
Y27698D01*
X36198Y27584D01*
X36153Y27476D01*
X36089Y27379D01*
X36006Y27297D01*
X35910Y27233D01*
X35802Y27188D01*
X35688Y27165D01*
X35630D01*
X34350Y27165D01*
X34312Y27163D01*
X34236Y27148D01*
X34165Y27119D01*
X34101Y27076D01*
X34046Y27021D01*
X34003Y26957D01*
X33974Y26886D01*
X33961Y26820D01*
X33959Y26810D01*
X33957Y26772D01*
X33957D01*
X33957Y26772D01*
X33957Y26064D01*
X33955Y26046D01*
X33956Y26017D01*
X33953Y25987D01*
X33953Y25987D01*
X33953Y25985D01*
X33953Y25984D01*
X33953Y25168D01*
X33957Y25129D01*
X33957Y22947D01*
X33958Y22883D01*
X33970Y22754D01*
X33994Y22627D01*
X34029Y22503D01*
X34076Y22383D01*
X34134Y22267D01*
X34202Y22158D01*
X34280Y22055D01*
X34322Y22006D01*
X34322Y22006D01*
X34322Y22006D01*
X34597Y21706D01*
X34654Y21650D01*
X34783Y21558D01*
X34929Y21494D01*
X35085Y21461D01*
X35165Y21457D01*
X37887Y21457D01*
X37982Y21461D01*
X38168Y21498D01*
X38343Y21571D01*
X38500Y21676D01*
X38571Y21740D01*
X38571Y21740D01*
X38607Y21776D01*
X38687Y21842D01*
X38773Y21899D01*
X38863Y21948D01*
X38959Y21987D01*
X39057Y22017D01*
X39158Y22037D01*
X39261Y22047D01*
X39312Y22047D01*
X39312Y22047D01*
X39952Y22047D01*
X39991Y22043D01*
X39991Y22043D01*
X39991Y22043D01*
X40059Y22043D01*
X40059Y22043D01*
X40059Y22043D01*
X41209Y22043D01*
X41285Y22028D01*
X41375Y21991D01*
X41455Y21937D01*
X41524Y21869D01*
X41578Y21788D01*
X41615Y21699D01*
X41634Y21604D01*
X41634Y21555D01*
X41634Y21555D01*
X41634Y21555D01*
X41634Y20768D01*
X41634Y20719D01*
X41615Y20624D01*
X41578Y20535D01*
X41524Y20454D01*
X41455Y20385D01*
X41375Y20332D01*
X41285Y20294D01*
X41190Y20276D01*
X41142Y20276D01*
X39370D01*
X39332Y20274D01*
X39256Y20259D01*
X39185Y20229D01*
X39180Y20226D01*
X39173D01*
Y20222D01*
X39120Y20186D01*
X39066Y20132D01*
X39023Y20067D01*
X38993Y19996D01*
X38980Y19930D01*
X38978Y19920D01*
X38976Y19882D01*
X38976D01*
Y19882D01*
X38976Y19832D01*
X38976Y17126D01*
X38976Y17058D01*
X38950Y16925D01*
X38898Y16800D01*
X38823Y16687D01*
X38727Y16591D01*
X38614Y16515D01*
X38488Y16463D01*
X38355Y16437D01*
X38287Y16437D01*
X38287Y16437D01*
X38287Y16437D01*
X36516Y16437D01*
X36448Y16434D01*
X36316Y16407D01*
X36191Y16356D01*
X36079Y16281D01*
X35983Y16185D01*
X35908Y16073D01*
X35856Y15948D01*
X35830Y15816D01*
X35827Y15748D01*
X35827D01*
X35827Y15748D01*
X35827Y6102D01*
X35830Y6035D01*
X35856Y5902D01*
X35908Y5778D01*
X35983Y5665D01*
X36079Y5570D01*
X36191Y5495D01*
X36316Y5443D01*
X36448Y5417D01*
X36516Y5413D01*
X36516Y5413D01*
X44587Y5413D01*
X44587Y11024D01*
X44587Y11091D01*
X44613Y11225D01*
X44665Y11350D01*
X44740Y11463D01*
X44836Y11559D01*
X44949Y11634D01*
X45075Y11686D01*
X45208Y11713D01*
X45276Y11713D01*
X45276Y11713D01*
X49016Y11713D01*
X49083Y11713D01*
X49217Y11686D01*
X49342Y11634D01*
X49455Y11559D01*
X49551Y11463D01*
X49626Y11350D01*
X49678Y11224D01*
X49705Y11091D01*
X49705Y11023D01*
X49705Y11023D01*
X49705Y11023D01*
X49705Y5413D01*
X49705Y3642D01*
X49705Y3574D01*
X49678Y3441D01*
X49626Y3315D01*
X49551Y3203D01*
X49455Y3107D01*
X49342Y3031D01*
X49217Y2979D01*
X49084Y2953D01*
X49016Y2953D01*
X31299Y2953D01*
X31231Y2953D01*
X31098Y2979D01*
X30973Y3031D01*
X30860Y3107D01*
X30764Y3203D01*
X30689Y3315D01*
X30637Y3441D01*
X30610Y3574D01*
X30610Y3642D01*
X30610Y3642D01*
X30610Y19291D01*
X30610Y42520D01*
Y42597D01*
X30640Y42749D01*
X30700Y42893D01*
X30786Y43022D01*
X30896Y43131D01*
X31025Y43217D01*
X31168Y43277D01*
X31320Y43307D01*
X31398Y43307D01*
X31398Y43307D01*
X37911Y43307D01*
X37979Y43307D01*
X38114Y43294D01*
D02*
G37*
G36*
X43307Y43602D02*
X43307Y43602D01*
X43307D01*
X43353Y43599D01*
X43393Y43591D01*
X43447Y43569D01*
X43495Y43536D01*
X43536Y43495D01*
X43569Y43447D01*
X43591Y43393D01*
X43602Y43336D01*
X43602Y43307D01*
X43602Y43127D01*
X43604Y43055D01*
X43618Y42912D01*
X43646Y42771D01*
X43688Y42633D01*
X43743Y42500D01*
X43811Y42373D01*
X43891Y42254D01*
X43982Y42142D01*
X44032Y42090D01*
X45252Y40870D01*
Y40870D01*
X45326Y40799D01*
X45485Y40669D01*
X45657Y40554D01*
X45838Y40457D01*
X46028Y40379D01*
X46225Y40319D01*
X46427Y40279D01*
X46632Y40258D01*
X46735Y40256D01*
X54724Y40256D01*
X54724Y40256D01*
X54724Y40256D01*
X54783Y40256D01*
X54897Y40233D01*
X55004Y40189D01*
X55101Y40124D01*
X55183Y40042D01*
X55248Y39945D01*
X55292Y39838D01*
X55315Y39724D01*
X55315Y39665D01*
X55315Y35925D01*
X55315Y35925D01*
Y35896D01*
X55304Y35839D01*
X55281Y35785D01*
X55249Y35737D01*
X55208Y35696D01*
X55160Y35664D01*
X55106Y35641D01*
X55049Y35630D01*
X55020D01*
Y35630D01*
X54981Y35628D01*
X54905Y35613D01*
X54834Y35583D01*
X54770Y35541D01*
X54715Y35486D01*
X54672Y35422D01*
X54643Y35350D01*
X54628Y35275D01*
X54626Y35236D01*
X54626Y30217D01*
X54626Y30217D01*
Y30187D01*
X54615Y30130D01*
X54592Y30077D01*
X54560Y30028D01*
X54519Y29987D01*
X54471Y29955D01*
X54417Y29933D01*
X54360Y29921D01*
X53150Y29921D01*
X53121Y29921D01*
X53063Y29933D01*
X53010Y29955D01*
X52961Y29987D01*
X52920Y30028D01*
X52888Y30077D01*
X52866Y30130D01*
X52854Y30187D01*
X52854Y30217D01*
X52854Y35138D01*
X52854D01*
X52854Y35138D01*
X52852Y35186D01*
X52833Y35281D01*
X52796Y35370D01*
X52743Y35450D01*
X52674Y35518D01*
X52594Y35572D01*
X52505Y35609D01*
X52410Y35628D01*
X52362Y35630D01*
X45079Y35630D01*
X45079Y35630D01*
X45040Y35628D01*
X44964Y35613D01*
X44893Y35583D01*
X44829Y35541D01*
X44774Y35486D01*
X44732Y35422D01*
X44702Y35350D01*
X44687Y35275D01*
X44685Y35236D01*
X44685D01*
X44685Y35197D01*
X44670Y35121D01*
X44640Y35050D01*
X44597Y34985D01*
X44542Y34930D01*
X44478Y34887D01*
X44406Y34858D01*
X44330Y34843D01*
X44291Y34843D01*
X43898Y34843D01*
X43898Y34843D01*
X43849Y34840D01*
X43755Y34821D01*
X43666Y34784D01*
X43585Y34731D01*
X43517Y34663D01*
X43464Y34582D01*
X43427Y34493D01*
X43408Y34399D01*
X43406Y34350D01*
X43406Y30020D01*
X43406Y30020D01*
X43406Y29991D01*
X43394Y29934D01*
X43372Y29880D01*
X43340Y29831D01*
X43298Y29790D01*
X43250Y29758D01*
X43196Y29736D01*
X43139Y29724D01*
X43110Y29724D01*
X42126Y29724D01*
X42098Y29724D01*
X42044Y29735D01*
X41993Y29756D01*
X41947Y29787D01*
X41907Y29826D01*
X41877Y29873D01*
X41855Y29924D01*
X41845Y29978D01*
X41845Y30006D01*
X41845Y34533D01*
X41845D01*
X41845Y34533D01*
X41845Y34533D01*
X41842Y34570D01*
X41840Y34579D01*
X41825Y34642D01*
X41791Y34707D01*
X41743Y34763D01*
X41714Y34786D01*
X41673Y34815D01*
X41606Y34892D01*
X41559Y34982D01*
X41535Y35081D01*
X41535Y35131D01*
X41535Y35335D01*
X41535D01*
X41535Y35335D01*
X41535Y35335D01*
X41534Y35364D01*
X41531Y35381D01*
X41523Y35420D01*
X41501Y35474D01*
X41468Y35522D01*
X41427Y35563D01*
X41379Y35595D01*
X41326Y35617D01*
X41269Y35628D01*
X41240Y35630D01*
X39469Y35630D01*
X39468Y35630D01*
X39440Y35628D01*
X39383Y35617D01*
X39329Y35595D01*
X39308Y35581D01*
X39173D01*
Y34154D01*
X39173Y34154D01*
Y34115D01*
X39158Y34039D01*
X39128Y33967D01*
X39085Y33903D01*
X39030Y33848D01*
X38966Y33805D01*
X38894Y33775D01*
X38818Y33760D01*
X38484Y33760D01*
X37500Y33760D01*
X37500Y33760D01*
X37461Y33760D01*
X37385Y33775D01*
X37314Y33805D01*
X37249Y33848D01*
X37194Y33903D01*
X37151Y33967D01*
X37121Y34039D01*
X37106Y34115D01*
X37106Y34154D01*
X37106Y35827D01*
X37106Y36417D01*
X37106Y36417D01*
X37108Y36466D01*
X37121Y36532D01*
X37151Y36604D01*
X37194Y36668D01*
X37249Y36723D01*
X37314Y36766D01*
X37385Y36796D01*
X37461Y36811D01*
X37500Y36811D01*
X37765Y36811D01*
X37812Y36811D01*
X37812Y36811D01*
X37812Y36811D01*
X37868Y36812D01*
X37980Y36823D01*
X38091Y36845D01*
X38199Y36878D01*
X38303Y36921D01*
X38402Y36974D01*
X38423Y36988D01*
X38431D01*
Y36994D01*
X38496Y37037D01*
X38583Y37108D01*
X38623Y37147D01*
X38787Y37310D01*
X38855Y37379D01*
X39016Y37486D01*
X39195Y37561D01*
X39386Y37598D01*
X39482Y37598D01*
X41488Y37598D01*
X41535Y37598D01*
X41535Y37598D01*
X41535Y37598D01*
X41593Y37601D01*
X41707Y37624D01*
X41814Y37668D01*
X41910Y37732D01*
X41992Y37814D01*
X42056Y37911D01*
X42101Y38018D01*
X42123Y38131D01*
X42126Y38189D01*
X42126Y40232D01*
X42126D01*
X42126Y40232D01*
X42124Y40328D01*
X42105Y40519D01*
X42067Y40708D01*
X42012Y40892D01*
X41938Y41069D01*
X41847Y41239D01*
X41741Y41399D01*
X41619Y41547D01*
X41552Y41617D01*
X41240Y41929D01*
X40887Y42282D01*
X40887D01*
X40831Y42339D01*
X40742Y42471D01*
X40681Y42619D01*
X40650Y42776D01*
X40650Y42856D01*
X40650Y43307D01*
X40650Y43307D01*
X40653Y43355D01*
X40661Y43393D01*
X40683Y43447D01*
X40716Y43495D01*
X40757Y43536D01*
X40805Y43569D01*
X40859Y43591D01*
X40916Y43602D01*
X40945Y43602D01*
X43307Y43602D01*
X43307Y43602D01*
D02*
G37*
G36*
X20079Y43406D02*
X20118Y43406D01*
X20194Y43390D01*
X20265Y43361D01*
X20330Y43318D01*
X20385Y43263D01*
X20428Y43198D01*
X20457Y43127D01*
X20471Y43059D01*
X20472Y43012D01*
Y43012D01*
X20472Y43012D01*
X20472Y43012D01*
X20472Y40650D01*
Y38583D01*
X20475Y38525D01*
X20498Y38411D01*
X20542Y38304D01*
X20606Y38208D01*
X20688Y38126D01*
X20785Y38062D01*
X20892Y38018D01*
X21005Y37995D01*
X21063Y37992D01*
X22933Y37992D01*
X22952Y37994D01*
X22988Y38009D01*
X23015Y38036D01*
X23030Y38071D01*
X23031Y38091D01*
X23031Y38091D01*
X23031Y38130D01*
X23061Y38202D01*
X23117Y38257D01*
X23189Y38287D01*
X23228Y38287D01*
X23228Y38287D01*
X24606Y38287D01*
X24646Y38287D01*
X24718Y38257D01*
X24773Y38202D01*
X24800Y38138D01*
X24803Y38091D01*
Y38090D01*
X24803Y38090D01*
X24803Y38090D01*
X24803Y37205D01*
X24803Y37166D01*
X24773Y37093D01*
X24718Y37038D01*
X24655Y37012D01*
X24606Y37008D01*
X24556Y37008D01*
X23819Y37008D01*
X23523Y37008D01*
X23485Y37006D01*
X23409Y36991D01*
X23338Y36961D01*
X23274Y36919D01*
X23219Y36864D01*
X23176Y36800D01*
X23147Y36728D01*
X23133Y36661D01*
X23132Y36653D01*
X23130Y36614D01*
X23130Y36614D01*
X23130Y36614D01*
X23130Y36614D01*
X23130Y36566D01*
X23111Y36471D01*
X23074Y36381D01*
X23020Y36300D01*
X22952Y36232D01*
X22871Y36178D01*
X22781Y36141D01*
X22686Y36122D01*
X22638Y36122D01*
X20276Y36122D01*
X20237Y36120D01*
X20161Y36105D01*
X20090Y36076D01*
X20026Y36033D01*
X19971Y35978D01*
X19928Y35914D01*
X19899Y35843D01*
X19886Y35777D01*
X19884Y35767D01*
X19882Y35728D01*
X19882Y35728D01*
X19882Y35728D01*
X19882Y30610D01*
X19882Y30571D01*
X19867Y30495D01*
X19837Y30424D01*
X19794Y30359D01*
X19739Y30304D01*
X19675Y30261D01*
X19603Y30232D01*
X19537Y30219D01*
X19488Y30217D01*
Y30217D01*
X18701Y30217D01*
X18662Y30217D01*
X18586Y30232D01*
X18514Y30261D01*
X18450Y30304D01*
X18395Y30359D01*
X18352Y30424D01*
X18322Y30495D01*
X18307Y30571D01*
X18307Y30610D01*
X18307Y35531D01*
X9252D01*
X9194Y35529D01*
X9081Y35506D01*
X8974Y35462D01*
X8877Y35397D01*
X8795Y35316D01*
X8731Y35219D01*
X8687Y35112D01*
X8664Y34999D01*
X8661Y34941D01*
X8661Y34941D01*
X8661Y34941D01*
X8661Y31201D01*
X8661Y31162D01*
X8646Y31086D01*
X8617Y31014D01*
X8574Y30950D01*
X8519Y30895D01*
X8454Y30852D01*
X8383Y30822D01*
X8317Y30809D01*
X8268Y30807D01*
Y30807D01*
X7283Y30807D01*
X7245Y30807D01*
X7169Y30822D01*
X7097Y30852D01*
X7032Y30895D01*
X6978Y30950D01*
X6935Y31014D01*
X6905Y31086D01*
X6890Y31162D01*
X6890Y31201D01*
Y35138D01*
X6888Y35176D01*
X6873Y35252D01*
X6843Y35323D01*
X6800Y35388D01*
X6746Y35442D01*
X6682Y35485D01*
X6610Y35515D01*
X6542Y35528D01*
X6535Y35530D01*
X6496Y35531D01*
X6496Y35531D01*
X6496Y35531D01*
X6496Y35531D01*
X6496D01*
X6450Y35534D01*
X6385Y35561D01*
X6329Y35617D01*
X6299Y35689D01*
Y35728D01*
X6299Y39272D01*
X6299Y39330D01*
X6322Y39444D01*
X6366Y39551D01*
X6431Y39648D01*
X6513Y39730D01*
X6610Y39795D01*
X6718Y39840D01*
X6832Y39862D01*
X6890Y39862D01*
Y39862D01*
X16535Y39862D01*
X16593Y39865D01*
X16707Y39888D01*
X16814Y39932D01*
X16910Y39996D01*
X16992Y40078D01*
X17056Y40174D01*
X17101Y40281D01*
X17123Y40395D01*
X17126Y40453D01*
X17126Y40453D01*
X17126Y40846D01*
X17126Y41240D01*
X17126Y43012D01*
X17126Y43051D01*
X17141Y43127D01*
X17171Y43198D01*
X17214Y43263D01*
X17269Y43318D01*
X17333Y43361D01*
X17405Y43390D01*
X17481Y43406D01*
X17520Y43406D01*
X17520Y43406D01*
X20079Y43406D01*
D02*
G37*
G36*
X43549Y18091D02*
X43639Y18054D01*
X43719Y18000D01*
X43788Y17932D01*
X43842Y17851D01*
X43879Y17762D01*
X43898Y17667D01*
X43898Y17618D01*
X43898Y17618D01*
X43898Y17618D01*
X43898Y6594D01*
X43898Y6527D01*
X43871Y6394D01*
X43819Y6268D01*
X43744Y6155D01*
X43648Y6059D01*
X43535Y5984D01*
X43410Y5932D01*
X43277Y5906D01*
X43209Y5906D01*
X43209Y5906D01*
X43209Y5906D01*
X37205Y5906D01*
X37166Y5906D01*
X37090Y5921D01*
X37018Y5950D01*
X36954Y5993D01*
X36899Y6048D01*
X36856Y6113D01*
X36826Y6184D01*
X36811Y6260D01*
X36811Y6299D01*
Y7814D01*
X36826Y7890D01*
X36856Y7962D01*
X36899Y8027D01*
X36954Y8081D01*
X37018Y8124D01*
X37090Y8154D01*
X37166Y8169D01*
X37205D01*
X37205Y8169D01*
X40846Y8169D01*
X40914Y8173D01*
X41046Y8199D01*
X41171Y8251D01*
X41284Y8326D01*
X41379Y8421D01*
X41454Y8533D01*
X41506Y8658D01*
X41532Y8791D01*
X41535Y8858D01*
X41535Y8858D01*
X41535Y17618D01*
X41535Y17667D01*
X41554Y17762D01*
X41591Y17851D01*
X41645Y17932D01*
X41714Y18000D01*
X41794Y18054D01*
X41884Y18091D01*
X41979Y18110D01*
X42028Y18110D01*
X42028Y18110D01*
X43406Y18110D01*
X43454Y18110D01*
X43549Y18091D01*
D02*
G37*
G36*
X20374Y14075D02*
X20432D01*
X20546Y14052D01*
X20654Y14008D01*
X20750Y13943D01*
X20833Y13861D01*
X20897Y13764D01*
X20942Y13657D01*
X20965Y13542D01*
Y13484D01*
X20965Y8858D01*
X20965D01*
X20967Y8800D01*
X20990Y8687D01*
X21034Y8580D01*
X21099Y8484D01*
X21180Y8402D01*
X21277Y8337D01*
X21384Y8293D01*
X21497Y8271D01*
X21555Y8268D01*
X24803Y8268D01*
X24803Y8268D01*
X24803Y8268D01*
X24861Y8268D01*
X24975Y8245D01*
X25083Y8201D01*
X25180Y8136D01*
X25262Y8054D01*
X25326Y7957D01*
X25371Y7849D01*
X25394Y7735D01*
Y7677D01*
X25394Y6299D01*
X25394Y6299D01*
X25394Y6251D01*
X25375Y6156D01*
X25338Y6066D01*
X25284Y5986D01*
X25215Y5917D01*
X25135Y5863D01*
X25045Y5826D01*
X24950Y5807D01*
X24902Y5807D01*
X18701Y5807D01*
X18643Y5807D01*
X18529Y5830D01*
X18421Y5874D01*
X18324Y5939D01*
X18242Y6021D01*
X18177Y6118D01*
X18133Y6225D01*
X18110Y6339D01*
Y6398D01*
X18110Y13484D01*
X18110Y13484D01*
X18110Y13484D01*
X18110Y13542D01*
X18133Y13657D01*
X18177Y13764D01*
X18242Y13861D01*
X18324Y13943D01*
X18421Y14008D01*
X18529Y14052D01*
X18643Y14075D01*
X18701Y14075D01*
X20374Y14075D01*
Y14075D01*
D02*
G37*
G36*
X24803Y19980D02*
X24852Y19980D01*
X24947Y19961D01*
X25036Y19924D01*
X25117Y19870D01*
X25185Y19802D01*
X25239Y19721D01*
X25276Y19632D01*
X25295Y19537D01*
X25295Y19488D01*
X25295D01*
X25295Y19488D01*
X25295Y14665D01*
X25295Y14607D01*
X25273Y14493D01*
X25228Y14386D01*
X25163Y14289D01*
X25081Y14207D01*
X24984Y14142D01*
X24877Y14097D01*
X24763Y14075D01*
X24705Y14075D01*
X24409Y14075D01*
X24351Y14075D01*
X24237Y14097D01*
X24130Y14142D01*
X24033Y14207D01*
X23951Y14289D01*
X23886Y14386D01*
X23842Y14493D01*
X23819Y14607D01*
X23819Y14665D01*
X23819Y19587D01*
Y19625D01*
X23834Y19701D01*
X23864Y19773D01*
X23907Y19838D01*
X23962Y19892D01*
X24026Y19935D01*
X24098Y19965D01*
X24174Y19980D01*
X24213Y19980D01*
X24213Y19980D01*
X24803Y19980D01*
D02*
G37*
G36*
X29306Y36099D02*
X29414Y36055D01*
X29510Y35990D01*
X29593Y35908D01*
X29657Y35811D01*
X29702Y35704D01*
X29724Y35590D01*
X29724Y35531D01*
X29724D01*
X29724Y35531D01*
X29724Y20768D01*
X29724Y3543D01*
X29724Y3485D01*
X29702Y3371D01*
X29657Y3263D01*
X29593Y3167D01*
X29510Y3084D01*
X29414Y3020D01*
X29306Y2975D01*
X29192Y2953D01*
X29134Y2953D01*
X25886Y2953D01*
X12598Y2953D01*
X12540D01*
X12426Y2975D01*
X12319Y3020D01*
X12222Y3085D01*
X12140Y3167D01*
X12075Y3264D01*
X12031Y3371D01*
X12008Y3485D01*
X12008Y3543D01*
Y13386D01*
Y13444D01*
X12031Y13558D01*
X12075Y13666D01*
X12140Y13762D01*
X12222Y13845D01*
X12319Y13909D01*
X12426Y13954D01*
X12540Y13976D01*
X12598D01*
X12598Y13976D01*
X16143Y13976D01*
X16182Y13973D01*
X16182Y13973D01*
X16182Y13973D01*
X16240Y13973D01*
X16514D01*
X16609Y13954D01*
X16717Y13909D01*
X16813Y13845D01*
X16896Y13762D01*
X16960Y13666D01*
X17005Y13558D01*
X17028Y13444D01*
X17028Y13386D01*
X17028D01*
X17028Y13386D01*
Y5906D01*
X17030Y5848D01*
X17053Y5734D01*
X17097Y5627D01*
X17162Y5531D01*
X17243Y5449D01*
X17340Y5385D01*
X17447Y5340D01*
X17560Y5318D01*
X17618Y5315D01*
X17618Y5315D01*
X25295Y5315D01*
X25353Y5318D01*
X25467Y5340D01*
X25574Y5385D01*
X25670Y5449D01*
X25752Y5531D01*
X25816Y5627D01*
X25860Y5734D01*
X25883Y5848D01*
X25886Y5906D01*
X25886Y5906D01*
X25886Y20177D01*
X25883Y20235D01*
X25860Y20349D01*
X25816Y20456D01*
X25752Y20552D01*
X25670Y20634D01*
X25574Y20698D01*
X25467Y20742D01*
X25353Y20765D01*
X25295Y20768D01*
X25295Y20768D01*
X25295Y20768D01*
X22636Y20768D01*
X22597Y20772D01*
X22597Y20772D01*
X22597Y20772D01*
X22540Y20772D01*
X22540Y20772D01*
X22540Y20772D01*
X22539Y20772D01*
X22539Y20772D01*
X21281Y20772D01*
X21186Y20790D01*
X21079Y20835D01*
X20982Y20900D01*
X20900Y20982D01*
X20835Y21078D01*
X20790Y21186D01*
X20768Y21300D01*
X20768Y21358D01*
Y22047D01*
X20768Y22105D01*
X20790Y22219D01*
X20835Y22327D01*
X20900Y22424D01*
X20982Y22506D01*
X21079Y22571D01*
X21186Y22615D01*
X21300Y22638D01*
X21358Y22638D01*
X21358Y22638D01*
X22736Y22638D01*
X22794Y22641D01*
X22908Y22663D01*
X22918Y22667D01*
X22953D01*
Y22682D01*
X23015Y22708D01*
X23111Y22772D01*
X23193Y22854D01*
X23257Y22950D01*
X23301Y23057D01*
X23324Y23170D01*
X23327Y23228D01*
X23327Y23228D01*
X23327Y25394D01*
X23327Y25452D01*
X23349Y25566D01*
X23394Y25673D01*
X23459Y25770D01*
X23541Y25852D01*
X23638Y25917D01*
X23745Y25962D01*
X23859Y25984D01*
X23917Y25984D01*
X23917Y25984D01*
X25295Y25984D01*
X25353Y25987D01*
X25467Y26010D01*
X25574Y26054D01*
X25670Y26118D01*
X25752Y26200D01*
X25816Y26296D01*
X25860Y26403D01*
X25883Y26517D01*
X25886Y26575D01*
X25886Y26575D01*
X25886Y31693D01*
X25883Y31751D01*
X25861Y31864D01*
X25816Y31971D01*
X25752Y32068D01*
X25670Y32150D01*
X25574Y32214D01*
X25467Y32258D01*
X25353Y32281D01*
X25295Y32283D01*
X25295Y32283D01*
X25295Y32283D01*
X21161Y32283D01*
X21113Y32283D01*
X21018Y32302D01*
X20928Y32339D01*
X20848Y32393D01*
X20779Y32462D01*
X20725Y32542D01*
X20688Y32632D01*
X20673Y32708D01*
X20673Y34812D01*
X20688Y34888D01*
X20725Y34977D01*
X20779Y35058D01*
X20848Y35126D01*
X20928Y35180D01*
X21018Y35217D01*
X21113Y35236D01*
X21161D01*
X21161Y35236D01*
X23524Y35236D01*
X23572Y35239D01*
X23667Y35257D01*
X23756Y35294D01*
X23836Y35348D01*
X23904Y35416D01*
X23958Y35496D01*
X23995Y35585D01*
X24013Y35680D01*
X24016Y35728D01*
X24016Y35728D01*
X24016Y35767D01*
X24031Y35843D01*
X24061Y35915D01*
X24104Y35979D01*
X24158Y36034D01*
X24223Y36077D01*
X24295Y36107D01*
X24371Y36122D01*
X24409Y36122D01*
X24409Y36122D01*
X29134Y36122D01*
X29192Y36122D01*
X29306Y36099D01*
D02*
G37*
G36*
X38123Y24084D02*
X38267Y24025D01*
X38396Y23938D01*
X38505Y23829D01*
X38591Y23700D01*
X38651Y23556D01*
X38681Y23404D01*
X38681Y23327D01*
X38681Y22835D01*
X38681Y22835D01*
Y22757D01*
X38651Y22605D01*
X38591Y22462D01*
X38505Y22333D01*
X38396Y22223D01*
X38267Y22137D01*
X38123Y22078D01*
X37971Y22047D01*
X35630D01*
X35552Y22047D01*
X35400Y22078D01*
X35257Y22137D01*
X35128Y22223D01*
X35018Y22333D01*
X34932Y22462D01*
X34873Y22605D01*
X34843Y22757D01*
X34843Y22835D01*
Y23327D01*
X34843Y23404D01*
X34873Y23556D01*
X34932Y23700D01*
X35018Y23829D01*
X35128Y23938D01*
X35257Y24025D01*
X35400Y24084D01*
X35552Y24114D01*
X35630Y24114D01*
X37894Y24114D01*
X37894Y24114D01*
X37894Y24114D01*
X37971Y24114D01*
X38123Y24084D01*
D02*
G37*
G36*
X56594Y71949D02*
X56653Y71949D01*
X56767Y71926D01*
X56874Y71882D01*
X56971Y71817D01*
X57053Y71735D01*
X57118Y71638D01*
X57162Y71531D01*
X57185Y71416D01*
X57185Y71358D01*
X57185Y71358D01*
X57185Y71358D01*
X57185Y66535D01*
X57185Y66477D01*
X57162Y66363D01*
X57118Y66256D01*
X57053Y66159D01*
X56971Y66077D01*
X56874Y66012D01*
X56767Y65968D01*
X56653Y65945D01*
X56594Y65945D01*
X56594Y65945D01*
X56594Y65945D01*
X52756Y65945D01*
X52698Y65945D01*
X52584Y65968D01*
X52476Y66012D01*
X52379Y66077D01*
X52297Y66159D01*
X52233Y66256D01*
X52188Y66363D01*
X52165Y66477D01*
Y66535D01*
X52165Y66535D01*
X52165Y71358D01*
Y71416D01*
X52188Y71531D01*
X52233Y71638D01*
X52297Y71735D01*
X52379Y71817D01*
X52476Y71882D01*
X52584Y71926D01*
X52698Y71949D01*
X52756D01*
X52756Y71949D01*
X56594Y71949D01*
D02*
G37*
G36*
X47244Y67224D02*
X50886D01*
X50886Y67224D01*
X50886Y67224D01*
X50944Y67224D01*
X51058Y67202D01*
X51166Y67157D01*
X51262Y67093D01*
X51345Y67010D01*
X51409Y66914D01*
X51454Y66806D01*
X51476Y66692D01*
X51476Y66634D01*
X51476Y62894D01*
X51476D01*
X51476Y62836D01*
X51454Y62721D01*
X51409Y62614D01*
X51345Y62517D01*
X51262Y62435D01*
X51166Y62370D01*
X51058Y62326D01*
X50944Y62303D01*
X50886Y62303D01*
X47244Y62303D01*
X47186D01*
X47072Y62326D01*
X46964Y62370D01*
X46868Y62435D01*
X46785Y62517D01*
X46721Y62614D01*
X46676Y62721D01*
X46654Y62836D01*
Y62894D01*
X46654Y66587D01*
X46654Y66634D01*
X46654Y66634D01*
X46654Y66634D01*
X46654Y66692D01*
X46676Y66806D01*
X46721Y66914D01*
X46785Y67010D01*
X46868Y67093D01*
X46964Y67157D01*
X47072Y67202D01*
X47186Y67224D01*
X47244Y67224D01*
D02*
G37*
G36*
X2165Y77067D02*
X7185Y77067D01*
X7185Y77067D01*
X7185Y77067D01*
X7243Y77067D01*
X7357Y77044D01*
X7465Y77000D01*
X7561Y76935D01*
X7644Y76853D01*
X7708Y76756D01*
X7753Y76649D01*
X7776Y76535D01*
X7776Y76476D01*
X7776Y70866D01*
X7776Y70866D01*
X7776Y70808D01*
X7753Y70694D01*
X7708Y70586D01*
X7644Y70490D01*
X7561Y70407D01*
X7465Y70343D01*
X7357Y70298D01*
X7243Y70276D01*
X7185D01*
X2165Y70276D01*
X2165Y70276D01*
X2107Y70276D01*
X1993Y70298D01*
X1886Y70343D01*
X1789Y70407D01*
X1707Y70490D01*
X1642Y70586D01*
X1597Y70694D01*
X1575Y70808D01*
Y70866D01*
X1575Y76429D01*
X1575Y76476D01*
X1575Y76476D01*
X1575Y76476D01*
X1575Y76535D01*
X1597Y76649D01*
X1642Y76756D01*
X1707Y76853D01*
X1789Y76935D01*
X1886Y77000D01*
X1993Y77044D01*
X2107Y77067D01*
X2165Y77067D01*
D02*
G37*
G36*
X39764Y81201D02*
X40157Y81201D01*
X40354Y81201D01*
X51771Y81201D01*
X51771Y81200D01*
X51771Y81200D01*
X51830Y81201D01*
X51944Y81178D01*
X52051Y81134D01*
X52148Y81069D01*
X52230Y80987D01*
X52295Y80890D01*
X52340Y80783D01*
X52362Y80668D01*
X52362Y80610D01*
X52362Y74508D01*
X52362Y74508D01*
Y74449D01*
X52339Y74335D01*
X52295Y74228D01*
X52230Y74131D01*
X52148Y74049D01*
X52051Y73985D01*
X51944Y73940D01*
X51830Y73917D01*
X51772D01*
X46260Y73917D01*
X46260Y73917D01*
X46202Y73914D01*
X46088Y73892D01*
X45981Y73847D01*
X45885Y73783D01*
X45803Y73701D01*
X45739Y73605D01*
X45695Y73498D01*
X45672Y73385D01*
X45669Y73327D01*
X45669Y61909D01*
X45672Y61851D01*
X45695Y61738D01*
X45739Y61631D01*
X45803Y61535D01*
X45885Y61453D01*
X45981Y61388D01*
X46088Y61344D01*
X46202Y61322D01*
X46260Y61319D01*
X52214Y61319D01*
X52264Y61319D01*
X52264Y61319D01*
Y61319D01*
X52312Y61321D01*
X52407Y61340D01*
X52496Y61377D01*
X52576Y61430D01*
X52644Y61499D01*
X52698Y61579D01*
X52735Y61668D01*
X52754Y61763D01*
X52756Y61811D01*
X52756Y62157D01*
X52756Y62204D01*
X52756Y62204D01*
X52756Y62205D01*
X52756Y62205D01*
X52756Y62253D01*
X52775Y62348D01*
X52812Y62438D01*
X52866Y62518D01*
X52934Y62587D01*
X53015Y62641D01*
X53104Y62678D01*
X53200Y62697D01*
X53248Y62697D01*
X56594Y62697D01*
X56594Y62697D01*
X56594Y62697D01*
X56652Y62697D01*
X56767Y62674D01*
X56874Y62630D01*
X56971Y62565D01*
X57053Y62483D01*
X57118Y62386D01*
X57162Y62279D01*
X57185Y62164D01*
X57185Y62106D01*
X57185Y61319D01*
X57185Y55315D01*
X57185Y55315D01*
Y55257D01*
X57162Y55142D01*
X57118Y55035D01*
X57053Y54938D01*
X56971Y54856D01*
X56874Y54792D01*
X56767Y54747D01*
X56653Y54724D01*
X56594D01*
X51772Y54724D01*
X51771Y54724D01*
X51713Y54721D01*
X51600Y54699D01*
X51493Y54654D01*
X51397Y54590D01*
X51315Y54508D01*
X51251Y54412D01*
X51207Y54305D01*
X51184Y54192D01*
X51181Y54134D01*
X51181Y48031D01*
X51185Y47954D01*
X51215Y47803D01*
X51274Y47660D01*
X51360Y47532D01*
X51469Y47423D01*
X51597Y47337D01*
X51740Y47278D01*
X51891Y47248D01*
X51969Y47244D01*
X60826Y47244D01*
X60827Y47244D01*
X60827Y47244D01*
X60885Y47244D01*
X60999Y47221D01*
X61106Y47177D01*
X61203Y47112D01*
X61285Y47030D01*
X61350Y46933D01*
X61395Y46826D01*
X61417Y46712D01*
X61417Y46654D01*
X61417Y20965D01*
X61417Y20964D01*
Y20896D01*
X61391Y20763D01*
X61339Y20638D01*
X61263Y20525D01*
X61167Y20429D01*
X61055Y20354D01*
X60929Y20302D01*
X60796Y20276D01*
X60728D01*
X48819Y20276D01*
X48819Y20275D01*
X48770Y20273D01*
X48676Y20254D01*
X48587Y20217D01*
X48507Y20164D01*
X48438Y20095D01*
X48385Y20015D01*
X48348Y19926D01*
X48329Y19832D01*
X48327Y19783D01*
X48327Y15945D01*
X48326Y15945D01*
X48326Y15896D01*
X48308Y15801D01*
X48271Y15712D01*
X48217Y15631D01*
X48148Y15563D01*
X48068Y15509D01*
X47978Y15472D01*
X47883Y15453D01*
X47835Y15453D01*
X45177Y15453D01*
X45177Y15453D01*
X45148Y15453D01*
X45091Y15464D01*
X45037Y15486D01*
X44989Y15519D01*
X44948Y15560D01*
X44915Y15608D01*
X44893Y15662D01*
X44882Y15719D01*
X44882Y15748D01*
X44882Y17568D01*
X44882Y17618D01*
X44883Y17638D01*
X44886Y17667D01*
X44893Y17704D01*
X44915Y17758D01*
X44948Y17806D01*
X44989Y17848D01*
X45037Y17880D01*
X45091Y17902D01*
X45148Y17913D01*
X45177Y17913D01*
X45718Y17913D01*
X45718Y17913D01*
X45768Y17913D01*
Y17913D01*
X45825Y17916D01*
X45939Y17939D01*
X46046Y17983D01*
X46142Y18047D01*
X46224Y18129D01*
X46289Y18225D01*
X46333Y18332D01*
X46355Y18446D01*
X46358Y18504D01*
X46358Y20965D01*
X46358Y20965D01*
X46358Y20965D01*
X46355Y21022D01*
X46333Y21136D01*
X46288Y21243D01*
X46224Y21339D01*
X46142Y21421D01*
X46046Y21485D01*
X45939Y21530D01*
X45826Y21552D01*
X45768Y21555D01*
X43110Y21555D01*
X43053Y21555D01*
X42941Y21571D01*
X42833Y21603D01*
X42730Y21651D01*
X42635Y21712D01*
X42549Y21787D01*
X42476Y21873D01*
X42415Y21969D01*
X42392Y22021D01*
X42392D01*
X42391Y22021D01*
X42370Y22068D01*
X42323Y22162D01*
X42274Y22254D01*
X42220Y22344D01*
X42192Y22388D01*
X42192D01*
X42192Y22388D01*
X42157Y22438D01*
X42079Y22531D01*
X41990Y22614D01*
X41891Y22685D01*
X41784Y22743D01*
X41670Y22788D01*
X41552Y22818D01*
X41431Y22833D01*
X41370Y22835D01*
X40059Y22835D01*
X40059Y22835D01*
X39991Y22835D01*
X39858Y22861D01*
X39732Y22913D01*
X39620Y22989D01*
X39524Y23084D01*
X39448Y23197D01*
X39396Y23323D01*
X39370Y23456D01*
X39370Y23524D01*
Y24409D01*
X39370Y24409D01*
X39370Y24409D01*
X39367Y24457D01*
X39349Y24552D01*
X39312Y24641D01*
X39258Y24721D01*
X39190Y24790D01*
X39110Y24843D01*
X39021Y24880D01*
X38926Y24899D01*
X38878Y24902D01*
X35039Y24902D01*
X35010Y24902D01*
X34953Y24913D01*
X34900Y24935D01*
X34851Y24967D01*
X34810Y25009D01*
X34778Y25057D01*
X34755Y25111D01*
X34744Y25168D01*
X34744Y25984D01*
X34744Y25984D01*
X34748Y26033D01*
X34755Y26070D01*
X34778Y26124D01*
X34810Y26172D01*
X34851Y26214D01*
X34899Y26246D01*
X34953Y26268D01*
X35010Y26280D01*
X35039Y26280D01*
X40994Y26280D01*
X40994Y26280D01*
X41043Y26280D01*
Y26280D01*
X41120Y26283D01*
X41272Y26313D01*
X41414Y26372D01*
X41543Y26458D01*
X41652Y26567D01*
X41738Y26696D01*
X41797Y26838D01*
X41827Y26990D01*
X41831Y27067D01*
X41831Y28543D01*
X41831D01*
X41831Y28543D01*
X41835Y28592D01*
X41842Y28629D01*
X41864Y28683D01*
X41896Y28732D01*
X41938Y28773D01*
X41986Y28805D01*
X42040Y28827D01*
X42097Y28839D01*
X42126Y28839D01*
X43110D01*
X43110Y28838D01*
X43110Y28838D01*
X43115Y28838D01*
X43157Y28835D01*
X43196Y28827D01*
X43250Y28805D01*
X43298Y28773D01*
X43340Y28732D01*
X43372Y28683D01*
X43394Y28629D01*
X43406Y28572D01*
X43406Y28543D01*
Y27067D01*
X43410Y26945D01*
X43441Y26702D01*
X43505Y26466D01*
X43598Y26240D01*
X43721Y26028D01*
X43870Y25834D01*
X44043Y25661D01*
X44237Y25512D01*
X44448Y25390D01*
X44674Y25296D01*
X44778Y25268D01*
X44853Y25246D01*
X44869Y25244D01*
X44911Y25233D01*
X45153Y25201D01*
X45276Y25197D01*
X52213Y25197D01*
X52263Y25197D01*
X52264Y25197D01*
Y25197D01*
X52321Y25200D01*
X52435Y25222D01*
X52542Y25266D01*
X52638Y25331D01*
X52720Y25413D01*
X52785Y25509D01*
X52829Y25616D01*
X52852Y25730D01*
X52854Y25787D01*
X52854Y28690D01*
X52854Y28740D01*
X52856Y28760D01*
X52858Y28789D01*
X52866Y28826D01*
X52888Y28880D01*
X52920Y28928D01*
X52961Y28970D01*
X53010Y29002D01*
X53063Y29024D01*
X53120Y29035D01*
X53150Y29035D01*
X54330Y29035D01*
X54330Y29035D01*
X54330Y29035D01*
X54335Y29035D01*
X54377Y29032D01*
X54417Y29024D01*
X54470Y29002D01*
X54519Y28969D01*
X54560Y28928D01*
X54592Y28880D01*
X54615Y28826D01*
X54626Y28769D01*
X54626Y28740D01*
X54626Y25787D01*
X54626Y25787D01*
X54629Y25729D01*
X54651Y25616D01*
X54696Y25509D01*
X54760Y25412D01*
X54842Y25331D01*
X54938Y25266D01*
X55045Y25222D01*
X55159Y25200D01*
X55217Y25197D01*
X55560Y25197D01*
X55610Y25197D01*
X55610Y25197D01*
Y25197D01*
X55668Y25200D01*
X55781Y25222D01*
X55889Y25266D01*
X55985Y25331D01*
X56067Y25413D01*
X56131Y25509D01*
X56175Y25616D01*
X56198Y25729D01*
X56201Y25787D01*
X56201Y40551D01*
X56201Y40551D01*
X56200Y40551D01*
X56198Y40609D01*
X56175Y40722D01*
X56131Y40829D01*
X56067Y40926D01*
X55985Y41008D01*
X55889Y41072D01*
X55782Y41116D01*
X55668Y41139D01*
X55610Y41142D01*
X47539Y41142D01*
X47404D01*
X47134Y41168D01*
X46869Y41221D01*
X46610Y41300D01*
X46360Y41403D01*
X46121Y41531D01*
X45896Y41681D01*
X45686Y41853D01*
X45495Y42045D01*
X45323Y42254D01*
X45173Y42479D01*
X45045Y42718D01*
X44941Y42968D01*
X44863Y43227D01*
X44810Y43493D01*
X44783Y43762D01*
Y43898D01*
X44783Y54134D01*
X44783Y54134D01*
X44783Y54134D01*
X44780Y54191D01*
X44758Y54305D01*
X44714Y54412D01*
X44649Y54508D01*
X44568Y54590D01*
X44471Y54655D01*
X44364Y54699D01*
X44251Y54722D01*
X44193Y54724D01*
X40354Y54724D01*
X39764Y54724D01*
X39706Y54724D01*
X39592Y54747D01*
X39484Y54792D01*
X39387Y54856D01*
X39305Y54938D01*
X39240Y55035D01*
X39196Y55143D01*
X39173Y55257D01*
X39173Y55315D01*
X39173Y64665D01*
X39173D01*
X39173Y64665D01*
X39170Y64723D01*
X39148Y64837D01*
X39104Y64944D01*
X39039Y65040D01*
X38957Y65122D01*
X38861Y65186D01*
X38754Y65230D01*
X38641Y65253D01*
X38583Y65256D01*
X21850Y65256D01*
X21850Y65256D01*
X21793Y65253D01*
X21679Y65230D01*
X21572Y65186D01*
X21476Y65122D01*
X21394Y65040D01*
X21330Y64944D01*
X21285Y64837D01*
X21263Y64723D01*
X21260Y64665D01*
X21260Y51575D01*
X21260Y51575D01*
Y51517D01*
X21237Y51403D01*
X21193Y51295D01*
X21128Y51198D01*
X21046Y51116D01*
X20949Y51051D01*
X20842Y51007D01*
X20727Y50984D01*
X20669D01*
X16240Y50984D01*
X16240Y50984D01*
X16182Y50981D01*
X16069Y50959D01*
X15962Y50915D01*
X15866Y50850D01*
X15784Y50768D01*
X15719Y50672D01*
X15675Y50565D01*
X15652Y50452D01*
X15650Y50394D01*
X15650Y41732D01*
X15650Y41339D01*
X15650Y41339D01*
Y41280D01*
X15627Y41166D01*
X15582Y41059D01*
X15518Y40962D01*
X15436Y40880D01*
X15339Y40815D01*
X15231Y40771D01*
X15117Y40748D01*
X15059Y40748D01*
X6004Y40748D01*
X6004Y40748D01*
X5946Y40745D01*
X5832Y40723D01*
X5726Y40678D01*
X5629Y40614D01*
X5547Y40532D01*
X5483Y40436D01*
X5439Y40329D01*
X5416Y40215D01*
X5413Y40157D01*
X5413Y25787D01*
X5416Y25730D01*
X5439Y25616D01*
X5483Y25509D01*
X5547Y25413D01*
X5629Y25331D01*
X5726Y25267D01*
X5832Y25222D01*
X5946Y25200D01*
X6004Y25197D01*
X6299Y25197D01*
X6357Y25200D01*
X6471Y25222D01*
X6578Y25266D01*
X6674Y25331D01*
X6756Y25413D01*
X6820Y25509D01*
X6864Y25616D01*
X6887Y25730D01*
X6890Y25787D01*
X6890Y29528D01*
X6890Y29528D01*
X6892Y29577D01*
X6905Y29642D01*
X6934Y29714D01*
X6978Y29779D01*
X7032Y29833D01*
X7097Y29877D01*
X7169Y29906D01*
X7245Y29921D01*
X7283Y29921D01*
X8268Y29921D01*
X8268Y29921D01*
X8268Y29921D01*
X8268D01*
X8314Y29920D01*
X8383Y29906D01*
X8454Y29877D01*
X8519Y29833D01*
X8574Y29779D01*
X8617Y29714D01*
X8646Y29642D01*
X8661Y29566D01*
X8661Y29528D01*
X8661Y25787D01*
X8664Y25730D01*
X8687Y25616D01*
X8731Y25509D01*
X8795Y25413D01*
X8877Y25331D01*
X8974Y25267D01*
X9081Y25222D01*
X9194Y25200D01*
X9252Y25197D01*
X17717Y25197D01*
X17774Y25200D01*
X17888Y25222D01*
X17995Y25266D01*
X18091Y25331D01*
X18173Y25413D01*
X18237Y25509D01*
X18282Y25616D01*
X18304Y25729D01*
X18307Y25787D01*
X18307Y28838D01*
X18307Y28838D01*
X18309Y28887D01*
X18322Y28953D01*
X18352Y29025D01*
X18395Y29090D01*
X18450Y29144D01*
X18514Y29188D01*
X18586Y29217D01*
X18662Y29232D01*
X18701Y29232D01*
X19488Y29232D01*
X19488Y29232D01*
X19488Y29232D01*
X19537Y29230D01*
X19603Y29217D01*
X19675Y29188D01*
X19739Y29144D01*
X19794Y29090D01*
X19837Y29025D01*
X19867Y28953D01*
X19882Y28877D01*
X19882Y28839D01*
X19882Y20669D01*
X19885Y20602D01*
X19912Y20469D01*
X19963Y20345D01*
X20038Y20232D01*
X20134Y20137D01*
X20246Y20062D01*
X20371Y20010D01*
X20503Y19984D01*
X20571Y19980D01*
X22539Y19980D01*
X22539Y19980D01*
X22539Y19980D01*
X22598Y19980D01*
X22712Y19958D01*
X22819Y19913D01*
X22916Y19849D01*
X22998Y19766D01*
X23063Y19670D01*
X23107Y19562D01*
X23130Y19448D01*
X23130Y19390D01*
X23130Y15256D01*
Y14764D01*
Y14370D01*
X23130Y14370D01*
X23130Y14331D01*
X23115Y14255D01*
X23085Y14184D01*
X23042Y14119D01*
X22987Y14064D01*
X22923Y14021D01*
X22851Y13992D01*
X22775Y13976D01*
X22736Y13976D01*
X22047Y13976D01*
X22008Y13976D01*
X21932Y13992D01*
X21861Y14021D01*
X21796Y14064D01*
X21741Y14119D01*
X21698Y14184D01*
X21669Y14255D01*
X21654Y14331D01*
X21654Y14370D01*
X21654D01*
X21652Y14409D01*
X21637Y14484D01*
X21607Y14556D01*
X21564Y14620D01*
X21510Y14674D01*
X21445Y14717D01*
X21374Y14747D01*
X21298Y14762D01*
X21260Y14764D01*
X16240Y14764D01*
X16182Y14764D01*
X16068Y14786D01*
X15960Y14831D01*
X15864Y14896D01*
X15781Y14978D01*
X15717Y15075D01*
X15672Y15182D01*
X15650Y15296D01*
X15650Y15354D01*
X15650Y17913D01*
X15650Y19685D01*
X15650Y19685D01*
X15650Y19685D01*
X15647Y19743D01*
X15624Y19856D01*
X15580Y19963D01*
X15516Y20060D01*
X15434Y20142D01*
X15337Y20206D01*
X15231Y20250D01*
X15117Y20273D01*
X15059Y20276D01*
X5413Y20276D01*
X1181Y20276D01*
X1123D01*
X1009Y20298D01*
X901Y20343D01*
X805Y20407D01*
X722Y20490D01*
X658Y20586D01*
X613Y20694D01*
X591Y20808D01*
X591Y20866D01*
X591Y44933D01*
X591Y44980D01*
X591Y44980D01*
X591Y44980D01*
X591Y45038D01*
X613Y45153D01*
X658Y45260D01*
X722Y45357D01*
X805Y45439D01*
X901Y45504D01*
X1009Y45548D01*
X1123Y45571D01*
X1181Y45571D01*
X8219Y45571D01*
X8268Y45571D01*
X8268Y45571D01*
X8326Y45574D01*
X8439Y45596D01*
X8546Y45641D01*
X8642Y45705D01*
X8724Y45787D01*
X8789Y45883D01*
X8833Y45990D01*
X8855Y46104D01*
X8858Y46161D01*
X8858Y46654D01*
X8858Y56941D01*
X8858Y56988D01*
X8858Y56988D01*
X8858Y56988D01*
X8858Y57046D01*
X8881Y57160D01*
X8925Y57268D01*
X8990Y57365D01*
X9072Y57447D01*
X9169Y57512D01*
X9277Y57556D01*
X9391Y57579D01*
X9449Y57579D01*
X14222Y57579D01*
X14223Y57579D01*
X14272Y57579D01*
Y57579D01*
X14330Y57582D01*
X14443Y57604D01*
X14550Y57648D01*
X14646Y57713D01*
X14728Y57795D01*
X14793Y57891D01*
X14837Y57998D01*
X14859Y58111D01*
X14862Y58169D01*
X14862Y64272D01*
X14862Y64862D01*
X14862Y64862D01*
X14862Y64862D01*
X14859Y64920D01*
X14837Y65034D01*
X14792Y65141D01*
X14728Y65237D01*
X14646Y65319D01*
X14550Y65383D01*
X14443Y65427D01*
X14330Y65450D01*
X14272Y65453D01*
X9252Y65453D01*
X9252Y65453D01*
X9194Y65453D01*
X9080Y65475D01*
X8972Y65520D01*
X8875Y65585D01*
X8793Y65667D01*
X8729Y65764D01*
X8684Y65871D01*
X8661Y65985D01*
X8661Y66043D01*
X8661Y66535D01*
X8661Y77362D01*
Y77420D01*
X8684Y77534D01*
X8729Y77642D01*
X8793Y77739D01*
X8876Y77821D01*
X8972Y77886D01*
X9080Y77930D01*
X9194Y77953D01*
X9252D01*
X20669Y77953D01*
X20669Y77953D01*
X20669Y77953D01*
X20727Y77953D01*
X20842Y77930D01*
X20949Y77886D01*
X21046Y77821D01*
X21128Y77739D01*
X21193Y77642D01*
X21237Y77534D01*
X21260Y77420D01*
X21260Y77362D01*
X21260Y72539D01*
X21260Y72539D01*
X21263Y72481D01*
X21285Y72368D01*
X21330Y72261D01*
X21394Y72165D01*
X21476Y72083D01*
X21572Y72019D01*
X21679Y71974D01*
X21793Y71952D01*
X21850Y71949D01*
X38533Y71949D01*
X38533Y71949D01*
X38583Y71949D01*
Y71949D01*
X38641Y71952D01*
X38754Y71974D01*
X38861Y72018D01*
X38957Y72083D01*
X39039Y72165D01*
X39104Y72261D01*
X39148Y72368D01*
X39170Y72481D01*
X39173Y72539D01*
Y76083D01*
X39173Y76083D01*
X39173Y76083D01*
X39170Y76140D01*
X39148Y76254D01*
X39103Y76361D01*
X39039Y76457D01*
X38957Y76539D01*
X38861Y76603D01*
X38754Y76648D01*
X38641Y76670D01*
X38583Y76673D01*
X36516Y76673D01*
X36516Y76673D01*
X36477D01*
X36401Y76688D01*
X36329Y76718D01*
X36265Y76761D01*
X36210Y76816D01*
X36167Y76880D01*
X36137Y76952D01*
X36122Y77028D01*
X36122Y77559D01*
X36122Y77559D01*
X36122Y77569D01*
X36124Y77608D01*
X36137Y77674D01*
X36167Y77746D01*
X36210Y77810D01*
X36265Y77865D01*
X36329Y77908D01*
X36401Y77938D01*
X36477Y77953D01*
X36516Y77953D01*
X38533Y77953D01*
X38533Y77953D01*
X38583Y77953D01*
Y77953D01*
X38641Y77956D01*
X38754Y77978D01*
X38861Y78022D01*
X38957Y78087D01*
X39039Y78169D01*
X39104Y78265D01*
X39148Y78372D01*
X39170Y78485D01*
X39173Y78543D01*
X39173Y80560D01*
X39173Y80610D01*
X39173Y80610D01*
X39173Y80668D01*
X39196Y80782D01*
X39240Y80890D01*
X39305Y80987D01*
X39387Y81069D01*
X39484Y81134D01*
X39591Y81178D01*
X39706Y81201D01*
X39764Y81201D01*
D02*
G37*
G36*
X53839Y79724D02*
X58563Y79724D01*
X58563Y79724D01*
X58563Y79724D01*
X58621Y79724D01*
X58735Y79702D01*
X58843Y79657D01*
X58939Y79593D01*
X59022Y79510D01*
X59086Y79414D01*
X59131Y79306D01*
X59154Y79192D01*
X59154Y79134D01*
X59154Y74705D01*
X59154Y74705D01*
Y74647D01*
X59131Y74532D01*
X59086Y74425D01*
X59022Y74328D01*
X58939Y74246D01*
X58843Y74181D01*
X58735Y74137D01*
X58621Y74114D01*
X58563Y74114D01*
X53839Y74114D01*
X53780Y74114D01*
X53666Y74137D01*
X53559Y74181D01*
X53462Y74246D01*
X53380Y74328D01*
X53315Y74425D01*
X53271Y74532D01*
X53248Y74647D01*
X53248Y74705D01*
X53248Y79087D01*
X53248Y79134D01*
X53248Y79134D01*
X53248Y79134D01*
X53248Y79192D01*
X53271Y79306D01*
X53315Y79414D01*
X53380Y79510D01*
X53462Y79593D01*
X53559Y79657D01*
X53666Y79702D01*
X53780Y79724D01*
X53839Y79724D01*
D02*
G37*
G36*
X60827Y70866D02*
X60827Y70866D01*
Y70866D01*
X60885D01*
X60999Y70843D01*
X61107Y70799D01*
X61203Y70734D01*
X61285Y70652D01*
X61350Y70555D01*
X61395Y70448D01*
X61417Y70334D01*
X61417Y70276D01*
X61417Y52559D01*
X61417Y52559D01*
X61417Y52501D01*
X61395Y52387D01*
X61350Y52279D01*
X61285Y52183D01*
X61203Y52100D01*
X61107Y52036D01*
X60999Y51991D01*
X60885Y51968D01*
X60827Y51968D01*
X58268Y51968D01*
X58268Y51968D01*
X58210Y51968D01*
X58095Y51991D01*
X57988Y52036D01*
X57891Y52100D01*
X57809Y52183D01*
X57744Y52279D01*
X57700Y52387D01*
X57677Y52501D01*
X57677Y52559D01*
X57677Y70276D01*
Y70334D01*
X57700Y70448D01*
X57744Y70555D01*
X57809Y70652D01*
X57891Y70734D01*
X57988Y70799D01*
X58095Y70843D01*
X58210Y70866D01*
X58268D01*
X60827Y70866D01*
D02*
G37*
G36*
X52657Y53248D02*
X56594Y53248D01*
X56594Y53248D01*
X56594Y53248D01*
X56653Y53248D01*
X56767Y53225D01*
X56874Y53181D01*
X56971Y53116D01*
X57053Y53034D01*
X57118Y52937D01*
X57162Y52830D01*
X57185Y52716D01*
X57185Y52657D01*
X57185Y48819D01*
X57185Y48819D01*
Y48761D01*
X57162Y48647D01*
X57118Y48539D01*
X57053Y48442D01*
X56971Y48360D01*
X56874Y48296D01*
X56767Y48251D01*
X56653Y48228D01*
X52657D01*
X52599Y48228D01*
X52485Y48251D01*
X52378Y48296D01*
X52281Y48360D01*
X52199Y48442D01*
X52134Y48539D01*
X52090Y48647D01*
X52067Y48761D01*
X52067Y48819D01*
Y52461D01*
X52067Y52610D01*
X52067Y52657D01*
X52067Y52657D01*
X52067Y52657D01*
X52067Y52657D01*
X52067Y52716D01*
X52090Y52830D01*
X52134Y52937D01*
X52199Y53034D01*
X52281Y53116D01*
X52378Y53181D01*
X52485Y53225D01*
X52599Y53248D01*
X52657Y53248D01*
D02*
G37*
G36*
X7456Y52930D02*
X7563Y52886D01*
X7660Y52821D01*
X7742Y52739D01*
X7807Y52642D01*
X7851Y52534D01*
X7874Y52420D01*
X7874Y52362D01*
X7874Y52362D01*
X7874Y52362D01*
X7874Y47047D01*
X7874Y46989D01*
X7851Y46875D01*
X7807Y46768D01*
X7742Y46671D01*
X7660Y46589D01*
X7563Y46524D01*
X7456Y46479D01*
X7342Y46457D01*
X7283Y46457D01*
X1969Y46457D01*
X1910Y46457D01*
X1796Y46479D01*
X1689Y46524D01*
X1592Y46589D01*
X1510Y46671D01*
X1445Y46768D01*
X1401Y46875D01*
X1378Y46989D01*
Y47047D01*
X1378Y47047D01*
X1378Y52362D01*
X1378Y52420D01*
X1401Y52534D01*
X1445Y52642D01*
X1510Y52739D01*
X1592Y52821D01*
X1689Y52886D01*
X1796Y52930D01*
X1910Y52953D01*
X1968Y52953D01*
X1969Y52953D01*
X7283Y52953D01*
X7342Y52953D01*
X7456Y52930D01*
D02*
G37*
G36*
X13386Y64567D02*
X13386Y64567D01*
X13444Y64567D01*
X13558Y64544D01*
X13666Y64500D01*
X13762Y64435D01*
X13845Y64353D01*
X13909Y64256D01*
X13954Y64149D01*
X13976Y64035D01*
X13976Y63976D01*
X13976Y59154D01*
X13976Y59154D01*
Y59086D01*
X13950Y58953D01*
X13898Y58827D01*
X13823Y58714D01*
X13727Y58618D01*
X13614Y58543D01*
X13488Y58491D01*
X13355Y58465D01*
X13287Y58465D01*
X7874Y58465D01*
X7874Y58465D01*
X7816D01*
X7702Y58487D01*
X7594Y58532D01*
X7498Y58596D01*
X7415Y58679D01*
X7351Y58775D01*
X7306Y58883D01*
X7283Y58997D01*
Y59055D01*
Y63976D01*
X7283Y63976D01*
X7283Y63976D01*
X7283Y64035D01*
X7306Y64149D01*
X7351Y64256D01*
X7415Y64353D01*
X7498Y64435D01*
X7594Y64500D01*
X7702Y64544D01*
X7816Y64567D01*
X7874D01*
X13386Y64567D01*
X13386Y64567D01*
D02*
G37*
G36*
X26969Y64272D02*
X29921Y64272D01*
X29921Y64272D01*
X29921Y64272D01*
X29979Y64272D01*
X30094Y64249D01*
X30201Y64204D01*
X30298Y64140D01*
X30380Y64058D01*
X30445Y63961D01*
X30489Y63853D01*
X30512Y63739D01*
X30512Y63681D01*
X30512Y53051D01*
X39272Y53051D01*
X39272Y53051D01*
X39272Y53051D01*
X39369Y53051D01*
X39559Y53013D01*
X39738Y52939D01*
X39899Y52831D01*
X40036Y52694D01*
X40144Y52533D01*
X40218Y52354D01*
X40256Y52164D01*
X40256Y52067D01*
X40256Y48327D01*
X40256Y48327D01*
X40259Y48269D01*
X40281Y48155D01*
X40326Y48048D01*
X40390Y47952D01*
X40472Y47870D01*
X40568Y47806D01*
X40675Y47762D01*
X40789Y47739D01*
X40846Y47736D01*
X42913Y47736D01*
X42913Y47736D01*
X42913Y47736D01*
X42981Y47736D01*
X43114Y47710D01*
X43240Y47658D01*
X43353Y47582D01*
X43449Y47486D01*
X43524Y47374D01*
X43576Y47248D01*
X43602Y47115D01*
X43602Y47047D01*
X43602Y45276D01*
X43602Y45276D01*
Y45227D01*
X43583Y45132D01*
X43546Y45042D01*
X43492Y44962D01*
X43424Y44893D01*
X43343Y44839D01*
X43254Y44802D01*
X43159Y44783D01*
X43110D01*
X40256Y44783D01*
X37402Y44783D01*
X37343D01*
X37229Y44806D01*
X37122Y44851D01*
X37025Y44915D01*
X36943Y44998D01*
X36878Y45094D01*
X36834Y45202D01*
X36811Y45316D01*
Y45374D01*
X36811Y49016D01*
X36811Y49016D01*
X36811Y49016D01*
X36809Y49064D01*
X36790Y49159D01*
X36753Y49248D01*
X36699Y49328D01*
X36631Y49396D01*
X36551Y49450D01*
X36462Y49487D01*
X36367Y49506D01*
X36319Y49508D01*
X25295Y49508D01*
X25295Y49508D01*
X25257Y49506D01*
X25181Y49491D01*
X25110Y49461D01*
X25046Y49418D01*
X24991Y49364D01*
X24948Y49300D01*
X24919Y49228D01*
X24903Y49153D01*
X24902Y49114D01*
Y45374D01*
X24902Y45374D01*
X24902Y45316D01*
X24879Y45202D01*
X24834Y45094D01*
X24770Y44998D01*
X24687Y44915D01*
X24591Y44851D01*
X24483Y44806D01*
X24369Y44783D01*
X24311Y44783D01*
X22244Y44783D01*
X17618Y44783D01*
Y44783D01*
X17570D01*
X17475Y44802D01*
X17385Y44839D01*
X17304Y44893D01*
X17236Y44962D01*
X17182Y45042D01*
X17145Y45132D01*
X17126Y45227D01*
Y45276D01*
X17126Y47197D01*
X17126Y47244D01*
X17126Y47244D01*
X17126Y47244D01*
X17126Y47244D01*
X17126Y47293D01*
X17145Y47388D01*
X17182Y47477D01*
X17236Y47558D01*
X17304Y47626D01*
X17385Y47680D01*
X17475Y47717D01*
X17570Y47736D01*
X17618Y47736D01*
X21654Y47736D01*
X21711Y47739D01*
X21825Y47762D01*
X21932Y47806D01*
X22028Y47870D01*
X22110Y47952D01*
X22174Y48048D01*
X22219Y48155D01*
X22241Y48269D01*
X22244Y48327D01*
X22244Y52118D01*
X22244Y52165D01*
X22244Y52165D01*
X22244Y52165D01*
X22244Y52165D01*
X22244Y52253D01*
X22278Y52424D01*
X22345Y52585D01*
X22442Y52730D01*
X22565Y52853D01*
X22710Y52950D01*
X22872Y53017D01*
X23043Y53051D01*
X23130Y53051D01*
X26378Y53051D01*
X26378Y63634D01*
X26378Y63681D01*
X26378Y63681D01*
X26378Y63681D01*
X26378Y63739D01*
X26401Y63853D01*
X26445Y63961D01*
X26510Y64058D01*
X26592Y64140D01*
X26689Y64204D01*
X26796Y64249D01*
X26910Y64272D01*
X26969Y64272D01*
D02*
G37*
D15*
X44793Y27854D02*
D03*
X46152D02*
D03*
X16526Y27165D02*
D03*
X15167D02*
D03*
D16*
X3543Y15079D02*
D03*
Y14449D02*
D03*
X57185Y15177D02*
D03*
Y14547D02*
D03*
D17*
X7264Y12795D02*
D03*
X7894D02*
D03*
X14488Y27264D02*
D03*
X13858D02*
D03*
X7165Y10335D02*
D03*
X7795D02*
D03*
X3366Y6299D02*
D03*
X2736D02*
D03*
X54213Y12697D02*
D03*
X54843D02*
D03*
X47028Y28051D02*
D03*
X47657D02*
D03*
X54213Y9547D02*
D03*
X54843D02*
D03*
X58150Y6496D02*
D03*
X58780D02*
D03*
D26*
X7382Y13780D02*
Y14370D01*
X7283Y13681D02*
X7382Y13780D01*
X7283Y12795D02*
Y13681D01*
X8661Y13386D02*
Y14370D01*
X8465Y13189D02*
X8661Y13386D01*
X8071Y13189D02*
X8465D01*
X7894Y13012D02*
X8071Y13189D01*
X7894Y12795D02*
Y13012D01*
Y12795D02*
X8661D01*
X7264D02*
X7283D01*
X6693D02*
X7264D01*
X6693D02*
Y13091D01*
X6496D02*
X6693D01*
X15453Y29232D02*
Y29715D01*
X15463Y29724D01*
X14852Y29242D02*
X14862Y29232D01*
X14852Y29242D02*
Y29724D01*
X50098Y26280D02*
X50295Y26083D01*
X45472Y26280D02*
X50098D01*
X50295Y25886D02*
Y26083D01*
X49685Y25866D02*
X49705Y25886D01*
X45000Y25866D02*
X49685D01*
X44980Y25886D02*
X45000Y25866D01*
X55512Y9547D02*
X55709Y9744D01*
X54843Y9547D02*
X55512D01*
X53346Y9744D02*
X53543Y9547D01*
X54213D01*
X54921Y6299D02*
X55118Y6496D01*
X54921Y4331D02*
Y6299D01*
X55059Y13425D02*
Y14272D01*
X54843Y13209D02*
X55059Y13425D01*
X54843Y12697D02*
Y13209D01*
X54213Y12697D02*
Y13209D01*
X53799Y13622D02*
X54213Y13209D01*
X53799Y13622D02*
Y14272D01*
X53297Y12697D02*
X54213D01*
X55709D02*
X55807Y12795D01*
X54843Y12697D02*
X55709D01*
X47441Y30108D02*
X47451Y30118D01*
X47441Y29527D02*
Y30108D01*
X46850Y29528D02*
Y30108D01*
X46841Y30118D02*
X46850Y30108D01*
D27*
X8760Y8563D02*
Y10335D01*
X8514Y8317D02*
X8760Y8563D01*
X7431Y8317D02*
X8514D01*
X7795Y10335D02*
X8760D01*
X6004D02*
X7165D01*
X7776Y9646D02*
Y10335D01*
X7067Y8937D02*
X7776Y9646D01*
X5630Y8937D02*
X7067D01*
X6791Y9547D02*
X7185Y9941D01*
X5118Y9547D02*
X6791D01*
X5020Y9449D02*
X5118Y9547D01*
X7185Y9941D02*
Y10335D01*
X3563Y6496D02*
X4331D01*
X3366Y6299D02*
X3563Y6496D01*
X14488Y27264D02*
X14567D01*
X13858Y26004D02*
Y27244D01*
X16929Y25886D02*
X17126Y26083D01*
X13976Y25886D02*
X16929D01*
X13858Y26004D02*
X13976Y25886D01*
X56772Y17008D02*
X56791Y17028D01*
X53720Y18681D02*
X53740Y18701D01*
X4114Y13189D02*
X4921D01*
X4114D02*
Y14449D01*
X4134Y17028D02*
X4921D01*
X4134Y17028D02*
X4134Y17028D01*
X4016Y16909D02*
X4134Y17028D01*
X16535Y27854D02*
X16634Y27953D01*
X16535Y27254D02*
Y27854D01*
X14468Y28051D02*
X14488Y28031D01*
Y27264D02*
Y28031D01*
X14468Y28543D02*
X14665Y28740D01*
X14468Y28051D02*
Y28543D01*
X47518Y26772D02*
X47617Y26870D01*
X45177Y26772D02*
X47518D01*
X44783Y27165D02*
X45177Y26772D01*
X49508Y28642D02*
X49606Y28543D01*
X44783Y27165D02*
Y27549D01*
X54213Y9547D02*
X54232Y9528D01*
Y9055D02*
Y9528D01*
X54134Y8957D02*
X54232Y9055D01*
X54134Y7579D02*
Y8957D01*
Y7579D02*
X54331Y7382D01*
X56004D01*
X56299Y7087D01*
X54843Y9232D02*
Y9547D01*
Y8386D02*
Y9232D01*
X54724Y8268D02*
X54843Y8386D01*
Y9232D02*
X55118Y8957D01*
X56004D01*
X55059Y14272D02*
X55610D01*
X53051D02*
X53799D01*
X52953Y14370D02*
X53051Y14272D01*
X56791Y12992D02*
X56811Y13012D01*
Y14547D01*
X56791Y12795D02*
Y12992D01*
X56811Y14547D02*
X57185D01*
X56772Y15177D02*
X57185D01*
X56772D02*
Y17008D01*
X57476Y15843D02*
X58071D01*
X57185Y15551D02*
X57476Y15843D01*
X57185Y15177D02*
Y15551D01*
X57417Y13843D02*
X58071D01*
X57185Y14075D02*
X57417Y13843D01*
X57185Y14075D02*
Y14547D01*
X59055Y6496D02*
X59094Y6457D01*
X58780Y6496D02*
X59055D01*
X57835Y5709D02*
Y6457D01*
X57874Y6496D01*
X58150D01*
X47657Y28051D02*
X48524D01*
X44783Y27549D02*
X44793Y27559D01*
X46752Y28642D02*
X49508D01*
X46555Y28445D02*
X46752Y28642D01*
X46555Y28051D02*
Y28445D01*
Y28051D02*
X47028D01*
X47657D02*
X47657Y28051D01*
X3366Y5798D02*
X3701Y5464D01*
X3366Y5798D02*
Y6299D01*
X2441Y5464D02*
X2736Y5759D01*
Y6299D01*
X1772D02*
X2736D01*
X2362Y15653D02*
X3245D01*
X3543Y15354D01*
Y15079D02*
Y15354D01*
X2362Y13653D02*
X3121D01*
X3543Y14075D01*
Y14449D01*
X4114D01*
X3543Y15079D02*
X4016D01*
Y16909D01*
X17126Y26083D02*
Y27165D01*
X16732D02*
X17126D01*
X16634Y27067D02*
X16732Y27165D01*
X14665Y28740D02*
X17224D01*
X17421Y28543D01*
Y27953D02*
Y28543D01*
X16634Y27067D02*
Y27953D01*
D28*
X3642Y7874D02*
X4331D01*
X14567Y27264D02*
X15167D01*
X14567Y26476D02*
Y27264D01*
X14173Y18406D02*
Y19193D01*
X12402Y27264D02*
X13386D01*
X13858D01*
X13287Y27165D02*
X13386Y27264D01*
X12303Y27362D02*
X12402Y27264D01*
X13287Y26378D02*
Y27165D01*
X9646Y18406D02*
X14173D01*
X6988Y19193D02*
X13287D01*
X8760Y14370D02*
X9350D01*
X6693D02*
X7382D01*
X7441D01*
X7028Y18406D02*
X9646D01*
X5768Y19193D02*
X6988D01*
X5768Y17421D02*
Y19193D01*
X7028Y17421D02*
Y18406D01*
X52461Y18701D02*
X53740D01*
X49705D02*
X52461D01*
X55118Y19547D02*
X57323D01*
X49173D02*
X55118D01*
X53740Y18701D02*
X56063D01*
X7028Y15551D02*
Y17421D01*
X6102Y15551D02*
X7028D01*
X5807Y14370D02*
Y15256D01*
X6102Y15551D01*
X5709Y16535D02*
Y17362D01*
X5768Y17421D01*
X12303Y27362D02*
Y27953D01*
X48366Y27421D02*
X48622Y27165D01*
X47185Y27421D02*
X48366D01*
X47028Y27579D02*
X47185Y27421D01*
X47028Y27579D02*
Y28051D01*
X49114Y19488D02*
X49173Y19547D01*
X56594Y17717D02*
X57185D01*
X56102Y17224D02*
X56594Y17717D01*
X57185D02*
X57323Y17854D01*
Y18701D02*
Y19547D01*
X44793Y27854D02*
Y28435D01*
Y27559D02*
Y27854D01*
X46152D02*
Y27943D01*
Y27559D02*
Y27854D01*
X44193Y28445D02*
X44783D01*
X44793Y28435D01*
X57283Y5709D02*
X57835D01*
X57835Y5709D01*
X56516Y14547D02*
X56811D01*
X56102Y14961D02*
X56516Y14547D01*
X56102Y14961D02*
Y17224D01*
X57323Y17854D02*
Y18701D01*
X56102Y18012D02*
Y18642D01*
X58996Y11063D02*
X59449D01*
X58776Y10843D02*
X58996Y11063D01*
X58071Y10843D02*
X58776D01*
X60197Y9803D02*
X60236Y9843D01*
X59449Y11063D02*
X60689D01*
X60925Y10827D01*
Y9154D02*
Y10827D01*
X60728Y8957D02*
X60925Y9154D01*
X59449Y9803D02*
X60197D01*
X58071Y8957D02*
X60728D01*
X58071Y9843D02*
X58110Y9803D01*
X59449D01*
X59094Y5709D02*
Y6457D01*
X57126Y7028D02*
X58917D01*
X59094Y6850D01*
Y5053D02*
Y5709D01*
X58861Y4820D02*
X59094Y5053D01*
X58861Y4331D02*
Y4820D01*
X57835Y5059D02*
Y5709D01*
Y5059D02*
X58071Y4823D01*
Y4331D02*
Y4823D01*
X46260Y28051D02*
X46555D01*
X46152Y27943D02*
X46260Y28051D01*
X2441Y4643D02*
X2753Y4331D01*
X2441Y4643D02*
Y5464D01*
X3543Y4331D02*
Y4429D01*
X3701Y4587D01*
Y5464D01*
X3642Y7874D02*
Y8672D01*
X3661Y8692D01*
X1673Y7874D02*
X2402D01*
Y8692D01*
X2362Y9653D02*
X3241D01*
X3661Y9232D01*
Y8692D02*
Y9232D01*
X1840Y8692D02*
X2402D01*
X1378Y9154D02*
X1840Y8692D01*
X1378Y9154D02*
Y10138D01*
X1893Y10653D01*
X2362D01*
X56102Y18642D02*
X56161Y18701D01*
X59094Y6457D02*
Y6850D01*
D29*
X46130Y7087D02*
D03*
X48130D02*
D03*
X28445Y63386D02*
D03*
Y61386D02*
D03*
X13650Y6693D02*
D03*
X15650D02*
D03*
X59547Y53543D02*
D03*
Y55543D02*
D03*
D30*
X7087Y23031D02*
D03*
Y37795D02*
D03*
X54724Y22047D02*
D03*
Y36811D02*
D03*
D31*
X24232Y51339D02*
D03*
Y30108D02*
D03*
X37933Y30148D02*
D03*
Y51378D02*
D03*
X24232Y28140D02*
D03*
Y6909D02*
D03*
X37933Y6949D02*
D03*
Y28179D02*
D03*
D32*
X10236Y47638D02*
D03*
Y72638D02*
D03*
X49508Y49902D02*
D03*
X44094Y63583D02*
D03*
X50787Y77559D02*
D03*
X16732Y60236D02*
D03*
D33*
X6299Y47638D02*
D03*
Y72638D02*
D03*
X53445Y49902D02*
D03*
X48032Y63583D02*
D03*
X54724Y77559D02*
D03*
X12795Y60236D02*
D03*
D34*
X40098Y23593D02*
D03*
Y21447D02*
D03*
X22028Y19301D02*
D03*
Y21447D02*
D03*
Y34655D02*
D03*
Y36801D02*
D03*
X40098Y38947D02*
D03*
Y36801D02*
D03*
D35*
Y19301D02*
D03*
X22028Y23593D02*
D03*
Y38947D02*
D03*
X40098Y34655D02*
D03*
D36*
X54921Y4331D02*
D03*
X6693Y4331D02*
D03*
D37*
X55709Y4331D02*
D03*
X56496D02*
D03*
X57283D02*
D03*
X58071D02*
D03*
X58861D02*
D03*
X5906Y4331D02*
D03*
X5118D02*
D03*
X4331D02*
D03*
X3543D02*
D03*
X2753D02*
D03*
D38*
X60433Y59843D02*
D03*
X58465D02*
D03*
X56496D02*
D03*
X54528Y68504D02*
D03*
X56496D02*
D03*
X58465D02*
D03*
D39*
X54528Y59843D02*
D03*
X60433Y68504D02*
D03*
D40*
X2362Y9653D02*
D03*
X58071Y9843D02*
D03*
D41*
X2362Y10653D02*
D03*
Y13653D02*
D03*
Y14653D02*
D03*
Y15653D02*
D03*
X58071Y10843D02*
D03*
Y13843D02*
D03*
Y14843D02*
D03*
Y15843D02*
D03*
D43*
X37303Y74228D02*
D03*
Y75787D02*
D03*
Y77346D02*
D03*
D44*
X12835Y50630D02*
D03*
Y49843D02*
D03*
Y49055D02*
D03*
Y48268D02*
D03*
Y47480D02*
D03*
Y46693D02*
D03*
Y45906D02*
D03*
X12047Y50630D02*
D03*
Y49843D02*
D03*
Y49055D02*
D03*
Y48268D02*
D03*
Y47480D02*
D03*
Y46693D02*
D03*
Y45906D02*
D03*
X11260Y50630D02*
D03*
Y49843D02*
D03*
Y49055D02*
D03*
Y48268D02*
D03*
Y47480D02*
D03*
Y46693D02*
D03*
Y45906D02*
D03*
X10472Y50630D02*
D03*
Y49843D02*
D03*
Y49055D02*
D03*
Y45906D02*
D03*
X9685Y50630D02*
D03*
Y49843D02*
D03*
Y49055D02*
D03*
Y46693D02*
D03*
Y45906D02*
D03*
X45118Y63228D02*
D03*
Y62441D02*
D03*
Y61654D02*
D03*
X44331D02*
D03*
Y60079D02*
D03*
X43543Y62441D02*
D03*
Y60079D02*
D03*
X42756Y61654D02*
D03*
Y60866D02*
D03*
Y60079D02*
D03*
X41969Y63228D02*
D03*
Y62441D02*
D03*
X45118Y64016D02*
D03*
X42756Y63228D02*
D03*
X44331Y62441D02*
D03*
X42756D02*
D03*
X43543Y61654D02*
D03*
X44331Y60866D02*
D03*
X43543D02*
D03*
X41969Y61654D02*
D03*
Y60866D02*
D03*
Y60079D02*
D03*
X43740Y25630D02*
D03*
Y25039D02*
D03*
Y24449D02*
D03*
Y22677D02*
D03*
Y22087D02*
D03*
X43150Y25630D02*
D03*
Y25039D02*
D03*
Y24449D02*
D03*
Y23858D02*
D03*
Y23268D02*
D03*
Y22677D02*
D03*
Y22087D02*
D03*
X42559Y25630D02*
D03*
Y25039D02*
D03*
Y24449D02*
D03*
Y23858D02*
D03*
Y23268D02*
D03*
Y22677D02*
D03*
X41968Y25630D02*
D03*
Y25039D02*
D03*
Y24449D02*
D03*
Y23858D02*
D03*
Y23268D02*
D03*
X41378Y25630D02*
D03*
Y25039D02*
D03*
Y24449D02*
D03*
Y23858D02*
D03*
Y23268D02*
D03*
X40787Y25630D02*
D03*
Y25039D02*
D03*
Y24449D02*
D03*
Y23268D02*
D03*
X40197Y25630D02*
D03*
Y25039D02*
D03*
Y24449D02*
D03*
X39606Y25630D02*
D03*
Y25039D02*
D03*
Y24449D02*
D03*
X49843Y47480D02*
D03*
X48268Y50630D02*
D03*
Y49843D02*
D03*
Y48268D02*
D03*
Y47480D02*
D03*
X47480Y49843D02*
D03*
Y49055D02*
D03*
Y48268D02*
D03*
Y47480D02*
D03*
X46693Y49843D02*
D03*
Y49055D02*
D03*
X45906Y50630D02*
D03*
Y49055D02*
D03*
Y48268D02*
D03*
X45118Y49843D02*
D03*
Y49055D02*
D03*
X60866Y61654D02*
D03*
Y60866D02*
D03*
Y58504D02*
D03*
Y57717D02*
D03*
X60079Y61654D02*
D03*
Y60866D02*
D03*
Y58504D02*
D03*
Y57717D02*
D03*
X59291Y61654D02*
D03*
Y60866D02*
D03*
Y60079D02*
D03*
Y59291D02*
D03*
Y58504D02*
D03*
Y57717D02*
D03*
X58504Y61654D02*
D03*
Y60866D02*
D03*
Y58504D02*
D03*
Y57717D02*
D03*
X60866Y70315D02*
D03*
Y69528D02*
D03*
Y67165D02*
D03*
Y66378D02*
D03*
X60079Y70315D02*
D03*
Y69528D02*
D03*
Y67165D02*
D03*
Y66378D02*
D03*
X59291Y70315D02*
D03*
Y69528D02*
D03*
Y68740D02*
D03*
Y67953D02*
D03*
Y67165D02*
D03*
Y66378D02*
D03*
X58504Y70315D02*
D03*
Y69528D02*
D03*
Y67165D02*
D03*
Y66378D02*
D03*
X56929Y61654D02*
D03*
Y60866D02*
D03*
Y58504D02*
D03*
X56142Y60866D02*
D03*
Y58504D02*
D03*
X55354Y60866D02*
D03*
X54567D02*
D03*
Y58504D02*
D03*
X53780Y60866D02*
D03*
X52992Y61654D02*
D03*
Y60079D02*
D03*
Y59291D02*
D03*
Y58504D02*
D03*
X51417Y80551D02*
D03*
Y76614D02*
D03*
Y74252D02*
D03*
X50630Y80551D02*
D03*
Y78976D02*
D03*
Y75827D02*
D03*
Y75039D02*
D03*
X49843Y80551D02*
D03*
Y76614D02*
D03*
Y74252D02*
D03*
X49055Y79764D02*
D03*
Y78189D02*
D03*
Y76614D02*
D03*
Y75827D02*
D03*
X48268D02*
D03*
X47480Y79764D02*
D03*
Y77402D02*
D03*
Y76614D02*
D03*
Y74252D02*
D03*
X56929Y52205D02*
D03*
Y50630D02*
D03*
Y49843D02*
D03*
X56142Y51417D02*
D03*
Y50630D02*
D03*
X55354Y52992D02*
D03*
Y49055D02*
D03*
X54567Y52205D02*
D03*
Y49843D02*
D03*
Y49055D02*
D03*
X53780Y52992D02*
D03*
X52992D02*
D03*
Y52205D02*
D03*
Y51417D02*
D03*
Y66378D02*
D03*
X50630Y65591D02*
D03*
Y64803D02*
D03*
Y64016D02*
D03*
X49843Y64803D02*
D03*
Y64016D02*
D03*
X49055Y66378D02*
D03*
Y65591D02*
D03*
Y63228D02*
D03*
X47480Y66378D02*
D03*
Y65591D02*
D03*
X56929Y70315D02*
D03*
Y69528D02*
D03*
Y67165D02*
D03*
Y66378D02*
D03*
X56142Y70315D02*
D03*
Y67165D02*
D03*
X55354Y71102D02*
D03*
Y69528D02*
D03*
Y68740D02*
D03*
Y67165D02*
D03*
X54567Y69528D02*
D03*
Y67165D02*
D03*
X53780Y71102D02*
D03*
Y70315D02*
D03*
Y67953D02*
D03*
Y67165D02*
D03*
Y66378D02*
D03*
X52992Y71102D02*
D03*
Y70315D02*
D03*
Y68740D02*
D03*
Y67953D02*
D03*
Y67165D02*
D03*
X58504Y78976D02*
D03*
Y78189D02*
D03*
Y77402D02*
D03*
Y76614D02*
D03*
Y75039D02*
D03*
X57717Y78189D02*
D03*
Y76614D02*
D03*
X56929Y77402D02*
D03*
Y75827D02*
D03*
X56142Y77402D02*
D03*
Y76614D02*
D03*
Y75827D02*
D03*
Y75039D02*
D03*
X54567Y78976D02*
D03*
X53780D02*
D03*
Y76614D02*
D03*
Y75827D02*
D03*
Y75039D02*
D03*
X8661Y12795D02*
D03*
X6496Y13091D02*
D03*
X15453Y29232D02*
D03*
X14852Y29242D02*
D03*
X28976Y34488D02*
D03*
Y33898D02*
D03*
Y33307D02*
D03*
Y32717D02*
D03*
Y32126D02*
D03*
X28386Y34488D02*
D03*
Y33898D02*
D03*
Y33307D02*
D03*
Y32717D02*
D03*
Y32126D02*
D03*
X27795Y34488D02*
D03*
Y33898D02*
D03*
Y33307D02*
D03*
Y32717D02*
D03*
Y32126D02*
D03*
X27205Y34488D02*
D03*
Y33898D02*
D03*
Y33307D02*
D03*
Y32717D02*
D03*
Y32126D02*
D03*
X26614Y34488D02*
D03*
Y33898D02*
D03*
Y33307D02*
D03*
Y32717D02*
D03*
Y32126D02*
D03*
X26024Y33898D02*
D03*
Y33307D02*
D03*
Y32717D02*
D03*
X25433Y33307D02*
D03*
Y32717D02*
D03*
X24843Y35079D02*
D03*
Y33898D02*
D03*
Y33307D02*
D03*
Y32717D02*
D03*
X24252Y35079D02*
D03*
Y33898D02*
D03*
Y33307D02*
D03*
Y32717D02*
D03*
X23661Y34488D02*
D03*
Y33898D02*
D03*
Y33307D02*
D03*
Y32717D02*
D03*
X23071Y34488D02*
D03*
Y33898D02*
D03*
Y33307D02*
D03*
Y32717D02*
D03*
X22480Y33898D02*
D03*
Y33307D02*
D03*
Y32717D02*
D03*
X21890Y33898D02*
D03*
Y33307D02*
D03*
Y32717D02*
D03*
X21299Y34488D02*
D03*
Y33307D02*
D03*
Y32717D02*
D03*
X22480Y37441D02*
D03*
X21299D02*
D03*
Y36850D02*
D03*
X20709Y37441D02*
D03*
Y36850D02*
D03*
X20118Y37441D02*
D03*
Y36850D02*
D03*
X19528Y37441D02*
D03*
Y36850D02*
D03*
Y36260D02*
D03*
X18937Y37441D02*
D03*
Y36850D02*
D03*
Y36260D02*
D03*
X18346Y37441D02*
D03*
Y36850D02*
D03*
Y36260D02*
D03*
X17756Y37441D02*
D03*
Y36850D02*
D03*
Y36260D02*
D03*
X50295Y25886D02*
D03*
X49705D02*
D03*
X44980D02*
D03*
X45472Y26280D02*
D03*
X47441Y29527D02*
D03*
X54567Y39606D02*
D03*
X53780D02*
D03*
Y38819D02*
D03*
X52992Y39606D02*
D03*
Y36457D02*
D03*
X52205Y38819D02*
D03*
Y37244D02*
D03*
Y36457D02*
D03*
X51417Y39606D02*
D03*
Y38819D02*
D03*
Y38032D02*
D03*
X49843Y38819D02*
D03*
Y37244D02*
D03*
Y36457D02*
D03*
X49055Y38819D02*
D03*
Y37244D02*
D03*
Y36457D02*
D03*
X48268Y39606D02*
D03*
Y38819D02*
D03*
Y38032D02*
D03*
X47480Y38819D02*
D03*
X46693Y37244D02*
D03*
X15197Y38819D02*
D03*
Y38032D02*
D03*
Y37244D02*
D03*
Y36457D02*
D03*
X14409Y39606D02*
D03*
Y38032D02*
D03*
Y36457D02*
D03*
X13622Y39606D02*
D03*
Y38032D02*
D03*
Y37244D02*
D03*
Y36457D02*
D03*
X12835Y39606D02*
D03*
Y38819D02*
D03*
Y37244D02*
D03*
Y36457D02*
D03*
X12047Y38032D02*
D03*
Y37244D02*
D03*
Y36457D02*
D03*
X11260Y39606D02*
D03*
Y38032D02*
D03*
Y36457D02*
D03*
X10472Y39606D02*
D03*
Y38032D02*
D03*
Y36457D02*
D03*
X9685Y38819D02*
D03*
Y37244D02*
D03*
X8898Y39606D02*
D03*
Y38819D02*
D03*
Y38032D02*
D03*
Y37244D02*
D03*
Y36457D02*
D03*
X8110Y39606D02*
D03*
Y38819D02*
D03*
Y38032D02*
D03*
X7323Y38819D02*
D03*
Y36457D02*
D03*
X6535D02*
D03*
X21299Y21496D02*
D03*
Y22087D02*
D03*
X22480D02*
D03*
X23071Y21496D02*
D03*
Y22087D02*
D03*
X23661Y21496D02*
D03*
Y22087D02*
D03*
Y22677D02*
D03*
Y23268D02*
D03*
Y23858D02*
D03*
Y24449D02*
D03*
Y25039D02*
D03*
X24252Y22087D02*
D03*
Y22677D02*
D03*
Y23268D02*
D03*
Y23858D02*
D03*
Y24449D02*
D03*
Y25039D02*
D03*
Y25630D02*
D03*
X24843Y22087D02*
D03*
Y22677D02*
D03*
Y23268D02*
D03*
Y23858D02*
D03*
Y24449D02*
D03*
Y25039D02*
D03*
Y25630D02*
D03*
X25433Y21496D02*
D03*
Y22087D02*
D03*
Y22677D02*
D03*
Y23268D02*
D03*
Y23858D02*
D03*
Y24449D02*
D03*
Y25039D02*
D03*
Y25630D02*
D03*
X26024Y20905D02*
D03*
Y21496D02*
D03*
Y22087D02*
D03*
Y22677D02*
D03*
Y23268D02*
D03*
Y23858D02*
D03*
Y24449D02*
D03*
Y25039D02*
D03*
Y25630D02*
D03*
X26614Y20905D02*
D03*
Y21496D02*
D03*
Y22087D02*
D03*
Y22677D02*
D03*
Y23268D02*
D03*
Y23858D02*
D03*
Y24449D02*
D03*
Y25039D02*
D03*
Y25630D02*
D03*
Y26220D02*
D03*
X27205Y20905D02*
D03*
Y21496D02*
D03*
Y22087D02*
D03*
Y22677D02*
D03*
Y23268D02*
D03*
Y23858D02*
D03*
Y24449D02*
D03*
Y25039D02*
D03*
Y25630D02*
D03*
Y26220D02*
D03*
X27795Y20905D02*
D03*
Y21496D02*
D03*
Y22087D02*
D03*
Y22677D02*
D03*
Y23268D02*
D03*
Y23858D02*
D03*
Y24449D02*
D03*
Y25039D02*
D03*
Y25630D02*
D03*
Y26220D02*
D03*
X28386Y20905D02*
D03*
Y21496D02*
D03*
Y22087D02*
D03*
Y22677D02*
D03*
Y23268D02*
D03*
Y23858D02*
D03*
Y24449D02*
D03*
Y25039D02*
D03*
Y25630D02*
D03*
Y26220D02*
D03*
X28976Y20905D02*
D03*
Y21496D02*
D03*
Y22087D02*
D03*
Y22677D02*
D03*
Y23268D02*
D03*
Y23858D02*
D03*
Y24449D02*
D03*
Y25039D02*
D03*
Y25630D02*
D03*
Y26220D02*
D03*
X12441Y4075D02*
D03*
Y4862D02*
D03*
Y5650D02*
D03*
Y6437D02*
D03*
Y7224D02*
D03*
Y8012D02*
D03*
Y8799D02*
D03*
Y9587D02*
D03*
Y10374D02*
D03*
Y11161D02*
D03*
Y11949D02*
D03*
Y12736D02*
D03*
Y13524D02*
D03*
X13228Y3287D02*
D03*
Y4075D02*
D03*
Y4862D02*
D03*
Y5650D02*
D03*
Y8012D02*
D03*
Y8799D02*
D03*
Y9587D02*
D03*
Y10374D02*
D03*
Y11161D02*
D03*
Y11949D02*
D03*
Y12736D02*
D03*
Y13524D02*
D03*
X14016Y3287D02*
D03*
Y4862D02*
D03*
Y5650D02*
D03*
Y8012D02*
D03*
Y8799D02*
D03*
Y9587D02*
D03*
Y10374D02*
D03*
Y11161D02*
D03*
Y11949D02*
D03*
Y12736D02*
D03*
Y13524D02*
D03*
X14803Y3287D02*
D03*
Y4862D02*
D03*
Y5650D02*
D03*
Y8012D02*
D03*
Y8799D02*
D03*
Y9587D02*
D03*
Y10374D02*
D03*
Y11161D02*
D03*
Y11949D02*
D03*
Y12736D02*
D03*
Y13524D02*
D03*
X15591Y3287D02*
D03*
Y4075D02*
D03*
Y4862D02*
D03*
Y5650D02*
D03*
Y8012D02*
D03*
Y8799D02*
D03*
Y9587D02*
D03*
Y10374D02*
D03*
Y11161D02*
D03*
Y11949D02*
D03*
Y12736D02*
D03*
Y13524D02*
D03*
X16378Y3287D02*
D03*
Y4075D02*
D03*
Y4862D02*
D03*
Y5650D02*
D03*
Y6437D02*
D03*
Y7224D02*
D03*
Y8012D02*
D03*
Y8799D02*
D03*
Y9587D02*
D03*
Y10374D02*
D03*
Y11161D02*
D03*
Y11949D02*
D03*
Y12736D02*
D03*
Y13524D02*
D03*
X17165Y3287D02*
D03*
Y4075D02*
D03*
Y4862D02*
D03*
X36063Y40984D02*
D03*
Y41575D02*
D03*
Y42165D02*
D03*
Y42756D02*
D03*
X36654Y41575D02*
D03*
Y42756D02*
D03*
X37244Y40984D02*
D03*
Y42165D02*
D03*
Y42756D02*
D03*
X37835Y41575D02*
D03*
Y42756D02*
D03*
X38425Y39213D02*
D03*
Y40394D02*
D03*
Y40984D02*
D03*
Y41575D02*
D03*
X39016Y42165D02*
D03*
X39606Y40984D02*
D03*
X40197Y39803D02*
D03*
Y40394D02*
D03*
Y40984D02*
D03*
X40787Y38622D02*
D03*
Y39803D02*
D03*
X31339Y33307D02*
D03*
Y33898D02*
D03*
X31929Y32717D02*
D03*
Y35079D02*
D03*
Y35669D02*
D03*
Y36260D02*
D03*
X32520Y35669D02*
D03*
X33110Y32126D02*
D03*
Y33898D02*
D03*
Y34488D02*
D03*
Y35079D02*
D03*
Y35669D02*
D03*
Y36260D02*
D03*
X33701Y32717D02*
D03*
Y33898D02*
D03*
Y34488D02*
D03*
Y35079D02*
D03*
Y35669D02*
D03*
X34291Y32717D02*
D03*
X35472D02*
D03*
X31339Y18543D02*
D03*
Y20315D02*
D03*
Y21496D02*
D03*
Y22087D02*
D03*
Y22677D02*
D03*
X31929Y20315D02*
D03*
Y22087D02*
D03*
Y22677D02*
D03*
X32520Y19724D02*
D03*
Y22677D02*
D03*
Y24449D02*
D03*
Y25630D02*
D03*
X33110Y19724D02*
D03*
Y20315D02*
D03*
Y21496D02*
D03*
Y22677D02*
D03*
Y23268D02*
D03*
Y23858D02*
D03*
Y24449D02*
D03*
Y25039D02*
D03*
Y26220D02*
D03*
X33701Y18543D02*
D03*
Y20905D02*
D03*
Y21496D02*
D03*
Y22087D02*
D03*
Y22677D02*
D03*
Y23268D02*
D03*
Y23858D02*
D03*
Y25039D02*
D03*
Y25630D02*
D03*
Y26220D02*
D03*
X34291Y19134D02*
D03*
Y19724D02*
D03*
Y20315D02*
D03*
Y20905D02*
D03*
X34882Y18543D02*
D03*
Y20905D02*
D03*
X35472Y18543D02*
D03*
Y20905D02*
D03*
X36063Y18543D02*
D03*
Y19134D02*
D03*
Y20315D02*
D03*
X36654Y19134D02*
D03*
Y19724D02*
D03*
Y20315D02*
D03*
Y20905D02*
D03*
X37244Y18543D02*
D03*
Y19134D02*
D03*
Y19724D02*
D03*
X37835D02*
D03*
X38425Y18543D02*
D03*
X39016Y20905D02*
D03*
Y21496D02*
D03*
X40787Y20905D02*
D03*
X41378Y21496D02*
D03*
X39606Y41575D02*
D03*
X39016Y40984D02*
D03*
Y41575D02*
D03*
X40787Y40394D02*
D03*
X39606D02*
D03*
X39016Y39803D02*
D03*
Y40394D02*
D03*
X38425Y42756D02*
D03*
Y42165D02*
D03*
X37835D02*
D03*
Y40394D02*
D03*
Y40984D02*
D03*
X39606Y39803D02*
D03*
X39016Y39213D02*
D03*
X41378Y20905D02*
D03*
X40787Y21496D02*
D03*
X38425Y39803D02*
D03*
X39016Y38622D02*
D03*
X38425Y20905D02*
D03*
X37835Y20315D02*
D03*
X38425Y19724D02*
D03*
Y20315D02*
D03*
Y19134D02*
D03*
X37835D02*
D03*
X37244Y41575D02*
D03*
X36654Y42165D02*
D03*
X37244Y40394D02*
D03*
X36654Y40984D02*
D03*
Y40394D02*
D03*
X36063Y39803D02*
D03*
Y40394D02*
D03*
X34882Y32717D02*
D03*
X37244Y20315D02*
D03*
X36063Y20905D02*
D03*
Y19724D02*
D03*
X35472Y32126D02*
D03*
Y20315D02*
D03*
X34882Y32126D02*
D03*
X35472Y19724D02*
D03*
X34882Y20315D02*
D03*
X35472Y19134D02*
D03*
X34882Y19724D02*
D03*
Y19134D02*
D03*
X37835Y18543D02*
D03*
X36654D02*
D03*
X33701Y36260D02*
D03*
X32520Y35079D02*
D03*
X33701Y32126D02*
D03*
X34291D02*
D03*
X33701Y33307D02*
D03*
X33110Y32717D02*
D03*
Y33307D02*
D03*
Y25630D02*
D03*
X32520Y34488D02*
D03*
Y36260D02*
D03*
X31929Y34488D02*
D03*
X31339Y35669D02*
D03*
Y36260D02*
D03*
Y34488D02*
D03*
Y35079D02*
D03*
X32520Y33898D02*
D03*
Y32717D02*
D03*
Y33307D02*
D03*
X31929D02*
D03*
Y32126D02*
D03*
X32520D02*
D03*
Y26220D02*
D03*
Y25039D02*
D03*
X31929D02*
D03*
Y33898D02*
D03*
X31339Y32717D02*
D03*
Y32126D02*
D03*
X31929Y26220D02*
D03*
Y25630D02*
D03*
X31339Y26220D02*
D03*
Y25630D02*
D03*
Y25039D02*
D03*
X33701Y24449D02*
D03*
X34291Y21496D02*
D03*
X33701Y19724D02*
D03*
Y20315D02*
D03*
X32520Y23858D02*
D03*
X33110Y22087D02*
D03*
Y20905D02*
D03*
X32520Y21496D02*
D03*
X34291Y18543D02*
D03*
X33701Y19134D02*
D03*
X33110Y18543D02*
D03*
Y19134D02*
D03*
X32520Y23268D02*
D03*
X31929Y24449D02*
D03*
Y23268D02*
D03*
Y23858D02*
D03*
X32520Y20905D02*
D03*
Y22087D02*
D03*
Y19134D02*
D03*
Y20315D02*
D03*
X31929Y21496D02*
D03*
Y20905D02*
D03*
X31339Y23858D02*
D03*
Y24449D02*
D03*
Y23268D02*
D03*
X31929Y19134D02*
D03*
Y19724D02*
D03*
X31339Y20905D02*
D03*
Y19724D02*
D03*
X32520Y18543D02*
D03*
X31929D02*
D03*
X31339Y19134D02*
D03*
X18937Y17362D02*
D03*
Y17953D02*
D03*
Y18543D02*
D03*
Y19134D02*
D03*
Y19724D02*
D03*
Y20315D02*
D03*
Y20905D02*
D03*
X19528Y17362D02*
D03*
Y17953D02*
D03*
Y18543D02*
D03*
Y19134D02*
D03*
Y19724D02*
D03*
Y20315D02*
D03*
Y20905D02*
D03*
X20118Y17362D02*
D03*
Y17953D02*
D03*
Y18543D02*
D03*
Y19134D02*
D03*
Y19724D02*
D03*
X20709Y17362D02*
D03*
Y17953D02*
D03*
Y18543D02*
D03*
Y19134D02*
D03*
Y19724D02*
D03*
X21299Y17362D02*
D03*
Y17953D02*
D03*
Y18543D02*
D03*
Y19134D02*
D03*
Y19724D02*
D03*
X21890Y17362D02*
D03*
Y17953D02*
D03*
Y18543D02*
D03*
X45118Y3386D02*
D03*
Y4173D02*
D03*
Y4961D02*
D03*
Y5748D02*
D03*
Y6535D02*
D03*
Y7323D02*
D03*
Y8110D02*
D03*
Y8898D02*
D03*
Y9685D02*
D03*
Y10472D02*
D03*
Y11260D02*
D03*
X45906Y3386D02*
D03*
Y4173D02*
D03*
Y4961D02*
D03*
Y5748D02*
D03*
Y8110D02*
D03*
Y8898D02*
D03*
Y9685D02*
D03*
Y10472D02*
D03*
Y11260D02*
D03*
X46693Y3386D02*
D03*
Y4173D02*
D03*
Y5748D02*
D03*
Y6535D02*
D03*
Y8110D02*
D03*
Y8898D02*
D03*
Y9685D02*
D03*
Y10472D02*
D03*
Y11260D02*
D03*
X47480Y3386D02*
D03*
Y4173D02*
D03*
Y5748D02*
D03*
Y6535D02*
D03*
Y8110D02*
D03*
Y8898D02*
D03*
Y9685D02*
D03*
Y10472D02*
D03*
Y11260D02*
D03*
X48268Y3386D02*
D03*
Y4173D02*
D03*
Y4961D02*
D03*
Y5748D02*
D03*
Y8110D02*
D03*
Y8898D02*
D03*
Y9685D02*
D03*
Y10472D02*
D03*
Y11260D02*
D03*
X49055Y3386D02*
D03*
Y4173D02*
D03*
Y4961D02*
D03*
Y5748D02*
D03*
Y6535D02*
D03*
Y7323D02*
D03*
Y8110D02*
D03*
Y8898D02*
D03*
Y9685D02*
D03*
Y10472D02*
D03*
Y11260D02*
D03*
X37835Y35669D02*
D03*
X38425D02*
D03*
Y36260D02*
D03*
X39016D02*
D03*
Y36850D02*
D03*
X40787Y36260D02*
D03*
Y36850D02*
D03*
X41378Y36260D02*
D03*
Y36850D02*
D03*
X41968Y35669D02*
D03*
Y36260D02*
D03*
Y36850D02*
D03*
X42559Y35669D02*
D03*
Y36260D02*
D03*
Y36850D02*
D03*
Y37441D02*
D03*
X43150Y35669D02*
D03*
Y36260D02*
D03*
Y36850D02*
D03*
Y37441D02*
D03*
X43740Y35669D02*
D03*
Y36260D02*
D03*
Y36850D02*
D03*
Y37441D02*
D03*
X44331Y35669D02*
D03*
Y36260D02*
D03*
Y36850D02*
D03*
Y37441D02*
D03*
X46850Y29528D02*
D03*
X25433Y33898D02*
D03*
X26024Y34488D02*
D03*
X24843Y35669D02*
D03*
X24252D02*
D03*
X25433Y34488D02*
D03*
X24843D02*
D03*
X24252D02*
D03*
X51417Y79764D02*
D03*
X50630D02*
D03*
X51417Y78976D02*
D03*
Y75827D02*
D03*
X49843Y79764D02*
D03*
Y78976D02*
D03*
X49055D02*
D03*
X49843Y78189D02*
D03*
Y75827D02*
D03*
X49055Y77402D02*
D03*
X56142Y62441D02*
D03*
X53780D02*
D03*
X55354D02*
D03*
X54567D02*
D03*
X56142Y61654D02*
D03*
X55354D02*
D03*
X51417Y75039D02*
D03*
X49843D02*
D03*
X50630Y74252D02*
D03*
X49055Y80551D02*
D03*
X48268Y78976D02*
D03*
Y79764D02*
D03*
Y78189D02*
D03*
X49055Y75039D02*
D03*
X48268Y80551D02*
D03*
X47480D02*
D03*
Y78976D02*
D03*
Y78189D02*
D03*
X48268Y77402D02*
D03*
Y76614D02*
D03*
X47480Y75827D02*
D03*
X49055Y74252D02*
D03*
X48268Y75039D02*
D03*
Y74252D02*
D03*
X47480Y75039D02*
D03*
X55354Y60079D02*
D03*
Y59291D02*
D03*
Y58504D02*
D03*
X52992Y60866D02*
D03*
X53780Y58504D02*
D03*
X47480Y50630D02*
D03*
X49843Y48268D02*
D03*
X49055D02*
D03*
X48268Y49055D02*
D03*
X49055Y47480D02*
D03*
X46693D02*
D03*
Y50630D02*
D03*
X45118D02*
D03*
X45906Y49843D02*
D03*
X46693Y48268D02*
D03*
X45906Y47480D02*
D03*
X45118Y48268D02*
D03*
Y47480D02*
D03*
X57717Y78976D02*
D03*
X56929D02*
D03*
X58504Y75827D02*
D03*
X57717Y77402D02*
D03*
Y75827D02*
D03*
X56929Y78189D02*
D03*
X56142Y78976D02*
D03*
Y78189D02*
D03*
X55354Y78976D02*
D03*
X56929Y76614D02*
D03*
X55354Y75827D02*
D03*
X57717Y75039D02*
D03*
X56929D02*
D03*
Y71102D02*
D03*
X55354Y75039D02*
D03*
X56142Y71102D02*
D03*
X55354Y70315D02*
D03*
X56142Y69528D02*
D03*
Y66378D02*
D03*
X55354Y67953D02*
D03*
Y66378D02*
D03*
X54567Y75039D02*
D03*
Y75827D02*
D03*
Y70315D02*
D03*
Y71102D02*
D03*
X52992Y69528D02*
D03*
X53780D02*
D03*
X54567Y66378D02*
D03*
X50630D02*
D03*
X49843D02*
D03*
Y65591D02*
D03*
Y63228D02*
D03*
X48268Y66378D02*
D03*
X49055Y64803D02*
D03*
Y64016D02*
D03*
X48268Y64803D02*
D03*
Y65591D02*
D03*
X47480Y64803D02*
D03*
X56142Y52992D02*
D03*
Y52205D02*
D03*
X55354D02*
D03*
X56929Y51417D02*
D03*
X55354D02*
D03*
X54567Y52992D02*
D03*
X55354Y50630D02*
D03*
X54567Y51417D02*
D03*
Y50630D02*
D03*
X53780Y51417D02*
D03*
Y52205D02*
D03*
X56142Y49843D02*
D03*
X55354D02*
D03*
X56142Y49055D02*
D03*
X56929D02*
D03*
X54567Y38032D02*
D03*
Y38819D02*
D03*
X53780Y38032D02*
D03*
X52992Y38819D02*
D03*
X53780Y37244D02*
D03*
X52992Y38032D02*
D03*
X53780Y36457D02*
D03*
X52992Y37244D02*
D03*
X52205Y39606D02*
D03*
X50630Y63228D02*
D03*
Y39606D02*
D03*
X49843D02*
D03*
X50630Y38819D02*
D03*
X52205Y38032D02*
D03*
X50630D02*
D03*
X49843D02*
D03*
X49055Y39606D02*
D03*
X46693D02*
D03*
X47480D02*
D03*
X46693Y38819D02*
D03*
X50630Y37244D02*
D03*
X51417D02*
D03*
X49055Y38032D02*
D03*
X50630Y36457D02*
D03*
X51417D02*
D03*
X47480Y38032D02*
D03*
X46693D02*
D03*
X48268Y37244D02*
D03*
X47480D02*
D03*
X46693Y36457D02*
D03*
X48268D02*
D03*
X47480D02*
D03*
X9685Y39606D02*
D03*
X15197D02*
D03*
X14409Y37244D02*
D03*
Y38819D02*
D03*
X12047Y39606D02*
D03*
X13622Y38819D02*
D03*
X12047D02*
D03*
X11260D02*
D03*
X10472D02*
D03*
X7323Y39606D02*
D03*
X6535Y38819D02*
D03*
X12835Y38032D02*
D03*
X10472Y37244D02*
D03*
X11260D02*
D03*
X9685Y38032D02*
D03*
X8110Y37244D02*
D03*
X6535D02*
D03*
X9685Y36457D02*
D03*
X8110D02*
D03*
X1811Y47480D02*
D03*
Y48268D02*
D03*
Y49055D02*
D03*
Y49843D02*
D03*
Y50630D02*
D03*
Y51417D02*
D03*
Y71890D02*
D03*
Y72677D02*
D03*
Y73465D02*
D03*
Y74252D02*
D03*
Y75039D02*
D03*
Y75827D02*
D03*
X2598Y47480D02*
D03*
Y48268D02*
D03*
Y49055D02*
D03*
Y49843D02*
D03*
Y50630D02*
D03*
Y51417D02*
D03*
Y71102D02*
D03*
Y71890D02*
D03*
Y72677D02*
D03*
Y73465D02*
D03*
Y74252D02*
D03*
Y75039D02*
D03*
Y75827D02*
D03*
Y76614D02*
D03*
X3386Y47480D02*
D03*
Y48268D02*
D03*
Y49055D02*
D03*
Y49843D02*
D03*
Y50630D02*
D03*
Y51417D02*
D03*
Y52205D02*
D03*
Y71102D02*
D03*
Y71890D02*
D03*
Y72677D02*
D03*
Y73465D02*
D03*
Y74252D02*
D03*
Y75039D02*
D03*
Y75827D02*
D03*
Y76614D02*
D03*
X4173Y47480D02*
D03*
Y48268D02*
D03*
Y49055D02*
D03*
Y49843D02*
D03*
Y50630D02*
D03*
Y51417D02*
D03*
Y52205D02*
D03*
Y71102D02*
D03*
Y71890D02*
D03*
Y72677D02*
D03*
Y73465D02*
D03*
Y74252D02*
D03*
Y75039D02*
D03*
Y75827D02*
D03*
Y76614D02*
D03*
X4961Y47480D02*
D03*
Y48268D02*
D03*
Y49055D02*
D03*
Y49843D02*
D03*
Y50630D02*
D03*
Y51417D02*
D03*
Y52205D02*
D03*
Y71102D02*
D03*
Y71890D02*
D03*
Y72677D02*
D03*
Y73465D02*
D03*
Y74252D02*
D03*
Y75039D02*
D03*
Y75827D02*
D03*
Y76614D02*
D03*
X5748Y49055D02*
D03*
Y49843D02*
D03*
Y50630D02*
D03*
Y51417D02*
D03*
Y52205D02*
D03*
Y71102D02*
D03*
Y74252D02*
D03*
Y75039D02*
D03*
Y75827D02*
D03*
Y76614D02*
D03*
X6535Y49055D02*
D03*
Y49843D02*
D03*
Y50630D02*
D03*
Y51417D02*
D03*
Y52205D02*
D03*
Y71102D02*
D03*
Y74252D02*
D03*
Y75039D02*
D03*
Y75827D02*
D03*
Y76614D02*
D03*
X7323Y47480D02*
D03*
Y48268D02*
D03*
Y49055D02*
D03*
Y49843D02*
D03*
Y50630D02*
D03*
Y51417D02*
D03*
Y52205D02*
D03*
Y71890D02*
D03*
Y72677D02*
D03*
Y73465D02*
D03*
Y74252D02*
D03*
Y75039D02*
D03*
Y75827D02*
D03*
X8110Y59291D02*
D03*
Y60079D02*
D03*
Y60866D02*
D03*
Y61654D02*
D03*
Y62441D02*
D03*
Y63228D02*
D03*
Y64016D02*
D03*
X8898Y59291D02*
D03*
Y60079D02*
D03*
Y60866D02*
D03*
Y61654D02*
D03*
Y62441D02*
D03*
Y63228D02*
D03*
Y64016D02*
D03*
X9685Y59291D02*
D03*
Y60079D02*
D03*
Y60866D02*
D03*
Y61654D02*
D03*
Y62441D02*
D03*
Y63228D02*
D03*
Y64016D02*
D03*
X10472Y59291D02*
D03*
Y60079D02*
D03*
Y60866D02*
D03*
Y61654D02*
D03*
Y62441D02*
D03*
Y63228D02*
D03*
Y64016D02*
D03*
X11260Y59291D02*
D03*
Y60079D02*
D03*
Y60866D02*
D03*
Y61654D02*
D03*
Y62441D02*
D03*
Y63228D02*
D03*
Y64016D02*
D03*
X12047Y61654D02*
D03*
Y62441D02*
D03*
Y63228D02*
D03*
Y64016D02*
D03*
X12835Y59291D02*
D03*
Y61654D02*
D03*
Y62441D02*
D03*
Y63228D02*
D03*
Y64016D02*
D03*
X13622Y61654D02*
D03*
Y62441D02*
D03*
Y63228D02*
D03*
Y64016D02*
D03*
X9685Y74252D02*
D03*
Y75039D02*
D03*
Y75827D02*
D03*
Y76614D02*
D03*
X10472Y74252D02*
D03*
Y75039D02*
D03*
Y75827D02*
D03*
Y76614D02*
D03*
X11260Y71890D02*
D03*
Y72677D02*
D03*
Y73465D02*
D03*
Y74252D02*
D03*
Y75039D02*
D03*
Y75827D02*
D03*
Y76614D02*
D03*
X12047Y71890D02*
D03*
Y72677D02*
D03*
Y73465D02*
D03*
Y74252D02*
D03*
Y75039D02*
D03*
Y75827D02*
D03*
Y76614D02*
D03*
X12835Y71890D02*
D03*
Y72677D02*
D03*
Y73465D02*
D03*
Y74252D02*
D03*
Y75039D02*
D03*
Y75827D02*
D03*
Y76614D02*
D03*
X15984Y57717D02*
D03*
Y58504D02*
D03*
Y59291D02*
D03*
Y61654D02*
D03*
Y62441D02*
D03*
Y63228D02*
D03*
X16772Y57717D02*
D03*
Y58504D02*
D03*
Y59291D02*
D03*
Y61654D02*
D03*
Y62441D02*
D03*
Y63228D02*
D03*
X17559Y57717D02*
D03*
Y58504D02*
D03*
Y59291D02*
D03*
Y60866D02*
D03*
Y61654D02*
D03*
Y62441D02*
D03*
Y63228D02*
D03*
X18346Y57717D02*
D03*
Y58504D02*
D03*
Y59291D02*
D03*
Y60079D02*
D03*
Y60866D02*
D03*
Y61654D02*
D03*
Y62441D02*
D03*
Y63228D02*
D03*
X19134Y57717D02*
D03*
Y58504D02*
D03*
Y59291D02*
D03*
Y60079D02*
D03*
Y60866D02*
D03*
Y61654D02*
D03*
Y62441D02*
D03*
Y63228D02*
D03*
D45*
X7431Y8317D02*
D03*
X8760Y10335D02*
D03*
X6004D02*
D03*
X5630Y8937D02*
D03*
X5020Y9449D02*
D03*
X4331Y6496D02*
D03*
Y7874D02*
D03*
X14567Y26476D02*
D03*
X14173Y19193D02*
D03*
X13287Y26378D02*
D03*
Y19193D02*
D03*
X9350Y14370D02*
D03*
X6693D02*
D03*
X9646Y18406D02*
D03*
X6988Y19193D02*
D03*
X52461Y18701D02*
D03*
X55118Y19547D02*
D03*
X56791Y17028D02*
D03*
X5709Y16535D02*
D03*
X5807Y14370D02*
D03*
X4921Y13189D02*
D03*
Y17028D02*
D03*
X12303Y27953D02*
D03*
X16634D02*
D03*
X14468Y28051D02*
D03*
X49606Y28543D02*
D03*
X47617Y26870D02*
D03*
X48622Y27165D02*
D03*
X49705Y18701D02*
D03*
X49114Y19488D02*
D03*
X46161Y27461D02*
D03*
X44193Y28445D02*
D03*
X56299Y7087D02*
D03*
X54724Y8268D02*
D03*
X56004Y8957D02*
D03*
X55709Y9744D02*
D03*
X53346D02*
D03*
X55118Y6496D02*
D03*
X57283Y5709D02*
D03*
X55610Y14272D02*
D03*
X52953Y14370D02*
D03*
X53297Y12697D02*
D03*
X56791Y12795D02*
D03*
X56102Y18012D02*
D03*
X55807Y12795D02*
D03*
X60236Y9843D02*
D03*
X58071Y8957D02*
D03*
X57126Y7028D02*
D03*
X48524Y28051D02*
D03*
X46555Y28051D02*
D03*
X1772Y6299D02*
D03*
X1673Y7874D02*
D03*
X17421Y27953D02*
D03*
D46*
X37894Y25683D02*
D03*
Y23333D02*
D03*
X37303Y40053D02*
D03*
Y37703D02*
D03*
X26083Y35439D02*
D03*
Y37789D02*
D03*
D47*
X22447Y17815D02*
D03*
X24797D02*
D03*
D48*
X14852Y29724D02*
D03*
X15463D02*
D03*
X46841Y30118D02*
D03*
X47451D02*
D03*
D49*
X45325Y16732D02*
D03*
X43061D02*
D03*
D50*
X42126Y43061D02*
D03*
Y45325D02*
D03*
X18602Y42963D02*
D03*
Y45226D02*
D03*
X19488Y13484D02*
D03*
Y15748D02*
D03*
D51*
X42618Y28337D02*
D03*
Y30128D02*
D03*
X53740Y28533D02*
D03*
Y30325D02*
D03*
X19094Y28829D02*
D03*
Y30620D02*
D03*
X7776Y29419D02*
D03*
Y31211D02*
D03*
D52*
X24508Y19478D02*
D03*
Y21073D02*
D03*
X37620Y22528D02*
D03*
Y20933D02*
D03*
X24213Y39469D02*
D03*
Y37874D02*
D03*
D53*
X36014Y34843D02*
D03*
X37608D02*
D03*
D54*
X3701Y5464D02*
D03*
X2441D02*
D03*
X3661Y8692D02*
D03*
X2402D02*
D03*
X7441Y14370D02*
D03*
X8701D02*
D03*
X57835Y5709D02*
D03*
X59094D02*
D03*
X56063Y18701D02*
D03*
X57323D02*
D03*
X53799Y14272D02*
D03*
X55059D02*
D03*
X5768Y17421D02*
D03*
X7028D02*
D03*
D55*
X59449Y9803D02*
D03*
Y11063D02*
D03*
D56*
X24557Y15589D02*
D03*
X22293D02*
D03*
D57*
X35630Y23278D02*
D03*
Y25541D02*
D03*
X35138Y37352D02*
D03*
Y39616D02*
D03*
X28346Y37746D02*
D03*
Y35482D02*
D03*
M02*
