G04 Layer_Color=65535*
%FSLAX24Y24*%
%MOIN*%
G70*
G01*
G75*
%ADD58C,0.0236*%
%ADD59C,0.0098*%
%ADD60C,0.0050*%
%ADD61C,0.0080*%
%ADD62C,0.0100*%
%ADD63C,0.0079*%
%ADD64C,0.0039*%
%ADD65C,0.0157*%
%ADD66C,0.0060*%
%ADD67C,0.0079*%
%ADD68C,0.0059*%
%ADD69R,1.5748X0.5906*%
%ADD70R,0.6496X0.3327*%
D58*
X13760Y29488D02*
G03*
X13760Y29488I-118J0D01*
G01*
X45650Y29882D02*
G03*
X45650Y29882I-118J0D01*
G01*
X7008Y11280D02*
G03*
X7008Y11280I-118J0D01*
G01*
X54055Y11378D02*
G03*
X54055Y11378I-118J0D01*
G01*
D59*
X13175Y28652D02*
G03*
X13175Y28652I-49J0D01*
G01*
X45065Y29045D02*
G03*
X45065Y29045I-49J0D01*
G01*
X9537Y16909D02*
G03*
X9537Y16909I-49J0D01*
G01*
X55305Y17598D02*
G03*
X55305Y17598I-49J0D01*
G01*
X6445Y10443D02*
G03*
X6445Y10443I-49J0D01*
G01*
X53492Y10541D02*
G03*
X53492Y10541I-49J0D01*
G01*
X25297Y81574D02*
X25100D01*
X25002Y81476D01*
Y81083D01*
X25100Y80984D01*
X25297D01*
X25395Y81083D01*
Y81476D01*
X25297Y81574D01*
X25592D02*
Y80984D01*
X25985D01*
X26182Y81574D02*
X26576D01*
X26379D01*
Y80984D01*
X27166Y81574D02*
X26773D01*
Y80984D01*
X27166D01*
X26773Y81279D02*
X26969D01*
X27757Y81476D02*
X27658Y81574D01*
X27461D01*
X27363Y81476D01*
Y81378D01*
X27461Y81279D01*
X27658D01*
X27757Y81181D01*
Y81083D01*
X27658Y80984D01*
X27461D01*
X27363Y81083D01*
X27953Y81574D02*
X28347D01*
X28150D01*
Y80984D01*
X29134D02*
X29331D01*
X29232D01*
Y81574D01*
X29134Y81476D01*
X29626Y80984D02*
X29823D01*
X29724D01*
Y81574D01*
X29626Y81476D01*
X30118Y80984D02*
Y81083D01*
X30216D01*
Y80984D01*
X30118D01*
X30610Y81476D02*
X30708Y81574D01*
X30905D01*
X31004Y81476D01*
Y81083D01*
X30905Y80984D01*
X30708D01*
X30610Y81083D01*
Y81476D01*
X31495Y80984D02*
Y81574D01*
X31200Y81279D01*
X31594D01*
X31791Y80984D02*
Y81083D01*
X31889D01*
Y80984D01*
X31791D01*
X32676D02*
X32283D01*
X32676Y81378D01*
Y81476D01*
X32578Y81574D01*
X32381D01*
X32283Y81476D01*
X32873D02*
X32971Y81574D01*
X33168D01*
X33267Y81476D01*
Y81083D01*
X33168Y80984D01*
X32971D01*
X32873Y81083D01*
Y81476D01*
X33463Y80984D02*
X33660D01*
X33562D01*
Y81574D01*
X33463Y81476D01*
X33955Y81083D02*
X34054Y80984D01*
X34250D01*
X34349Y81083D01*
Y81476D01*
X34250Y81574D01*
X34054D01*
X33955Y81476D01*
Y81378D01*
X34054Y81279D01*
X34349D01*
X24114Y78622D02*
Y79212D01*
X24409D01*
X24508Y79114D01*
Y78917D01*
X24409Y78819D01*
X24114D01*
X24311D02*
X24508Y78622D01*
X24705D02*
X24901D01*
X24803D01*
Y79212D01*
X24705Y79114D01*
X25196D02*
X25295Y79212D01*
X25492D01*
X25590Y79114D01*
Y78721D01*
X25492Y78622D01*
X25295D01*
X25196Y78721D01*
Y79114D01*
X25787D02*
X25885Y79212D01*
X26082D01*
X26180Y79114D01*
Y78721D01*
X26082Y78622D01*
X25885D01*
X25787Y78721D01*
Y79114D01*
X26377Y78622D02*
Y78721D01*
X26476D01*
Y78622D01*
X26377D01*
X27263D02*
X26869D01*
X27263Y79016D01*
Y79114D01*
X27164Y79212D01*
X26968D01*
X26869Y79114D01*
X27460D02*
X27558Y79212D01*
X27755D01*
X27853Y79114D01*
Y79016D01*
X27755Y78917D01*
X27656D01*
X27755D01*
X27853Y78819D01*
Y78721D01*
X27755Y78622D01*
X27558D01*
X27460Y78721D01*
X28050Y79114D02*
X28148Y79212D01*
X28345D01*
X28443Y79114D01*
Y78721D01*
X28345Y78622D01*
X28148D01*
X28050Y78721D01*
Y79114D01*
X28640Y78622D02*
Y78721D01*
X28739D01*
Y78622D01*
X28640D01*
X29132Y79114D02*
X29231Y79212D01*
X29427D01*
X29526Y79114D01*
Y78721D01*
X29427Y78622D01*
X29231D01*
X29132Y78721D01*
Y79114D01*
X29723Y78622D02*
X29919D01*
X29821D01*
Y79212D01*
X29723Y79114D01*
X30215D02*
X30313Y79212D01*
X30510D01*
X30608Y79114D01*
Y78721D01*
X30510Y78622D01*
X30313D01*
X30215Y78721D01*
Y79114D01*
X30805Y78622D02*
Y78721D01*
X30903D01*
Y78622D01*
X30805D01*
X31297Y79114D02*
X31395Y79212D01*
X31592D01*
X31690Y79114D01*
Y78721D01*
X31592Y78622D01*
X31395D01*
X31297Y78721D01*
Y79114D01*
X31887D02*
X31986Y79212D01*
X32182D01*
X32281Y79114D01*
Y78721D01*
X32182Y78622D01*
X31986D01*
X31887Y78721D01*
Y79114D01*
X32478D02*
X32576Y79212D01*
X32773D01*
X32871Y79114D01*
Y78721D01*
X32773Y78622D01*
X32576D01*
X32478Y78721D01*
Y79114D01*
X33068Y78917D02*
X33462D01*
X33658Y79114D02*
X33757Y79212D01*
X33954D01*
X34052Y79114D01*
Y78721D01*
X33954Y78622D01*
X33757D01*
X33658Y78721D01*
Y79114D01*
X34249D02*
X34347Y79212D01*
X34544D01*
X34642Y79114D01*
Y78721D01*
X34544Y78622D01*
X34347D01*
X34249Y78721D01*
Y79114D01*
X26576Y80458D02*
X26773D01*
X26674D01*
Y79868D01*
X26576D01*
X26773D01*
X27068D02*
Y80261D01*
X27363D01*
X27461Y80163D01*
Y79868D01*
X27658Y80261D02*
X27855Y79868D01*
X28052Y80261D01*
X28544Y79868D02*
X28347D01*
X28248Y79966D01*
Y80163D01*
X28347Y80261D01*
X28544D01*
X28642Y80163D01*
Y80065D01*
X28248D01*
X28839Y80261D02*
Y79868D01*
Y80065D01*
X28937Y80163D01*
X29036Y80261D01*
X29134D01*
X29528Y80360D02*
Y80261D01*
X29429D01*
X29626D01*
X29528D01*
Y79966D01*
X29626Y79868D01*
X30020D02*
X30216D01*
X30315Y79966D01*
Y80163D01*
X30216Y80261D01*
X30020D01*
X29921Y80163D01*
Y79966D01*
X30020Y79868D01*
X30511Y80261D02*
Y79868D01*
Y80065D01*
X30610Y80163D01*
X30708Y80261D01*
X30807D01*
X31102Y79769D02*
X31495D01*
X31692Y80261D02*
X31889Y79868D01*
X32086Y80261D01*
X32283Y79868D02*
X32479D01*
X32381D01*
Y80458D01*
X32283Y80360D01*
D60*
X15157Y47638D02*
G03*
X15157Y47638I-6890J0D01*
G01*
Y72638D02*
G03*
X15157Y72638I-6890J0D01*
G01*
X58366Y49902D02*
G03*
X58366Y49902I-6890J0D01*
G01*
X52953Y63583D02*
G03*
X52953Y63583I-6890J0D01*
G01*
X59646Y77559D02*
G03*
X59646Y77559I-6890J0D01*
G01*
X21654Y60236D02*
G03*
X21654Y60236I-6890J0D01*
G01*
X6299Y48491D02*
Y48991D01*
X6049Y48741D02*
X6549D01*
X6299Y73491D02*
Y73991D01*
X6049Y73741D02*
X6549D01*
X53445Y48548D02*
Y49048D01*
X53195Y48798D02*
X53695D01*
X48032Y62229D02*
Y62729D01*
X47782Y62479D02*
X48281D01*
X54724Y76206D02*
Y76706D01*
X54474Y76456D02*
X54974D01*
X12795Y61090D02*
Y61590D01*
X12545Y61340D02*
X13045D01*
X13494Y31870D02*
Y33100D01*
Y31870D02*
X15443D01*
Y33100D01*
X13494D02*
X15443D01*
X45384Y32264D02*
Y33494D01*
Y32264D02*
X47333D01*
Y33494D01*
X45384D02*
X47333D01*
X56069Y4980D02*
X57683D01*
X56069D02*
Y5256D01*
X57683D01*
Y4980D02*
Y5256D01*
X55646D02*
X58166D01*
X55646D02*
Y5728D01*
X58166D01*
Y5256D02*
Y5728D01*
X3931Y3681D02*
X5545D01*
Y3406D02*
Y3681D01*
X3931Y3406D02*
X5545D01*
X3931D02*
Y3681D01*
X3448Y3406D02*
X5968D01*
Y2933D02*
Y3406D01*
X3448Y2933D02*
X5968D01*
X3448D02*
Y3406D01*
X4478Y13386D02*
X5364D01*
Y15354D01*
X4478D02*
X5364D01*
X4478Y13386D02*
Y15354D01*
X56447Y13189D02*
X57333D01*
Y15157D01*
X56447D02*
X57333D01*
X56447Y13189D02*
Y15157D01*
X35303Y74228D02*
X36003D01*
X35303D02*
Y77378D01*
X36003D01*
Y74228D02*
Y77378D01*
D61*
X48730Y6487D02*
Y7687D01*
X45530Y6487D02*
X48730D01*
X45530D02*
Y7687D01*
X48730D01*
X27845Y60786D02*
X29045D01*
X27845D02*
Y63986D01*
X29045D01*
Y60786D02*
Y63986D01*
X16250Y6093D02*
Y7293D01*
X13050Y6093D02*
X16250D01*
X13050D02*
Y7293D01*
X16250D01*
X58947Y56143D02*
X60147D01*
Y52943D02*
Y56143D01*
X58947Y52943D02*
X60147D01*
X58947D02*
Y56143D01*
X36003Y73815D02*
X36496D01*
X36003D02*
Y77778D01*
X36496D01*
Y73815D02*
Y77778D01*
X39203Y73461D02*
Y78128D01*
X36503D02*
X39203D01*
X36503Y73461D02*
Y78128D01*
Y73461D02*
X39203D01*
D62*
X11024Y22244D02*
Y38583D01*
X6889D02*
X11024D01*
X3150D02*
X6889D01*
X3150Y22244D02*
Y38583D01*
Y22244D02*
X11024D01*
X58661Y21260D02*
Y37598D01*
X54527D02*
X58661D01*
X50787D02*
X54527D01*
X50787Y21260D02*
Y37598D01*
Y21260D02*
X58661D01*
X18425Y29321D02*
Y52155D01*
X25256D01*
X18425Y29321D02*
X25266D01*
Y52155D01*
Y29321D02*
X31024D01*
Y52155D01*
X25266D02*
X31024D01*
X43740Y29331D02*
Y52165D01*
X36909Y29331D02*
X43740D01*
X36900Y52165D02*
X43740D01*
X36900Y29331D02*
Y52165D01*
X31142D02*
X36900D01*
X31142Y29331D02*
Y52165D01*
Y29331D02*
X36900D01*
X18425Y6122D02*
Y28957D01*
X25256D01*
X18425Y6122D02*
X25266D01*
Y28957D01*
Y6122D02*
X31024D01*
Y28957D01*
X25266D02*
X31024D01*
X43740Y6132D02*
Y28967D01*
X36909Y6132D02*
X43740D01*
X36900Y28967D02*
X43740D01*
X36900Y6132D02*
Y28967D01*
X31142D02*
X36900D01*
X31142Y6132D02*
Y28967D01*
Y6132D02*
X36900D01*
X728Y47569D02*
X1220D01*
X974Y47313D02*
Y47805D01*
X728Y72569D02*
X1220D01*
X974Y72313D02*
Y72805D01*
X58524Y49970D02*
X59016D01*
X58770Y49734D02*
Y50226D01*
X53110Y63652D02*
X53602D01*
X53356Y63415D02*
Y63907D01*
X59803Y77628D02*
X60295D01*
X60049Y77392D02*
Y77884D01*
X7224Y60167D02*
X7717D01*
X7470Y59911D02*
Y60404D01*
X54941Y3061D02*
X55335Y2667D01*
X54547D02*
X55335D01*
X54547D02*
X54941Y3061D01*
X6279Y5994D02*
X6673Y5600D01*
X6279Y5994D02*
X7067D01*
X6673Y5600D02*
X7067Y5994D01*
X16467Y38287D02*
Y39272D01*
X11811Y31270D02*
X12795D01*
X17126Y31073D02*
X18110D01*
X16467Y23524D02*
Y24508D01*
X44754Y33366D02*
Y34350D01*
X43701Y31565D02*
X44685D01*
X49114Y31565D02*
X50098D01*
X45541Y18996D02*
Y19980D01*
X53543Y57874D02*
Y61220D01*
Y57874D02*
X61329D01*
Y61220D01*
X53543D02*
X61329D01*
X54134Y60630D02*
Y61220D01*
Y60630D02*
X60709D01*
Y61220D01*
X54360Y61319D02*
X54754Y61713D01*
X53967D02*
X54754D01*
X53967D02*
X54360Y61319D01*
X61417Y67126D02*
Y70472D01*
X53632D02*
X61417D01*
X53632Y67126D02*
Y70472D01*
Y67126D02*
X61417D01*
X60827D02*
Y67717D01*
X54252D02*
X60827D01*
X54252Y67126D02*
Y67717D01*
X60207Y66634D02*
X60600Y67028D01*
X60207Y66634D02*
X60994D01*
X60600Y67028D02*
X60994Y66634D01*
X4362Y8653D02*
Y15953D01*
X1762Y8653D02*
X4362D01*
X1762D02*
Y16553D01*
X4362D01*
Y15953D02*
Y16553D01*
X60071Y8843D02*
Y16143D01*
X57471Y8843D02*
X60071D01*
X57471D02*
Y16743D01*
X60071D01*
Y16143D02*
Y16743D01*
X39311Y74199D02*
X39705Y74593D01*
Y73805D02*
Y74593D01*
X39311Y74199D02*
X39705Y73805D01*
D63*
X16673Y29094D02*
Y30354D01*
X13248Y29094D02*
Y30354D01*
X16673D01*
X13248Y29094D02*
X16673D01*
X48563Y29488D02*
Y30748D01*
X45138Y29488D02*
Y30748D01*
X48563D01*
X45138Y29488D02*
X48563D01*
X39035Y24577D02*
X41122D01*
X39035Y18317D02*
X41122D01*
Y24577D01*
X39035Y18317D02*
Y24577D01*
X39232Y18317D02*
Y24577D01*
X21004Y18317D02*
X23091D01*
X21004Y24577D02*
X23091D01*
X21004Y18317D02*
Y24577D01*
X23091Y18317D02*
Y24577D01*
X22894Y18317D02*
Y24577D01*
X21004Y33671D02*
X23091D01*
X21004Y39931D02*
X23091D01*
X21004Y33671D02*
Y39931D01*
X23091Y33671D02*
Y39931D01*
X22894Y33671D02*
Y39931D01*
X39035D02*
X41122D01*
X39035Y33671D02*
X41122D01*
Y39931D01*
X39035Y33671D02*
Y39931D01*
X39232Y33671D02*
Y39931D01*
X14173Y32992D02*
X14764D01*
X14173Y31969D02*
X14764D01*
X46063Y33386D02*
X46654D01*
X46063Y32362D02*
X46654D01*
X6850Y16260D02*
X9488D01*
X6850Y15236D02*
X9488D01*
Y16260D01*
X6850Y15236D02*
Y16260D01*
X52618Y16949D02*
X55256D01*
X52618Y15925D02*
X55256D01*
Y16949D01*
X52618Y15925D02*
Y16949D01*
X16870Y39242D02*
Y39331D01*
X18957Y39242D02*
Y39331D01*
X16870Y38228D02*
Y38317D01*
X18957Y38228D02*
Y38317D01*
X16870Y39331D02*
X18957D01*
X16870Y38228D02*
X18957D01*
X12766Y30866D02*
X12854D01*
X12766Y28780D02*
X12854D01*
X11752Y30866D02*
X11841D01*
X11752Y28780D02*
X11841D01*
X12854D02*
Y30866D01*
X11752Y28780D02*
Y30866D01*
X18081Y30669D02*
X18169D01*
X18081Y28583D02*
X18169D01*
X17067Y30669D02*
X17156D01*
X17067Y28583D02*
X17156D01*
X18169D02*
Y30669D01*
X17067Y28583D02*
Y30669D01*
X16870Y24478D02*
Y24567D01*
X18957Y24478D02*
Y24567D01*
X16870Y23465D02*
Y23553D01*
X18957Y23465D02*
Y23553D01*
X16870Y24567D02*
X18957D01*
X16870Y23465D02*
X18957D01*
X44350Y33307D02*
Y33396D01*
X42264Y33307D02*
Y33396D01*
X44350Y34321D02*
Y34409D01*
X42264Y34321D02*
Y34409D01*
Y33307D02*
X44350D01*
X42264Y34409D02*
X44350D01*
X44656Y31161D02*
X44744D01*
X44656Y29075D02*
X44744D01*
X43642Y31161D02*
X43730D01*
X43642Y29075D02*
X43730D01*
X44744D02*
Y31161D01*
X43642Y29075D02*
Y31161D01*
X50069Y31161D02*
X50157D01*
X50069Y29075D02*
X50157D01*
X49055Y31161D02*
X49144D01*
X49055Y29075D02*
X49144D01*
X50157D02*
Y31161D01*
X49055Y29075D02*
Y31161D01*
X45138Y18937D02*
Y19026D01*
X43051Y18937D02*
Y19026D01*
X45138Y19951D02*
Y20039D01*
X43051Y19951D02*
Y20039D01*
Y18937D02*
X45138D01*
X43051Y20039D02*
X45138D01*
X6496Y10886D02*
X8465D01*
X6496Y12146D02*
X8465D01*
X6496Y10886D02*
Y12146D01*
X8465Y10886D02*
Y12146D01*
X53543Y10984D02*
X55512D01*
X53543Y12244D02*
X55512D01*
X53543Y10984D02*
Y12244D01*
X55512Y10984D02*
Y12244D01*
D64*
X17835Y40187D02*
X18189D01*
X17835Y39537D02*
X18189D01*
X17106Y39439D02*
Y40285D01*
Y39439D02*
X18917D01*
Y40285D01*
X17106D02*
X18917D01*
X18622Y34380D02*
X18976D01*
X18622Y33730D02*
X18976D01*
X17894Y33632D02*
Y34478D01*
Y33632D02*
X19705D01*
Y34478D01*
X17894D02*
X19705D01*
X17933Y22963D02*
X18287D01*
X17933Y22313D02*
X18287D01*
X17205Y22215D02*
Y23061D01*
Y22215D02*
X19016D01*
Y23061D01*
X17205D02*
X19016D01*
X17539Y19616D02*
X17894D01*
X17539Y18967D02*
X17894D01*
X16811Y18868D02*
Y19715D01*
Y18868D02*
X18622D01*
Y19715D01*
X16811D02*
X18622D01*
X42835Y32352D02*
X43189D01*
X42835Y33002D02*
X43189D01*
X43917Y32254D02*
Y33100D01*
X42106D02*
X43917D01*
X42106Y32254D02*
Y33100D01*
Y32254D02*
X43917D01*
X44508Y39045D02*
X44862D01*
X44508Y39695D02*
X44862D01*
X45591Y38947D02*
Y39793D01*
X43780D02*
X45591D01*
X43780Y38947D02*
Y39793D01*
Y38947D02*
X45591D01*
X43720Y20344D02*
X44075D01*
X43720Y20994D02*
X44075D01*
X44803Y20246D02*
Y21093D01*
X42992D02*
X44803D01*
X42992Y20246D02*
Y21093D01*
Y20246D02*
X44803D01*
X44508Y23297D02*
X44862D01*
X44508Y23947D02*
X44862D01*
X45591Y23199D02*
Y24045D01*
X43780D02*
X45591D01*
X43780Y23199D02*
Y24045D01*
Y23199D02*
X45591D01*
X57254Y15285D02*
Y16604D01*
X56526Y15285D02*
X57254D01*
X56526D02*
Y16604D01*
X57254D01*
X57146Y15787D02*
Y16102D01*
X56634Y15787D02*
Y16102D01*
X5285Y15482D02*
Y16801D01*
X4557Y15482D02*
X5285D01*
X4557D02*
Y16801D01*
X5285D01*
X5177Y15984D02*
Y16299D01*
X4665Y15984D02*
Y16299D01*
X6722Y7224D02*
Y7264D01*
Y7106D02*
Y7146D01*
X7057Y7106D02*
Y7264D01*
X6722Y7146D02*
Y7224D01*
X6624Y6663D02*
X7156D01*
Y7707D01*
X6624D02*
X7156D01*
X6624Y6663D02*
Y7707D01*
X7608Y7224D02*
Y7264D01*
Y7106D02*
Y7146D01*
X7943Y7106D02*
Y7264D01*
X7608Y7146D02*
Y7224D01*
X7510Y6663D02*
X8041D01*
Y7707D01*
X7510D02*
X8041D01*
X7510Y6663D02*
Y7707D01*
X54163Y7323D02*
Y7362D01*
Y7205D02*
Y7244D01*
X54498Y7205D02*
Y7362D01*
X54163Y7244D02*
Y7323D01*
X54065Y6762D02*
X54596D01*
Y7805D01*
X54065D02*
X54596D01*
X54065Y6762D02*
Y7805D01*
X55049Y7323D02*
Y7362D01*
Y7205D02*
Y7244D01*
X55384Y7205D02*
Y7362D01*
X55049Y7244D02*
Y7323D01*
X54951Y6762D02*
X55482D01*
Y7805D01*
X54951D02*
X55482D01*
X54951Y6762D02*
Y7805D01*
X7362Y8583D02*
Y9724D01*
X6811Y8583D02*
X7362D01*
X6811D02*
Y9724D01*
X7362D01*
X6929Y9094D02*
Y9213D01*
X7244Y9094D02*
Y9213D01*
X8051Y8583D02*
Y9724D01*
X7500Y8583D02*
X8051D01*
X7500D02*
Y9724D01*
X8051D01*
X7618Y9094D02*
Y9213D01*
X7933Y9094D02*
Y9213D01*
X7795Y18622D02*
X8937D01*
X7795D02*
Y19173D01*
X8937D01*
Y18622D02*
Y19173D01*
X8307Y19055D02*
X8425D01*
X8307Y18740D02*
X8425D01*
X54508Y8583D02*
Y9724D01*
X53957Y8583D02*
X54508D01*
X53957D02*
Y9724D01*
X54508D01*
X54075Y9094D02*
Y9213D01*
X54390Y9094D02*
Y9213D01*
X55199Y8583D02*
Y9724D01*
X54647Y8583D02*
X55199D01*
X54647D02*
Y9724D01*
X55199D01*
X54765Y9094D02*
Y9213D01*
X55080Y9094D02*
Y9213D01*
X53465Y18819D02*
X54606D01*
X53465D02*
Y19370D01*
X54606D01*
Y18819D02*
Y19370D01*
X53976Y19252D02*
X54094D01*
X53976Y18937D02*
X54094D01*
X4744Y7067D02*
X5886D01*
Y6516D02*
Y7067D01*
X4744Y6516D02*
X5886D01*
X4744D02*
Y7067D01*
X5256Y6634D02*
X5374D01*
X5256Y6949D02*
X5374D01*
X55433Y5728D02*
X56575D01*
X55433D02*
Y6280D01*
X56575D01*
Y5728D02*
Y6280D01*
X55945Y6161D02*
X56063D01*
X55945Y5846D02*
X56063D01*
D65*
X4370Y6369D02*
Y7944D01*
X60000Y6496D02*
Y8071D01*
D66*
X1890Y8456D02*
X4163D01*
X1890Y5867D02*
Y8456D01*
X4163Y5867D02*
Y8456D01*
X1890Y5867D02*
X4163D01*
X57520Y8583D02*
X59793D01*
X57520Y5994D02*
Y8583D01*
X59793Y5994D02*
Y8583D01*
X57520Y5994D02*
X59793D01*
X19508Y38777D02*
X19308D01*
X19408Y38677D02*
Y38877D01*
X12301Y28228D02*
Y28428D01*
X12201Y28328D02*
X12401D01*
X17616Y28031D02*
Y28231D01*
X17516Y28131D02*
X17716D01*
X19508Y24013D02*
X19308D01*
X19408Y23913D02*
Y24113D01*
X41713Y33861D02*
X41913D01*
X41813Y33961D02*
Y33761D01*
X44191Y28524D02*
Y28724D01*
X44091Y28624D02*
X44291D01*
X49604Y28524D02*
Y28724D01*
X49504Y28624D02*
X49704D01*
X42500Y19490D02*
X42700D01*
X42600Y19590D02*
Y19391D01*
X4899Y13061D02*
Y13261D01*
X4799Y13161D02*
X4999D01*
X56868Y12864D02*
Y13064D01*
X56768Y12964D02*
X56968D01*
D67*
X59701Y3169D02*
Y5335D01*
X59041D02*
X59701D01*
X59041Y4981D02*
Y5335D01*
X58209Y4980D02*
X59041Y4981D01*
X54784Y4980D02*
X58209D01*
X54784D02*
Y5335D01*
X54075D02*
X54784D01*
X54075Y3169D02*
Y5335D01*
Y3169D02*
X59701D01*
X1913Y3327D02*
Y5492D01*
Y3327D02*
X2573D01*
Y3681D01*
X3406Y3681D01*
X6831D01*
Y3327D02*
Y3681D01*
Y3327D02*
X7539D01*
Y5492D01*
X1913D02*
X7539D01*
D68*
X45431Y2287D02*
X45300D01*
X45235Y2221D01*
Y1959D01*
X45300Y1893D01*
X45431D01*
X45497Y1959D01*
Y2221D01*
X45431Y2287D01*
X45628Y2156D02*
Y1959D01*
X45694Y1893D01*
X45891D01*
Y2156D01*
X46087Y2221D02*
Y2156D01*
X46022D01*
X46153D01*
X46087D01*
Y1959D01*
X46153Y1893D01*
X46350Y1828D02*
X46612D01*
X47006Y1893D02*
X46743D01*
X47006Y2156D01*
Y2221D01*
X46940Y2287D01*
X46809D01*
X46743Y2221D01*
X22113Y62828D02*
X22047Y62894D01*
X21916D01*
X21850Y62828D01*
Y62566D01*
X21916Y62500D01*
X22047D01*
X22113Y62566D01*
X22244Y62500D02*
X22375D01*
X22310D01*
Y62894D01*
X22244Y62828D01*
X22572Y62500D02*
X22703D01*
X22638D01*
Y62894D01*
X22572Y62828D01*
X4429Y16929D02*
X4036D01*
Y17126D01*
X4101Y17192D01*
X4232D01*
X4298Y17126D01*
Y16929D01*
Y17060D02*
X4429Y17192D01*
Y17585D02*
Y17323D01*
X4167Y17585D01*
X4101D01*
X4036Y17519D01*
Y17388D01*
X4101Y17323D01*
X4429Y17716D02*
Y17847D01*
Y17782D01*
X4036D01*
X4101Y17716D01*
X4134Y2559D02*
X4396Y2165D01*
Y2559D02*
X4134Y2165D01*
X4527Y2559D02*
X4790D01*
Y2493D01*
X4527Y2231D01*
Y2165D01*
X54396Y5938D02*
X54331Y6004D01*
X54199D01*
X54134Y5938D01*
Y5676D01*
X54199Y5610D01*
X54331D01*
X54396Y5676D01*
X54790Y6004D02*
X54659Y5938D01*
X54527Y5807D01*
Y5676D01*
X54593Y5610D01*
X54724D01*
X54790Y5676D01*
Y5741D01*
X54724Y5807D01*
X54527D01*
X54921Y5938D02*
X54987Y6004D01*
X55118D01*
X55183Y5938D01*
Y5873D01*
X55118Y5807D01*
X55052D01*
X55118D01*
X55183Y5741D01*
Y5676D01*
X55118Y5610D01*
X54987D01*
X54921Y5676D01*
X4987Y7611D02*
X4921Y7677D01*
X4790D01*
X4724Y7611D01*
Y7349D01*
X4790Y7283D01*
X4921D01*
X4987Y7349D01*
X5380Y7677D02*
X5249Y7611D01*
X5118Y7480D01*
Y7349D01*
X5184Y7283D01*
X5315D01*
X5380Y7349D01*
Y7415D01*
X5315Y7480D01*
X5118D01*
X5774Y7283D02*
X5512D01*
X5774Y7546D01*
Y7611D01*
X5708Y7677D01*
X5577D01*
X5512Y7611D01*
X56890Y2756D02*
X57152Y2362D01*
Y2756D02*
X56890Y2362D01*
X57283Y2690D02*
X57349Y2756D01*
X57480D01*
X57546Y2690D01*
Y2625D01*
X57480Y2559D01*
X57546Y2493D01*
Y2428D01*
X57480Y2362D01*
X57349D01*
X57283Y2428D01*
Y2493D01*
X57349Y2559D01*
X57283Y2625D01*
Y2690D01*
X57349Y2559D02*
X57480D01*
X55906Y13583D02*
X56168D01*
X56299Y13714D01*
X56168Y13845D01*
X55906D01*
Y13976D02*
X56299D01*
Y14173D01*
X56234Y14239D01*
X55971D01*
X55906Y14173D01*
Y13976D01*
X56299Y14370D02*
Y14501D01*
Y14435D01*
X55906D01*
X55971Y14370D01*
X56234Y14698D02*
X56299Y14763D01*
Y14895D01*
X56234Y14960D01*
X55971D01*
X55906Y14895D01*
Y14763D01*
X55971Y14698D01*
X56037D01*
X56102Y14763D01*
Y14960D01*
X44094Y18701D02*
Y18438D01*
X44226Y18307D01*
X44357Y18438D01*
Y18701D01*
X44488D02*
Y18307D01*
X44685D01*
X44750Y18373D01*
Y18635D01*
X44685Y18701D01*
X44488D01*
X44882Y18307D02*
X45013D01*
X44947D01*
Y18701D01*
X44882Y18635D01*
X45210D02*
X45275Y18701D01*
X45406D01*
X45472Y18635D01*
Y18569D01*
X45406Y18504D01*
X45472Y18438D01*
Y18373D01*
X45406Y18307D01*
X45275D01*
X45210Y18373D01*
Y18438D01*
X45275Y18504D01*
X45210Y18569D01*
Y18635D01*
X45275Y18504D02*
X45406D01*
X50000Y26969D02*
X50263D01*
X50394Y27100D01*
X50263Y27231D01*
X50000D01*
Y27362D02*
X50394D01*
Y27559D01*
X50328Y27624D01*
X50066D01*
X50000Y27559D01*
Y27362D01*
X50394Y27756D02*
Y27887D01*
Y27821D01*
X50000D01*
X50066Y27756D01*
X50000Y28084D02*
Y28346D01*
X50066D01*
X50328Y28084D01*
X50394D01*
X42028Y30610D02*
Y30348D01*
X42159Y30217D01*
X42290Y30348D01*
Y30610D01*
X42421D02*
Y30217D01*
X42618D01*
X42684Y30282D01*
Y30545D01*
X42618Y30610D01*
X42421D01*
X42815Y30217D02*
X42946D01*
X42880D01*
Y30610D01*
X42815Y30545D01*
X43405Y30610D02*
X43274Y30545D01*
X43143Y30413D01*
Y30282D01*
X43208Y30217D01*
X43339D01*
X43405Y30282D01*
Y30348D01*
X43339Y30413D01*
X43143D01*
X42165Y35157D02*
Y34895D01*
X42297Y34764D01*
X42428Y34895D01*
Y35157D01*
X42559D02*
Y34764D01*
X42756D01*
X42821Y34829D01*
Y35092D01*
X42756Y35157D01*
X42559D01*
X42952Y34764D02*
X43084D01*
X43018D01*
Y35157D01*
X42952Y35092D01*
X43543Y35157D02*
X43280D01*
Y34961D01*
X43412Y35026D01*
X43477D01*
X43543Y34961D01*
Y34829D01*
X43477Y34764D01*
X43346D01*
X43280Y34829D01*
X5709Y12598D02*
X5971D01*
X6102Y12730D01*
X5971Y12861D01*
X5709D01*
Y12992D02*
X6102D01*
Y13189D01*
X6037Y13254D01*
X5774D01*
X5709Y13189D01*
Y12992D01*
X6102Y13386D02*
Y13517D01*
Y13451D01*
X5709D01*
X5774Y13386D01*
X6102Y13910D02*
X5709D01*
X5906Y13714D01*
Y13976D01*
X16476Y25328D02*
Y25066D01*
X16607Y24935D01*
X16739Y25066D01*
Y25328D01*
X16870D02*
Y24935D01*
X17067D01*
X17132Y25000D01*
Y25263D01*
X17067Y25328D01*
X16870D01*
X17263Y24935D02*
X17395D01*
X17329D01*
Y25328D01*
X17263Y25263D01*
X17591D02*
X17657Y25328D01*
X17788D01*
X17854Y25263D01*
Y25197D01*
X17788Y25132D01*
X17723D01*
X17788D01*
X17854Y25066D01*
Y25000D01*
X17788Y24935D01*
X17657D01*
X17591Y25000D01*
X17421Y31398D02*
X17684D01*
X17815Y31529D01*
X17684Y31660D01*
X17421D01*
Y31791D02*
X17815D01*
Y31988D01*
X17749Y32054D01*
X17487D01*
X17421Y31988D01*
Y31791D01*
X17815Y32185D02*
Y32316D01*
Y32250D01*
X17421D01*
X17487Y32185D01*
X17815Y32775D02*
Y32513D01*
X17553Y32775D01*
X17487D01*
X17421Y32710D01*
Y32578D01*
X17487Y32513D01*
X11516Y31988D02*
Y31726D01*
X11647Y31594D01*
X11778Y31726D01*
Y31988D01*
X11909D02*
Y31594D01*
X12106D01*
X12172Y31660D01*
Y31922D01*
X12106Y31988D01*
X11909D01*
X12303Y31594D02*
X12434D01*
X12368D01*
Y31988D01*
X12303Y31922D01*
X12631Y31594D02*
X12762D01*
X12696D01*
Y31988D01*
X12631Y31922D01*
X16634Y38090D02*
Y37828D01*
X16765Y37697D01*
X16896Y37828D01*
Y38090D01*
X17027D02*
Y37697D01*
X17224D01*
X17290Y37762D01*
Y38025D01*
X17224Y38090D01*
X17027D01*
X17421Y37697D02*
X17552D01*
X17487D01*
Y38090D01*
X17421Y38025D01*
X17749D02*
X17815Y38090D01*
X17946D01*
X18011Y38025D01*
Y37762D01*
X17946Y37697D01*
X17815D01*
X17749Y37762D01*
Y38025D01*
X44390Y22539D02*
Y22933D01*
X44587D01*
X44652Y22867D01*
Y22736D01*
X44587Y22671D01*
X44390D01*
X44521D02*
X44652Y22539D01*
X44783Y22867D02*
X44849Y22933D01*
X44980D01*
X45046Y22867D01*
Y22802D01*
X44980Y22736D01*
X44915D01*
X44980D01*
X45046Y22671D01*
Y22605D01*
X44980Y22539D01*
X44849D01*
X44783Y22605D01*
X45439Y22539D02*
X45177D01*
X45439Y22802D01*
Y22867D01*
X45374Y22933D01*
X45243D01*
X45177Y22867D01*
X44094Y21260D02*
Y21653D01*
X44291D01*
X44357Y21588D01*
Y21457D01*
X44291Y21391D01*
X44094D01*
X44226D02*
X44357Y21260D01*
X44488Y21588D02*
X44554Y21653D01*
X44685D01*
X44750Y21588D01*
Y21522D01*
X44685Y21457D01*
X44619D01*
X44685D01*
X44750Y21391D01*
Y21325D01*
X44685Y21260D01*
X44554D01*
X44488Y21325D01*
X44882Y21260D02*
X45013D01*
X44947D01*
Y21653D01*
X44882Y21588D01*
X56201Y15453D02*
X55807D01*
Y15650D01*
X55873Y15715D01*
X56004D01*
X56070Y15650D01*
Y15453D01*
Y15584D02*
X56201Y15715D01*
Y16109D02*
Y15846D01*
X55938Y16109D01*
X55873D01*
X55807Y16043D01*
Y15912D01*
X55873Y15846D01*
X56135Y16240D02*
X56201Y16306D01*
Y16437D01*
X56135Y16502D01*
X55873D01*
X55807Y16437D01*
Y16306D01*
X55873Y16240D01*
X55938D01*
X56004Y16306D01*
Y16502D01*
X44094Y40059D02*
Y40453D01*
X44291D01*
X44357Y40387D01*
Y40256D01*
X44291Y40190D01*
X44094D01*
X44226D02*
X44357Y40059D01*
X44750D02*
X44488D01*
X44750Y40321D01*
Y40387D01*
X44685Y40453D01*
X44554D01*
X44488Y40387D01*
X44882D02*
X44947Y40453D01*
X45078D01*
X45144Y40387D01*
Y40321D01*
X45078Y40256D01*
X45144Y40190D01*
Y40125D01*
X45078Y40059D01*
X44947D01*
X44882Y40125D01*
Y40190D01*
X44947Y40256D01*
X44882Y40321D01*
Y40387D01*
X44947Y40256D02*
X45078D01*
X42323Y31594D02*
Y31988D01*
X42520D01*
X42585Y31922D01*
Y31791D01*
X42520Y31726D01*
X42323D01*
X42454D02*
X42585Y31594D01*
X42979D02*
X42716D01*
X42979Y31857D01*
Y31922D01*
X42913Y31988D01*
X42782D01*
X42716Y31922D01*
X43110Y31988D02*
X43372D01*
Y31922D01*
X43110Y31660D01*
Y31594D01*
X56004Y6693D02*
X55610D01*
Y6890D01*
X55676Y6955D01*
X55807D01*
X55873Y6890D01*
Y6693D01*
Y6824D02*
X56004Y6955D01*
Y7349D02*
Y7086D01*
X55742Y7349D01*
X55676D01*
X55610Y7283D01*
Y7152D01*
X55676Y7086D01*
X55610Y7742D02*
X55676Y7611D01*
X55807Y7480D01*
X55938D01*
X56004Y7546D01*
Y7677D01*
X55938Y7742D01*
X55873D01*
X55807Y7677D01*
Y7480D01*
X53937Y6594D02*
X53543D01*
Y6791D01*
X53609Y6857D01*
X53740D01*
X53806Y6791D01*
Y6594D01*
Y6726D02*
X53937Y6857D01*
Y7250D02*
Y6988D01*
X53675Y7250D01*
X53609D01*
X53543Y7185D01*
Y7054D01*
X53609Y6988D01*
X53543Y7644D02*
Y7382D01*
X53740D01*
X53675Y7513D01*
Y7578D01*
X53740Y7644D01*
X53871D01*
X53937Y7578D01*
Y7447D01*
X53871Y7382D01*
X17224Y18110D02*
Y18504D01*
X17421D01*
X17487Y18438D01*
Y18307D01*
X17421Y18241D01*
X17224D01*
X17356D02*
X17487Y18110D01*
X17880D02*
X17618D01*
X17880Y18373D01*
Y18438D01*
X17815Y18504D01*
X17684D01*
X17618Y18438D01*
X18208Y18110D02*
Y18504D01*
X18012Y18307D01*
X18274D01*
X17028Y21555D02*
Y21949D01*
X17224D01*
X17290Y21883D01*
Y21752D01*
X17224Y21686D01*
X17028D01*
X17159D02*
X17290Y21555D01*
X17684D02*
X17421D01*
X17684Y21818D01*
Y21883D01*
X17618Y21949D01*
X17487D01*
X17421Y21883D01*
X17815D02*
X17880Y21949D01*
X18011D01*
X18077Y21883D01*
Y21818D01*
X18011Y21752D01*
X17946D01*
X18011D01*
X18077Y21686D01*
Y21621D01*
X18011Y21555D01*
X17880D01*
X17815Y21621D01*
X18799Y32972D02*
Y33366D01*
X18996D01*
X19062Y33300D01*
Y33169D01*
X18996Y33104D01*
X18799D01*
X18930D02*
X19062Y32972D01*
X19455D02*
X19193D01*
X19455Y33235D01*
Y33300D01*
X19390Y33366D01*
X19258D01*
X19193Y33300D01*
X19586D02*
X19652Y33366D01*
X19783D01*
X19849Y33300D01*
Y33038D01*
X19783Y32972D01*
X19652D01*
X19586Y33038D01*
Y33300D01*
X17421Y40453D02*
Y40846D01*
X17618D01*
X17684Y40781D01*
Y40650D01*
X17618Y40584D01*
X17421D01*
X17552D02*
X17684Y40453D01*
X17815D02*
X17946D01*
X17880D01*
Y40846D01*
X17815Y40781D01*
X18143Y40518D02*
X18208Y40453D01*
X18340D01*
X18405Y40518D01*
Y40781D01*
X18340Y40846D01*
X18208D01*
X18143Y40781D01*
Y40715D01*
X18208Y40650D01*
X18405D01*
X8858Y6693D02*
X8465D01*
Y6890D01*
X8530Y6955D01*
X8661D01*
X8727Y6890D01*
Y6693D01*
Y6824D02*
X8858Y6955D01*
Y7086D02*
Y7218D01*
Y7152D01*
X8465D01*
X8530Y7086D01*
Y7414D02*
X8465Y7480D01*
Y7611D01*
X8530Y7677D01*
X8596D01*
X8661Y7611D01*
X8727Y7677D01*
X8793D01*
X8858Y7611D01*
Y7480D01*
X8793Y7414D01*
X8727D01*
X8661Y7480D01*
X8596Y7414D01*
X8530D01*
X8661Y7480D02*
Y7611D01*
X6496Y6496D02*
X6102D01*
Y6693D01*
X6168Y6758D01*
X6299D01*
X6365Y6693D01*
Y6496D01*
Y6627D02*
X6496Y6758D01*
Y6890D02*
Y7021D01*
Y6955D01*
X6102D01*
X6168Y6890D01*
X6102Y7218D02*
Y7480D01*
X6168D01*
X6430Y7218D01*
X6496D01*
X60236Y6890D02*
X60630D01*
Y7152D01*
Y7283D02*
Y7415D01*
Y7349D01*
X60236D01*
X60302Y7283D01*
Y7611D02*
X60236Y7677D01*
Y7808D01*
X60302Y7874D01*
X60564D01*
X60630Y7808D01*
Y7677D01*
X60564Y7611D01*
X60302D01*
X886Y7185D02*
Y6791D01*
X1148D01*
X1279Y6857D02*
X1345Y6791D01*
X1476D01*
X1542Y6857D01*
Y7119D01*
X1476Y7185D01*
X1345D01*
X1279Y7119D01*
Y7054D01*
X1345Y6988D01*
X1542D01*
X51968Y12205D02*
Y11811D01*
X52165D01*
X52231Y11877D01*
Y12139D01*
X52165Y12205D01*
X51968D01*
X52362D02*
Y11811D01*
X52559D01*
X52624Y11877D01*
Y12139D01*
X52559Y12205D01*
X52362D01*
X53018Y11811D02*
X52756D01*
X53018Y12073D01*
Y12139D01*
X52952Y12205D01*
X52821D01*
X52756Y12139D01*
X8661Y12401D02*
Y12008D01*
X8858D01*
X8924Y12073D01*
Y12336D01*
X8858Y12401D01*
X8661D01*
X9055D02*
Y12008D01*
X9252D01*
X9317Y12073D01*
Y12336D01*
X9252Y12401D01*
X9055D01*
X9449Y12008D02*
X9580D01*
X9514D01*
Y12401D01*
X9449Y12336D01*
X51870Y15846D02*
X52264D01*
Y16043D01*
X52198Y16109D01*
X51936D01*
X51870Y16043D01*
Y15846D01*
X52264Y16240D02*
X52001D01*
X51870Y16371D01*
X52001Y16502D01*
X52264D01*
X52067D01*
Y16240D01*
X51870Y16896D02*
X51936Y16765D01*
X52067Y16634D01*
X52198D01*
X52264Y16699D01*
Y16830D01*
X52198Y16896D01*
X52133D01*
X52067Y16830D01*
Y16634D01*
X58268Y17520D02*
Y17126D01*
X58464D01*
X58530Y17192D01*
Y17454D01*
X58464Y17520D01*
X58268D01*
X58661D02*
Y17126D01*
X58858D01*
X58924Y17192D01*
Y17454D01*
X58858Y17520D01*
X58661D01*
X59252Y17126D02*
Y17520D01*
X59055Y17323D01*
X59317D01*
X47480Y32362D02*
Y31969D01*
X47677D01*
X47743Y32034D01*
Y32296D01*
X47677Y32362D01*
X47480D01*
X47874Y31969D02*
Y32231D01*
X48005Y32362D01*
X48136Y32231D01*
Y31969D01*
Y32165D01*
X47874D01*
X48464Y31969D02*
Y32362D01*
X48267Y32165D01*
X48530D01*
X9744Y15945D02*
Y15551D01*
X9941D01*
X10006Y15617D01*
Y15879D01*
X9941Y15945D01*
X9744D01*
X10138Y15551D02*
Y15814D01*
X10269Y15945D01*
X10400Y15814D01*
Y15551D01*
Y15748D01*
X10138D01*
X10531Y15879D02*
X10597Y15945D01*
X10728D01*
X10794Y15879D01*
Y15814D01*
X10728Y15748D01*
X10662D01*
X10728D01*
X10794Y15682D01*
Y15617D01*
X10728Y15551D01*
X10597D01*
X10531Y15617D01*
X2264Y17126D02*
Y16732D01*
X2461D01*
X2526Y16798D01*
Y17060D01*
X2461Y17126D01*
X2264D01*
X2657D02*
Y16732D01*
X2854D01*
X2920Y16798D01*
Y17060D01*
X2854Y17126D01*
X2657D01*
X3051Y17060D02*
X3117Y17126D01*
X3248D01*
X3313Y17060D01*
Y16995D01*
X3248Y16929D01*
X3182D01*
X3248D01*
X3313Y16863D01*
Y16798D01*
X3248Y16732D01*
X3117D01*
X3051Y16798D01*
X15846Y32086D02*
Y31693D01*
X16043D01*
X16109Y31759D01*
Y32021D01*
X16043Y32086D01*
X15846D01*
X16240Y31693D02*
Y31955D01*
X16371Y32086D01*
X16502Y31955D01*
Y31693D01*
Y31890D01*
X16240D01*
X16634Y31693D02*
X16765D01*
X16699D01*
Y32086D01*
X16634Y32021D01*
X53806Y19915D02*
X53740Y19980D01*
X53609D01*
X53543Y19915D01*
Y19652D01*
X53609Y19587D01*
X53740D01*
X53806Y19652D01*
X54199Y19980D02*
X54068Y19915D01*
X53937Y19783D01*
Y19652D01*
X54002Y19587D01*
X54134D01*
X54199Y19652D01*
Y19718D01*
X54134Y19783D01*
X53937D01*
X54330Y19587D02*
X54462D01*
X54396D01*
Y19980D01*
X54330Y19915D01*
X46030Y34088D02*
X45964Y34153D01*
X45833D01*
X45768Y34088D01*
Y33825D01*
X45833Y33760D01*
X45964D01*
X46030Y33825D01*
X46424Y34153D02*
X46161D01*
Y33957D01*
X46292Y34022D01*
X46358D01*
X46424Y33957D01*
Y33825D01*
X46358Y33760D01*
X46227D01*
X46161Y33825D01*
X46555Y34088D02*
X46620Y34153D01*
X46752D01*
X46817Y34088D01*
Y33825D01*
X46752Y33760D01*
X46620D01*
X46555Y33825D01*
Y34088D01*
X55381Y8530D02*
X55315Y8464D01*
Y8333D01*
X55381Y8268D01*
X55643D01*
X55709Y8333D01*
Y8464D01*
X55643Y8530D01*
X55709Y8858D02*
X55315D01*
X55512Y8661D01*
Y8924D01*
X55643Y9055D02*
X55709Y9120D01*
Y9252D01*
X55643Y9317D01*
X55381D01*
X55315Y9252D01*
Y9120D01*
X55381Y9055D01*
X55446D01*
X55512Y9120D01*
Y9317D01*
X53511Y8432D02*
X53445Y8366D01*
Y8235D01*
X53511Y8169D01*
X53773D01*
X53839Y8235D01*
Y8366D01*
X53773Y8432D01*
X53839Y8760D02*
X53445D01*
X53642Y8563D01*
Y8825D01*
X53511Y8956D02*
X53445Y9022D01*
Y9153D01*
X53511Y9219D01*
X53576D01*
X53642Y9153D01*
X53707Y9219D01*
X53773D01*
X53839Y9153D01*
Y9022D01*
X53773Y8956D01*
X53707D01*
X53642Y9022D01*
X53576Y8956D01*
X53511D01*
X53642Y9022D02*
Y9153D01*
X8136Y19619D02*
X8071Y19685D01*
X7940D01*
X7874Y19619D01*
Y19357D01*
X7940Y19291D01*
X8071D01*
X8136Y19357D01*
X8464Y19291D02*
Y19685D01*
X8268Y19488D01*
X8530D01*
X8661Y19685D02*
X8924D01*
Y19619D01*
X8661Y19357D01*
Y19291D01*
X13924Y33802D02*
X13858Y33868D01*
X13727D01*
X13661Y33802D01*
Y33540D01*
X13727Y33474D01*
X13858D01*
X13924Y33540D01*
X14055Y33802D02*
X14121Y33868D01*
X14252D01*
X14317Y33802D01*
Y33737D01*
X14252Y33671D01*
X14186D01*
X14252D01*
X14317Y33606D01*
Y33540D01*
X14252Y33474D01*
X14121D01*
X14055Y33540D01*
X14711Y33868D02*
X14580Y33802D01*
X14449Y33671D01*
Y33540D01*
X14514Y33474D01*
X14645D01*
X14711Y33540D01*
Y33606D01*
X14645Y33671D01*
X14449D01*
X8235Y8924D02*
X8169Y8858D01*
Y8727D01*
X8235Y8661D01*
X8497D01*
X8563Y8727D01*
Y8858D01*
X8497Y8924D01*
X8235Y9055D02*
X8169Y9121D01*
Y9252D01*
X8235Y9317D01*
X8301D01*
X8366Y9252D01*
Y9186D01*
Y9252D01*
X8432Y9317D01*
X8497D01*
X8563Y9252D01*
Y9121D01*
X8497Y9055D01*
X8169Y9711D02*
Y9449D01*
X8366D01*
X8301Y9580D01*
Y9645D01*
X8366Y9711D01*
X8497D01*
X8563Y9645D01*
Y9514D01*
X8497Y9449D01*
X6365Y8924D02*
X6299Y8858D01*
Y8727D01*
X6365Y8661D01*
X6627D01*
X6693Y8727D01*
Y8858D01*
X6627Y8924D01*
X6365Y9055D02*
X6299Y9121D01*
Y9252D01*
X6365Y9317D01*
X6431D01*
X6496Y9252D01*
Y9186D01*
Y9252D01*
X6562Y9317D01*
X6627D01*
X6693Y9252D01*
Y9121D01*
X6627Y9055D01*
X6693Y9645D02*
X6299D01*
X6496Y9449D01*
Y9711D01*
X59711Y74737D02*
X59646Y74803D01*
X59514D01*
X59449Y74737D01*
Y74475D01*
X59514Y74409D01*
X59646D01*
X59711Y74475D01*
X60105Y74803D02*
X59974Y74737D01*
X59842Y74606D01*
Y74475D01*
X59908Y74409D01*
X60039D01*
X60105Y74475D01*
Y74541D01*
X60039Y74606D01*
X59842D01*
X43727Y63517D02*
X43661Y63583D01*
X43530D01*
X43465Y63517D01*
Y63255D01*
X43530Y63189D01*
X43661D01*
X43727Y63255D01*
X43858Y63517D02*
X43924Y63583D01*
X44055D01*
X44121Y63517D01*
Y63451D01*
X44055Y63386D01*
X44121Y63320D01*
Y63255D01*
X44055Y63189D01*
X43924D01*
X43858Y63255D01*
Y63320D01*
X43924Y63386D01*
X43858Y63451D01*
Y63517D01*
X43924Y63386D02*
X44055D01*
X59219Y48950D02*
X59153Y49016D01*
X59022D01*
X58957Y48950D01*
Y48688D01*
X59022Y48622D01*
X59153D01*
X59219Y48688D01*
X59350D02*
X59416Y48622D01*
X59547D01*
X59613Y48688D01*
Y48950D01*
X59547Y49016D01*
X59416D01*
X59350Y48950D01*
Y48884D01*
X59416Y48819D01*
X59613D01*
X8432Y80085D02*
X8366Y80020D01*
Y79888D01*
X8432Y79823D01*
X8694D01*
X8760Y79888D01*
Y80020D01*
X8694Y80085D01*
X8760Y80216D02*
Y80348D01*
Y80282D01*
X8366D01*
X8432Y80216D01*
Y80544D02*
X8366Y80610D01*
Y80741D01*
X8432Y80807D01*
X8694D01*
X8760Y80741D01*
Y80610D01*
X8694Y80544D01*
X8432D01*
X558Y50164D02*
X492Y50098D01*
Y49967D01*
X558Y49902D01*
X820D01*
X886Y49967D01*
Y50098D01*
X820Y50164D01*
X886Y50295D02*
Y50426D01*
Y50361D01*
X492D01*
X558Y50295D01*
X886Y50886D02*
Y50623D01*
X623Y50886D01*
X558D01*
X492Y50820D01*
Y50689D01*
X558Y50623D01*
X49869Y34219D02*
X49803Y34153D01*
Y34022D01*
X49869Y33957D01*
X50131D01*
X50197Y34022D01*
Y34153D01*
X50131Y34219D01*
X50197Y34350D02*
Y34481D01*
Y34416D01*
X49803D01*
X49869Y34350D01*
X49803Y34941D02*
Y34678D01*
X50000D01*
X49934Y34809D01*
Y34875D01*
X50000Y34941D01*
X50131D01*
X50197Y34875D01*
Y34744D01*
X50131Y34678D01*
X11581Y23392D02*
X11516Y23327D01*
Y23196D01*
X11581Y23130D01*
X11844D01*
X11909Y23196D01*
Y23327D01*
X11844Y23392D01*
X11909Y23523D02*
Y23655D01*
Y23589D01*
X11516D01*
X11581Y23523D01*
X11516Y23851D02*
Y24114D01*
X11581D01*
X11844Y23851D01*
X11909D01*
X44094Y27854D02*
Y27461D01*
Y27657D01*
X44357D01*
Y27854D01*
Y27461D01*
X44750Y27789D02*
X44685Y27854D01*
X44554D01*
X44488Y27789D01*
Y27723D01*
X44554Y27657D01*
X44685D01*
X44750Y27592D01*
Y27526D01*
X44685Y27461D01*
X44554D01*
X44488Y27526D01*
X44882Y27461D02*
X45013D01*
X44947D01*
Y27854D01*
X44882Y27789D01*
X16929Y26968D02*
Y26575D01*
Y26772D01*
X17192D01*
Y26968D01*
Y26575D01*
X17585Y26903D02*
X17519Y26968D01*
X17388D01*
X17323Y26903D01*
Y26837D01*
X17388Y26772D01*
X17519D01*
X17585Y26706D01*
Y26640D01*
X17519Y26575D01*
X17388D01*
X17323Y26640D01*
X17979Y26575D02*
X17716D01*
X17979Y26837D01*
Y26903D01*
X17913Y26968D01*
X17782D01*
X17716Y26903D01*
X41339Y53149D02*
Y52756D01*
Y52953D01*
X41601D01*
Y53149D01*
Y52756D01*
X41995Y53084D02*
X41929Y53149D01*
X41798D01*
X41732Y53084D01*
Y53018D01*
X41798Y52953D01*
X41929D01*
X41995Y52887D01*
Y52821D01*
X41929Y52756D01*
X41798D01*
X41732Y52821D01*
X42126Y53084D02*
X42191Y53149D01*
X42323D01*
X42388Y53084D01*
Y53018D01*
X42323Y52953D01*
X42257D01*
X42323D01*
X42388Y52887D01*
Y52821D01*
X42323Y52756D01*
X42191D01*
X42126Y52821D01*
X20177Y53248D02*
Y52854D01*
Y53051D01*
X20440D01*
Y53248D01*
Y52854D01*
X20833Y53182D02*
X20768Y53248D01*
X20636D01*
X20571Y53182D01*
Y53117D01*
X20636Y53051D01*
X20768D01*
X20833Y52986D01*
Y52920D01*
X20768Y52854D01*
X20636D01*
X20571Y52920D01*
X21161Y52854D02*
Y53248D01*
X20964Y53051D01*
X21227D01*
X41339Y40256D02*
Y39993D01*
X41470Y39862D01*
X41601Y39993D01*
Y40256D01*
X41732D02*
X41995D01*
X41863D01*
Y39862D01*
X42388D02*
X42126D01*
X42388Y40125D01*
Y40190D01*
X42323Y40256D01*
X42191D01*
X42126Y40190D01*
X21457Y40846D02*
Y40584D01*
X21588Y40453D01*
X21719Y40584D01*
Y40846D01*
X21850D02*
X22113D01*
X21981D01*
Y40453D01*
X22244D02*
X22375D01*
X22309D01*
Y40846D01*
X22244Y40781D01*
X21161Y25394D02*
Y25131D01*
X21293Y25000D01*
X21424Y25131D01*
Y25394D01*
X21555D02*
X21817D01*
X21686D01*
Y25000D01*
X21949Y25328D02*
X22014Y25394D01*
X22145D01*
X22211Y25328D01*
Y25262D01*
X22145Y25197D01*
X22080D01*
X22145D01*
X22211Y25131D01*
Y25066D01*
X22145Y25000D01*
X22014D01*
X21949Y25066D01*
X39764Y17913D02*
Y17651D01*
X39895Y17520D01*
X40026Y17651D01*
Y17913D01*
X40157D02*
X40420D01*
X40289D01*
Y17520D01*
X40748D02*
Y17913D01*
X40551Y17716D01*
X40813D01*
X59843Y71260D02*
X60236Y71522D01*
X59843D02*
X60236Y71260D01*
Y71653D02*
Y71785D01*
Y71719D01*
X59843D01*
X59908Y71653D01*
X59449Y50886D02*
X59843Y51148D01*
X59449D02*
X59843Y50886D01*
X59515Y51279D02*
X59449Y51345D01*
Y51476D01*
X59515Y51542D01*
X59580D01*
X59646Y51476D01*
Y51411D01*
Y51476D01*
X59711Y51542D01*
X59777D01*
X59843Y51476D01*
Y51345D01*
X59777Y51279D01*
X55709Y56693D02*
X56102Y56955D01*
X55709D02*
X56102Y56693D01*
Y57349D02*
Y57086D01*
X55840Y57349D01*
X55774D01*
X55709Y57283D01*
Y57152D01*
X55774Y57086D01*
X37205Y79724D02*
X37467Y79331D01*
Y79724D02*
X37205Y79331D01*
X37795D02*
Y79724D01*
X37598Y79528D01*
X37861D01*
X14173Y4331D02*
X14436Y3937D01*
Y4331D02*
X14173Y3937D01*
X14829Y4331D02*
X14567D01*
Y4134D01*
X14698Y4199D01*
X14764D01*
X14829Y4134D01*
Y4003D01*
X14764Y3937D01*
X14632D01*
X14567Y4003D01*
X27867Y64683D02*
X28130Y64289D01*
Y64683D02*
X27867Y64289D01*
X28261Y64355D02*
X28326Y64289D01*
X28458D01*
X28523Y64355D01*
Y64617D01*
X28458Y64683D01*
X28326D01*
X28261Y64617D01*
Y64551D01*
X28326Y64486D01*
X28523D01*
X46850Y5118D02*
X47113Y4724D01*
Y5118D02*
X46850Y4724D01*
X47506Y5118D02*
X47375Y5052D01*
X47244Y4921D01*
Y4790D01*
X47310Y4724D01*
X47441D01*
X47506Y4790D01*
Y4856D01*
X47441Y4921D01*
X47244D01*
X13583Y2362D02*
X13451D01*
X13386Y2296D01*
Y2034D01*
X13451Y1969D01*
X13583D01*
X13648Y2034D01*
Y2296D01*
X13583Y2362D01*
X13779Y2231D02*
Y2034D01*
X13845Y1969D01*
X14042D01*
Y2231D01*
X14239Y2296D02*
Y2231D01*
X14173D01*
X14304D01*
X14239D01*
Y2034D01*
X14304Y1969D01*
X14501Y1903D02*
X14763D01*
X14895Y1969D02*
X15026D01*
X14960D01*
Y2362D01*
X14895Y2296D01*
X41309Y23786D02*
Y23393D01*
X41900D01*
Y23786D01*
X41604Y23393D02*
Y23589D01*
X41408Y21640D02*
X41309Y21542D01*
Y21345D01*
X41408Y21247D01*
X41801D01*
X41900Y21345D01*
Y21542D01*
X41801Y21640D01*
X41408Y19695D02*
X41309Y19596D01*
Y19400D01*
X41408Y19301D01*
X41801D01*
X41900Y19400D01*
Y19596D01*
X41801Y19695D01*
X41604D01*
Y19498D01*
X20817Y19108D02*
Y19501D01*
X20226D01*
Y19108D01*
X20522Y19501D02*
Y19304D01*
X20718Y21253D02*
X20817Y21352D01*
Y21548D01*
X20718Y21647D01*
X20325D01*
X20226Y21548D01*
Y21352D01*
X20325Y21253D01*
X20718Y23199D02*
X20817Y23297D01*
Y23494D01*
X20718Y23593D01*
X20325D01*
X20226Y23494D01*
Y23297D01*
X20325Y23199D01*
X20522D01*
Y23396D01*
X20817Y34462D02*
Y34855D01*
X20226D01*
Y34462D01*
X20522Y34855D02*
Y34659D01*
X20718Y36608D02*
X20817Y36706D01*
Y36903D01*
X20718Y37001D01*
X20325D01*
X20226Y36903D01*
Y36706D01*
X20325Y36608D01*
X20718Y38553D02*
X20817Y38652D01*
Y38848D01*
X20718Y38947D01*
X20325D01*
X20226Y38848D01*
Y38652D01*
X20325Y38553D01*
X20522D01*
Y38750D01*
X41309Y39140D02*
Y38747D01*
X41900D01*
Y39140D01*
X41604Y38747D02*
Y38944D01*
X41408Y36995D02*
X41309Y36896D01*
Y36700D01*
X41408Y36601D01*
X41801D01*
X41900Y36700D01*
Y36896D01*
X41801Y36995D01*
X41408Y35049D02*
X41309Y34951D01*
Y34754D01*
X41408Y34655D01*
X41801D01*
X41900Y34754D01*
Y34951D01*
X41801Y35049D01*
X41604D01*
Y34852D01*
X53412Y65289D02*
X53346Y65354D01*
X53215D01*
X53150Y65289D01*
Y65026D01*
X53215Y64961D01*
X53346D01*
X53412Y65026D01*
X53543Y65289D02*
X53609Y65354D01*
X53740D01*
X53806Y65289D01*
Y65223D01*
X53740Y65157D01*
X53806Y65092D01*
Y65026D01*
X53740Y64961D01*
X53609D01*
X53543Y65026D01*
Y65092D01*
X53609Y65157D01*
X53543Y65223D01*
Y65289D01*
X53609Y65157D02*
X53740D01*
X2677Y1535D02*
Y1142D01*
X2874D01*
X2940Y1207D01*
Y1470D01*
X2874Y1535D01*
X2677D01*
X3071Y1404D02*
Y1142D01*
Y1273D01*
X3136Y1339D01*
X3202Y1404D01*
X3268D01*
X3464Y1142D02*
X3595D01*
X3530D01*
Y1404D01*
X3464D01*
X3792D02*
X3923Y1142D01*
X4055Y1404D01*
X4383Y1142D02*
X4251D01*
X4186Y1207D01*
Y1339D01*
X4251Y1404D01*
X4383D01*
X4448Y1339D01*
Y1273D01*
X4186D01*
X4579Y1404D02*
Y1142D01*
Y1273D01*
X4645Y1339D01*
X4711Y1404D01*
X4776D01*
X5367Y1535D02*
X5498D01*
X5432D01*
Y1142D01*
X5367D01*
X5498D01*
X5695D02*
Y1404D01*
X5891D01*
X5957Y1339D01*
Y1142D01*
X6088Y1404D02*
X6219Y1142D01*
X6351Y1404D01*
X6679Y1142D02*
X6547D01*
X6482Y1207D01*
Y1339D01*
X6547Y1404D01*
X6679D01*
X6744Y1339D01*
Y1273D01*
X6482D01*
X6875Y1404D02*
Y1142D01*
Y1273D01*
X6941Y1339D01*
X7006Y1404D01*
X7072D01*
X7334Y1470D02*
Y1404D01*
X7269D01*
X7400D01*
X7334D01*
Y1207D01*
X7400Y1142D01*
X7662D02*
X7794D01*
X7859Y1207D01*
Y1339D01*
X7794Y1404D01*
X7662D01*
X7597Y1339D01*
Y1207D01*
X7662Y1142D01*
X7990Y1011D02*
Y1404D01*
X8187D01*
X8253Y1339D01*
Y1207D01*
X8187Y1142D01*
X7990D01*
X53858Y1732D02*
Y1339D01*
X54055D01*
X54121Y1404D01*
Y1667D01*
X54055Y1732D01*
X53858D01*
X54252Y1601D02*
Y1339D01*
Y1470D01*
X54317Y1535D01*
X54383Y1601D01*
X54449D01*
X54645Y1339D02*
X54777D01*
X54711D01*
Y1601D01*
X54645D01*
X54973D02*
X55105Y1339D01*
X55236Y1601D01*
X55564Y1339D02*
X55433D01*
X55367Y1404D01*
Y1535D01*
X55433Y1601D01*
X55564D01*
X55629Y1535D01*
Y1470D01*
X55367D01*
X55761Y1601D02*
Y1339D01*
Y1470D01*
X55826Y1535D01*
X55892Y1601D01*
X55957D01*
X56548Y1732D02*
X56679D01*
X56613D01*
Y1339D01*
X56548D01*
X56679D01*
X56876D02*
Y1601D01*
X57072D01*
X57138Y1535D01*
Y1339D01*
X57269Y1601D02*
X57400Y1339D01*
X57532Y1601D01*
X57860Y1339D02*
X57728D01*
X57663Y1404D01*
Y1535D01*
X57728Y1601D01*
X57860D01*
X57925Y1535D01*
Y1470D01*
X57663D01*
X58056Y1601D02*
Y1339D01*
Y1470D01*
X58122Y1535D01*
X58188Y1601D01*
X58253D01*
X58516Y1667D02*
Y1601D01*
X58450D01*
X58581D01*
X58516D01*
Y1404D01*
X58581Y1339D01*
X58844D02*
X58975D01*
X59040Y1404D01*
Y1535D01*
X58975Y1601D01*
X58844D01*
X58778Y1535D01*
Y1404D01*
X58844Y1339D01*
X59172Y1207D02*
Y1601D01*
X59368D01*
X59434Y1535D01*
Y1404D01*
X59368Y1339D01*
X59172D01*
X61089Y54199D02*
X61024Y54134D01*
Y54003D01*
X61089Y53937D01*
X61352D01*
X61417Y54003D01*
Y54134D01*
X61352Y54199D01*
X61221D01*
Y54068D01*
X61417Y54331D02*
X61024D01*
X61417Y54593D01*
X61024D01*
Y54724D02*
X61417D01*
Y54921D01*
X61352Y54987D01*
X61089D01*
X61024Y54921D01*
Y54724D01*
X56299Y66142D02*
X56430D01*
X56365D01*
Y65748D01*
X56299D01*
X56430D01*
X56627D02*
Y66010D01*
X56824D01*
X56890Y65945D01*
Y65748D01*
X57021Y65682D02*
X57283D01*
X57414Y65945D02*
X57677D01*
X57546Y66076D02*
Y65814D01*
X58070Y65748D02*
X57808D01*
X58070Y66010D01*
Y66076D01*
X58005Y66142D01*
X57874D01*
X57808Y66076D01*
X58201D02*
X58267Y66142D01*
X58398D01*
X58464Y66076D01*
Y65814D01*
X58398Y65748D01*
X58267D01*
X58201Y65814D01*
Y66076D01*
X58595D02*
X58661Y66142D01*
X58792D01*
X58857Y66076D01*
Y65814D01*
X58792Y65748D01*
X58661D01*
X58595Y65814D01*
Y66076D01*
X58989Y66142D02*
Y65879D01*
X59120Y65748D01*
X59251Y65879D01*
Y66142D01*
X56693Y62598D02*
X56824D01*
X56759D01*
Y62205D01*
X56693D01*
X56824D01*
X57021D02*
Y62467D01*
X57218D01*
X57283Y62402D01*
Y62205D01*
X57414Y62139D02*
X57677D01*
X57808Y62402D02*
X58070D01*
X58464Y62205D02*
X58202D01*
X58464Y62467D01*
Y62533D01*
X58398Y62598D01*
X58267D01*
X58202Y62533D01*
X58595D02*
X58661Y62598D01*
X58792D01*
X58858Y62533D01*
Y62270D01*
X58792Y62205D01*
X58661D01*
X58595Y62270D01*
Y62533D01*
X58989D02*
X59054Y62598D01*
X59186D01*
X59251Y62533D01*
Y62270D01*
X59186Y62205D01*
X59054D01*
X58989Y62270D01*
Y62533D01*
X59382Y62598D02*
Y62336D01*
X59514Y62205D01*
X59645Y62336D01*
Y62598D01*
X36614Y78937D02*
X36483D01*
X36417Y78871D01*
Y78609D01*
X36483Y78543D01*
X36614D01*
X36680Y78609D01*
Y78871D01*
X36614Y78937D01*
X36811Y78806D02*
X36942Y78543D01*
X37073Y78806D01*
X37401Y78543D02*
X37270D01*
X37204Y78609D01*
Y78740D01*
X37270Y78806D01*
X37401D01*
X37467Y78740D01*
Y78675D01*
X37204D01*
X37598Y78806D02*
Y78543D01*
Y78675D01*
X37664Y78740D01*
X37729Y78806D01*
X37795D01*
X37992Y78478D02*
X38254D01*
X38385Y78937D02*
Y78609D01*
X38451Y78543D01*
X38582D01*
X38648Y78609D01*
Y78937D01*
X31365Y61942D02*
X31299Y62008D01*
X31168D01*
X31102Y61942D01*
Y61680D01*
X31168Y61614D01*
X31299D01*
X31365Y61680D01*
Y61811D01*
X31234D01*
X31496Y61614D02*
Y62008D01*
X31758Y61614D01*
Y62008D01*
X31890D02*
Y61614D01*
X32086D01*
X32152Y61680D01*
Y61942D01*
X32086Y62008D01*
X31890D01*
D69*
X31102Y55709D02*
D03*
D70*
X29528Y75581D02*
D03*
M02*
