G04 Layer_Color=16711935*
%FSLAX24Y24*%
%MOIN*%
G70*
G01*
G75*
G04:AMPARAMS|DCode=71|XSize=137.8mil|YSize=98.4mil|CornerRadius=9.8mil|HoleSize=0mil|Usage=FLASHONLY|Rotation=90.000|XOffset=0mil|YOffset=0mil|HoleType=Round|Shape=RoundedRectangle|*
%AMROUNDEDRECTD71*
21,1,0.1378,0.0787,0,0,90.0*
21,1,0.1181,0.0984,0,0,90.0*
1,1,0.0197,0.0394,0.0591*
1,1,0.0197,0.0394,-0.0591*
1,1,0.0197,-0.0394,-0.0591*
1,1,0.0197,-0.0394,0.0591*
%
%ADD71ROUNDEDRECTD71*%
%ADD81R,0.0474X0.0513*%
%ADD82R,0.0513X0.0474*%
%ADD83R,0.0533X0.1182*%
%ADD89C,0.0910*%
%ADD91C,0.0615*%
%ADD92R,0.0615X0.0615*%
%ADD93C,0.1064*%
%ADD94R,0.1064X0.1064*%
%ADD95C,0.0579*%
%ADD96R,0.0579X0.0579*%
%ADD97R,0.0986X0.0986*%
%ADD98C,0.0986*%
%ADD99R,0.1458X0.1458*%
%ADD100C,0.1458*%
%ADD101C,0.2088*%
%ADD102C,0.0880*%
%ADD103C,0.1030*%
%ADD104C,0.0434*%
%ADD105C,0.0552*%
%ADD106R,0.1320X0.1045*%
%ADD107R,0.1045X0.1320*%
%ADD108R,0.0651X0.0828*%
%ADD109R,0.0828X0.0651*%
%ADD110R,0.0671X0.1025*%
%ADD111R,0.1025X0.0671*%
%ADD112R,0.1458X0.0493*%
%ADD113R,0.2206X0.0493*%
%ADD114R,0.0493X0.2206*%
%ADD115R,0.0395X0.0493*%
%ADD116R,0.1391X0.0564*%
%ADD117R,0.0564X0.1391*%
D71*
X45374Y24213D02*
D03*
Y22638D02*
D03*
X47736D02*
D03*
X46555D02*
D03*
X47736Y21063D02*
D03*
Y24213D02*
D03*
X46555D02*
D03*
X48917D02*
D03*
Y21063D02*
D03*
X50098Y24213D02*
D03*
Y21063D02*
D03*
X51280Y24213D02*
D03*
Y21063D02*
D03*
X48917Y22638D02*
D03*
X50098D02*
D03*
X51280D02*
D03*
X52461D02*
D03*
Y21063D02*
D03*
X53642D02*
D03*
X54823D02*
D03*
X56004D02*
D03*
X52461Y24213D02*
D03*
X53642D02*
D03*
X54823D02*
D03*
X56004D02*
D03*
X57185Y22244D02*
D03*
X58366D02*
D03*
X59547D02*
D03*
X60728D02*
D03*
X60728Y23819D02*
D03*
X59547D02*
D03*
X58366D02*
D03*
X57185D02*
D03*
X60728Y25394D02*
D03*
X59547D02*
D03*
X58366D02*
D03*
X57185D02*
D03*
X60728Y26969D02*
D03*
X59547D02*
D03*
X58366D02*
D03*
X57185D02*
D03*
Y36417D02*
D03*
X58366D02*
D03*
X59547D02*
D03*
X60728D02*
D03*
Y34843D02*
D03*
X59547D02*
D03*
X58366D02*
D03*
X57185D02*
D03*
X60728Y33268D02*
D03*
X59547D02*
D03*
X58366D02*
D03*
X57185D02*
D03*
Y31693D02*
D03*
X58366D02*
D03*
X59547D02*
D03*
X60728D02*
D03*
X57185Y30118D02*
D03*
X58366D02*
D03*
X59547D02*
D03*
X60728D02*
D03*
X57185Y28543D02*
D03*
X58366D02*
D03*
X59547D02*
D03*
X60728D02*
D03*
Y37992D02*
D03*
X59547D02*
D03*
X58366D02*
D03*
X57185D02*
D03*
X60728Y39567D02*
D03*
X59547D02*
D03*
X58366D02*
D03*
X57185D02*
D03*
X60728Y41142D02*
D03*
X59547D02*
D03*
X58366D02*
D03*
X57185D02*
D03*
X46555Y42717D02*
D03*
X47736D02*
D03*
X48917D02*
D03*
X50098D02*
D03*
X51280D02*
D03*
X52461D02*
D03*
X53642D02*
D03*
X54823D02*
D03*
X56004D02*
D03*
X57185D02*
D03*
X58366D02*
D03*
X59547D02*
D03*
X60728D02*
D03*
X45374Y44291D02*
D03*
X46555D02*
D03*
X47736D02*
D03*
X48917D02*
D03*
X50098D02*
D03*
X51280D02*
D03*
X52461D02*
D03*
X53642D02*
D03*
X54823D02*
D03*
X56004D02*
D03*
X57185D02*
D03*
X58366D02*
D03*
X59547D02*
D03*
X60728D02*
D03*
Y45866D02*
D03*
X59547D02*
D03*
X58366D02*
D03*
X57185D02*
D03*
X56004D02*
D03*
X54823D02*
D03*
X53642D02*
D03*
X52461D02*
D03*
X51280D02*
D03*
X50098D02*
D03*
X48917D02*
D03*
X47736D02*
D03*
X46555D02*
D03*
X45374D02*
D03*
X50295Y52461D02*
D03*
X49114D02*
D03*
X47933D02*
D03*
X46752D02*
D03*
X45571D02*
D03*
Y54035D02*
D03*
X46752D02*
D03*
X47933D02*
D03*
X49114D02*
D03*
X50295D02*
D03*
X56398Y55709D02*
D03*
Y57283D02*
D03*
X55217Y55709D02*
D03*
Y57283D02*
D03*
X54035Y55709D02*
D03*
Y57283D02*
D03*
X52854Y55709D02*
D03*
Y57283D02*
D03*
X51673D02*
D03*
Y55709D02*
D03*
Y58858D02*
D03*
Y60433D02*
D03*
X50492Y57283D02*
D03*
Y55709D02*
D03*
Y58858D02*
D03*
Y60433D02*
D03*
X49311Y57283D02*
D03*
Y55709D02*
D03*
Y58858D02*
D03*
Y60433D02*
D03*
X48130Y57283D02*
D03*
Y55709D02*
D03*
Y58858D02*
D03*
Y60433D02*
D03*
X46949Y57283D02*
D03*
Y55709D02*
D03*
Y58858D02*
D03*
Y60433D02*
D03*
X45768D02*
D03*
Y58858D02*
D03*
X44587D02*
D03*
X45768Y55709D02*
D03*
X44587D02*
D03*
X45768Y57283D02*
D03*
X44587D02*
D03*
X43406Y58858D02*
D03*
X42224D02*
D03*
X43406Y55709D02*
D03*
X42224D02*
D03*
X43406Y57283D02*
D03*
X42224D02*
D03*
X39862Y58268D02*
D03*
X41043D02*
D03*
X39862Y56693D02*
D03*
X41043D02*
D03*
X39862Y59843D02*
D03*
X41043Y61417D02*
D03*
X39862D02*
D03*
X41043Y59843D02*
D03*
Y62992D02*
D03*
X32382Y42126D02*
D03*
X31201D02*
D03*
X34744D02*
D03*
X33563D02*
D03*
X33563Y40453D02*
D03*
X31201D02*
D03*
X32382D02*
D03*
X31594Y38878D02*
D03*
X32776D02*
D03*
Y37205D02*
D03*
X31594D02*
D03*
X44193Y4232D02*
D03*
X43012Y4232D02*
D03*
X41831D02*
D03*
X40650Y4232D02*
D03*
X39469D02*
D03*
X38287Y4232D02*
D03*
X37106D02*
D03*
X35925Y4232D02*
D03*
X34744Y4921D02*
D03*
X33563Y4921D02*
D03*
X32382D02*
D03*
X31201Y4921D02*
D03*
X34744Y6496D02*
D03*
X33563Y6496D02*
D03*
X32382D02*
D03*
X31201Y6496D02*
D03*
X34744Y8071D02*
D03*
X33563Y8071D02*
D03*
X32382D02*
D03*
X31201Y8071D02*
D03*
X34744Y9646D02*
D03*
X33563Y9646D02*
D03*
X32382D02*
D03*
X31201Y9646D02*
D03*
X34744Y11220D02*
D03*
X33563Y11220D02*
D03*
X32382D02*
D03*
X31201Y11220D02*
D03*
X34744Y12795D02*
D03*
X33563Y12795D02*
D03*
X32382D02*
D03*
X31201Y12795D02*
D03*
X34744Y14370D02*
D03*
X33563Y14370D02*
D03*
X32382D02*
D03*
X31201Y14370D02*
D03*
X34744Y15945D02*
D03*
X33563Y15945D02*
D03*
X32382D02*
D03*
X31201Y15945D02*
D03*
Y17520D02*
D03*
X32382Y17520D02*
D03*
X33563D02*
D03*
X34744Y17520D02*
D03*
X35925D02*
D03*
X37106Y17520D02*
D03*
X38287D02*
D03*
X19488Y4134D02*
D03*
X20669D02*
D03*
X21850D02*
D03*
X18307D02*
D03*
X26575Y5709D02*
D03*
X27756Y5709D02*
D03*
X28937D02*
D03*
Y4134D02*
D03*
X27756D02*
D03*
X26575Y4134D02*
D03*
X25394D02*
D03*
X24213D02*
D03*
X23031Y4134D02*
D03*
X26575Y10433D02*
D03*
X27756Y10433D02*
D03*
X28937D02*
D03*
Y8858D02*
D03*
X27756D02*
D03*
X26575Y8858D02*
D03*
X28937Y7283D02*
D03*
X27756D02*
D03*
X26575Y7283D02*
D03*
Y15157D02*
D03*
X27756Y15157D02*
D03*
X28937D02*
D03*
Y13583D02*
D03*
X27756D02*
D03*
X26575Y13583D02*
D03*
X28937Y12008D02*
D03*
X27756D02*
D03*
X26575Y12008D02*
D03*
Y19882D02*
D03*
X27756Y19882D02*
D03*
X28937D02*
D03*
Y18307D02*
D03*
X27756D02*
D03*
X26575Y18307D02*
D03*
X28937Y16732D02*
D03*
X27756D02*
D03*
X26575Y16732D02*
D03*
X35039Y30807D02*
D03*
Y29232D02*
D03*
X33858D02*
D03*
X31496Y30807D02*
D03*
X32677Y30807D02*
D03*
X33858D02*
D03*
X32677Y29232D02*
D03*
X31496Y29232D02*
D03*
X32677Y27657D02*
D03*
X31496Y27657D02*
D03*
X26575Y27657D02*
D03*
X27756Y27657D02*
D03*
X28937D02*
D03*
X26575Y29232D02*
D03*
X27756Y29232D02*
D03*
X28937D02*
D03*
Y30807D02*
D03*
X27756D02*
D03*
X26575Y30807D02*
D03*
X17815Y24311D02*
D03*
Y22736D02*
D03*
Y21161D02*
D03*
Y19587D02*
D03*
Y18012D02*
D03*
Y16437D02*
D03*
X16634Y16437D02*
D03*
Y18012D02*
D03*
Y19587D02*
D03*
Y21161D02*
D03*
Y22736D02*
D03*
Y24311D02*
D03*
X44783Y80315D02*
D03*
X40059D02*
D03*
Y78740D02*
D03*
Y77165D02*
D03*
Y75591D02*
D03*
Y74016D02*
D03*
Y72441D02*
D03*
X40059Y70866D02*
D03*
Y69291D02*
D03*
Y67717D02*
D03*
Y66142D02*
D03*
X39862Y64567D02*
D03*
X41043D02*
D03*
X41240Y66142D02*
D03*
Y67717D02*
D03*
Y69291D02*
D03*
Y70866D02*
D03*
X41240Y72441D02*
D03*
Y74016D02*
D03*
Y75591D02*
D03*
Y77165D02*
D03*
Y78740D02*
D03*
Y80315D02*
D03*
X42224Y64567D02*
D03*
X42421Y66142D02*
D03*
Y67717D02*
D03*
Y69291D02*
D03*
X42421Y70866D02*
D03*
X42421Y72441D02*
D03*
Y74016D02*
D03*
X42421Y75591D02*
D03*
Y77165D02*
D03*
Y78740D02*
D03*
Y80315D02*
D03*
X43602Y66142D02*
D03*
Y67717D02*
D03*
Y69291D02*
D03*
Y70866D02*
D03*
X43602Y72441D02*
D03*
Y74016D02*
D03*
Y75591D02*
D03*
Y77165D02*
D03*
Y78740D02*
D03*
Y80315D02*
D03*
X44783Y67717D02*
D03*
Y69291D02*
D03*
X44783Y70866D02*
D03*
X44783Y77165D02*
D03*
Y78740D02*
D03*
Y75591D02*
D03*
X45965D02*
D03*
Y78740D02*
D03*
Y77165D02*
D03*
Y80315D02*
D03*
X44783Y66142D02*
D03*
X44783Y72441D02*
D03*
Y74016D02*
D03*
X39862Y62992D02*
D03*
X38878Y66142D02*
D03*
Y67717D02*
D03*
Y69291D02*
D03*
Y70866D02*
D03*
X37697D02*
D03*
Y69291D02*
D03*
Y67717D02*
D03*
Y66142D02*
D03*
X29429D02*
D03*
Y67717D02*
D03*
Y69291D02*
D03*
Y70866D02*
D03*
X30610D02*
D03*
Y69291D02*
D03*
Y67717D02*
D03*
Y66142D02*
D03*
X36516D02*
D03*
X36516Y70866D02*
D03*
X36516Y69291D02*
D03*
Y67717D02*
D03*
X35335Y70866D02*
D03*
Y69291D02*
D03*
Y67717D02*
D03*
Y66142D02*
D03*
X34154Y70866D02*
D03*
X34154Y69291D02*
D03*
Y67717D02*
D03*
Y66142D02*
D03*
X32972Y70866D02*
D03*
Y69291D02*
D03*
Y67717D02*
D03*
Y66142D02*
D03*
X31791D02*
D03*
Y67717D02*
D03*
Y69291D02*
D03*
Y70866D02*
D03*
X21161Y66142D02*
D03*
Y67717D02*
D03*
Y69291D02*
D03*
Y70866D02*
D03*
X22343D02*
D03*
Y69291D02*
D03*
Y67717D02*
D03*
Y66142D02*
D03*
X28248D02*
D03*
X28248Y70866D02*
D03*
X28248Y69291D02*
D03*
Y67717D02*
D03*
X27067Y70866D02*
D03*
Y69291D02*
D03*
Y67717D02*
D03*
Y66142D02*
D03*
X25886Y70866D02*
D03*
X25886Y69291D02*
D03*
Y67717D02*
D03*
Y66142D02*
D03*
X24705Y70866D02*
D03*
Y69291D02*
D03*
Y67717D02*
D03*
Y66142D02*
D03*
X23524D02*
D03*
Y67717D02*
D03*
Y69291D02*
D03*
Y70866D02*
D03*
X19882Y70866D02*
D03*
X19882Y77165D02*
D03*
Y75591D02*
D03*
Y74016D02*
D03*
Y72441D02*
D03*
Y69291D02*
D03*
Y67717D02*
D03*
Y66142D02*
D03*
Y64567D02*
D03*
X18701D02*
D03*
Y66142D02*
D03*
Y67717D02*
D03*
Y69291D02*
D03*
Y72441D02*
D03*
Y74016D02*
D03*
Y75591D02*
D03*
Y77165D02*
D03*
X18701Y70866D02*
D03*
X16339D02*
D03*
X16339Y77165D02*
D03*
Y75591D02*
D03*
Y74016D02*
D03*
Y72441D02*
D03*
Y69291D02*
D03*
Y67717D02*
D03*
Y66142D02*
D03*
Y64567D02*
D03*
X17520D02*
D03*
Y66142D02*
D03*
Y67717D02*
D03*
Y69291D02*
D03*
Y72441D02*
D03*
Y74016D02*
D03*
Y75591D02*
D03*
Y77165D02*
D03*
X17520Y70866D02*
D03*
X13976D02*
D03*
X13976Y77165D02*
D03*
Y75591D02*
D03*
Y74016D02*
D03*
Y72441D02*
D03*
Y69291D02*
D03*
Y67717D02*
D03*
X15157D02*
D03*
Y69291D02*
D03*
Y72441D02*
D03*
Y74016D02*
D03*
Y75591D02*
D03*
Y77165D02*
D03*
X15157Y70866D02*
D03*
X12795Y70866D02*
D03*
Y69291D02*
D03*
Y67717D02*
D03*
X11614D02*
D03*
Y69291D02*
D03*
Y70866D02*
D03*
X10433D02*
D03*
Y69291D02*
D03*
Y67717D02*
D03*
X9252Y70866D02*
D03*
Y69291D02*
D03*
Y67717D02*
D03*
X15157Y66142D02*
D03*
X20276Y62992D02*
D03*
Y61417D02*
D03*
Y59843D02*
D03*
Y58268D02*
D03*
Y56693D02*
D03*
Y55118D02*
D03*
Y53543D02*
D03*
Y51968D02*
D03*
X19094Y56693D02*
D03*
Y55118D02*
D03*
Y53543D02*
D03*
Y51968D02*
D03*
X17913Y56693D02*
D03*
Y55118D02*
D03*
Y53543D02*
D03*
Y51968D02*
D03*
X16732Y56693D02*
D03*
Y55118D02*
D03*
Y53543D02*
D03*
Y51968D02*
D03*
X15551Y56693D02*
D03*
Y55118D02*
D03*
Y53543D02*
D03*
Y51968D02*
D03*
X14370Y56693D02*
D03*
Y55118D02*
D03*
Y53543D02*
D03*
Y51968D02*
D03*
X13189Y56693D02*
D03*
Y55118D02*
D03*
Y53543D02*
D03*
Y51968D02*
D03*
X12008Y56693D02*
D03*
Y55118D02*
D03*
Y53543D02*
D03*
Y51968D02*
D03*
X10827Y56693D02*
D03*
Y55118D02*
D03*
Y53543D02*
D03*
Y51968D02*
D03*
X9646Y56693D02*
D03*
Y55118D02*
D03*
Y53543D02*
D03*
Y51968D02*
D03*
X15059Y45669D02*
D03*
Y47244D02*
D03*
Y48819D02*
D03*
Y50394D02*
D03*
X13878D02*
D03*
Y48819D02*
D03*
Y47244D02*
D03*
Y45669D02*
D03*
Y42520D02*
D03*
Y44094D02*
D03*
X15059D02*
D03*
Y42520D02*
D03*
X12697Y41634D02*
D03*
Y43209D02*
D03*
X11516D02*
D03*
Y41634D02*
D03*
Y44783D02*
D03*
X12697D02*
D03*
X10335Y41634D02*
D03*
Y43209D02*
D03*
Y44783D02*
D03*
X6791D02*
D03*
Y43209D02*
D03*
Y41634D02*
D03*
X9154Y44783D02*
D03*
X7972D02*
D03*
Y41634D02*
D03*
Y43209D02*
D03*
X9154D02*
D03*
Y41634D02*
D03*
X3248Y44783D02*
D03*
Y43209D02*
D03*
Y41634D02*
D03*
X5610Y44783D02*
D03*
X4429D02*
D03*
Y41634D02*
D03*
Y43209D02*
D03*
X5610D02*
D03*
Y41634D02*
D03*
X2067Y44783D02*
D03*
Y43209D02*
D03*
Y41634D02*
D03*
X2461Y36909D02*
D03*
Y38484D02*
D03*
X1280D02*
D03*
Y36909D02*
D03*
Y40059D02*
D03*
X2461D02*
D03*
X4823Y38484D02*
D03*
Y36909D02*
D03*
Y40059D02*
D03*
X3642Y36909D02*
D03*
Y38484D02*
D03*
Y40059D02*
D03*
Y35335D02*
D03*
Y33760D02*
D03*
Y32185D02*
D03*
X4823Y35335D02*
D03*
Y32185D02*
D03*
Y33760D02*
D03*
X2461Y35335D02*
D03*
X1280D02*
D03*
Y32185D02*
D03*
Y33760D02*
D03*
X2461D02*
D03*
Y32185D02*
D03*
Y22736D02*
D03*
Y24311D02*
D03*
X1280D02*
D03*
Y22736D02*
D03*
Y25886D02*
D03*
X2461D02*
D03*
X4823Y24311D02*
D03*
Y22736D02*
D03*
Y25886D02*
D03*
X3642Y22736D02*
D03*
Y24311D02*
D03*
Y25886D02*
D03*
Y30610D02*
D03*
Y29035D02*
D03*
Y27461D02*
D03*
X4823Y30610D02*
D03*
Y27461D02*
D03*
Y29035D02*
D03*
X2461Y30610D02*
D03*
X1280D02*
D03*
Y27461D02*
D03*
Y29035D02*
D03*
X2461D02*
D03*
Y27461D02*
D03*
X3642Y21161D02*
D03*
X4823Y21161D02*
D03*
X1280D02*
D03*
X2461D02*
D03*
X7185D02*
D03*
X6004D02*
D03*
X9547D02*
D03*
X8366Y21161D02*
D03*
Y24311D02*
D03*
Y22736D02*
D03*
X9547Y22736D02*
D03*
Y24311D02*
D03*
X6004Y22736D02*
D03*
Y24311D02*
D03*
X7185D02*
D03*
X11909Y21161D02*
D03*
X10728D02*
D03*
X14272D02*
D03*
X13091Y21161D02*
D03*
Y24311D02*
D03*
Y22736D02*
D03*
X14272Y22736D02*
D03*
Y24311D02*
D03*
X10728Y22736D02*
D03*
Y24311D02*
D03*
X11909D02*
D03*
Y22736D02*
D03*
X15453Y24311D02*
D03*
Y22736D02*
D03*
Y21161D02*
D03*
D81*
X58780Y6496D02*
D03*
X58150D02*
D03*
X54843Y9547D02*
D03*
X54213D02*
D03*
X47657Y28051D02*
D03*
X47028D02*
D03*
X54843Y12697D02*
D03*
X54213D02*
D03*
X2736Y6299D02*
D03*
X3366D02*
D03*
X7795Y10335D02*
D03*
X7165D02*
D03*
X13858Y27264D02*
D03*
X14488D02*
D03*
X7894Y12795D02*
D03*
X7264D02*
D03*
D82*
X57185Y14547D02*
D03*
Y15177D02*
D03*
X3543Y14449D02*
D03*
Y15079D02*
D03*
D83*
X15167Y27165D02*
D03*
X16526D02*
D03*
X46152Y27854D02*
D03*
X44793D02*
D03*
D89*
X37303Y77346D02*
D03*
Y75787D02*
D03*
Y74228D02*
D03*
D91*
X58071Y15843D02*
D03*
Y14843D02*
D03*
Y13843D02*
D03*
Y10843D02*
D03*
X2362Y15653D02*
D03*
Y14653D02*
D03*
Y13653D02*
D03*
Y10653D02*
D03*
D92*
X58071Y9843D02*
D03*
X2362Y9653D02*
D03*
D93*
X58465Y68504D02*
D03*
X56496D02*
D03*
X54528D02*
D03*
X56496Y59843D02*
D03*
X58465D02*
D03*
X60433D02*
D03*
D94*
Y68504D02*
D03*
X54528Y59843D02*
D03*
D95*
X2753Y4331D02*
D03*
X3543D02*
D03*
X4331D02*
D03*
X5118D02*
D03*
X5906D02*
D03*
X58861Y4331D02*
D03*
X58071D02*
D03*
X57283D02*
D03*
X56496D02*
D03*
X55709D02*
D03*
D96*
X6693Y4331D02*
D03*
X54921Y4331D02*
D03*
D97*
X40098Y34655D02*
D03*
X22028Y38947D02*
D03*
Y23593D02*
D03*
X40098Y19301D02*
D03*
D98*
Y36801D02*
D03*
Y38947D02*
D03*
X22028Y36801D02*
D03*
Y34655D02*
D03*
Y21447D02*
D03*
Y19301D02*
D03*
X40098Y21447D02*
D03*
Y23593D02*
D03*
D99*
X12795Y60236D02*
D03*
X54724Y77559D02*
D03*
X48032Y63583D02*
D03*
X53445Y49902D02*
D03*
X6299Y72638D02*
D03*
Y47638D02*
D03*
D100*
X16732Y60236D02*
D03*
X50787Y77559D02*
D03*
X44094Y63583D02*
D03*
X49508Y49902D02*
D03*
X10236Y72638D02*
D03*
Y47638D02*
D03*
D101*
X37933Y28179D02*
D03*
Y6949D02*
D03*
X24232Y6909D02*
D03*
Y28140D02*
D03*
X37933Y51378D02*
D03*
Y30148D02*
D03*
X24232Y30108D02*
D03*
Y51339D02*
D03*
D102*
X54724Y36811D02*
D03*
Y22047D02*
D03*
X7087Y37795D02*
D03*
Y23031D02*
D03*
D103*
X59547Y55543D02*
D03*
Y53543D02*
D03*
X15650Y6693D02*
D03*
X13650D02*
D03*
X28445Y61386D02*
D03*
Y63386D02*
D03*
X48130Y7087D02*
D03*
X46130D02*
D03*
D104*
X19134Y63228D02*
D03*
Y62441D02*
D03*
Y61654D02*
D03*
Y60866D02*
D03*
Y60079D02*
D03*
Y59291D02*
D03*
Y58504D02*
D03*
Y57717D02*
D03*
X18346Y63228D02*
D03*
Y62441D02*
D03*
Y61654D02*
D03*
Y60866D02*
D03*
Y60079D02*
D03*
Y59291D02*
D03*
Y58504D02*
D03*
Y57717D02*
D03*
X17559Y63228D02*
D03*
Y62441D02*
D03*
Y61654D02*
D03*
Y60866D02*
D03*
Y59291D02*
D03*
Y58504D02*
D03*
Y57717D02*
D03*
X16772Y63228D02*
D03*
Y62441D02*
D03*
Y61654D02*
D03*
Y59291D02*
D03*
Y58504D02*
D03*
Y57717D02*
D03*
X15984Y63228D02*
D03*
Y62441D02*
D03*
Y61654D02*
D03*
Y59291D02*
D03*
Y58504D02*
D03*
Y57717D02*
D03*
X12835Y76614D02*
D03*
Y75827D02*
D03*
Y75039D02*
D03*
Y74252D02*
D03*
Y73465D02*
D03*
Y72677D02*
D03*
Y71890D02*
D03*
X12047Y76614D02*
D03*
Y75827D02*
D03*
Y75039D02*
D03*
Y74252D02*
D03*
Y73465D02*
D03*
Y72677D02*
D03*
Y71890D02*
D03*
X11260Y76614D02*
D03*
Y75827D02*
D03*
Y75039D02*
D03*
Y74252D02*
D03*
Y73465D02*
D03*
Y72677D02*
D03*
Y71890D02*
D03*
X10472Y76614D02*
D03*
Y75827D02*
D03*
Y75039D02*
D03*
Y74252D02*
D03*
X9685Y76614D02*
D03*
Y75827D02*
D03*
Y75039D02*
D03*
Y74252D02*
D03*
X13622Y64016D02*
D03*
Y63228D02*
D03*
Y62441D02*
D03*
Y61654D02*
D03*
X12835Y64016D02*
D03*
Y63228D02*
D03*
Y62441D02*
D03*
Y61654D02*
D03*
Y59291D02*
D03*
X12047Y64016D02*
D03*
Y63228D02*
D03*
Y62441D02*
D03*
Y61654D02*
D03*
X11260Y64016D02*
D03*
Y63228D02*
D03*
Y62441D02*
D03*
Y61654D02*
D03*
Y60866D02*
D03*
Y60079D02*
D03*
Y59291D02*
D03*
X10472Y64016D02*
D03*
Y63228D02*
D03*
Y62441D02*
D03*
Y61654D02*
D03*
Y60866D02*
D03*
Y60079D02*
D03*
Y59291D02*
D03*
X9685Y64016D02*
D03*
Y63228D02*
D03*
Y62441D02*
D03*
Y61654D02*
D03*
Y60866D02*
D03*
Y60079D02*
D03*
Y59291D02*
D03*
X8898Y64016D02*
D03*
Y63228D02*
D03*
Y62441D02*
D03*
Y61654D02*
D03*
Y60866D02*
D03*
Y60079D02*
D03*
Y59291D02*
D03*
X8110Y64016D02*
D03*
Y63228D02*
D03*
Y62441D02*
D03*
Y61654D02*
D03*
Y60866D02*
D03*
Y60079D02*
D03*
Y59291D02*
D03*
X7323Y75827D02*
D03*
Y75039D02*
D03*
Y74252D02*
D03*
Y73465D02*
D03*
Y72677D02*
D03*
Y71890D02*
D03*
Y52205D02*
D03*
Y51417D02*
D03*
Y50630D02*
D03*
Y49843D02*
D03*
Y49055D02*
D03*
Y48268D02*
D03*
Y47480D02*
D03*
X6535Y76614D02*
D03*
Y75827D02*
D03*
Y75039D02*
D03*
Y74252D02*
D03*
Y71102D02*
D03*
Y52205D02*
D03*
Y51417D02*
D03*
Y50630D02*
D03*
Y49843D02*
D03*
Y49055D02*
D03*
X5748Y76614D02*
D03*
Y75827D02*
D03*
Y75039D02*
D03*
Y74252D02*
D03*
Y71102D02*
D03*
Y52205D02*
D03*
Y51417D02*
D03*
Y50630D02*
D03*
Y49843D02*
D03*
Y49055D02*
D03*
X4961Y76614D02*
D03*
Y75827D02*
D03*
Y75039D02*
D03*
Y74252D02*
D03*
Y73465D02*
D03*
Y72677D02*
D03*
Y71890D02*
D03*
Y71102D02*
D03*
Y52205D02*
D03*
Y51417D02*
D03*
Y50630D02*
D03*
Y49843D02*
D03*
Y49055D02*
D03*
Y48268D02*
D03*
Y47480D02*
D03*
X4173Y76614D02*
D03*
Y75827D02*
D03*
Y75039D02*
D03*
Y74252D02*
D03*
Y73465D02*
D03*
Y72677D02*
D03*
Y71890D02*
D03*
Y71102D02*
D03*
Y52205D02*
D03*
Y51417D02*
D03*
Y50630D02*
D03*
Y49843D02*
D03*
Y49055D02*
D03*
Y48268D02*
D03*
Y47480D02*
D03*
X3386Y76614D02*
D03*
Y75827D02*
D03*
Y75039D02*
D03*
Y74252D02*
D03*
Y73465D02*
D03*
Y72677D02*
D03*
Y71890D02*
D03*
Y71102D02*
D03*
Y52205D02*
D03*
Y51417D02*
D03*
Y50630D02*
D03*
Y49843D02*
D03*
Y49055D02*
D03*
Y48268D02*
D03*
Y47480D02*
D03*
X2598Y76614D02*
D03*
Y75827D02*
D03*
Y75039D02*
D03*
Y74252D02*
D03*
Y73465D02*
D03*
Y72677D02*
D03*
Y71890D02*
D03*
Y71102D02*
D03*
Y51417D02*
D03*
Y50630D02*
D03*
Y49843D02*
D03*
Y49055D02*
D03*
Y48268D02*
D03*
Y47480D02*
D03*
X1811Y75827D02*
D03*
Y75039D02*
D03*
Y74252D02*
D03*
Y73465D02*
D03*
Y72677D02*
D03*
Y71890D02*
D03*
Y51417D02*
D03*
Y50630D02*
D03*
Y49843D02*
D03*
Y49055D02*
D03*
Y48268D02*
D03*
Y47480D02*
D03*
X8110Y36457D02*
D03*
X9685D02*
D03*
X6535Y37244D02*
D03*
X8110D02*
D03*
X9685Y38032D02*
D03*
X11260Y37244D02*
D03*
X10472D02*
D03*
X12835Y38032D02*
D03*
X6535Y38819D02*
D03*
X7323Y39606D02*
D03*
X10472Y38819D02*
D03*
X11260D02*
D03*
X12047D02*
D03*
X13622D02*
D03*
X12047Y39606D02*
D03*
X14409Y38819D02*
D03*
Y37244D02*
D03*
X15197Y39606D02*
D03*
X9685D02*
D03*
X47480Y36457D02*
D03*
X48268D02*
D03*
X46693D02*
D03*
X47480Y37244D02*
D03*
X48268D02*
D03*
X46693Y38032D02*
D03*
X47480D02*
D03*
X51417Y36457D02*
D03*
X50630D02*
D03*
X49055Y38032D02*
D03*
X51417Y37244D02*
D03*
X50630D02*
D03*
X46693Y38819D02*
D03*
X47480Y39606D02*
D03*
X46693D02*
D03*
X49055D02*
D03*
X49843Y38032D02*
D03*
X50630D02*
D03*
X52205D02*
D03*
X50630Y38819D02*
D03*
X49843Y39606D02*
D03*
X50630D02*
D03*
Y63228D02*
D03*
X52205Y39606D02*
D03*
X52992Y37244D02*
D03*
X53780Y36457D02*
D03*
X52992Y38032D02*
D03*
X53780Y37244D02*
D03*
X52992Y38819D02*
D03*
X53780Y38032D02*
D03*
X54567Y38819D02*
D03*
Y38032D02*
D03*
X56929Y49055D02*
D03*
X56142D02*
D03*
X55354Y49843D02*
D03*
X56142D02*
D03*
X53780Y52205D02*
D03*
Y51417D02*
D03*
X54567Y50630D02*
D03*
Y51417D02*
D03*
X55354Y50630D02*
D03*
X54567Y52992D02*
D03*
X55354Y51417D02*
D03*
X56929D02*
D03*
X55354Y52205D02*
D03*
X56142D02*
D03*
Y52992D02*
D03*
X47480Y64803D02*
D03*
X48268Y65591D02*
D03*
Y64803D02*
D03*
X49055Y64016D02*
D03*
Y64803D02*
D03*
X48268Y66378D02*
D03*
X49843Y63228D02*
D03*
Y65591D02*
D03*
Y66378D02*
D03*
X50630D02*
D03*
X54567D02*
D03*
X53780Y69528D02*
D03*
X52992D02*
D03*
X54567Y71102D02*
D03*
Y70315D02*
D03*
Y75827D02*
D03*
Y75039D02*
D03*
X55354Y66378D02*
D03*
Y67953D02*
D03*
X56142Y66378D02*
D03*
Y69528D02*
D03*
X55354Y70315D02*
D03*
X56142Y71102D02*
D03*
X55354Y75039D02*
D03*
X56929Y71102D02*
D03*
Y75039D02*
D03*
X57717D02*
D03*
X55354Y75827D02*
D03*
X56929Y76614D02*
D03*
X55354Y78976D02*
D03*
X56142Y78189D02*
D03*
Y78976D02*
D03*
X56929Y78189D02*
D03*
X57717Y75827D02*
D03*
Y77402D02*
D03*
X58504Y75827D02*
D03*
X56929Y78976D02*
D03*
X57717D02*
D03*
X45118Y47480D02*
D03*
Y48268D02*
D03*
X45906Y47480D02*
D03*
X46693Y48268D02*
D03*
X45906Y49843D02*
D03*
X45118Y50630D02*
D03*
X46693D02*
D03*
Y47480D02*
D03*
X49055D02*
D03*
X48268Y49055D02*
D03*
X49055Y48268D02*
D03*
X49843D02*
D03*
X47480Y50630D02*
D03*
X53780Y58504D02*
D03*
X52992Y60866D02*
D03*
X55354Y58504D02*
D03*
Y59291D02*
D03*
Y60079D02*
D03*
X47480Y75039D02*
D03*
X48268Y74252D02*
D03*
Y75039D02*
D03*
X49055Y74252D02*
D03*
X47480Y75827D02*
D03*
X48268Y76614D02*
D03*
Y77402D02*
D03*
X47480Y78189D02*
D03*
Y78976D02*
D03*
Y80551D02*
D03*
X48268D02*
D03*
X49055Y75039D02*
D03*
X48268Y78189D02*
D03*
Y79764D02*
D03*
Y78976D02*
D03*
X49055Y80551D02*
D03*
X50630Y74252D02*
D03*
X49843Y75039D02*
D03*
X51417D02*
D03*
X55354Y61654D02*
D03*
X56142D02*
D03*
X54567Y62441D02*
D03*
X55354D02*
D03*
X53780D02*
D03*
X56142D02*
D03*
X49055Y77402D02*
D03*
X49843Y75827D02*
D03*
Y78189D02*
D03*
X49055Y78976D02*
D03*
X49843D02*
D03*
Y79764D02*
D03*
X51417Y75827D02*
D03*
Y78976D02*
D03*
X50630Y79764D02*
D03*
X51417D02*
D03*
X24252Y34488D02*
D03*
X24843D02*
D03*
X25433D02*
D03*
X24252Y35669D02*
D03*
X24843D02*
D03*
X26024Y34488D02*
D03*
X25433Y33898D02*
D03*
X46850Y29528D02*
D03*
X44331Y37441D02*
D03*
Y36850D02*
D03*
Y36260D02*
D03*
Y35669D02*
D03*
X43740Y37441D02*
D03*
Y36850D02*
D03*
Y36260D02*
D03*
Y35669D02*
D03*
X43150Y37441D02*
D03*
Y36850D02*
D03*
Y36260D02*
D03*
Y35669D02*
D03*
X42559Y37441D02*
D03*
Y36850D02*
D03*
Y36260D02*
D03*
Y35669D02*
D03*
X41968Y36850D02*
D03*
Y36260D02*
D03*
Y35669D02*
D03*
X41378Y36850D02*
D03*
Y36260D02*
D03*
X40787Y36850D02*
D03*
Y36260D02*
D03*
X39016Y36850D02*
D03*
Y36260D02*
D03*
X38425D02*
D03*
Y35669D02*
D03*
X37835D02*
D03*
X49055Y11260D02*
D03*
Y10472D02*
D03*
Y9685D02*
D03*
Y8898D02*
D03*
Y8110D02*
D03*
Y7323D02*
D03*
Y6535D02*
D03*
Y5748D02*
D03*
Y4961D02*
D03*
Y4173D02*
D03*
Y3386D02*
D03*
X48268Y11260D02*
D03*
Y10472D02*
D03*
Y9685D02*
D03*
Y8898D02*
D03*
Y8110D02*
D03*
Y5748D02*
D03*
Y4961D02*
D03*
Y4173D02*
D03*
Y3386D02*
D03*
X47480Y11260D02*
D03*
Y10472D02*
D03*
Y9685D02*
D03*
Y8898D02*
D03*
Y8110D02*
D03*
Y6535D02*
D03*
Y5748D02*
D03*
Y4173D02*
D03*
Y3386D02*
D03*
X46693Y11260D02*
D03*
Y10472D02*
D03*
Y9685D02*
D03*
Y8898D02*
D03*
Y8110D02*
D03*
Y6535D02*
D03*
Y5748D02*
D03*
Y4173D02*
D03*
Y3386D02*
D03*
X45906Y11260D02*
D03*
Y10472D02*
D03*
Y9685D02*
D03*
Y8898D02*
D03*
Y8110D02*
D03*
Y5748D02*
D03*
Y4961D02*
D03*
Y4173D02*
D03*
Y3386D02*
D03*
X45118Y11260D02*
D03*
Y10472D02*
D03*
Y9685D02*
D03*
Y8898D02*
D03*
Y8110D02*
D03*
Y7323D02*
D03*
Y6535D02*
D03*
Y5748D02*
D03*
Y4961D02*
D03*
Y4173D02*
D03*
Y3386D02*
D03*
X21890Y18543D02*
D03*
Y17953D02*
D03*
Y17362D02*
D03*
X21299Y19724D02*
D03*
Y19134D02*
D03*
Y18543D02*
D03*
Y17953D02*
D03*
Y17362D02*
D03*
X20709Y19724D02*
D03*
Y19134D02*
D03*
Y18543D02*
D03*
Y17953D02*
D03*
Y17362D02*
D03*
X20118Y19724D02*
D03*
Y19134D02*
D03*
Y18543D02*
D03*
Y17953D02*
D03*
Y17362D02*
D03*
X19528Y20905D02*
D03*
Y20315D02*
D03*
Y19724D02*
D03*
Y19134D02*
D03*
Y18543D02*
D03*
Y17953D02*
D03*
Y17362D02*
D03*
X18937Y20905D02*
D03*
Y20315D02*
D03*
Y19724D02*
D03*
Y19134D02*
D03*
Y18543D02*
D03*
Y17953D02*
D03*
Y17362D02*
D03*
X31339Y19134D02*
D03*
X31929Y18543D02*
D03*
X32520D02*
D03*
X31339Y19724D02*
D03*
Y20905D02*
D03*
X31929Y19724D02*
D03*
Y19134D02*
D03*
X31339Y23268D02*
D03*
Y24449D02*
D03*
Y23858D02*
D03*
X31929Y20905D02*
D03*
Y21496D02*
D03*
X32520Y20315D02*
D03*
Y19134D02*
D03*
Y22087D02*
D03*
Y20905D02*
D03*
X31929Y23858D02*
D03*
Y23268D02*
D03*
Y24449D02*
D03*
X32520Y23268D02*
D03*
X33110Y19134D02*
D03*
Y18543D02*
D03*
X33701Y19134D02*
D03*
X34291Y18543D02*
D03*
X32520Y21496D02*
D03*
X33110Y20905D02*
D03*
Y22087D02*
D03*
X32520Y23858D02*
D03*
X33701Y20315D02*
D03*
Y19724D02*
D03*
X34291Y21496D02*
D03*
X33701Y24449D02*
D03*
X31339Y25039D02*
D03*
Y25630D02*
D03*
Y26220D02*
D03*
X31929Y25630D02*
D03*
Y26220D02*
D03*
X31339Y32126D02*
D03*
Y32717D02*
D03*
X31929Y33898D02*
D03*
Y25039D02*
D03*
X32520D02*
D03*
Y26220D02*
D03*
Y32126D02*
D03*
X31929D02*
D03*
Y33307D02*
D03*
X32520D02*
D03*
Y32717D02*
D03*
Y33898D02*
D03*
X31339Y35079D02*
D03*
Y34488D02*
D03*
Y36260D02*
D03*
Y35669D02*
D03*
X31929Y34488D02*
D03*
X32520Y36260D02*
D03*
Y34488D02*
D03*
X33110Y25630D02*
D03*
Y33307D02*
D03*
Y32717D02*
D03*
X33701Y33307D02*
D03*
X34291Y32126D02*
D03*
X33701D02*
D03*
X32520Y35079D02*
D03*
X33701Y36260D02*
D03*
X36654Y18543D02*
D03*
X37835D02*
D03*
X34882Y19134D02*
D03*
Y19724D02*
D03*
X35472Y19134D02*
D03*
X34882Y20315D02*
D03*
X35472Y19724D02*
D03*
X34882Y32126D02*
D03*
X35472Y20315D02*
D03*
Y32126D02*
D03*
X36063Y19724D02*
D03*
Y20905D02*
D03*
X37244Y20315D02*
D03*
X34882Y32717D02*
D03*
X36063Y40394D02*
D03*
Y39803D02*
D03*
X36654Y40394D02*
D03*
Y40984D02*
D03*
X37244Y40394D02*
D03*
X36654Y42165D02*
D03*
X37244Y41575D02*
D03*
X37835Y19134D02*
D03*
X38425D02*
D03*
Y20315D02*
D03*
Y19724D02*
D03*
X37835Y20315D02*
D03*
X38425Y20905D02*
D03*
X39016Y38622D02*
D03*
X38425Y39803D02*
D03*
X40787Y21496D02*
D03*
X41378Y20905D02*
D03*
X39016Y39213D02*
D03*
X39606Y39803D02*
D03*
X37835Y40984D02*
D03*
Y40394D02*
D03*
Y42165D02*
D03*
X38425D02*
D03*
Y42756D02*
D03*
X39016Y40394D02*
D03*
Y39803D02*
D03*
X39606Y40394D02*
D03*
X40787D02*
D03*
X39016Y41575D02*
D03*
Y40984D02*
D03*
X39606Y41575D02*
D03*
X41378Y21496D02*
D03*
X40787Y20905D02*
D03*
X39016Y21496D02*
D03*
Y20905D02*
D03*
X38425Y18543D02*
D03*
X37835Y19724D02*
D03*
X37244D02*
D03*
Y19134D02*
D03*
Y18543D02*
D03*
X36654Y20905D02*
D03*
Y20315D02*
D03*
Y19724D02*
D03*
Y19134D02*
D03*
X36063Y20315D02*
D03*
Y19134D02*
D03*
Y18543D02*
D03*
X35472Y20905D02*
D03*
Y18543D02*
D03*
X34882Y20905D02*
D03*
Y18543D02*
D03*
X34291Y20905D02*
D03*
Y20315D02*
D03*
Y19724D02*
D03*
Y19134D02*
D03*
X33701Y26220D02*
D03*
Y25630D02*
D03*
Y25039D02*
D03*
Y23858D02*
D03*
Y23268D02*
D03*
Y22677D02*
D03*
Y22087D02*
D03*
Y21496D02*
D03*
Y20905D02*
D03*
Y18543D02*
D03*
X33110Y26220D02*
D03*
Y25039D02*
D03*
Y24449D02*
D03*
Y23858D02*
D03*
Y23268D02*
D03*
Y22677D02*
D03*
Y21496D02*
D03*
Y20315D02*
D03*
Y19724D02*
D03*
X32520Y25630D02*
D03*
Y24449D02*
D03*
Y22677D02*
D03*
Y19724D02*
D03*
X31929Y22677D02*
D03*
Y22087D02*
D03*
Y20315D02*
D03*
X31339Y22677D02*
D03*
Y22087D02*
D03*
Y21496D02*
D03*
Y20315D02*
D03*
Y18543D02*
D03*
X35472Y32717D02*
D03*
X34291D02*
D03*
X33701Y35669D02*
D03*
Y35079D02*
D03*
Y34488D02*
D03*
Y33898D02*
D03*
Y32717D02*
D03*
X33110Y36260D02*
D03*
Y35669D02*
D03*
Y35079D02*
D03*
Y34488D02*
D03*
Y33898D02*
D03*
Y32126D02*
D03*
X32520Y35669D02*
D03*
X31929Y36260D02*
D03*
Y35669D02*
D03*
Y35079D02*
D03*
Y32717D02*
D03*
X31339Y33898D02*
D03*
Y33307D02*
D03*
X40787Y39803D02*
D03*
Y38622D02*
D03*
X40197Y40984D02*
D03*
Y40394D02*
D03*
Y39803D02*
D03*
X39606Y40984D02*
D03*
X39016Y42165D02*
D03*
X38425Y41575D02*
D03*
Y40984D02*
D03*
Y40394D02*
D03*
Y39213D02*
D03*
X37835Y42756D02*
D03*
Y41575D02*
D03*
X37244Y42756D02*
D03*
Y42165D02*
D03*
Y40984D02*
D03*
X36654Y42756D02*
D03*
Y41575D02*
D03*
X36063Y42756D02*
D03*
Y42165D02*
D03*
Y41575D02*
D03*
Y40984D02*
D03*
X17165Y4862D02*
D03*
Y4075D02*
D03*
Y3287D02*
D03*
X16378Y13524D02*
D03*
Y12736D02*
D03*
Y11949D02*
D03*
Y11161D02*
D03*
Y10374D02*
D03*
Y9587D02*
D03*
Y8799D02*
D03*
Y8012D02*
D03*
Y7224D02*
D03*
Y6437D02*
D03*
Y5650D02*
D03*
Y4862D02*
D03*
Y4075D02*
D03*
Y3287D02*
D03*
X15591Y13524D02*
D03*
Y12736D02*
D03*
Y11949D02*
D03*
Y11161D02*
D03*
Y10374D02*
D03*
Y9587D02*
D03*
Y8799D02*
D03*
Y8012D02*
D03*
Y5650D02*
D03*
Y4862D02*
D03*
Y4075D02*
D03*
Y3287D02*
D03*
X14803Y13524D02*
D03*
Y12736D02*
D03*
Y11949D02*
D03*
Y11161D02*
D03*
Y10374D02*
D03*
Y9587D02*
D03*
Y8799D02*
D03*
Y8012D02*
D03*
Y5650D02*
D03*
Y4862D02*
D03*
Y3287D02*
D03*
X14016Y13524D02*
D03*
Y12736D02*
D03*
Y11949D02*
D03*
Y11161D02*
D03*
Y10374D02*
D03*
Y9587D02*
D03*
Y8799D02*
D03*
Y8012D02*
D03*
Y5650D02*
D03*
Y4862D02*
D03*
Y3287D02*
D03*
X13228Y13524D02*
D03*
Y12736D02*
D03*
Y11949D02*
D03*
Y11161D02*
D03*
Y10374D02*
D03*
Y9587D02*
D03*
Y8799D02*
D03*
Y8012D02*
D03*
Y5650D02*
D03*
Y4862D02*
D03*
Y4075D02*
D03*
Y3287D02*
D03*
X12441Y13524D02*
D03*
Y12736D02*
D03*
Y11949D02*
D03*
Y11161D02*
D03*
Y10374D02*
D03*
Y9587D02*
D03*
Y8799D02*
D03*
Y8012D02*
D03*
Y7224D02*
D03*
Y6437D02*
D03*
Y5650D02*
D03*
Y4862D02*
D03*
Y4075D02*
D03*
X28976Y26220D02*
D03*
Y25630D02*
D03*
Y25039D02*
D03*
Y24449D02*
D03*
Y23858D02*
D03*
Y23268D02*
D03*
Y22677D02*
D03*
Y22087D02*
D03*
Y21496D02*
D03*
Y20905D02*
D03*
X28386Y26220D02*
D03*
Y25630D02*
D03*
Y25039D02*
D03*
Y24449D02*
D03*
Y23858D02*
D03*
Y23268D02*
D03*
Y22677D02*
D03*
Y22087D02*
D03*
Y21496D02*
D03*
Y20905D02*
D03*
X27795Y26220D02*
D03*
Y25630D02*
D03*
Y25039D02*
D03*
Y24449D02*
D03*
Y23858D02*
D03*
Y23268D02*
D03*
Y22677D02*
D03*
Y22087D02*
D03*
Y21496D02*
D03*
Y20905D02*
D03*
X27205Y26220D02*
D03*
Y25630D02*
D03*
Y25039D02*
D03*
Y24449D02*
D03*
Y23858D02*
D03*
Y23268D02*
D03*
Y22677D02*
D03*
Y22087D02*
D03*
Y21496D02*
D03*
Y20905D02*
D03*
X26614Y26220D02*
D03*
Y25630D02*
D03*
Y25039D02*
D03*
Y24449D02*
D03*
Y23858D02*
D03*
Y23268D02*
D03*
Y22677D02*
D03*
Y22087D02*
D03*
Y21496D02*
D03*
Y20905D02*
D03*
X26024Y25630D02*
D03*
Y25039D02*
D03*
Y24449D02*
D03*
Y23858D02*
D03*
Y23268D02*
D03*
Y22677D02*
D03*
Y22087D02*
D03*
Y21496D02*
D03*
Y20905D02*
D03*
X25433Y25630D02*
D03*
Y25039D02*
D03*
Y24449D02*
D03*
Y23858D02*
D03*
Y23268D02*
D03*
Y22677D02*
D03*
Y22087D02*
D03*
Y21496D02*
D03*
X24843Y25630D02*
D03*
Y25039D02*
D03*
Y24449D02*
D03*
Y23858D02*
D03*
Y23268D02*
D03*
Y22677D02*
D03*
Y22087D02*
D03*
X24252Y25630D02*
D03*
Y25039D02*
D03*
Y24449D02*
D03*
Y23858D02*
D03*
Y23268D02*
D03*
Y22677D02*
D03*
Y22087D02*
D03*
X23661Y25039D02*
D03*
Y24449D02*
D03*
Y23858D02*
D03*
Y23268D02*
D03*
Y22677D02*
D03*
Y22087D02*
D03*
Y21496D02*
D03*
X23071Y22087D02*
D03*
Y21496D02*
D03*
X22480Y22087D02*
D03*
X21299D02*
D03*
Y21496D02*
D03*
X6535Y36457D02*
D03*
X7323D02*
D03*
Y38819D02*
D03*
X8110Y38032D02*
D03*
Y38819D02*
D03*
Y39606D02*
D03*
X8898Y36457D02*
D03*
Y37244D02*
D03*
Y38032D02*
D03*
Y38819D02*
D03*
Y39606D02*
D03*
X9685Y37244D02*
D03*
Y38819D02*
D03*
X10472Y36457D02*
D03*
Y38032D02*
D03*
Y39606D02*
D03*
X11260Y36457D02*
D03*
Y38032D02*
D03*
Y39606D02*
D03*
X12047Y36457D02*
D03*
Y37244D02*
D03*
Y38032D02*
D03*
X12835Y36457D02*
D03*
Y37244D02*
D03*
Y38819D02*
D03*
Y39606D02*
D03*
X13622Y36457D02*
D03*
Y37244D02*
D03*
Y38032D02*
D03*
Y39606D02*
D03*
X14409Y36457D02*
D03*
Y38032D02*
D03*
Y39606D02*
D03*
X15197Y36457D02*
D03*
Y37244D02*
D03*
Y38032D02*
D03*
Y38819D02*
D03*
X46693Y37244D02*
D03*
X47480Y38819D02*
D03*
X48268Y38032D02*
D03*
Y38819D02*
D03*
Y39606D02*
D03*
X49055Y36457D02*
D03*
Y37244D02*
D03*
Y38819D02*
D03*
X49843Y36457D02*
D03*
Y37244D02*
D03*
Y38819D02*
D03*
X51417Y38032D02*
D03*
Y38819D02*
D03*
Y39606D02*
D03*
X52205Y36457D02*
D03*
Y37244D02*
D03*
Y38819D02*
D03*
X52992Y36457D02*
D03*
Y39606D02*
D03*
X53780Y38819D02*
D03*
Y39606D02*
D03*
X54567D02*
D03*
X47441Y29527D02*
D03*
X45472Y26280D02*
D03*
X44980Y25886D02*
D03*
X49705D02*
D03*
X50295D02*
D03*
X17756Y36260D02*
D03*
Y36850D02*
D03*
Y37441D02*
D03*
X18346Y36260D02*
D03*
Y36850D02*
D03*
Y37441D02*
D03*
X18937Y36260D02*
D03*
Y36850D02*
D03*
Y37441D02*
D03*
X19528Y36260D02*
D03*
Y36850D02*
D03*
Y37441D02*
D03*
X20118Y36850D02*
D03*
Y37441D02*
D03*
X20709Y36850D02*
D03*
Y37441D02*
D03*
X21299Y36850D02*
D03*
Y37441D02*
D03*
X22480D02*
D03*
X21299Y32717D02*
D03*
Y33307D02*
D03*
Y34488D02*
D03*
X21890Y32717D02*
D03*
Y33307D02*
D03*
Y33898D02*
D03*
X22480Y32717D02*
D03*
Y33307D02*
D03*
Y33898D02*
D03*
X23071Y32717D02*
D03*
Y33307D02*
D03*
Y33898D02*
D03*
Y34488D02*
D03*
X23661Y32717D02*
D03*
Y33307D02*
D03*
Y33898D02*
D03*
Y34488D02*
D03*
X24252Y32717D02*
D03*
Y33307D02*
D03*
Y33898D02*
D03*
Y35079D02*
D03*
X24843Y32717D02*
D03*
Y33307D02*
D03*
Y33898D02*
D03*
Y35079D02*
D03*
X25433Y32717D02*
D03*
Y33307D02*
D03*
X26024Y32717D02*
D03*
Y33307D02*
D03*
Y33898D02*
D03*
X26614Y32126D02*
D03*
Y32717D02*
D03*
Y33307D02*
D03*
Y33898D02*
D03*
Y34488D02*
D03*
X27205Y32126D02*
D03*
Y32717D02*
D03*
Y33307D02*
D03*
Y33898D02*
D03*
Y34488D02*
D03*
X27795Y32126D02*
D03*
Y32717D02*
D03*
Y33307D02*
D03*
Y33898D02*
D03*
Y34488D02*
D03*
X28386Y32126D02*
D03*
Y32717D02*
D03*
Y33307D02*
D03*
Y33898D02*
D03*
Y34488D02*
D03*
X28976Y32126D02*
D03*
Y32717D02*
D03*
Y33307D02*
D03*
Y33898D02*
D03*
Y34488D02*
D03*
X14852Y29242D02*
D03*
X15453Y29232D02*
D03*
X6496Y13091D02*
D03*
X8661Y12795D02*
D03*
X53780Y75039D02*
D03*
Y75827D02*
D03*
Y76614D02*
D03*
Y78976D02*
D03*
X54567D02*
D03*
X56142Y75039D02*
D03*
Y75827D02*
D03*
Y76614D02*
D03*
Y77402D02*
D03*
X56929Y75827D02*
D03*
Y77402D02*
D03*
X57717Y76614D02*
D03*
Y78189D02*
D03*
X58504Y75039D02*
D03*
Y76614D02*
D03*
Y77402D02*
D03*
Y78189D02*
D03*
Y78976D02*
D03*
X52992Y67165D02*
D03*
Y67953D02*
D03*
Y68740D02*
D03*
Y70315D02*
D03*
Y71102D02*
D03*
X53780Y66378D02*
D03*
Y67165D02*
D03*
Y67953D02*
D03*
Y70315D02*
D03*
Y71102D02*
D03*
X54567Y67165D02*
D03*
Y69528D02*
D03*
X55354Y67165D02*
D03*
Y68740D02*
D03*
Y69528D02*
D03*
Y71102D02*
D03*
X56142Y67165D02*
D03*
Y70315D02*
D03*
X56929Y66378D02*
D03*
Y67165D02*
D03*
Y69528D02*
D03*
Y70315D02*
D03*
X47480Y65591D02*
D03*
Y66378D02*
D03*
X49055Y63228D02*
D03*
Y65591D02*
D03*
Y66378D02*
D03*
X49843Y64016D02*
D03*
Y64803D02*
D03*
X50630Y64016D02*
D03*
Y64803D02*
D03*
Y65591D02*
D03*
X52992Y66378D02*
D03*
Y51417D02*
D03*
Y52205D02*
D03*
Y52992D02*
D03*
X53780D02*
D03*
X54567Y49055D02*
D03*
Y49843D02*
D03*
Y52205D02*
D03*
X55354Y49055D02*
D03*
Y52992D02*
D03*
X56142Y50630D02*
D03*
Y51417D02*
D03*
X56929Y49843D02*
D03*
Y50630D02*
D03*
Y52205D02*
D03*
X47480Y74252D02*
D03*
Y76614D02*
D03*
Y77402D02*
D03*
Y79764D02*
D03*
X48268Y75827D02*
D03*
X49055D02*
D03*
Y76614D02*
D03*
Y78189D02*
D03*
Y79764D02*
D03*
X49843Y74252D02*
D03*
Y76614D02*
D03*
Y80551D02*
D03*
X50630Y75039D02*
D03*
Y75827D02*
D03*
Y78976D02*
D03*
Y80551D02*
D03*
X51417Y74252D02*
D03*
Y76614D02*
D03*
Y80551D02*
D03*
X52992Y58504D02*
D03*
Y59291D02*
D03*
Y60079D02*
D03*
Y61654D02*
D03*
X53780Y60866D02*
D03*
X54567Y58504D02*
D03*
Y60866D02*
D03*
X55354D02*
D03*
X56142Y58504D02*
D03*
Y60866D02*
D03*
X56929Y58504D02*
D03*
Y60866D02*
D03*
Y61654D02*
D03*
X58504Y66378D02*
D03*
Y67165D02*
D03*
Y69528D02*
D03*
Y70315D02*
D03*
X59291Y66378D02*
D03*
Y67165D02*
D03*
Y67953D02*
D03*
Y68740D02*
D03*
Y69528D02*
D03*
Y70315D02*
D03*
X60079Y66378D02*
D03*
Y67165D02*
D03*
Y69528D02*
D03*
Y70315D02*
D03*
X60866Y66378D02*
D03*
Y67165D02*
D03*
Y69528D02*
D03*
Y70315D02*
D03*
X58504Y57717D02*
D03*
Y58504D02*
D03*
Y60866D02*
D03*
Y61654D02*
D03*
X59291Y57717D02*
D03*
Y58504D02*
D03*
Y59291D02*
D03*
Y60079D02*
D03*
Y60866D02*
D03*
Y61654D02*
D03*
X60079Y57717D02*
D03*
Y58504D02*
D03*
Y60866D02*
D03*
Y61654D02*
D03*
X60866Y57717D02*
D03*
Y58504D02*
D03*
Y60866D02*
D03*
Y61654D02*
D03*
X45118Y49055D02*
D03*
Y49843D02*
D03*
X45906Y48268D02*
D03*
Y49055D02*
D03*
Y50630D02*
D03*
X46693Y49055D02*
D03*
Y49843D02*
D03*
X47480Y47480D02*
D03*
Y48268D02*
D03*
Y49055D02*
D03*
Y49843D02*
D03*
X48268Y47480D02*
D03*
Y48268D02*
D03*
Y49843D02*
D03*
Y50630D02*
D03*
X49843Y47480D02*
D03*
X39606Y24449D02*
D03*
Y25039D02*
D03*
Y25630D02*
D03*
X40197Y24449D02*
D03*
Y25039D02*
D03*
Y25630D02*
D03*
X40787Y23268D02*
D03*
Y24449D02*
D03*
Y25039D02*
D03*
Y25630D02*
D03*
X41378Y23268D02*
D03*
Y23858D02*
D03*
Y24449D02*
D03*
Y25039D02*
D03*
Y25630D02*
D03*
X41968Y23268D02*
D03*
Y23858D02*
D03*
Y24449D02*
D03*
Y25039D02*
D03*
Y25630D02*
D03*
X42559Y22677D02*
D03*
Y23268D02*
D03*
Y23858D02*
D03*
Y24449D02*
D03*
Y25039D02*
D03*
Y25630D02*
D03*
X43150Y22087D02*
D03*
Y22677D02*
D03*
Y23268D02*
D03*
Y23858D02*
D03*
Y24449D02*
D03*
Y25039D02*
D03*
Y25630D02*
D03*
X43740Y22087D02*
D03*
Y22677D02*
D03*
Y24449D02*
D03*
Y25039D02*
D03*
Y25630D02*
D03*
X41969Y60079D02*
D03*
Y60866D02*
D03*
Y61654D02*
D03*
X43543Y60866D02*
D03*
X44331D02*
D03*
X43543Y61654D02*
D03*
X42756Y62441D02*
D03*
X44331D02*
D03*
X42756Y63228D02*
D03*
X45118Y64016D02*
D03*
X41969Y62441D02*
D03*
Y63228D02*
D03*
X42756Y60079D02*
D03*
Y60866D02*
D03*
Y61654D02*
D03*
X43543Y60079D02*
D03*
Y62441D02*
D03*
X44331Y60079D02*
D03*
Y61654D02*
D03*
X45118D02*
D03*
Y62441D02*
D03*
Y63228D02*
D03*
X9685Y45906D02*
D03*
Y46693D02*
D03*
Y49055D02*
D03*
Y49843D02*
D03*
Y50630D02*
D03*
X10472Y45906D02*
D03*
Y49055D02*
D03*
Y49843D02*
D03*
Y50630D02*
D03*
X11260Y45906D02*
D03*
Y46693D02*
D03*
Y47480D02*
D03*
Y48268D02*
D03*
Y49055D02*
D03*
Y49843D02*
D03*
Y50630D02*
D03*
X12047Y45906D02*
D03*
Y46693D02*
D03*
Y47480D02*
D03*
Y48268D02*
D03*
Y49055D02*
D03*
Y49843D02*
D03*
Y50630D02*
D03*
X12835Y45906D02*
D03*
Y46693D02*
D03*
Y47480D02*
D03*
Y48268D02*
D03*
Y49055D02*
D03*
Y49843D02*
D03*
Y50630D02*
D03*
D105*
X17421Y27953D02*
D03*
X1673Y7874D02*
D03*
X1772Y6299D02*
D03*
X46555Y28051D02*
D03*
X48524Y28051D02*
D03*
X57126Y7028D02*
D03*
X58071Y8957D02*
D03*
X60236Y9843D02*
D03*
X55807Y12795D02*
D03*
X56102Y18012D02*
D03*
X56791Y12795D02*
D03*
X53297Y12697D02*
D03*
X52953Y14370D02*
D03*
X55610Y14272D02*
D03*
X57283Y5709D02*
D03*
X55118Y6496D02*
D03*
X53346Y9744D02*
D03*
X55709D02*
D03*
X56004Y8957D02*
D03*
X54724Y8268D02*
D03*
X56299Y7087D02*
D03*
X44193Y28445D02*
D03*
X46161Y27461D02*
D03*
X49114Y19488D02*
D03*
X49705Y18701D02*
D03*
X48622Y27165D02*
D03*
X47617Y26870D02*
D03*
X49606Y28543D02*
D03*
X14468Y28051D02*
D03*
X16634Y27953D02*
D03*
X12303D02*
D03*
X4921Y17028D02*
D03*
Y13189D02*
D03*
X5807Y14370D02*
D03*
X5709Y16535D02*
D03*
X56791Y17028D02*
D03*
X55118Y19547D02*
D03*
X52461Y18701D02*
D03*
X6988Y19193D02*
D03*
X9646Y18406D02*
D03*
X6693Y14370D02*
D03*
X9350D02*
D03*
X13287Y19193D02*
D03*
Y26378D02*
D03*
X14173Y19193D02*
D03*
X14567Y26476D02*
D03*
X4331Y7874D02*
D03*
Y6496D02*
D03*
X5020Y9449D02*
D03*
X5630Y8937D02*
D03*
X6004Y10335D02*
D03*
X8760D02*
D03*
X7431Y8317D02*
D03*
D106*
X28346Y35482D02*
D03*
Y37746D02*
D03*
X35138Y39616D02*
D03*
Y37352D02*
D03*
X35630Y25541D02*
D03*
Y23278D02*
D03*
D107*
X22293Y15589D02*
D03*
X24557D02*
D03*
D108*
X7028Y17421D02*
D03*
X5768D02*
D03*
X55059Y14272D02*
D03*
X53799D02*
D03*
X57323Y18701D02*
D03*
X56063D02*
D03*
X59094Y5709D02*
D03*
X57835D02*
D03*
X8701Y14370D02*
D03*
X7441D02*
D03*
X2402Y8692D02*
D03*
X3661D02*
D03*
X2441Y5464D02*
D03*
X3701D02*
D03*
D109*
X59449Y11063D02*
D03*
Y9803D02*
D03*
D110*
X37608Y34843D02*
D03*
X36014D02*
D03*
D111*
X24213Y37874D02*
D03*
Y39469D02*
D03*
X37620Y20933D02*
D03*
Y22528D02*
D03*
X24508Y21073D02*
D03*
Y19478D02*
D03*
D112*
X7776Y31211D02*
D03*
Y29419D02*
D03*
X19094Y30620D02*
D03*
Y28829D02*
D03*
X53740Y30325D02*
D03*
Y28533D02*
D03*
X42618Y30128D02*
D03*
Y28337D02*
D03*
D113*
X19488Y15748D02*
D03*
Y13484D02*
D03*
X18602Y45226D02*
D03*
Y42963D02*
D03*
X42126Y45325D02*
D03*
Y43061D02*
D03*
D114*
X43061Y16732D02*
D03*
X45325D02*
D03*
D115*
X47451Y30118D02*
D03*
X46841D02*
D03*
X15463Y29724D02*
D03*
X14852D02*
D03*
D116*
X26083Y37789D02*
D03*
Y35439D02*
D03*
X37303Y37703D02*
D03*
Y40053D02*
D03*
X37894Y23333D02*
D03*
Y25683D02*
D03*
D117*
X24797Y17815D02*
D03*
X22447D02*
D03*
M02*
