G04 Layer_Color=8388736*
%FSLAX24Y24*%
%MOIN*%
G70*
G01*
G75*
G04:AMPARAMS|DCode=71|XSize=137.8mil|YSize=98.4mil|CornerRadius=9.8mil|HoleSize=0mil|Usage=FLASHONLY|Rotation=0.000|XOffset=0mil|YOffset=0mil|HoleType=Round|Shape=RoundedRectangle|*
%AMROUNDEDRECTD71*
21,1,0.1378,0.0787,0,0,0.0*
21,1,0.1181,0.0984,0,0,0.0*
1,1,0.0197,0.0591,-0.0394*
1,1,0.0197,-0.0591,-0.0394*
1,1,0.0197,-0.0591,0.0394*
1,1,0.0197,0.0591,0.0394*
%
%ADD71ROUNDEDRECTD71*%
G04:AMPARAMS|DCode=72|XSize=137.8mil|YSize=98.4mil|CornerRadius=9.8mil|HoleSize=0mil|Usage=FLASHONLY|Rotation=90.000|XOffset=0mil|YOffset=0mil|HoleType=Round|Shape=RoundedRectangle|*
%AMROUNDEDRECTD72*
21,1,0.1378,0.0787,0,0,90.0*
21,1,0.1181,0.0984,0,0,90.0*
1,1,0.0197,0.0394,0.0591*
1,1,0.0197,0.0394,-0.0591*
1,1,0.0197,-0.0394,-0.0591*
1,1,0.0197,-0.0394,0.0591*
%
%ADD72ROUNDEDRECTD72*%
%ADD73O,0.0316X0.0651*%
%ADD74R,0.0316X0.0651*%
%ADD75R,0.0513X0.0808*%
%ADD76R,0.0671X0.0434*%
%ADD77R,0.0493X0.0395*%
%ADD78R,0.0533X0.1182*%
%ADD79R,0.0513X0.0474*%
%ADD80R,0.0474X0.0513*%
%ADD81R,0.0940X0.1102*%
%ADD82R,0.0474X0.1143*%
%ADD83R,0.1379X0.1143*%
%ADD84R,0.0867X0.0690*%
%ADD85R,0.0690X0.0867*%
%ADD86R,0.0316X0.0690*%
%ADD87O,0.0316X0.0690*%
%ADD88R,0.0769X0.0513*%
%ADD89C,0.1030*%
%ADD90C,0.0880*%
%ADD91C,0.2088*%
%ADD92C,0.1458*%
%ADD93R,0.1458X0.1458*%
%ADD94C,0.0986*%
%ADD95R,0.0986X0.0986*%
%ADD96R,0.0579X0.0579*%
%ADD97C,0.0579*%
%ADD98C,0.1064*%
%ADD99R,0.1064X0.1064*%
%ADD100R,0.0615X0.0615*%
%ADD101C,0.0615*%
%ADD102R,0.0910X0.0910*%
%ADD103C,0.0910*%
%ADD104C,0.0434*%
%ADD105C,0.0552*%
D71*
X30512Y71063D02*
D03*
X32087D02*
D03*
X35236D02*
D03*
X33661D02*
D03*
X36811D02*
D03*
X28937D02*
D03*
X25787D02*
D03*
X27362D02*
D03*
X24213D02*
D03*
X22638D02*
D03*
X21063D02*
D03*
X17913D02*
D03*
X19488D02*
D03*
X16339D02*
D03*
X14764Y68701D02*
D03*
Y67520D02*
D03*
X16339D02*
D03*
Y68701D02*
D03*
Y69882D02*
D03*
X19488D02*
D03*
Y68701D02*
D03*
Y67520D02*
D03*
Y66339D02*
D03*
X17913Y67520D02*
D03*
Y68701D02*
D03*
Y69882D02*
D03*
X21063Y66339D02*
D03*
Y67520D02*
D03*
Y68701D02*
D03*
Y69882D02*
D03*
X22638D02*
D03*
Y68701D02*
D03*
Y67520D02*
D03*
Y66339D02*
D03*
X24213D02*
D03*
Y67520D02*
D03*
Y68701D02*
D03*
Y69882D02*
D03*
X27362D02*
D03*
Y68701D02*
D03*
Y67520D02*
D03*
Y66339D02*
D03*
X25787D02*
D03*
Y67520D02*
D03*
Y68701D02*
D03*
Y69882D02*
D03*
X28937Y66339D02*
D03*
Y67520D02*
D03*
Y68701D02*
D03*
Y69882D02*
D03*
X38386Y71063D02*
D03*
X50984Y69882D02*
D03*
Y71063D02*
D03*
X49409D02*
D03*
X47835D02*
D03*
X46260D02*
D03*
X44685D02*
D03*
X43110D02*
D03*
X41535Y69882D02*
D03*
Y71063D02*
D03*
X39961D02*
D03*
Y69882D02*
D03*
Y68701D02*
D03*
X36811Y69882D02*
D03*
Y68701D02*
D03*
Y67520D02*
D03*
Y66339D02*
D03*
X38386D02*
D03*
Y67520D02*
D03*
Y68701D02*
D03*
Y69882D02*
D03*
X33661D02*
D03*
Y68701D02*
D03*
Y67520D02*
D03*
Y66339D02*
D03*
X35236D02*
D03*
Y67520D02*
D03*
Y68701D02*
D03*
Y69882D02*
D03*
X32087D02*
D03*
Y68701D02*
D03*
Y67520D02*
D03*
Y66339D02*
D03*
X30512D02*
D03*
Y67520D02*
D03*
Y68701D02*
D03*
Y69882D02*
D03*
D72*
X1969Y57283D02*
D03*
X3150D02*
D03*
X4331D02*
D03*
X5512D02*
D03*
Y55709D02*
D03*
X4331D02*
D03*
X3150D02*
D03*
X1969D02*
D03*
X6693Y55709D02*
D03*
Y57283D02*
D03*
Y65157D02*
D03*
Y62008D02*
D03*
Y63583D02*
D03*
Y60433D02*
D03*
Y58858D02*
D03*
X1969Y58858D02*
D03*
X3150D02*
D03*
X4331D02*
D03*
X5512D02*
D03*
Y60433D02*
D03*
X4331D02*
D03*
X3150D02*
D03*
X1969D02*
D03*
Y63583D02*
D03*
X3150D02*
D03*
X4331D02*
D03*
X5512D02*
D03*
Y62008D02*
D03*
X4331D02*
D03*
X3150D02*
D03*
X1969D02*
D03*
X5512Y65157D02*
D03*
X4331D02*
D03*
X3150D02*
D03*
X1969D02*
D03*
X4331Y54134D02*
D03*
X3150D02*
D03*
X1969D02*
D03*
Y52559D02*
D03*
Y43701D02*
D03*
Y42126D02*
D03*
X3150D02*
D03*
X6693Y40551D02*
D03*
X1969Y40551D02*
D03*
X3150D02*
D03*
X4331D02*
D03*
X5512D02*
D03*
X1969Y38976D02*
D03*
X3150D02*
D03*
X4331D02*
D03*
X5512D02*
D03*
X3150Y37402D02*
D03*
X4331D02*
D03*
X5512D02*
D03*
X53346Y42520D02*
D03*
X54528D02*
D03*
X55709D02*
D03*
X56890D02*
D03*
X58071Y42520D02*
D03*
X53346Y40945D02*
D03*
X54528D02*
D03*
X55709D02*
D03*
X56890D02*
D03*
X58071Y40945D02*
D03*
X55709Y39370D02*
D03*
X56890D02*
D03*
X58071Y39370D02*
D03*
X55709Y37795D02*
D03*
X56890D02*
D03*
X58071Y37795D02*
D03*
X52165Y40945D02*
D03*
Y42520D02*
D03*
X58071Y44094D02*
D03*
Y45669D02*
D03*
X56890Y44094D02*
D03*
Y45669D02*
D03*
X55709Y44094D02*
D03*
D73*
X16461Y30797D02*
D03*
X15961D02*
D03*
X15461D02*
D03*
X14961D02*
D03*
X14461D02*
D03*
X13961D02*
D03*
X13461D02*
D03*
X16461Y28652D02*
D03*
X15961D02*
D03*
X15461D02*
D03*
X14961D02*
D03*
X14461D02*
D03*
X13961D02*
D03*
X48350Y31191D02*
D03*
X47850D02*
D03*
X47350D02*
D03*
X46850D02*
D03*
X46350D02*
D03*
X45850D02*
D03*
X45350D02*
D03*
X48350Y29045D02*
D03*
X47850D02*
D03*
X47350D02*
D03*
X46850D02*
D03*
X46350D02*
D03*
X45850D02*
D03*
D74*
X13461Y28652D02*
D03*
X45350Y29045D02*
D03*
D75*
X17382Y39862D02*
D03*
X18642D02*
D03*
X18169Y34055D02*
D03*
X19429D02*
D03*
X17480Y22638D02*
D03*
X18740D02*
D03*
X17087Y19291D02*
D03*
X18346D02*
D03*
X43642Y32677D02*
D03*
X42382D02*
D03*
X45315Y39370D02*
D03*
X44055D02*
D03*
X44528Y20669D02*
D03*
X43268D02*
D03*
X45315Y23622D02*
D03*
X44055D02*
D03*
D76*
X56890Y16358D02*
D03*
Y15532D02*
D03*
X4921Y16555D02*
D03*
Y15728D02*
D03*
D77*
X6890Y7490D02*
D03*
Y6880D02*
D03*
X7776Y7490D02*
D03*
Y6880D02*
D03*
X54331Y7589D02*
D03*
Y6978D02*
D03*
X55217Y7589D02*
D03*
Y6978D02*
D03*
D78*
X13789Y32480D02*
D03*
X15148D02*
D03*
X45679Y32874D02*
D03*
X47037D02*
D03*
D79*
X7087Y8839D02*
D03*
Y9469D02*
D03*
X7776Y8839D02*
D03*
Y9469D02*
D03*
X54232Y8839D02*
D03*
Y9469D02*
D03*
X54923Y8839D02*
D03*
Y9469D02*
D03*
D80*
X8051Y18898D02*
D03*
X8681D02*
D03*
X53720Y19094D02*
D03*
X54350D02*
D03*
X5630Y6791D02*
D03*
X5000D02*
D03*
X55689Y6004D02*
D03*
X56319D02*
D03*
D81*
X2412Y6457D02*
D03*
X3652D02*
D03*
X2412Y7857D02*
D03*
X3652D02*
D03*
X58041Y6583D02*
D03*
X59281D02*
D03*
X58041Y7983D02*
D03*
X59281D02*
D03*
D82*
X9075Y16909D02*
D03*
X8169D02*
D03*
X7264D02*
D03*
X54843Y17598D02*
D03*
X53937D02*
D03*
X53032D02*
D03*
D83*
X8169Y14587D02*
D03*
X53937Y15276D02*
D03*
D84*
X17008Y38780D02*
D03*
X18819D02*
D03*
X17008Y24016D02*
D03*
X18819D02*
D03*
X44213Y33858D02*
D03*
X42402D02*
D03*
X45000Y19488D02*
D03*
X43189D02*
D03*
D85*
X12303Y30728D02*
D03*
Y28917D02*
D03*
X17618Y30531D02*
D03*
Y28720D02*
D03*
X44193Y31024D02*
D03*
Y29213D02*
D03*
X49606Y31024D02*
D03*
Y29213D02*
D03*
D86*
X6730Y10443D02*
D03*
X53778Y10541D02*
D03*
D87*
X7230Y10443D02*
D03*
X7730D02*
D03*
X8230D02*
D03*
X6730Y12589D02*
D03*
X7230D02*
D03*
X7730D02*
D03*
X8230D02*
D03*
X54278Y10541D02*
D03*
X54778D02*
D03*
X55278D02*
D03*
X53778Y12687D02*
D03*
X54278D02*
D03*
X54778D02*
D03*
X55278D02*
D03*
D88*
X4921Y13691D02*
D03*
Y15049D02*
D03*
X56890Y13494D02*
D03*
Y14852D02*
D03*
D89*
X46130Y7087D02*
D03*
X48130D02*
D03*
X28445Y63386D02*
D03*
Y61386D02*
D03*
X13650Y6693D02*
D03*
X15650D02*
D03*
X59547Y53543D02*
D03*
Y55543D02*
D03*
D90*
X7087Y23031D02*
D03*
Y37795D02*
D03*
X54724Y22047D02*
D03*
Y36811D02*
D03*
D91*
X24232Y51339D02*
D03*
Y30108D02*
D03*
X37933Y30148D02*
D03*
Y51378D02*
D03*
X24232Y28140D02*
D03*
Y6909D02*
D03*
X37933Y6949D02*
D03*
Y28179D02*
D03*
D92*
X10236Y47638D02*
D03*
Y72638D02*
D03*
X49508Y49902D02*
D03*
X44094Y63583D02*
D03*
X50787Y77559D02*
D03*
X16732Y60236D02*
D03*
D93*
X6299Y47638D02*
D03*
Y72638D02*
D03*
X53445Y49902D02*
D03*
X48032Y63583D02*
D03*
X54724Y77559D02*
D03*
X12795Y60236D02*
D03*
D94*
X40098Y23593D02*
D03*
Y21447D02*
D03*
X22028Y19301D02*
D03*
Y21447D02*
D03*
Y34655D02*
D03*
Y36801D02*
D03*
X40098Y38947D02*
D03*
Y36801D02*
D03*
D95*
Y19301D02*
D03*
X22028Y23593D02*
D03*
Y38947D02*
D03*
X40098Y34655D02*
D03*
D96*
X54921Y4331D02*
D03*
X6693Y4331D02*
D03*
D97*
X55709Y4331D02*
D03*
X56496D02*
D03*
X57283D02*
D03*
X58071D02*
D03*
X58861D02*
D03*
X5906Y4331D02*
D03*
X5118D02*
D03*
X4331D02*
D03*
X3543D02*
D03*
X2753D02*
D03*
D98*
X60433Y59843D02*
D03*
X58465D02*
D03*
X56496D02*
D03*
X54528Y68504D02*
D03*
X56496D02*
D03*
X58465D02*
D03*
D99*
X54528Y59843D02*
D03*
X60433Y68504D02*
D03*
D100*
X2362Y9653D02*
D03*
X58071Y9843D02*
D03*
D101*
X2362Y10653D02*
D03*
Y13653D02*
D03*
Y14653D02*
D03*
Y15653D02*
D03*
X58071Y10843D02*
D03*
Y13843D02*
D03*
Y14843D02*
D03*
Y15843D02*
D03*
D102*
X37303Y74228D02*
D03*
D103*
Y75787D02*
D03*
Y77346D02*
D03*
D104*
X12835Y50630D02*
D03*
Y49843D02*
D03*
Y49055D02*
D03*
Y48268D02*
D03*
Y47480D02*
D03*
Y46693D02*
D03*
Y45906D02*
D03*
X12047Y50630D02*
D03*
Y49843D02*
D03*
Y49055D02*
D03*
Y48268D02*
D03*
Y47480D02*
D03*
Y46693D02*
D03*
Y45906D02*
D03*
X11260Y50630D02*
D03*
Y49843D02*
D03*
Y49055D02*
D03*
Y48268D02*
D03*
Y47480D02*
D03*
Y46693D02*
D03*
Y45906D02*
D03*
X10472Y50630D02*
D03*
Y49843D02*
D03*
Y49055D02*
D03*
Y45906D02*
D03*
X9685Y50630D02*
D03*
Y49843D02*
D03*
Y49055D02*
D03*
Y46693D02*
D03*
Y45906D02*
D03*
X45118Y63228D02*
D03*
Y62441D02*
D03*
Y61654D02*
D03*
X44331D02*
D03*
Y60079D02*
D03*
X43543Y62441D02*
D03*
Y60079D02*
D03*
X42756Y61654D02*
D03*
Y60866D02*
D03*
Y60079D02*
D03*
X41969Y63228D02*
D03*
Y62441D02*
D03*
X45118Y64016D02*
D03*
X42756Y63228D02*
D03*
X44331Y62441D02*
D03*
X42756D02*
D03*
X43543Y61654D02*
D03*
X44331Y60866D02*
D03*
X43543D02*
D03*
X41969Y61654D02*
D03*
Y60866D02*
D03*
Y60079D02*
D03*
X43740Y25630D02*
D03*
Y25039D02*
D03*
Y24449D02*
D03*
Y22677D02*
D03*
Y22087D02*
D03*
X43150Y25630D02*
D03*
Y25039D02*
D03*
Y24449D02*
D03*
Y23858D02*
D03*
Y23268D02*
D03*
Y22677D02*
D03*
Y22087D02*
D03*
X42559Y25630D02*
D03*
Y25039D02*
D03*
Y24449D02*
D03*
Y23858D02*
D03*
Y23268D02*
D03*
Y22677D02*
D03*
X41968Y25630D02*
D03*
Y25039D02*
D03*
Y24449D02*
D03*
Y23858D02*
D03*
Y23268D02*
D03*
X41378Y25630D02*
D03*
Y25039D02*
D03*
Y24449D02*
D03*
Y23858D02*
D03*
Y23268D02*
D03*
X40787Y25630D02*
D03*
Y25039D02*
D03*
Y24449D02*
D03*
Y23268D02*
D03*
X40197Y25630D02*
D03*
Y25039D02*
D03*
Y24449D02*
D03*
X39606Y25630D02*
D03*
Y25039D02*
D03*
Y24449D02*
D03*
X49843Y47480D02*
D03*
X48268Y50630D02*
D03*
Y49843D02*
D03*
Y48268D02*
D03*
Y47480D02*
D03*
X47480Y49843D02*
D03*
Y49055D02*
D03*
Y48268D02*
D03*
Y47480D02*
D03*
X46693Y49843D02*
D03*
Y49055D02*
D03*
X45906Y50630D02*
D03*
Y49055D02*
D03*
Y48268D02*
D03*
X45118Y49843D02*
D03*
Y49055D02*
D03*
X60866Y61654D02*
D03*
Y60866D02*
D03*
Y58504D02*
D03*
Y57717D02*
D03*
X60079Y61654D02*
D03*
Y60866D02*
D03*
Y58504D02*
D03*
Y57717D02*
D03*
X59291Y61654D02*
D03*
Y60866D02*
D03*
Y60079D02*
D03*
Y59291D02*
D03*
Y58504D02*
D03*
Y57717D02*
D03*
X58504Y61654D02*
D03*
Y60866D02*
D03*
Y58504D02*
D03*
Y57717D02*
D03*
X60866Y70315D02*
D03*
Y69528D02*
D03*
Y67165D02*
D03*
Y66378D02*
D03*
X60079Y70315D02*
D03*
Y69528D02*
D03*
Y67165D02*
D03*
Y66378D02*
D03*
X59291Y70315D02*
D03*
Y69528D02*
D03*
Y68740D02*
D03*
Y67953D02*
D03*
Y67165D02*
D03*
Y66378D02*
D03*
X58504Y70315D02*
D03*
Y69528D02*
D03*
Y67165D02*
D03*
Y66378D02*
D03*
X56929Y61654D02*
D03*
Y60866D02*
D03*
Y58504D02*
D03*
X56142Y60866D02*
D03*
Y58504D02*
D03*
X55354Y60866D02*
D03*
X54567D02*
D03*
Y58504D02*
D03*
X53780Y60866D02*
D03*
X52992Y61654D02*
D03*
Y60079D02*
D03*
Y59291D02*
D03*
Y58504D02*
D03*
X51417Y80551D02*
D03*
Y76614D02*
D03*
Y74252D02*
D03*
X50630Y80551D02*
D03*
Y78976D02*
D03*
Y75827D02*
D03*
Y75039D02*
D03*
X49843Y80551D02*
D03*
Y76614D02*
D03*
Y74252D02*
D03*
X49055Y79764D02*
D03*
Y78189D02*
D03*
Y76614D02*
D03*
Y75827D02*
D03*
X48268D02*
D03*
X47480Y79764D02*
D03*
Y77402D02*
D03*
Y76614D02*
D03*
Y74252D02*
D03*
X56929Y52205D02*
D03*
Y50630D02*
D03*
Y49843D02*
D03*
X56142Y51417D02*
D03*
Y50630D02*
D03*
X55354Y52992D02*
D03*
Y49055D02*
D03*
X54567Y52205D02*
D03*
Y49843D02*
D03*
Y49055D02*
D03*
X53780Y52992D02*
D03*
X52992D02*
D03*
Y52205D02*
D03*
Y51417D02*
D03*
Y66378D02*
D03*
X50630Y65591D02*
D03*
Y64803D02*
D03*
Y64016D02*
D03*
X49843Y64803D02*
D03*
Y64016D02*
D03*
X49055Y66378D02*
D03*
Y65591D02*
D03*
Y63228D02*
D03*
X47480Y66378D02*
D03*
Y65591D02*
D03*
X56929Y70315D02*
D03*
Y69528D02*
D03*
Y67165D02*
D03*
Y66378D02*
D03*
X56142Y70315D02*
D03*
Y67165D02*
D03*
X55354Y71102D02*
D03*
Y69528D02*
D03*
Y68740D02*
D03*
Y67165D02*
D03*
X54567Y69528D02*
D03*
Y67165D02*
D03*
X53780Y71102D02*
D03*
Y70315D02*
D03*
Y67953D02*
D03*
Y67165D02*
D03*
Y66378D02*
D03*
X52992Y71102D02*
D03*
Y70315D02*
D03*
Y68740D02*
D03*
Y67953D02*
D03*
Y67165D02*
D03*
X58504Y78976D02*
D03*
Y78189D02*
D03*
Y77402D02*
D03*
Y76614D02*
D03*
Y75039D02*
D03*
X57717Y78189D02*
D03*
Y76614D02*
D03*
X56929Y77402D02*
D03*
Y75827D02*
D03*
X56142Y77402D02*
D03*
Y76614D02*
D03*
Y75827D02*
D03*
Y75039D02*
D03*
X54567Y78976D02*
D03*
X53780D02*
D03*
Y76614D02*
D03*
Y75827D02*
D03*
Y75039D02*
D03*
X8661Y12795D02*
D03*
X6496Y13091D02*
D03*
X15453Y29232D02*
D03*
X14852Y29242D02*
D03*
X28976Y34488D02*
D03*
Y33898D02*
D03*
Y33307D02*
D03*
Y32717D02*
D03*
Y32126D02*
D03*
X28386Y34488D02*
D03*
Y33898D02*
D03*
Y33307D02*
D03*
Y32717D02*
D03*
Y32126D02*
D03*
X27795Y34488D02*
D03*
Y33898D02*
D03*
Y33307D02*
D03*
Y32717D02*
D03*
Y32126D02*
D03*
X27205Y34488D02*
D03*
Y33898D02*
D03*
Y33307D02*
D03*
Y32717D02*
D03*
Y32126D02*
D03*
X26614Y34488D02*
D03*
Y33898D02*
D03*
Y33307D02*
D03*
Y32717D02*
D03*
Y32126D02*
D03*
X26024Y33898D02*
D03*
Y33307D02*
D03*
Y32717D02*
D03*
X25433Y33307D02*
D03*
Y32717D02*
D03*
X24843Y35079D02*
D03*
Y33898D02*
D03*
Y33307D02*
D03*
Y32717D02*
D03*
X24252Y35079D02*
D03*
Y33898D02*
D03*
Y33307D02*
D03*
Y32717D02*
D03*
X23661Y34488D02*
D03*
Y33898D02*
D03*
Y33307D02*
D03*
Y32717D02*
D03*
X23071Y34488D02*
D03*
Y33898D02*
D03*
Y33307D02*
D03*
Y32717D02*
D03*
X22480Y33898D02*
D03*
Y33307D02*
D03*
Y32717D02*
D03*
X21890Y33898D02*
D03*
Y33307D02*
D03*
Y32717D02*
D03*
X21299Y34488D02*
D03*
Y33307D02*
D03*
Y32717D02*
D03*
X22480Y37441D02*
D03*
X21299D02*
D03*
Y36850D02*
D03*
X20709Y37441D02*
D03*
Y36850D02*
D03*
X20118Y37441D02*
D03*
Y36850D02*
D03*
X19528Y37441D02*
D03*
Y36850D02*
D03*
Y36260D02*
D03*
X18937Y37441D02*
D03*
Y36850D02*
D03*
Y36260D02*
D03*
X18346Y37441D02*
D03*
Y36850D02*
D03*
Y36260D02*
D03*
X17756Y37441D02*
D03*
Y36850D02*
D03*
Y36260D02*
D03*
X50295Y25886D02*
D03*
X49705D02*
D03*
X44980D02*
D03*
X45472Y26280D02*
D03*
X47441Y29527D02*
D03*
X54567Y39606D02*
D03*
X53780D02*
D03*
Y38819D02*
D03*
X52992Y39606D02*
D03*
Y36457D02*
D03*
X52205Y38819D02*
D03*
Y37244D02*
D03*
Y36457D02*
D03*
X51417Y39606D02*
D03*
Y38819D02*
D03*
Y38032D02*
D03*
X49843Y38819D02*
D03*
Y37244D02*
D03*
Y36457D02*
D03*
X49055Y38819D02*
D03*
Y37244D02*
D03*
Y36457D02*
D03*
X48268Y39606D02*
D03*
Y38819D02*
D03*
Y38032D02*
D03*
X47480Y38819D02*
D03*
X46693Y37244D02*
D03*
X15197Y38819D02*
D03*
Y38032D02*
D03*
Y37244D02*
D03*
Y36457D02*
D03*
X14409Y39606D02*
D03*
Y38032D02*
D03*
Y36457D02*
D03*
X13622Y39606D02*
D03*
Y38032D02*
D03*
Y37244D02*
D03*
Y36457D02*
D03*
X12835Y39606D02*
D03*
Y38819D02*
D03*
Y37244D02*
D03*
Y36457D02*
D03*
X12047Y38032D02*
D03*
Y37244D02*
D03*
Y36457D02*
D03*
X11260Y39606D02*
D03*
Y38032D02*
D03*
Y36457D02*
D03*
X10472Y39606D02*
D03*
Y38032D02*
D03*
Y36457D02*
D03*
X9685Y38819D02*
D03*
Y37244D02*
D03*
X8898Y39606D02*
D03*
Y38819D02*
D03*
Y38032D02*
D03*
Y37244D02*
D03*
Y36457D02*
D03*
X8110Y39606D02*
D03*
Y38819D02*
D03*
Y38032D02*
D03*
X7323Y38819D02*
D03*
Y36457D02*
D03*
X6535D02*
D03*
X21299Y21496D02*
D03*
Y22087D02*
D03*
X22480D02*
D03*
X23071Y21496D02*
D03*
Y22087D02*
D03*
X23661Y21496D02*
D03*
Y22087D02*
D03*
Y22677D02*
D03*
Y23268D02*
D03*
Y23858D02*
D03*
Y24449D02*
D03*
Y25039D02*
D03*
X24252Y22087D02*
D03*
Y22677D02*
D03*
Y23268D02*
D03*
Y23858D02*
D03*
Y24449D02*
D03*
Y25039D02*
D03*
Y25630D02*
D03*
X24843Y22087D02*
D03*
Y22677D02*
D03*
Y23268D02*
D03*
Y23858D02*
D03*
Y24449D02*
D03*
Y25039D02*
D03*
Y25630D02*
D03*
X25433Y21496D02*
D03*
Y22087D02*
D03*
Y22677D02*
D03*
Y23268D02*
D03*
Y23858D02*
D03*
Y24449D02*
D03*
Y25039D02*
D03*
Y25630D02*
D03*
X26024Y20905D02*
D03*
Y21496D02*
D03*
Y22087D02*
D03*
Y22677D02*
D03*
Y23268D02*
D03*
Y23858D02*
D03*
Y24449D02*
D03*
Y25039D02*
D03*
Y25630D02*
D03*
X26614Y20905D02*
D03*
Y21496D02*
D03*
Y22087D02*
D03*
Y22677D02*
D03*
Y23268D02*
D03*
Y23858D02*
D03*
Y24449D02*
D03*
Y25039D02*
D03*
Y25630D02*
D03*
Y26220D02*
D03*
X27205Y20905D02*
D03*
Y21496D02*
D03*
Y22087D02*
D03*
Y22677D02*
D03*
Y23268D02*
D03*
Y23858D02*
D03*
Y24449D02*
D03*
Y25039D02*
D03*
Y25630D02*
D03*
Y26220D02*
D03*
X27795Y20905D02*
D03*
Y21496D02*
D03*
Y22087D02*
D03*
Y22677D02*
D03*
Y23268D02*
D03*
Y23858D02*
D03*
Y24449D02*
D03*
Y25039D02*
D03*
Y25630D02*
D03*
Y26220D02*
D03*
X28386Y20905D02*
D03*
Y21496D02*
D03*
Y22087D02*
D03*
Y22677D02*
D03*
Y23268D02*
D03*
Y23858D02*
D03*
Y24449D02*
D03*
Y25039D02*
D03*
Y25630D02*
D03*
Y26220D02*
D03*
X28976Y20905D02*
D03*
Y21496D02*
D03*
Y22087D02*
D03*
Y22677D02*
D03*
Y23268D02*
D03*
Y23858D02*
D03*
Y24449D02*
D03*
Y25039D02*
D03*
Y25630D02*
D03*
Y26220D02*
D03*
X12441Y4075D02*
D03*
Y4862D02*
D03*
Y5650D02*
D03*
Y6437D02*
D03*
Y7224D02*
D03*
Y8012D02*
D03*
Y8799D02*
D03*
Y9587D02*
D03*
Y10374D02*
D03*
Y11161D02*
D03*
Y11949D02*
D03*
Y12736D02*
D03*
Y13524D02*
D03*
X13228Y3287D02*
D03*
Y4075D02*
D03*
Y4862D02*
D03*
Y5650D02*
D03*
Y8012D02*
D03*
Y8799D02*
D03*
Y9587D02*
D03*
Y10374D02*
D03*
Y11161D02*
D03*
Y11949D02*
D03*
Y12736D02*
D03*
Y13524D02*
D03*
X14016Y3287D02*
D03*
Y4862D02*
D03*
Y5650D02*
D03*
Y8012D02*
D03*
Y8799D02*
D03*
Y9587D02*
D03*
Y10374D02*
D03*
Y11161D02*
D03*
Y11949D02*
D03*
Y12736D02*
D03*
Y13524D02*
D03*
X14803Y3287D02*
D03*
Y4862D02*
D03*
Y5650D02*
D03*
Y8012D02*
D03*
Y8799D02*
D03*
Y9587D02*
D03*
Y10374D02*
D03*
Y11161D02*
D03*
Y11949D02*
D03*
Y12736D02*
D03*
Y13524D02*
D03*
X15591Y3287D02*
D03*
Y4075D02*
D03*
Y4862D02*
D03*
Y5650D02*
D03*
Y8012D02*
D03*
Y8799D02*
D03*
Y9587D02*
D03*
Y10374D02*
D03*
Y11161D02*
D03*
Y11949D02*
D03*
Y12736D02*
D03*
Y13524D02*
D03*
X16378Y3287D02*
D03*
Y4075D02*
D03*
Y4862D02*
D03*
Y5650D02*
D03*
Y6437D02*
D03*
Y7224D02*
D03*
Y8012D02*
D03*
Y8799D02*
D03*
Y9587D02*
D03*
Y10374D02*
D03*
Y11161D02*
D03*
Y11949D02*
D03*
Y12736D02*
D03*
Y13524D02*
D03*
X17165Y3287D02*
D03*
Y4075D02*
D03*
Y4862D02*
D03*
X36063Y40984D02*
D03*
Y41575D02*
D03*
Y42165D02*
D03*
Y42756D02*
D03*
X36654Y41575D02*
D03*
Y42756D02*
D03*
X37244Y40984D02*
D03*
Y42165D02*
D03*
Y42756D02*
D03*
X37835Y41575D02*
D03*
Y42756D02*
D03*
X38425Y39213D02*
D03*
Y40394D02*
D03*
Y40984D02*
D03*
Y41575D02*
D03*
X39016Y42165D02*
D03*
X39606Y40984D02*
D03*
X40197Y39803D02*
D03*
Y40394D02*
D03*
Y40984D02*
D03*
X40787Y38622D02*
D03*
Y39803D02*
D03*
X31339Y33307D02*
D03*
Y33898D02*
D03*
X31929Y32717D02*
D03*
Y35079D02*
D03*
Y35669D02*
D03*
Y36260D02*
D03*
X32520Y35669D02*
D03*
X33110Y32126D02*
D03*
Y33898D02*
D03*
Y34488D02*
D03*
Y35079D02*
D03*
Y35669D02*
D03*
Y36260D02*
D03*
X33701Y32717D02*
D03*
Y33898D02*
D03*
Y34488D02*
D03*
Y35079D02*
D03*
Y35669D02*
D03*
X34291Y32717D02*
D03*
X35472D02*
D03*
X31339Y18543D02*
D03*
Y20315D02*
D03*
Y21496D02*
D03*
Y22087D02*
D03*
Y22677D02*
D03*
X31929Y20315D02*
D03*
Y22087D02*
D03*
Y22677D02*
D03*
X32520Y19724D02*
D03*
Y22677D02*
D03*
Y24449D02*
D03*
Y25630D02*
D03*
X33110Y19724D02*
D03*
Y20315D02*
D03*
Y21496D02*
D03*
Y22677D02*
D03*
Y23268D02*
D03*
Y23858D02*
D03*
Y24449D02*
D03*
Y25039D02*
D03*
Y26220D02*
D03*
X33701Y18543D02*
D03*
Y20905D02*
D03*
Y21496D02*
D03*
Y22087D02*
D03*
Y22677D02*
D03*
Y23268D02*
D03*
Y23858D02*
D03*
Y25039D02*
D03*
Y25630D02*
D03*
Y26220D02*
D03*
X34291Y19134D02*
D03*
Y19724D02*
D03*
Y20315D02*
D03*
Y20905D02*
D03*
X34882Y18543D02*
D03*
Y20905D02*
D03*
X35472Y18543D02*
D03*
Y20905D02*
D03*
X36063Y18543D02*
D03*
Y19134D02*
D03*
Y20315D02*
D03*
X36654Y19134D02*
D03*
Y19724D02*
D03*
Y20315D02*
D03*
Y20905D02*
D03*
X37244Y18543D02*
D03*
Y19134D02*
D03*
Y19724D02*
D03*
X37835D02*
D03*
X38425Y18543D02*
D03*
X39016Y20905D02*
D03*
Y21496D02*
D03*
X40787Y20905D02*
D03*
X41378Y21496D02*
D03*
X39606Y41575D02*
D03*
X39016Y40984D02*
D03*
Y41575D02*
D03*
X40787Y40394D02*
D03*
X39606D02*
D03*
X39016Y39803D02*
D03*
Y40394D02*
D03*
X38425Y42756D02*
D03*
Y42165D02*
D03*
X37835D02*
D03*
Y40394D02*
D03*
Y40984D02*
D03*
X39606Y39803D02*
D03*
X39016Y39213D02*
D03*
X41378Y20905D02*
D03*
X40787Y21496D02*
D03*
X38425Y39803D02*
D03*
X39016Y38622D02*
D03*
X38425Y20905D02*
D03*
X37835Y20315D02*
D03*
X38425Y19724D02*
D03*
Y20315D02*
D03*
Y19134D02*
D03*
X37835D02*
D03*
X37244Y41575D02*
D03*
X36654Y42165D02*
D03*
X37244Y40394D02*
D03*
X36654Y40984D02*
D03*
Y40394D02*
D03*
X36063Y39803D02*
D03*
Y40394D02*
D03*
X34882Y32717D02*
D03*
X37244Y20315D02*
D03*
X36063Y20905D02*
D03*
Y19724D02*
D03*
X35472Y32126D02*
D03*
Y20315D02*
D03*
X34882Y32126D02*
D03*
X35472Y19724D02*
D03*
X34882Y20315D02*
D03*
X35472Y19134D02*
D03*
X34882Y19724D02*
D03*
Y19134D02*
D03*
X37835Y18543D02*
D03*
X36654D02*
D03*
X33701Y36260D02*
D03*
X32520Y35079D02*
D03*
X33701Y32126D02*
D03*
X34291D02*
D03*
X33701Y33307D02*
D03*
X33110Y32717D02*
D03*
Y33307D02*
D03*
Y25630D02*
D03*
X32520Y34488D02*
D03*
Y36260D02*
D03*
X31929Y34488D02*
D03*
X31339Y35669D02*
D03*
Y36260D02*
D03*
Y34488D02*
D03*
Y35079D02*
D03*
X32520Y33898D02*
D03*
Y32717D02*
D03*
Y33307D02*
D03*
X31929D02*
D03*
Y32126D02*
D03*
X32520D02*
D03*
Y26220D02*
D03*
Y25039D02*
D03*
X31929D02*
D03*
Y33898D02*
D03*
X31339Y32717D02*
D03*
Y32126D02*
D03*
X31929Y26220D02*
D03*
Y25630D02*
D03*
X31339Y26220D02*
D03*
Y25630D02*
D03*
Y25039D02*
D03*
X33701Y24449D02*
D03*
X34291Y21496D02*
D03*
X33701Y19724D02*
D03*
Y20315D02*
D03*
X32520Y23858D02*
D03*
X33110Y22087D02*
D03*
Y20905D02*
D03*
X32520Y21496D02*
D03*
X34291Y18543D02*
D03*
X33701Y19134D02*
D03*
X33110Y18543D02*
D03*
Y19134D02*
D03*
X32520Y23268D02*
D03*
X31929Y24449D02*
D03*
Y23268D02*
D03*
Y23858D02*
D03*
X32520Y20905D02*
D03*
Y22087D02*
D03*
Y19134D02*
D03*
Y20315D02*
D03*
X31929Y21496D02*
D03*
Y20905D02*
D03*
X31339Y23858D02*
D03*
Y24449D02*
D03*
Y23268D02*
D03*
X31929Y19134D02*
D03*
Y19724D02*
D03*
X31339Y20905D02*
D03*
Y19724D02*
D03*
X32520Y18543D02*
D03*
X31929D02*
D03*
X31339Y19134D02*
D03*
X18937Y17362D02*
D03*
Y17953D02*
D03*
Y18543D02*
D03*
Y19134D02*
D03*
Y19724D02*
D03*
Y20315D02*
D03*
Y20905D02*
D03*
X19528Y17362D02*
D03*
Y17953D02*
D03*
Y18543D02*
D03*
Y19134D02*
D03*
Y19724D02*
D03*
Y20315D02*
D03*
Y20905D02*
D03*
X20118Y17362D02*
D03*
Y17953D02*
D03*
Y18543D02*
D03*
Y19134D02*
D03*
Y19724D02*
D03*
X20709Y17362D02*
D03*
Y17953D02*
D03*
Y18543D02*
D03*
Y19134D02*
D03*
Y19724D02*
D03*
X21299Y17362D02*
D03*
Y17953D02*
D03*
Y18543D02*
D03*
Y19134D02*
D03*
Y19724D02*
D03*
X21890Y17362D02*
D03*
Y17953D02*
D03*
Y18543D02*
D03*
X45118Y3386D02*
D03*
Y4173D02*
D03*
Y4961D02*
D03*
Y5748D02*
D03*
Y6535D02*
D03*
Y7323D02*
D03*
Y8110D02*
D03*
Y8898D02*
D03*
Y9685D02*
D03*
Y10472D02*
D03*
Y11260D02*
D03*
X45906Y3386D02*
D03*
Y4173D02*
D03*
Y4961D02*
D03*
Y5748D02*
D03*
Y8110D02*
D03*
Y8898D02*
D03*
Y9685D02*
D03*
Y10472D02*
D03*
Y11260D02*
D03*
X46693Y3386D02*
D03*
Y4173D02*
D03*
Y5748D02*
D03*
Y6535D02*
D03*
Y8110D02*
D03*
Y8898D02*
D03*
Y9685D02*
D03*
Y10472D02*
D03*
Y11260D02*
D03*
X47480Y3386D02*
D03*
Y4173D02*
D03*
Y5748D02*
D03*
Y6535D02*
D03*
Y8110D02*
D03*
Y8898D02*
D03*
Y9685D02*
D03*
Y10472D02*
D03*
Y11260D02*
D03*
X48268Y3386D02*
D03*
Y4173D02*
D03*
Y4961D02*
D03*
Y5748D02*
D03*
Y8110D02*
D03*
Y8898D02*
D03*
Y9685D02*
D03*
Y10472D02*
D03*
Y11260D02*
D03*
X49055Y3386D02*
D03*
Y4173D02*
D03*
Y4961D02*
D03*
Y5748D02*
D03*
Y6535D02*
D03*
Y7323D02*
D03*
Y8110D02*
D03*
Y8898D02*
D03*
Y9685D02*
D03*
Y10472D02*
D03*
Y11260D02*
D03*
X37835Y35669D02*
D03*
X38425D02*
D03*
Y36260D02*
D03*
X39016D02*
D03*
Y36850D02*
D03*
X40787Y36260D02*
D03*
Y36850D02*
D03*
X41378Y36260D02*
D03*
Y36850D02*
D03*
X41968Y35669D02*
D03*
Y36260D02*
D03*
Y36850D02*
D03*
X42559Y35669D02*
D03*
Y36260D02*
D03*
Y36850D02*
D03*
Y37441D02*
D03*
X43150Y35669D02*
D03*
Y36260D02*
D03*
Y36850D02*
D03*
Y37441D02*
D03*
X43740Y35669D02*
D03*
Y36260D02*
D03*
Y36850D02*
D03*
Y37441D02*
D03*
X44331Y35669D02*
D03*
Y36260D02*
D03*
Y36850D02*
D03*
Y37441D02*
D03*
X46850Y29528D02*
D03*
X25433Y33898D02*
D03*
X26024Y34488D02*
D03*
X24843Y35669D02*
D03*
X24252D02*
D03*
X25433Y34488D02*
D03*
X24843D02*
D03*
X24252D02*
D03*
X51417Y79764D02*
D03*
X50630D02*
D03*
X51417Y78976D02*
D03*
Y75827D02*
D03*
X49843Y79764D02*
D03*
Y78976D02*
D03*
X49055D02*
D03*
X49843Y78189D02*
D03*
Y75827D02*
D03*
X49055Y77402D02*
D03*
X56142Y62441D02*
D03*
X53780D02*
D03*
X55354D02*
D03*
X54567D02*
D03*
X56142Y61654D02*
D03*
X55354D02*
D03*
X51417Y75039D02*
D03*
X49843D02*
D03*
X50630Y74252D02*
D03*
X49055Y80551D02*
D03*
X48268Y78976D02*
D03*
Y79764D02*
D03*
Y78189D02*
D03*
X49055Y75039D02*
D03*
X48268Y80551D02*
D03*
X47480D02*
D03*
Y78976D02*
D03*
Y78189D02*
D03*
X48268Y77402D02*
D03*
Y76614D02*
D03*
X47480Y75827D02*
D03*
X49055Y74252D02*
D03*
X48268Y75039D02*
D03*
Y74252D02*
D03*
X47480Y75039D02*
D03*
X55354Y60079D02*
D03*
Y59291D02*
D03*
Y58504D02*
D03*
X52992Y60866D02*
D03*
X53780Y58504D02*
D03*
X47480Y50630D02*
D03*
X49843Y48268D02*
D03*
X49055D02*
D03*
X48268Y49055D02*
D03*
X49055Y47480D02*
D03*
X46693D02*
D03*
Y50630D02*
D03*
X45118D02*
D03*
X45906Y49843D02*
D03*
X46693Y48268D02*
D03*
X45906Y47480D02*
D03*
X45118Y48268D02*
D03*
Y47480D02*
D03*
X57717Y78976D02*
D03*
X56929D02*
D03*
X58504Y75827D02*
D03*
X57717Y77402D02*
D03*
Y75827D02*
D03*
X56929Y78189D02*
D03*
X56142Y78976D02*
D03*
Y78189D02*
D03*
X55354Y78976D02*
D03*
X56929Y76614D02*
D03*
X55354Y75827D02*
D03*
X57717Y75039D02*
D03*
X56929D02*
D03*
Y71102D02*
D03*
X55354Y75039D02*
D03*
X56142Y71102D02*
D03*
X55354Y70315D02*
D03*
X56142Y69528D02*
D03*
Y66378D02*
D03*
X55354Y67953D02*
D03*
Y66378D02*
D03*
X54567Y75039D02*
D03*
Y75827D02*
D03*
Y70315D02*
D03*
Y71102D02*
D03*
X52992Y69528D02*
D03*
X53780D02*
D03*
X54567Y66378D02*
D03*
X50630D02*
D03*
X49843D02*
D03*
Y65591D02*
D03*
Y63228D02*
D03*
X48268Y66378D02*
D03*
X49055Y64803D02*
D03*
Y64016D02*
D03*
X48268Y64803D02*
D03*
Y65591D02*
D03*
X47480Y64803D02*
D03*
X56142Y52992D02*
D03*
Y52205D02*
D03*
X55354D02*
D03*
X56929Y51417D02*
D03*
X55354D02*
D03*
X54567Y52992D02*
D03*
X55354Y50630D02*
D03*
X54567Y51417D02*
D03*
Y50630D02*
D03*
X53780Y51417D02*
D03*
Y52205D02*
D03*
X56142Y49843D02*
D03*
X55354D02*
D03*
X56142Y49055D02*
D03*
X56929D02*
D03*
X54567Y38032D02*
D03*
Y38819D02*
D03*
X53780Y38032D02*
D03*
X52992Y38819D02*
D03*
X53780Y37244D02*
D03*
X52992Y38032D02*
D03*
X53780Y36457D02*
D03*
X52992Y37244D02*
D03*
X52205Y39606D02*
D03*
X50630Y63228D02*
D03*
Y39606D02*
D03*
X49843D02*
D03*
X50630Y38819D02*
D03*
X52205Y38032D02*
D03*
X50630D02*
D03*
X49843D02*
D03*
X49055Y39606D02*
D03*
X46693D02*
D03*
X47480D02*
D03*
X46693Y38819D02*
D03*
X50630Y37244D02*
D03*
X51417D02*
D03*
X49055Y38032D02*
D03*
X50630Y36457D02*
D03*
X51417D02*
D03*
X47480Y38032D02*
D03*
X46693D02*
D03*
X48268Y37244D02*
D03*
X47480D02*
D03*
X46693Y36457D02*
D03*
X48268D02*
D03*
X47480D02*
D03*
X9685Y39606D02*
D03*
X15197D02*
D03*
X14409Y37244D02*
D03*
Y38819D02*
D03*
X12047Y39606D02*
D03*
X13622Y38819D02*
D03*
X12047D02*
D03*
X11260D02*
D03*
X10472D02*
D03*
X7323Y39606D02*
D03*
X6535Y38819D02*
D03*
X12835Y38032D02*
D03*
X10472Y37244D02*
D03*
X11260D02*
D03*
X9685Y38032D02*
D03*
X8110Y37244D02*
D03*
X6535D02*
D03*
X9685Y36457D02*
D03*
X8110D02*
D03*
X1811Y47480D02*
D03*
Y48268D02*
D03*
Y49055D02*
D03*
Y49843D02*
D03*
Y50630D02*
D03*
Y51417D02*
D03*
Y71890D02*
D03*
Y72677D02*
D03*
Y73465D02*
D03*
Y74252D02*
D03*
Y75039D02*
D03*
Y75827D02*
D03*
X2598Y47480D02*
D03*
Y48268D02*
D03*
Y49055D02*
D03*
Y49843D02*
D03*
Y50630D02*
D03*
Y51417D02*
D03*
Y71102D02*
D03*
Y71890D02*
D03*
Y72677D02*
D03*
Y73465D02*
D03*
Y74252D02*
D03*
Y75039D02*
D03*
Y75827D02*
D03*
Y76614D02*
D03*
X3386Y47480D02*
D03*
Y48268D02*
D03*
Y49055D02*
D03*
Y49843D02*
D03*
Y50630D02*
D03*
Y51417D02*
D03*
Y52205D02*
D03*
Y71102D02*
D03*
Y71890D02*
D03*
Y72677D02*
D03*
Y73465D02*
D03*
Y74252D02*
D03*
Y75039D02*
D03*
Y75827D02*
D03*
Y76614D02*
D03*
X4173Y47480D02*
D03*
Y48268D02*
D03*
Y49055D02*
D03*
Y49843D02*
D03*
Y50630D02*
D03*
Y51417D02*
D03*
Y52205D02*
D03*
Y71102D02*
D03*
Y71890D02*
D03*
Y72677D02*
D03*
Y73465D02*
D03*
Y74252D02*
D03*
Y75039D02*
D03*
Y75827D02*
D03*
Y76614D02*
D03*
X4961Y47480D02*
D03*
Y48268D02*
D03*
Y49055D02*
D03*
Y49843D02*
D03*
Y50630D02*
D03*
Y51417D02*
D03*
Y52205D02*
D03*
Y71102D02*
D03*
Y71890D02*
D03*
Y72677D02*
D03*
Y73465D02*
D03*
Y74252D02*
D03*
Y75039D02*
D03*
Y75827D02*
D03*
Y76614D02*
D03*
X5748Y49055D02*
D03*
Y49843D02*
D03*
Y50630D02*
D03*
Y51417D02*
D03*
Y52205D02*
D03*
Y71102D02*
D03*
Y74252D02*
D03*
Y75039D02*
D03*
Y75827D02*
D03*
Y76614D02*
D03*
X6535Y49055D02*
D03*
Y49843D02*
D03*
Y50630D02*
D03*
Y51417D02*
D03*
Y52205D02*
D03*
Y71102D02*
D03*
Y74252D02*
D03*
Y75039D02*
D03*
Y75827D02*
D03*
Y76614D02*
D03*
X7323Y47480D02*
D03*
Y48268D02*
D03*
Y49055D02*
D03*
Y49843D02*
D03*
Y50630D02*
D03*
Y51417D02*
D03*
Y52205D02*
D03*
Y71890D02*
D03*
Y72677D02*
D03*
Y73465D02*
D03*
Y74252D02*
D03*
Y75039D02*
D03*
Y75827D02*
D03*
X8110Y59291D02*
D03*
Y60079D02*
D03*
Y60866D02*
D03*
Y61654D02*
D03*
Y62441D02*
D03*
Y63228D02*
D03*
Y64016D02*
D03*
X8898Y59291D02*
D03*
Y60079D02*
D03*
Y60866D02*
D03*
Y61654D02*
D03*
Y62441D02*
D03*
Y63228D02*
D03*
Y64016D02*
D03*
X9685Y59291D02*
D03*
Y60079D02*
D03*
Y60866D02*
D03*
Y61654D02*
D03*
Y62441D02*
D03*
Y63228D02*
D03*
Y64016D02*
D03*
X10472Y59291D02*
D03*
Y60079D02*
D03*
Y60866D02*
D03*
Y61654D02*
D03*
Y62441D02*
D03*
Y63228D02*
D03*
Y64016D02*
D03*
X11260Y59291D02*
D03*
Y60079D02*
D03*
Y60866D02*
D03*
Y61654D02*
D03*
Y62441D02*
D03*
Y63228D02*
D03*
Y64016D02*
D03*
X12047Y61654D02*
D03*
Y62441D02*
D03*
Y63228D02*
D03*
Y64016D02*
D03*
X12835Y59291D02*
D03*
Y61654D02*
D03*
Y62441D02*
D03*
Y63228D02*
D03*
Y64016D02*
D03*
X13622Y61654D02*
D03*
Y62441D02*
D03*
Y63228D02*
D03*
Y64016D02*
D03*
X9685Y74252D02*
D03*
Y75039D02*
D03*
Y75827D02*
D03*
Y76614D02*
D03*
X10472Y74252D02*
D03*
Y75039D02*
D03*
Y75827D02*
D03*
Y76614D02*
D03*
X11260Y71890D02*
D03*
Y72677D02*
D03*
Y73465D02*
D03*
Y74252D02*
D03*
Y75039D02*
D03*
Y75827D02*
D03*
Y76614D02*
D03*
X12047Y71890D02*
D03*
Y72677D02*
D03*
Y73465D02*
D03*
Y74252D02*
D03*
Y75039D02*
D03*
Y75827D02*
D03*
Y76614D02*
D03*
X12835Y71890D02*
D03*
Y72677D02*
D03*
Y73465D02*
D03*
Y74252D02*
D03*
Y75039D02*
D03*
Y75827D02*
D03*
Y76614D02*
D03*
X15984Y57717D02*
D03*
Y58504D02*
D03*
Y59291D02*
D03*
Y61654D02*
D03*
Y62441D02*
D03*
Y63228D02*
D03*
X16772Y57717D02*
D03*
Y58504D02*
D03*
Y59291D02*
D03*
Y61654D02*
D03*
Y62441D02*
D03*
Y63228D02*
D03*
X17559Y57717D02*
D03*
Y58504D02*
D03*
Y59291D02*
D03*
Y60866D02*
D03*
Y61654D02*
D03*
Y62441D02*
D03*
Y63228D02*
D03*
X18346Y57717D02*
D03*
Y58504D02*
D03*
Y59291D02*
D03*
Y60079D02*
D03*
Y60866D02*
D03*
Y61654D02*
D03*
Y62441D02*
D03*
Y63228D02*
D03*
X19134Y57717D02*
D03*
Y58504D02*
D03*
Y59291D02*
D03*
Y60079D02*
D03*
Y60866D02*
D03*
Y61654D02*
D03*
Y62441D02*
D03*
Y63228D02*
D03*
D105*
X7431Y8317D02*
D03*
X8760Y10335D02*
D03*
X6004D02*
D03*
X5630Y8937D02*
D03*
X5020Y9449D02*
D03*
X4331Y6496D02*
D03*
Y7874D02*
D03*
X14567Y26476D02*
D03*
X14173Y19193D02*
D03*
X13287Y26378D02*
D03*
Y19193D02*
D03*
X9350Y14370D02*
D03*
X6693D02*
D03*
X9646Y18406D02*
D03*
X6988Y19193D02*
D03*
X52461Y18701D02*
D03*
X55118Y19547D02*
D03*
X56791Y17028D02*
D03*
X5709Y16535D02*
D03*
X5807Y14370D02*
D03*
X4921Y13189D02*
D03*
Y17028D02*
D03*
X12303Y27953D02*
D03*
X16634D02*
D03*
X14468Y28051D02*
D03*
X49606Y28543D02*
D03*
X47617Y26870D02*
D03*
X48622Y27165D02*
D03*
X49705Y18701D02*
D03*
X49114Y19488D02*
D03*
X46161Y27461D02*
D03*
X44193Y28445D02*
D03*
X56299Y7087D02*
D03*
X54724Y8268D02*
D03*
X56004Y8957D02*
D03*
X55709Y9744D02*
D03*
X53346D02*
D03*
X55118Y6496D02*
D03*
X57283Y5709D02*
D03*
X55610Y14272D02*
D03*
X52953Y14370D02*
D03*
X53297Y12697D02*
D03*
X56791Y12795D02*
D03*
X56102Y18012D02*
D03*
X55807Y12795D02*
D03*
X60236Y9843D02*
D03*
X58071Y8957D02*
D03*
X57126Y7028D02*
D03*
X48524Y28051D02*
D03*
X46555Y28051D02*
D03*
X1772Y6299D02*
D03*
X1673Y7874D02*
D03*
X17421Y27953D02*
D03*
M02*
