M48
;Layer_Color=9474304
;FILE_FORMAT=2:4
INCH,LZ
;TYPE=PLATED
T1F00S00C0.0197
T2F00S00C0.0276
T3F00S00C0.0315
T4F00S00C0.0472
T5F00S00C0.0591
T6F00S00C0.0709
T7F00S00C0.0866
T8F00S00C0.1181
%
T01
X013228Y003287
X014016
X014803
X015591
X016378
X017165
Y004075
Y004862
X016378
Y004075
X015591
Y004862
X014803
X014016
X013228
Y004075
X012441
Y004862
X045118Y004961
X045906
Y004173
X046693
X04748
X048268
X049055
Y004961
X048268
Y003386
X049055
X04748
X046693
X045906
X045118
Y004173
Y005748
X045906
X046693
X04748
X048268
X049055
Y006535
Y007323
Y00811
Y008898
Y009685
Y010472
Y01126
X048268
Y010472
Y009685
Y008898
Y00811
X04748
Y008898
Y009685
Y010472
Y01126
X046693
Y010472
Y009685
Y008898
Y00811
X045906
Y008898
Y009685
Y010472
Y01126
X045118
Y010472
Y009685
Y008898
Y00811
Y007323
Y006535
X046693
X04748
X038425Y018543
X037835
Y019134
X038425
Y019724
Y020315
X037835
X037244
Y019724
X037835
X037244Y019134
Y018543
X036654
Y019134
Y019724
X036063
X035472
X034882
Y019134
X035472
X036063
Y018543
X035472
X034882
X034291
Y019134
X033701
X03311
X03252
Y018543
X031929
Y019134
X031339
Y019724
X031929
X03252
Y020315
X03311
X033701
Y019724
X034291
Y020315
X034882
X035472
X036063
X036654
X03311Y019724
Y018543
X033701
X031339
Y020315
X031929
X021299Y019724
Y019134
Y018543
X02189
Y017953
Y017362
X021299
Y017953
X020709
Y018543
Y019134
Y019724
X020118
Y019134
Y018543
Y017953
Y017362
X020709
X019528
Y017953
Y018543
Y019134
Y019724
Y020315
X018937
Y019724
Y019134
Y018543
Y017953
Y017362
X016378Y013524
Y012736
Y011949
Y011161
Y010374
Y009587
Y008799
Y008012
Y007224
Y006437
Y00565
X015591
X014803
X014016
X013228
X012441
Y006437
Y007224
Y008012
X013228
X014016
X014803
X015591
Y008799
Y009587
Y010374
Y011161
Y011949
Y012736
Y013524
X014803
Y012736
Y011949
Y011161
Y010374
Y009587
Y008799
X014016
Y009587
Y010374
Y011161
Y011949
Y012736
Y013524
X013228
Y012736
Y011949
Y011161
Y010374
Y009587
Y008799
X012441
Y009587
Y010374
Y011161
Y011949
Y012736
Y013524
X008661Y012795
X006496Y013091
X018937Y020905
X019528
X015453Y029232
X014852Y029242
X017756Y03626
X018346
X018937
X019528
X021299Y034488
Y033307
Y032717
X02189
Y033307
Y033898
X02248
Y033307
Y032717
X023071
Y033307
Y033898
Y034488
X023661
X024252
X024843
X025433
X026024
Y033898
X025433
X024843
X024252
X023661
Y033307
Y032717
X024252
Y033307
X024843
Y032717
X025433
Y033307
X026024
Y032717
X026614
Y032126
X027205
Y032717
Y033307
X026614
Y033898
Y034488
X027205
Y033898
X027795
Y033307
Y032717
Y032126
X028386
Y032717
Y033307
Y033898
Y034488
X027795
X028976
Y033898
Y033307
Y032717
Y032126
X031339
Y032717
X031929
Y032126
X03252
Y032717
Y033307
X031929
Y033898
X03252
Y034488
X031929
X031339
Y035079
Y035669
Y03626
X031929
X03252
X03311
X033701
Y035669
Y035079
Y034488
Y033898
Y033307
X03311
Y032717
X033701
Y032126
X034291
X034882
X035472
Y032717
X034882
X034291
X03311Y032126
Y033898
Y034488
Y035079
X03252
Y035669
X03311
X031929
Y035079
X031339Y033898
Y033307
Y02622
Y02563
Y025039
Y024449
Y023858
Y023268
X031929
Y023858
Y024449
Y025039
Y02563
Y02622
X03252
X03311
Y02563
X033701
Y02622
Y025039
Y024449
Y023858
Y023268
Y022677
Y022087
X03311
X03252
Y021496
X031929
Y020905
X031339
Y021496
Y022087
X031929
Y022677
X03252
Y023268
Y023858
X03311
Y024449
Y025039
X03252
Y02563
Y024449
X03311Y023268
Y022677
Y021496
Y020905
X03252
X033701
X034291
Y021496
X033701
X034882Y020905
X035472
X036063
X036654
X031339Y022677
X028976
Y023268
Y023858
Y024449
Y025039
Y02563
Y02622
X028386
Y02563
Y025039
Y024449
Y023858
Y023268
Y022677
Y022087
X028976
Y021496
Y020905
X028386
Y021496
X027795
Y022087
Y022677
Y023268
Y023858
Y024449
Y025039
Y02563
Y02622
X027205
Y02563
Y025039
Y024449
Y023858
Y023268
Y022677
Y022087
Y021496
Y020905
X027795
X026614
Y021496
Y022087
Y022677
Y023268
Y023858
Y024449
Y025039
Y02563
Y02622
X026024Y02563
Y025039
Y024449
Y023858
Y023268
Y022677
Y022087
Y021496
Y020905
X025433Y021496
Y022087
Y022677
Y023268
Y023858
Y024449
Y025039
Y02563
X024843
Y025039
Y024449
Y023858
Y023268
Y022677
Y022087
X024252
Y022677
Y023268
Y023858
Y024449
Y025039
Y02563
X023661Y025039
Y024449
Y023858
Y023268
Y022677
Y022087
Y021496
X023071
Y022087
X02248
X021299
Y021496
X024252Y035079
Y035669
X024843
Y035079
X037835Y035669
X038425
Y03626
X039016
X040787
X041378
X041968
X042559
X04315
X04374
X044331
Y035669
X04374
X04315
X042559
X041968
Y02563
X041378
X040787
X040197
X039606
Y025039
Y024449
X040197
Y025039
X040787
Y024449
X041378
Y023858
Y023268
X040787
X041968
Y023858
Y024449
Y025039
X041378
X042559
Y024449
Y023858
Y023268
Y022677
X04315
Y022087
X04374
Y022677
X04315Y023268
Y023858
Y024449
Y025039
Y02563
X042559
X04374
Y025039
Y024449
X04498Y025886
X045472Y02628
X04685Y029528
X047441Y029527
X049705Y025886
X050295
X041378Y021496
X040787
Y020905
X041378
X039016
X038425
X039016Y021496
X052992Y036457
Y037244
Y038032
Y038819
Y039606
X05378
Y038819
Y038032
Y037244
Y036457
X054567Y038032
Y038819
Y039606
Y049055
Y049843
X055354
X056142
Y049055
X056929
Y049843
Y05063
Y051417
X056142
X055354
X054567
X05378
X052992
X054567Y05063
X055354
X056142
X055354Y049055
X049843Y048268
X049055
Y04748
X048268
X04748
X046693
X045906
X045118
Y048268
Y049055
Y049843
X045906
Y049055
Y048268
X046693
Y049055
Y049843
Y05063
X04748
Y049843
Y049055
X048268
Y048268
X04748
X048268Y049843
Y05063
X045906
X045118
X049843Y04748
Y039606
X049055
X048268
X04748
X046693
Y038819
Y038032
X04748
Y037244
Y036457
X048268
Y037244
Y038032
X049055
X049843
X05063
Y037244
Y036457
X051417
Y037244
Y038032
X052205
Y037244
Y036457
X049843
X049055
Y037244
X049843
Y038819
X05063
Y039606
X051417
X052205
Y038819
X051417
X049055
X048268
X04748
X046693Y037244
Y036457
X044331Y03685
Y037441
X04374
Y03685
X04315
Y037441
X042559
Y03685
X041968
X041378
X040787
X039016
Y038622
Y039213
Y039803
X038425
Y040394
X037835
X037244
Y040984
Y041575
X037835
Y040984
X038425
X039016
Y040394
X039606
Y039803
X040197
X040787
Y040394
X040197
Y040984
X039606
Y041575
X039016
Y042165
X038425
X037835
Y042756
X038425
Y041575
X037244Y042165
Y042756
X038425Y039213
X040787Y038622
X036063Y039803
Y040394
X036654
Y040984
Y041575
Y042165
Y042756
X036063
Y042165
Y041575
Y040984
X02248Y037441
X021299
Y03685
X020709
X020118
X019528
X018937
X018346
X017756
Y037441
X018346
X018937
X019528
X020118
X020709
X015197Y037244
X014409
X013622
X012835
Y038032
X012047
Y038819
X01126
X010472
X009685
Y038032
X008898
X00811
Y037244
Y036457
X007323
X006535
Y037244
Y038819
X007323
Y039606
X00811
Y038819
X008898
Y039606
X009685
X010472
X01126
X012047
X012835
Y038819
X013622
X014409
Y038032
X013622
Y036457
X012835
X012047
X01126
Y037244
X010472
X009685
Y036457
X008898
Y037244
X010472Y036457
Y038032
X01126
X012047Y037244
X014409Y036457
X015197
Y038032
Y038819
Y039606
X014409
X013622
X012835Y045906
X012047
X01126
X010472
X009685
Y046693
X01126
Y04748
Y048268
Y049055
X010472
X009685
Y049843
Y05063
X010472
Y049843
X01126
Y05063
X012047
Y049843
Y049055
Y048268
Y04748
Y046693
X012835
Y04748
Y048268
Y049055
Y049843
Y05063
X007323
Y051417
X006535
Y05063
Y049843
X007323
Y049055
Y048268
Y04748
X006535Y049055
X005748
Y049843
Y05063
Y051417
X004961
Y05063
Y049843
Y049055
Y048268
Y04748
X004173
Y048268
Y049055
Y049843
Y05063
Y051417
X003386
Y05063
Y049843
Y049055
Y048268
Y04748
X002598
Y048268
Y049055
Y049843
Y05063
Y051417
X001811
Y05063
Y049843
Y049055
Y048268
Y04748
X003386Y052205
X004173
X004961
X005748
X006535
X007323
X00811Y059291
X008898
X009685
X010472
X01126
Y060079
Y060866
Y061654
X012047
X012835
X013622
Y062441
Y063228
Y064016
X012835
Y063228
Y062441
X012047
Y063228
Y064016
X01126
Y063228
Y062441
X010472
Y063228
Y064016
X009685
Y063228
Y062441
Y061654
X010472
Y060866
Y060079
X009685
Y060866
X008898
Y061654
Y062441
Y063228
Y064016
X00811
Y063228
Y062441
Y061654
Y060866
Y060079
X008898
X012835Y059291
X015984
X016772
X017559
X018346
X019134
Y060079
Y060866
Y061654
Y062441
Y063228
X018346
Y062441
Y061654
Y060866
Y060079
Y058504
X019134
Y057717
X018346
X017559
Y058504
X016772
Y057717
X015984
Y058504
Y061654
X016772
X017559
Y062441
Y063228
X016772
Y062441
X015984
Y063228
X017559Y060866
X041969
Y060079
X042756
Y060866
X043543
X044331
Y060079
X043543
Y061654
X042756
X041969
Y062441
X042756
Y063228
X041969
X043543Y062441
X044331
Y061654
X045118
Y062441
Y063228
Y064016
X04748Y064803
X048268
Y065591
Y066378
X04748
Y065591
X049055
Y064803
Y064016
Y063228
X049843
X05063
Y064016
X049843
Y064803
Y065591
Y066378
X05063
Y065591
Y064803
X049055Y066378
X052992
Y067165
X05378
Y066378
X054567
X055354
X056142
Y067165
X055354
X054567
X056929
Y066378
X058504
Y067165
X059291
Y066378
X060079
Y067165
X060866
Y066378
Y061654
X060079
X059291
X058504
Y060866
X059291
Y060079
Y059291
Y058504
X058504
Y057717
X059291
X060079
Y058504
X060866
Y057717
Y060866
X060079
X056929
X056142
Y061654
X055354
Y062441
X054567
X05378
X052992Y061654
Y060866
Y060079
Y059291
Y058504
X05378
X054567
X055354
Y059291
Y060079
Y060866
X054567
X05378
X056142Y062441
X056929Y061654
Y058504
X056142
Y052992
Y052205
X055354
X054567
X05378
X052992
Y052992
X05378
X054567
X055354
X056929Y052205
X055354Y067953
Y06874
Y069528
X056142
Y070315
X055354
X054567
Y071102
X05378
X052992
Y070315
Y069528
X05378
Y070315
X054567Y069528
X052992Y06874
Y067953
X05378
X055354Y071102
X056142
X056929
Y070315
Y069528
X058504
Y070315
X059291
Y069528
Y06874
Y067953
X060079Y069528
Y070315
X060866
Y069528
X058504Y075039
X057717
X056929
X056142
X055354
X054567
Y075827
X055354
X056142
Y076614
X056929
Y075827
X057717
X058504
Y076614
X057717
Y077402
X056929
Y078189
X056142
Y078976
X055354
X054567
X05378
Y076614
Y075827
Y075039
X056142Y077402
X056929Y078976
X057717
Y078189
X058504
Y077402
Y078976
X051417
Y079764
X05063
X049843
Y078976
Y078189
X049055
X048268
Y077402
Y076614
X04748
Y075827
Y075039
X048268
Y074252
X049055
Y075039
X049843
Y075827
X049055
X048268
X049055Y076614
Y077402
Y078976
X048268
X04748
Y078189
Y077402
Y079764
Y080551
X048268
Y079764
X049055
Y080551
X049843
X05063
X051417
X05063Y078976
X049843Y076614
X05063Y075827
X051417
Y075039
X05063
Y074252
X049843
X051417
Y076614
X04748Y074252
X012835
Y075039
Y075827
Y076614
X012047
Y075827
Y075039
Y074252
Y073465
X012835
Y072677
Y07189
X012047
Y072677
X01126
Y073465
Y074252
Y075039
Y075827
Y076614
X010472
Y075827
Y075039
Y074252
X009685
Y075039
Y075827
Y076614
X007323Y075827
Y075039
Y074252
Y073465
Y072677
Y07189
X006535Y071102
X005748
Y074252
X006535
Y075039
Y075827
Y076614
X005748
Y075827
Y075039
X01126Y07189
X004961
Y072677
Y073465
Y074252
Y075039
Y075827
Y076614
X004173
Y075827
Y075039
Y074252
Y073465
Y072677
Y07189
Y071102
X004961
X003386
Y07189
Y072677
Y073465
Y074252
Y075039
Y075827
Y076614
X002598
Y075827
Y075039
Y074252
Y073465
Y072677
Y07189
Y071102
X001811Y07189
Y072677
Y073465
Y074252
Y075039
Y075827
T02
X055118Y006496
X056299Y007087
X057126Y007028
X057283Y005709
X058071Y008957
X056004
X055709Y009744
X053346
X054724Y008268
X055807Y012795
X056791
X05561Y014272
X052953Y01437
X053297Y012697
X056791Y017028
X056102Y018012
X055118Y019547
X060236Y009843
X052461Y018701
X049705
X049114Y019488
X014173Y019193
X013287
X009646Y018406
X006988Y019193
X005709Y016535
X005807Y01437
X006693
X00935
X00876Y010335
X006004
X00563Y008937
X007431Y008317
X004331Y007874
Y006496
X001772Y006299
X001673Y007874
X00502Y009449
X004921Y013189
Y017028
X013287Y026378
X014567Y026476
X014468Y028051
X016634Y027953
X017421
X012303
X044193Y028445
X046555Y028051
X046161Y027461
X047617Y02687
X048622Y027165
X048524Y028051
X049606Y028543
T03
X002753Y004331
X003543
X004331
X005118
X005906
X006693
X054921Y004331
X055709
X056496
X057283
X058071
X058861
X058071Y009843
Y010843
Y013843
Y014843
Y015843
X002362Y015653
Y014653
Y013653
Y010653
Y009653
T04
X007087Y023031
X054724Y022047
Y036811
X007087Y037795
T05
X04613Y007087
X04813
X040098Y019301
X022028
X01565Y006693
X01365
X022028Y021447
Y023593
Y034655
X040098
Y023593
Y021447
Y036801
Y038947
X022028
Y036801
X028445Y061386
Y063386
X059547Y055543
Y053543
X037303Y074228
Y075787
Y077346
T06
X054528Y059843
X056496
X058465
X060433
Y068504
X058465
X056496
X054528
T07
X053445Y049902
X049508
X010236Y047638
X006299
X012795Y060236
X016732
X044094Y063583
X048032
X054724Y077559
X050787
X010236Y072638
X006299
T08
X037933Y006949
X024232Y006909
Y02814
X024232Y030108
X037933Y030148
X037933Y028179
X037933Y051378
X024232Y051339
M30
