G04 Layer_Color=32896*
%FSLAX44Y44*%
%MOMM*%
G71*
G01*
G75*
%ADD34C,0.2000*%
%ADD35C,0.1000*%
%ADD36C,0.1270*%
%ADD41C,0.2500*%
%ADD42C,0.1500*%
D34*
X826000Y434000D02*
Y461000D01*
X859000Y434000D02*
Y461000D01*
D35*
X136000Y426500D02*
Y429500D01*
X144000Y426500D02*
Y429500D01*
X133000Y442500D02*
X147000D01*
Y413500D02*
Y442500D01*
X133000Y413500D02*
X147000D01*
X133000D02*
Y442500D01*
X146500Y476000D02*
Y484000D01*
X133500Y476000D02*
Y484000D01*
X130750Y496750D02*
X149250D01*
Y463250D02*
Y496750D01*
X130750Y463250D02*
X149250D01*
X130750D02*
Y496750D01*
D36*
X78750Y427750D02*
Y477750D01*
Y427750D02*
X101250D01*
Y477750D01*
X78750D02*
X101250D01*
D41*
X138769Y145110D02*
X136270Y142611D01*
X131271D01*
X128772Y145110D01*
Y155107D01*
X131271Y157606D01*
X136270D01*
X138769Y155107D01*
X146267Y157606D02*
X151265D01*
X153764Y155107D01*
Y150108D01*
X151265Y147609D01*
X146267D01*
X143767Y150108D01*
Y155107D01*
X146267Y157606D01*
X158763D02*
Y147609D01*
X161262D01*
X163761Y150108D01*
Y157606D01*
Y150108D01*
X166260Y147609D01*
X168759Y150108D01*
Y157606D01*
X173758D02*
Y147609D01*
X176257D01*
X178756Y150108D01*
Y157606D01*
Y150108D01*
X181255Y147609D01*
X183755Y150108D01*
Y157606D01*
X188753Y147609D02*
Y155107D01*
X191252Y157606D01*
X198750D01*
Y147609D01*
X206247Y145110D02*
Y147609D01*
X203748D01*
X208746D01*
X206247D01*
Y155107D01*
X208746Y157606D01*
X218743Y147609D02*
X223742D01*
X226241Y150108D01*
Y157606D01*
X218743D01*
X216244Y155107D01*
X218743Y152607D01*
X226241D01*
X233738Y145110D02*
Y147609D01*
X231239D01*
X236238D01*
X233738D01*
Y155107D01*
X236238Y157606D01*
X246234D02*
X251233D01*
X253732Y155107D01*
Y150108D01*
X251233Y147609D01*
X246234D01*
X243735Y150108D01*
Y155107D01*
X246234Y157606D01*
X258730Y147609D02*
Y157606D01*
Y152607D01*
X261229Y150108D01*
X263729Y147609D01*
X266228D01*
X63793Y187997D02*
Y173002D01*
X71291D01*
X73790Y175502D01*
Y180500D01*
X71291Y182999D01*
X63793D01*
X68792D02*
X73790Y187997D01*
X78788D02*
X83787D01*
X81288D01*
Y173002D01*
X78788Y175502D01*
X91285D02*
X93784Y173002D01*
X98782D01*
X101281Y175502D01*
Y185498D01*
X98782Y187997D01*
X93784D01*
X91285Y185498D01*
Y175502D01*
X106280D02*
X108779Y173002D01*
X113777D01*
X116276Y175502D01*
Y185498D01*
X113777Y187997D01*
X108779D01*
X106280Y185498D01*
Y175502D01*
X121275Y187997D02*
Y185498D01*
X123774D01*
Y187997D01*
X121275D01*
X143767D02*
X133771D01*
X143767Y178001D01*
Y175502D01*
X141268Y173002D01*
X136270D01*
X133771Y175502D01*
X148766D02*
X151265Y173002D01*
X156264D01*
X158763Y175502D01*
Y178001D01*
X156264Y180500D01*
X153764D01*
X156264D01*
X158763Y182999D01*
Y185498D01*
X156264Y187997D01*
X151265D01*
X148766Y185498D01*
X163761Y175502D02*
X166260Y173002D01*
X171259D01*
X173758Y175502D01*
Y185498D01*
X171259Y187997D01*
X166260D01*
X163761Y185498D01*
Y175502D01*
X178756Y187997D02*
Y185498D01*
X181255D01*
Y187997D01*
X178756D01*
X191252Y175502D02*
X193751Y173002D01*
X198750D01*
X201249Y175502D01*
Y185498D01*
X198750Y187997D01*
X193751D01*
X191252Y185498D01*
Y175502D01*
X206247Y173002D02*
X216244D01*
Y175502D01*
X206247Y185498D01*
Y187997D01*
X221242Y175502D02*
X223742Y173002D01*
X228740D01*
X231239Y175502D01*
Y185498D01*
X228740Y187997D01*
X223742D01*
X221242Y185498D01*
Y175502D01*
X236238Y187997D02*
Y185498D01*
X238737D01*
Y187997D01*
X236238D01*
X248734Y175502D02*
X251233Y173002D01*
X256231D01*
X258730Y175502D01*
Y185498D01*
X256231Y187997D01*
X251233D01*
X248734Y185498D01*
Y175502D01*
X263729D02*
X266228Y173002D01*
X271226D01*
X273725Y175502D01*
Y185498D01*
X271226Y187997D01*
X266228D01*
X263729Y185498D01*
Y175502D01*
X278724Y187997D02*
X283722D01*
X281223D01*
Y173002D01*
X278724Y175502D01*
X291220Y180500D02*
X301217D01*
X306215Y175502D02*
X308714Y173002D01*
X313713D01*
X316212Y175502D01*
Y185498D01*
X313713Y187997D01*
X308714D01*
X306215Y185498D01*
Y175502D01*
X321210D02*
X323709Y173002D01*
X328708D01*
X331207Y175502D01*
Y185498D01*
X328708Y187997D01*
X323709D01*
X321210Y185498D01*
Y175502D01*
D42*
X853380Y491947D02*
X855046Y493613D01*
X858378D01*
X860044Y491947D01*
Y485282D01*
X858378Y483616D01*
X855046D01*
X853380Y485282D01*
X843383Y483616D02*
X850047D01*
X843383Y490280D01*
Y491947D01*
X845049Y493613D01*
X848381D01*
X850047Y491947D01*
X161669Y433335D02*
X160003Y435002D01*
Y438334D01*
X161669Y440000D01*
X168334D01*
X170000Y438334D01*
Y435002D01*
X168334Y433335D01*
X160003Y423339D02*
Y430003D01*
X165002D01*
X163335Y426671D01*
Y425005D01*
X165002Y423339D01*
X168334D01*
X170000Y425005D01*
Y428337D01*
X168334Y430003D01*
X170000Y490000D02*
X160003D01*
Y485002D01*
X161669Y483335D01*
X165002D01*
X166668Y485002D01*
Y490000D01*
Y486668D02*
X170000Y483335D01*
X160003Y480003D02*
Y473339D01*
X161669D01*
X168334Y480003D01*
X170000D01*
X60003Y470000D02*
X66668D01*
X70000Y466668D01*
X66668Y463335D01*
X60003D01*
Y460003D02*
X70000D01*
Y455005D01*
X68334Y453339D01*
X61669D01*
X60003Y455005D01*
Y460003D01*
X61669Y450006D02*
X60003Y448340D01*
Y445008D01*
X61669Y443342D01*
X63335D01*
X65002Y445008D01*
Y446674D01*
Y445008D01*
X66668Y443342D01*
X68334D01*
X70000Y445008D01*
Y448340D01*
X68334Y450006D01*
X88252Y486000D02*
Y479336D01*
X84919Y482668D02*
X91584D01*
M02*
