G04 Layer_Color=16711935*
%FSLAX44Y44*%
%MOMM*%
G71*
G01*
G75*
%ADD46R,1.3032X1.2032*%
%ADD50R,1.7032X1.1032*%
%ADD54C,2.7032*%
%ADD55C,2.3123*%
%ADD57C,2.6162*%
%ADD58C,1.4715*%
%ADD59R,1.4715X1.4715*%
%ADD60C,3.2032*%
%ADD61R,1.7032X1.7032*%
%ADD62C,1.7032*%
%ADD63C,1.4032*%
%ADD64R,3.7032X1.2532*%
%ADD65R,1.9532X1.3032*%
G36*
X564500Y433500D02*
Y433500D01*
X564502D01*
X565678Y433471D01*
X567563Y433096D01*
X569474Y432305D01*
X571193Y431156D01*
X572656Y429693D01*
X573805Y427974D01*
X574596Y426063D01*
X575000Y424034D01*
Y423000D01*
X575000Y337000D01*
X575000Y337000D01*
X575000Y335966D01*
X574596Y333937D01*
X573805Y332026D01*
X572656Y330307D01*
X571193Y328844D01*
X569474Y327695D01*
X567563Y326903D01*
X565534Y326500D01*
X532500D01*
X532500Y326500D01*
X531466Y326500D01*
X529437Y326903D01*
X527526Y327695D01*
X525807Y328844D01*
X524344Y330307D01*
X523195Y332026D01*
X522403Y333937D01*
X522000Y335966D01*
X522000Y337000D01*
X522000Y423000D01*
X522000Y423000D01*
X522000Y423000D01*
X522028Y424174D01*
X522403Y426063D01*
X523195Y427974D01*
X524344Y429693D01*
X525807Y431156D01*
X527526Y432305D01*
X529437Y433096D01*
X531466Y433500D01*
X532500Y433500D01*
X564500Y433500D01*
X564500Y433500D01*
D02*
G37*
G36*
X484500D02*
Y433500D01*
X484502D01*
X485678Y433471D01*
X487563Y433096D01*
X489474Y432305D01*
X491193Y431156D01*
X492656Y429693D01*
X493805Y427974D01*
X494596Y426063D01*
X495000Y424034D01*
Y423000D01*
X495000Y337000D01*
X495000Y337000D01*
X495000Y335966D01*
X494596Y333937D01*
X493805Y332026D01*
X492656Y330307D01*
X491193Y328844D01*
X489474Y327695D01*
X487563Y326903D01*
X485534Y326500D01*
X452500D01*
X452500Y326500D01*
X451466Y326500D01*
X449437Y326903D01*
X447526Y327695D01*
X445807Y328844D01*
X444344Y330307D01*
X443195Y332026D01*
X442403Y333937D01*
X442000Y335966D01*
X442000Y337000D01*
X442000Y423000D01*
X442000Y423000D01*
X442000Y423000D01*
X442028Y424174D01*
X442403Y426063D01*
X443195Y427974D01*
X444344Y429693D01*
X445807Y431156D01*
X447526Y432305D01*
X449437Y433096D01*
X451466Y433500D01*
X452500Y433500D01*
X484500Y433500D01*
X484500Y433500D01*
D02*
G37*
G36*
X407500D02*
Y433500D01*
X407502D01*
X408678Y433471D01*
X410563Y433096D01*
X412474Y432305D01*
X414193Y431156D01*
X415656Y429693D01*
X416805Y427974D01*
X417597Y426063D01*
X418000Y424034D01*
Y423000D01*
X418000Y337000D01*
X418000Y337000D01*
X418000Y335966D01*
X417597Y333937D01*
X416805Y332026D01*
X415656Y330307D01*
X414193Y328844D01*
X412474Y327695D01*
X410563Y326903D01*
X408534Y326500D01*
X375500D01*
X375500Y326500D01*
X374466Y326500D01*
X372437Y326903D01*
X370526Y327695D01*
X368807Y328844D01*
X367344Y330307D01*
X366195Y332026D01*
X365404Y333937D01*
X365000Y335966D01*
X365000Y337000D01*
X365000Y423000D01*
X365000Y423000D01*
X365000Y423000D01*
X365028Y424174D01*
X365404Y426063D01*
X366195Y427974D01*
X367344Y429693D01*
X368807Y431156D01*
X370526Y432305D01*
X372437Y433096D01*
X374466Y433500D01*
X375500Y433500D01*
X407500Y433500D01*
X407500Y433500D01*
D02*
G37*
G36*
X564500Y593500D02*
Y593500D01*
X564502D01*
X565678Y593471D01*
X567563Y593096D01*
X569474Y592305D01*
X571193Y591156D01*
X572656Y589693D01*
X573805Y587974D01*
X574596Y586063D01*
X575000Y584034D01*
Y583000D01*
X575000Y497000D01*
X575000Y497000D01*
X575000Y495966D01*
X574596Y493937D01*
X573805Y492026D01*
X572656Y490307D01*
X571193Y488844D01*
X569474Y487695D01*
X567563Y486903D01*
X565534Y486500D01*
X532500D01*
X532500Y486500D01*
X531466Y486500D01*
X529437Y486903D01*
X527526Y487695D01*
X525807Y488844D01*
X524344Y490307D01*
X523195Y492026D01*
X522403Y493937D01*
X522000Y495966D01*
X522000Y497000D01*
X522000Y583000D01*
X522000Y583000D01*
X522000Y583000D01*
X522028Y584174D01*
X522403Y586063D01*
X523195Y587974D01*
X524344Y589693D01*
X525807Y591156D01*
X527526Y592305D01*
X529437Y593096D01*
X531466Y593500D01*
X532500Y593500D01*
X564500Y593500D01*
X564500Y593500D01*
D02*
G37*
G36*
X484500D02*
Y593500D01*
X484502D01*
X485678Y593471D01*
X487563Y593096D01*
X489474Y592305D01*
X491193Y591156D01*
X492656Y589693D01*
X493805Y587974D01*
X494596Y586063D01*
X495000Y584034D01*
Y583000D01*
X495000Y497000D01*
X495000Y497000D01*
X495000Y495966D01*
X494596Y493937D01*
X493805Y492026D01*
X492656Y490307D01*
X491193Y488844D01*
X489474Y487695D01*
X487563Y486903D01*
X485534Y486500D01*
X452500D01*
X452500Y486500D01*
X451466Y486500D01*
X449437Y486903D01*
X447526Y487695D01*
X445807Y488844D01*
X444344Y490307D01*
X443195Y492026D01*
X442403Y493937D01*
X442000Y495966D01*
X442000Y497000D01*
X442000Y583000D01*
X442000Y583000D01*
X442000Y583000D01*
X442028Y584174D01*
X442403Y586063D01*
X443195Y587974D01*
X444344Y589693D01*
X445807Y591156D01*
X447526Y592305D01*
X449437Y593096D01*
X451466Y593500D01*
X452500Y593500D01*
X484500Y593500D01*
X484500Y593500D01*
D02*
G37*
G36*
X407500D02*
Y593500D01*
X407502D01*
X408678Y593471D01*
X410563Y593096D01*
X412474Y592305D01*
X414193Y591156D01*
X415656Y589693D01*
X416805Y587974D01*
X417596Y586063D01*
X418000Y584034D01*
Y583000D01*
X418000Y497000D01*
X418000Y497000D01*
X418000Y495966D01*
X417597Y493937D01*
X416805Y492026D01*
X415656Y490307D01*
X414193Y488844D01*
X412474Y487695D01*
X410563Y486903D01*
X408534Y486500D01*
X375500D01*
X375500Y486500D01*
X374466Y486500D01*
X372437Y486903D01*
X370526Y487695D01*
X368807Y488844D01*
X367344Y490307D01*
X366195Y492026D01*
X365404Y493937D01*
X365000Y495966D01*
X365000Y497000D01*
X365000Y583000D01*
X365000Y583000D01*
X365000Y583000D01*
X365028Y584174D01*
X365404Y586063D01*
X366195Y587974D01*
X367344Y589693D01*
X368807Y591156D01*
X370526Y592305D01*
X372437Y593096D01*
X374466Y593500D01*
X375500Y593500D01*
X407500Y593500D01*
X407500Y593500D01*
D02*
G37*
D46*
X140000Y436000D02*
D03*
Y420000D02*
D03*
D50*
Y469500D02*
D03*
Y490500D02*
D03*
D54*
X740000Y413350D02*
D03*
Y146650D02*
D03*
Y482650D02*
D03*
Y757350D02*
D03*
X20000Y568000D02*
D03*
X1340000D02*
D03*
D55*
X1292500Y405000D02*
D03*
Y444599D02*
D03*
Y484197D02*
D03*
D57*
X630000Y330000D02*
D03*
Y380800D02*
D03*
X1293300Y132500D02*
D03*
X1242500D02*
D03*
X1235000Y737000D02*
D03*
X1285800D02*
D03*
X630000Y590800D02*
D03*
Y540000D02*
D03*
X927500Y468300D02*
D03*
Y417500D02*
D03*
D58*
X109999Y765000D02*
D03*
X130002D02*
D03*
X150000D02*
D03*
D59*
X169998D02*
D03*
D60*
X545500Y565800D02*
D03*
Y514200D02*
D03*
Y405800D02*
D03*
Y354200D02*
D03*
X467000Y565800D02*
D03*
Y514200D02*
D03*
Y405800D02*
D03*
Y354200D02*
D03*
X396900Y565800D02*
D03*
Y514200D02*
D03*
Y405800D02*
D03*
Y354200D02*
D03*
X108700Y333000D02*
D03*
X160300D02*
D03*
X108700Y587000D02*
D03*
X160300D02*
D03*
X1185000Y465000D02*
D03*
Y315000D02*
D03*
Y565000D02*
D03*
Y390000D02*
D03*
D61*
X1067500Y539500D02*
D03*
D62*
Y514100D02*
D03*
Y488700D02*
D03*
Y463300D02*
D03*
Y437900D02*
D03*
Y412500D02*
D03*
Y387100D02*
D03*
Y361700D02*
D03*
D63*
X556000Y796000D02*
D03*
Y766000D02*
D03*
Y736000D02*
D03*
Y706000D02*
D03*
X526000Y796000D02*
D03*
Y766000D02*
D03*
Y736000D02*
D03*
Y706000D02*
D03*
X496000Y796000D02*
D03*
Y766000D02*
D03*
Y736000D02*
D03*
Y706000D02*
D03*
X466000Y796000D02*
D03*
Y766000D02*
D03*
Y736000D02*
D03*
Y706000D02*
D03*
Y676000D02*
D03*
Y646000D02*
D03*
Y616000D02*
D03*
X436000Y796000D02*
D03*
Y766000D02*
D03*
Y736000D02*
D03*
Y706000D02*
D03*
Y676000D02*
D03*
Y646000D02*
D03*
Y616000D02*
D03*
X826000D02*
D03*
Y556000D02*
D03*
Y646000D02*
D03*
Y676000D02*
D03*
X856000Y556000D02*
D03*
Y616000D02*
D03*
Y646000D02*
D03*
X796000Y736000D02*
D03*
X826000Y796000D02*
D03*
X856000Y766000D02*
D03*
X586000Y196000D02*
D03*
Y166000D02*
D03*
Y136000D02*
D03*
Y106000D02*
D03*
Y76000D02*
D03*
X556000Y196000D02*
D03*
Y166000D02*
D03*
Y136000D02*
D03*
Y106000D02*
D03*
Y76000D02*
D03*
X526000Y196000D02*
D03*
Y166000D02*
D03*
Y136000D02*
D03*
Y106000D02*
D03*
Y76000D02*
D03*
X496000Y196000D02*
D03*
Y166000D02*
D03*
Y136000D02*
D03*
Y106000D02*
D03*
Y76000D02*
D03*
X466000Y316000D02*
D03*
Y286000D02*
D03*
Y256000D02*
D03*
Y226000D02*
D03*
Y196000D02*
D03*
Y166000D02*
D03*
Y136000D02*
D03*
Y106000D02*
D03*
Y76000D02*
D03*
X436000Y286000D02*
D03*
Y256000D02*
D03*
Y226000D02*
D03*
Y196000D02*
D03*
Y166000D02*
D03*
Y136000D02*
D03*
Y106000D02*
D03*
Y76000D02*
D03*
X406000Y256000D02*
D03*
Y226000D02*
D03*
Y196000D02*
D03*
Y166000D02*
D03*
Y136000D02*
D03*
Y106000D02*
D03*
Y76000D02*
D03*
X856000Y256000D02*
D03*
Y346000D02*
D03*
Y316000D02*
D03*
X1006000Y106000D02*
D03*
X1036000Y76000D02*
D03*
X1066000D02*
D03*
X1126000D02*
D03*
X1066000Y106000D02*
D03*
Y136000D02*
D03*
X1096000D02*
D03*
X1126000D02*
D03*
X1216000Y76000D02*
D03*
X1186000Y106000D02*
D03*
X1305999Y76000D02*
D03*
X1216000Y136000D02*
D03*
X1246000Y106000D02*
D03*
X1126000Y166000D02*
D03*
X1036000Y196000D02*
D03*
X1096000D02*
D03*
X1006000D02*
D03*
X1156000Y166000D02*
D03*
X1186000D02*
D03*
X1246000D02*
D03*
X1276000D02*
D03*
X1305999D02*
D03*
X1156000Y196000D02*
D03*
X1216000D02*
D03*
X1246000D02*
D03*
X1276000D02*
D03*
X1006000Y136000D02*
D03*
X1156000Y76000D02*
D03*
X1186000D02*
D03*
X1126000Y106000D02*
D03*
X1156000D02*
D03*
X1276000D02*
D03*
X1006000Y166000D02*
D03*
X1066000D02*
D03*
X1096000D02*
D03*
X1156000Y136000D02*
D03*
X1186000Y196000D02*
D03*
X1305999D02*
D03*
X856000Y286000D02*
D03*
X826000Y346000D02*
D03*
Y316000D02*
D03*
Y286000D02*
D03*
Y256000D02*
D03*
X1305999Y106000D02*
D03*
X1246000Y76000D02*
D03*
X1216000Y166000D02*
D03*
Y106000D02*
D03*
X1186000Y136000D02*
D03*
X1126000Y196000D02*
D03*
X1096000Y106000D02*
D03*
Y76000D02*
D03*
X1066000Y196000D02*
D03*
X1036000Y166000D02*
D03*
Y136000D02*
D03*
Y106000D02*
D03*
X1006000Y76000D02*
D03*
X886000Y766000D02*
D03*
Y736000D02*
D03*
Y706000D02*
D03*
X856000Y796000D02*
D03*
Y736000D02*
D03*
Y706000D02*
D03*
Y676000D02*
D03*
Y586000D02*
D03*
X826000Y766000D02*
D03*
Y736000D02*
D03*
Y706000D02*
D03*
Y586000D02*
D03*
X796000Y796000D02*
D03*
Y766000D02*
D03*
Y706000D02*
D03*
X1305999Y796000D02*
D03*
Y766000D02*
D03*
Y706000D02*
D03*
X1276000Y796000D02*
D03*
Y766000D02*
D03*
Y706000D02*
D03*
X1246000Y796000D02*
D03*
Y766000D02*
D03*
Y706000D02*
D03*
X1216000Y796000D02*
D03*
Y766000D02*
D03*
Y706000D02*
D03*
X1186000Y796000D02*
D03*
Y766000D02*
D03*
Y736000D02*
D03*
Y706000D02*
D03*
X1156000Y796000D02*
D03*
Y766000D02*
D03*
Y736000D02*
D03*
Y706000D02*
D03*
X1126000Y796000D02*
D03*
Y766000D02*
D03*
Y736000D02*
D03*
Y706000D02*
D03*
X1096000Y796000D02*
D03*
Y766000D02*
D03*
Y736000D02*
D03*
Y706000D02*
D03*
X1066000Y796000D02*
D03*
Y766000D02*
D03*
Y736000D02*
D03*
Y706000D02*
D03*
X1036000Y796000D02*
D03*
Y766000D02*
D03*
Y736000D02*
D03*
Y706000D02*
D03*
D64*
X842500Y470250D02*
D03*
Y424750D02*
D03*
D65*
X90000Y435500D02*
D03*
Y470000D02*
D03*
M02*
