M48
;Layer_Color=9474304
;FILE_FORMAT=4:4
METRIC,LZ
;TYPE=PLATED
T1F00S00C0.7000
T2F00S00C0.8000
T3F00S00C1.2000
T4F00S00C1.5000
T5F00S00C1.6000
T6F00S00C2.0000
T7F00S00C2.5000
%
T01
X00406Y00076
X00436
X00466
X00496
X00526
Y00106
Y00136
X00496
Y00106
X00466
Y00136
X00436
Y00106
X00406
Y00136
X00556
X00586
Y00106
Y00076
X00556
Y00106
X01006
Y00136
X01036
X01066
Y00106
Y00076
X01036
Y00106
X01096
Y00136
X01126
Y00106
Y00076
X01156
X01186
X01216
X01246
Y00106
X01276
X01305999
Y00076
X01216Y00106
X01186
X01156
Y00136
X01186
X01216
X01096Y00076
X01006
Y00166
Y00196
X01036
X01066
X01096
Y00166
X01126
X01156
X01186
Y00196
X01156
X01126
X01216
X01246
Y00166
X01276
X01305999
Y00196
X01276
X01216Y00166
X01066
X01036
X00856Y00256
Y00286
Y00316
Y00346
X00826
Y00316
Y00286
Y00256
X00586Y00196
Y00166
X00556
Y00196
X00526
Y00166
X00496
Y00196
X00466
Y00226
Y00256
Y00286
Y00316
X00436Y00286
Y00256
Y00226
Y00196
Y00166
X00466
X00406
Y00196
Y00226
Y00256
X00436Y00616
X00466
Y00646
Y00676
Y00706
X00496
X00526
Y00736
Y00766
Y00796
X00496
Y00766
Y00736
X00466
Y00766
Y00796
X00436
Y00766
Y00736
Y00706
Y00676
Y00646
X00556Y00706
Y00736
Y00766
Y00796
X00796
X00826
X00856
Y00766
X00886
Y00736
Y00706
X00856
Y00736
X00826
X00796
Y00766
X00826
Y00706
Y00676
Y00646
Y00616
X00856
Y00646
Y00676
Y00586
Y00556
X00826
Y00586
X00796Y00706
X01036
X01066
X01096
X01126
X01156
X01186
X01216
X01246
X01276
X01305999
Y00766
Y00796
X01276
Y00766
X01246
Y00796
X01216
Y00766
X01186
Y00796
X01156
Y00766
Y00736
X01186
X01126
Y00766
Y00796
X01096
Y00766
Y00736
X01066
Y00766
Y00796
X01036
Y00766
Y00736
T02
X010675Y003617
Y003871
Y004125
Y004379
Y004633
Y004887
Y005141
Y005395
X00130002Y00765
X00109999
X0015
X00169998
T03
X0074Y0014665
Y0041335
Y0048265
Y0075735
T04
X012425Y001325
X012933
X01185Y00315
Y0039
Y00465
X009275Y004683
Y004175
X0063Y003808
Y0033
Y0054
Y005908
X01185Y00565
X01235Y00737
X012858
T05
X012925Y00405
Y00444599
Y00484197
T06
X005455Y003542
Y004058
Y005142
X00467
X003969
Y004058
Y003542
X00467
Y004058
X001603Y00333
X001087
Y00587
X001603
X003969Y005658
X00467
X005455
T07
X0002Y00568
X0134
M30
