G04 Layer_Color=65535*
%FSLAX44Y44*%
%MOMM*%
G71*
G01*
G75*
%ADD34C,0.2000*%
%ADD35C,0.1000*%
%ADD36C,0.1270*%
%ADD37C,0.1524*%
%ADD38C,0.2032*%
%ADD39C,0.2540*%
%ADD40C,0.1998*%
%ADD41C,0.2500*%
%ADD42C,0.1500*%
D34*
X816500Y383000D02*
Y422000D01*
X868500Y383000D02*
Y422000D01*
X816500Y465500D02*
Y504500D01*
X868500Y465500D02*
Y504500D01*
D35*
X971500Y513500D02*
Y516500D01*
X963500Y513500D02*
Y516500D01*
X960500Y529500D02*
X974500D01*
X960500Y500500D02*
Y529500D01*
Y500500D02*
X974500D01*
Y529500D01*
X976500Y275250D02*
Y324500D01*
X998250D01*
Y275250D02*
Y324500D01*
X976500Y275250D02*
X998250D01*
X996000Y292500D02*
Y307500D01*
X979000Y292500D02*
Y307500D01*
X998250Y334500D02*
Y380500D01*
X976750Y334500D02*
X998250D01*
X976750D02*
Y380500D01*
X998250D01*
X979250Y353000D02*
Y362000D01*
X995750Y353000D02*
Y362000D01*
X998250Y389500D02*
Y435500D01*
X976750Y389500D02*
X998250D01*
X976750D02*
Y435500D01*
X998250D01*
X979250Y408000D02*
Y417000D01*
X995750Y408000D02*
Y417000D01*
X998250Y444500D02*
Y490500D01*
X976750Y444500D02*
X998250D01*
X976750D02*
Y490500D01*
X998250D01*
X979250Y463000D02*
Y472000D01*
X995750Y463000D02*
Y472000D01*
X104250Y691750D02*
X130750D01*
Y678250D02*
Y691750D01*
X104250Y678250D02*
X130750D01*
X104250D02*
Y691750D01*
X116500Y689250D02*
X118500D01*
X115500Y680750D02*
X119500D01*
X115500Y689250D02*
X116500D01*
X118500D02*
X119500D01*
X981000Y511000D02*
Y519000D01*
X994000Y511000D02*
Y519000D01*
X978250Y531750D02*
X996750D01*
X978250Y498250D02*
Y531750D01*
Y498250D02*
X996750D01*
Y531750D01*
X998500Y543000D02*
Y592250D01*
X976750Y543000D02*
X998500D01*
X976750D02*
Y592250D01*
X998500D01*
X979000Y560000D02*
Y575000D01*
X996000Y560000D02*
Y575000D01*
D36*
X690002Y165700D02*
Y394300D01*
X790002D01*
X690002Y165700D02*
X790002D01*
Y394300D01*
X1325520Y404187D02*
Y484197D01*
Y404187D02*
X1343300D01*
Y484197D01*
X1325520D02*
X1343300D01*
X116002Y729503D02*
Y741501D01*
Y729503D02*
X162001D01*
Y741501D01*
X116002D02*
X162001D01*
X119998Y748503D02*
X158500D01*
Y741501D02*
Y748503D01*
X119998Y741501D02*
X158500D01*
X119998D02*
Y748503D01*
X675000Y462350D02*
Y777350D01*
Y462350D02*
X805000D01*
X675000Y777350D02*
X805000D01*
Y462350D02*
Y777350D01*
X1172300Y425000D02*
X1182300D01*
X1209003D02*
X1219003D01*
X1209003Y455000D02*
X1219003D01*
X1172300D02*
X1182300D01*
X1185000Y290000D02*
Y590000D01*
X1208410Y474840D02*
X1214760Y468490D01*
X1208410Y462140D02*
X1214760Y468490D01*
X1208410Y462140D02*
X1214760Y455790D01*
X1206670Y567000D02*
X1216670D01*
X1211670Y562000D02*
Y572000D01*
Y310540D02*
Y320540D01*
X1219003Y290000D02*
Y590000D01*
X1172300D02*
X1219003D01*
X1172300Y290000D02*
Y590000D01*
Y290000D02*
X1219003D01*
X1185000Y580000D02*
X1219003D01*
X1208880Y400310D02*
X1215230Y393960D01*
X1208880Y387610D02*
X1215230Y393960D01*
X1208880Y387610D02*
X1215230Y381260D01*
D37*
X137164Y694250D02*
X173664D01*
Y675750D02*
Y694250D01*
X137164Y675750D02*
X173664D01*
X137164D02*
Y694250D01*
X52000Y287000D02*
Y633000D01*
X575000D01*
Y287000D02*
Y633000D01*
X52000Y287000D02*
X575000D01*
D38*
X1244240Y503696D02*
X1312820D01*
Y385137D02*
Y503696D01*
X1244240Y385137D02*
X1312820D01*
X1244240D02*
Y503696D01*
X1312998Y394027D02*
Y494696D01*
Y394027D02*
X1325520D01*
Y494696D01*
X1312998D02*
X1325520D01*
X614760Y396040D02*
X645240D01*
Y314760D02*
Y396040D01*
X614760Y314760D02*
X645240D01*
X614760D02*
Y396040D01*
X1227260Y117260D02*
Y147740D01*
X1308540D01*
Y117260D02*
Y147740D01*
X1227260Y117260D02*
X1308540D01*
X1301040Y721760D02*
Y752240D01*
X1219760Y721760D02*
X1301040D01*
X1219760D02*
Y752240D01*
X1301040D01*
X614760Y524760D02*
X645240D01*
X614760D02*
Y606040D01*
X645240D01*
Y524760D02*
Y606040D01*
X912260Y402260D02*
X942740D01*
X912260D02*
Y483540D01*
X942740D01*
Y402260D02*
Y483540D01*
D39*
X1231500Y494947D02*
X1241500Y484947D01*
X1231500Y474947D02*
Y494947D01*
Y474947D02*
X1241500Y484947D01*
X159998Y807750D02*
X169998Y797750D01*
X159998Y807750D02*
X179998D01*
X169998Y797750D02*
X179998Y807750D01*
X1054800Y552200D02*
X1067500D01*
X1080200Y349000D02*
Y552200D01*
X1067500D02*
X1080200D01*
X1054800Y349000D02*
Y552200D01*
Y349000D02*
X1080200D01*
Y100842D02*
Y552200D01*
Y100842D02*
X1095500D01*
Y801250D01*
X1080200D02*
X1095500D01*
X1080200Y552200D02*
Y801250D01*
X900450Y681750D02*
X1009200D01*
X900450D02*
Y785500D01*
X1009200D01*
Y681750D02*
Y785500D01*
D40*
X88502Y739503D02*
X105000D01*
Y748503D01*
X173495D01*
Y739503D02*
Y748503D01*
Y739503D02*
X191495D01*
Y794498D01*
X88502D02*
X191495D01*
X88502Y739503D02*
Y794498D01*
D41*
X252503Y160110D02*
X255002Y157611D01*
X260001D01*
X262500Y160110D01*
Y170107D01*
X260001Y172606D01*
X255002D01*
X252503Y170107D01*
X245006Y172606D02*
X240007D01*
X237508Y170107D01*
Y165108D01*
X240007Y162609D01*
X245006D01*
X247505Y165108D01*
Y170107D01*
X245006Y172606D01*
X232510D02*
Y162609D01*
X230011D01*
X227511Y165108D01*
Y172606D01*
Y165108D01*
X225012Y162609D01*
X222513Y165108D01*
Y172606D01*
X217515D02*
Y162609D01*
X215016D01*
X212516Y165108D01*
Y172606D01*
Y165108D01*
X210017Y162609D01*
X207518Y165108D01*
Y172606D01*
X202519Y162609D02*
Y170107D01*
X200020Y172606D01*
X192523D01*
Y162609D01*
X185025Y160110D02*
Y162609D01*
X187524D01*
X182526D01*
X185025D01*
Y170107D01*
X182526Y172606D01*
X172529Y162609D02*
X167531D01*
X165032Y165108D01*
Y172606D01*
X172529D01*
X175028Y170107D01*
X172529Y167607D01*
X165032D01*
X157534Y160110D02*
Y162609D01*
X160033D01*
X155035D01*
X157534D01*
Y170107D01*
X155035Y172606D01*
X145038D02*
X140040D01*
X137541Y170107D01*
Y165108D01*
X140040Y162609D01*
X145038D01*
X147537Y165108D01*
Y170107D01*
X145038Y172606D01*
X132542Y162609D02*
Y172606D01*
Y167607D01*
X130043Y165108D01*
X127544Y162609D01*
X125045D01*
X337456Y202998D02*
Y188002D01*
X329959D01*
X327460Y190502D01*
Y195500D01*
X329959Y197999D01*
X337456D01*
X332458D02*
X327460Y202998D01*
X322461D02*
X317463D01*
X319962D01*
Y188002D01*
X322461Y190502D01*
X309965D02*
X307466Y188002D01*
X302468D01*
X299968Y190502D01*
Y200498D01*
X302468Y202998D01*
X307466D01*
X309965Y200498D01*
Y190502D01*
X294970D02*
X292471Y188002D01*
X287472D01*
X284973Y190502D01*
Y200498D01*
X287472Y202998D01*
X292471D01*
X294970Y200498D01*
Y190502D01*
X279975Y202998D02*
Y200498D01*
X277476D01*
Y202998D01*
X279975D01*
X257482D02*
X267479D01*
X257482Y193001D01*
Y190502D01*
X259981Y188002D01*
X264980D01*
X267479Y190502D01*
X252484D02*
X249985Y188002D01*
X244986D01*
X242487Y190502D01*
Y193001D01*
X244986Y195500D01*
X247485D01*
X244986D01*
X242487Y197999D01*
Y200498D01*
X244986Y202998D01*
X249985D01*
X252484Y200498D01*
X237489Y190502D02*
X234989Y188002D01*
X229991D01*
X227492Y190502D01*
Y200498D01*
X229991Y202998D01*
X234989D01*
X237489Y200498D01*
Y190502D01*
X222493Y202998D02*
Y200498D01*
X219994D01*
Y202998D01*
X222493D01*
X209998Y190502D02*
X207498Y188002D01*
X202500D01*
X200001Y190502D01*
Y200498D01*
X202500Y202998D01*
X207498D01*
X209998Y200498D01*
Y190502D01*
X195002Y188002D02*
X185006D01*
Y190502D01*
X195002Y200498D01*
Y202998D01*
X180007Y190502D02*
X177508Y188002D01*
X172510D01*
X170011Y190502D01*
Y200498D01*
X172510Y202998D01*
X177508D01*
X180007Y200498D01*
Y190502D01*
X165012Y202998D02*
Y200498D01*
X162513D01*
Y202998D01*
X165012D01*
X152516Y190502D02*
X150017Y188002D01*
X145019D01*
X142519Y190502D01*
Y200498D01*
X145019Y202998D01*
X150017D01*
X152516Y200498D01*
Y190502D01*
X137521D02*
X135022Y188002D01*
X130023D01*
X127524Y190502D01*
Y200498D01*
X130023Y202998D01*
X135022D01*
X137521Y200498D01*
Y190502D01*
X122526D02*
X120027Y188002D01*
X115028D01*
X112529Y190502D01*
Y200498D01*
X115028Y202998D01*
X120027D01*
X122526Y200498D01*
Y190502D01*
X107531Y195500D02*
X97534D01*
X92536Y190502D02*
X90036Y188002D01*
X85038D01*
X82539Y190502D01*
Y200498D01*
X85038Y202998D01*
X90036D01*
X92536Y200498D01*
Y190502D01*
X77540D02*
X75041Y188002D01*
X70043D01*
X67544Y190502D01*
Y200498D01*
X70043Y202998D01*
X75041D01*
X77540Y200498D01*
Y190502D01*
X318713Y125508D02*
X323712D01*
X326211Y128007D01*
Y138004D01*
X323712Y140503D01*
X318713D01*
X316214Y138004D01*
Y128007D01*
X318713Y125508D01*
X311216D02*
Y140503D01*
X301219D01*
X296220Y125508D02*
X286224D01*
X291222D01*
Y140503D01*
X271229Y125508D02*
X281225D01*
Y140503D01*
X271229D01*
X281225Y133005D02*
X276227D01*
X256234Y128007D02*
X258733Y125508D01*
X263731D01*
X266230Y128007D01*
Y130506D01*
X263731Y133005D01*
X258733D01*
X256234Y135505D01*
Y138004D01*
X258733Y140503D01*
X263731D01*
X266230Y138004D01*
X251235Y125508D02*
X241238D01*
X246237D01*
Y140503D01*
X211248D02*
X221245D01*
X211248Y130506D01*
Y128007D01*
X213747Y125508D01*
X218746D01*
X221245Y128007D01*
X196253Y140503D02*
X206250D01*
X196253Y130506D01*
Y128007D01*
X198752Y125508D01*
X203750D01*
X206250Y128007D01*
X191255Y140503D02*
Y138004D01*
X188755D01*
Y140503D01*
X191255D01*
X178759Y128007D02*
X176259Y125508D01*
X171261D01*
X168762Y128007D01*
Y138004D01*
X171261Y140503D01*
X176259D01*
X178759Y138004D01*
Y128007D01*
X153767Y125508D02*
X163763D01*
Y133005D01*
X158765Y130506D01*
X156266D01*
X153767Y133005D01*
Y138004D01*
X156266Y140503D01*
X161264D01*
X163763Y138004D01*
X148768Y140503D02*
Y138004D01*
X146269D01*
Y140503D01*
X148768D01*
X126276D02*
X136272D01*
X126276Y130506D01*
Y128007D01*
X128775Y125508D01*
X133773D01*
X136272Y128007D01*
X121277D02*
X118778Y125508D01*
X113780D01*
X111280Y128007D01*
Y138004D01*
X113780Y140503D01*
X118778D01*
X121277Y138004D01*
Y128007D01*
X106282Y140503D02*
X101284D01*
X103783D01*
Y125508D01*
X106282Y128007D01*
X93786Y138004D02*
X91287Y140503D01*
X86288D01*
X83789Y138004D01*
Y128007D01*
X86288Y125508D01*
X91287D01*
X93786Y128007D01*
Y130506D01*
X91287Y133005D01*
X83789D01*
D42*
X843335Y327669D02*
X845002Y326003D01*
X848334D01*
X850000Y327669D01*
Y334334D01*
X848334Y336000D01*
X845002D01*
X843335Y334334D01*
X840003Y336000D02*
X836671D01*
X838337D01*
Y326003D01*
X840003Y327669D01*
X685335Y787669D02*
X687002Y786003D01*
X690334D01*
X692000Y787669D01*
Y794334D01*
X690334Y796000D01*
X687002D01*
X685335Y794334D01*
X682003Y787669D02*
X680337Y786003D01*
X677005D01*
X675339Y787669D01*
Y789335D01*
X677005Y791002D01*
X678671D01*
X677005D01*
X675339Y792668D01*
Y794334D01*
X677005Y796000D01*
X680337D01*
X682003Y794334D01*
X840335Y533669D02*
X842002Y532003D01*
X845334D01*
X847000Y533669D01*
Y540334D01*
X845334Y542000D01*
X842002D01*
X840335Y540334D01*
X832005Y542000D02*
Y532003D01*
X837003Y537002D01*
X830339D01*
X946669Y509165D02*
X945003Y507498D01*
Y504166D01*
X946669Y502500D01*
X953334D01*
X955000Y504166D01*
Y507498D01*
X953334Y509165D01*
X945003Y519161D02*
X946669Y515829D01*
X950002Y512497D01*
X953334D01*
X955000Y514163D01*
Y517495D01*
X953334Y519161D01*
X951668D01*
X950002Y517495D01*
Y512497D01*
X995000Y254003D02*
Y264000D01*
X988335D01*
X985003D02*
X981671D01*
X983337D01*
Y254003D01*
X985003Y255669D01*
X995000Y601003D02*
Y611000D01*
X988335D01*
X978339D02*
X985003D01*
X978339Y604336D01*
Y602669D01*
X980005Y601003D01*
X983337D01*
X985003Y602669D01*
X791000Y147000D02*
Y137003D01*
X786002D01*
X784335Y138669D01*
Y142002D01*
X786002Y143668D01*
X791000D01*
X787668D02*
X784335Y147000D01*
X781003D02*
X777671D01*
X779337D01*
Y137003D01*
X781003Y138669D01*
X959000Y805000D02*
Y795003D01*
X954002D01*
X952336Y796669D01*
Y800002D01*
X954002Y801668D01*
X959000D01*
X955668D02*
X952336Y805000D01*
X942339D02*
X949003D01*
X942339Y798335D01*
Y796669D01*
X944005Y795003D01*
X947337D01*
X949003Y796669D01*
X1017500Y347500D02*
X1007503D01*
Y352498D01*
X1009169Y354165D01*
X1012502D01*
X1014168Y352498D01*
Y347500D01*
Y350832D02*
X1017500Y354165D01*
X1009169Y357497D02*
X1007503Y359163D01*
Y362495D01*
X1009169Y364161D01*
X1010835D01*
X1012502Y362495D01*
Y360829D01*
Y362495D01*
X1014168Y364161D01*
X1015834D01*
X1017500Y362495D01*
Y359163D01*
X1015834Y357497D01*
X1017500Y402500D02*
X1007503D01*
Y407498D01*
X1009169Y409165D01*
X1012502D01*
X1014168Y407498D01*
Y402500D01*
Y405832D02*
X1017500Y409165D01*
Y417495D02*
X1007503D01*
X1012502Y412497D01*
Y419161D01*
X1017500Y457500D02*
X1007503D01*
Y462498D01*
X1009169Y464165D01*
X1012502D01*
X1014168Y462498D01*
Y457500D01*
Y460832D02*
X1017500Y464165D01*
X1007503Y474161D02*
Y467497D01*
X1012502D01*
X1010835Y470829D01*
Y472495D01*
X1012502Y474161D01*
X1015834D01*
X1017500Y472495D01*
Y469163D01*
X1015834Y467497D01*
X121000Y669000D02*
Y659003D01*
X116002D01*
X114335Y660669D01*
Y664002D01*
X116002Y665668D01*
X121000D01*
X117668D02*
X114335Y669000D01*
X104339Y659003D02*
X107671Y660669D01*
X111003Y664002D01*
Y667334D01*
X109337Y669000D01*
X106005D01*
X104339Y667334D01*
Y665668D01*
X106005Y664002D01*
X111003D01*
X1017500Y502500D02*
X1007503D01*
Y507498D01*
X1009169Y509165D01*
X1012502D01*
X1014168Y507498D01*
Y502500D01*
Y505832D02*
X1017500Y509165D01*
X1009169Y512497D02*
X1007503Y514163D01*
Y517495D01*
X1009169Y519161D01*
X1010835D01*
X1012502Y517495D01*
X1014168Y519161D01*
X1015834D01*
X1017500Y517495D01*
Y514163D01*
X1015834Y512497D01*
X1014168D01*
X1012502Y514163D01*
X1010835Y512497D01*
X1009169D01*
X1012502Y514163D02*
Y517495D01*
X1203000Y599003D02*
Y605668D01*
X1199668Y609000D01*
X1196336Y605668D01*
Y599003D01*
X1193003D02*
Y609000D01*
X1188005D01*
X1186339Y607334D01*
Y600669D01*
X1188005Y599003D01*
X1193003D01*
X1183006Y609000D02*
X1179674D01*
X1181340D01*
Y599003D01*
X1183006Y600669D01*
X166000Y656003D02*
Y662668D01*
X162668Y666000D01*
X159335Y662668D01*
Y656003D01*
X156003D02*
Y666000D01*
X151005D01*
X149339Y664334D01*
Y657669D01*
X151005Y656003D01*
X156003D01*
X139342Y666000D02*
X146006D01*
X139342Y659335D01*
Y657669D01*
X141008Y656003D01*
X144340D01*
X146006Y657669D01*
X1270000Y532497D02*
X1276665Y522500D01*
Y532497D02*
X1270000Y522500D01*
X1279997D02*
X1283329D01*
X1281663D01*
Y532497D01*
X1279997Y530831D01*
X632000Y273003D02*
X625336Y283000D01*
Y273003D02*
X632000Y283000D01*
X615339D02*
X622003D01*
X615339Y276336D01*
Y274669D01*
X617005Y273003D01*
X620337D01*
X622003Y274669D01*
X1285000Y75003D02*
X1278335Y85000D01*
Y75003D02*
X1285000Y85000D01*
X1275003Y76669D02*
X1273337Y75003D01*
X1270005D01*
X1268339Y76669D01*
Y78335D01*
X1270005Y80002D01*
X1271671D01*
X1270005D01*
X1268339Y81668D01*
Y83334D01*
X1270005Y85000D01*
X1273337D01*
X1275003Y83334D01*
X634000Y466003D02*
X627336Y476000D01*
Y466003D02*
X634000Y476000D01*
X619005D02*
Y466003D01*
X624003Y471002D01*
X617339D01*
X911003Y506000D02*
X921000Y512664D01*
X911003D02*
X921000Y506000D01*
X911003Y522661D02*
Y515997D01*
X916002D01*
X914335Y519329D01*
Y520995D01*
X916002Y522661D01*
X919334D01*
X921000Y520995D01*
Y517663D01*
X919334Y515997D01*
X202500Y769997D02*
X209165Y760000D01*
Y769997D02*
X202500Y760000D01*
X219161Y769997D02*
X215829Y768331D01*
X212497Y764998D01*
Y761666D01*
X214163Y760000D01*
X217495D01*
X219161Y761666D01*
Y763332D01*
X217495Y764998D01*
X212497D01*
X1101000Y810003D02*
X1094335Y820000D01*
Y810003D02*
X1101000Y820000D01*
X1091003D02*
Y810003D01*
X1086005D01*
X1084339Y811669D01*
Y815002D01*
X1086005Y816668D01*
X1091003D01*
X1081006Y820000D02*
X1077674D01*
X1079340D01*
Y810003D01*
X1081006Y811669D01*
X73000Y642003D02*
Y652000D01*
Y648668D01*
X66336Y642003D01*
X71334Y647002D01*
X66336Y652000D01*
X63003D02*
X59671D01*
X61337D01*
Y642003D01*
X63003Y643669D01*
X1271000Y820003D02*
X1264335Y830000D01*
Y820003D02*
X1271000Y830000D01*
X1261003Y820003D02*
X1254339D01*
Y821669D01*
X1261003Y828334D01*
Y830000D01*
X160336Y816669D02*
X162002Y815003D01*
X165334D01*
X167000Y816669D01*
Y818335D01*
X165334Y820002D01*
X162002D01*
X160336Y821668D01*
Y823334D01*
X162002Y825000D01*
X165334D01*
X167000Y823334D01*
X157003Y815003D02*
Y825000D01*
X153671Y821668D01*
X150339Y825000D01*
Y815003D01*
X147006Y826666D02*
X140342D01*
X137010Y825000D02*
Y815003D01*
X132011D01*
X130345Y816669D01*
Y820002D01*
X132011Y821668D01*
X137010D01*
X133677D02*
X130345Y825000D01*
X120348Y815003D02*
X127013D01*
Y825000D01*
X120348D01*
X127013Y820002D02*
X123681D01*
X117016Y815003D02*
Y825000D01*
X110352D01*
X180414Y683502D02*
X173750D01*
X177082Y680169D02*
Y686834D01*
X624003Y646000D02*
Y649332D01*
Y647666D01*
X634000D01*
Y646000D01*
Y649332D01*
Y654331D02*
X627336D01*
Y659329D01*
X629002Y660995D01*
X634000D01*
X635666Y664327D02*
Y670992D01*
X625669Y674324D02*
X624003Y675990D01*
Y679323D01*
X625669Y680989D01*
X627336D01*
X629002Y679323D01*
X630668Y680989D01*
X632334D01*
X634000Y679323D01*
Y675990D01*
X632334Y674324D01*
X630668D01*
X629002Y675990D01*
X627336Y674324D01*
X625669D01*
X629002Y675990D02*
Y679323D01*
X619003Y223000D02*
Y226332D01*
Y224666D01*
X629000D01*
Y223000D01*
Y226332D01*
Y231331D02*
X622336D01*
Y236329D01*
X624002Y237995D01*
X629000D01*
X630666Y241327D02*
Y247992D01*
X619003Y251324D02*
Y257989D01*
X620669D01*
X627334Y251324D01*
X629000D01*
X1286003Y312998D02*
Y309666D01*
X1287669Y308000D01*
X1294334D01*
X1296000Y309666D01*
Y312998D01*
X1294334Y314664D01*
X1287669D01*
X1286003Y312998D01*
X1289335Y317997D02*
X1296000Y321329D01*
X1289335Y324661D01*
X1296000Y332992D02*
Y329660D01*
X1294334Y327994D01*
X1291002D01*
X1289335Y329660D01*
Y332992D01*
X1291002Y334658D01*
X1292668D01*
Y327994D01*
X1289335Y337990D02*
X1296000D01*
X1292668D01*
X1291002Y339656D01*
X1289335Y341323D01*
Y342989D01*
X1297666Y347987D02*
Y354652D01*
X1286003Y357984D02*
X1294334D01*
X1296000Y359650D01*
Y362982D01*
X1294334Y364648D01*
X1286003D01*
X1300002Y50003D02*
X1303334D01*
X1305000Y51669D01*
Y58334D01*
X1303334Y60000D01*
X1300002D01*
X1298336Y58334D01*
Y51669D01*
X1300002Y50003D01*
X1295003Y53335D02*
Y58334D01*
X1293337Y60000D01*
X1288339D01*
Y53335D01*
X1283340Y51669D02*
Y53335D01*
X1285006D01*
X1281674D01*
X1283340D01*
Y58334D01*
X1281674Y60000D01*
X1276676Y63332D02*
Y53335D01*
X1271677D01*
X1270011Y55002D01*
Y58334D01*
X1271677Y60000D01*
X1276676D01*
X1266679Y53335D02*
Y58334D01*
X1265013Y60000D01*
X1260014D01*
Y53335D01*
X1255016Y51669D02*
Y53335D01*
X1256682D01*
X1253350D01*
X1255016D01*
Y58334D01*
X1253350Y60000D01*
X1248352Y61666D02*
X1241687D01*
X1238355Y50003D02*
Y58334D01*
X1236689Y60000D01*
X1233356D01*
X1231690Y58334D01*
Y50003D01*
X1290002Y677003D02*
X1293334D01*
X1295000Y678669D01*
Y685334D01*
X1293334Y687000D01*
X1290002D01*
X1288336Y685334D01*
Y678669D01*
X1290002Y677003D01*
X1285003Y680335D02*
Y685334D01*
X1283337Y687000D01*
X1278339D01*
Y680335D01*
X1273340Y678669D02*
Y680335D01*
X1275006D01*
X1271674D01*
X1273340D01*
Y685334D01*
X1271674Y687000D01*
X1266676Y690332D02*
Y680335D01*
X1261677D01*
X1260011Y682002D01*
Y685334D01*
X1261677Y687000D01*
X1266676D01*
X1256679Y680335D02*
Y685334D01*
X1255013Y687000D01*
X1250014D01*
Y680335D01*
X1245016Y678669D02*
Y680335D01*
X1246682D01*
X1243350D01*
X1245016D01*
Y685334D01*
X1243350Y687000D01*
X1238352Y688666D02*
X1231687D01*
X1228355Y677003D02*
Y685334D01*
X1226689Y687000D01*
X1223356D01*
X1221690Y685334D01*
Y677003D01*
X936336Y355669D02*
X938002Y354003D01*
X941334D01*
X943000Y355669D01*
Y362334D01*
X941334Y364000D01*
X938002D01*
X936336Y362334D01*
Y359002D01*
X939668D01*
X933003Y364000D02*
Y354003D01*
X926339Y364000D01*
Y354003D01*
X923006D02*
Y364000D01*
X918008D01*
X916342Y362334D01*
Y355669D01*
X918008Y354003D01*
X923006D01*
M02*
