%FSTAX23Y23*%
%MOIN*%
%SFA1B1*%

%IPPOS*%
%AMD71*
4,1,8,-0.049200,0.059100,-0.049200,-0.059100,-0.039400,-0.068900,0.039400,-0.068900,0.049200,-0.059100,0.049200,0.059100,0.039400,0.068900,-0.039400,0.068900,-0.049200,0.059100,0.0*
1,1,0.019600,-0.039400,0.059100*
1,1,0.019600,-0.039400,-0.059100*
1,1,0.019600,0.039400,-0.059100*
1,1,0.019600,0.039400,0.059100*
%
%AMD72*
4,1,8,0.059100,0.049200,-0.059100,0.049200,-0.068900,0.039400,-0.068900,-0.039400,-0.059100,-0.049200,0.059100,-0.049200,0.068900,-0.039400,0.068900,0.039400,0.059100,0.049200,0.0*
1,1,0.019600,0.059100,0.039400*
1,1,0.019600,-0.059100,0.039400*
1,1,0.019600,-0.059100,-0.039400*
1,1,0.019600,0.059100,-0.039400*
%
G04~CAMADD=71~8~0.0~0.0~1378.0~984.0~98.0~0.0~15~0.0~0.0~0.0~0.0~0~0.0~0.0~0.0~0.0~0~0.0~0.0~0.0~90.0~984.0~1378.0*
%ADD71D71*%
G04~CAMADD=72~8~0.0~0.0~1378.0~984.0~98.0~0.0~15~0.0~0.0~0.0~0.0~0~0.0~0.0~0.0~0.0~0~0.0~0.0~0.0~0.0~1378.0~984.0*
%ADD72D72*%
%ADD73R,0.076900X0.051300*%
%ADD74O,0.031600X0.069000*%
%ADD75R,0.031600X0.069000*%
%ADD76R,0.086700X0.069000*%
%ADD77R,0.069000X0.086700*%
%ADD78R,0.137900X0.114300*%
%ADD79R,0.047400X0.114300*%
%ADD80R,0.094000X0.110200*%
%ADD81R,0.047400X0.051300*%
%ADD82R,0.051300X0.047400*%
%ADD83R,0.053300X0.118200*%
%ADD84R,0.049300X0.039500*%
%ADD85R,0.067100X0.043400*%
%ADD86R,0.051300X0.080800*%
%ADD87R,0.031600X0.065100*%
%ADD88O,0.031600X0.065100*%
%ADD89C,0.091000*%
%ADD90R,0.091000X0.091000*%
%ADD91C,0.061500*%
%ADD92R,0.061500X0.061500*%
%ADD93C,0.106400*%
%ADD94R,0.106400X0.106400*%
%ADD95C,0.057900*%
%ADD96R,0.057900X0.057900*%
%ADD97R,0.098600X0.098600*%
%ADD98C,0.098600*%
%ADD99R,0.145800X0.145800*%
%ADD100C,0.145800*%
%ADD101C,0.208800*%
%ADD102C,0.088000*%
%ADD103C,0.103000*%
%ADD104C,0.043400*%
%ADD105C,0.055200*%
%LNr100.230.010.000-00_invertor-1*%
%LPD*%
G54D71*
X0557Y04409D03*
X05689Y04566D03*
Y04409D03*
X05807Y04566D03*
Y04409D03*
X05216Y04252D03*
Y04094D03*
X05807Y03779D03*
X05689D03*
X0557D03*
X05807Y03937D03*
X05689D03*
X0557D03*
X05807Y04094D03*
X05689D03*
X0557D03*
X05452D03*
X05334D03*
X05807Y04252D03*
X05689D03*
X0557D03*
X05452D03*
X05334D03*
X-06082Y08641D03*
X-062D03*
X-06318D03*
X-06437D03*
X-06555D03*
X-06082D03*
X-062D03*
X-06318D03*
X-06437D03*
X-06555D03*
X00551Y0374D03*
X00433D03*
X00315D03*
X00551Y03897D03*
X00433D03*
X00315D03*
X00196D03*
X00551Y04055D03*
X00433D03*
X00315D03*
X00196D03*
X00669D03*
X00315Y04212D03*
X00196D03*
Y0437D03*
Y05255D03*
Y05413D03*
X00315D03*
X00433D03*
X00196Y06515D03*
X00315D03*
X00433D03*
X00551D03*
X00196Y062D03*
X00315D03*
X00433D03*
X00551D03*
Y06358D03*
X00433D03*
X00315D03*
X00196D03*
Y06043D03*
X00315D03*
X00433D03*
X00551D03*
Y05885D03*
X00433D03*
X00315D03*
X00196D03*
X00669D03*
Y06043D03*
Y06358D03*
Y062D03*
Y06515D03*
Y05728D03*
Y0557D03*
X00196D03*
X00315D03*
X00433D03*
X00551D03*
Y05728D03*
X00433D03*
X00315D03*
X00196D03*
G54D72*
X03051Y06988D03*
Y0687D03*
Y06752D03*
Y06633D03*
X03208D03*
Y06752D03*
Y0687D03*
Y06988D03*
X03523D03*
Y0687D03*
Y06752D03*
Y06633D03*
X03366D03*
Y06752D03*
Y0687D03*
Y06988D03*
X03838D03*
Y0687D03*
Y06752D03*
Y06633D03*
X03681D03*
Y06752D03*
Y0687D03*
Y06988D03*
X03996Y0687D03*
Y06988D03*
Y07106D03*
X04153D03*
Y06988D03*
X04311Y07106D03*
X04468D03*
X04626D03*
X04783D03*
X0494D03*
X05098D03*
Y06988D03*
X03838Y07106D03*
X02893Y06988D03*
Y0687D03*
Y06752D03*
Y06633D03*
X02578Y06988D03*
Y0687D03*
Y06752D03*
Y06633D03*
X02736D03*
Y06752D03*
Y0687D03*
Y06988D03*
X02421D03*
Y0687D03*
Y06752D03*
Y06633D03*
X02263D03*
Y06752D03*
Y0687D03*
Y06988D03*
X02106D03*
Y0687D03*
Y06752D03*
Y06633D03*
X01791Y06988D03*
Y0687D03*
Y06752D03*
X01948Y06633D03*
Y06752D03*
Y0687D03*
Y06988D03*
X01633D03*
Y0687D03*
Y06752D03*
X01476D03*
Y0687D03*
X01633Y07106D03*
X01948D03*
X01791D03*
X02106D03*
X02263D03*
X02421D03*
X02736D03*
X02578D03*
X02893D03*
X03681D03*
X03366D03*
X03523D03*
X03208D03*
X03051D03*
G54D73*
X05689Y01485D03*
Y01349D03*
X00492Y01504D03*
Y01369D03*
G54D74*
X05527Y01268D03*
X05477D03*
X05427D03*
X05377D03*
X05527Y01054D03*
X05477D03*
X05427D03*
X00823Y01258D03*
X00773D03*
X00723D03*
X00673D03*
X00823Y01044D03*
X00773D03*
X00723D03*
G54D75*
X05377Y01054D03*
X00673Y01044D03*
G54D76*
X04318Y01948D03*
X045D03*
X0424Y03385D03*
X04421D03*
X01881Y02401D03*
X017D03*
X01881Y03878D03*
X017D03*
G54D77*
X0496Y02921D03*
Y03102D03*
X04419Y02921D03*
Y03102D03*
X01761Y02872D03*
Y03053D03*
X0123Y02891D03*
Y03072D03*
G54D78*
X05393Y01527D03*
X00816Y01458D03*
G54D79*
X05303Y01759D03*
X05393D03*
X05484D03*
X00726Y0169D03*
X00816D03*
X00907D03*
G54D80*
X05928Y00798D03*
X05804D03*
X05928Y00658D03*
X05804D03*
X00365Y00785D03*
X00241D03*
X00365Y00645D03*
X00241D03*
G54D81*
X05631Y006D03*
X05568D03*
X005Y00679D03*
X00563D03*
X05435Y01909D03*
X05372D03*
X00868Y01889D03*
X00805D03*
G54D82*
X05492Y00946D03*
Y00883D03*
X05423Y00946D03*
Y00883D03*
X00777Y00946D03*
Y00883D03*
X00708Y00946D03*
Y00883D03*
G54D83*
X04703Y03287D03*
X04567D03*
X01514Y03248D03*
X01378D03*
G54D84*
X05521Y00697D03*
Y00758D03*
X05433Y00697D03*
Y00758D03*
X00777Y00688D03*
Y00749D03*
X00689Y00688D03*
Y00749D03*
G54D85*
X00492Y01572D03*
Y01655D03*
X05689Y01553D03*
Y01635D03*
G54D86*
X04405Y02362D03*
X04531D03*
X04326Y02066D03*
X04452D03*
X04405Y03937D03*
X04531D03*
X04238Y03267D03*
X04364D03*
X01834Y01929D03*
X01708D03*
X01874Y02263D03*
X01748D03*
X01942Y03405D03*
X01816D03*
X01864Y03986D03*
X01738D03*
G54D87*
X04535Y02904D03*
X01346Y02865D03*
G54D88*
X04585Y02904D03*
X04635D03*
X04685D03*
X04735D03*
X04785D03*
X04835D03*
X04535Y03119D03*
X04585D03*
X04635D03*
X04685D03*
X04735D03*
X04785D03*
X04835D03*
X01396Y02865D03*
X01446D03*
X01496D03*
X01546D03*
X01596D03*
X01646D03*
X01346Y03079D03*
X01396D03*
X01446D03*
X01496D03*
X01546D03*
X01596D03*
X01646D03*
G54D89*
X0373Y07734D03*
Y07578D03*
G54D90*
X0373Y07422D03*
G54D91*
X05807Y01584D03*
Y01484D03*
Y01384D03*
Y01084D03*
X00236Y01565D03*
Y01465D03*
Y01365D03*
Y01065D03*
G54D92*
X05807Y00984D03*
X00236Y00965D03*
G54D93*
X05846Y0685D03*
X05649D03*
X05452D03*
X05649Y05984D03*
X05846D03*
X06043D03*
G54D94*
X06043Y0685D03*
X05452Y05984D03*
G54D95*
X00275Y00433D03*
X00354D03*
X00433D03*
X00511D03*
X0059D03*
X05886D03*
X05807D03*
X05728D03*
X05649D03*
X0557D03*
G54D96*
X00669Y00433D03*
X05492D03*
G54D97*
X04009Y03465D03*
X02202Y03894D03*
Y02359D03*
X04009Y0193D03*
G54D98*
X04009Y0368D03*
Y03894D03*
X02202Y0368D03*
Y03465D03*
Y02144D03*
Y0193D03*
X04009Y02144D03*
Y02359D03*
G54D99*
X01279Y06023D03*
X05472Y07755D03*
X04803Y06358D03*
X05344Y0499D03*
X00629Y07263D03*
Y04763D03*
G54D100*
X01673Y06023D03*
X05078Y07755D03*
X04409Y06358D03*
X0495Y0499D03*
X01023Y07263D03*
Y04763D03*
G54D101*
X03793Y02817D03*
Y00694D03*
X02423Y0069D03*
Y02814D03*
X03793Y05137D03*
Y03014D03*
X02423Y0301D03*
Y05133D03*
G54D102*
X05472Y03681D03*
Y02204D03*
X00708Y03779D03*
Y02303D03*
G54D103*
X05954Y05554D03*
Y05354D03*
X01565Y00669D03*
X01365D03*
X02844Y06138D03*
Y06338D03*
X04813Y00708D03*
X04613D03*
G54D104*
X01913Y06322D03*
Y06244D03*
Y06165D03*
Y06086D03*
Y06007D03*
Y05929D03*
Y0585D03*
Y05771D03*
X01834Y06322D03*
Y06244D03*
Y06165D03*
Y06086D03*
Y06007D03*
Y05929D03*
Y0585D03*
Y05771D03*
X01755Y06322D03*
Y06244D03*
Y06165D03*
Y06086D03*
Y05929D03*
Y0585D03*
Y05771D03*
X01677Y06322D03*
Y06244D03*
Y06165D03*
Y05929D03*
Y0585D03*
Y05771D03*
X01598Y06322D03*
Y06244D03*
Y06165D03*
Y05929D03*
Y0585D03*
Y05771D03*
X01283Y07661D03*
Y07582D03*
Y07503D03*
Y07425D03*
Y07346D03*
Y07267D03*
Y07189D03*
X01204Y07661D03*
Y07582D03*
Y07503D03*
Y07425D03*
Y07346D03*
Y07267D03*
Y07189D03*
X01126Y07661D03*
Y07582D03*
Y07503D03*
Y07425D03*
Y07346D03*
Y07267D03*
Y07189D03*
X01047Y07661D03*
Y07582D03*
Y07503D03*
Y07425D03*
X00968Y07661D03*
Y07582D03*
Y07503D03*
Y07425D03*
X01362Y06401D03*
Y06322D03*
Y06244D03*
Y06165D03*
X01283Y06401D03*
Y06322D03*
Y06244D03*
Y06165D03*
Y05929D03*
X01204Y06401D03*
Y06322D03*
Y06244D03*
Y06165D03*
X01126Y06401D03*
Y06322D03*
Y06244D03*
Y06165D03*
Y06086D03*
Y06007D03*
Y05929D03*
X01047Y06401D03*
Y06322D03*
Y06244D03*
Y06165D03*
Y06086D03*
Y06007D03*
Y05929D03*
X00968Y06401D03*
Y06322D03*
Y06244D03*
Y06165D03*
Y06086D03*
Y06007D03*
Y05929D03*
X00889Y06401D03*
Y06322D03*
Y06244D03*
Y06165D03*
Y06086D03*
Y06007D03*
Y05929D03*
X00811Y06401D03*
Y06322D03*
Y06244D03*
Y06165D03*
Y06086D03*
Y06007D03*
Y05929D03*
X00732Y07582D03*
Y07503D03*
Y07425D03*
Y07346D03*
Y07267D03*
Y07189D03*
Y0522D03*
Y05141D03*
Y05063D03*
Y04984D03*
Y04905D03*
Y04826D03*
Y04748D03*
X00653Y07661D03*
Y07582D03*
Y07503D03*
Y07425D03*
Y0711D03*
Y0522D03*
Y05141D03*
Y05063D03*
Y04984D03*
Y04905D03*
X00574Y07661D03*
Y07582D03*
Y07503D03*
Y07425D03*
Y0711D03*
Y0522D03*
Y05141D03*
Y05063D03*
Y04984D03*
Y04905D03*
X00496Y07661D03*
Y07582D03*
Y07503D03*
Y07425D03*
Y07346D03*
Y07267D03*
Y07189D03*
Y0711D03*
Y0522D03*
Y05141D03*
Y05063D03*
Y04984D03*
Y04905D03*
Y04826D03*
Y04748D03*
X00417Y07661D03*
Y07582D03*
Y07503D03*
Y07425D03*
Y07346D03*
Y07267D03*
Y07189D03*
Y0711D03*
Y0522D03*
Y05141D03*
Y05063D03*
Y04984D03*
Y04905D03*
Y04826D03*
Y04748D03*
X00338Y07661D03*
Y07582D03*
Y07503D03*
Y07425D03*
Y07346D03*
Y07267D03*
Y07189D03*
Y0711D03*
Y0522D03*
Y05141D03*
Y05063D03*
Y04984D03*
Y04905D03*
Y04826D03*
Y04748D03*
X00259Y07661D03*
Y07582D03*
Y07503D03*
Y07425D03*
Y07346D03*
Y07267D03*
Y07189D03*
Y0711D03*
Y05141D03*
Y05063D03*
Y04984D03*
Y04905D03*
Y04826D03*
Y04748D03*
X00181Y07582D03*
Y07503D03*
Y07425D03*
Y07346D03*
Y07267D03*
Y07189D03*
Y05141D03*
Y05063D03*
Y04984D03*
Y04905D03*
Y04826D03*
Y04748D03*
X00811Y03645D03*
X00968D03*
X00653Y03724D03*
X00811D03*
X00968Y03803D03*
X01126Y03724D03*
X01047D03*
X01283Y03803D03*
X00653Y03881D03*
X00732Y0396D03*
X01047Y03881D03*
X01126D03*
X01204D03*
X01362D03*
X01204Y0396D03*
X0144Y03881D03*
Y03724D03*
X01519Y0396D03*
X00968D03*
X04748Y03645D03*
X04826D03*
X04669D03*
X04748Y03724D03*
X04826D03*
X04669Y03803D03*
X04748D03*
X05141Y03645D03*
X05063D03*
X04905Y03803D03*
X05141Y03724D03*
X05063D03*
X04669Y03881D03*
X04748Y0396D03*
X04669D03*
X04905D03*
X04984Y03803D03*
X05063D03*
X0522D03*
X05063Y03881D03*
X04984Y0396D03*
X05063D03*
Y06322D03*
X0522Y0396D03*
X05299Y03724D03*
X05378Y03645D03*
X05299Y03803D03*
X05378Y03724D03*
X05299Y03881D03*
X05378Y03803D03*
X05456Y03881D03*
Y03803D03*
X05692Y04905D03*
X05614D03*
X05535Y04984D03*
X05614D03*
X05378Y0522D03*
Y05141D03*
X05456Y05063D03*
Y05141D03*
X05535Y05063D03*
X05456Y05299D03*
X05535Y05141D03*
X05692D03*
X05535Y0522D03*
X05614D03*
Y05299D03*
X04748Y0648D03*
X04826Y06559D03*
Y0648D03*
X04905Y06401D03*
Y0648D03*
X04826Y06637D03*
X04984Y06322D03*
Y06559D03*
Y06637D03*
X05063D03*
X05456D03*
X05378Y06952D03*
X05299D03*
X05456Y0711D03*
Y07031D03*
Y07582D03*
Y07503D03*
X05535Y06637D03*
Y06795D03*
X05614Y06637D03*
Y06952D03*
X05535Y07031D03*
X05614Y0711D03*
X05535Y07503D03*
X05692Y0711D03*
Y07503D03*
X05771D03*
X05535Y07582D03*
X05692Y07661D03*
X05535Y07897D03*
X05614Y07818D03*
Y07897D03*
X05692Y07818D03*
X05771Y07582D03*
Y0774D03*
X0585Y07582D03*
X05692Y07897D03*
X05771D03*
X04511Y04748D03*
Y04826D03*
X0459Y04748D03*
X04669Y04826D03*
X0459Y04984D03*
X04511Y05063D03*
X04669D03*
Y04748D03*
X04905D03*
X04826Y04905D03*
X04905Y04826D03*
X04984D03*
X04748Y05063D03*
X05378Y0585D03*
X05299Y06086D03*
X05535Y0585D03*
Y05929D03*
Y06007D03*
X04748Y07503D03*
X04826Y07425D03*
Y07503D03*
X04905Y07425D03*
X04748Y07582D03*
X04826Y07661D03*
Y0774D03*
X04748Y07818D03*
Y07897D03*
Y08055D03*
X04826D03*
X04905Y07503D03*
X04826Y07818D03*
Y07976D03*
Y07897D03*
X04905Y08055D03*
X05063Y07425D03*
X04984Y07503D03*
X05141D03*
X05535Y06165D03*
X05614D03*
X05456Y06244D03*
X05535D03*
X05378D03*
X05614D03*
X04905Y0774D03*
X04984Y07582D03*
Y07818D03*
X04905Y07897D03*
X04984D03*
Y07976D03*
X05141Y07582D03*
Y07897D03*
X05063Y07976D03*
X05141D03*
X02425Y03448D03*
X02484D03*
X02543D03*
X02425Y03566D03*
X02484D03*
X02602Y03448D03*
X02543Y03389D03*
X04685Y02952D03*
X04433Y03744D03*
Y03685D03*
Y03626D03*
Y03566D03*
X04374Y03744D03*
Y03685D03*
Y03626D03*
Y03566D03*
X04315Y03744D03*
Y03685D03*
Y03626D03*
Y03566D03*
X04255Y03744D03*
Y03685D03*
Y03626D03*
Y03566D03*
X04196Y03685D03*
Y03626D03*
Y03566D03*
X04137Y03685D03*
Y03626D03*
X04078Y03685D03*
Y03626D03*
X03901Y03685D03*
Y03626D03*
X03842D03*
Y03566D03*
X03783D03*
X04905Y01126D03*
Y01047D03*
Y00968D03*
Y00889D03*
Y00811D03*
Y00732D03*
Y00653D03*
Y00574D03*
Y00496D03*
Y00417D03*
Y00338D03*
X04826Y01126D03*
Y01047D03*
Y00968D03*
Y00889D03*
Y00811D03*
Y00574D03*
Y00496D03*
Y00417D03*
Y00338D03*
X04748Y01126D03*
Y01047D03*
Y00968D03*
Y00889D03*
Y00811D03*
Y00653D03*
Y00574D03*
Y00417D03*
Y00338D03*
X04669Y01126D03*
Y01047D03*
Y00968D03*
Y00889D03*
Y00811D03*
Y00653D03*
Y00574D03*
Y00417D03*
Y00338D03*
X0459Y01126D03*
Y01047D03*
Y00968D03*
Y00889D03*
Y00811D03*
Y00574D03*
Y00496D03*
Y00417D03*
Y00338D03*
X04511Y01126D03*
Y01047D03*
Y00968D03*
Y00889D03*
Y00811D03*
Y00732D03*
Y00653D03*
Y00574D03*
Y00496D03*
Y00417D03*
Y00338D03*
X02189Y01854D03*
Y01795D03*
Y01736D03*
X02129Y01972D03*
Y01913D03*
Y01854D03*
Y01795D03*
Y01736D03*
X0207Y01972D03*
Y01913D03*
Y01854D03*
Y01795D03*
Y01736D03*
X02011Y01972D03*
Y01913D03*
Y01854D03*
Y01795D03*
Y01736D03*
X01952Y0209D03*
Y02031D03*
Y01972D03*
Y01913D03*
Y01854D03*
Y01795D03*
Y01736D03*
X01893Y0209D03*
Y02031D03*
Y01972D03*
Y01913D03*
Y01854D03*
Y01795D03*
Y01736D03*
X03133Y01913D03*
X03192Y01854D03*
X03252D03*
X03133Y01972D03*
Y0209D03*
X03192Y01972D03*
Y01913D03*
X03133Y02326D03*
Y02444D03*
Y02385D03*
X03192Y0209D03*
Y02149D03*
X03252Y02031D03*
Y01913D03*
Y02208D03*
Y0209D03*
X03192Y02385D03*
Y02326D03*
Y02444D03*
X03252Y02326D03*
X03311Y01913D03*
Y01854D03*
X0337Y01913D03*
X03429Y01854D03*
X03252Y02149D03*
X03311Y0209D03*
Y02208D03*
X03252Y02385D03*
X0337Y02031D03*
Y01972D03*
X03429Y02149D03*
X0337Y02444D03*
X03133Y02503D03*
Y02563D03*
Y02622D03*
X03192Y02563D03*
Y02622D03*
X03133Y03212D03*
Y03271D03*
X03192Y03389D03*
Y02503D03*
X03252D03*
Y02622D03*
Y03212D03*
X03192D03*
Y0333D03*
X03252D03*
Y03271D03*
Y03389D03*
X03133Y03507D03*
Y03448D03*
Y03626D03*
Y03566D03*
X03192Y03448D03*
X03252Y03626D03*
Y03448D03*
X03311Y02563D03*
Y0333D03*
Y03271D03*
X0337Y0333D03*
X03429Y03212D03*
X0337D03*
X03252Y03507D03*
X0337Y03626D03*
X03665Y01854D03*
X03783D03*
X03488Y01913D03*
Y01972D03*
X03547Y01913D03*
X03488Y02031D03*
X03547Y01972D03*
X03488Y03212D03*
X03547Y02031D03*
Y03212D03*
X03606Y01972D03*
Y0209D03*
X03724Y02031D03*
X03488Y03271D03*
X03606Y04039D03*
Y0398D03*
X03665Y04039D03*
Y04098D03*
X03724Y04039D03*
X03665Y04216D03*
X03724Y04157D03*
X03783Y01913D03*
X03842D03*
Y02031D03*
Y01972D03*
X03783Y02031D03*
X03842Y0209D03*
X03901Y03862D03*
X03842Y0398D03*
X04078Y02149D03*
X04137Y0209D03*
X03901Y03921D03*
X0396Y0398D03*
X03783Y04098D03*
Y04039D03*
Y04216D03*
X03842D03*
Y04275D03*
X03901Y04039D03*
Y0398D03*
X0396Y04039D03*
X04078D03*
X03901Y04157D03*
Y04098D03*
X0396Y04157D03*
X04137Y02149D03*
X04078Y0209D03*
X03901Y02149D03*
Y0209D03*
X03842Y01854D03*
X03783Y01972D03*
X03724D03*
Y01913D03*
Y01854D03*
X03665Y0209D03*
Y02031D03*
Y01972D03*
Y01913D03*
X03606Y02031D03*
Y01913D03*
Y01854D03*
X03547Y0209D03*
Y01854D03*
X03488Y0209D03*
Y01854D03*
X03429Y0209D03*
Y02031D03*
Y01972D03*
Y01913D03*
X0337Y02622D03*
Y02563D03*
Y02503D03*
Y02385D03*
Y02326D03*
Y02267D03*
Y02208D03*
Y02149D03*
Y0209D03*
Y01854D03*
X03311Y02622D03*
Y02503D03*
Y02444D03*
Y02385D03*
Y02326D03*
Y02267D03*
Y02149D03*
Y02031D03*
Y01972D03*
X03252Y02563D03*
Y02444D03*
Y02267D03*
Y01972D03*
X03192Y02267D03*
Y02208D03*
Y02031D03*
X03133Y02267D03*
Y02208D03*
Y02149D03*
Y02031D03*
Y01854D03*
X03547Y03271D03*
X03429D03*
X0337Y03566D03*
Y03507D03*
Y03448D03*
Y03389D03*
Y03271D03*
X03311Y03626D03*
Y03566D03*
Y03507D03*
Y03448D03*
Y03389D03*
Y03212D03*
X03252Y03566D03*
X03192Y03626D03*
Y03566D03*
Y03507D03*
Y03271D03*
X03133Y03389D03*
Y0333D03*
X04078Y0398D03*
Y03862D03*
X04019Y04098D03*
Y04039D03*
Y0398D03*
X0396Y04098D03*
X03901Y04216D03*
X03842Y04157D03*
Y04098D03*
Y04039D03*
Y03921D03*
X03783Y04275D03*
Y04157D03*
X03724Y04275D03*
Y04216D03*
Y04098D03*
X03665Y04275D03*
Y04157D03*
X03606Y04275D03*
Y04216D03*
Y04157D03*
Y04098D03*
X01716Y00486D03*
Y00407D03*
Y00328D03*
X01637Y01352D03*
Y01273D03*
Y01194D03*
Y01116D03*
Y01037D03*
Y00958D03*
Y00879D03*
Y00801D03*
Y00722D03*
Y00643D03*
Y00565D03*
Y00486D03*
Y00407D03*
Y00328D03*
X01559Y01352D03*
Y01273D03*
Y01194D03*
Y01116D03*
Y01037D03*
Y00958D03*
Y00879D03*
Y00801D03*
Y00565D03*
Y00486D03*
Y00407D03*
Y00328D03*
X0148Y01352D03*
Y01273D03*
Y01194D03*
Y01116D03*
Y01037D03*
Y00958D03*
Y00879D03*
Y00801D03*
Y00565D03*
Y00486D03*
Y00328D03*
X01401Y01352D03*
Y01273D03*
Y01194D03*
Y01116D03*
Y01037D03*
Y00958D03*
Y00879D03*
Y00801D03*
Y00565D03*
Y00486D03*
Y00328D03*
X01322Y01352D03*
Y01273D03*
Y01194D03*
Y01116D03*
Y01037D03*
Y00958D03*
Y00879D03*
Y00801D03*
Y00565D03*
Y00486D03*
Y00407D03*
Y00328D03*
X01244Y01352D03*
Y01273D03*
Y01194D03*
Y01116D03*
Y01037D03*
Y00958D03*
Y00879D03*
Y00801D03*
Y00722D03*
Y00643D03*
Y00565D03*
Y00486D03*
Y00407D03*
X02897Y02622D03*
Y02563D03*
Y02503D03*
Y02444D03*
Y02385D03*
Y02326D03*
Y02267D03*
Y02208D03*
Y02149D03*
Y0209D03*
X02838Y02622D03*
Y02563D03*
Y02503D03*
Y02444D03*
Y02385D03*
Y02326D03*
Y02267D03*
Y02208D03*
Y02149D03*
Y0209D03*
X02779Y02622D03*
Y02563D03*
Y02503D03*
Y02444D03*
Y02385D03*
Y02326D03*
Y02267D03*
Y02208D03*
Y02149D03*
Y0209D03*
X0272Y02622D03*
Y02563D03*
Y02503D03*
Y02444D03*
Y02385D03*
Y02326D03*
Y02267D03*
Y02208D03*
Y02149D03*
Y0209D03*
X02661Y02622D03*
Y02563D03*
Y02503D03*
Y02444D03*
Y02385D03*
Y02326D03*
Y02267D03*
Y02208D03*
Y02149D03*
Y0209D03*
X02602Y02563D03*
Y02503D03*
Y02444D03*
Y02385D03*
Y02326D03*
Y02267D03*
Y02208D03*
Y02149D03*
Y0209D03*
X02543Y02563D03*
Y02503D03*
Y02444D03*
Y02385D03*
Y02326D03*
Y02267D03*
Y02208D03*
Y02149D03*
X02484Y02563D03*
Y02503D03*
Y02444D03*
Y02385D03*
Y02326D03*
Y02267D03*
Y02208D03*
X02425Y02563D03*
Y02503D03*
Y02444D03*
Y02385D03*
Y02326D03*
Y02267D03*
Y02208D03*
X02366Y02503D03*
Y02444D03*
Y02385D03*
Y02326D03*
Y02267D03*
Y02208D03*
Y02149D03*
X02307Y02208D03*
Y02149D03*
X02248Y02208D03*
X02129D03*
Y02149D03*
X00653Y03645D03*
X00732D03*
Y03881D03*
X00811Y03803D03*
Y03881D03*
Y0396D03*
X00889Y03645D03*
Y03724D03*
Y03803D03*
Y03881D03*
Y0396D03*
X00968Y03724D03*
Y03881D03*
X01047Y03645D03*
Y03803D03*
Y0396D03*
X01126Y03645D03*
Y03803D03*
Y0396D03*
X01204Y03645D03*
Y03724D03*
Y03803D03*
X01283Y03645D03*
Y03724D03*
Y03881D03*
Y0396D03*
X01362Y03645D03*
Y03724D03*
Y03803D03*
Y0396D03*
X0144Y03645D03*
Y03803D03*
Y0396D03*
X01519Y03645D03*
Y03724D03*
Y03803D03*
Y03881D03*
X04669Y03724D03*
X04748Y03881D03*
X04826Y03803D03*
Y03881D03*
Y0396D03*
X04905Y03645D03*
Y03724D03*
Y03881D03*
X04984Y03645D03*
Y03724D03*
Y03881D03*
X05141Y03803D03*
Y03881D03*
Y0396D03*
X0522Y03645D03*
Y03724D03*
Y03881D03*
X05299Y03645D03*
Y0396D03*
X05378Y03881D03*
Y0396D03*
X05456D03*
X04744Y02952D03*
X04547Y02628D03*
X04498Y02588D03*
X0497D03*
X05029D03*
X01775Y03626D03*
Y03685D03*
Y03744D03*
X01834Y03626D03*
Y03685D03*
Y03744D03*
X01893Y03626D03*
Y03685D03*
Y03744D03*
X01952Y03626D03*
Y03685D03*
Y03744D03*
X02011Y03685D03*
Y03744D03*
X0207Y03685D03*
Y03744D03*
X02129Y03685D03*
Y03744D03*
X02248D03*
X02129Y03271D03*
Y0333D03*
Y03448D03*
X02189Y03271D03*
Y0333D03*
Y03389D03*
X02248Y03271D03*
Y0333D03*
Y03389D03*
X02307Y03271D03*
Y0333D03*
Y03389D03*
Y03448D03*
X02366Y03271D03*
Y0333D03*
Y03389D03*
Y03448D03*
X02425Y03271D03*
Y0333D03*
Y03389D03*
Y03507D03*
X02484Y03271D03*
Y0333D03*
Y03389D03*
Y03507D03*
X02543Y03271D03*
Y0333D03*
X02602Y03271D03*
Y0333D03*
Y03389D03*
X02661Y03212D03*
Y03271D03*
Y0333D03*
Y03389D03*
Y03448D03*
X0272Y03212D03*
Y03271D03*
Y0333D03*
Y03389D03*
Y03448D03*
X02779Y03212D03*
Y03271D03*
Y0333D03*
Y03389D03*
Y03448D03*
X02838Y03212D03*
Y03271D03*
Y0333D03*
Y03389D03*
Y03448D03*
X02897Y03212D03*
Y03271D03*
Y0333D03*
Y03389D03*
Y03448D03*
X01485Y02924D03*
X01545Y02923D03*
X00649Y01309D03*
X00866Y01279D03*
X05378Y07503D03*
Y07582D03*
Y07661D03*
Y07897D03*
X05456D03*
X05614Y07503D03*
Y07582D03*
Y07661D03*
Y0774D03*
X05692Y07582D03*
Y0774D03*
X05771Y07661D03*
Y07818D03*
X0585Y07503D03*
Y07661D03*
Y0774D03*
Y07818D03*
Y07897D03*
X05299Y06716D03*
Y06795D03*
Y06874D03*
Y07031D03*
Y0711D03*
X05378Y06637D03*
Y06716D03*
Y06795D03*
Y07031D03*
Y0711D03*
X05456Y06716D03*
Y06952D03*
X05535Y06716D03*
Y06874D03*
Y06952D03*
Y0711D03*
X05614Y06716D03*
Y07031D03*
X05692Y06637D03*
Y06716D03*
Y06952D03*
Y07031D03*
X04748Y06559D03*
Y06637D03*
X04905Y06322D03*
Y06559D03*
Y06637D03*
X04984Y06401D03*
Y0648D03*
X05063Y06401D03*
Y0648D03*
Y06559D03*
X05299Y06637D03*
Y05141D03*
Y0522D03*
Y05299D03*
X05378D03*
X05456Y04905D03*
Y04984D03*
Y0522D03*
X05535Y04905D03*
Y05299D03*
X05614Y05063D03*
Y05141D03*
X05692Y04984D03*
Y05063D03*
Y0522D03*
X04748Y07425D03*
Y07661D03*
Y0774D03*
Y07976D03*
X04826Y07582D03*
X04905D03*
Y07661D03*
Y07818D03*
Y07976D03*
X04984Y07425D03*
Y07661D03*
Y08055D03*
X05063Y07503D03*
Y07582D03*
Y07897D03*
Y08055D03*
X05141Y07425D03*
Y07661D03*
Y08055D03*
X05299Y0585D03*
Y05929D03*
Y06007D03*
Y06165D03*
X05378Y06086D03*
X05456Y0585D03*
Y06086D03*
X05535D03*
X05614Y0585D03*
Y06086D03*
X05692Y0585D03*
Y06086D03*
Y06165D03*
X0585Y06637D03*
Y06716D03*
Y06952D03*
Y07031D03*
X05929Y06637D03*
Y06716D03*
Y06795D03*
Y06874D03*
Y06952D03*
Y07031D03*
X06007Y06637D03*
Y06716D03*
Y06952D03*
Y07031D03*
X06086Y06637D03*
Y06716D03*
Y06952D03*
Y07031D03*
X0585Y05771D03*
Y0585D03*
Y06086D03*
Y06165D03*
X05929Y05771D03*
Y0585D03*
Y05929D03*
Y06007D03*
Y06086D03*
Y06165D03*
X06007Y05771D03*
Y0585D03*
Y06086D03*
Y06165D03*
X06086Y05771D03*
Y0585D03*
Y06086D03*
Y06165D03*
X04511Y04905D03*
Y04984D03*
X0459Y04826D03*
Y04905D03*
Y05063D03*
X04669Y04905D03*
Y04984D03*
X04748Y04748D03*
Y04826D03*
Y04905D03*
Y04984D03*
X04826Y04748D03*
Y04826D03*
Y04984D03*
Y05063D03*
X04984Y04748D03*
X0396Y02444D03*
Y02503D03*
Y02563D03*
X04019Y02444D03*
Y02503D03*
Y02563D03*
X04078Y02326D03*
Y02444D03*
Y02503D03*
Y02563D03*
X04137Y02326D03*
Y02385D03*
Y02444D03*
Y02503D03*
Y02563D03*
X04196Y02326D03*
Y02385D03*
Y02444D03*
Y02503D03*
Y02563D03*
X04255Y02267D03*
Y02326D03*
Y02385D03*
Y02444D03*
Y02503D03*
Y02563D03*
X04315Y02208D03*
Y02267D03*
Y02326D03*
Y02385D03*
Y02444D03*
Y02503D03*
Y02563D03*
X04374Y02208D03*
Y02267D03*
Y02444D03*
Y02503D03*
Y02563D03*
X04196Y06007D03*
Y06086D03*
Y06165D03*
X04354Y06086D03*
X04433D03*
X04354Y06165D03*
X04275Y06244D03*
X04433D03*
X04275Y06322D03*
X04511Y06401D03*
X04196Y06244D03*
Y06322D03*
X04275Y06007D03*
Y06086D03*
Y06165D03*
X04354Y06007D03*
Y06244D03*
X04433Y06007D03*
Y06165D03*
X04511D03*
Y06244D03*
Y06322D03*
X00968Y0459D03*
Y04669D03*
Y04905D03*
Y04984D03*
Y05063D03*
X01047Y0459D03*
Y04905D03*
Y04984D03*
Y05063D03*
X01126Y0459D03*
Y04669D03*
Y04748D03*
Y04826D03*
Y04905D03*
Y04984D03*
Y05063D03*
X01204Y0459D03*
Y04669D03*
Y04748D03*
Y04826D03*
Y04905D03*
Y04984D03*
Y05063D03*
X01283Y0459D03*
Y04669D03*
Y04748D03*
Y04826D03*
Y04905D03*
Y04984D03*
Y05063D03*
G54D105*
X01742Y02795D03*
X00167Y00787D03*
X00177Y00629D03*
X04655Y02805D03*
X04852D03*
X05712Y00702D03*
X05807Y00895D03*
X06023Y00984D03*
X0558Y01279D03*
X0561Y01801D03*
X05679Y01279D03*
X05329Y01269D03*
X05295Y01437D03*
X05561Y01427D03*
X05728Y0057D03*
X05511Y00649D03*
X05334Y00974D03*
X0557D03*
X056Y00895D03*
X05472Y00826D03*
X05629Y00708D03*
X04419Y02844D03*
X04616Y02746D03*
X04911Y01948D03*
X0497Y0187D03*
X04862Y02716D03*
X04761Y02687D03*
X0496Y02854D03*
X01446Y02805D03*
X01663Y02795D03*
X0123D03*
X00492Y01702D03*
Y01318D03*
X0058Y01437D03*
X0057Y01653D03*
X05679Y01702D03*
X05511Y01954D03*
X05246Y0187D03*
X00698Y01919D03*
X00964Y0184D03*
X00669Y01437D03*
X00935D03*
X01328Y01919D03*
Y02637D03*
X01417Y01919D03*
X01456Y02647D03*
X00433Y00787D03*
Y00649D03*
X00502Y00944D03*
X00563Y00893D03*
X006Y01033D03*
X00876D03*
X00743Y00831D03*
M02*