%FSTAX23Y23*%
%MOIN*%
%SFA1B1*%

%IPPOS*%
%AMD72*
4,1,8,-0.049200,0.059100,-0.049200,-0.059100,-0.039400,-0.068900,0.039400,-0.068900,0.049200,-0.059100,0.049200,0.059100,0.039400,0.068900,-0.039400,0.068900,-0.049200,0.059100,0.0*
1,1,0.019600,-0.039400,0.059100*
1,1,0.019600,-0.039400,-0.059100*
1,1,0.019600,0.039400,-0.059100*
1,1,0.019600,0.039400,0.059100*
%
G04~CAMADD=72~8~0.0~0.0~1378.0~984.0~98.0~0.0~15~0.0~0.0~0.0~0.0~0~0.0~0.0~0.0~0.0~0~0.0~0.0~0.0~90.0~984.0~1378.0*
%ADD72D72*%
%ADD78R,0.053300X0.118200*%
%ADD79R,0.051300X0.047400*%
%ADD80R,0.047400X0.051300*%
%ADD89C,0.103000*%
%ADD90C,0.088000*%
%ADD91C,0.208800*%
%ADD92C,0.145800*%
%ADD93R,0.145800X0.145800*%
%ADD94C,0.098600*%
%ADD95R,0.098600X0.098600*%
%ADD96R,0.057900X0.057900*%
%ADD97C,0.057900*%
%ADD98C,0.106400*%
%ADD99R,0.106400X0.106400*%
%ADD100R,0.061500X0.061500*%
%ADD101C,0.061500*%
%ADD103C,0.091000*%
%ADD104C,0.043400*%
%ADD105C,0.055200*%
%ADD106R,0.139100X0.056400*%
%ADD107R,0.056400X0.139100*%
%ADD108R,0.039500X0.049300*%
%ADD109R,0.049300X0.220600*%
%ADD110R,0.220600X0.049300*%
%ADD111R,0.145800X0.049300*%
%ADD112R,0.102500X0.067100*%
%ADD113R,0.067100X0.102500*%
%ADD114R,0.065100X0.082800*%
%ADD115R,0.082800X0.065100*%
%ADD116R,0.104500X0.132000*%
%ADD117R,0.132000X0.104500*%
%LNr100.230.010.000-00_invertor-1*%
%LPD*%
G54D72*
X01545Y02116D03*
Y02273D03*
Y02431D03*
X0119Y02273D03*
Y02431D03*
X01072D03*
Y02273D03*
X01427Y02431D03*
Y02273D03*
X01309D03*
Y02431D03*
Y02116D03*
X01427D03*
X01072D03*
X0119D03*
X00718Y02431D03*
X006D03*
Y02273D03*
X00954Y02431D03*
Y02273D03*
X00836D03*
Y02431D03*
Y02116D03*
X00954D03*
X006D03*
X00718D03*
X00246D03*
X00128D03*
X00482D03*
X00364D03*
X00246Y02746D03*
Y02903D03*
X00128D03*
Y02746D03*
Y03061D03*
X00246D03*
X00482Y02903D03*
Y02746D03*
Y03061D03*
X00364Y02746D03*
Y02903D03*
Y03061D03*
Y02588D03*
Y02431D03*
Y02273D03*
X00482Y02588D03*
Y02273D03*
Y02431D03*
X00246Y02588D03*
X00128D03*
Y02273D03*
Y02431D03*
X00246D03*
Y02273D03*
Y03218D03*
Y03376D03*
X00128D03*
Y03218D03*
Y03533D03*
X00246D03*
X00482Y03376D03*
Y03218D03*
Y03533D03*
X00364Y03218D03*
Y03376D03*
Y03533D03*
Y04005D03*
Y03848D03*
Y0369D03*
X00482Y04005D03*
Y0369D03*
Y03848D03*
X00246Y04005D03*
X00128D03*
Y0369D03*
Y03848D03*
X00246D03*
Y0369D03*
X00206Y04163D03*
Y0432D03*
Y04478D03*
X00561Y04163D03*
Y0432D03*
X00442D03*
Y04163D03*
Y04478D03*
X00561D03*
X00324Y04163D03*
Y0432D03*
Y04478D03*
X00915Y04163D03*
Y0432D03*
X00797D03*
Y04163D03*
Y04478D03*
X00915D03*
X00679Y04163D03*
Y0432D03*
Y04478D03*
X01033D03*
Y0432D03*
Y04163D03*
X01269Y04478D03*
X01151D03*
Y04163D03*
Y0432D03*
X01269D03*
Y04163D03*
X01505Y04252D03*
Y04409D03*
X01387D03*
Y04252D03*
Y04566D03*
Y04724D03*
Y04881D03*
Y05039D03*
X01505D03*
Y04881D03*
Y04724D03*
Y04566D03*
X00964Y05196D03*
Y05354D03*
Y05511D03*
Y05669D03*
X01082Y05196D03*
Y05354D03*
Y05511D03*
Y05669D03*
X012Y05196D03*
Y05354D03*
Y05511D03*
Y05669D03*
X01318Y05196D03*
Y05354D03*
Y05511D03*
Y05669D03*
X01437Y05196D03*
Y05354D03*
Y05511D03*
Y05669D03*
X01555Y05196D03*
Y05354D03*
Y05511D03*
Y05669D03*
X01673Y05196D03*
Y05354D03*
Y05511D03*
Y05669D03*
X01791Y05196D03*
Y05354D03*
Y05511D03*
Y05669D03*
X01909Y05196D03*
Y05354D03*
Y05511D03*
Y05669D03*
X02027Y05196D03*
Y05354D03*
Y05511D03*
Y05669D03*
Y05826D03*
Y05984D03*
Y06141D03*
Y06299D03*
X01515Y06614D03*
X00925Y06771D03*
Y06929D03*
Y07086D03*
X01043Y06771D03*
Y06929D03*
Y07086D03*
X01161D03*
Y06929D03*
Y06771D03*
X01279D03*
Y06929D03*
Y07086D03*
X01515D03*
Y07716D03*
Y07559D03*
Y07401D03*
Y07244D03*
Y06929D03*
Y06771D03*
X01397D03*
Y06929D03*
Y07244D03*
Y07401D03*
Y07559D03*
Y07716D03*
Y07086D03*
X01752D03*
Y07716D03*
Y07559D03*
Y07401D03*
Y07244D03*
Y06929D03*
Y06771D03*
Y06614D03*
Y06456D03*
X01633D03*
Y06614D03*
Y06771D03*
Y06929D03*
Y07244D03*
Y07401D03*
Y07559D03*
Y07716D03*
Y07086D03*
X0187D03*
Y07716D03*
Y07559D03*
Y07401D03*
Y07244D03*
Y06929D03*
Y06771D03*
Y06614D03*
Y06456D03*
X01988D03*
Y06614D03*
Y06771D03*
Y06929D03*
Y07244D03*
Y07401D03*
Y07559D03*
Y07716D03*
Y07086D03*
X02352D03*
Y06929D03*
Y06771D03*
Y06614D03*
X0247D03*
Y06771D03*
Y06929D03*
Y07086D03*
X02588Y06614D03*
Y06771D03*
Y06929D03*
Y07086D03*
X02706Y06614D03*
Y06771D03*
Y06929D03*
Y07086D03*
X02824Y06771D03*
Y06929D03*
Y07086D03*
Y06614D03*
X02234D03*
Y06771D03*
Y06929D03*
Y07086D03*
X02116D03*
Y06929D03*
Y06771D03*
Y06614D03*
X03179Y07086D03*
Y06929D03*
Y06771D03*
Y06614D03*
X03297D03*
Y06771D03*
Y06929D03*
Y07086D03*
X03415Y06614D03*
Y06771D03*
Y06929D03*
Y07086D03*
X03533Y06614D03*
Y06771D03*
Y06929D03*
Y07086D03*
X03651Y06771D03*
Y06929D03*
Y07086D03*
Y06614D03*
X03061D03*
Y06771D03*
Y06929D03*
Y07086D03*
X02942D03*
Y06929D03*
Y06771D03*
Y06614D03*
X03769D03*
Y06771D03*
Y06929D03*
Y07086D03*
X03887D03*
Y06929D03*
Y06771D03*
Y06614D03*
X03986Y06299D03*
X04478Y07401D03*
Y07244D03*
Y06614D03*
X04596Y08031D03*
Y07716D03*
Y07874D03*
Y07559D03*
X04478D03*
Y07874D03*
Y07716D03*
Y07086D03*
Y06929D03*
Y06771D03*
X0436Y08031D03*
Y07874D03*
Y07716D03*
Y07559D03*
Y07401D03*
Y07244D03*
Y07086D03*
Y06929D03*
Y06771D03*
Y06614D03*
X04242Y08031D03*
Y07874D03*
Y07716D03*
Y07559D03*
Y07401D03*
Y07244D03*
Y07086D03*
Y06929D03*
Y06771D03*
Y06614D03*
X04222Y06456D03*
X04124Y08031D03*
Y07874D03*
Y07716D03*
Y07559D03*
Y07401D03*
Y07244D03*
Y07086D03*
Y06929D03*
Y06771D03*
Y06614D03*
X04104Y06456D03*
X03986D03*
X04005Y06614D03*
Y06771D03*
Y06929D03*
Y07086D03*
Y07244D03*
Y07401D03*
Y07559D03*
Y07716D03*
Y07874D03*
Y08031D03*
X04478D03*
X01663Y02431D03*
Y02273D03*
Y02116D03*
Y01958D03*
Y01801D03*
Y01643D03*
X01781D03*
Y01801D03*
Y01958D03*
Y02116D03*
Y02273D03*
Y02431D03*
X02657Y0308D03*
X02775D03*
X02893D03*
Y02923D03*
X02775D03*
X02657D03*
X02893Y02765D03*
X02775D03*
X02657D03*
X03149D03*
X03267D03*
X03149Y02923D03*
X03267D03*
X03385Y0308D03*
X03267D03*
X03149D03*
X03385Y02923D03*
X03503D03*
Y0308D03*
X02657Y01673D03*
X02775D03*
X02893D03*
X02657Y0183D03*
X02775D03*
X02893D03*
Y01988D03*
X02775D03*
X02657D03*
Y012D03*
X02775D03*
X02893D03*
X02657Y01358D03*
X02775D03*
X02893D03*
Y01515D03*
X02775D03*
X02657D03*
Y00728D03*
X02775D03*
X02893D03*
X02657Y00885D03*
X02775D03*
X02893D03*
Y01043D03*
X02775D03*
X02657D03*
X02303Y00413D03*
X02421D03*
X02539D03*
X02657D03*
X02775D03*
X02893D03*
Y0057D03*
X02775D03*
X02657D03*
X0183Y00413D03*
X02185D03*
X02066D03*
X01948D03*
X03828Y01752D03*
X0371D03*
X03592D03*
X03474D03*
X03356D03*
X03238D03*
X0312D03*
Y01594D03*
X03238D03*
X03356D03*
X03474D03*
X0312Y01437D03*
X03238D03*
X03356D03*
X03474D03*
X0312Y01279D03*
X03238D03*
X03356D03*
X03474D03*
X0312Y01122D03*
X03238D03*
X03356D03*
X03474D03*
X0312Y00964D03*
X03238D03*
X03356D03*
X03474D03*
X0312Y00807D03*
X03238D03*
X03356D03*
X03474D03*
X0312Y00649D03*
X03238D03*
X03356D03*
X03474D03*
X0312Y00492D03*
X03238D03*
X03356D03*
X03474D03*
X03592Y00423D03*
X0371D03*
X03828D03*
X03946D03*
X04065D03*
X04183D03*
X04301D03*
X04419D03*
X03159Y0372D03*
X03277D03*
Y03887D03*
X03159D03*
X03238Y04045D03*
X0312D03*
X03356D03*
Y04212D03*
X03474D03*
X0312D03*
X03238D03*
X04104Y06299D03*
Y05984D03*
X03986Y06141D03*
X04104D03*
X03986Y05984D03*
X04104Y05669D03*
X03986D03*
X04104Y05826D03*
X03986D03*
X04222Y05728D03*
X0434D03*
X04222Y0557D03*
X0434D03*
X04222Y05885D03*
X0434D03*
X04458Y05728D03*
X04576D03*
X04458Y0557D03*
X04576D03*
X04458Y05885D03*
X04576D03*
Y06043D03*
X04694D03*
Y05885D03*
Y0557D03*
Y05728D03*
X04813Y06043D03*
Y05885D03*
Y0557D03*
Y05728D03*
X04931Y06043D03*
Y05885D03*
Y0557D03*
Y05728D03*
X05049Y06043D03*
Y05885D03*
Y0557D03*
Y05728D03*
X05167Y06043D03*
Y05885D03*
Y0557D03*
Y05728D03*
X05285D03*
Y0557D03*
X05403Y05728D03*
Y0557D03*
X05521Y05728D03*
Y0557D03*
X05639Y05728D03*
Y0557D03*
X05029Y05403D03*
X04911D03*
X04793D03*
X04675D03*
X04557D03*
Y05246D03*
X04675D03*
X04793D03*
X04911D03*
X05029D03*
X04537Y04586D03*
X04655D03*
X04773D03*
X04891D03*
X05009D03*
X05128D03*
X05246D03*
X05364D03*
X05482D03*
X056D03*
X05718D03*
X05836D03*
X05954D03*
X06072D03*
Y04429D03*
X05954D03*
X05836D03*
X05718D03*
X056D03*
X05482D03*
X05364D03*
X05246D03*
X05128D03*
X05009D03*
X04891D03*
X04773D03*
X04655D03*
X04537D03*
X06072Y04271D03*
X05954D03*
X05836D03*
X05718D03*
X056D03*
X05482D03*
X05364D03*
X05246D03*
X05128D03*
X05009D03*
X04891D03*
X04773D03*
X04655D03*
X05718Y04114D03*
X05836D03*
X05954D03*
X06072D03*
X05718Y03956D03*
X05836D03*
X05954D03*
X06072D03*
X05718Y03799D03*
X05836D03*
X05954D03*
X06072D03*
Y02854D03*
X05954D03*
X05836D03*
X05718D03*
X06072Y03011D03*
X05954D03*
X05836D03*
X05718D03*
X06072Y03169D03*
X05954D03*
X05836D03*
X05718D03*
Y03326D03*
X05836D03*
X05954D03*
X06072D03*
X05718Y03484D03*
X05836D03*
X05954D03*
X06072D03*
Y03641D03*
X05954D03*
X05836D03*
X05718D03*
Y02696D03*
X05836D03*
X05954D03*
X06072D03*
X05718Y02539D03*
X05836D03*
X05954D03*
X06072D03*
X05718Y02381D03*
X05836D03*
X05954D03*
X06072D03*
Y02224D03*
X05954D03*
X05836D03*
X05718D03*
X056Y02421D03*
X05482D03*
X05364D03*
X05246D03*
X056Y02106D03*
X05482D03*
X05364D03*
X05246D03*
Y02263D03*
X05128D03*
X05009D03*
X04891D03*
X05128Y02106D03*
Y02421D03*
X05009Y02106D03*
Y02421D03*
X04891Y02106D03*
Y02421D03*
X04655D03*
X04773D03*
Y02106D03*
X04655Y02263D03*
X04773D03*
X04537D03*
Y02421D03*
G54D78*
X04479Y02785D03*
X04615D03*
X01652Y02716D03*
X01516D03*
G54D79*
X00354Y01507D03*
Y01444D03*
X05718Y01517D03*
Y01454D03*
G54D80*
X00726Y01279D03*
X00789D03*
X01448Y02726D03*
X01385D03*
X00716Y01033D03*
X00779D03*
X00336Y00629D03*
X00273D03*
X05421Y01269D03*
X05484D03*
X04702Y02805D03*
X04765D03*
X05421Y00954D03*
X05484D03*
X05815Y00649D03*
X05878D03*
G54D89*
X04613Y00708D03*
X04813D03*
X02844Y06338D03*
Y06138D03*
X01365Y00669D03*
X01565D03*
X05954Y05354D03*
Y05554D03*
G54D90*
X00708Y02303D03*
Y03779D03*
X05472Y02204D03*
Y03681D03*
G54D91*
X02423Y05133D03*
Y0301D03*
X03793Y03014D03*
Y05137D03*
X02423Y02814D03*
Y0069D03*
X03793Y00694D03*
Y02817D03*
G54D92*
X01023Y04763D03*
Y07263D03*
X0495Y0499D03*
X04409Y06358D03*
X05078Y07755D03*
X01673Y06023D03*
G54D93*
X00629Y04763D03*
Y07263D03*
X05344Y0499D03*
X04803Y06358D03*
X05472Y07755D03*
X01279Y06023D03*
G54D94*
X04009Y02359D03*
Y02144D03*
X02202Y0193D03*
Y02144D03*
Y03465D03*
Y0368D03*
X04009Y03894D03*
Y0368D03*
G54D95*
X04009Y0193D03*
X02202Y02359D03*
Y03894D03*
X04009Y03465D03*
G54D96*
X05492Y00433D03*
X00669D03*
G54D97*
X0557Y00433D03*
X05649D03*
X05728D03*
X05807D03*
X05886D03*
X0059D03*
X00511D03*
X00433D03*
X00354D03*
X00275D03*
G54D98*
X06043Y05984D03*
X05846D03*
X05649D03*
X05452Y0685D03*
X05649D03*
X05846D03*
G54D99*
X05452Y05984D03*
X06043Y0685D03*
G54D100*
X00236Y00965D03*
X05807Y00984D03*
G54D101*
X00236Y01065D03*
Y01365D03*
Y01465D03*
Y01565D03*
X05807Y01084D03*
Y01384D03*
Y01484D03*
Y01584D03*
G54D103*
X0373Y07422D03*
Y07578D03*
Y07734D03*
G54D104*
X01283Y05063D03*
Y04984D03*
Y04905D03*
Y04826D03*
Y04748D03*
Y04669D03*
Y0459D03*
X01204Y05063D03*
Y04984D03*
Y04905D03*
Y04826D03*
Y04748D03*
Y04669D03*
Y0459D03*
X01126Y05063D03*
Y04984D03*
Y04905D03*
Y04826D03*
Y04748D03*
Y04669D03*
Y0459D03*
X01047Y05063D03*
Y04984D03*
Y04905D03*
Y0459D03*
X00968Y05063D03*
Y04984D03*
Y04905D03*
Y04669D03*
Y0459D03*
X04511Y06322D03*
Y06244D03*
Y06165D03*
X04433D03*
Y06007D03*
X04354Y06244D03*
Y06007D03*
X04275Y06165D03*
Y06086D03*
Y06007D03*
X04196Y06322D03*
Y06244D03*
X04511Y06401D03*
X04275Y06322D03*
X04433Y06244D03*
X04275D03*
X04354Y06165D03*
X04433Y06086D03*
X04354D03*
X04196Y06165D03*
Y06086D03*
Y06007D03*
X04374Y02563D03*
Y02503D03*
Y02444D03*
Y02267D03*
Y02208D03*
X04315Y02563D03*
Y02503D03*
Y02444D03*
Y02385D03*
Y02326D03*
Y02267D03*
Y02208D03*
X04255Y02563D03*
Y02503D03*
Y02444D03*
Y02385D03*
Y02326D03*
Y02267D03*
X04196Y02563D03*
Y02503D03*
Y02444D03*
Y02385D03*
Y02326D03*
X04137Y02563D03*
Y02503D03*
Y02444D03*
Y02385D03*
Y02326D03*
X04078Y02563D03*
Y02503D03*
Y02444D03*
Y02326D03*
X04019Y02563D03*
Y02503D03*
Y02444D03*
X0396Y02563D03*
Y02503D03*
Y02444D03*
X04984Y04748D03*
X04826Y05063D03*
Y04984D03*
Y04826D03*
Y04748D03*
X04748Y04984D03*
Y04905D03*
Y04826D03*
Y04748D03*
X04669Y04984D03*
Y04905D03*
X0459Y05063D03*
Y04905D03*
Y04826D03*
X04511Y04984D03*
Y04905D03*
X06086Y06165D03*
Y06086D03*
Y0585D03*
Y05771D03*
X06007Y06165D03*
Y06086D03*
Y0585D03*
Y05771D03*
X05929Y06165D03*
Y06086D03*
Y06007D03*
Y05929D03*
Y0585D03*
Y05771D03*
X0585Y06165D03*
Y06086D03*
Y0585D03*
Y05771D03*
X06086Y07031D03*
Y06952D03*
Y06716D03*
Y06637D03*
X06007Y07031D03*
Y06952D03*
Y06716D03*
Y06637D03*
X05929Y07031D03*
Y06952D03*
Y06874D03*
Y06795D03*
Y06716D03*
Y06637D03*
X0585Y07031D03*
Y06952D03*
Y06716D03*
Y06637D03*
X05692Y06165D03*
Y06086D03*
Y0585D03*
X05614Y06086D03*
Y0585D03*
X05535Y06086D03*
X05456D03*
Y0585D03*
X05378Y06086D03*
X05299Y06165D03*
Y06007D03*
Y05929D03*
Y0585D03*
X05141Y08055D03*
Y07661D03*
Y07425D03*
X05063Y08055D03*
Y07897D03*
Y07582D03*
Y07503D03*
X04984Y08055D03*
Y07661D03*
Y07425D03*
X04905Y07976D03*
Y07818D03*
Y07661D03*
Y07582D03*
X04826D03*
X04748Y07976D03*
Y0774D03*
Y07661D03*
Y07425D03*
X05692Y0522D03*
Y05063D03*
Y04984D03*
X05614Y05141D03*
Y05063D03*
X05535Y05299D03*
Y04905D03*
X05456Y0522D03*
Y04984D03*
Y04905D03*
X05378Y05299D03*
X05299D03*
Y0522D03*
Y05141D03*
Y06637D03*
X05063Y06559D03*
Y0648D03*
Y06401D03*
X04984Y0648D03*
Y06401D03*
X04905Y06637D03*
Y06559D03*
Y06322D03*
X04748Y06637D03*
Y06559D03*
X05692Y07031D03*
Y06952D03*
Y06716D03*
Y06637D03*
X05614Y07031D03*
Y06716D03*
X05535Y0711D03*
Y06952D03*
Y06874D03*
Y06716D03*
X05456Y06952D03*
Y06716D03*
X05378Y0711D03*
Y07031D03*
Y06795D03*
Y06716D03*
Y06637D03*
X05299Y0711D03*
Y07031D03*
Y06874D03*
Y06795D03*
Y06716D03*
X0585Y07897D03*
Y07818D03*
Y0774D03*
Y07661D03*
Y07503D03*
X05771Y07818D03*
Y07661D03*
X05692Y0774D03*
Y07582D03*
X05614Y0774D03*
Y07661D03*
Y07582D03*
Y07503D03*
X05456Y07897D03*
X05378D03*
Y07661D03*
Y07582D03*
Y07503D03*
X00866Y01279D03*
X00649Y01309D03*
X01545Y02923D03*
X01485Y02924D03*
X02897Y03448D03*
Y03389D03*
Y0333D03*
Y03271D03*
Y03212D03*
X02838Y03448D03*
Y03389D03*
Y0333D03*
Y03271D03*
Y03212D03*
X02779Y03448D03*
Y03389D03*
Y0333D03*
Y03271D03*
Y03212D03*
X0272Y03448D03*
Y03389D03*
Y0333D03*
Y03271D03*
Y03212D03*
X02661Y03448D03*
Y03389D03*
Y0333D03*
Y03271D03*
Y03212D03*
X02602Y03389D03*
Y0333D03*
Y03271D03*
X02543Y0333D03*
Y03271D03*
X02484Y03507D03*
Y03389D03*
Y0333D03*
Y03271D03*
X02425Y03507D03*
Y03389D03*
Y0333D03*
Y03271D03*
X02366Y03448D03*
Y03389D03*
Y0333D03*
Y03271D03*
X02307Y03448D03*
Y03389D03*
Y0333D03*
Y03271D03*
X02248Y03389D03*
Y0333D03*
Y03271D03*
X02189Y03389D03*
Y0333D03*
Y03271D03*
X02129Y03448D03*
Y0333D03*
Y03271D03*
X02248Y03744D03*
X02129D03*
Y03685D03*
X0207Y03744D03*
Y03685D03*
X02011Y03744D03*
Y03685D03*
X01952Y03744D03*
Y03685D03*
Y03626D03*
X01893Y03744D03*
Y03685D03*
Y03626D03*
X01834Y03744D03*
Y03685D03*
Y03626D03*
X01775Y03744D03*
Y03685D03*
Y03626D03*
X05029Y02588D03*
X0497D03*
X04498D03*
X04547Y02628D03*
X04744Y02952D03*
X05456Y0396D03*
X05378D03*
Y03881D03*
X05299Y0396D03*
Y03645D03*
X0522Y03881D03*
Y03724D03*
Y03645D03*
X05141Y0396D03*
Y03881D03*
Y03803D03*
X04984Y03881D03*
Y03724D03*
Y03645D03*
X04905Y03881D03*
Y03724D03*
Y03645D03*
X04826Y0396D03*
Y03881D03*
Y03803D03*
X04748Y03881D03*
X04669Y03724D03*
X01519Y03881D03*
Y03803D03*
Y03724D03*
Y03645D03*
X0144Y0396D03*
Y03803D03*
Y03645D03*
X01362Y0396D03*
Y03803D03*
Y03724D03*
Y03645D03*
X01283Y0396D03*
Y03881D03*
Y03724D03*
Y03645D03*
X01204Y03803D03*
Y03724D03*
Y03645D03*
X01126Y0396D03*
Y03803D03*
Y03645D03*
X01047Y0396D03*
Y03803D03*
Y03645D03*
X00968Y03881D03*
Y03724D03*
X00889Y0396D03*
Y03881D03*
Y03803D03*
Y03724D03*
Y03645D03*
X00811Y0396D03*
Y03881D03*
Y03803D03*
X00732Y03881D03*
Y03645D03*
X00653D03*
X02129Y02149D03*
Y02208D03*
X02248D03*
X02307Y02149D03*
Y02208D03*
X02366Y02149D03*
Y02208D03*
Y02267D03*
Y02326D03*
Y02385D03*
Y02444D03*
Y02503D03*
X02425Y02208D03*
Y02267D03*
Y02326D03*
Y02385D03*
Y02444D03*
Y02503D03*
Y02563D03*
X02484Y02208D03*
Y02267D03*
Y02326D03*
Y02385D03*
Y02444D03*
Y02503D03*
Y02563D03*
X02543Y02149D03*
Y02208D03*
Y02267D03*
Y02326D03*
Y02385D03*
Y02444D03*
Y02503D03*
Y02563D03*
X02602Y0209D03*
Y02149D03*
Y02208D03*
Y02267D03*
Y02326D03*
Y02385D03*
Y02444D03*
Y02503D03*
Y02563D03*
X02661Y0209D03*
Y02149D03*
Y02208D03*
Y02267D03*
Y02326D03*
Y02385D03*
Y02444D03*
Y02503D03*
Y02563D03*
Y02622D03*
X0272Y0209D03*
Y02149D03*
Y02208D03*
Y02267D03*
Y02326D03*
Y02385D03*
Y02444D03*
Y02503D03*
Y02563D03*
Y02622D03*
X02779Y0209D03*
Y02149D03*
Y02208D03*
Y02267D03*
Y02326D03*
Y02385D03*
Y02444D03*
Y02503D03*
Y02563D03*
Y02622D03*
X02838Y0209D03*
Y02149D03*
Y02208D03*
Y02267D03*
Y02326D03*
Y02385D03*
Y02444D03*
Y02503D03*
Y02563D03*
Y02622D03*
X02897Y0209D03*
Y02149D03*
Y02208D03*
Y02267D03*
Y02326D03*
Y02385D03*
Y02444D03*
Y02503D03*
Y02563D03*
Y02622D03*
X01244Y00407D03*
Y00486D03*
Y00565D03*
Y00643D03*
Y00722D03*
Y00801D03*
Y00879D03*
Y00958D03*
Y01037D03*
Y01116D03*
Y01194D03*
Y01273D03*
Y01352D03*
X01322Y00328D03*
Y00407D03*
Y00486D03*
Y00565D03*
Y00801D03*
Y00879D03*
Y00958D03*
Y01037D03*
Y01116D03*
Y01194D03*
Y01273D03*
Y01352D03*
X01401Y00328D03*
Y00486D03*
Y00565D03*
Y00801D03*
Y00879D03*
Y00958D03*
Y01037D03*
Y01116D03*
Y01194D03*
Y01273D03*
Y01352D03*
X0148Y00328D03*
Y00486D03*
Y00565D03*
Y00801D03*
Y00879D03*
Y00958D03*
Y01037D03*
Y01116D03*
Y01194D03*
Y01273D03*
Y01352D03*
X01559Y00328D03*
Y00407D03*
Y00486D03*
Y00565D03*
Y00801D03*
Y00879D03*
Y00958D03*
Y01037D03*
Y01116D03*
Y01194D03*
Y01273D03*
Y01352D03*
X01637Y00328D03*
Y00407D03*
Y00486D03*
Y00565D03*
Y00643D03*
Y00722D03*
Y00801D03*
Y00879D03*
Y00958D03*
Y01037D03*
Y01116D03*
Y01194D03*
Y01273D03*
Y01352D03*
X01716Y00328D03*
Y00407D03*
Y00486D03*
X03606Y04098D03*
Y04157D03*
Y04216D03*
Y04275D03*
X03665Y04157D03*
Y04275D03*
X03724Y04098D03*
Y04216D03*
Y04275D03*
X03783Y04157D03*
Y04275D03*
X03842Y03921D03*
Y04039D03*
Y04098D03*
Y04157D03*
X03901Y04216D03*
X0396Y04098D03*
X04019Y0398D03*
Y04039D03*
Y04098D03*
X04078Y03862D03*
Y0398D03*
X03133Y0333D03*
Y03389D03*
X03192Y03271D03*
Y03507D03*
Y03566D03*
Y03626D03*
X03252Y03566D03*
X03311Y03212D03*
Y03389D03*
Y03448D03*
Y03507D03*
Y03566D03*
Y03626D03*
X0337Y03271D03*
Y03389D03*
Y03448D03*
Y03507D03*
Y03566D03*
X03429Y03271D03*
X03547D03*
X03133Y01854D03*
Y02031D03*
Y02149D03*
Y02208D03*
Y02267D03*
X03192Y02031D03*
Y02208D03*
Y02267D03*
X03252Y01972D03*
Y02267D03*
Y02444D03*
Y02563D03*
X03311Y01972D03*
Y02031D03*
Y02149D03*
Y02267D03*
Y02326D03*
Y02385D03*
Y02444D03*
Y02503D03*
Y02622D03*
X0337Y01854D03*
Y0209D03*
Y02149D03*
Y02208D03*
Y02267D03*
Y02326D03*
Y02385D03*
Y02503D03*
Y02563D03*
Y02622D03*
X03429Y01913D03*
Y01972D03*
Y02031D03*
Y0209D03*
X03488Y01854D03*
Y0209D03*
X03547Y01854D03*
Y0209D03*
X03606Y01854D03*
Y01913D03*
Y02031D03*
X03665Y01913D03*
Y01972D03*
Y02031D03*
Y0209D03*
X03724Y01854D03*
Y01913D03*
Y01972D03*
X03783D03*
X03842Y01854D03*
X03901Y0209D03*
Y02149D03*
X04078Y0209D03*
X04137Y02149D03*
X0396Y04157D03*
X03901Y04098D03*
Y04157D03*
X04078Y04039D03*
X0396D03*
X03901Y0398D03*
Y04039D03*
X03842Y04275D03*
Y04216D03*
X03783D03*
Y04039D03*
Y04098D03*
X0396Y0398D03*
X03901Y03921D03*
X04137Y0209D03*
X04078Y02149D03*
X03842Y0398D03*
X03901Y03862D03*
X03842Y0209D03*
X03783Y02031D03*
X03842Y01972D03*
Y02031D03*
Y01913D03*
X03783D03*
X03724Y04157D03*
X03665Y04216D03*
X03724Y04039D03*
X03665Y04098D03*
Y04039D03*
X03606Y0398D03*
Y04039D03*
X03488Y03271D03*
X03724Y02031D03*
X03606Y0209D03*
Y01972D03*
X03547Y03212D03*
Y02031D03*
X03488Y03212D03*
X03547Y01972D03*
X03488Y02031D03*
X03547Y01913D03*
X03488Y01972D03*
Y01913D03*
X03783Y01854D03*
X03665D03*
X0337Y03626D03*
X03252Y03507D03*
X0337Y03212D03*
X03429D03*
X0337Y0333D03*
X03311Y03271D03*
Y0333D03*
Y02563D03*
X03252Y03448D03*
Y03626D03*
X03192Y03448D03*
X03133Y03566D03*
Y03626D03*
Y03448D03*
Y03507D03*
X03252Y03389D03*
Y03271D03*
Y0333D03*
X03192D03*
Y03212D03*
X03252D03*
Y02622D03*
Y02503D03*
X03192D03*
Y03389D03*
X03133Y03271D03*
Y03212D03*
X03192Y02622D03*
Y02563D03*
X03133Y02622D03*
Y02563D03*
Y02503D03*
X0337Y02444D03*
X03429Y02149D03*
X0337Y01972D03*
Y02031D03*
X03252Y02385D03*
X03311Y02208D03*
Y0209D03*
X03252Y02149D03*
X03429Y01854D03*
X0337Y01913D03*
X03311Y01854D03*
Y01913D03*
X03252Y02326D03*
X03192Y02444D03*
Y02326D03*
Y02385D03*
X03252Y0209D03*
Y02208D03*
Y01913D03*
Y02031D03*
X03192Y02149D03*
Y0209D03*
X03133Y02385D03*
Y02444D03*
Y02326D03*
X03192Y01913D03*
Y01972D03*
X03133Y0209D03*
Y01972D03*
X03252Y01854D03*
X03192D03*
X03133Y01913D03*
X01893Y01736D03*
Y01795D03*
Y01854D03*
Y01913D03*
Y01972D03*
Y02031D03*
Y0209D03*
X01952Y01736D03*
Y01795D03*
Y01854D03*
Y01913D03*
Y01972D03*
Y02031D03*
Y0209D03*
X02011Y01736D03*
Y01795D03*
Y01854D03*
Y01913D03*
Y01972D03*
X0207Y01736D03*
Y01795D03*
Y01854D03*
Y01913D03*
Y01972D03*
X02129Y01736D03*
Y01795D03*
Y01854D03*
Y01913D03*
Y01972D03*
X02189Y01736D03*
Y01795D03*
Y01854D03*
X04511Y00338D03*
Y00417D03*
Y00496D03*
Y00574D03*
Y00653D03*
Y00732D03*
Y00811D03*
Y00889D03*
Y00968D03*
Y01047D03*
Y01126D03*
X0459Y00338D03*
Y00417D03*
Y00496D03*
Y00574D03*
Y00811D03*
Y00889D03*
Y00968D03*
Y01047D03*
Y01126D03*
X04669Y00338D03*
Y00417D03*
Y00574D03*
Y00653D03*
Y00811D03*
Y00889D03*
Y00968D03*
Y01047D03*
Y01126D03*
X04748Y00338D03*
Y00417D03*
Y00574D03*
Y00653D03*
Y00811D03*
Y00889D03*
Y00968D03*
Y01047D03*
Y01126D03*
X04826Y00338D03*
Y00417D03*
Y00496D03*
Y00574D03*
Y00811D03*
Y00889D03*
Y00968D03*
Y01047D03*
Y01126D03*
X04905Y00338D03*
Y00417D03*
Y00496D03*
Y00574D03*
Y00653D03*
Y00732D03*
Y00811D03*
Y00889D03*
Y00968D03*
Y01047D03*
Y01126D03*
X03783Y03566D03*
X03842D03*
Y03626D03*
X03901D03*
Y03685D03*
X04078Y03626D03*
Y03685D03*
X04137Y03626D03*
Y03685D03*
X04196Y03566D03*
Y03626D03*
Y03685D03*
X04255Y03566D03*
Y03626D03*
Y03685D03*
Y03744D03*
X04315Y03566D03*
Y03626D03*
Y03685D03*
Y03744D03*
X04374Y03566D03*
Y03626D03*
Y03685D03*
Y03744D03*
X04433Y03566D03*
Y03626D03*
Y03685D03*
Y03744D03*
X04685Y02952D03*
X02543Y03389D03*
X02602Y03448D03*
X02484Y03566D03*
X02425D03*
X02543Y03448D03*
X02484D03*
X02425D03*
X05141Y07976D03*
X05063D03*
X05141Y07897D03*
Y07582D03*
X04984Y07976D03*
Y07897D03*
X04905D03*
X04984Y07818D03*
Y07582D03*
X04905Y0774D03*
X05614Y06244D03*
X05378D03*
X05535D03*
X05456D03*
X05614Y06165D03*
X05535D03*
X05141Y07503D03*
X04984D03*
X05063Y07425D03*
X04905Y08055D03*
X04826Y07897D03*
Y07976D03*
Y07818D03*
X04905Y07503D03*
X04826Y08055D03*
X04748D03*
Y07897D03*
Y07818D03*
X04826Y0774D03*
Y07661D03*
X04748Y07582D03*
X04905Y07425D03*
X04826Y07503D03*
Y07425D03*
X04748Y07503D03*
X05535Y06007D03*
Y05929D03*
Y0585D03*
X05299Y06086D03*
X05378Y0585D03*
X04748Y05063D03*
X04984Y04826D03*
X04905D03*
X04826Y04905D03*
X04905Y04748D03*
X04669D03*
Y05063D03*
X04511D03*
X0459Y04984D03*
X04669Y04826D03*
X0459Y04748D03*
X04511Y04826D03*
Y04748D03*
X05771Y07897D03*
X05692D03*
X0585Y07582D03*
X05771Y0774D03*
Y07582D03*
X05692Y07818D03*
X05614Y07897D03*
Y07818D03*
X05535Y07897D03*
X05692Y07661D03*
X05535Y07582D03*
X05771Y07503D03*
X05692D03*
Y0711D03*
X05535Y07503D03*
X05614Y0711D03*
X05535Y07031D03*
X05614Y06952D03*
Y06637D03*
X05535Y06795D03*
Y06637D03*
X05456Y07503D03*
Y07582D03*
Y07031D03*
Y0711D03*
X05299Y06952D03*
X05378D03*
X05456Y06637D03*
X05063D03*
X04984D03*
Y06559D03*
Y06322D03*
X04826Y06637D03*
X04905Y0648D03*
Y06401D03*
X04826Y0648D03*
Y06559D03*
X04748Y0648D03*
X05614Y05299D03*
Y0522D03*
X05535D03*
X05692Y05141D03*
X05535D03*
X05456Y05299D03*
X05535Y05063D03*
X05456Y05141D03*
Y05063D03*
X05378Y05141D03*
Y0522D03*
X05614Y04984D03*
X05535D03*
X05614Y04905D03*
X05692D03*
X05456Y03803D03*
Y03881D03*
X05378Y03803D03*
X05299Y03881D03*
X05378Y03724D03*
X05299Y03803D03*
X05378Y03645D03*
X05299Y03724D03*
X0522Y0396D03*
X05063Y06322D03*
Y0396D03*
X04984D03*
X05063Y03881D03*
X0522Y03803D03*
X05063D03*
X04984D03*
X04905Y0396D03*
X04669D03*
X04748D03*
X04669Y03881D03*
X05063Y03724D03*
X05141D03*
X04905Y03803D03*
X05063Y03645D03*
X05141D03*
X04748Y03803D03*
X04669D03*
X04826Y03724D03*
X04748D03*
X04669Y03645D03*
X04826D03*
X04748D03*
X00968Y0396D03*
X01519D03*
X0144Y03724D03*
Y03881D03*
X01204Y0396D03*
X01362Y03881D03*
X01204D03*
X01126D03*
X01047D03*
X00732Y0396D03*
X00653Y03881D03*
X01283Y03803D03*
X01047Y03724D03*
X01126D03*
X00968Y03803D03*
X00811Y03724D03*
X00653D03*
X00968Y03645D03*
X00811D03*
X00181Y04748D03*
Y04826D03*
Y04905D03*
Y04984D03*
Y05063D03*
Y05141D03*
Y07189D03*
Y07267D03*
Y07346D03*
Y07425D03*
Y07503D03*
Y07582D03*
X00259Y04748D03*
Y04826D03*
Y04905D03*
Y04984D03*
Y05063D03*
Y05141D03*
Y0711D03*
Y07189D03*
Y07267D03*
Y07346D03*
Y07425D03*
Y07503D03*
Y07582D03*
Y07661D03*
X00338Y04748D03*
Y04826D03*
Y04905D03*
Y04984D03*
Y05063D03*
Y05141D03*
Y0522D03*
Y0711D03*
Y07189D03*
Y07267D03*
Y07346D03*
Y07425D03*
Y07503D03*
Y07582D03*
Y07661D03*
X00417Y04748D03*
Y04826D03*
Y04905D03*
Y04984D03*
Y05063D03*
Y05141D03*
Y0522D03*
Y0711D03*
Y07189D03*
Y07267D03*
Y07346D03*
Y07425D03*
Y07503D03*
Y07582D03*
Y07661D03*
X00496Y04748D03*
Y04826D03*
Y04905D03*
Y04984D03*
Y05063D03*
Y05141D03*
Y0522D03*
Y0711D03*
Y07189D03*
Y07267D03*
Y07346D03*
Y07425D03*
Y07503D03*
Y07582D03*
Y07661D03*
X00574Y04905D03*
Y04984D03*
Y05063D03*
Y05141D03*
Y0522D03*
Y0711D03*
Y07425D03*
Y07503D03*
Y07582D03*
Y07661D03*
X00653Y04905D03*
Y04984D03*
Y05063D03*
Y05141D03*
Y0522D03*
Y0711D03*
Y07425D03*
Y07503D03*
Y07582D03*
Y07661D03*
X00732Y04748D03*
Y04826D03*
Y04905D03*
Y04984D03*
Y05063D03*
Y05141D03*
Y0522D03*
Y07189D03*
Y07267D03*
Y07346D03*
Y07425D03*
Y07503D03*
Y07582D03*
X00811Y05929D03*
Y06007D03*
Y06086D03*
Y06165D03*
Y06244D03*
Y06322D03*
Y06401D03*
X00889Y05929D03*
Y06007D03*
Y06086D03*
Y06165D03*
Y06244D03*
Y06322D03*
Y06401D03*
X00968Y05929D03*
Y06007D03*
Y06086D03*
Y06165D03*
Y06244D03*
Y06322D03*
Y06401D03*
X01047Y05929D03*
Y06007D03*
Y06086D03*
Y06165D03*
Y06244D03*
Y06322D03*
Y06401D03*
X01126Y05929D03*
Y06007D03*
Y06086D03*
Y06165D03*
Y06244D03*
Y06322D03*
Y06401D03*
X01204Y06165D03*
Y06244D03*
Y06322D03*
Y06401D03*
X01283Y05929D03*
Y06165D03*
Y06244D03*
Y06322D03*
Y06401D03*
X01362Y06165D03*
Y06244D03*
Y06322D03*
Y06401D03*
X00968Y07425D03*
Y07503D03*
Y07582D03*
Y07661D03*
X01047Y07425D03*
Y07503D03*
Y07582D03*
Y07661D03*
X01126Y07189D03*
Y07267D03*
Y07346D03*
Y07425D03*
Y07503D03*
Y07582D03*
Y07661D03*
X01204Y07189D03*
Y07267D03*
Y07346D03*
Y07425D03*
Y07503D03*
Y07582D03*
Y07661D03*
X01283Y07189D03*
Y07267D03*
Y07346D03*
Y07425D03*
Y07503D03*
Y07582D03*
Y07661D03*
X01598Y05771D03*
Y0585D03*
Y05929D03*
Y06165D03*
Y06244D03*
Y06322D03*
X01677Y05771D03*
Y0585D03*
Y05929D03*
Y06165D03*
Y06244D03*
Y06322D03*
X01755Y05771D03*
Y0585D03*
Y05929D03*
Y06086D03*
Y06165D03*
Y06244D03*
Y06322D03*
X01834Y05771D03*
Y0585D03*
Y05929D03*
Y06007D03*
Y06086D03*
Y06165D03*
Y06244D03*
Y06322D03*
X01913Y05771D03*
Y0585D03*
Y05929D03*
Y06007D03*
Y06086D03*
Y06165D03*
Y06244D03*
Y06322D03*
G54D105*
X00743Y00831D03*
X00876Y01033D03*
X006D03*
X00563Y00893D03*
X00502Y00944D03*
X00433Y00649D03*
Y00787D03*
X01456Y02647D03*
X01417Y01919D03*
X01328Y02637D03*
Y01919D03*
X00935Y01437D03*
X00669D03*
X00964Y0184D03*
X00698Y01919D03*
X05246Y0187D03*
X05511Y01954D03*
X05679Y01702D03*
X0057Y01653D03*
X0058Y01437D03*
X00492Y01318D03*
Y01702D03*
X0123Y02795D03*
X01663D03*
X01446Y02805D03*
X0496Y02854D03*
X04761Y02687D03*
X04862Y02716D03*
X0497Y0187D03*
X04911Y01948D03*
X04616Y02746D03*
X04419Y02844D03*
X05629Y00708D03*
X05472Y00826D03*
X056Y00895D03*
X0557Y00974D03*
X05334D03*
X05511Y00649D03*
X05728Y0057D03*
X05561Y01427D03*
X05295Y01437D03*
X05329Y01269D03*
X05679Y01279D03*
X0561Y01801D03*
X0558Y01279D03*
X06023Y00984D03*
X05807Y00895D03*
X05712Y00702D03*
X04852Y02805D03*
X04655D03*
X00177Y00629D03*
X00167Y00787D03*
X01742Y02795D03*
G54D106*
X03789Y02568D03*
Y02333D03*
X0373Y04005D03*
Y0377D03*
X02608Y03543D03*
Y03778D03*
G54D107*
X02244Y01781D03*
X02479D03*
G54D108*
X01485Y02972D03*
X01546D03*
X04684Y03011D03*
X04745D03*
G54D109*
X04532Y01673D03*
X04306D03*
G54D110*
X04212Y04306D03*
Y04532D03*
X0186Y04296D03*
Y04522D03*
X01948Y01348D03*
Y01574D03*
G54D111*
X04261Y02833D03*
Y03012D03*
X05374Y02853D03*
Y03032D03*
X01909Y02882D03*
Y03062D03*
X00777Y02941D03*
Y03121D03*
G54D112*
X0245Y01947D03*
Y02107D03*
X03762Y02252D03*
Y02093D03*
X02421Y03946D03*
Y03787D03*
G54D113*
X03601Y03484D03*
X0376D03*
G54D114*
X0037Y00546D03*
X00244D03*
X00366Y00869D03*
X0024D03*
X00744Y01437D03*
X0087D03*
X05783Y0057D03*
X05909D03*
X05606Y0187D03*
X05732D03*
X05379Y01427D03*
X05505D03*
X00576Y01742D03*
X00702D03*
G54D115*
X05944Y0098D03*
Y01106D03*
G54D116*
X02455Y01558D03*
X02229D03*
G54D117*
X03563Y02327D03*
Y02554D03*
X03513Y03735D03*
Y03961D03*
X02834Y03774D03*
Y03548D03*
M02*