%FSTAX23Y23*%
%MOIN*%
%SFA1B1*%

%IPPOS*%
%ADD59C,0.009800*%
%ADD60C,0.005000*%
%ADD62C,0.010000*%
%ADD63C,0.007900*%
%ADD64C,0.003900*%
%ADD66C,0.006000*%
%ADD68C,0.005900*%
%LNr100.230.010.000-00_invertor-1*%
%LPD*%
G54D59*
X03211Y07721D02*
X03191D01*
X03201*
Y07662*
X03211*
X03191*
X03161D02*
Y07701D01*
X03132*
X03122Y07691*
Y07662*
X03102Y07701D02*
X03083Y07662D01*
X03063Y07701*
X03014Y07662D02*
X03034D01*
X03043Y07671*
Y07691*
X03034Y07701*
X03014*
X03004Y07691*
Y07681*
X03043*
X02984Y07701D02*
Y07662D01*
Y07681*
X02974Y07691*
X02965Y07701*
X02955*
X02915Y07711D02*
Y07701D01*
X02925*
X02906*
X02915*
Y07671*
X02906Y07662*
X02866D02*
X02847D01*
X02837Y07671*
Y07691*
X02847Y07701*
X02866*
X02876Y07691*
Y07671*
X02866Y07662*
X02817Y07701D02*
Y07662D01*
Y07681*
X02807Y07691*
X02797Y07701*
X02788*
X02758Y07652D02*
X02719D01*
X02699Y07701D02*
X02679Y07662D01*
X0266Y07701*
X0264Y07662D02*
X0262D01*
X0263*
Y07721*
X0264Y07711*
X03346Y07517D02*
Y07576D01*
X03316*
X03307Y07566*
Y07547*
X03316Y07537*
X03346*
X03326D02*
X03307Y07517D01*
X03287D02*
X03267D01*
X03277*
Y07576*
X03287Y07566*
X03238D02*
X03228Y07576D01*
X03208*
X03198Y07566*
Y07527*
X03208Y07517*
X03228*
X03238Y07527*
Y07566*
X03179D02*
X03169Y07576D01*
X03149*
X03139Y07566*
Y07527*
X03149Y07517*
X03169*
X03179Y07527*
Y07566*
X0312Y07517D02*
Y07527D01*
X0311*
Y07517*
X0312*
X03031D02*
X03071D01*
X03031Y07557*
Y07566*
X03041Y07576*
X03061*
X03071Y07566*
X03011D02*
X03002Y07576D01*
X02982*
X02972Y07566*
Y07557*
X02982Y07547*
X02992*
X02982*
X02972Y07537*
Y07527*
X02982Y07517*
X03002*
X03011Y07527*
X02952Y07566D02*
X02943Y07576D01*
X02923*
X02913Y07566*
Y07527*
X02923Y07517*
X02943*
X02952Y07527*
Y07566*
X02893Y07517D02*
Y07527D01*
X02884*
Y07517*
X02893*
X02844Y07566D02*
X02834Y07576D01*
X02815*
X02805Y07566*
Y07527*
X02815Y07517*
X02834*
X02844Y07527*
Y07566*
X02785Y07517D02*
X02765D01*
X02775*
Y07576*
X02785Y07566*
X02736D02*
X02726Y07576D01*
X02706*
X02697Y07566*
Y07527*
X02706Y07517*
X02726*
X02736Y07527*
Y07566*
X02677Y07517D02*
Y07527D01*
X02667*
Y07517*
X02677*
X02628Y07566D02*
X02618Y07576D01*
X02598*
X02588Y07566*
Y07527*
X02598Y07517*
X02618*
X02628Y07527*
Y07566*
X02569D02*
X02559Y07576D01*
X02539*
X02529Y07566*
Y07527*
X02539Y07517*
X02559*
X02569Y07527*
Y07566*
X0251Y07517D02*
X0249D01*
X025*
Y07576*
X0251Y07566*
G54D60*
X04449Y02723D02*
Y02846D01*
X04644*
Y02723D02*
Y02846D01*
X04449Y02723D02*
X04644D01*
X01682Y02655D02*
Y02778D01*
X01487Y02655D02*
X01682D01*
X01487D02*
Y02778D01*
X01682*
G54D62*
X02158Y0147D02*
Y01647D01*
X03474Y02625D02*
X03651D01*
X03425Y04032D02*
X03602D01*
X02746Y03477D02*
X02923D01*
G54D63*
X03727Y02372D02*
Y02529D01*
X03851Y02372D02*
Y02529D01*
X02283Y01719D02*
X0244D01*
X02283Y01843D02*
X0244D01*
X03668Y03809D02*
Y03966D01*
X03791Y03809D02*
Y03966D01*
X02669Y03582D02*
Y0374D01*
X02546Y03582D02*
Y0374D01*
X04342Y01775D02*
X04496D01*
X04342Y0157D02*
X04496D01*
X04315Y04342D02*
Y04496D01*
X0411Y04342D02*
Y04496D01*
X01962Y04332D02*
Y04486D01*
X01757Y04332D02*
Y04486D01*
X02051Y01384D02*
Y01538D01*
X01846Y01384D02*
Y01538D01*
X04326Y0287D02*
Y02976D01*
X04196Y0287D02*
Y02976D01*
X05439Y02889D02*
Y02996D01*
X05309Y02889D02*
Y02996D01*
X01974Y02919D02*
Y03025D01*
X01844Y02919D02*
Y03025D01*
X00842Y02978D02*
Y03084D01*
X00712Y02978D02*
Y03084D01*
X02494Y01998D02*
Y02057D01*
X02407Y01998D02*
Y02057D01*
X03718Y02143D02*
Y02202D01*
X03805Y02143D02*
Y02202D01*
X02378Y03837D02*
Y03896D01*
X02464Y03837D02*
Y03896D01*
X03651Y0344D02*
X0371D01*
X03651Y03527D02*
X0371D01*
X04517Y02734D02*
X04576D01*
X04517Y02836D02*
X04576D01*
X01555Y02767D02*
X01614D01*
X01555Y02665D02*
X01614D01*
X022Y01682D02*
X02484D01*
X022Y01434D02*
X02484D01*
Y01636D02*
Y01682D01*
X022Y01636D02*
Y01682D01*
X02484Y01434D02*
Y01481D01*
X022Y01434D02*
Y01481D01*
X03687Y02299D02*
Y02582D01*
X03439Y02299D02*
Y02582D01*
X0364Y02299D02*
X03687D01*
X0364Y02582D02*
X03687D01*
X03439Y02299D02*
X03485D01*
X03439Y02582D02*
X03485D01*
X03637Y03706D02*
Y0399D01*
X03389Y03706D02*
Y0399D01*
X03591Y03706D02*
X03637D01*
X03591Y0399D02*
X03637D01*
X03389Y03706D02*
X03436D01*
X03389Y0399D02*
X03436D01*
X0271Y03519D02*
Y03803D01*
X02958Y03519D02*
Y03803D01*
X0271D02*
X02756D01*
X0271Y03519D02*
X02756D01*
X02912Y03803D02*
X02958D01*
X02912Y03519D02*
X02958D01*
G54D64*
X01507Y02989D02*
X01511D01*
X01519D02*
X01523D01*
X01507Y02955D02*
X01523D01*
X01511Y02989D02*
X01519D01*
X01567Y02945D02*
Y02999D01*
X01463Y02945D02*
X01567D01*
X01463D02*
Y02999D01*
X01567*
X04706Y03028D02*
X0471D01*
X04718D02*
X04722D01*
X04706Y02995D02*
X04722D01*
X0471Y03028D02*
X04718D01*
X04766Y02985D02*
Y03038D01*
X04662Y02985D02*
X04766D01*
X04662D02*
Y03038D01*
X04766*
X00209Y00503D02*
X00404D01*
Y00589*
X00209D02*
X00404D01*
X00209Y00503D02*
Y00589D01*
X00277Y00579D02*
X00336D01*
X00277Y00512D02*
X00336D01*
X00205Y00825D02*
X004D01*
Y00912*
X00205D02*
X004D01*
X00205Y00825D02*
Y00912D01*
X00273Y00902D02*
X00332D01*
X00273Y00835D02*
X00332D01*
X00709Y0148D02*
X00904D01*
X00709Y01393D02*
Y0148D01*
Y01393D02*
X00904D01*
Y0148*
X00777Y01403D02*
X00836D01*
X00777Y0147D02*
X00836D01*
X05749Y00614D02*
X05943D01*
X05749Y00527D02*
Y00614D01*
Y00527D02*
X05943D01*
Y00614*
X05816Y00537D02*
X05876D01*
X05816Y00604D02*
X05876D01*
X05901Y00945D02*
Y0114D01*
Y00945D02*
X05988D01*
Y0114*
X05901D02*
X05988D01*
X05978Y01013D02*
Y01072D01*
X05911Y01013D02*
Y01072D01*
X05571Y01913D02*
X05766D01*
X05571Y01826D02*
Y01913D01*
Y01826D02*
X05766D01*
Y01913*
X05639Y01836D02*
X05698D01*
X05639Y01903D02*
X05698D01*
X05345Y0147D02*
X0554D01*
X05345Y01383D02*
Y0147D01*
Y01383D02*
X0554D01*
Y0147*
X05413Y01393D02*
X05472D01*
X05413Y0146D02*
X05472D01*
X00542Y01785D02*
X00737D01*
X00542Y01698D02*
Y01785D01*
Y01698D02*
X00737D01*
Y01785*
X0061Y01708D02*
X00669D01*
X0061Y01775D02*
X00669D01*
X007Y01307D02*
X00815D01*
X007Y01252D02*
Y01307D01*
Y01252D02*
X00815D01*
Y01307*
X00752Y01263D02*
X00763D01*
X00752Y01295D02*
X00763D01*
X0136Y02698D02*
X01474D01*
Y02753*
X0136D02*
X01474D01*
X0136Y02698D02*
Y02753D01*
X01411Y02742D02*
X01423D01*
X01411Y0271D02*
X01423D01*
X0069Y01061D02*
X00805D01*
X0069Y01005D02*
Y01061D01*
Y01005D02*
X00805D01*
Y01061*
X00742Y01017D02*
X00753D01*
X00742Y01049D02*
X00753D01*
X00248Y00602D02*
X00362D01*
Y00657*
X00248D02*
X00362D01*
X00248Y00602D02*
Y00657D01*
X00299Y00645D02*
X00311D01*
X00299Y00614D02*
X00311D01*
X00381Y01419D02*
Y01533D01*
X00326D02*
X00381D01*
X00326Y01419D02*
Y01533D01*
Y01419D02*
X00381D01*
X00338Y0147D02*
Y01482D01*
X0037Y0147D02*
Y01482D01*
X05395Y01297D02*
X05509D01*
X05395Y01242D02*
Y01297D01*
Y01242D02*
X05509D01*
Y01297*
X05446Y01253D02*
X05458D01*
X05446Y01285D02*
X05458D01*
X04677Y02832D02*
X04791D01*
X04677Y02777D02*
Y02832D01*
Y02777D02*
X04791D01*
Y02832*
X04728Y02789D02*
X0474D01*
X04728Y0282D02*
X0474D01*
X05395Y00982D02*
X05509D01*
X05395Y00927D02*
Y00982D01*
Y00927D02*
X05509D01*
Y00982*
X05446Y00939D02*
X05458D01*
X05446Y0097D02*
X05458D01*
X05789Y00677D02*
X05903D01*
X05789Y00622D02*
Y00677D01*
Y00622D02*
X05903D01*
Y00677*
X0584Y00633D02*
X05852D01*
X0584Y00665D02*
X05852D01*
X05746Y01429D02*
Y01543D01*
X0569D02*
X05746D01*
X0569Y01429D02*
Y01543D01*
Y01429D02*
X05746D01*
X05702Y0148D02*
Y01492D01*
X05734Y0148D02*
Y01492D01*
G54D66*
X02542Y01563D02*
X02522D01*
X02532Y01573D02*
Y01553D01*
X03567Y02241D02*
Y02261D01*
X03577Y02251D02*
X03557D01*
X03518Y03648D02*
Y03668D01*
X03528Y03658D02*
X03508D01*
X02829Y03861D02*
Y03841D01*
X02819Y03851D02*
X02839D01*
G54D68*
X01804Y01463D02*
X01811Y01456D01*
Y01443*
X01804Y01437*
X01778*
X01771Y01443*
Y01456*
X01778Y01463*
X01811Y01476D02*
Y01502D01*
X01804*
X01778Y01476*
X01771*
X0204Y04406D02*
X02047Y04399D01*
Y04386*
X0204Y04379*
X02014*
X02007Y04386*
Y04399*
X02014Y04406*
X02047Y04445D02*
Y04419D01*
X02027*
X02034Y04432*
Y04439*
X02027Y04445*
X02014*
X02007Y04439*
Y04425*
X02014Y04419*
X01587Y02867D02*
X01594Y02874D01*
X01607*
X01614Y02867*
Y02841*
X01607Y02834*
X01594*
X01587Y02841*
X01555Y02834D02*
Y02874D01*
X01574Y02854*
X01548*
X01509Y02874D02*
X01535D01*
Y02854*
X01522Y0286*
X01515*
X01509Y02854*
Y02841*
X01515Y02834*
X01528*
X01535Y02841*
X0079Y01719D02*
X00797Y01712D01*
Y01699*
X0079Y01692*
X00764*
X00757Y01699*
Y01712*
X00764Y01719*
X00757Y01751D02*
X00797D01*
X00777Y01732*
Y01758*
X0079Y01771D02*
X00797Y01778D01*
Y01791*
X0079Y01797*
X00784*
X00777Y01791*
Y01784*
Y01791*
X00771Y01797*
X00764*
X00757Y01791*
Y01778*
X00764Y01771*
X04763Y03061D02*
Y031D01*
X04744*
X04737Y03093*
Y0308*
X04744Y03074*
X04763*
X0475D02*
X04737Y03061D01*
X04724Y03093D02*
X04717Y031D01*
X04704*
X04698Y03093*
Y03087*
X04704Y0308*
X04711*
X04704*
X04698Y03074*
Y03067*
X04704Y03061*
X04717*
X04724Y03067*
X04685Y03093D02*
X04678Y031D01*
X04665*
X04658Y03093*
Y03067*
X04665Y03061*
X04678*
X04685Y03067*
Y03093*
X01574Y03031D02*
Y0307D01*
X01555*
X01548Y03064*
Y03051*
X01555Y03044*
X01574*
X01561D02*
X01548Y03031D01*
X01509D02*
X01535D01*
X01509Y03057*
Y03064*
X01515Y0307*
X01528*
X01535Y03064*
X01469Y03031D02*
X01496D01*
X01469Y03057*
Y03064*
X01476Y0307*
X01489*
X01496Y03064*
X05465Y01538D02*
X05472Y01545D01*
X05485*
X05492Y01538*
Y01512*
X05485Y01505*
X05472*
X05465Y01512*
X05426Y01545D02*
X05439Y01538D01*
X05452Y01525*
Y01512*
X05446Y01505*
X05433*
X05426Y01512*
Y01519*
X05433Y01525*
X05452*
X05413Y01538D02*
X05406Y01545D01*
X05393*
X05387Y01538*
Y01512*
X05393Y01505*
X05406*
X05413Y01512*
Y01538*
X0458Y027D02*
X04586Y02706D01*
X04599*
X04606Y027*
Y02673*
X04599Y02667*
X04586*
X0458Y02673*
X0454Y02706D02*
X04566D01*
Y02687*
X04553Y02693*
X04547*
X0454Y02687*
Y02673*
X04547Y02667*
X0456*
X04566Y02673*
X04527D02*
X04521Y02667D01*
X04507*
X04501Y02673*
Y027*
X04507Y02706*
X04521*
X04527Y027*
Y02693*
X04521Y02687*
X04501*
X05672Y01463D02*
X05679Y01456D01*
Y01443*
X05672Y01437*
X05646*
X05639Y01443*
Y01456*
X05646Y01463*
X05679Y01502D02*
Y01476D01*
X05659*
X05666Y01489*
Y01496*
X05659Y01502*
X05646*
X05639Y01496*
Y01482*
X05646Y01476*
X05672Y01515D02*
X05679Y01522D01*
Y01535*
X05672Y01542*
X05666*
X05659Y01535*
X05652Y01542*
X05646*
X05639Y01535*
Y01522*
X05646Y01515*
X05652*
X05659Y01522*
X05666Y01515*
X05672*
X05659Y01522D02*
Y01535D01*
X06026Y00682D02*
X06033Y00689D01*
X06046*
X06053Y00682*
Y00656*
X06046Y00649*
X06033*
X06026Y00656*
X05987Y00689D02*
X06013D01*
Y00669*
X06Y00675*
X05994*
X05987Y00669*
Y00656*
X05994Y00649*
X06007*
X06013Y00656*
X05974Y00689D02*
X05948D01*
Y00682*
X05974Y00656*
Y00649*
X05712Y01971D02*
X05718Y01978D01*
X05731*
X05738Y01971*
Y01945*
X05731Y01939*
X05718*
X05712Y01945*
X05672Y01978D02*
X05698D01*
Y01958*
X05685Y01965*
X05679*
X05672Y01958*
Y01945*
X05679Y01939*
X05692*
X05698Y01945*
X05633Y01978D02*
X05646Y01971D01*
X05659Y01958*
Y01945*
X05652Y01939*
X05639*
X05633Y01945*
Y01952*
X05639Y01958*
X05659*
X06036Y01069D02*
X06043Y01063D01*
Y01049*
X06036Y01043*
X0601*
X06003Y01049*
Y01063*
X0601Y01069*
X06043Y01108D02*
Y01082D01*
X06023*
X0603Y01095*
Y01102*
X06023Y01108*
X0601*
X06003Y01102*
Y01089*
X0601Y01082*
X06043Y01148D02*
Y01122D01*
X06023*
X0603Y01135*
Y01141*
X06023Y01148*
X0601*
X06003Y01141*
Y01128*
X0601Y01122*
X06056Y00564D02*
X06063Y0057D01*
X06076*
X06082Y00564*
Y00538*
X06076Y00531*
X06063*
X06056Y00538*
X06017Y0057D02*
X06043D01*
Y00551*
X0603Y00557*
X06023*
X06017Y00551*
Y00538*
X06023Y00531*
X06036*
X06043Y00538*
X05984Y00531D02*
Y0057D01*
X06004Y00551*
X05977*
X05495Y00908D02*
X05502Y00915D01*
X05515*
X05521Y00908*
Y00882*
X05515Y00876*
X05502*
X05495Y00882*
X05456Y00915D02*
X05482D01*
Y00895*
X05469Y00902*
X05462*
X05456Y00895*
Y00882*
X05462Y00876*
X05475*
X05482Y00882*
X05442Y00908D02*
X05436Y00915D01*
X05423*
X05416Y00908*
Y00902*
X05423Y00895*
X05429*
X05423*
X05416Y00889*
Y00882*
X05423Y00876*
X05436*
X05442Y00882*
X0476Y02893D02*
X04767Y029D01*
X0478*
X04787Y02893*
Y02867*
X0478Y0286*
X04767*
X0476Y02867*
X04721Y029D02*
X04747D01*
Y0288*
X04734Y02886*
X04728*
X04721Y0288*
Y02867*
X04728Y0286*
X04741*
X04747Y02867*
X04682Y0286D02*
X04708D01*
X04682Y02886*
Y02893*
X04688Y029*
X04701*
X04708Y02893*
X05475Y01213D02*
X05482Y0122D01*
X05495*
X05502Y01213*
Y01187*
X05495Y01181*
X05482*
X05475Y01187*
X05436Y0122D02*
X05462D01*
Y012*
X05449Y01207*
X05442*
X05436Y012*
Y01187*
X05442Y01181*
X05456*
X05462Y01187*
X05423Y01181D02*
X0541D01*
X05416*
Y0122*
X05423Y01213*
X00859Y01536D02*
X00866Y01543D01*
X00879*
X00885Y01536*
Y0151*
X00879Y01503*
X00866*
X00859Y0151*
X00826Y01503D02*
Y01543D01*
X00846Y01523*
X0082*
X0078Y01543D02*
X00794Y01536D01*
X00807Y01523*
Y0151*
X008Y01503*
X00787*
X0078Y0151*
Y01517*
X00787Y01523*
X00807*
X00446Y01453D02*
X00452Y01446D01*
Y01433*
X00446Y01427*
X00419*
X00413Y01433*
Y01446*
X00419Y01453*
X00413Y01486D02*
X00452D01*
X00433Y01466*
Y01492*
X00413Y01525D02*
X00452D01*
X00433Y01505*
Y01532*
X00387Y00977D02*
X00393Y00984D01*
X00406*
X00413Y00977*
Y00951*
X00406Y00944*
X00393*
X00387Y00951*
X00354Y00944D02*
Y00984D01*
X00374Y00964*
X00347*
X00308Y00944D02*
X00334D01*
X00308Y00971*
Y00977*
X00315Y00984*
X00328*
X00334Y00977*
X00328Y00721D02*
X00334Y00728D01*
X00347*
X00354Y00721*
Y00695*
X00347Y00689*
X00334*
X00328Y00695*
X00295Y00689D02*
Y00728D01*
X00315Y00708*
X00288*
X00275Y00689D02*
X00262D01*
X00269*
Y00728*
X00275Y00721*
X0017Y00479D02*
X00177Y00472D01*
Y00459*
X0017Y00452*
X00144*
X00137Y00459*
Y00472*
X00144Y00479*
X00137Y00511D02*
X00177D01*
X00157Y00492*
Y00518*
X0017Y00531D02*
X00177Y00538D01*
Y00551*
X0017Y00557*
X00144*
X00137Y00551*
Y00538*
X00144Y00531*
X0017*
X00774Y01121D02*
X00781Y01127D01*
X00794*
X008Y01121*
Y01095*
X00794Y01088*
X00781*
X00774Y01095*
X00761Y01121D02*
X00754Y01127D01*
X00741*
X00735Y01121*
Y01114*
X00741Y01108*
X00748*
X00741*
X00735Y01101*
Y01095*
X00741Y01088*
X00754*
X00761Y01095*
X00722D02*
X00715Y01088D01*
X00702*
X00695Y01095*
Y01121*
X00702Y01127*
X00715*
X00722Y01121*
Y01114*
X00715Y01108*
X00695*
X01292Y02739D02*
X01299Y02746D01*
X01312*
X01318Y02739*
Y02713*
X01312Y02706*
X01299*
X01292Y02713*
X01279Y02739D02*
X01273Y02746D01*
X01259*
X01253Y02739*
Y02732*
X01259Y02726*
X01266*
X01259*
X01253Y02719*
Y02713*
X01259Y02706*
X01273*
X01279Y02713*
X0124Y02739D02*
X01233Y02746D01*
X0122*
X01213Y02739*
Y02732*
X0122Y02726*
X01213Y02719*
Y02713*
X0122Y02706*
X01233*
X0124Y02713*
Y02719*
X01233Y02726*
X0124Y02732*
Y02739*
X01233Y02726D02*
X0122D01*
X0079Y01223D02*
X00797Y0123D01*
X0081*
X00816Y01223*
Y01197*
X0081Y0119*
X00797*
X0079Y01197*
X00777Y01223D02*
X00771Y0123D01*
X00757*
X00751Y01223*
Y01217*
X00757Y0121*
X00764*
X00757*
X00751Y01204*
Y01197*
X00757Y0119*
X00771*
X00777Y01197*
X00738Y0123D02*
X00712D01*
Y01223*
X00738Y01197*
Y0119*
X00652Y03018D02*
X00659Y03011D01*
Y02998*
X00652Y02992*
X00626*
X0062Y02998*
Y03011*
X00626Y03018*
X00652Y03031D02*
X00659Y03038D01*
Y03051*
X00652Y03057*
X00646*
X00639Y03051*
Y03044*
Y03051*
X00633Y03057*
X00626*
X0062Y03051*
Y03038*
X00626Y03031*
X00652Y0307D02*
X00659Y03077D01*
Y0309*
X00652Y03097*
X00646*
X00639Y0309*
Y03084*
Y0309*
X00633Y03097*
X00626*
X0062Y0309*
Y03077*
X00626Y0307*
X04383Y04394D02*
X04389Y04387D01*
Y04374*
X04383Y04368*
X04357*
X0435Y04374*
Y04387*
X04357Y04394*
X0435Y04407D02*
Y0442D01*
Y04414*
X04389*
X04383Y04407*
X03684Y03398D02*
X03691Y03405D01*
X03704*
X0371Y03398*
Y03372*
X03704Y03366*
X03691*
X03684Y03372*
X03645Y03366D02*
X03671D01*
X03645Y03392*
Y03398*
X03651Y03405*
X03664*
X03671Y03398*
X02335Y03914D02*
X02342Y03907D01*
Y03894*
X02335Y03887*
X02309*
X02303Y03894*
Y03907*
X02309Y03914*
X02335Y03927D02*
X02342Y03933D01*
Y03946*
X02335Y03953*
X02329*
X02322Y03946*
Y0394*
Y03946*
X02316Y03953*
X02309*
X02303Y03946*
Y03933*
X02309Y03927*
X0204Y02939D02*
X02047Y02933D01*
Y02919*
X0204Y02913*
X02014*
X02007Y02919*
Y02933*
X02014Y02939*
X02007Y02972D02*
X02047D01*
X02027Y02952*
Y02979*
X05259Y02939D02*
X05265Y02933D01*
Y02919*
X05259Y02913*
X05232*
X05226Y02919*
Y02933*
X05232Y02939*
X05226Y02952D02*
Y02965D01*
Y02959*
X05265*
X05259Y02952*
X05265Y03011D02*
X05259Y02998D01*
X05246Y02985*
X05232*
X05226Y02992*
Y03005*
X05232Y03011*
X05239*
X05246Y03005*
Y02985*
X04147Y029D02*
X04153Y02893D01*
Y0288*
X04147Y02874*
X0412*
X04114Y0288*
Y02893*
X0412Y029*
X04114Y02939D02*
Y02913D01*
X0414Y02939*
X04147*
X04153Y02933*
Y02919*
X04147Y02913*
X04114Y02972D02*
X04153D01*
X04133Y02952*
Y02979*
X03871Y02211D02*
X03877Y02204D01*
Y02191*
X03871Y02185*
X03845*
X03838Y02191*
Y02204*
X03845Y02211*
X03838Y0225D02*
Y02224D01*
X03864Y0225*
X03871*
X03877Y02244*
Y02231*
X03871Y02224*
X03877Y0229D02*
X03871Y02276D01*
X03858Y02263*
X03845*
X03838Y0227*
Y02283*
X03845Y0229*
X03851*
X03858Y02283*
Y02263*
X02562Y01984D02*
X02568Y01978D01*
Y01965*
X02562Y01958*
X02536*
X02529Y01965*
Y01978*
X02536Y01984*
X02529Y02024D02*
Y01998D01*
X02555Y02024*
X02562*
X02568Y02017*
Y02004*
X02562Y01998*
X02536Y02037D02*
X02529Y02043D01*
Y02057*
X02536Y02063*
X02562*
X02568Y02057*
Y02043*
X02562Y02037*
X02555*
X02549Y02043*
Y02063*
X04442Y01528D02*
X04448Y01535D01*
X04461*
X04468Y01528*
Y01502*
X04461Y01496*
X04448*
X04442Y01502*
X04429Y01528D02*
X04422Y01535D01*
X04409*
X04402Y01528*
Y01522*
X04409Y01515*
X04416*
X04409*
X04402Y01509*
Y01502*
X04409Y01496*
X04422*
X04429Y01502*
X04389Y01528D02*
X04383Y01535D01*
X0437*
X04363Y01528*
Y01502*
X0437Y01496*
X04383*
X04389Y01502*
Y01528*
X02588Y03838D02*
X02627D01*
Y03858*
X02621Y03864*
X02608*
X02601Y03858*
Y03838*
Y03851D02*
X02588Y03864D01*
Y03904D02*
Y03877D01*
X02614Y03904*
X02621*
X02627Y03897*
Y03884*
X02621Y03877*
X03828Y03769D02*
X03868D01*
Y03789*
X03861Y03795*
X03848*
X03841Y03789*
Y03769*
Y03782D02*
X03828Y03795D01*
X03861Y03809D02*
X03868Y03815D01*
Y03828*
X03861Y03835*
X03855*
X03848Y03828*
Y03822*
Y03828*
X03841Y03835*
X03835*
X03828Y03828*
Y03815*
X03835Y03809*
X02539Y01742D02*
X02578D01*
Y01761*
X02572Y01768*
X02559*
X02552Y01761*
Y01742*
Y01755D02*
X02539Y01768D01*
X02572Y01781D02*
X02578Y01788D01*
Y01801*
X02572Y01807*
X02565*
X02559Y01801*
X02552Y01807*
X02545*
X02539Y01801*
Y01788*
X02545Y01781*
X02552*
X02559Y01788*
X02565Y01781*
X02572*
X02559Y01788D02*
Y01801D01*
X03878Y02421D02*
X03917D01*
Y0244*
X0391Y02447*
X03897*
X03891Y0244*
Y02421*
Y02434D02*
X03878Y02447D01*
X03884Y0246D02*
X03878Y02467D01*
Y0248*
X03884Y02486*
X0391*
X03917Y0248*
Y02467*
X0391Y0246*
X03904*
X03897Y02467*
Y02486*
X02952Y03868D02*
X02926D01*
X02913Y03881*
X02926Y03894*
X02952*
Y03907D02*
X02913D01*
Y03927*
X02919Y03933*
X02946*
X02952Y03927*
Y03907*
X02913Y03973D02*
Y03946D01*
X02939Y03973*
X02946*
X02952Y03966*
Y03953*
X02946Y03946*
X03631Y03543D02*
X03605D01*
X03592Y03556*
X03605Y03569*
X03631*
Y03582D02*
X03592D01*
Y03602*
X03599Y03608*
X03625*
X03631Y03602*
Y03582*
X03625Y03622D02*
X03631Y03628D01*
Y03641*
X03625Y03648*
X03618*
X03612Y03641*
Y03635*
Y03641*
X03605Y03648*
X03599*
X03592Y03641*
Y03628*
X03599Y03622*
X03602Y02706D02*
Y0268D01*
X03589Y02667*
X03576Y0268*
Y02706*
X03563D02*
Y02667D01*
X03543*
X03536Y02673*
Y027*
X03543Y02706*
X03563*
X03497D02*
X03523D01*
Y02687*
X0351Y02693*
X03504*
X03497Y02687*
Y02673*
X03504Y02667*
X03517*
X03523Y02673*
X02372Y01387D02*
Y01361D01*
X02358Y01348*
X02345Y01361*
Y01387*
X02332D02*
Y01348D01*
X02313*
X02306Y01355*
Y01381*
X02313Y01387*
X02332*
X02267D02*
X0228Y01381D01*
X02293Y01368*
Y01355*
X02286Y01348*
X02273*
X02267Y01355*
Y01361*
X02273Y01368*
X02293*
M02*