%FSTAX23Y23*%
%MOIN*%
%SFA1B1*%

%IPPOS*%
%ADD10R,0.068900X0.043300*%
%ADD11O,0.023600X0.061000*%
%ADD12R,0.023600X0.061000*%
%ADD13R,0.078700X0.061000*%
%ADD14R,0.061000X0.078700*%
%ADD15R,0.129900X0.106300*%
%ADD16R,0.039400X0.106300*%
%ADD17R,0.086000X0.102200*%
%ADD18R,0.039400X0.043300*%
%ADD19R,0.043300X0.039400*%
%ADD20R,0.045300X0.110200*%
%ADD21R,0.041300X0.031500*%
%ADD22R,0.059100X0.035400*%
%ADD23R,0.043300X0.072800*%
%ADD24R,0.023600X0.057100*%
%ADD25O,0.023600X0.057100*%
%ADD26C,0.019700*%
%ADD27C,0.029500*%
%ADD28C,0.039400*%
%ADD29C,0.081000*%
%ADD30R,0.081000X0.081000*%
%ADD31C,0.053500*%
%ADD32R,0.053500X0.053500*%
%ADD33C,0.098400*%
%ADD34R,0.098400X0.098400*%
%ADD35C,0.048000*%
%ADD36R,0.048000X0.048000*%
%ADD37R,0.090600X0.090600*%
%ADD38C,0.090600*%
%ADD39R,0.137800X0.137800*%
%ADD40C,0.137800*%
%ADD41C,0.200800*%
%ADD42C,0.080000*%
%ADD43C,0.095000*%
%ADD44C,0.035400*%
%ADD45C,0.047200*%
%LNr100.230.010.000-00_invertor-1*%
%LPD*%
G36*
X05826Y07086D02*
X06082D01*
X06088*
X06099Y07084*
X0611Y07079*
X0612Y07073*
X06128Y07065*
X06135Y07055*
X06139Y07044*
X06141Y07033*
Y07027*
Y05255*
Y0525*
X06139Y05238*
X06135Y05227*
X06128Y05218*
X0612Y0521*
X0611Y05203*
X06099Y05199*
X06088Y05196*
X06082*
X05826*
X05821*
X05809Y05199*
X05798Y05203*
X05789Y0521*
X0578Y05218*
X05774Y05227*
X0577Y05238*
X05767Y0525*
Y05255*
Y07022*
Y07027*
Y07033*
X0577Y07044*
X05774Y07055*
X0578Y07065*
X05789Y07073*
X05798Y07079*
X05809Y07084*
X05821Y07086*
X05826*
G37*
G36*
X01427Y05265D02*
X01433D01*
X01444Y05263*
X01455Y05259*
X01464Y05252*
X01473Y05244*
X01479Y05234*
X01484Y05223*
X01486Y05212*
Y05206*
Y04488*
Y04482*
X01484Y04471*
X01479Y0446*
X01473Y0445*
X01464Y04442*
X01455Y04435*
X01444Y04431*
X01433Y04429*
X01427*
X00954*
X00948*
X00937Y04431*
X00926Y04435*
X00917Y04442*
X00908Y0445*
X00902Y0446*
X00897Y04471*
X00895Y04482*
Y04488*
Y05206*
Y05212*
X00897Y05223*
X00902Y05234*
X00908Y05244*
X00917Y05252*
X00926Y05259*
X00937Y05263*
X00948Y05265*
X00954*
X01427*
G37*
G36*
X01939Y02145D02*
D01*
X01944*
X01956Y02143*
X01966Y02138*
X01976Y02132*
X01984Y02124*
X01991Y02114*
X01995Y02103*
X01998Y02092*
Y01998*
X02126*
X0213Y01997*
X02135*
X02271*
X02281Y01995*
X02291Y01991*
X02301Y01984*
X02309Y01976*
X02316Y01966*
X0232Y01956*
X02322Y01946*
Y01734*
X0232Y01724*
X02316Y01714*
X02309Y01704*
X02301Y01696*
X02291Y01689*
X02281Y01685*
X02271Y01683*
X01832*
X01823Y01685*
X01812Y01689*
X01802Y01696*
X01794Y01704*
X01788Y01714*
X01783Y01724*
X01781Y01736*
Y01742*
Y02086*
Y02092*
X01783Y02103*
X01788Y02114*
X01794Y02124*
X01802Y02132*
X01812Y02138*
X01823Y02143*
X01834Y02145*
X0184*
X01939*
G37*
G36*
X05Y05157D02*
X05005D01*
X05017Y05155*
X05028Y0515*
X05037Y05144*
X05045Y05136*
X05052Y05126*
X05056Y05115*
X05059Y05104*
Y05098*
Y04704*
Y04698*
X05056Y04687*
X05052Y04676*
X05045Y04667*
X05037Y04658*
X05028Y04652*
X05017Y04647*
X05005Y04645*
X05*
X04537*
X04531*
X0452Y04647*
X04509Y04652*
X04499Y04658*
X04491Y04667*
X04485Y04676*
X0448Y04687*
X04478Y04698*
Y04704*
Y05098*
Y05104*
X0448Y05115*
X04485Y05126*
X04491Y05136*
X04499Y05144*
X04509Y0515*
X0452Y05155*
X04531Y05157*
X04537*
X05*
G37*
G36*
X04458Y03494D02*
X04153D01*
Y03572*
X03927*
Y03558*
X03917*
Y03494*
X0375*
Y03602*
X03897Y0375*
X03919*
X03923Y03749*
X04104*
X04107*
X04111Y0375*
X04212*
Y03818*
X04458*
Y03494*
G37*
G36*
X05393Y07972D02*
X05826D01*
X05835*
X05852Y07969*
X05868Y07962*
X05883Y07952*
X05895Y0794*
X05905Y07925*
X05912Y07909*
X05915Y07892*
Y07883*
Y07194*
Y0719*
X05913Y0718*
X05909Y07171*
X05904Y07163*
X05897Y07156*
X05889Y07151*
X0588Y07147*
X05871Y07145*
X05757*
X05754Y07145*
X05746Y07144*
X05739Y07141*
X05732Y07136*
X05727Y07131*
X05723Y07124*
X0572Y07117*
X05718Y0711*
X05718Y07106*
Y07096*
Y06653*
Y06647*
X05716Y06636*
X05711Y06625*
X05705Y06615*
X05697Y06607*
X05687Y06601*
X05676Y06596*
X05665Y06594*
X05659*
X05206*
X052Y06594*
X05189Y06591*
X05178Y06587*
X05169Y06581*
X05161Y06572*
X05154Y06563*
X0515Y06552*
X05147Y06541*
X05147Y06535*
Y05738*
X05148Y05731*
X0515Y05718*
X05155Y05705*
X05163Y05694*
X05172Y05684*
X05184Y05677*
X05196Y05672*
X05209Y05669*
X05216Y05669*
X05669*
X05674*
X05683Y05667*
X05692Y05663*
X057Y05658*
X05707Y05651*
X05712Y05643*
X05716Y05634*
X05718Y05624*
Y0562*
Y04872*
X05718Y04865*
X05721Y04852*
X05726Y04839*
X05734Y04828*
X05743Y04818*
X05754Y04811*
X05767Y04806*
X0578Y04803*
X05787Y04803*
Y04803*
X05797Y04803*
X05816Y04799*
X05834Y04792*
X0585Y04781*
X05863Y04767*
X05874Y04751*
X05882Y04733*
X05885Y04714*
Y04704*
Y04665*
Y03622*
Y03616*
X05883Y03604*
X05878Y03593*
X05872Y03583*
X05863Y03575*
X05853Y03568*
X05842Y03563*
X05831Y03561*
X05825Y03561*
X04664Y03563*
X04659*
X0465Y03565*
X04641Y03569*
X04633Y03574*
X04626Y03581*
X04621Y03589*
X04618Y03598*
X04616Y03607*
Y03612*
Y03976*
Y03981*
X04618Y0399*
X04621Y03999*
X04627Y04007*
X04634Y04014*
X04642Y0402*
X04651Y04023*
X0466Y04025*
X04665*
X05083*
X05088*
X05094Y04025*
X05105Y04028*
X05116Y04032*
X05126Y04039*
X05134Y04047*
X0514Y04056*
X05145Y04067*
X05147Y04078*
X05147Y04084*
Y05187*
X05147Y05192*
X05145Y05204*
X0514Y05214*
X05134Y05224*
X05126Y05232*
X05116Y05239*
X05105Y05243*
X05094Y05245*
X05088Y05246*
X04694*
X04689*
X04677Y05248*
X04666Y05252*
X04657Y05259*
X04649Y05267*
X04642Y05277*
X04638Y05287*
X04635Y05299*
Y05305*
Y06505*
X04635Y06511*
X04633Y06523*
X04628Y06533*
X04622Y06543*
X04614Y06551*
X04604Y06558*
X04593Y06562*
X04582Y06564*
X04576Y06565*
X01476*
X0147Y06564*
X01459Y06562*
X01448Y06558*
X01438Y06551*
X0143Y06543*
X01424Y06533*
X01419Y06523*
X01417Y06511*
X01417Y06505*
Y05728*
Y05722*
X01415Y05711*
X0141Y057*
X01404Y0569*
X01395Y05682*
X01386Y05676*
X01375Y05671*
X01364Y05669*
X01358*
X00846*
X0084Y05669*
X00829Y05666*
X00818Y05662*
X00809Y05655*
X008Y05647*
X00794Y05638*
X00789Y05627*
X00787Y05616*
X00787Y0561*
Y04281*
X00787Y04267*
X00791Y04239*
X00798Y04211*
X00809Y04185*
X00823Y04161*
X00841Y04138*
X00861Y04118*
X00883Y04101*
X00908Y04087*
X00934Y04076*
X00961Y04069*
X00989Y04065*
X01004Y04065*
X01515*
X01521*
X01533Y04062*
X01543Y04058*
X01553Y04051*
X01561Y04043*
X01568Y04033*
X01572Y04023*
X01574Y04011*
Y04005*
Y03612*
Y03606*
X01572Y03595*
X01568Y03584*
X01561Y03574*
X01553Y03566*
X01543Y03559*
X01533Y03555*
X01521Y03553*
X01515*
X00944Y03553*
X00364Y03553*
X00349*
X00319Y03557*
X00291Y03564*
X00263Y03576*
X00238Y0359*
X00214Y03609*
X00193Y03629*
X00175Y03653*
X0016Y03679*
X00149Y03706*
X00141Y03735*
X00137Y03764*
Y03779*
Y07711*
Y07716*
Y07722*
X0014Y07733*
X00144Y07744*
X00151Y07754*
X00159Y07762*
X00168Y07768*
X00179Y07773*
X00191Y07775*
X00196*
X00728*
X00734*
X00745Y07773*
X00756Y07768*
X00766Y07762*
X00774Y07754*
X0078Y07744*
X00785Y07733*
X00787Y07722*
Y07716*
Y07135*
X00787Y07129*
X0079Y07115*
X00795Y07103*
X00803Y07092*
X00812Y07082*
X00823Y07075*
X00836Y07069*
X00849Y07067*
X00856Y07066*
X01363*
X01368*
X01372Y07067*
X01382Y07069*
X01391Y07072*
X01399Y07078*
X01406Y07084*
X01411Y07092*
X01415Y07101*
X01417Y07111*
X01417Y07116*
Y07131*
Y07135*
Y07141*
X01419Y07153*
X01424Y07163*
X0143Y07173*
X01438Y07181*
X01448Y07188*
X01459Y07192*
X0147Y07194*
X01476*
X03592*
X03598Y07195*
X03609Y07197*
X0362Y07201*
X0363Y07208*
X03638Y07216*
X03644Y07226*
X03649Y07236*
X03651Y07248*
X03651Y07253*
Y0745*
X03651Y07455*
X03653Y07462*
X03656Y07469*
X0366Y07475*
X03665Y07481*
X03672Y07485*
X03679Y07488*
X03687Y0749*
X03789*
X03794Y07489*
X03798Y07489*
X03803Y07486*
X03808Y07483*
X03812Y07479*
X03815Y07474*
X03817Y07469*
X03818Y07463*
Y07253*
X03819Y07248*
X03821Y07236*
X03825Y07226*
X03832Y07216*
X0384Y07208*
X0385Y07201*
X0386Y07197*
X03872Y07195*
X03878Y07194*
X05241*
X05246*
X05251Y07195*
X05263Y07197*
X05273Y07201*
X05283Y07208*
X05291Y07216*
X05298Y07226*
X05302Y07236*
X05304Y07248*
X05305Y07253*
Y07879*
Y07883*
Y07892*
X05308Y07909*
X05315Y07925*
X05324Y0794*
X05337Y07952*
X05351Y07962*
X05367Y07969*
X05385Y07972*
X05393*
G37*
G36*
X00944Y07746D02*
X01289D01*
X01295*
X01306Y07743*
X01317Y07739*
X01327Y07732*
X01335Y07724*
X01341Y07715*
X01346Y07704*
X01348Y07692*
Y07687*
Y07214*
Y07208*
X01347Y07204*
X01343Y07197*
X01339Y07186*
X01337Y07179*
X01335Y07176*
X01327Y07168*
X01317Y07162*
X01306Y07157*
X01295Y07155*
X01289*
X00944*
X00939*
X00927Y07157*
X00916Y07162*
X00907Y07168*
X00899Y07176*
X00892Y07186*
X00888Y07197*
X00885Y07208*
Y07214*
Y07682*
Y07687*
Y07692*
X00888Y07704*
X00892Y07715*
X00899Y07724*
X00907Y07732*
X00916Y07739*
X00927Y07743*
X00939Y07746*
X00944*
G37*
G36*
X0293Y03609D02*
X02941Y03605D01*
X02951Y03599*
X02959Y0359*
X02965Y03581*
X0297Y0357*
X02972Y03559*
Y03553*
Y03228*
Y03169*
Y03163*
X0297Y03152*
X02965Y03141*
X02959Y03131*
X02951Y03123*
X02941Y03117*
X0293Y03112*
X02919Y0311*
X02913*
X02687*
X02681*
X02669Y03112*
X02659Y03117*
X02649Y03123*
X02641Y03131*
X02634Y03141*
X0263Y03152*
X02628Y03163*
Y03169*
Y03179*
X02627Y03184*
X02625Y03193*
X02622Y03202*
X02616Y0321*
X0261Y03217*
X02601Y03222*
X02593Y03226*
X02583Y03228*
X02578Y03228*
X02116*
X0211*
X02098Y0323*
X02088Y03235*
X02078Y03241*
X0207Y03249*
X02063Y03259*
X02059Y0327*
X02057Y03281*
Y03287*
Y03469*
Y03474*
Y0348*
X02059Y03491*
X02063Y03502*
X0207Y03512*
X02078Y0352*
X02088Y03526*
X02098Y03531*
X0211Y03533*
X02116*
X02362*
X02366Y03533*
X02367Y03533*
X02373Y03535*
X0238Y03538*
X02387Y03542*
X02392Y03547*
X02396Y03554*
X02399Y03561*
X02401Y03569*
X02401Y03572*
Y03576*
X02403Y03584*
X02406Y03591*
X0241Y03597*
X02415Y03603*
X02422Y03607*
X02429Y0361*
X02437Y03612*
X0244*
X02913*
X02919*
X0293Y03609*
G37*
G36*
X03893Y03156D02*
X0391Y03149D01*
X03924Y03139*
X03936Y03127*
X03946Y03112*
X03953Y03096*
X03956Y03079*
Y0307*
Y02755*
Y02746*
X03952Y02727*
X03945Y02709*
X03934Y02693*
X03921Y02679*
X03904Y02668*
X03887Y02661*
X03868Y02657*
X03858*
X03713*
X03698Y02659*
X03685Y02663*
X03671Y0267*
X03659Y02678*
X03649Y02687*
X03639Y02698*
X03632Y02711*
X03629Y02718*
X03627Y02722*
X03627Y02722*
X03623Y02729*
X03617Y02736*
X0361Y02742*
X03603Y02747*
X03594Y02751*
X03586Y02754*
X03577Y02755*
X03572Y02755*
X02654*
X02648Y02755*
X02636Y02753*
X02624Y02749*
X02614Y02744*
X02604Y02737*
X02596Y02728*
X02589Y02718*
X02584Y02707*
X02582Y02702*
X02579Y02696*
X02571Y02687*
X02562Y02679*
X02552Y02672*
X02541Y02666*
X0253Y02662*
X02518Y02659*
X02506Y02657*
X025*
X02362*
X02352*
X02333Y02661*
X02315Y02668*
X02299Y02679*
X02285Y02693*
X02275Y02709*
X02267Y02727*
X02263Y02746*
Y02755*
Y03066*
Y0307*
Y03079*
X02267Y03096*
X02273Y03112*
X02283Y03127*
X02295Y03139*
X0231Y03149*
X02326Y03156*
X02343Y03159*
X02352*
X0249*
X02497*
X02512Y03157*
X02526Y03153*
X0254Y03147*
X02553Y03139*
X02564Y0313*
X02574Y03119*
X02583Y03107*
X02586Y031*
X02588Y03095*
X02592Y03085*
X02598Y03076*
X02606Y03068*
X02614Y03061*
X02624Y03056*
X02634Y03053*
X02645Y03051*
X0265Y03051*
X03573*
X03578Y03051*
X03578Y03051*
X03587Y03052*
X03595Y03055*
X03603Y03059*
X03611Y03064*
X03617Y0307*
X03622Y03077*
X03627Y03085*
X03627Y03085*
X03629Y03089*
X03631Y03097*
X03639Y03111*
X0365Y03124*
X03661Y03135*
X03675Y03144*
X0369Y03152*
X03705Y03157*
X03722Y03159*
X0373*
X03868*
X03876*
X03893Y03156*
G37*
G36*
X03513Y02687D02*
X03518D01*
X03528Y02685*
X03537Y02681*
X03545Y02676*
X03552Y02669*
X03557Y02661*
X03561Y02652*
X03563Y02642*
Y02637*
Y0248*
X03563Y02473*
X03566Y0246*
X03571Y02447*
X03578Y02436*
X03588Y02427*
X03599Y02419*
X03611Y02414*
X03625Y02411*
X03631Y02411*
X03789*
X03795*
X03806Y02409*
X03817Y02404*
X03827Y02398*
X03835Y0239*
X03841Y0238*
X03846Y02369*
X03848Y02358*
Y02352*
Y02273*
X03848Y02267*
X03851Y02256*
X03855Y02245*
X03861Y02236*
X0387Y02228*
X03879Y02221*
X0389Y02217*
X03901Y02214*
X03907Y02214*
X04124*
X04127*
X04135Y02213*
X04142Y0221*
X04149Y02205*
X04154Y022*
X04158Y02193*
X04161Y02186*
X04163Y02179*
X04163Y02175*
Y02066*
Y02063*
X04161Y02055*
X04158Y02048*
X04154Y02041*
X04149Y02036*
X04142Y02032*
X04135Y02029*
X04127Y02027*
X04124*
X03937*
X03933Y02027*
X03926Y02024*
X03924Y02022*
X03917*
Y02007*
Y01692*
X03917Y01686*
X0392Y01672*
X03925Y0166*
X03933Y01649*
X03942Y01639*
X03953Y01632*
X03966Y01627*
X03979Y01624*
X03986Y01624*
X04901*
X04908*
X04921Y01621*
X04934Y01616*
X04945Y01608*
X04955Y01599*
X04962Y01587*
X04967Y01575*
X0497Y01561*
Y01555*
Y00905*
Y00364*
Y00357*
X04967Y00344*
X04962Y00331*
X04955Y0032*
X04945Y0031*
X04934Y00303*
X04921Y00297*
X04908Y00295*
X04901*
X04311*
X04305*
X04293Y00297*
X04283Y00302*
X04273Y00308*
X04265Y00316*
X04258Y00326*
X04254Y00337*
X04252Y00348*
Y00354*
Y00846*
X04251Y00852*
X04249Y00863*
X04245Y00874*
X04238Y00883*
X0423Y00892*
X0422Y00898*
X0421Y00903*
X04198Y00905*
X04192Y00905*
X0312*
X03114*
X03102Y00907*
X03092Y00912*
X03082Y00918*
X03074Y00926*
X03067Y00936*
X03063Y00947*
X03061Y00958*
Y00964*
Y02647*
Y02651*
X03062Y02659*
X03065Y02666*
X03069Y02672*
X03075Y02678*
X03081Y02682*
X03088Y02685*
X03096Y02687*
X031*
X03513*
G37*
G36*
X02937Y02695D02*
X02946Y02691D01*
X02954Y02685*
X02961Y02679*
X02966Y0267*
X0297Y02662*
X02972Y02652*
Y02647*
Y02598*
Y02076*
Y00964*
Y00958*
X0297Y00947*
X02965Y00936*
X02959Y00926*
X02951Y00918*
X02941Y00912*
X0293Y00907*
X02919Y00905*
X02913*
X01899*
X01893Y00905*
X01882Y00903*
X01871Y00898*
X01862Y00892*
X01854Y00883*
X01847Y00874*
X01843Y00863*
X0184Y00852*
X0184Y00846*
Y00364*
Y00357*
X01837Y00344*
X01832Y00331*
X01825Y0032*
X01815Y0031*
X01804Y00303*
X01791Y00297*
X01778Y00295*
X01771*
X01269*
X01262*
X01249Y00297*
X01237Y00303*
X01225Y0031*
X01216Y0032*
X01208Y00331*
X01203Y00344*
X012Y00357*
Y00364*
Y00905*
Y01545*
Y01551*
X01203Y01562*
X01207Y01573*
X01214Y01582*
X01222Y01591*
X01231Y01597*
X01242Y01602*
X01254Y01604*
X01259*
X02342*
X02348Y01604*
X02359Y01606*
X0237Y01611*
X0238Y01617*
X02388Y01625*
X02394Y01635*
X02399Y01646*
X02401Y01657*
X02401Y01663*
Y02017*
X02401Y02023*
X02399Y02034*
X02394Y02045*
X02388Y02055*
X0238Y02063*
X0237Y02069*
X02359Y02074*
X02348Y02076*
X02342Y02076*
X02135*
X0213*
X02118Y02079*
X02107Y02083*
X02098Y0209*
X0209Y02098*
X02083Y02107*
X02079Y02118*
X02076Y0213*
Y02135*
Y02204*
Y0221*
X02079Y02222*
X02083Y02232*
X0209Y02242*
X02098Y0225*
X02107Y02257*
X02118Y02261*
X0213Y02263*
X02135*
X02303*
X02307Y02264*
X02314Y02265*
X02321Y02268*
X02328Y02272*
X02333Y02278*
X02337Y02284*
X0234Y02291*
X02342Y02299*
X02342Y02303*
Y02559*
Y02562*
X02344Y0257*
X02347Y02577*
X02351Y02584*
X02356Y02589*
X02363Y02593*
X0237Y02596*
X02378Y02598*
X02381*
X02598*
X02602Y02598*
X02609Y026*
X02617Y02603*
X02623Y02607*
X02628Y02612*
X02633Y02619*
X02636Y02626*
X02637Y02633*
X02637Y02637*
Y02657*
Y02661*
X02639Y02669*
X02642Y02676*
X02646Y02682*
X02652Y02688*
X02658Y02692*
X02665Y02695*
X02673Y02696*
X02677*
Y02696*
X02923*
X02928*
X02937Y02695*
G37*
G36*
X04336Y02628D02*
D01*
X04342*
X04353Y02625*
X04363Y02621*
X04373Y02615*
X04432Y02556*
X04436Y02552*
X04442Y02542*
X04446Y02532*
X04448Y02521*
Y02515*
Y02293*
Y02204*
Y02199*
X04446Y0219*
X04443Y02181*
X04437Y02173*
X04431Y02166*
X04422Y02161*
X04414Y02157*
X04404Y02155*
X04399*
X04291*
X04286*
X04277Y02157*
X04268Y02161*
X0426Y02166*
X04253Y02173*
X04247Y02181*
X04244Y0219*
X04242Y02199*
Y02204*
Y02244*
X04241Y02248*
X0424Y02258*
X04236Y02267*
X04231Y02275*
X04224Y02282*
X04216Y02287*
X04207Y02291*
X04197Y02293*
X04192Y02293*
X04131*
X04127Y02293*
X04124*
X03969*
X03962Y02295*
X03953Y02298*
X03945Y02304*
X03938Y02311*
X03932Y02319*
X03929Y02328*
X03927Y02335*
Y02352*
Y02358*
X03927Y02362*
Y02578*
Y02583*
X03929Y02593*
X03932Y02602*
X03938Y0261*
X03945Y02617*
X03953Y02622*
X03962Y02626*
X03971Y02628*
X03976*
X04336*
G37*
G36*
X05295Y06269D02*
X05659D01*
X05665*
X05676Y06267*
X05687Y06263*
X05697Y06256*
X05705Y06248*
X05711Y06238*
X05716Y06227*
X05718Y06216*
Y0621*
Y05816*
Y05811*
X05716Y05799*
X05711Y05789*
X05705Y05779*
X05697Y05771*
X05687Y05764*
X05676Y0576*
X05665Y05757*
X05659*
X05295*
X05289*
X05278Y0576*
X05267Y05764*
X05257Y05771*
X05249Y05779*
X05242Y05789*
X05238Y05799*
X05236Y05811*
Y05816*
Y06205*
Y0621*
Y06216*
X05238Y06227*
X05242Y06238*
X05249Y06248*
X05257Y06256*
X05267Y06263*
X05278Y06267*
X05289Y06269*
X05295*
G37*
G36*
X02103Y06464D02*
X02114Y06459D01*
X02124Y06453*
X02132Y06445*
X02138Y06435*
X02143Y06424*
X02145Y06413*
Y06407*
Y05738*
Y05732*
X02143Y05721*
X02138Y0571*
X02132Y057*
X02124Y05692*
X02114Y05685*
X02103Y05681*
X02092Y05679*
X02086*
X01574*
X01569*
X01557Y05681*
X01546Y05685*
X01537Y05692*
X01528Y057*
X01522Y0571*
X01518Y05721*
X01515Y05732*
Y05738*
Y06407*
Y06413*
X01518Y06424*
X01522Y06435*
X01528Y06445*
X01537Y06453*
X01546Y06459*
X01557Y06464*
X01569Y06466*
X01574*
X02086*
X02092*
X02103Y06464*
G37*
G36*
X04505Y06454D02*
X04516Y0645D01*
X04525Y06443*
X04534Y06435*
X0454Y06425*
X04545Y06414*
X04547Y06403*
Y06397*
Y06003*
Y05998*
X04545Y05986*
X0454Y05976*
X04534Y05966*
X04525Y05958*
X04516Y05951*
X04505Y05947*
X04494Y05944*
X04488*
X04035*
X04029*
X04018Y05947*
X04007Y05951*
X03997Y05958*
X03989Y05966*
X03983Y05976*
X03978Y05986*
X03976Y05998*
Y06003*
Y06397*
Y06403*
X03978Y06414*
X03983Y06425*
X03989Y06435*
X03997Y06443*
X04007Y0645*
X04018Y06454*
X04029Y06456*
X04035*
X04488*
X04494*
X04505Y06454*
G37*
G36*
X03978Y0433D02*
D01*
X03984*
X03998Y04329*
X04011Y04326*
X04024Y04322*
X04037Y04317*
X04049Y04311*
X0406Y04303*
X04071Y04295*
X04076Y0429*
X04093Y04272*
X04098Y04268*
X04106Y04257*
X04114Y04246*
X0412Y04234*
X04125Y04221*
X04129Y04208*
X04132Y04195*
X04133Y04181*
Y04174*
Y03858*
Y03855*
X04132Y03849*
X0413Y03844*
X04127Y03839*
X04123Y03835*
X04118Y03832*
X04112Y03829*
X04107Y03828*
X04104*
X03923*
X03907Y03831*
X03892Y03838*
X03879Y03846*
X03873Y03852*
X03859Y03866*
X03854Y03871*
X03844Y0388*
X03832Y03887*
X0382Y03894*
X03808Y03899*
X03795Y03903*
X03781Y03906*
X03768Y03907*
X03761Y03907*
X03671*
Y03366*
Y03361*
X03669Y03351*
X03665Y03342*
X0366Y03334*
X03653Y03327*
X03645Y03322*
X03636Y03318*
X03626Y03316*
X03622*
X03618Y03316*
X0361Y03315*
X03603Y03312*
X03597Y03308*
X03591Y03302*
X03587Y03296*
X03584Y03289*
X03582Y03281*
X03582Y03277*
Y03169*
Y03163*
X0358Y03152*
X03576Y03141*
X03569Y03131*
X03561Y03123*
X03551Y03117*
X0354Y03112*
X03529Y0311*
X03523*
X0312*
X03114*
X03102Y03112*
X03092Y03117*
X03082Y03123*
X03074Y03131*
X03067Y03141*
X03063Y03152*
X03061Y03163*
Y03169*
Y04183*
Y04192*
X03063Y04211*
X03068Y0423*
X03076Y04248*
X03085Y04265*
X03097Y0428*
X03111Y04294*
X03126Y04306*
X03143Y04315*
X03161Y04323*
X03179Y04328*
X03199Y0433*
X03208*
X03978*
G37*
G36*
X04744Y0812D02*
X05157D01*
X05163*
X05174Y08117*
X05185Y08113*
X05195Y08106*
X05203Y08098*
X05209Y08089*
X05214Y08078*
X05216Y08066*
Y08061*
Y0746*
Y07453*
X05213Y0744*
X05208Y07428*
X05201Y07416*
X05191Y07407*
X0518Y07399*
X05167Y07394*
X05154Y07391*
X05147*
X04744*
X04738*
X04726Y07394*
X04716Y07398*
X04706Y07404*
X04698Y07413*
X04691Y07422*
X04687Y07433*
X04685Y07445*
Y0745*
Y08056*
Y08061*
Y08066*
X04687Y08078*
X04691Y08089*
X04698Y08098*
X04706Y08106*
X04716Y08113*
X04726Y08117*
X04738Y0812*
X04744*
G37*
G36*
X03927Y05305D02*
D01*
X03936*
X03955Y05301*
X03973Y05293*
X03989Y05283*
X04003Y05269*
X04014Y05253*
X04021Y05235*
X04025Y05216*
Y05206*
Y05039*
Y0503*
X04022Y05013*
X04015Y04997*
X04005Y04982*
X03993Y0497*
X03979Y0496*
X03962Y04954*
X03945Y0495*
X03937*
X02322*
X02313*
X02294Y04954*
X02276Y04962*
X0226Y04972*
X02246Y04986*
X02235Y05002*
X02228Y0502*
X02224Y05039*
Y05049*
Y05206*
Y05216*
X02228Y05235*
X02235Y05253*
X02246Y05269*
X0226Y05283*
X02276Y05293*
X02294Y05301*
X02313Y05305*
X02322*
X03927*
G37*
G36*
X02352Y00826D02*
X03858D01*
X03868*
X03887Y00823*
X03904Y00815*
X03921Y00804*
X03934Y00791*
X03945Y00775*
X03952Y00757*
X03956Y00738*
Y00728*
Y00659*
Y00649*
X03952Y0063*
X03945Y00612*
X03934Y00596*
X03921Y00583*
X03904Y00572*
X03887Y00564*
X03868Y00561*
X03858*
X02342*
X02334*
X02319Y00564*
X02305Y0057*
X02292Y00578*
X02281Y00589*
X02272Y00602*
X02266Y00616*
X02263Y00632*
Y00639*
Y00733*
Y00738*
Y00746*
X02267Y00764*
X02273Y0078*
X02283Y00794*
X02295Y00807*
X0231Y00816*
X02326Y00823*
X02343Y00826*
X02352*
G37*
G36*
X02244Y03799D02*
D01*
X02249*
X02261Y03796*
X02272Y03792*
X02281Y03786*
X0229Y03777*
X02296Y03768*
X023Y03757*
X02303Y03746*
Y0374*
Y03671*
Y03665*
X023Y03654*
X02296Y03643*
X0229Y03633*
X02281Y03625*
X02272Y03618*
X02261Y03614*
X02251Y03612*
X02116*
X0211*
X02106Y03612*
X02007*
X02005Y03612*
X01999Y0361*
X01994Y03608*
X01989Y03605*
X01985Y03601*
X01981Y03596*
X01979Y03591*
X01978Y03585*
X01978Y03582*
Y03579*
X01977Y03574*
X01975Y03568*
X01971Y03563*
X01967Y03559*
X01962Y03556*
X01957Y03554*
X01951Y03553*
X01771*
X01765*
X01754Y03555*
X01743Y03559*
X01734Y03566*
X01725Y03574*
X01719Y03584*
X01714Y03595*
X01712Y03606*
Y03612*
Y0374*
Y03746*
X01714Y03757*
X01719Y03768*
X01725Y03777*
X01734Y03786*
X01743Y03792*
X01754Y03796*
X01765Y03799*
X01771*
X02244*
G37*
%LNr100.230.010.000-00_invertor-2*%
%LPC*%
G36*
X05826Y0683D02*
X05788D01*
X05789Y06826*
X05795Y06816*
X05803Y06807*
X05812Y06799*
X05823Y06793*
X05826Y06792*
Y0683*
G37*
G36*
X05904D02*
X05866D01*
Y06792*
X05869Y06793*
X0588Y06799*
X05889Y06807*
X05897Y06816*
X05903Y06826*
X05904Y0683*
G37*
G36*
X06023D02*
X05982D01*
Y06789*
X06023*
Y0683*
G37*
G36*
X06104D02*
X06063D01*
Y06789*
X06104*
Y0683*
G37*
G36*
X05826Y06908D02*
X05823Y06907D01*
X05812Y06901*
X05803Y06893*
X05795Y06884*
X05789Y06873*
X05788Y0687*
X05826*
Y06908*
G37*
G36*
X06023Y06911D02*
X05982D01*
Y0687*
X06023*
Y06911*
G37*
G36*
X05866Y06908D02*
Y0687D01*
X05904*
X05903Y06873*
X05897Y06884*
X05889Y06893*
X0588Y06901*
X05869Y06907*
X05866Y06908*
G37*
G36*
X06104Y06911D02*
X06063D01*
Y0687*
X06104*
Y06911*
G37*
G36*
X0601Y05334D02*
X05974D01*
Y05298*
X05977Y05299*
X05987Y05304*
X05996Y05312*
X06004Y05321*
X06009Y05331*
X0601Y05334*
G37*
G36*
X05935Y0541D02*
X05931Y05409D01*
X05921Y05403*
X05912Y05396*
X05905Y05387*
X05899Y05377*
X05898Y05374*
X05935*
Y0541*
G37*
G36*
X05974D02*
Y05374D01*
X0601*
X06009Y05377*
X06004Y05387*
X05996Y05396*
X05987Y05403*
X05977Y05409*
X05974Y0541*
G37*
G36*
X05935Y05334D02*
X05898D01*
X05899Y05331*
X05905Y05321*
X05912Y05312*
X05921Y05304*
X05931Y05299*
X05935Y05298*
Y05334*
G37*
G36*
X05866Y06042D02*
Y06003D01*
X05904*
X05903Y06007*
X05897Y06018*
X05889Y06027*
X0588Y06035*
X05869Y0604*
X05866Y06042*
G37*
G36*
X06023D02*
X06019Y0604D01*
X06009Y06035*
X05999Y06027*
X05992Y06018*
X05986Y06007*
X05985Y06003*
X06023*
Y06042*
G37*
G36*
X06063D02*
Y06003D01*
X06101*
X061Y06007*
X06094Y06018*
X06086Y06027*
X06077Y06035*
X06066Y0604*
X06063Y06042*
G37*
G36*
X05826D02*
X05823Y0604D01*
X05812Y06035*
X05803Y06027*
X05795Y06018*
X05789Y06007*
X05788Y06003*
X05826*
Y06042*
G37*
G36*
X05974Y0561D02*
Y05574D01*
X0601*
X06009Y05577*
X06004Y05587*
X05996Y05596*
X05987Y05603*
X05977Y05609*
X05974Y0561*
G37*
G36*
X05935Y05534D02*
X05898D01*
X05899Y05531*
X05905Y05521*
X05912Y05512*
X05921Y05504*
X05931Y05499*
X05935Y05498*
Y05534*
G37*
G36*
X0601D02*
X05974D01*
Y05498*
X05977Y05499*
X05987Y05504*
X05996Y05512*
X06004Y05521*
X06009Y05531*
X0601Y05534*
G37*
G36*
X05935Y0561D02*
X05931Y05609D01*
X05921Y05603*
X05912Y05596*
X05905Y05587*
X05899Y05577*
X05898Y05574*
X05935*
Y0561*
G37*
G36*
X05904Y05964D02*
X05866D01*
Y05926*
X05869Y05927*
X0588Y05933*
X05889Y0594*
X05897Y0595*
X05903Y0596*
X05904Y05964*
G37*
G36*
X06023D02*
X05985D01*
X05986Y0596*
X05992Y0595*
X05999Y0594*
X06009Y05933*
X06019Y05927*
X06023Y05926*
Y05964*
G37*
G36*
X06101D02*
X06063D01*
Y05926*
X06066Y05927*
X06077Y05933*
X06086Y0594*
X06094Y0595*
X061Y0596*
X06101Y05964*
G37*
G36*
X05826D02*
X05788D01*
X05789Y0596*
X05795Y0595*
X05803Y0594*
X05812Y05933*
X05823Y05927*
X05826Y05926*
Y05964*
G37*
G36*
X01003Y04744D02*
X00945D01*
X00948Y04732*
X00956Y04718*
X00966Y04706*
X00978Y04696*
X00992Y04688*
X01003Y04685*
Y04744*
G37*
G36*
X01102D02*
X01043D01*
Y04685*
X01054Y04688*
X01068Y04696*
X01081Y04706*
X01091Y04718*
X01098Y04732*
X01102Y04744*
G37*
G36*
X01043Y04842D02*
Y04783D01*
X01102*
X01098Y04794*
X01091Y04808*
X01081Y04821*
X01068Y04831*
X01054Y04838*
X01043Y04842*
G37*
G36*
X01003D02*
X00992Y04838D01*
X00978Y04831*
X00966Y04821*
X00956Y04808*
X00948Y04794*
X00945Y04783*
X01003*
Y04842*
G37*
G36*
X01868Y01909D02*
X01854D01*
Y0188*
X01868*
Y01909*
G37*
G36*
X01815Y01977D02*
X01801D01*
Y01948*
X01815*
Y01977*
G37*
G36*
X01868D02*
X01854D01*
Y01948*
X01868*
Y01977*
G37*
G36*
X02256Y0191D02*
X02222D01*
Y01876*
X02231Y0188*
X02243Y01889*
X02252Y01901*
X02256Y0191*
G37*
G36*
X02183D02*
X02149D01*
X02152Y01901*
X02162Y01889*
X02174Y0188*
X02183Y01876*
Y0191*
G37*
G36*
X01815Y01909D02*
X01801D01*
Y0188*
X01815*
Y01909*
G37*
G36*
X02183Y01983D02*
X02174Y0198D01*
X02162Y0197*
X02152Y01958*
X02149Y01949*
X02183*
Y01983*
G37*
G36*
X02222D02*
Y01949D01*
X02256*
X02252Y01958*
X02243Y0197*
X02231Y0198*
X02222Y01983*
G37*
G36*
X04931Y05068D02*
X04919Y05065D01*
X04905Y05057*
X04893Y05047*
X04883Y05035*
X04875Y05021*
X04872Y05009*
X04931*
Y05068*
G37*
G36*
X0497D02*
Y05009D01*
X05029*
X05025Y05021*
X05018Y05035*
X05008Y05047*
X04995Y05057*
X04981Y05065*
X0497Y05068*
G37*
G36*
X05029Y0497D02*
X0497D01*
Y04911*
X04981Y04915*
X04995Y04922*
X05008Y04932*
X05018Y04945*
X05025Y04959*
X05029Y0497*
G37*
G36*
X04931D02*
X04872D01*
X04875Y04959*
X04883Y04945*
X04893Y04932*
X04905Y04922*
X04919Y04915*
X04931Y04911*
Y0497*
G37*
G36*
X04029Y03733D02*
Y03699D01*
X04063*
X04059Y03708*
X0405Y0372*
X04038Y0373*
X04029Y03733*
G37*
G36*
X0399D02*
X03981Y0373D01*
X03969Y0372*
X0396Y03708*
X03956Y03699*
X0399*
Y03733*
G37*
G36*
Y0366D02*
X03956D01*
X0396Y03651*
X03969Y03639*
X03981Y0363*
X0399Y03626*
Y0366*
G37*
G36*
X04063D02*
X04029D01*
Y03626*
X04038Y0363*
X0405Y03639*
X04059Y03651*
X04063Y0366*
G37*
G36*
X0071Y04744D02*
X00649D01*
Y04683*
X0071*
Y04744*
G37*
G36*
X0061D02*
X00549D01*
Y04683*
X0061*
Y04744*
G37*
G36*
X00728Y03827D02*
Y03799D01*
X00756*
X00753Y03805*
X00745Y03816*
X00734Y03824*
X00728Y03827*
G37*
G36*
X05452Y03729D02*
X05446Y03726D01*
X05435Y03718*
X05427Y03707*
X05424Y037*
X05452*
Y03729*
G37*
G36*
X00689Y03827D02*
X00682Y03824D01*
X00671Y03816*
X00663Y03805*
X0066Y03799*
X00689*
Y03827*
G37*
G36*
X00756Y03759D02*
X00728D01*
Y03731*
X00734Y03734*
X00745Y03742*
X00753Y03753*
X00756Y03759*
G37*
G36*
X05492Y03729D02*
Y037D01*
X0552*
X05517Y03707*
X05509Y03718*
X05498Y03726*
X05492Y03729*
G37*
G36*
X00689Y03759D02*
X0066D01*
X00663Y03753*
X00671Y03742*
X00682Y03734*
X00689Y03731*
Y03759*
G37*
G36*
X05452Y03661D02*
X05424D01*
X05427Y03655*
X05435Y03644*
X05446Y03635*
X05452Y03633*
Y03661*
G37*
G36*
X0552D02*
X05492D01*
Y03633*
X05498Y03635*
X05509Y03644*
X05517Y03655*
X0552Y03661*
G37*
G36*
X05629Y0683D02*
X05591D01*
X05593Y06826*
X05598Y06816*
X05606Y06807*
X05615Y06799*
X05626Y06793*
X05629Y06792*
Y0683*
G37*
G36*
X05433D02*
X05395D01*
X05396Y06826*
X05401Y06816*
X05409Y06807*
X05418Y06799*
X05429Y06793*
X05433Y06792*
Y0683*
G37*
G36*
Y06908D02*
X05429Y06907D01*
X05418Y06901*
X05409Y06893*
X05401Y06884*
X05396Y06873*
X05395Y0687*
X05433*
Y06908*
G37*
G36*
X05629D02*
X05626Y06907D01*
X05615Y06901*
X05606Y06893*
X05598Y06884*
X05593Y06873*
X05591Y0687*
X05629*
Y06908*
G37*
G36*
X0551Y0683D02*
X05472D01*
Y06792*
X05476Y06793*
X05486Y06799*
X05496Y06807*
X05503Y06816*
X05509Y06826*
X0551Y0683*
G37*
G36*
X05707D02*
X05669D01*
Y06792*
X05673Y06793*
X05683Y06799*
X05693Y06807*
X057Y06816*
X05706Y06826*
X05707Y0683*
G37*
G36*
X04783Y06338D02*
X04722D01*
Y06277*
X04783*
Y06338*
G37*
G36*
X04883D02*
X04822D01*
Y06277*
X04883*
Y06338*
G37*
G36*
X01259Y06104D02*
X01198D01*
Y06043*
X01259*
Y06104*
G37*
G36*
X0136D02*
X01299D01*
Y06043*
X0136*
Y06104*
G37*
G36*
X04883Y06439D02*
X04822D01*
Y06378*
X04883*
Y06439*
G37*
G36*
X04783D02*
X04722D01*
Y06378*
X04783*
Y06439*
G37*
G36*
X03782Y07475D02*
X0375D01*
Y07442*
X03782*
Y07475*
G37*
G36*
X05452Y07736D02*
X05391D01*
Y07675*
X05452*
Y07736*
G37*
G36*
X05553D02*
X05492D01*
Y07675*
X05553*
Y07736*
G37*
G36*
X0371Y07403D02*
X03678D01*
Y0737*
X0371*
Y07403*
G37*
G36*
X03782D02*
X0375D01*
Y0737*
X03782*
Y07403*
G37*
G36*
X0371Y07475D02*
X03678D01*
Y07442*
X0371*
Y07475*
G37*
G36*
X05553Y07836D02*
X05492D01*
Y07775*
X05553*
Y07836*
G37*
G36*
X05452D02*
X05391D01*
Y07775*
X05452*
Y07836*
G37*
G36*
X0061Y07244D02*
X00549D01*
Y07183*
X0061*
Y07244*
G37*
G36*
X0071D02*
X00649D01*
Y07183*
X0071*
Y07244*
G37*
G36*
X05472Y06908D02*
Y0687D01*
X0551*
X05509Y06873*
X05503Y06884*
X05496Y06893*
X05486Y06901*
X05476Y06907*
X05472Y06908*
G37*
G36*
X05669D02*
Y0687D01*
X05707*
X05706Y06873*
X057Y06884*
X05693Y06893*
X05683Y06901*
X05673Y06907*
X05669Y06908*
G37*
G36*
X0071Y07344D02*
X00649D01*
Y07283*
X0071*
Y07344*
G37*
G36*
X0061D02*
X00549D01*
Y07283*
X0061*
Y07344*
G37*
G36*
X05324Y0497D02*
X05263D01*
Y04909*
X05324*
Y0497*
G37*
G36*
X05425D02*
X05364D01*
Y04909*
X05425*
Y0497*
G37*
G36*
X0061Y04844D02*
X00549D01*
Y04783*
X0061*
Y04844*
G37*
G36*
X0071D02*
X00649D01*
Y04783*
X0071*
Y04844*
G37*
G36*
X05425Y0507D02*
X05364D01*
Y05009*
X05425*
Y0507*
G37*
G36*
X05324D02*
X05263D01*
Y05009*
X05324*
Y0507*
G37*
G36*
X01259Y06003D02*
X01198D01*
Y05942*
X01259*
Y06003*
G37*
G36*
X0136D02*
X01299D01*
Y05942*
X0136*
Y06003*
G37*
G36*
X01003Y07342D02*
X00992Y07338D01*
X00978Y07331*
X00966Y07321*
X00956Y07308*
X00948Y07294*
X00945Y07283*
X01003*
Y07342*
G37*
G36*
X01043D02*
Y07283D01*
X01102*
X01098Y07294*
X01091Y07308*
X01081Y07321*
X01068Y07331*
X01054Y07338*
X01043Y07342*
G37*
G36*
X01003Y07244D02*
X00945D01*
X00948Y07232*
X00956Y07218*
X00966Y07206*
X00978Y07196*
X00992Y07188*
X01003Y07185*
Y07244*
G37*
G36*
X01102D02*
X01043D01*
Y07185*
X01054Y07188*
X01068Y07196*
X01081Y07206*
X01091Y07218*
X01098Y07232*
X01102Y07244*
G37*
G36*
X02183Y03445D02*
X02149D01*
X02152Y03436*
X02162Y03424*
X02174Y03415*
X02183Y03411*
Y03445*
G37*
G36*
X02256D02*
X02222D01*
Y03411*
X02231Y03415*
X02243Y03424*
X02252Y03436*
X02256Y03445*
G37*
G36*
X02183Y03519D02*
X02174Y03515D01*
X02162Y03506*
X02152Y03494*
X02149Y03485*
X02183*
Y03519*
G37*
G36*
X02222D02*
Y03485D01*
X02256*
X02252Y03494*
X02243Y03506*
X02231Y03515*
X02222Y03519*
G37*
G36*
X03773Y03125D02*
X03758Y03121D01*
X03742Y03115*
X03727Y03105*
X03713Y03094*
X03702Y0308*
X03693Y03065*
X03686Y03049*
X03682Y03034*
X03773*
Y03125*
G37*
G36*
X03813D02*
Y03034D01*
X03904*
X039Y03049*
X03893Y03065*
X03884Y0308*
X03872Y03094*
X03859Y03105*
X03844Y03115*
X03828Y03121*
X03813Y03125*
G37*
G36*
X02533Y02991D02*
X02423D01*
X02312*
X02316Y02976*
X02322Y02959*
X02332Y02944*
X02343Y02931*
X02357Y02919*
X02365Y02914*
Y02909*
X02357Y02905*
X02343Y02893*
X02332Y0288*
X02322Y02865*
X02316Y02848*
X02312Y02833*
X02423*
X02533*
X0253Y02848*
X02523Y02865*
X02514Y0288*
X02502Y02893*
X02489Y02905*
X02481Y02909*
Y02914*
X02489Y02919*
X02502Y02931*
X02514Y02944*
X02523Y02959*
X0253Y02976*
X02533Y02991*
G37*
G36*
X03904Y02995D02*
X03682D01*
X03686Y0298*
X03693Y02963*
X03702Y02948*
X03713Y02935*
X03727Y02923*
X03735Y02918*
Y02913*
X03727Y02909*
X03713Y02897*
X03702Y02884*
X03693Y02869*
X03686Y02852*
X03682Y02837*
X03904*
X039Y02852*
X03893Y02869*
X03884Y02884*
X03872Y02897*
X03859Y02909*
X03851Y02913*
Y02918*
X03859Y02923*
X03872Y02935*
X03884Y02948*
X03893Y02963*
X039Y0298*
X03904Y02995*
G37*
G36*
X03773Y02798D02*
X03682D01*
X03686Y02783*
X03693Y02766*
X03702Y02751*
X03713Y02738*
X03727Y02726*
X03742Y02717*
X03758Y0271*
X03773Y02707*
Y02798*
G37*
G36*
X03904D02*
X03813D01*
Y02707*
X03828Y0271*
X03844Y02717*
X03859Y02726*
X03872Y02738*
X03884Y02751*
X03893Y02766*
X039Y02783*
X03904Y02798*
G37*
G36*
X02403Y03121D02*
X02388Y03117D01*
X02372Y03111*
X02357Y03101*
X02343Y0309*
X02332Y03077*
X02322Y03061*
X02316Y03045*
X02312Y0303*
X02403*
Y03121*
G37*
G36*
X02533Y02794D02*
X02442D01*
Y02703*
X02458Y02706*
X02474Y02713*
X02489Y02722*
X02502Y02734*
X02514Y02747*
X02523Y02762*
X0253Y02779*
X02533Y02794*
G37*
G36*
X02442Y03121D02*
Y0303D01*
X02533*
X0253Y03045*
X02523Y03061*
X02514Y03077*
X02502Y0309*
X02489Y03101*
X02474Y03111*
X02458Y03117*
X02442Y03121*
G37*
G36*
X02403Y02794D02*
X02312D01*
X02316Y02779*
X02322Y02762*
X02332Y02747*
X02343Y02734*
X02357Y02722*
X02372Y02713*
X02388Y02706*
X02403Y02703*
Y02794*
G37*
G36*
X04793Y00764D02*
X0479Y00763D01*
X04779Y00758*
X0477Y0075*
X04763Y00741*
X04757Y00731*
X04757Y00728*
X04793*
Y00764*
G37*
G36*
X04632D02*
Y00728D01*
X04669*
X04668Y00731*
X04662Y00741*
X04655Y0075*
X04646Y00758*
X04635Y00763*
X04632Y00764*
G37*
G36*
X04832D02*
Y00728D01*
X04869*
X04868Y00731*
X04862Y00741*
X04855Y0075*
X04846Y00758*
X04835Y00763*
X04832Y00764*
G37*
G36*
X04593D02*
X0459Y00763D01*
X04579Y00758*
X0457Y0075*
X04563Y00741*
X04557Y00731*
X04557Y00728*
X04593*
Y00764*
G37*
G36*
X04869Y00689D02*
X04832D01*
Y00652*
X04835Y00653*
X04846Y00659*
X04855Y00666*
X04862Y00675*
X04868Y00685*
X04869Y00689*
G37*
G36*
X04593D02*
X04557D01*
X04557Y00685*
X04563Y00675*
X0457Y00666*
X04579Y00659*
X0459Y00653*
X04593Y00652*
Y00689*
G37*
G36*
X04793D02*
X04757D01*
X04757Y00685*
X04763Y00675*
X0477Y00666*
X04779Y00659*
X0479Y00653*
X04793Y00652*
Y00689*
G37*
G36*
X04669D02*
X04632D01*
Y00652*
X04635Y00653*
X04646Y00659*
X04655Y00666*
X04662Y00675*
X04668Y00685*
X04669Y00689*
G37*
G36*
X04029Y02198D02*
Y02164D01*
X04063*
X04059Y02173*
X0405Y02185*
X04038Y02194*
X04029Y02198*
G37*
G36*
X0399D02*
X03981Y02194D01*
X03969Y02185*
X0396Y02173*
X03956Y02164*
X0399*
Y02198*
G37*
G36*
Y02125D02*
X03956D01*
X0396Y02115*
X03969Y02104*
X03981Y02094*
X0399Y02091*
Y02125*
G37*
G36*
X04063D02*
X04029D01*
Y02091*
X04038Y02094*
X0405Y02104*
X04059Y02115*
X04063Y02125*
G37*
G36*
X01384Y00725D02*
Y00689D01*
X01421*
X0142Y00692*
X01414Y00702*
X01407Y00711*
X01398Y00718*
X01387Y00724*
X01384Y00725*
G37*
G36*
X01545D02*
X01542Y00724D01*
X01531Y00718*
X01522Y00711*
X01515Y00702*
X01509Y00692*
X01509Y00689*
X01545*
Y00725*
G37*
G36*
X01345D02*
X01342Y00724D01*
X01331Y00718*
X01322Y00711*
X01315Y00702*
X01309Y00692*
X01309Y00689*
X01345*
Y00725*
G37*
G36*
X01584D02*
Y00689D01*
X01621*
X0162Y00692*
X01614Y00702*
X01607Y00711*
X01598Y00718*
X01587Y00724*
X01584Y00725*
G37*
G36*
X01345Y00649D02*
X01309D01*
X01309Y00646*
X01315Y00636*
X01322Y00627*
X01331Y00619*
X01342Y00614*
X01345Y00613*
Y00649*
G37*
G36*
X01545D02*
X01509D01*
X01509Y00646*
X01515Y00636*
X01522Y00627*
X01531Y00619*
X01542Y00614*
X01545Y00613*
Y00649*
G37*
G36*
X01421D02*
X01384D01*
Y00613*
X01387Y00614*
X01398Y00619*
X01407Y00627*
X01414Y00636*
X0142Y00646*
X01421Y00649*
G37*
G36*
X01621D02*
X01584D01*
Y00613*
X01587Y00614*
X01598Y00619*
X01607Y00627*
X01614Y00636*
X0162Y00646*
X01621Y00649*
G37*
G36*
X02183Y02198D02*
X02174Y02194D01*
X02162Y02185*
X02152Y02173*
X02149Y02164*
X02183*
Y02198*
G37*
G36*
X02222D02*
Y02164D01*
X02256*
X02252Y02173*
X02243Y02185*
X02231Y02194*
X02222Y02198*
G37*
G36*
X02183Y02125D02*
X02149D01*
X02152Y02115*
X02162Y02104*
X02174Y02094*
X02183Y02091*
Y02125*
G37*
G36*
X02256D02*
X02222D01*
Y02091*
X02231Y02094*
X02243Y02104*
X02252Y02115*
X02256Y02125*
G37*
G36*
X04063Y02339D02*
X04029D01*
Y02305*
X04038Y02309*
X0405Y02318*
X04059Y0233*
X04063Y02339*
G37*
G36*
X0399D02*
X03956D01*
X0396Y0233*
X03969Y02318*
X03981Y02309*
X0399Y02305*
Y02339*
G37*
G36*
X04029Y02412D02*
Y02378D01*
X04063*
X04059Y02388*
X0405Y024*
X04038Y02409*
X04029Y02412*
G37*
G36*
X04385Y0241D02*
X04372D01*
Y02381*
X04385*
Y0241*
G37*
G36*
X04439D02*
X04425D01*
Y02381*
X04439*
Y0241*
G37*
G36*
X04385Y02342D02*
X04372D01*
Y02314*
X04385*
Y02342*
G37*
G36*
X04439D02*
X04425D01*
Y02314*
X04439*
Y02342*
G37*
G36*
X0399Y02412D02*
X03981Y02409D01*
X03969Y024*
X0396Y02388*
X03956Y02378*
X0399*
Y02412*
G37*
G36*
X05433Y06045D02*
X05391D01*
Y06003*
X05433*
Y06045*
G37*
G36*
X05513D02*
X05472D01*
Y06003*
X05513*
Y06045*
G37*
G36*
X05629Y06042D02*
X05626Y0604D01*
X05615Y06035*
X05606Y06027*
X05598Y06018*
X05593Y06007*
X05591Y06003*
X05629*
Y06042*
G37*
G36*
X05669D02*
Y06003D01*
X05707*
X05706Y06007*
X057Y06018*
X05693Y06027*
X05683Y06035*
X05673Y0604*
X05669Y06042*
G37*
G36*
X05433Y05964D02*
X05391D01*
Y05923*
X05433*
Y05964*
G37*
G36*
X05513D02*
X05472D01*
Y05923*
X05513*
Y05964*
G37*
G36*
X05629D02*
X05591D01*
X05593Y0596*
X05598Y0595*
X05606Y0594*
X05615Y05933*
X05626Y05927*
X05629Y05926*
Y05964*
G37*
G36*
X05707D02*
X05669D01*
Y05926*
X05673Y05927*
X05683Y05933*
X05693Y0594*
X057Y0595*
X05706Y0596*
X05707Y05964*
G37*
G36*
X01692Y06102D02*
Y06043D01*
X01751*
X01748Y06054*
X0174Y06068*
X0173Y06081*
X01718Y06091*
X01704Y06098*
X01692Y06102*
G37*
G36*
X01653D02*
X01642Y06098D01*
X01628Y06091*
X01615Y06081*
X01605Y06068*
X01598Y06054*
X01594Y06043*
X01653*
Y06102*
G37*
G36*
X01751Y06003D02*
X01692D01*
Y05945*
X01704Y05948*
X01718Y05956*
X0173Y05966*
X0174Y05978*
X01748Y05992*
X01751Y06003*
G37*
G36*
X01653D02*
X01594D01*
X01598Y05992*
X01605Y05978*
X01615Y05966*
X01628Y05956*
X01642Y05948*
X01653Y05945*
Y06003*
G37*
G36*
X04389Y06436D02*
X04378Y06433D01*
X04364Y06425*
X04352Y06415*
X04342Y06403*
X04334Y06389*
X04331Y06378*
X04389*
Y06436*
G37*
G36*
X04429D02*
Y06378D01*
X04487*
X04484Y06389*
X04476Y06403*
X04466Y06415*
X04454Y06425*
X0444Y06433*
X04429Y06436*
G37*
G36*
X04389Y06338D02*
X04331D01*
X04334Y06327*
X04342Y06313*
X04352Y063*
X04364Y0629*
X04378Y06283*
X04389Y06279*
Y06338*
G37*
G36*
X04487D02*
X04429D01*
Y06279*
X0444Y06283*
X04454Y0629*
X04466Y063*
X04476Y06313*
X04484Y06327*
X04487Y06338*
G37*
G36*
X04029Y03948D02*
Y03914D01*
X04063*
X04059Y03923*
X0405Y03935*
X04038Y03944*
X04029Y03948*
G37*
G36*
X0399Y03875D02*
X03956D01*
X0396Y03865*
X03969Y03854*
X03981Y03844*
X0399Y03841*
Y03875*
G37*
G36*
Y03948D02*
X03981Y03944D01*
X03969Y03935*
X0396Y03923*
X03956Y03914*
X0399*
Y03948*
G37*
G36*
X04063Y03875D02*
X04029D01*
Y03841*
X04038Y03844*
X0405Y03854*
X04059Y03865*
X04063Y03875*
G37*
G36*
X05059Y07834D02*
X05047Y0783D01*
X05033Y07823*
X05021Y07813*
X05011Y07801*
X05003Y07786*
X05Y07775*
X05059*
Y07834*
G37*
G36*
X05098D02*
Y07775D01*
X05157*
X05153Y07786*
X05146Y07801*
X05136Y07813*
X05123Y07823*
X05109Y0783*
X05098Y07834*
G37*
G36*
X05157Y07736D02*
X05098D01*
Y07677*
X05109Y07681*
X05123Y07688*
X05136Y07698*
X05146Y0771*
X05153Y07724*
X05157Y07736*
G37*
G36*
X05059D02*
X05D01*
X05003Y07724*
X05011Y0771*
X05021Y07698*
X05033Y07688*
X05047Y07681*
X05059Y07677*
Y07736*
G37*
G36*
X03904Y05118D02*
X03813D01*
Y05027*
X03828Y0503*
X03844Y05037*
X03859Y05046*
X03872Y05058*
X03884Y05071*
X03893Y05086*
X039Y05103*
X03904Y05118*
G37*
G36*
X02403Y05244D02*
X02388Y0524D01*
X02372Y05234*
X02357Y05224*
X02343Y05213*
X02332Y052*
X02322Y05185*
X02316Y05168*
X02312Y05153*
X02403*
Y05244*
G37*
G36*
X02442D02*
Y05153D01*
X02533*
X0253Y05168*
X02523Y05185*
X02514Y052*
X02502Y05213*
X02489Y05224*
X02474Y05234*
X02458Y0524*
X02442Y05244*
G37*
G36*
X02533Y05114D02*
X02442D01*
Y05023*
X02458Y05026*
X02474Y05033*
X02489Y05042*
X02502Y05054*
X02514Y05067*
X02523Y05082*
X0253Y05099*
X02533Y05114*
G37*
G36*
X02403D02*
X02312D01*
X02316Y05099*
X02322Y05082*
X02332Y05067*
X02343Y05054*
X02357Y05042*
X02372Y05033*
X02388Y05026*
X02403Y05023*
Y05114*
G37*
G36*
X03773Y05118D02*
X03682D01*
X03686Y05103*
X03693Y05086*
X03702Y05071*
X03713Y05058*
X03727Y05046*
X03742Y05037*
X03758Y0503*
X03773Y05027*
Y05118*
G37*
G36*
Y05248D02*
X03758Y05244D01*
X03742Y05238*
X03727Y05228*
X03713Y05217*
X03702Y05203*
X03693Y05188*
X03686Y05172*
X03682Y05157*
X03773*
Y05248*
G37*
G36*
X03813D02*
Y05157D01*
X03904*
X039Y05172*
X03893Y05188*
X03884Y05203*
X03872Y05217*
X03859Y05228*
X03844Y05238*
X03828Y05244*
X03813Y05248*
G37*
G36*
X02403Y00801D02*
X02388Y00798D01*
X02372Y00791*
X02357Y00782*
X02343Y0077*
X02332Y00757*
X02322Y00742*
X02316Y00725*
X02312Y0071*
X02403*
Y00801*
G37*
G36*
X02442D02*
Y0071D01*
X02533*
X0253Y00725*
X02523Y00742*
X02514Y00757*
X02502Y0077*
X02489Y00782*
X02474Y00791*
X02458Y00798*
X02442Y00801*
G37*
G36*
X03773Y00805D02*
X03758Y00801D01*
X03742Y00795*
X03727Y00785*
X03713Y00774*
X03702Y00761*
X03693Y00746*
X03686Y00729*
X03682Y00714*
X03773*
Y00805*
G37*
G36*
X03813D02*
Y00714D01*
X03904*
X039Y00729*
X03893Y00746*
X03884Y00761*
X03872Y00774*
X03859Y00785*
X03844Y00795*
X03828Y00801*
X03813Y00805*
G37*
G36*
X03904Y00675D02*
X03813D01*
Y00584*
X03828Y00587*
X03844Y00594*
X03859Y00603*
X03872Y00615*
X03884Y00628*
X03893Y00643*
X039Y0066*
X03904Y00675*
G37*
G36*
X02533Y00671D02*
X02442D01*
Y0058*
X02458Y00583*
X02474Y0059*
X02489Y00599*
X02502Y00611*
X02514Y00624*
X02523Y00639*
X0253Y00656*
X02533Y00671*
G37*
G36*
X02403D02*
X02312D01*
X02316Y00656*
X02322Y00639*
X02332Y00624*
X02343Y00611*
X02357Y00599*
X02372Y0059*
X02388Y00583*
X02403Y0058*
Y00671*
G37*
G36*
X03773Y00675D02*
X03682D01*
X03686Y0066*
X03693Y00643*
X03702Y00628*
X03713Y00615*
X03727Y00603*
X03742Y00594*
X03758Y00587*
X03773Y00584*
Y00675*
G37*
G36*
X02222Y03733D02*
Y03699D01*
X02256*
X02252Y03708*
X02243Y0372*
X02231Y0373*
X02222Y03733*
G37*
G36*
X02256Y0366D02*
X02222D01*
Y03626*
X02231Y0363*
X02243Y03639*
X02252Y03651*
X02256Y0366*
G37*
G36*
X02183Y03733D02*
X02174Y0373D01*
X02162Y0372*
X02152Y03708*
X02149Y03699*
X02183*
Y03733*
G37*
G36*
Y0366D02*
X02149D01*
X02152Y03651*
X02162Y03639*
X02174Y0363*
X02183Y03626*
Y0366*
G37*
%LNr100.230.010.000-00_invertor-3*%
%LPD*%
G54D10*
X05689Y01485D03*
Y01349D03*
X00492Y01504D03*
Y01369D03*
G54D11*
X05527Y01268D03*
X05477D03*
X05427D03*
X05377D03*
X05527Y01054D03*
X05477D03*
X05427D03*
X00823Y01258D03*
X00773D03*
X00723D03*
X00673D03*
X00823Y01044D03*
X00773D03*
X00723D03*
G54D12*
X05377Y01054D03*
X00673Y01044D03*
G54D13*
X04318Y01948D03*
X045D03*
X0424Y03385D03*
X04421D03*
X01881Y02401D03*
X017D03*
X01881Y03878D03*
X017D03*
G54D14*
X0496Y02921D03*
Y03102D03*
X04419Y02921D03*
Y03102D03*
X01761Y02872D03*
Y03053D03*
X0123Y02891D03*
Y03072D03*
G54D15*
X05393Y01527D03*
X00816Y01458D03*
G54D16*
X05303Y01759D03*
X05393D03*
X05484D03*
X00726Y0169D03*
X00816D03*
X00907D03*
G54D17*
X05928Y00798D03*
X05804D03*
X05928Y00658D03*
X05804D03*
X00365Y00785D03*
X00241D03*
X00365Y00645D03*
X00241D03*
G54D18*
X05631Y006D03*
X05568D03*
X005Y00679D03*
X00563D03*
X05435Y01909D03*
X05372D03*
X00868Y01889D03*
X00805D03*
G54D19*
X05492Y00946D03*
Y00883D03*
X05423Y00946D03*
Y00883D03*
X00777Y00946D03*
Y00883D03*
X00708Y00946D03*
Y00883D03*
G54D20*
X04703Y03287D03*
X04567D03*
X01514Y03248D03*
X01378D03*
G54D21*
X05521Y00697D03*
Y00758D03*
X05433Y00697D03*
Y00758D03*
X00777Y00688D03*
Y00749D03*
X00689Y00688D03*
Y00749D03*
G54D22*
X00492Y01572D03*
Y01655D03*
X05689Y01553D03*
Y01635D03*
G54D23*
X04405Y02362D03*
X04531D03*
X04326Y02066D03*
X04452D03*
X04405Y03937D03*
X04531D03*
X04238Y03267D03*
X04364D03*
X01834Y01929D03*
X01708D03*
X01874Y02263D03*
X01748D03*
X01942Y03405D03*
X01816D03*
X01864Y03986D03*
X01738D03*
G54D24*
X04535Y02904D03*
X01346Y02865D03*
G54D25*
X04585Y02904D03*
X04635D03*
X04685D03*
X04735D03*
X04785D03*
X04835D03*
X04535Y03119D03*
X04585D03*
X04635D03*
X04685D03*
X04735D03*
X04785D03*
X04835D03*
X01396Y02865D03*
X01446D03*
X01496D03*
X01546D03*
X01596D03*
X01646D03*
X01346Y03079D03*
X01396D03*
X01446D03*
X01496D03*
X01546D03*
X01596D03*
X01646D03*
G54D26*
X01545Y02815D02*
Y02865D01*
X04735Y02855D02*
Y02952D01*
X01596Y02806D02*
Y02865D01*
X04685Y03119D02*
Y03159D01*
Y02904D02*
Y02952D01*
X04835Y02861D02*
Y02904D01*
X04635Y02865D02*
Y02904D01*
Y03119D02*
Y03158D01*
X04585Y03119D02*
Y03157D01*
X04566Y03286D02*
X04567Y03287D01*
X04735Y02952D02*
X04735Y02952D01*
X04744*
X05427Y01268D02*
Y01314D01*
X05477Y01268D02*
Y01333D01*
X05527Y01268D02*
Y01295D01*
X05541Y01309*
X05561*
X0558Y01289*
Y01279D02*
Y01289D01*
X05329Y01269D02*
Y01274D01*
X05452Y01358D02*
X05477Y01333D01*
X05415Y01326D02*
X05427Y01314D01*
X05329Y01274D02*
X0535Y01295D01*
X05377*
Y01268D02*
Y01295D01*
X0511Y01326D02*
X05415D01*
X05137Y01358D02*
X05452D01*
X05433Y00639D02*
Y00697D01*
X0557Y00433D02*
Y00502D01*
X05433Y00639D02*
X0557Y00502D01*
X05511Y00649D02*
X05521Y00659D01*
Y00697*
X05433Y00758D02*
Y00787D01*
X05364Y00856D02*
X05433Y00787D01*
X05364Y00856D02*
Y00935D01*
X05376Y00946*
X05423*
X05334Y00974D02*
Y00994D01*
X05344Y01003*
X05364*
X05377Y01017*
Y01054*
X05492Y00946D02*
X05534D01*
X05551Y00994D02*
X0557Y00974D01*
X05541Y00994D02*
X05551D01*
X05527Y01007D02*
X05541Y00994D01*
X05527Y01007D02*
Y01054D01*
X05477Y00998D02*
Y01054D01*
Y00998D02*
X05492Y00984D01*
Y00946D02*
Y00984D01*
X05427Y01008D02*
Y01054D01*
X05423Y01003D02*
X05427Y01008D01*
X05423Y00946D02*
Y01003D01*
X05534Y00946D02*
X05551Y0093D01*
X05521Y00758D02*
Y00797D01*
X05551Y00826*
Y0093*
X04535Y02832D02*
Y02904D01*
X04585Y02813D02*
Y02904D01*
X04547Y02775D02*
X04585Y02813D01*
X04547Y02628D02*
Y02775D01*
X04785Y02855D02*
Y02904D01*
X04498Y02795D02*
X04535Y02832D01*
X04498Y02588D02*
Y02795D01*
X05029Y02391D02*
Y02588D01*
X0497Y02401D02*
Y02588D01*
X05088Y01348D02*
X0511Y01326D01*
X05088Y01348D02*
Y02283D01*
X0497Y02401D02*
X05088Y02283D01*
X0512Y01376D02*
X05137Y01358D01*
X0512Y01376D02*
Y02301D01*
X05029Y02391D02*
X0512Y02301D01*
X01396Y03079D02*
X01397Y03081D01*
X01496Y03079D02*
Y0312D01*
X01396Y03079D02*
Y03118D01*
X01446Y03079D02*
Y03119D01*
X01446Y02805D02*
Y02864D01*
X01446Y02865D02*
X01446Y02864D01*
X01485Y02904D02*
Y02924D01*
Y02904D02*
X01496Y02893D01*
Y02865D02*
Y02893D01*
X01545Y02865D02*
Y02923D01*
X01535Y02805D02*
X01545Y02815D01*
Y02865D02*
X01546Y02865D01*
X01646Y02812D02*
X01663Y02795D01*
X01646Y02812D02*
Y02865D01*
X00823Y01279D02*
X00866D01*
X00823Y01258D02*
Y01279D01*
X00649Y01309D02*
X00669D01*
X00773Y01258D02*
Y01294D01*
X00673Y01258D02*
Y01305D01*
X00669Y01309D02*
X00673Y01305D01*
X00723Y01258D02*
Y01293D01*
X01346Y02817D02*
Y02865D01*
X01396Y02815D02*
X01397Y02815D01*
Y02864*
X00876Y00984D02*
Y01033D01*
X00826Y00984D02*
X00876D01*
X00823Y00988D02*
X00826Y00984D01*
X00823Y00988D02*
Y01044D01*
X006Y00994D02*
Y01033D01*
Y00994D02*
X0061Y00984D01*
X00673Y00997D02*
Y01044D01*
X00723Y01008D02*
Y01044D01*
X00708Y00994D02*
X00723Y01008D01*
X00708Y00946D02*
Y00994D01*
X00773Y01008D02*
Y01044D01*
Y01008D02*
X00777Y01003D01*
Y00946D02*
Y01003D01*
X0061Y00984D02*
X00659D01*
X00673Y00997*
X00777Y00946D02*
X00779Y00944D01*
X0064Y00916D02*
X00671Y00946D01*
X00708*
X00779Y00944D02*
X00816D01*
X00658Y00749D02*
X00689D01*
X0064Y00766D02*
X00658Y00749D01*
X0064Y00766D02*
Y00916D01*
X00777Y00749D02*
X00817D01*
X00816Y00944D02*
X00836Y00925D01*
X00817Y00749D02*
X00836Y00767D01*
Y00925*
X00689Y00639D02*
Y00688D01*
X0059Y00541D02*
X00689Y00639D01*
X0059Y00433D02*
Y00541D01*
Y00433D02*
D01*
X00777Y00639D02*
Y00688D01*
X00669Y00531D02*
X00777Y00639D01*
X00669Y00433D02*
Y00531D01*
Y00433D02*
D01*
G54D27*
X01396Y03139D02*
Y03157D01*
Y03118D02*
Y03139D01*
X0123Y03072D02*
Y0312D01*
X0125Y03139*
X01396*
X01742Y02832D02*
X01771Y02862D01*
X01742Y02795D02*
Y02832D01*
X00994Y01328D02*
X01122Y01456D01*
X0108Y01474D02*
Y02547D01*
X00976Y0137D02*
X0108Y01474D01*
Y02547D02*
X01346Y02812D01*
X0073Y0137D02*
X00976D01*
X00723Y01362D02*
X0073Y0137D01*
X00192Y00645D02*
X00241D01*
X00177Y00629D02*
X00192Y00645D01*
X01596Y02401D02*
Y02806D01*
Y02401D02*
X017D01*
X04421Y03385D02*
X04606D01*
X04635Y03357*
Y03158D02*
Y03357D01*
X04685Y03159D02*
Y03184D01*
X04429Y03179D02*
X04585D01*
X04419Y03169D02*
X04429Y03179D01*
X04635Y02824D02*
Y02844D01*
X04635Y02845D02*
X04635Y02844D01*
X04635Y02845D02*
Y02865D01*
X04585Y03179D02*
Y0321D01*
Y03157D02*
Y03179D01*
X04566Y03228D02*
X04585Y0321D01*
X04566Y03228D02*
Y03286D01*
X04419Y03102D02*
Y03169D01*
X04685Y03184D02*
Y03208D01*
Y03184D02*
X0469Y03179D01*
X0496*
Y03102D02*
Y03179D01*
X04566Y03286D02*
Y03287D01*
X04703Y03227D02*
Y03287D01*
X04685Y03208D02*
X04703Y03227D01*
X04635Y02824D02*
X04655Y02805D01*
X04835Y02822D02*
Y02861D01*
Y02822D02*
X04852Y02805D01*
X05689Y01635D02*
Y01692D01*
Y01485D02*
Y01553D01*
X05679Y01339D02*
X05689Y01349D01*
X05679Y01279D02*
Y01339D01*
X05484Y01759D02*
Y01838D01*
X05307Y01527D02*
X05393D01*
X05285Y01505D02*
X05307Y01527D01*
X05285Y01446D02*
Y01505D01*
Y01446D02*
X05295Y01437D01*
X05484Y01722D02*
Y01759D01*
Y01722D02*
X05531D01*
X05561Y01692*
Y01427D02*
Y01692D01*
X05728Y00433D02*
Y00472D01*
X05631Y00568D02*
Y006D01*
Y00568D02*
X05728Y00472D01*
X05649Y00433D02*
Y00482D01*
X05568Y00563D02*
Y006D01*
Y00563D02*
X05649Y00482D01*
X05472Y00826D02*
Y00883D01*
X05423D02*
X05472D01*
X05492*
X056Y00816D02*
Y00895D01*
X05631Y006D02*
Y00706D01*
X05629Y00708D02*
X05631Y00706D01*
X05568Y00785D02*
X056Y00816D01*
X05568Y006D02*
Y00785D01*
X04655Y02805D02*
X04704D01*
X04735Y02835*
Y02855*
X04761Y02687D02*
X04841Y02766D01*
X04843*
X04852Y02775*
Y02804*
X0496Y02921D02*
X0497Y02911D01*
X0496Y02901D02*
X0497Y02911D01*
X0496Y02854D02*
Y02901D01*
X04364Y03267D02*
X04419D01*
Y03383*
X04421Y03385*
X01752Y03139D02*
X01761Y03129D01*
Y03053D02*
Y03129D01*
X01496Y03159D02*
X01514Y03178D01*
Y03248*
X01496Y03139D02*
X01752D01*
X01496Y0312D02*
Y03139D01*
Y03159*
X01378Y03175D02*
Y03248D01*
Y03175D02*
X01396Y03157D01*
X01446Y03119D02*
X01446Y0312D01*
Y03405*
X01505Y03464*
X01584*
X017Y03878D02*
Y03986D01*
X01738*
X01864Y03895D02*
X01881Y03878D01*
X01864Y03895D02*
Y03986D01*
X01881Y03878D02*
X02186D01*
X02202Y03894*
X01584Y03464D02*
X01643Y03523D01*
Y03868*
X01653Y03878*
X017*
X01514Y03248D02*
X01515Y03249D01*
Y03366*
X01555Y03405*
X01816*
X01761Y02872D02*
X01771Y02862D01*
X01446Y02805D02*
X01535D01*
X01698Y01939D02*
X01708Y01929D01*
X00492Y01504D02*
Y01572D01*
Y01655D02*
Y01702D01*
Y01318D02*
Y01369D01*
X05679Y01702D02*
X05689Y01692D01*
X05435Y01909D02*
X05511D01*
Y01954*
X05246Y01889D02*
X05265Y01909D01*
X05246Y0187D02*
Y01889D01*
X05303Y01759D02*
Y01848D01*
X05315Y0186*
X05265Y01909D02*
X05372D01*
X05374*
X05315Y0186D02*
X05364D01*
X05374Y0187*
Y01909*
X05435Y01868D02*
Y01909D01*
Y01868D02*
X05462Y0184D01*
X05482*
X00708Y01889D02*
X00805D01*
X00698Y01899D02*
X00708Y01889D01*
X00698Y01899D02*
Y01919D01*
X00964Y0184D02*
Y0186D01*
X00726Y0169D02*
Y01809D01*
X00748Y0183*
X00787*
X00807Y0185*
Y01889*
X00907Y0169D02*
Y01799D01*
X00866Y0184D02*
X00907Y01799D01*
X00866Y0184D02*
Y01889D01*
X00723Y01293D02*
Y01362D01*
X00773Y01294D02*
Y01304D01*
X00797Y01328*
X00994*
X01663Y01939D02*
X01698D01*
X01535Y02066D02*
X01663Y01939D01*
X01535Y02066D02*
Y02805D01*
X01748Y02263D02*
D01*
X01596Y02331D02*
Y02401D01*
Y02331D02*
X01663Y02263D01*
X01748*
X00935Y01889D02*
X00964Y0186D01*
X00868Y01889D02*
X00935D01*
X01346Y02812D02*
Y02817D01*
X01122Y01456D02*
Y02529D01*
X01396Y02804*
Y02815*
X00433Y00433D02*
Y00541D01*
X00502Y0061*
Y00679*
X00511Y00433D02*
Y00541D01*
X00561Y0059*
Y00679*
X00429Y00645D02*
X00433Y00649D01*
X00365Y00645D02*
X00429D01*
X005Y00679D02*
Y00942D01*
X00502Y00944*
X00563Y00679D02*
Y00893D01*
X00743Y00831D02*
Y00883D01*
G54D28*
X00167Y00787D02*
X00169Y00785D01*
X00241*
X00511Y00344D02*
Y00433D01*
X00492Y00324D02*
X00511Y00344D01*
X00295Y00324D02*
X00492D01*
X00275Y00344D02*
X00295Y00324D01*
X00275Y00344D02*
Y00433D01*
X02199Y02362D02*
X02202Y02359D01*
X02086Y02362D02*
X02199D01*
X02047Y02401D02*
X02086Y02362D01*
X01881Y02401D02*
X02047D01*
X01874Y02393D02*
X01881Y02401D01*
X01874Y02263D02*
Y02393D01*
X04419Y02844D02*
Y02921D01*
X04009Y03894D02*
X04071D01*
X04114Y03937*
X04405*
X04531Y03539D02*
Y03937D01*
X045Y01948D02*
Y02065D01*
X04498Y02066D02*
X045Y02065D01*
X04452Y02066D02*
X04498D01*
X04616*
X04261Y02057D02*
X04271Y02066D01*
X04326*
X04261Y01948D02*
Y02057D01*
X04193Y0193D02*
X04212Y01948D01*
X04009Y0193D02*
X04193D01*
X04212Y01948D02*
X04261D01*
X04318*
X06023Y006D02*
Y00639D01*
X06005Y00658D02*
X06023Y00639D01*
X05928Y00658D02*
X06005D01*
X05712Y00675D02*
Y00702D01*
Y00675D02*
X05729Y00658D01*
X05804*
Y00798D02*
Y00892D01*
X05928Y00977D02*
X05935Y00984D01*
X05928Y00798D02*
Y00977D01*
X05804Y00892D02*
X05807Y00895D01*
X05935Y00984D02*
X06023D01*
X05621Y01485D02*
X05689D01*
X05393Y01527D02*
Y01759D01*
X0561Y01496D02*
Y01801D01*
Y01496D02*
X05621Y01485D01*
X05649Y00383D02*
Y00433D01*
X05886Y00384D02*
Y00433D01*
X05856Y00354D02*
X05886Y00384D01*
X05649Y00383D02*
X05679Y00354D01*
X05856*
X05728Y0057D02*
X05994D01*
X06023Y006*
X04531Y02362D02*
X04586D01*
X04785Y02803D02*
Y02855D01*
X04616Y02066D02*
X04665Y02116D01*
X04586Y02362D02*
X04614Y02389D01*
Y02744D02*
X04616Y02746D01*
X04614Y02389D02*
Y02744D01*
X04665Y02116D02*
Y02683D01*
X04785Y02803*
X04862Y02313D02*
Y02716D01*
Y02313D02*
X04911Y02263D01*
Y01948D02*
Y02263D01*
X04852Y02805D02*
X04917D01*
Y02356D02*
Y02805D01*
X0497Y0187D02*
Y02303D01*
X04917Y02356D02*
X0497Y02303D01*
X04238Y03267D02*
Y03383D01*
X0424Y03385*
X04025D02*
X0424D01*
X04009Y03401D02*
X04025Y03385D01*
X04009Y03401D02*
Y03465D01*
X04531Y03539D02*
X04703Y03367D01*
Y03287D02*
Y03367D01*
X02142Y03405D02*
X02202Y03465D01*
X01942Y03405D02*
X02142D01*
X0123Y02795D02*
Y02891D01*
X00492Y01369D02*
X00562D01*
X0058Y01387*
Y01437*
X00492Y01504D02*
X0055D01*
X0057Y01525*
Y01653*
X00816Y01458D02*
Y0169D01*
X00907Y01612D02*
Y0169D01*
X00669Y01456D02*
X00671Y01458D01*
X00816*
X00669Y01437D02*
Y01456D01*
X00935Y01437D02*
Y01584D01*
X00907Y01612D02*
X00935Y01584D01*
X01328Y01919D02*
Y02637D01*
X01417Y01919D02*
Y02618D01*
X01456Y02647*
X00365Y00785D02*
X00366Y00787D01*
X00433*
G54D29*
X0373Y07734D03*
Y07578D03*
G54D30*
X0373Y07422D03*
G54D31*
X05807Y01584D03*
Y01484D03*
Y01384D03*
Y01084D03*
X00236Y01565D03*
Y01465D03*
Y01365D03*
Y01065D03*
G54D32*
X05807Y00984D03*
X00236Y00965D03*
G54D33*
X05846Y0685D03*
X05649D03*
X05452D03*
X05649Y05984D03*
X05846D03*
X06043D03*
G54D34*
X06043Y0685D03*
X05452Y05984D03*
G54D35*
X00275Y00433D03*
X00354D03*
X00433D03*
X00511D03*
X0059D03*
X05886D03*
X05807D03*
X05728D03*
X05649D03*
X0557D03*
G54D36*
X00669Y00433D03*
X05492D03*
G54D37*
X04009Y03465D03*
X02202Y03894D03*
Y02359D03*
X04009Y0193D03*
G54D38*
X04009Y0368D03*
Y03894D03*
X02202Y0368D03*
Y03465D03*
Y02144D03*
Y0193D03*
X04009Y02144D03*
Y02359D03*
G54D39*
X01279Y06023D03*
X05472Y07755D03*
X04803Y06358D03*
X05344Y0499D03*
X00629Y07263D03*
Y04763D03*
G54D40*
X01673Y06023D03*
X05078Y07755D03*
X04409Y06358D03*
X0495Y0499D03*
X01023Y07263D03*
Y04763D03*
G54D41*
X03793Y02817D03*
Y00694D03*
X02423Y0069D03*
Y02814D03*
X03793Y05137D03*
Y03014D03*
X02423Y0301D03*
Y05133D03*
G54D42*
X05472Y03681D03*
Y02204D03*
X00708Y03779D03*
Y02303D03*
G54D43*
X05954Y05554D03*
Y05354D03*
X01565Y00669D03*
X01365D03*
X02844Y06138D03*
Y06338D03*
X04813Y00708D03*
X04613D03*
G54D44*
X01913Y06322D03*
Y06244D03*
Y06165D03*
Y06086D03*
Y06007D03*
Y05929D03*
Y0585D03*
Y05771D03*
X01834Y06322D03*
Y06244D03*
Y06165D03*
Y06086D03*
Y06007D03*
Y05929D03*
Y0585D03*
Y05771D03*
X01755Y06322D03*
Y06244D03*
Y06165D03*
Y06086D03*
Y05929D03*
Y0585D03*
Y05771D03*
X01677Y06322D03*
Y06244D03*
Y06165D03*
Y05929D03*
Y0585D03*
Y05771D03*
X01598Y06322D03*
Y06244D03*
Y06165D03*
Y05929D03*
Y0585D03*
Y05771D03*
X01283Y07661D03*
Y07582D03*
Y07503D03*
Y07425D03*
Y07346D03*
Y07267D03*
Y07189D03*
X01204Y07661D03*
Y07582D03*
Y07503D03*
Y07425D03*
Y07346D03*
Y07267D03*
Y07189D03*
X01126Y07661D03*
Y07582D03*
Y07503D03*
Y07425D03*
Y07346D03*
Y07267D03*
Y07189D03*
X01047Y07661D03*
Y07582D03*
Y07503D03*
Y07425D03*
X00968Y07661D03*
Y07582D03*
Y07503D03*
Y07425D03*
X01362Y06401D03*
Y06322D03*
Y06244D03*
Y06165D03*
X01283Y06401D03*
Y06322D03*
Y06244D03*
Y06165D03*
Y05929D03*
X01204Y06401D03*
Y06322D03*
Y06244D03*
Y06165D03*
X01126Y06401D03*
Y06322D03*
Y06244D03*
Y06165D03*
Y06086D03*
Y06007D03*
Y05929D03*
X01047Y06401D03*
Y06322D03*
Y06244D03*
Y06165D03*
Y06086D03*
Y06007D03*
Y05929D03*
X00968Y06401D03*
Y06322D03*
Y06244D03*
Y06165D03*
Y06086D03*
Y06007D03*
Y05929D03*
X00889Y06401D03*
Y06322D03*
Y06244D03*
Y06165D03*
Y06086D03*
Y06007D03*
Y05929D03*
X00811Y06401D03*
Y06322D03*
Y06244D03*
Y06165D03*
Y06086D03*
Y06007D03*
Y05929D03*
X00732Y07582D03*
Y07503D03*
Y07425D03*
Y07346D03*
Y07267D03*
Y07189D03*
Y0522D03*
Y05141D03*
Y05063D03*
Y04984D03*
Y04905D03*
Y04826D03*
Y04748D03*
X00653Y07661D03*
Y07582D03*
Y07503D03*
Y07425D03*
Y0711D03*
Y0522D03*
Y05141D03*
Y05063D03*
Y04984D03*
Y04905D03*
X00574Y07661D03*
Y07582D03*
Y07503D03*
Y07425D03*
Y0711D03*
Y0522D03*
Y05141D03*
Y05063D03*
Y04984D03*
Y04905D03*
X00496Y07661D03*
Y07582D03*
Y07503D03*
Y07425D03*
Y07346D03*
Y07267D03*
Y07189D03*
Y0711D03*
Y0522D03*
Y05141D03*
Y05063D03*
Y04984D03*
Y04905D03*
Y04826D03*
Y04748D03*
X00417Y07661D03*
Y07582D03*
Y07503D03*
Y07425D03*
Y07346D03*
Y07267D03*
Y07189D03*
Y0711D03*
Y0522D03*
Y05141D03*
Y05063D03*
Y04984D03*
Y04905D03*
Y04826D03*
Y04748D03*
X00338Y07661D03*
Y07582D03*
Y07503D03*
Y07425D03*
Y07346D03*
Y07267D03*
Y07189D03*
Y0711D03*
Y0522D03*
Y05141D03*
Y05063D03*
Y04984D03*
Y04905D03*
Y04826D03*
Y04748D03*
X00259Y07661D03*
Y07582D03*
Y07503D03*
Y07425D03*
Y07346D03*
Y07267D03*
Y07189D03*
Y0711D03*
Y05141D03*
Y05063D03*
Y04984D03*
Y04905D03*
Y04826D03*
Y04748D03*
X00181Y07582D03*
Y07503D03*
Y07425D03*
Y07346D03*
Y07267D03*
Y07189D03*
Y05141D03*
Y05063D03*
Y04984D03*
Y04905D03*
Y04826D03*
Y04748D03*
X00811Y03645D03*
X00968D03*
X00653Y03724D03*
X00811D03*
X00968Y03803D03*
X01126Y03724D03*
X01047D03*
X01283Y03803D03*
X00653Y03881D03*
X00732Y0396D03*
X01047Y03881D03*
X01126D03*
X01204D03*
X01362D03*
X01204Y0396D03*
X0144Y03881D03*
Y03724D03*
X01519Y0396D03*
X00968D03*
X04748Y03645D03*
X04826D03*
X04669D03*
X04748Y03724D03*
X04826D03*
X04669Y03803D03*
X04748D03*
X05141Y03645D03*
X05063D03*
X04905Y03803D03*
X05141Y03724D03*
X05063D03*
X04669Y03881D03*
X04748Y0396D03*
X04669D03*
X04905D03*
X04984Y03803D03*
X05063D03*
X0522D03*
X05063Y03881D03*
X04984Y0396D03*
X05063D03*
Y06322D03*
X0522Y0396D03*
X05299Y03724D03*
X05378Y03645D03*
X05299Y03803D03*
X05378Y03724D03*
X05299Y03881D03*
X05378Y03803D03*
X05456Y03881D03*
Y03803D03*
X05692Y04905D03*
X05614D03*
X05535Y04984D03*
X05614D03*
X05378Y0522D03*
Y05141D03*
X05456Y05063D03*
Y05141D03*
X05535Y05063D03*
X05456Y05299D03*
X05535Y05141D03*
X05692D03*
X05535Y0522D03*
X05614D03*
Y05299D03*
X04748Y0648D03*
X04826Y06559D03*
Y0648D03*
X04905Y06401D03*
Y0648D03*
X04826Y06637D03*
X04984Y06322D03*
Y06559D03*
Y06637D03*
X05063D03*
X05456D03*
X05378Y06952D03*
X05299D03*
X05456Y0711D03*
Y07031D03*
Y07582D03*
Y07503D03*
X05535Y06637D03*
Y06795D03*
X05614Y06637D03*
Y06952D03*
X05535Y07031D03*
X05614Y0711D03*
X05535Y07503D03*
X05692Y0711D03*
Y07503D03*
X05771D03*
X05535Y07582D03*
X05692Y07661D03*
X05535Y07897D03*
X05614Y07818D03*
Y07897D03*
X05692Y07818D03*
X05771Y07582D03*
Y0774D03*
X0585Y07582D03*
X05692Y07897D03*
X05771D03*
X04511Y04748D03*
Y04826D03*
X0459Y04748D03*
X04669Y04826D03*
X0459Y04984D03*
X04511Y05063D03*
X04669D03*
Y04748D03*
X04905D03*
X04826Y04905D03*
X04905Y04826D03*
X04984D03*
X04748Y05063D03*
X05378Y0585D03*
X05299Y06086D03*
X05535Y0585D03*
Y05929D03*
Y06007D03*
X04748Y07503D03*
X04826Y07425D03*
Y07503D03*
X04905Y07425D03*
X04748Y07582D03*
X04826Y07661D03*
Y0774D03*
X04748Y07818D03*
Y07897D03*
Y08055D03*
X04826D03*
X04905Y07503D03*
X04826Y07818D03*
Y07976D03*
Y07897D03*
X04905Y08055D03*
X05063Y07425D03*
X04984Y07503D03*
X05141D03*
X05535Y06165D03*
X05614D03*
X05456Y06244D03*
X05535D03*
X05378D03*
X05614D03*
X04905Y0774D03*
X04984Y07582D03*
Y07818D03*
X04905Y07897D03*
X04984D03*
Y07976D03*
X05141Y07582D03*
Y07897D03*
X05063Y07976D03*
X05141D03*
X02425Y03448D03*
X02484D03*
X02543D03*
X02425Y03566D03*
X02484D03*
X02602Y03448D03*
X02543Y03389D03*
X04685Y02952D03*
X04433Y03744D03*
Y03685D03*
Y03626D03*
Y03566D03*
X04374Y03744D03*
Y03685D03*
Y03626D03*
Y03566D03*
X04315Y03744D03*
Y03685D03*
Y03626D03*
Y03566D03*
X04255Y03744D03*
Y03685D03*
Y03626D03*
Y03566D03*
X04196Y03685D03*
Y03626D03*
Y03566D03*
X04137Y03685D03*
Y03626D03*
X04078Y03685D03*
Y03626D03*
X03901Y03685D03*
Y03626D03*
X03842D03*
Y03566D03*
X03783D03*
X04905Y01126D03*
Y01047D03*
Y00968D03*
Y00889D03*
Y00811D03*
Y00732D03*
Y00653D03*
Y00574D03*
Y00496D03*
Y00417D03*
Y00338D03*
X04826Y01126D03*
Y01047D03*
Y00968D03*
Y00889D03*
Y00811D03*
Y00574D03*
Y00496D03*
Y00417D03*
Y00338D03*
X04748Y01126D03*
Y01047D03*
Y00968D03*
Y00889D03*
Y00811D03*
Y00653D03*
Y00574D03*
Y00417D03*
Y00338D03*
X04669Y01126D03*
Y01047D03*
Y00968D03*
Y00889D03*
Y00811D03*
Y00653D03*
Y00574D03*
Y00417D03*
Y00338D03*
X0459Y01126D03*
Y01047D03*
Y00968D03*
Y00889D03*
Y00811D03*
Y00574D03*
Y00496D03*
Y00417D03*
Y00338D03*
X04511Y01126D03*
Y01047D03*
Y00968D03*
Y00889D03*
Y00811D03*
Y00732D03*
Y00653D03*
Y00574D03*
Y00496D03*
Y00417D03*
Y00338D03*
X02189Y01854D03*
Y01795D03*
Y01736D03*
X02129Y01972D03*
Y01913D03*
Y01854D03*
Y01795D03*
Y01736D03*
X0207Y01972D03*
Y01913D03*
Y01854D03*
Y01795D03*
Y01736D03*
X02011Y01972D03*
Y01913D03*
Y01854D03*
Y01795D03*
Y01736D03*
X01952Y0209D03*
Y02031D03*
Y01972D03*
Y01913D03*
Y01854D03*
Y01795D03*
Y01736D03*
X01893Y0209D03*
Y02031D03*
Y01972D03*
Y01913D03*
Y01854D03*
Y01795D03*
Y01736D03*
X03133Y01913D03*
X03192Y01854D03*
X03252D03*
X03133Y01972D03*
Y0209D03*
X03192Y01972D03*
Y01913D03*
X03133Y02326D03*
Y02444D03*
Y02385D03*
X03192Y0209D03*
Y02149D03*
X03252Y02031D03*
Y01913D03*
Y02208D03*
Y0209D03*
X03192Y02385D03*
Y02326D03*
Y02444D03*
X03252Y02326D03*
X03311Y01913D03*
Y01854D03*
X0337Y01913D03*
X03429Y01854D03*
X03252Y02149D03*
X03311Y0209D03*
Y02208D03*
X03252Y02385D03*
X0337Y02031D03*
Y01972D03*
X03429Y02149D03*
X0337Y02444D03*
X03133Y02503D03*
Y02563D03*
Y02622D03*
X03192Y02563D03*
Y02622D03*
X03133Y03212D03*
Y03271D03*
X03192Y03389D03*
Y02503D03*
X03252D03*
Y02622D03*
Y03212D03*
X03192D03*
Y0333D03*
X03252D03*
Y03271D03*
Y03389D03*
X03133Y03507D03*
Y03448D03*
Y03626D03*
Y03566D03*
X03192Y03448D03*
X03252Y03626D03*
Y03448D03*
X03311Y02563D03*
Y0333D03*
Y03271D03*
X0337Y0333D03*
X03429Y03212D03*
X0337D03*
X03252Y03507D03*
X0337Y03626D03*
X03665Y01854D03*
X03783D03*
X03488Y01913D03*
Y01972D03*
X03547Y01913D03*
X03488Y02031D03*
X03547Y01972D03*
X03488Y03212D03*
X03547Y02031D03*
Y03212D03*
X03606Y01972D03*
Y0209D03*
X03724Y02031D03*
X03488Y03271D03*
X03606Y04039D03*
Y0398D03*
X03665Y04039D03*
Y04098D03*
X03724Y04039D03*
X03665Y04216D03*
X03724Y04157D03*
X03783Y01913D03*
X03842D03*
Y02031D03*
Y01972D03*
X03783Y02031D03*
X03842Y0209D03*
X03901Y03862D03*
X03842Y0398D03*
X04078Y02149D03*
X04137Y0209D03*
X03901Y03921D03*
X0396Y0398D03*
X03783Y04098D03*
Y04039D03*
Y04216D03*
X03842D03*
Y04275D03*
X03901Y04039D03*
Y0398D03*
X0396Y04039D03*
X04078D03*
X03901Y04157D03*
Y04098D03*
X0396Y04157D03*
X04137Y02149D03*
X04078Y0209D03*
X03901Y02149D03*
Y0209D03*
X03842Y01854D03*
X03783Y01972D03*
X03724D03*
Y01913D03*
Y01854D03*
X03665Y0209D03*
Y02031D03*
Y01972D03*
Y01913D03*
X03606Y02031D03*
Y01913D03*
Y01854D03*
X03547Y0209D03*
Y01854D03*
X03488Y0209D03*
Y01854D03*
X03429Y0209D03*
Y02031D03*
Y01972D03*
Y01913D03*
X0337Y02622D03*
Y02563D03*
Y02503D03*
Y02385D03*
Y02326D03*
Y02267D03*
Y02208D03*
Y02149D03*
Y0209D03*
Y01854D03*
X03311Y02622D03*
Y02503D03*
Y02444D03*
Y02385D03*
Y02326D03*
Y02267D03*
Y02149D03*
Y02031D03*
Y01972D03*
X03252Y02563D03*
Y02444D03*
Y02267D03*
Y01972D03*
X03192Y02267D03*
Y02208D03*
Y02031D03*
X03133Y02267D03*
Y02208D03*
Y02149D03*
Y02031D03*
Y01854D03*
X03547Y03271D03*
X03429D03*
X0337Y03566D03*
Y03507D03*
Y03448D03*
Y03389D03*
Y03271D03*
X03311Y03626D03*
Y03566D03*
Y03507D03*
Y03448D03*
Y03389D03*
Y03212D03*
X03252Y03566D03*
X03192Y03626D03*
Y03566D03*
Y03507D03*
Y03271D03*
X03133Y03389D03*
Y0333D03*
X04078Y0398D03*
Y03862D03*
X04019Y04098D03*
Y04039D03*
Y0398D03*
X0396Y04098D03*
X03901Y04216D03*
X03842Y04157D03*
Y04098D03*
Y04039D03*
Y03921D03*
X03783Y04275D03*
Y04157D03*
X03724Y04275D03*
Y04216D03*
Y04098D03*
X03665Y04275D03*
Y04157D03*
X03606Y04275D03*
Y04216D03*
Y04157D03*
Y04098D03*
X01716Y00486D03*
Y00407D03*
Y00328D03*
X01637Y01352D03*
Y01273D03*
Y01194D03*
Y01116D03*
Y01037D03*
Y00958D03*
Y00879D03*
Y00801D03*
Y00722D03*
Y00643D03*
Y00565D03*
Y00486D03*
Y00407D03*
Y00328D03*
X01559Y01352D03*
Y01273D03*
Y01194D03*
Y01116D03*
Y01037D03*
Y00958D03*
Y00879D03*
Y00801D03*
Y00565D03*
Y00486D03*
Y00407D03*
Y00328D03*
X0148Y01352D03*
Y01273D03*
Y01194D03*
Y01116D03*
Y01037D03*
Y00958D03*
Y00879D03*
Y00801D03*
Y00565D03*
Y00486D03*
Y00328D03*
X01401Y01352D03*
Y01273D03*
Y01194D03*
Y01116D03*
Y01037D03*
Y00958D03*
Y00879D03*
Y00801D03*
Y00565D03*
Y00486D03*
Y00328D03*
X01322Y01352D03*
Y01273D03*
Y01194D03*
Y01116D03*
Y01037D03*
Y00958D03*
Y00879D03*
Y00801D03*
Y00565D03*
Y00486D03*
Y00407D03*
Y00328D03*
X01244Y01352D03*
Y01273D03*
Y01194D03*
Y01116D03*
Y01037D03*
Y00958D03*
Y00879D03*
Y00801D03*
Y00722D03*
Y00643D03*
Y00565D03*
Y00486D03*
Y00407D03*
X02897Y02622D03*
Y02563D03*
Y02503D03*
Y02444D03*
Y02385D03*
Y02326D03*
Y02267D03*
Y02208D03*
Y02149D03*
Y0209D03*
X02838Y02622D03*
Y02563D03*
Y02503D03*
Y02444D03*
Y02385D03*
Y02326D03*
Y02267D03*
Y02208D03*
Y02149D03*
Y0209D03*
X02779Y02622D03*
Y02563D03*
Y02503D03*
Y02444D03*
Y02385D03*
Y02326D03*
Y02267D03*
Y02208D03*
Y02149D03*
Y0209D03*
X0272Y02622D03*
Y02563D03*
Y02503D03*
Y02444D03*
Y02385D03*
Y02326D03*
Y02267D03*
Y02208D03*
Y02149D03*
Y0209D03*
X02661Y02622D03*
Y02563D03*
Y02503D03*
Y02444D03*
Y02385D03*
Y02326D03*
Y02267D03*
Y02208D03*
Y02149D03*
Y0209D03*
X02602Y02563D03*
Y02503D03*
Y02444D03*
Y02385D03*
Y02326D03*
Y02267D03*
Y02208D03*
Y02149D03*
Y0209D03*
X02543Y02563D03*
Y02503D03*
Y02444D03*
Y02385D03*
Y02326D03*
Y02267D03*
Y02208D03*
Y02149D03*
X02484Y02563D03*
Y02503D03*
Y02444D03*
Y02385D03*
Y02326D03*
Y02267D03*
Y02208D03*
X02425Y02563D03*
Y02503D03*
Y02444D03*
Y02385D03*
Y02326D03*
Y02267D03*
Y02208D03*
X02366Y02503D03*
Y02444D03*
Y02385D03*
Y02326D03*
Y02267D03*
Y02208D03*
Y02149D03*
X02307Y02208D03*
Y02149D03*
X02248Y02208D03*
X02129D03*
Y02149D03*
X00653Y03645D03*
X00732D03*
Y03881D03*
X00811Y03803D03*
Y03881D03*
Y0396D03*
X00889Y03645D03*
Y03724D03*
Y03803D03*
Y03881D03*
Y0396D03*
X00968Y03724D03*
Y03881D03*
X01047Y03645D03*
Y03803D03*
Y0396D03*
X01126Y03645D03*
Y03803D03*
Y0396D03*
X01204Y03645D03*
Y03724D03*
Y03803D03*
X01283Y03645D03*
Y03724D03*
Y03881D03*
Y0396D03*
X01362Y03645D03*
Y03724D03*
Y03803D03*
Y0396D03*
X0144Y03645D03*
Y03803D03*
Y0396D03*
X01519Y03645D03*
Y03724D03*
Y03803D03*
Y03881D03*
X04669Y03724D03*
X04748Y03881D03*
X04826Y03803D03*
Y03881D03*
Y0396D03*
X04905Y03645D03*
Y03724D03*
Y03881D03*
X04984Y03645D03*
Y03724D03*
Y03881D03*
X05141Y03803D03*
Y03881D03*
Y0396D03*
X0522Y03645D03*
Y03724D03*
Y03881D03*
X05299Y03645D03*
Y0396D03*
X05378Y03881D03*
Y0396D03*
X05456D03*
X04744Y02952D03*
X04547Y02628D03*
X04498Y02588D03*
X0497D03*
X05029D03*
X01775Y03626D03*
Y03685D03*
Y03744D03*
X01834Y03626D03*
Y03685D03*
Y03744D03*
X01893Y03626D03*
Y03685D03*
Y03744D03*
X01952Y03626D03*
Y03685D03*
Y03744D03*
X02011Y03685D03*
Y03744D03*
X0207Y03685D03*
Y03744D03*
X02129Y03685D03*
Y03744D03*
X02248D03*
X02129Y03271D03*
Y0333D03*
Y03448D03*
X02189Y03271D03*
Y0333D03*
Y03389D03*
X02248Y03271D03*
Y0333D03*
Y03389D03*
X02307Y03271D03*
Y0333D03*
Y03389D03*
Y03448D03*
X02366Y03271D03*
Y0333D03*
Y03389D03*
Y03448D03*
X02425Y03271D03*
Y0333D03*
Y03389D03*
Y03507D03*
X02484Y03271D03*
Y0333D03*
Y03389D03*
Y03507D03*
X02543Y03271D03*
Y0333D03*
X02602Y03271D03*
Y0333D03*
Y03389D03*
X02661Y03212D03*
Y03271D03*
Y0333D03*
Y03389D03*
Y03448D03*
X0272Y03212D03*
Y03271D03*
Y0333D03*
Y03389D03*
Y03448D03*
X02779Y03212D03*
Y03271D03*
Y0333D03*
Y03389D03*
Y03448D03*
X02838Y03212D03*
Y03271D03*
Y0333D03*
Y03389D03*
Y03448D03*
X02897Y03212D03*
Y03271D03*
Y0333D03*
Y03389D03*
Y03448D03*
X01485Y02924D03*
X01545Y02923D03*
X00649Y01309D03*
X00866Y01279D03*
X05378Y07503D03*
Y07582D03*
Y07661D03*
Y07897D03*
X05456D03*
X05614Y07503D03*
Y07582D03*
Y07661D03*
Y0774D03*
X05692Y07582D03*
Y0774D03*
X05771Y07661D03*
Y07818D03*
X0585Y07503D03*
Y07661D03*
Y0774D03*
Y07818D03*
Y07897D03*
X05299Y06716D03*
Y06795D03*
Y06874D03*
Y07031D03*
Y0711D03*
X05378Y06637D03*
Y06716D03*
Y06795D03*
Y07031D03*
Y0711D03*
X05456Y06716D03*
Y06952D03*
X05535Y06716D03*
Y06874D03*
Y06952D03*
Y0711D03*
X05614Y06716D03*
Y07031D03*
X05692Y06637D03*
Y06716D03*
Y06952D03*
Y07031D03*
X04748Y06559D03*
Y06637D03*
X04905Y06322D03*
Y06559D03*
Y06637D03*
X04984Y06401D03*
Y0648D03*
X05063Y06401D03*
Y0648D03*
Y06559D03*
X05299Y06637D03*
Y05141D03*
Y0522D03*
Y05299D03*
X05378D03*
X05456Y04905D03*
Y04984D03*
Y0522D03*
X05535Y04905D03*
Y05299D03*
X05614Y05063D03*
Y05141D03*
X05692Y04984D03*
Y05063D03*
Y0522D03*
X04748Y07425D03*
Y07661D03*
Y0774D03*
Y07976D03*
X04826Y07582D03*
X04905D03*
Y07661D03*
Y07818D03*
Y07976D03*
X04984Y07425D03*
Y07661D03*
Y08055D03*
X05063Y07503D03*
Y07582D03*
Y07897D03*
Y08055D03*
X05141Y07425D03*
Y07661D03*
Y08055D03*
X05299Y0585D03*
Y05929D03*
Y06007D03*
Y06165D03*
X05378Y06086D03*
X05456Y0585D03*
Y06086D03*
X05535D03*
X05614Y0585D03*
Y06086D03*
X05692Y0585D03*
Y06086D03*
Y06165D03*
X0585Y06637D03*
Y06716D03*
Y06952D03*
Y07031D03*
X05929Y06637D03*
Y06716D03*
Y06795D03*
Y06874D03*
Y06952D03*
Y07031D03*
X06007Y06637D03*
Y06716D03*
Y06952D03*
Y07031D03*
X06086Y06637D03*
Y06716D03*
Y06952D03*
Y07031D03*
X0585Y05771D03*
Y0585D03*
Y06086D03*
Y06165D03*
X05929Y05771D03*
Y0585D03*
Y05929D03*
Y06007D03*
Y06086D03*
Y06165D03*
X06007Y05771D03*
Y0585D03*
Y06086D03*
Y06165D03*
X06086Y05771D03*
Y0585D03*
Y06086D03*
Y06165D03*
X04511Y04905D03*
Y04984D03*
X0459Y04826D03*
Y04905D03*
Y05063D03*
X04669Y04905D03*
Y04984D03*
X04748Y04748D03*
Y04826D03*
Y04905D03*
Y04984D03*
X04826Y04748D03*
Y04826D03*
Y04984D03*
Y05063D03*
X04984Y04748D03*
X0396Y02444D03*
Y02503D03*
Y02563D03*
X04019Y02444D03*
Y02503D03*
Y02563D03*
X04078Y02326D03*
Y02444D03*
Y02503D03*
Y02563D03*
X04137Y02326D03*
Y02385D03*
Y02444D03*
Y02503D03*
Y02563D03*
X04196Y02326D03*
Y02385D03*
Y02444D03*
Y02503D03*
Y02563D03*
X04255Y02267D03*
Y02326D03*
Y02385D03*
Y02444D03*
Y02503D03*
Y02563D03*
X04315Y02208D03*
Y02267D03*
Y02326D03*
Y02385D03*
Y02444D03*
Y02503D03*
Y02563D03*
X04374Y02208D03*
Y02267D03*
Y02444D03*
Y02503D03*
Y02563D03*
X04196Y06007D03*
Y06086D03*
Y06165D03*
X04354Y06086D03*
X04433D03*
X04354Y06165D03*
X04275Y06244D03*
X04433D03*
X04275Y06322D03*
X04511Y06401D03*
X04196Y06244D03*
Y06322D03*
X04275Y06007D03*
Y06086D03*
Y06165D03*
X04354Y06007D03*
Y06244D03*
X04433Y06007D03*
Y06165D03*
X04511D03*
Y06244D03*
Y06322D03*
X00968Y0459D03*
Y04669D03*
Y04905D03*
Y04984D03*
Y05063D03*
X01047Y0459D03*
Y04905D03*
Y04984D03*
Y05063D03*
X01126Y0459D03*
Y04669D03*
Y04748D03*
Y04826D03*
Y04905D03*
Y04984D03*
Y05063D03*
X01204Y0459D03*
Y04669D03*
Y04748D03*
Y04826D03*
Y04905D03*
Y04984D03*
Y05063D03*
X01283Y0459D03*
Y04669D03*
Y04748D03*
Y04826D03*
Y04905D03*
Y04984D03*
Y05063D03*
G54D45*
X01742Y02795D03*
X00167Y00787D03*
X00177Y00629D03*
X04655Y02805D03*
X04852D03*
X05712Y00702D03*
X05807Y00895D03*
X06023Y00984D03*
X0558Y01279D03*
X0561Y01801D03*
X05679Y01279D03*
X05329Y01269D03*
X05295Y01437D03*
X05561Y01427D03*
X05728Y0057D03*
X05511Y00649D03*
X05334Y00974D03*
X0557D03*
X056Y00895D03*
X05472Y00826D03*
X05629Y00708D03*
X04419Y02844D03*
X04616Y02746D03*
X04911Y01948D03*
X0497Y0187D03*
X04862Y02716D03*
X04761Y02687D03*
X0496Y02854D03*
X01446Y02805D03*
X01663Y02795D03*
X0123D03*
X00492Y01702D03*
Y01318D03*
X0058Y01437D03*
X0057Y01653D03*
X05679Y01702D03*
X05511Y01954D03*
X05246Y0187D03*
X00698Y01919D03*
X00964Y0184D03*
X00669Y01437D03*
X00935D03*
X01328Y01919D03*
Y02637D03*
X01417Y01919D03*
X01456Y02647D03*
X00433Y00787D03*
Y00649D03*
X00502Y00944D03*
X00563Y00893D03*
X006Y01033D03*
X00876D03*
X00743Y00831D03*
M02*