%FSTAX23Y23*%
%MOIN*%
%SFA1B1*%

%IPPOS*%
%AMD71*
4,1,8,0.059100,0.049200,-0.059100,0.049200,-0.068900,0.039400,-0.068900,-0.039400,-0.059100,-0.049200,0.059100,-0.049200,0.068900,-0.039400,0.068900,0.039400,0.059100,0.049200,0.0*
1,1,0.019600,0.059100,0.039400*
1,1,0.019600,-0.059100,0.039400*
1,1,0.019600,-0.059100,-0.039400*
1,1,0.019600,0.059100,-0.039400*
%
%AMD72*
4,1,8,-0.049200,0.059100,-0.049200,-0.059100,-0.039400,-0.068900,0.039400,-0.068900,0.049200,-0.059100,0.049200,0.059100,0.039400,0.068900,-0.039400,0.068900,-0.049200,0.059100,0.0*
1,1,0.019600,-0.039400,0.059100*
1,1,0.019600,-0.039400,-0.059100*
1,1,0.019600,0.039400,-0.059100*
1,1,0.019600,0.039400,0.059100*
%
G04~CAMADD=71~8~0.0~0.0~1378.0~984.0~98.0~0.0~15~0.0~0.0~0.0~0.0~0~0.0~0.0~0.0~0.0~0~0.0~0.0~0.0~0.0~1378.0~984.0*
%ADD71D71*%
G04~CAMADD=72~8~0.0~0.0~1378.0~984.0~98.0~0.0~15~0.0~0.0~0.0~0.0~0~0.0~0.0~0.0~0.0~0~0.0~0.0~0.0~90.0~984.0~1378.0*
%ADD72D72*%
%ADD73O,0.031600X0.065100*%
%ADD74R,0.031600X0.065100*%
%ADD75R,0.051300X0.080800*%
%ADD76R,0.067100X0.043400*%
%ADD77R,0.049300X0.039500*%
%ADD78R,0.053300X0.118200*%
%ADD79R,0.051300X0.047400*%
%ADD80R,0.047400X0.051300*%
%ADD81R,0.094000X0.110200*%
%ADD82R,0.047400X0.114300*%
%ADD83R,0.137900X0.114300*%
%ADD84R,0.086700X0.069000*%
%ADD85R,0.069000X0.086700*%
%ADD86R,0.031600X0.069000*%
%ADD87O,0.031600X0.069000*%
%ADD88R,0.076900X0.051300*%
%ADD89C,0.103000*%
%ADD90C,0.088000*%
%ADD91C,0.208800*%
%ADD92C,0.145800*%
%ADD93R,0.145800X0.145800*%
%ADD94C,0.098600*%
%ADD95R,0.098600X0.098600*%
%ADD96R,0.057900X0.057900*%
%ADD97C,0.057900*%
%ADD98C,0.106400*%
%ADD99R,0.106400X0.106400*%
%ADD100R,0.061500X0.061500*%
%ADD101C,0.061500*%
%ADD102R,0.091000X0.091000*%
%ADD103C,0.091000*%
%ADD104C,0.043400*%
%ADD105C,0.055200*%
%LNr100.230.010.000-00_invertor-1*%
%LPD*%
G54D71*
X03051Y07106D03*
X03208D03*
X03523D03*
X03366D03*
X03681D03*
X02893D03*
X02578D03*
X02736D03*
X02421D03*
X02263D03*
X02106D03*
X01791D03*
X01948D03*
X01633D03*
X01476Y0687D03*
Y06752D03*
X01633D03*
Y0687D03*
Y06988D03*
X01948D03*
Y0687D03*
Y06752D03*
Y06633D03*
X01791Y06752D03*
Y0687D03*
Y06988D03*
X02106Y06633D03*
Y06752D03*
Y0687D03*
Y06988D03*
X02263D03*
Y0687D03*
Y06752D03*
Y06633D03*
X02421D03*
Y06752D03*
Y0687D03*
Y06988D03*
X02736D03*
Y0687D03*
Y06752D03*
Y06633D03*
X02578D03*
Y06752D03*
Y0687D03*
Y06988D03*
X02893Y06633D03*
Y06752D03*
Y0687D03*
Y06988D03*
X03838Y07106D03*
X05098Y06988D03*
Y07106D03*
X0494D03*
X04783D03*
X04626D03*
X04468D03*
X04311D03*
X04153Y06988D03*
Y07106D03*
X03996D03*
Y06988D03*
Y0687D03*
X03681Y06988D03*
Y0687D03*
Y06752D03*
Y06633D03*
X03838D03*
Y06752D03*
Y0687D03*
Y06988D03*
X03366D03*
Y0687D03*
Y06752D03*
Y06633D03*
X03523D03*
Y06752D03*
Y0687D03*
Y06988D03*
X03208D03*
Y0687D03*
Y06752D03*
Y06633D03*
X03051D03*
Y06752D03*
Y0687D03*
Y06988D03*
G54D72*
X00196Y05728D03*
X00315D03*
X00433D03*
X00551D03*
Y0557D03*
X00433D03*
X00315D03*
X00196D03*
X00669D03*
Y05728D03*
Y06515D03*
Y062D03*
Y06358D03*
Y06043D03*
Y05885D03*
X00196D03*
X00315D03*
X00433D03*
X00551D03*
Y06043D03*
X00433D03*
X00315D03*
X00196D03*
Y06358D03*
X00315D03*
X00433D03*
X00551D03*
Y062D03*
X00433D03*
X00315D03*
X00196D03*
X00551Y06515D03*
X00433D03*
X00315D03*
X00196D03*
X00433Y05413D03*
X00315D03*
X00196D03*
Y05255D03*
Y0437D03*
Y04212D03*
X00315D03*
X00669Y04055D03*
X00196D03*
X00315D03*
X00433D03*
X00551D03*
X00196Y03897D03*
X00315D03*
X00433D03*
X00551D03*
X00315Y0374D03*
X00433D03*
X00551D03*
X05334Y04252D03*
X05452D03*
X0557D03*
X05689D03*
X05807D03*
X05334Y04094D03*
X05452D03*
X0557D03*
X05689D03*
X05807D03*
X0557Y03937D03*
X05689D03*
X05807D03*
X0557Y03779D03*
X05689D03*
X05807D03*
X05216Y04094D03*
Y04252D03*
X05807Y04409D03*
Y04566D03*
X05689Y04409D03*
Y04566D03*
X0557Y04409D03*
G54D73*
X01646Y03079D03*
X01596D03*
X01546D03*
X01496D03*
X01446D03*
X01396D03*
X01346D03*
X01646Y02865D03*
X01596D03*
X01546D03*
X01496D03*
X01446D03*
X01396D03*
X04835Y03119D03*
X04785D03*
X04735D03*
X04685D03*
X04635D03*
X04585D03*
X04535D03*
X04835Y02904D03*
X04785D03*
X04735D03*
X04685D03*
X04635D03*
X04585D03*
G54D74*
X01346Y02865D03*
X04535Y02904D03*
G54D75*
X01738Y03986D03*
X01864D03*
X01816Y03405D03*
X01942D03*
X01748Y02263D03*
X01874D03*
X01708Y01929D03*
X01834D03*
X04364Y03267D03*
X04238D03*
X04531Y03937D03*
X04405D03*
X04452Y02066D03*
X04326D03*
X04531Y02362D03*
X04405D03*
G54D76*
X05689Y01635D03*
Y01553D03*
X00492Y01655D03*
Y01572D03*
G54D77*
X00689Y00749D03*
Y00688D03*
X00777Y00749D03*
Y00688D03*
X05433Y00758D03*
Y00697D03*
X05521Y00758D03*
Y00697D03*
G54D78*
X01378Y03248D03*
X01514D03*
X04567Y03287D03*
X04703D03*
G54D79*
X00708Y00883D03*
Y00946D03*
X00777Y00883D03*
Y00946D03*
X05423Y00883D03*
Y00946D03*
X05492Y00883D03*
Y00946D03*
G54D80*
X00805Y01889D03*
X00868D03*
X05372Y01909D03*
X05435D03*
X00563Y00679D03*
X005D03*
X05568Y006D03*
X05631D03*
G54D81*
X00241Y00645D03*
X00365D03*
X00241Y00785D03*
X00365D03*
X05804Y00658D03*
X05928D03*
X05804Y00798D03*
X05928D03*
G54D82*
X00907Y0169D03*
X00816D03*
X00726D03*
X05484Y01759D03*
X05393D03*
X05303D03*
G54D83*
X00816Y01458D03*
X05393Y01527D03*
G54D84*
X017Y03878D03*
X01881D03*
X017Y02401D03*
X01881D03*
X04421Y03385D03*
X0424D03*
X045Y01948D03*
X04318D03*
G54D85*
X0123Y03072D03*
Y02891D03*
X01761Y03053D03*
Y02872D03*
X04419Y03102D03*
Y02921D03*
X0496Y03102D03*
Y02921D03*
G54D86*
X00673Y01044D03*
X05377Y01054D03*
G54D87*
X00723Y01044D03*
X00773D03*
X00823D03*
X00673Y01258D03*
X00723D03*
X00773D03*
X00823D03*
X05427Y01054D03*
X05477D03*
X05527D03*
X05377Y01268D03*
X05427D03*
X05477D03*
X05527D03*
G54D88*
X00492Y01369D03*
Y01504D03*
X05689Y01349D03*
Y01485D03*
G54D89*
X04613Y00708D03*
X04813D03*
X02844Y06338D03*
Y06138D03*
X01365Y00669D03*
X01565D03*
X05954Y05354D03*
Y05554D03*
G54D90*
X00708Y02303D03*
Y03779D03*
X05472Y02204D03*
Y03681D03*
G54D91*
X02423Y05133D03*
Y0301D03*
X03793Y03014D03*
Y05137D03*
X02423Y02814D03*
Y0069D03*
X03793Y00694D03*
Y02817D03*
G54D92*
X01023Y04763D03*
Y07263D03*
X0495Y0499D03*
X04409Y06358D03*
X05078Y07755D03*
X01673Y06023D03*
G54D93*
X00629Y04763D03*
Y07263D03*
X05344Y0499D03*
X04803Y06358D03*
X05472Y07755D03*
X01279Y06023D03*
G54D94*
X04009Y02359D03*
Y02144D03*
X02202Y0193D03*
Y02144D03*
Y03465D03*
Y0368D03*
X04009Y03894D03*
Y0368D03*
G54D95*
X04009Y0193D03*
X02202Y02359D03*
Y03894D03*
X04009Y03465D03*
G54D96*
X05492Y00433D03*
X00669D03*
G54D97*
X0557Y00433D03*
X05649D03*
X05728D03*
X05807D03*
X05886D03*
X0059D03*
X00511D03*
X00433D03*
X00354D03*
X00275D03*
G54D98*
X06043Y05984D03*
X05846D03*
X05649D03*
X05452Y0685D03*
X05649D03*
X05846D03*
G54D99*
X05452Y05984D03*
X06043Y0685D03*
G54D100*
X00236Y00965D03*
X05807Y00984D03*
G54D101*
X00236Y01065D03*
Y01365D03*
Y01465D03*
Y01565D03*
X05807Y01084D03*
Y01384D03*
Y01484D03*
Y01584D03*
G54D102*
X0373Y07422D03*
G54D103*
X0373Y07578D03*
Y07734D03*
G54D104*
X01283Y05063D03*
Y04984D03*
Y04905D03*
Y04826D03*
Y04748D03*
Y04669D03*
Y0459D03*
X01204Y05063D03*
Y04984D03*
Y04905D03*
Y04826D03*
Y04748D03*
Y04669D03*
Y0459D03*
X01126Y05063D03*
Y04984D03*
Y04905D03*
Y04826D03*
Y04748D03*
Y04669D03*
Y0459D03*
X01047Y05063D03*
Y04984D03*
Y04905D03*
Y0459D03*
X00968Y05063D03*
Y04984D03*
Y04905D03*
Y04669D03*
Y0459D03*
X04511Y06322D03*
Y06244D03*
Y06165D03*
X04433D03*
Y06007D03*
X04354Y06244D03*
Y06007D03*
X04275Y06165D03*
Y06086D03*
Y06007D03*
X04196Y06322D03*
Y06244D03*
X04511Y06401D03*
X04275Y06322D03*
X04433Y06244D03*
X04275D03*
X04354Y06165D03*
X04433Y06086D03*
X04354D03*
X04196Y06165D03*
Y06086D03*
Y06007D03*
X04374Y02563D03*
Y02503D03*
Y02444D03*
Y02267D03*
Y02208D03*
X04315Y02563D03*
Y02503D03*
Y02444D03*
Y02385D03*
Y02326D03*
Y02267D03*
Y02208D03*
X04255Y02563D03*
Y02503D03*
Y02444D03*
Y02385D03*
Y02326D03*
Y02267D03*
X04196Y02563D03*
Y02503D03*
Y02444D03*
Y02385D03*
Y02326D03*
X04137Y02563D03*
Y02503D03*
Y02444D03*
Y02385D03*
Y02326D03*
X04078Y02563D03*
Y02503D03*
Y02444D03*
Y02326D03*
X04019Y02563D03*
Y02503D03*
Y02444D03*
X0396Y02563D03*
Y02503D03*
Y02444D03*
X04984Y04748D03*
X04826Y05063D03*
Y04984D03*
Y04826D03*
Y04748D03*
X04748Y04984D03*
Y04905D03*
Y04826D03*
Y04748D03*
X04669Y04984D03*
Y04905D03*
X0459Y05063D03*
Y04905D03*
Y04826D03*
X04511Y04984D03*
Y04905D03*
X06086Y06165D03*
Y06086D03*
Y0585D03*
Y05771D03*
X06007Y06165D03*
Y06086D03*
Y0585D03*
Y05771D03*
X05929Y06165D03*
Y06086D03*
Y06007D03*
Y05929D03*
Y0585D03*
Y05771D03*
X0585Y06165D03*
Y06086D03*
Y0585D03*
Y05771D03*
X06086Y07031D03*
Y06952D03*
Y06716D03*
Y06637D03*
X06007Y07031D03*
Y06952D03*
Y06716D03*
Y06637D03*
X05929Y07031D03*
Y06952D03*
Y06874D03*
Y06795D03*
Y06716D03*
Y06637D03*
X0585Y07031D03*
Y06952D03*
Y06716D03*
Y06637D03*
X05692Y06165D03*
Y06086D03*
Y0585D03*
X05614Y06086D03*
Y0585D03*
X05535Y06086D03*
X05456D03*
Y0585D03*
X05378Y06086D03*
X05299Y06165D03*
Y06007D03*
Y05929D03*
Y0585D03*
X05141Y08055D03*
Y07661D03*
Y07425D03*
X05063Y08055D03*
Y07897D03*
Y07582D03*
Y07503D03*
X04984Y08055D03*
Y07661D03*
Y07425D03*
X04905Y07976D03*
Y07818D03*
Y07661D03*
Y07582D03*
X04826D03*
X04748Y07976D03*
Y0774D03*
Y07661D03*
Y07425D03*
X05692Y0522D03*
Y05063D03*
Y04984D03*
X05614Y05141D03*
Y05063D03*
X05535Y05299D03*
Y04905D03*
X05456Y0522D03*
Y04984D03*
Y04905D03*
X05378Y05299D03*
X05299D03*
Y0522D03*
Y05141D03*
Y06637D03*
X05063Y06559D03*
Y0648D03*
Y06401D03*
X04984Y0648D03*
Y06401D03*
X04905Y06637D03*
Y06559D03*
Y06322D03*
X04748Y06637D03*
Y06559D03*
X05692Y07031D03*
Y06952D03*
Y06716D03*
Y06637D03*
X05614Y07031D03*
Y06716D03*
X05535Y0711D03*
Y06952D03*
Y06874D03*
Y06716D03*
X05456Y06952D03*
Y06716D03*
X05378Y0711D03*
Y07031D03*
Y06795D03*
Y06716D03*
Y06637D03*
X05299Y0711D03*
Y07031D03*
Y06874D03*
Y06795D03*
Y06716D03*
X0585Y07897D03*
Y07818D03*
Y0774D03*
Y07661D03*
Y07503D03*
X05771Y07818D03*
Y07661D03*
X05692Y0774D03*
Y07582D03*
X05614Y0774D03*
Y07661D03*
Y07582D03*
Y07503D03*
X05456Y07897D03*
X05378D03*
Y07661D03*
Y07582D03*
Y07503D03*
X00866Y01279D03*
X00649Y01309D03*
X01545Y02923D03*
X01485Y02924D03*
X02897Y03448D03*
Y03389D03*
Y0333D03*
Y03271D03*
Y03212D03*
X02838Y03448D03*
Y03389D03*
Y0333D03*
Y03271D03*
Y03212D03*
X02779Y03448D03*
Y03389D03*
Y0333D03*
Y03271D03*
Y03212D03*
X0272Y03448D03*
Y03389D03*
Y0333D03*
Y03271D03*
Y03212D03*
X02661Y03448D03*
Y03389D03*
Y0333D03*
Y03271D03*
Y03212D03*
X02602Y03389D03*
Y0333D03*
Y03271D03*
X02543Y0333D03*
Y03271D03*
X02484Y03507D03*
Y03389D03*
Y0333D03*
Y03271D03*
X02425Y03507D03*
Y03389D03*
Y0333D03*
Y03271D03*
X02366Y03448D03*
Y03389D03*
Y0333D03*
Y03271D03*
X02307Y03448D03*
Y03389D03*
Y0333D03*
Y03271D03*
X02248Y03389D03*
Y0333D03*
Y03271D03*
X02189Y03389D03*
Y0333D03*
Y03271D03*
X02129Y03448D03*
Y0333D03*
Y03271D03*
X02248Y03744D03*
X02129D03*
Y03685D03*
X0207Y03744D03*
Y03685D03*
X02011Y03744D03*
Y03685D03*
X01952Y03744D03*
Y03685D03*
Y03626D03*
X01893Y03744D03*
Y03685D03*
Y03626D03*
X01834Y03744D03*
Y03685D03*
Y03626D03*
X01775Y03744D03*
Y03685D03*
Y03626D03*
X05029Y02588D03*
X0497D03*
X04498D03*
X04547Y02628D03*
X04744Y02952D03*
X05456Y0396D03*
X05378D03*
Y03881D03*
X05299Y0396D03*
Y03645D03*
X0522Y03881D03*
Y03724D03*
Y03645D03*
X05141Y0396D03*
Y03881D03*
Y03803D03*
X04984Y03881D03*
Y03724D03*
Y03645D03*
X04905Y03881D03*
Y03724D03*
Y03645D03*
X04826Y0396D03*
Y03881D03*
Y03803D03*
X04748Y03881D03*
X04669Y03724D03*
X01519Y03881D03*
Y03803D03*
Y03724D03*
Y03645D03*
X0144Y0396D03*
Y03803D03*
Y03645D03*
X01362Y0396D03*
Y03803D03*
Y03724D03*
Y03645D03*
X01283Y0396D03*
Y03881D03*
Y03724D03*
Y03645D03*
X01204Y03803D03*
Y03724D03*
Y03645D03*
X01126Y0396D03*
Y03803D03*
Y03645D03*
X01047Y0396D03*
Y03803D03*
Y03645D03*
X00968Y03881D03*
Y03724D03*
X00889Y0396D03*
Y03881D03*
Y03803D03*
Y03724D03*
Y03645D03*
X00811Y0396D03*
Y03881D03*
Y03803D03*
X00732Y03881D03*
Y03645D03*
X00653D03*
X02129Y02149D03*
Y02208D03*
X02248D03*
X02307Y02149D03*
Y02208D03*
X02366Y02149D03*
Y02208D03*
Y02267D03*
Y02326D03*
Y02385D03*
Y02444D03*
Y02503D03*
X02425Y02208D03*
Y02267D03*
Y02326D03*
Y02385D03*
Y02444D03*
Y02503D03*
Y02563D03*
X02484Y02208D03*
Y02267D03*
Y02326D03*
Y02385D03*
Y02444D03*
Y02503D03*
Y02563D03*
X02543Y02149D03*
Y02208D03*
Y02267D03*
Y02326D03*
Y02385D03*
Y02444D03*
Y02503D03*
Y02563D03*
X02602Y0209D03*
Y02149D03*
Y02208D03*
Y02267D03*
Y02326D03*
Y02385D03*
Y02444D03*
Y02503D03*
Y02563D03*
X02661Y0209D03*
Y02149D03*
Y02208D03*
Y02267D03*
Y02326D03*
Y02385D03*
Y02444D03*
Y02503D03*
Y02563D03*
Y02622D03*
X0272Y0209D03*
Y02149D03*
Y02208D03*
Y02267D03*
Y02326D03*
Y02385D03*
Y02444D03*
Y02503D03*
Y02563D03*
Y02622D03*
X02779Y0209D03*
Y02149D03*
Y02208D03*
Y02267D03*
Y02326D03*
Y02385D03*
Y02444D03*
Y02503D03*
Y02563D03*
Y02622D03*
X02838Y0209D03*
Y02149D03*
Y02208D03*
Y02267D03*
Y02326D03*
Y02385D03*
Y02444D03*
Y02503D03*
Y02563D03*
Y02622D03*
X02897Y0209D03*
Y02149D03*
Y02208D03*
Y02267D03*
Y02326D03*
Y02385D03*
Y02444D03*
Y02503D03*
Y02563D03*
Y02622D03*
X01244Y00407D03*
Y00486D03*
Y00565D03*
Y00643D03*
Y00722D03*
Y00801D03*
Y00879D03*
Y00958D03*
Y01037D03*
Y01116D03*
Y01194D03*
Y01273D03*
Y01352D03*
X01322Y00328D03*
Y00407D03*
Y00486D03*
Y00565D03*
Y00801D03*
Y00879D03*
Y00958D03*
Y01037D03*
Y01116D03*
Y01194D03*
Y01273D03*
Y01352D03*
X01401Y00328D03*
Y00486D03*
Y00565D03*
Y00801D03*
Y00879D03*
Y00958D03*
Y01037D03*
Y01116D03*
Y01194D03*
Y01273D03*
Y01352D03*
X0148Y00328D03*
Y00486D03*
Y00565D03*
Y00801D03*
Y00879D03*
Y00958D03*
Y01037D03*
Y01116D03*
Y01194D03*
Y01273D03*
Y01352D03*
X01559Y00328D03*
Y00407D03*
Y00486D03*
Y00565D03*
Y00801D03*
Y00879D03*
Y00958D03*
Y01037D03*
Y01116D03*
Y01194D03*
Y01273D03*
Y01352D03*
X01637Y00328D03*
Y00407D03*
Y00486D03*
Y00565D03*
Y00643D03*
Y00722D03*
Y00801D03*
Y00879D03*
Y00958D03*
Y01037D03*
Y01116D03*
Y01194D03*
Y01273D03*
Y01352D03*
X01716Y00328D03*
Y00407D03*
Y00486D03*
X03606Y04098D03*
Y04157D03*
Y04216D03*
Y04275D03*
X03665Y04157D03*
Y04275D03*
X03724Y04098D03*
Y04216D03*
Y04275D03*
X03783Y04157D03*
Y04275D03*
X03842Y03921D03*
Y04039D03*
Y04098D03*
Y04157D03*
X03901Y04216D03*
X0396Y04098D03*
X04019Y0398D03*
Y04039D03*
Y04098D03*
X04078Y03862D03*
Y0398D03*
X03133Y0333D03*
Y03389D03*
X03192Y03271D03*
Y03507D03*
Y03566D03*
Y03626D03*
X03252Y03566D03*
X03311Y03212D03*
Y03389D03*
Y03448D03*
Y03507D03*
Y03566D03*
Y03626D03*
X0337Y03271D03*
Y03389D03*
Y03448D03*
Y03507D03*
Y03566D03*
X03429Y03271D03*
X03547D03*
X03133Y01854D03*
Y02031D03*
Y02149D03*
Y02208D03*
Y02267D03*
X03192Y02031D03*
Y02208D03*
Y02267D03*
X03252Y01972D03*
Y02267D03*
Y02444D03*
Y02563D03*
X03311Y01972D03*
Y02031D03*
Y02149D03*
Y02267D03*
Y02326D03*
Y02385D03*
Y02444D03*
Y02503D03*
Y02622D03*
X0337Y01854D03*
Y0209D03*
Y02149D03*
Y02208D03*
Y02267D03*
Y02326D03*
Y02385D03*
Y02503D03*
Y02563D03*
Y02622D03*
X03429Y01913D03*
Y01972D03*
Y02031D03*
Y0209D03*
X03488Y01854D03*
Y0209D03*
X03547Y01854D03*
Y0209D03*
X03606Y01854D03*
Y01913D03*
Y02031D03*
X03665Y01913D03*
Y01972D03*
Y02031D03*
Y0209D03*
X03724Y01854D03*
Y01913D03*
Y01972D03*
X03783D03*
X03842Y01854D03*
X03901Y0209D03*
Y02149D03*
X04078Y0209D03*
X04137Y02149D03*
X0396Y04157D03*
X03901Y04098D03*
Y04157D03*
X04078Y04039D03*
X0396D03*
X03901Y0398D03*
Y04039D03*
X03842Y04275D03*
Y04216D03*
X03783D03*
Y04039D03*
Y04098D03*
X0396Y0398D03*
X03901Y03921D03*
X04137Y0209D03*
X04078Y02149D03*
X03842Y0398D03*
X03901Y03862D03*
X03842Y0209D03*
X03783Y02031D03*
X03842Y01972D03*
Y02031D03*
Y01913D03*
X03783D03*
X03724Y04157D03*
X03665Y04216D03*
X03724Y04039D03*
X03665Y04098D03*
Y04039D03*
X03606Y0398D03*
Y04039D03*
X03488Y03271D03*
X03724Y02031D03*
X03606Y0209D03*
Y01972D03*
X03547Y03212D03*
Y02031D03*
X03488Y03212D03*
X03547Y01972D03*
X03488Y02031D03*
X03547Y01913D03*
X03488Y01972D03*
Y01913D03*
X03783Y01854D03*
X03665D03*
X0337Y03626D03*
X03252Y03507D03*
X0337Y03212D03*
X03429D03*
X0337Y0333D03*
X03311Y03271D03*
Y0333D03*
Y02563D03*
X03252Y03448D03*
Y03626D03*
X03192Y03448D03*
X03133Y03566D03*
Y03626D03*
Y03448D03*
Y03507D03*
X03252Y03389D03*
Y03271D03*
Y0333D03*
X03192D03*
Y03212D03*
X03252D03*
Y02622D03*
Y02503D03*
X03192D03*
Y03389D03*
X03133Y03271D03*
Y03212D03*
X03192Y02622D03*
Y02563D03*
X03133Y02622D03*
Y02563D03*
Y02503D03*
X0337Y02444D03*
X03429Y02149D03*
X0337Y01972D03*
Y02031D03*
X03252Y02385D03*
X03311Y02208D03*
Y0209D03*
X03252Y02149D03*
X03429Y01854D03*
X0337Y01913D03*
X03311Y01854D03*
Y01913D03*
X03252Y02326D03*
X03192Y02444D03*
Y02326D03*
Y02385D03*
X03252Y0209D03*
Y02208D03*
Y01913D03*
Y02031D03*
X03192Y02149D03*
Y0209D03*
X03133Y02385D03*
Y02444D03*
Y02326D03*
X03192Y01913D03*
Y01972D03*
X03133Y0209D03*
Y01972D03*
X03252Y01854D03*
X03192D03*
X03133Y01913D03*
X01893Y01736D03*
Y01795D03*
Y01854D03*
Y01913D03*
Y01972D03*
Y02031D03*
Y0209D03*
X01952Y01736D03*
Y01795D03*
Y01854D03*
Y01913D03*
Y01972D03*
Y02031D03*
Y0209D03*
X02011Y01736D03*
Y01795D03*
Y01854D03*
Y01913D03*
Y01972D03*
X0207Y01736D03*
Y01795D03*
Y01854D03*
Y01913D03*
Y01972D03*
X02129Y01736D03*
Y01795D03*
Y01854D03*
Y01913D03*
Y01972D03*
X02189Y01736D03*
Y01795D03*
Y01854D03*
X04511Y00338D03*
Y00417D03*
Y00496D03*
Y00574D03*
Y00653D03*
Y00732D03*
Y00811D03*
Y00889D03*
Y00968D03*
Y01047D03*
Y01126D03*
X0459Y00338D03*
Y00417D03*
Y00496D03*
Y00574D03*
Y00811D03*
Y00889D03*
Y00968D03*
Y01047D03*
Y01126D03*
X04669Y00338D03*
Y00417D03*
Y00574D03*
Y00653D03*
Y00811D03*
Y00889D03*
Y00968D03*
Y01047D03*
Y01126D03*
X04748Y00338D03*
Y00417D03*
Y00574D03*
Y00653D03*
Y00811D03*
Y00889D03*
Y00968D03*
Y01047D03*
Y01126D03*
X04826Y00338D03*
Y00417D03*
Y00496D03*
Y00574D03*
Y00811D03*
Y00889D03*
Y00968D03*
Y01047D03*
Y01126D03*
X04905Y00338D03*
Y00417D03*
Y00496D03*
Y00574D03*
Y00653D03*
Y00732D03*
Y00811D03*
Y00889D03*
Y00968D03*
Y01047D03*
Y01126D03*
X03783Y03566D03*
X03842D03*
Y03626D03*
X03901D03*
Y03685D03*
X04078Y03626D03*
Y03685D03*
X04137Y03626D03*
Y03685D03*
X04196Y03566D03*
Y03626D03*
Y03685D03*
X04255Y03566D03*
Y03626D03*
Y03685D03*
Y03744D03*
X04315Y03566D03*
Y03626D03*
Y03685D03*
Y03744D03*
X04374Y03566D03*
Y03626D03*
Y03685D03*
Y03744D03*
X04433Y03566D03*
Y03626D03*
Y03685D03*
Y03744D03*
X04685Y02952D03*
X02543Y03389D03*
X02602Y03448D03*
X02484Y03566D03*
X02425D03*
X02543Y03448D03*
X02484D03*
X02425D03*
X05141Y07976D03*
X05063D03*
X05141Y07897D03*
Y07582D03*
X04984Y07976D03*
Y07897D03*
X04905D03*
X04984Y07818D03*
Y07582D03*
X04905Y0774D03*
X05614Y06244D03*
X05378D03*
X05535D03*
X05456D03*
X05614Y06165D03*
X05535D03*
X05141Y07503D03*
X04984D03*
X05063Y07425D03*
X04905Y08055D03*
X04826Y07897D03*
Y07976D03*
Y07818D03*
X04905Y07503D03*
X04826Y08055D03*
X04748D03*
Y07897D03*
Y07818D03*
X04826Y0774D03*
Y07661D03*
X04748Y07582D03*
X04905Y07425D03*
X04826Y07503D03*
Y07425D03*
X04748Y07503D03*
X05535Y06007D03*
Y05929D03*
Y0585D03*
X05299Y06086D03*
X05378Y0585D03*
X04748Y05063D03*
X04984Y04826D03*
X04905D03*
X04826Y04905D03*
X04905Y04748D03*
X04669D03*
Y05063D03*
X04511D03*
X0459Y04984D03*
X04669Y04826D03*
X0459Y04748D03*
X04511Y04826D03*
Y04748D03*
X05771Y07897D03*
X05692D03*
X0585Y07582D03*
X05771Y0774D03*
Y07582D03*
X05692Y07818D03*
X05614Y07897D03*
Y07818D03*
X05535Y07897D03*
X05692Y07661D03*
X05535Y07582D03*
X05771Y07503D03*
X05692D03*
Y0711D03*
X05535Y07503D03*
X05614Y0711D03*
X05535Y07031D03*
X05614Y06952D03*
Y06637D03*
X05535Y06795D03*
Y06637D03*
X05456Y07503D03*
Y07582D03*
Y07031D03*
Y0711D03*
X05299Y06952D03*
X05378D03*
X05456Y06637D03*
X05063D03*
X04984D03*
Y06559D03*
Y06322D03*
X04826Y06637D03*
X04905Y0648D03*
Y06401D03*
X04826Y0648D03*
Y06559D03*
X04748Y0648D03*
X05614Y05299D03*
Y0522D03*
X05535D03*
X05692Y05141D03*
X05535D03*
X05456Y05299D03*
X05535Y05063D03*
X05456Y05141D03*
Y05063D03*
X05378Y05141D03*
Y0522D03*
X05614Y04984D03*
X05535D03*
X05614Y04905D03*
X05692D03*
X05456Y03803D03*
Y03881D03*
X05378Y03803D03*
X05299Y03881D03*
X05378Y03724D03*
X05299Y03803D03*
X05378Y03645D03*
X05299Y03724D03*
X0522Y0396D03*
X05063Y06322D03*
Y0396D03*
X04984D03*
X05063Y03881D03*
X0522Y03803D03*
X05063D03*
X04984D03*
X04905Y0396D03*
X04669D03*
X04748D03*
X04669Y03881D03*
X05063Y03724D03*
X05141D03*
X04905Y03803D03*
X05063Y03645D03*
X05141D03*
X04748Y03803D03*
X04669D03*
X04826Y03724D03*
X04748D03*
X04669Y03645D03*
X04826D03*
X04748D03*
X00968Y0396D03*
X01519D03*
X0144Y03724D03*
Y03881D03*
X01204Y0396D03*
X01362Y03881D03*
X01204D03*
X01126D03*
X01047D03*
X00732Y0396D03*
X00653Y03881D03*
X01283Y03803D03*
X01047Y03724D03*
X01126D03*
X00968Y03803D03*
X00811Y03724D03*
X00653D03*
X00968Y03645D03*
X00811D03*
X00181Y04748D03*
Y04826D03*
Y04905D03*
Y04984D03*
Y05063D03*
Y05141D03*
Y07189D03*
Y07267D03*
Y07346D03*
Y07425D03*
Y07503D03*
Y07582D03*
X00259Y04748D03*
Y04826D03*
Y04905D03*
Y04984D03*
Y05063D03*
Y05141D03*
Y0711D03*
Y07189D03*
Y07267D03*
Y07346D03*
Y07425D03*
Y07503D03*
Y07582D03*
Y07661D03*
X00338Y04748D03*
Y04826D03*
Y04905D03*
Y04984D03*
Y05063D03*
Y05141D03*
Y0522D03*
Y0711D03*
Y07189D03*
Y07267D03*
Y07346D03*
Y07425D03*
Y07503D03*
Y07582D03*
Y07661D03*
X00417Y04748D03*
Y04826D03*
Y04905D03*
Y04984D03*
Y05063D03*
Y05141D03*
Y0522D03*
Y0711D03*
Y07189D03*
Y07267D03*
Y07346D03*
Y07425D03*
Y07503D03*
Y07582D03*
Y07661D03*
X00496Y04748D03*
Y04826D03*
Y04905D03*
Y04984D03*
Y05063D03*
Y05141D03*
Y0522D03*
Y0711D03*
Y07189D03*
Y07267D03*
Y07346D03*
Y07425D03*
Y07503D03*
Y07582D03*
Y07661D03*
X00574Y04905D03*
Y04984D03*
Y05063D03*
Y05141D03*
Y0522D03*
Y0711D03*
Y07425D03*
Y07503D03*
Y07582D03*
Y07661D03*
X00653Y04905D03*
Y04984D03*
Y05063D03*
Y05141D03*
Y0522D03*
Y0711D03*
Y07425D03*
Y07503D03*
Y07582D03*
Y07661D03*
X00732Y04748D03*
Y04826D03*
Y04905D03*
Y04984D03*
Y05063D03*
Y05141D03*
Y0522D03*
Y07189D03*
Y07267D03*
Y07346D03*
Y07425D03*
Y07503D03*
Y07582D03*
X00811Y05929D03*
Y06007D03*
Y06086D03*
Y06165D03*
Y06244D03*
Y06322D03*
Y06401D03*
X00889Y05929D03*
Y06007D03*
Y06086D03*
Y06165D03*
Y06244D03*
Y06322D03*
Y06401D03*
X00968Y05929D03*
Y06007D03*
Y06086D03*
Y06165D03*
Y06244D03*
Y06322D03*
Y06401D03*
X01047Y05929D03*
Y06007D03*
Y06086D03*
Y06165D03*
Y06244D03*
Y06322D03*
Y06401D03*
X01126Y05929D03*
Y06007D03*
Y06086D03*
Y06165D03*
Y06244D03*
Y06322D03*
Y06401D03*
X01204Y06165D03*
Y06244D03*
Y06322D03*
Y06401D03*
X01283Y05929D03*
Y06165D03*
Y06244D03*
Y06322D03*
Y06401D03*
X01362Y06165D03*
Y06244D03*
Y06322D03*
Y06401D03*
X00968Y07425D03*
Y07503D03*
Y07582D03*
Y07661D03*
X01047Y07425D03*
Y07503D03*
Y07582D03*
Y07661D03*
X01126Y07189D03*
Y07267D03*
Y07346D03*
Y07425D03*
Y07503D03*
Y07582D03*
Y07661D03*
X01204Y07189D03*
Y07267D03*
Y07346D03*
Y07425D03*
Y07503D03*
Y07582D03*
Y07661D03*
X01283Y07189D03*
Y07267D03*
Y07346D03*
Y07425D03*
Y07503D03*
Y07582D03*
Y07661D03*
X01598Y05771D03*
Y0585D03*
Y05929D03*
Y06165D03*
Y06244D03*
Y06322D03*
X01677Y05771D03*
Y0585D03*
Y05929D03*
Y06165D03*
Y06244D03*
Y06322D03*
X01755Y05771D03*
Y0585D03*
Y05929D03*
Y06086D03*
Y06165D03*
Y06244D03*
Y06322D03*
X01834Y05771D03*
Y0585D03*
Y05929D03*
Y06007D03*
Y06086D03*
Y06165D03*
Y06244D03*
Y06322D03*
X01913Y05771D03*
Y0585D03*
Y05929D03*
Y06007D03*
Y06086D03*
Y06165D03*
Y06244D03*
Y06322D03*
G54D105*
X00743Y00831D03*
X00876Y01033D03*
X006D03*
X00563Y00893D03*
X00502Y00944D03*
X00433Y00649D03*
Y00787D03*
X01456Y02647D03*
X01417Y01919D03*
X01328Y02637D03*
Y01919D03*
X00935Y01437D03*
X00669D03*
X00964Y0184D03*
X00698Y01919D03*
X05246Y0187D03*
X05511Y01954D03*
X05679Y01702D03*
X0057Y01653D03*
X0058Y01437D03*
X00492Y01318D03*
Y01702D03*
X0123Y02795D03*
X01663D03*
X01446Y02805D03*
X0496Y02854D03*
X04761Y02687D03*
X04862Y02716D03*
X0497Y0187D03*
X04911Y01948D03*
X04616Y02746D03*
X04419Y02844D03*
X05629Y00708D03*
X05472Y00826D03*
X056Y00895D03*
X0557Y00974D03*
X05334D03*
X05511Y00649D03*
X05728Y0057D03*
X05561Y01427D03*
X05295Y01437D03*
X05329Y01269D03*
X05679Y01279D03*
X0561Y01801D03*
X0558Y01279D03*
X06023Y00984D03*
X05807Y00895D03*
X05712Y00702D03*
X04852Y02805D03*
X04655D03*
X00177Y00629D03*
X00167Y00787D03*
X01742Y02795D03*
M02*