%FSTAX23Y23*%
%MOIN*%
%SFA1B1*%

%IPPOS*%
%ADD15R,0.045300X0.110200*%
%ADD16R,0.043300X0.039400*%
%ADD17R,0.039400X0.043300*%
%ADD26C,0.019700*%
%ADD27C,0.029500*%
%ADD28C,0.039400*%
%ADD29C,0.095000*%
%ADD30C,0.080000*%
%ADD31C,0.200800*%
%ADD32C,0.137800*%
%ADD33R,0.137800X0.137800*%
%ADD34C,0.090600*%
%ADD35R,0.090600X0.090600*%
%ADD36R,0.048000X0.048000*%
%ADD37C,0.048000*%
%ADD38C,0.098400*%
%ADD39R,0.098400X0.098400*%
%ADD40R,0.053500X0.053500*%
%ADD41C,0.053500*%
%ADD43C,0.081000*%
%ADD44C,0.035400*%
%ADD45C,0.047200*%
%ADD46R,0.131100X0.048400*%
%ADD47R,0.048400X0.131100*%
%ADD48R,0.031500X0.041300*%
%ADD49R,0.041300X0.212600*%
%ADD50R,0.212600X0.041300*%
%ADD51R,0.137800X0.041300*%
%ADD52R,0.094500X0.059100*%
%ADD53R,0.059100X0.094500*%
%ADD54R,0.057100X0.074800*%
%ADD55R,0.074800X0.057100*%
%ADD56R,0.096500X0.124000*%
%ADD57R,0.124000X0.096500*%
%LNr100.230.010.000-00_invertor-1*%
%LPD*%
G36*
X02539Y04035D02*
X02913D01*
X02919*
X0293Y04033*
X02941Y04028*
X02951Y04022*
X02959Y04014*
X02965Y04004*
X0297Y03993*
X02972Y03982*
Y03976*
Y0375*
Y03746*
X0297Y03738*
X02968Y03731*
X02963Y03724*
X02958Y03719*
X02951Y03715*
X02944Y03712*
X02938Y0371*
X02933Y0371*
X02578*
X02574*
X02567Y03712*
X0256Y03715*
X02553Y03719*
X02548Y03724*
X02543Y03731*
X0254Y03738*
X02539Y03746*
Y0375*
Y03907*
X02391*
X02387*
X0238Y03909*
X02373Y03912*
X02366Y03916*
X02361Y03921*
X02356Y03928*
X02353Y03935*
X02352Y03943*
Y03946*
Y03996*
Y03999*
X02353Y04007*
X02356Y04014*
X02361Y04021*
X02366Y04026*
X02373Y04031*
X0238Y04033*
X02387Y04035*
X02391*
X02539*
G37*
G36*
X03779Y03818D02*
D01*
X03784Y03818*
X03788Y03817*
X03793Y03815*
X03798Y03812*
X03802Y03808*
X03805Y03803*
X03807Y03798*
X03809Y03792*
Y03789*
Y03759*
Y03756*
X03807Y03751*
X03805Y03745*
X03802Y03741*
X03798Y03736*
X03793Y03733*
X03788Y03731*
X03782Y0373*
X03681*
X03677Y0373*
X03669Y03728*
X03662Y03725*
X03656Y03721*
X0365Y03715*
X03646Y03709*
X03643Y03702*
X03641Y03694*
X03641Y0369*
Y03444*
Y0344*
X03639Y0343*
X03636Y03421*
X0363Y03413*
X03623Y03406*
X03615Y03401*
X03606Y03397*
X03597Y03395*
X03489*
X03479Y03397*
X0347Y03401*
X03462Y03406*
X03455Y03413*
X0345Y03421*
X03446Y0343*
X03444Y0344*
Y03444*
Y03769*
Y03774*
X03446Y03784*
X0345Y03793*
X03455Y03801*
X03462Y03807*
X0347Y03813*
X03479Y03817*
X03489Y03818*
X03494*
X03779*
G37*
G36*
X03811Y04329D02*
X03824Y04326D01*
X03837Y04322*
X0385Y04317*
X03862Y04311*
X03873Y04303*
X03884Y04295*
X03889Y0429*
X04059Y04119*
X04067Y04111*
X04081Y04095*
X04093Y04077*
X04103Y04058*
X04111Y04038*
X04117Y04017*
X04121Y03996*
X04124Y03974*
Y03964*
Y03878*
Y03874*
X04122Y03866*
X04119Y03859*
X04115Y03852*
X04109Y03847*
X04103Y03843*
X04096Y0384*
X0409Y03839*
X03948*
X03938*
X03934Y03838*
X03921*
X03913*
X03897Y03841*
X03883Y03847*
X03869Y03856*
X03864Y03862*
X03842Y03883*
X03836Y03889*
X03823Y03897*
X03808Y03904*
X03793Y03907*
X03785Y03907*
X03444*
X0344Y03907*
X0343Y03905*
X03421Y03901*
X03413Y03896*
X03406Y03889*
X03401Y03881*
X03397Y03872*
X03395Y03863*
X03395Y03858*
Y03376*
X03396Y03368*
X03399Y03353*
X03405Y03338*
X03413Y03326*
X03424Y03315*
X03437Y03306*
X03451Y033*
X03466Y03297*
X03474Y03297*
X03563*
X03568*
X0358Y03295*
X03591Y0329*
X036Y03284*
X03608Y03275*
X03615Y03266*
X03619Y03255*
X03622Y03244*
Y03238*
Y02775*
Y02769*
X03619Y02758*
X03615Y02747*
X03608Y02737*
X036Y02729*
X03591Y02723*
X0358Y02718*
X03568Y02716*
X03563*
X03435*
X03431Y02716*
X03423Y02714*
X03416Y02711*
X0341Y02707*
X03404Y02702*
X034Y02695*
X03397Y02688*
X03396Y02682*
X03395Y02681*
X03395Y02677*
Y02606*
X03395Y02604*
X03395Y02601*
X03395Y02598*
Y02598*
Y02598*
Y02516*
X03395Y02512*
Y02294*
X03395Y02288*
X03397Y02275*
X03399Y02262*
X03402Y0225*
X03407Y02238*
X03413Y02226*
X0342Y02215*
X03428Y02205*
X03432Y022*
X03459Y0217*
X03465Y02165*
X03478Y02155*
X03492Y02149*
X03508Y02146*
X03516Y02145*
X03788*
X03798Y02146*
X03816Y02149*
X03834Y02157*
X0385Y02167*
X03857Y02174*
X0386Y02177*
X03868Y02184*
X03877Y02189*
X03886Y02194*
X03895Y02198*
X03905Y02201*
X03915Y02203*
X03926Y02204*
X03931*
X03995*
X03999Y02204*
X04005*
X0412*
X04128Y02202*
X04137Y02199*
X04145Y02193*
X04152Y02186*
X04157Y02178*
X04161Y02169*
X04163Y0216*
Y02155*
Y02076*
Y02071*
X04161Y02062*
X04157Y02053*
X04152Y02045*
X04145Y02038*
X04137Y02033*
X04128Y02029*
X04119Y02027*
X04114*
X03937*
X03933Y02027*
X03925Y02025*
X03918Y02022*
X03918Y02022*
X03917*
Y02022*
X03912Y02018*
X03906Y02013*
X03902Y02006*
X03899Y01999*
X03898Y01993*
X03897Y01992*
X03897Y01988*
Y01983*
Y01712*
Y01705*
X03895Y01692*
X03889Y0168*
X03882Y01668*
X03872Y01659*
X03861Y01651*
X03848Y01646*
X03835Y01643*
X03828*
X03651*
X03644Y01643*
X03631Y0164*
X03619Y01635*
X03607Y01628*
X03598Y01618*
X0359Y01607*
X03585Y01594*
X03583Y01581*
X03582Y01574*
Y0061*
X03583Y00603*
X03585Y0059*
X0359Y00577*
X03598Y00566*
X03607Y00557*
X03619Y00549*
X03631Y00544*
X03644Y00541*
X03651Y00541*
X04458*
Y01102*
Y01109*
X04461Y01122*
X04466Y01135*
X04474Y01146*
X04483Y01155*
X04494Y01163*
X04507Y01168*
X0452Y01171*
X04527*
X04901*
X04908*
X04921Y01168*
X04934Y01163*
X04945Y01155*
X04955Y01146*
X04962Y01135*
X04967Y01122*
X0497Y01109*
Y01102*
Y00541*
Y00364*
Y00357*
X04967Y00344*
X04962Y00331*
X04955Y0032*
X04945Y0031*
X04934Y00303*
X04921Y00297*
X04908Y00295*
X04901*
X03129*
X03123*
X03109Y00297*
X03097Y00303*
X03086Y0031*
X03076Y0032*
X03068Y00331*
X03063Y00344*
X03061Y00357*
Y00364*
Y01929*
Y04252*
Y04259*
X03064Y04274*
X0307Y04289*
X03078Y04302*
X03089Y04313*
X03102Y04321*
X03116Y04327*
X03132Y0433*
X03139*
X03791*
X03797*
X03811Y04329*
G37*
G36*
X0433Y0436D02*
D01*
X04335Y04359*
X04339Y04359*
X04344Y04356*
X04349Y04353*
X04353Y04349*
X04356Y04344*
X04359Y04339*
X0436Y04333*
Y0433*
Y04312*
X0436Y04305*
X04361Y04291*
X04364Y04277*
X04368Y04263*
X04374Y0425*
X04381Y04237*
X04389Y04225*
X04398Y04214*
X04403Y04209*
X04525Y04087*
X04532Y04079*
X04548Y04066*
X04565Y04055*
X04583Y04045*
X04602Y04037*
X04622Y04031*
X04642Y04027*
X04663Y04025*
X04673Y04025*
X05472*
X05478*
X05489Y04023*
X055Y04018*
X0551Y04012*
X05518Y04004*
X05524Y03994*
X05529Y03983*
X05531Y03972*
Y03966*
Y03592*
Y03589*
X0553Y03583*
X05528Y03578*
X05524Y03573*
X0552Y03569*
X05516Y03566*
X0551Y03564*
X05504Y03563*
X05502*
X05498Y03562*
X0549Y03561*
X05483Y03558*
X05477Y03554*
X05471Y03548*
X05467Y03542*
X05464Y03535*
X05462Y03527*
X05462Y03523*
Y03021*
Y03018*
X05461Y03013*
X05459Y03007*
X05456Y03002*
X05451Y02998*
X05447Y02995*
X05441Y02993*
X05436Y02992*
X05315*
X05312*
X05306Y02993*
X05301Y02995*
X05296Y02998*
X05292Y03002*
X05288Y03007*
X05286Y03013*
X05285Y03018*
Y03021*
Y03513*
X05285Y03518*
X05283Y03528*
X05279Y03537*
X05274Y03545*
X05267Y03551*
X05259Y03557*
X0525Y0356*
X05241Y03562*
X05236Y03563*
X04507*
X04504Y03562*
X04496Y03561*
X04489Y03558*
X04482Y03554*
X04477Y03548*
X04473Y03542*
X0447Y03535*
X04468Y03527*
X04468Y03523*
Y03519*
X04467Y03512*
X04464Y03505*
X04459Y03498*
X04454Y03493*
X04447Y03488*
X0444Y03485*
X04433Y03484*
X04429*
X04389*
X04384Y03484*
X04375Y03482*
X04366Y03478*
X04358Y03473*
X04351Y03466*
X04346Y03458*
X04342Y03449*
X0434Y03439*
X0434Y03435*
Y03002*
Y02999*
X04339Y02993*
X04337Y02988*
X04334Y02983*
X04329Y02979*
X04325Y02975*
X04319Y02973*
X04313Y02972*
X04311*
X04212*
X04209*
X04204Y02973*
X04199Y02975*
X04194Y02978*
X0419Y02982*
X04187Y02987*
X04185Y02992*
X04184Y02997*
Y03*
Y03453*
X04184Y03457*
X04184Y03457*
X04182Y03464*
X04179Y0347*
X04174Y03476*
X04171Y03478*
X04167Y03481*
X0416Y03489*
X04155Y03498*
X04153Y03508*
Y03513*
Y03533*
X04153Y03536*
X04153Y03538*
X04152Y03542*
X0415Y03547*
X04146Y03552*
X04142Y03556*
X04137Y03559*
X04132Y03561*
X04126Y03562*
X04124Y03563*
X03946*
X03946*
X03944Y03562*
X03938Y03561*
X03932Y03559*
X0393Y03558*
X03917*
Y03415*
Y03411*
X03915Y03403*
X03912Y03396*
X03908Y0339*
X03903Y03384*
X03896Y0338*
X03889Y03377*
X03881Y03376*
X03848*
X0375*
X03746*
X03738Y03377*
X03731Y0338*
X03724Y03384*
X03719Y0339*
X03715Y03396*
X03712Y03403*
X0371Y03411*
Y03415*
Y03582*
Y03641*
X0371Y03646*
X03712Y03653*
X03715Y0366*
X03719Y03666*
X03724Y03672*
X03731Y03676*
X03738Y03679*
X03746Y03681*
X0375*
X03776*
X03781*
X03786Y03681*
X03798Y03682*
X03809Y03684*
X03819Y03687*
X0383Y03692*
X0384Y03697*
X03842Y03698*
X03843*
Y03699*
X03849Y03703*
X03858Y0371*
X03862Y03714*
X03878Y03731*
X03885Y03737*
X03901Y03748*
X03919Y03756*
X03938Y03759*
X03948*
X04148*
X04153*
X04159Y0376*
X0417Y03762*
X04181Y03766*
X04191Y03773*
X04199Y03781*
X04205Y03791*
X0421Y03801*
X04212Y03813*
X04212Y03818*
Y04023*
X04212Y04032*
X0421Y04051*
X04206Y0407*
X04201Y04089*
X04193Y04106*
X04184Y04123*
X04174Y04139*
X04161Y04154*
X04155Y04161*
X04124Y04192*
X04088Y04228*
X04083Y04233*
X04074Y04247*
X04068Y04261*
X04065Y04277*
Y04285*
Y0433*
X04065Y04335*
X04066Y04339*
X04068Y04344*
X04071Y04349*
X04075Y04353*
X0408Y04356*
X04085Y04359*
X04091Y0436*
X04094*
X0433*
G37*
G36*
X02007Y0434D02*
X02011D01*
X02019Y04339*
X02026Y04336*
X02033Y04331*
X02038Y04326*
X02042Y04319*
X02045Y04312*
X02047Y04305*
X02047Y04301*
Y04065*
Y03858*
X02047Y03852*
X02049Y03841*
X02054Y0383*
X0206Y0382*
X02068Y03812*
X02078Y03806*
X02089Y03801*
X021Y03799*
X02106Y03799*
X02293*
X02295Y03799*
X02298Y038*
X02301Y03803*
X02303Y03807*
X02303Y03809*
Y03813*
X02306Y0382*
X02311Y03825*
X02318Y03828*
X02322*
X0246*
X02464*
X02471Y03825*
X02477Y0382*
X0248Y03813*
X0248Y03809*
Y03809*
Y0372*
Y03716*
X02477Y03709*
X02471Y03703*
X02465Y03701*
X0246Y037*
X02455*
X02381*
X02352*
X02348Y037*
X0234Y03699*
X02333Y03696*
X02327Y03691*
X02321Y03686*
X02317Y0368*
X02314Y03672*
X02313Y03666*
X02313Y03665*
X02313Y03661*
Y03656*
X02311Y03647*
X02307Y03638*
X02302Y0363*
X02295Y03623*
X02287Y03617*
X02278Y03614*
X02268Y03612*
X02263*
X02027*
X02023Y03612*
X02016Y0361*
X02009Y03607*
X02002Y03603*
X01997Y03597*
X01992Y03591*
X01989Y03584*
X01988Y03577*
X01988Y03576*
X01988Y03572*
Y03061*
Y03057*
X01986Y03049*
X01983Y03042*
X01979Y03035*
X01973Y0303*
X01967Y03026*
X0196Y03023*
X01953Y03021*
X01948Y03021*
X0187*
X01866*
X01858Y03023*
X01851Y03026*
X01845Y0303*
X01839Y03035*
X01835Y03042*
X01832Y03049*
X0183Y03057*
Y03061*
Y03553*
X00925*
X00919Y03552*
X00908Y0355*
X00897Y03546*
X00887Y03539*
X00879Y03531*
X00873Y03521*
X00868Y03511*
X00866Y03499*
X00866Y03494*
Y0312*
Y03116*
X00864Y03108*
X00861Y03101*
X00857Y03095*
X00851Y03089*
X00845Y03085*
X00838Y03082*
X00831Y0308*
X00826Y0308*
X00728*
X00724*
X00716Y03082*
X00709Y03085*
X00703Y03089*
X00697Y03095*
X00693Y03101*
X0069Y03108*
X00689Y03116*
Y0312*
Y03513*
X00688Y03517*
X00687Y03525*
X00684Y03532*
X0068Y03538*
X00674Y03544*
X00668Y03548*
X00661Y03551*
X00654Y03552*
X00653Y03553*
X00649Y03553*
X00645Y03553*
X00638Y03556*
X00632Y03561*
X00629Y03568*
Y03572*
Y03927*
Y03933*
X00632Y03944*
X00636Y03955*
X00643Y03964*
X00651Y03973*
X00661Y03979*
X00671Y03984*
X00683Y03986*
X00689*
X01653*
X01659Y03986*
X0167Y03988*
X01681Y03993*
X01691Y03999*
X01699Y04007*
X01705Y04017*
X0171Y04028*
X01712Y04039*
X01712Y04045*
Y04084*
Y04124*
Y04301*
Y04305*
X01714Y04312*
X01717Y04319*
X01721Y04326*
X01726Y04331*
X01733Y04336*
X0174Y04339*
X01748Y0434*
X01752*
X02007*
G37*
G36*
X04354Y01809D02*
X04363Y01805D01*
X04371Y018*
X04378Y01793*
X04384Y01785*
X04387Y01776*
X04389Y01766*
Y01761*
Y00659*
Y00652*
X04387Y00639*
X04381Y00626*
X04374Y00615*
X04364Y00605*
X04353Y00598*
X04341Y00593*
X04327Y0059*
X0432*
X0372*
X03716*
X03709Y00592*
X03701Y00595*
X03695Y00599*
X03689Y00604*
X03685Y00611*
X03682Y00618*
X03681Y00626*
Y00629*
Y00781*
X03682Y00789*
X03685Y00796*
X03689Y00802*
X03695Y00808*
X03701Y00812*
X03709Y00815*
X03716Y00816*
X0372*
X04084*
X04091Y00817*
X04104Y00819*
X04117Y00825*
X04128Y00832*
X04137Y00842*
X04145Y00853*
X0415Y00865*
X04153Y00879*
X04153Y00885*
Y01761*
Y01766*
X04155Y01776*
X04159Y01785*
X04164Y01793*
X04171Y018*
X04179Y01805*
X04188Y01809*
X04197Y01811*
X04202*
X0434*
X04345*
X04354Y01809*
G37*
G36*
X02037Y01407D02*
X02043D01*
X02054Y01405*
X02065Y014*
X02075Y01394*
X02083Y01386*
X02089Y01376*
X02094Y01365*
X02096Y01354*
Y01348*
Y00885*
X02096Y0088*
X02099Y00868*
X02103Y00858*
X02109Y00848*
X02118Y0084*
X02127Y00833*
X02138Y00829*
X02149Y00827*
X02155Y00826*
X0248*
X02486*
X02497Y00824*
X02508Y0082*
X02518Y00813*
X02526Y00805*
X02532Y00795*
X02537Y00784*
X02539Y00773*
Y00767*
Y00629*
Y00625*
X02537Y00615*
X02533Y00606*
X02528Y00598*
X02521Y00591*
X02513Y00586*
X02504Y00582*
X02495Y0058*
X0249*
X0187*
X01864*
X01852Y00583*
X01842Y00587*
X01832Y00593*
X01824Y00602*
X01817Y00611*
X01813Y00622*
X01811Y00633*
Y00639*
Y01348*
Y01354*
X01813Y01365*
X01817Y01376*
X01824Y01386*
X01832Y01394*
X01842Y014*
X01852Y01405*
X01864Y01407*
X0187*
X02037*
G37*
G36*
X0248Y01998D02*
X02485D01*
X02494Y01996*
X02503Y01992*
X02511Y01987*
X02518Y0198*
X02523Y01972*
X02527Y01963*
X02529Y01953*
Y01948*
Y01466*
Y0146*
X02527Y01449*
X02522Y01438*
X02516Y01428*
X02508Y0142*
X02498Y01414*
X02487Y01409*
X02476Y01407*
X0247*
X0244*
X02435*
X02423Y01409*
X02413Y01414*
X02403Y0142*
X02395Y01428*
X02388Y01438*
X02384Y01449*
X02381Y0146*
Y01466*
Y01958*
Y01962*
X02383Y0197*
X02386Y01977*
X0239Y01983*
X02396Y01989*
X02402Y01993*
X02409Y01996*
X02417Y01998*
X02421*
X0248*
G37*
G36*
X0293Y03609D02*
X02941Y03605D01*
X02951Y03599*
X02959Y0359*
X02965Y03581*
X0297Y0357*
X02972Y03559*
Y03553*
Y02076*
Y00354*
Y00348*
X0297Y00337*
X02965Y00326*
X02959Y00316*
X02951Y00308*
X02941Y00302*
X0293Y00297*
X02919Y00295*
X02913*
X02588*
X01259*
X01254*
X01242Y00297*
X01231Y00302*
X01222Y00308*
X01214Y00316*
X01207Y00326*
X01203Y00337*
X012Y00348*
Y00354*
Y01338*
Y01344*
X01203Y01355*
X01207Y01366*
X01214Y01376*
X01222Y01384*
X01231Y0139*
X01242Y01395*
X01254Y01397*
X01259*
X01614*
X01618Y01397*
X01624*
X01651*
X0166Y01395*
X01671Y0139*
X01681Y01384*
X01689Y01376*
X01696Y01366*
X017Y01355*
X01702Y01344*
Y01338*
Y0059*
X01703Y00584*
X01705Y00573*
X01709Y00562*
X01716Y00553*
X01724Y00544*
X01734Y00538*
X01744Y00534*
X01756Y00531*
X01761Y00531*
X02529*
X02535Y00531*
X02546Y00534*
X02557Y00538*
X02567Y00544*
X02575Y00553*
X02581Y00562*
X02586Y00573*
X02588Y00584*
X02588Y0059*
Y02017*
X02588Y02023*
X02586Y02034*
X02581Y02045*
X02575Y02055*
X02567Y02063*
X02557Y02069*
X02546Y02074*
X02535Y02076*
X02529Y02076*
X02263*
X02259Y02077*
X02254*
X02253*
X02128*
X02118Y02079*
X02107Y02083*
X02098Y0209*
X0209Y02098*
X02083Y02107*
X02079Y02118*
X02076Y0213*
Y02135*
Y02204*
Y0221*
X02079Y02221*
X02083Y02232*
X0209Y02242*
X02098Y0225*
X02107Y02257*
X02118Y02261*
X0213Y02263*
X02135*
X02273*
X02279Y02264*
X0229Y02266*
X02291Y02266*
X02295*
Y02268*
X02301Y0227*
X02311Y02277*
X02319Y02285*
X02325Y02295*
X0233Y02305*
X02332Y02317*
X02332Y02322*
Y02539*
Y02545*
X02334Y02556*
X02339Y02567*
X02345Y02577*
X02354Y02585*
X02363Y02591*
X02374Y02596*
X02385Y02598*
X02391*
X02529*
X02535Y02598*
X02546Y02601*
X02557Y02605*
X02567Y02611*
X02575Y0262*
X02581Y02629*
X02586Y0264*
X02588Y02651*
X02588Y02657*
Y03169*
X02588Y03175*
X02586Y03186*
X02581Y03197*
X02575Y03206*
X02567Y03215*
X02557Y03221*
X02546Y03225*
X02535Y03228*
X02529Y03228*
X02116*
X02111*
X02101Y0323*
X02092Y03233*
X02084Y03239*
X02077Y03246*
X02072Y03254*
X02068Y03263*
X02067Y0327*
Y03481*
X02068Y03488*
X02072Y03497*
X02077Y03505*
X02084Y03512*
X02092Y03518*
X02101Y03521*
X02111Y03523*
X02116*
X02352*
X02357Y03523*
X02366Y03525*
X02375Y03529*
X02383Y03534*
X0239Y03541*
X02395Y03549*
X02399Y03558*
X02401Y03568*
X02401Y03572*
Y03576*
X02403Y03584*
X02406Y03591*
X0241Y03597*
X02415Y03603*
X02422Y03607*
X02429Y0361*
X02437Y03612*
X0244*
X02913*
X02919*
X0293Y03609*
G37*
G36*
X03812Y02408D02*
X03826Y02402D01*
X03839Y02393*
X0385Y02382*
X03859Y0237*
X03865Y02355*
X03868Y0234*
Y02332*
Y02283*
Y02275*
X03865Y0226*
X03859Y02246*
X0385Y02233*
X03839Y02222*
X03826Y02213*
X03812Y02207*
X03797Y02204*
X03563*
X03555*
X0354Y02207*
X03525Y02213*
X03512Y02222*
X03501Y02233*
X03493Y02246*
X03487Y0226*
X03484Y02275*
Y02283*
Y02332*
Y0234*
X03487Y02355*
X03493Y0237*
X03501Y02382*
X03512Y02393*
X03525Y02402*
X0354Y02408*
X03555Y02411*
X03563*
X03789*
X03797*
X03812Y02408*
G37*
G36*
X05659Y07194D02*
X05665D01*
X05676Y07192*
X05687Y07188*
X05697Y07181*
X05705Y07173*
X05711Y07163*
X05716Y07153*
X05718Y07141*
Y07135*
Y06653*
Y06647*
X05716Y06636*
X05711Y06625*
X05705Y06615*
X05697Y06607*
X05687Y06601*
X05676Y06596*
X05665Y06594*
X05659*
X05275*
X05269*
X05258Y06596*
X05247Y06601*
X05237Y06607*
X05229Y06615*
X05223Y06625*
X05218Y06636*
X05216Y06647*
Y06653*
Y07135*
Y07141*
X05218Y07153*
X05223Y07163*
X05229Y07173*
X05237Y07181*
X05247Y07188*
X05258Y07192*
X05269Y07194*
X05275*
X05659*
G37*
G36*
X04724Y06722D02*
X05088D01*
X05094*
X05105Y0672*
X05116Y06715*
X05126Y06709*
X05134Y06701*
X0514Y06691*
X05145Y0668*
X05147Y06669*
Y06663*
Y06289*
Y06283*
X05145Y06272*
X0514Y06261*
X05134Y06251*
X05126Y06243*
X05116Y06237*
X05105Y06232*
X05094Y0623*
X05088*
X04724*
X04718*
X04707Y06232*
X04696Y06237*
X04686Y06243*
X04678Y06251*
X04672Y06261*
X04667Y06272*
X04665Y06283*
Y06289*
Y06658*
Y06663*
Y06669*
X04667Y0668*
X04672Y06691*
X04678Y06701*
X04686Y06709*
X04696Y06715*
X04707Y0672*
X04718Y06722*
X04724*
G37*
G36*
X00216Y07706D02*
X00718D01*
X00724*
X00735Y07704*
X00746Y077*
X00756Y07693*
X00764Y07685*
X0077Y07675*
X00775Y07664*
X00777Y07653*
Y07647*
Y07086*
Y0708*
X00775Y07069*
X0077Y07058*
X00764Y07049*
X00756Y0704*
X00746Y07034*
X00735Y07029*
X00724Y07027*
X00718*
X00216*
X0021*
X00199Y07029*
X00188Y07034*
X00178Y0704*
X0017Y07049*
X00164Y07058*
X00159Y07069*
X00157Y0708*
Y07086*
Y07642*
Y07647*
Y07653*
X00159Y07664*
X00164Y07675*
X0017Y07685*
X00178Y07693*
X00188Y077*
X00199Y07704*
X0021Y07706*
X00216*
G37*
G36*
X03976Y0812D02*
X04015D01*
X04035*
X05177*
Y0812*
X05183Y0812*
X05194Y08117*
X05205Y08113*
X05214Y08106*
X05223Y08098*
X05229Y08089*
X05234Y08078*
X05236Y08066*
Y08061*
Y0745*
Y07444*
X05233Y07433*
X05229Y07422*
X05223Y07413*
X05214Y07404*
X05205Y07398*
X05194Y07394*
X05183Y07391*
X05177*
X04626*
X0462Y07391*
X04608Y07389*
X04598Y07384*
X04588Y07378*
X0458Y0737*
X04573Y0736*
X04569Y07349*
X04567Y07338*
X04566Y07332*
Y0619*
X04567Y06185*
X04569Y06173*
X04573Y06163*
X0458Y06153*
X04588Y06145*
X04598Y06138*
X04608Y06134*
X0462Y06132*
X04626Y06131*
X05221*
X05226*
X05231Y06132*
X0524Y06134*
X05249Y06137*
X05257Y06143*
X05264Y06149*
X05269Y06157*
X05273Y06166*
X05275Y06176*
X05275Y06181*
Y06215*
Y0622*
Y0622*
Y06225*
X05277Y06234*
X05281Y06243*
X05286Y06251*
X05293Y06258*
X05301Y06264*
X0531Y06267*
X0532Y06269*
X05324*
X05659*
X05665*
X05676Y06267*
X05687Y06263*
X05697Y06256*
X05705Y06248*
X05711Y06238*
X05716Y06227*
X05718Y06216*
Y0621*
Y06131*
Y05531*
Y05525*
X05716Y05514*
X05711Y05503*
X05705Y05493*
X05697Y05485*
X05687Y05479*
X05676Y05474*
X05665Y05472*
X05659*
X05177*
X05177*
X05171Y05472*
X0516Y05469*
X05149Y05465*
X05139Y05459*
X05131Y0545*
X05125Y05441*
X0512Y0543*
X05118Y05419*
X05118Y05413*
Y04803*
X05118Y04795*
X05121Y0478*
X05127Y04766*
X05136Y04753*
X05146Y04742*
X05159Y04733*
X05174Y04727*
X05189Y04724*
X05196Y04724*
X06082*
X06082*
X06088*
X06099Y04722*
X0611Y04717*
X0612Y04711*
X06128Y04703*
X06135Y04693*
X06139Y04682*
X06141Y04671*
Y04665*
Y02096*
Y02096*
Y02089*
X06139Y02076*
X06133Y02063*
X06126Y02052*
X06116Y02042*
X06105Y02035*
X06092Y0203*
X06079Y02027*
X06072*
X04881*
Y02027*
X04877Y02027*
X04867Y02025*
X04858Y02021*
X0485Y02016*
X04843Y02009*
X04838Y02001*
X04834Y01992*
X04832Y01983*
X04832Y01978*
Y01594*
X04832*
Y01589*
X0483Y0158*
X04827Y01571*
X04821Y01563*
X04814Y01556*
X04806Y0155*
X04797Y01547*
X04788Y01545*
X04783*
X04517*
X04514*
X04509Y01546*
X04503Y01548*
X04498Y01551*
X04494Y01556*
X04491Y0156*
X04489Y01566*
X04488Y01571*
Y01574*
Y01756*
Y01761*
X04488Y01763*
X04488Y01766*
X04489Y0177*
X04491Y01775*
X04494Y0178*
X04498Y01784*
X04503Y01788*
X04509Y0179*
X04514Y01791*
X04517*
X04571*
X04576*
X04582Y01791*
X04593Y01793*
X04604Y01798*
X04614Y01804*
X04622Y01812*
X04628Y01822*
X04633Y01833*
X04635Y01844*
X04635Y0185*
Y02096*
X04635Y02102*
X04633Y02113*
X04628Y02124*
X04622Y02133*
X04614Y02142*
X04604Y02148*
X04593Y02153*
X04582Y02155*
X04576Y02155*
X04311*
X04305*
X04294Y02157*
X04283Y0216*
X04273Y02165*
X04263Y02171*
X04254Y02178*
X04247Y02187*
X04241Y02196*
X04239Y02202*
X04239*
X04237Y02206*
X04232Y02216*
X04227Y02225*
X04222Y02234*
X04219Y02238*
X04215Y02243*
X04207Y02253*
X04199Y02261*
X04189Y02268*
X04178Y02274*
X04167Y02278*
X04155Y02281*
X04143Y02283*
X04137Y02283*
X04005*
X03999*
X03985Y02286*
X03973Y02291*
X03962Y02298*
X03952Y02308*
X03944Y02319*
X03939Y02332*
X03937Y02345*
Y02352*
Y0244*
X03936Y02445*
X03934Y02455*
X03931Y02464*
X03925Y02472*
X03919Y02479*
X03911Y02484*
X03902Y02488*
X03892Y02489*
X03887Y0249*
X03503*
X03501*
X03495Y02491*
X0349Y02493*
X03485Y02496*
X03481Y025*
X03477Y02505*
X03475Y02511*
X03474Y02516*
Y02598*
X03474Y02603*
X03475Y02607*
X03477Y02612*
X03481Y02617*
X03485Y02621*
X03489Y02624*
X03495Y02626*
X03501Y02628*
X03503*
X04099*
X04104*
X04112Y02628*
X04127Y02631*
X04141Y02637*
X04154Y02645*
X04165Y02656*
X04173Y02669*
X04179Y02683*
X04182Y02699*
X04183Y02706*
Y02854*
X04183Y02859*
X04184Y02862*
X04186Y02868*
X04189Y02873*
X04193Y02877*
X04198Y0288*
X04204Y02882*
X04209Y02883*
X04212*
X04311*
Y02883*
X04311*
X04315Y02883*
X04319Y02882*
X04325Y0288*
X04329Y02877*
X04334Y02873*
X04337Y02868*
X04339Y02862*
X0434Y02857*
Y02854*
Y02706*
X04341Y02694*
X04344Y0267*
X0435Y02646*
X04359Y02624*
X04372Y02602*
X04387Y02583*
X04404Y02566*
X04423Y02551*
X04444Y02539*
X04467Y02529*
X04477Y02526*
X04485Y02524*
X04486Y02524*
X04491Y02523*
X04515Y0252*
X04527Y02519*
X05221*
X05226*
X05226*
X05232Y0252*
X05243Y02522*
X05254Y02526*
X05263Y02533*
X05272Y02541*
X05278Y0255*
X05282Y02561*
X05285Y02573*
X05285Y02578*
Y02869*
Y02874*
X05285Y02876*
X05285Y02878*
X05286Y02882*
X05288Y02888*
X05292Y02892*
X05296Y02897*
X05301Y029*
X05306Y02902*
X05312Y02903*
X05315*
X05433*
X05433*
X05437Y02903*
X05441Y02902*
X05447Y029*
X05451Y02896*
X05456Y02892*
X05459Y02888*
X05461Y02882*
X05462Y02876*
Y02874*
Y02578*
X05462Y02572*
X05465Y02561*
X05469Y0255*
X05476Y02541*
X05484Y02533*
X05493Y02526*
X05504Y02522*
X05515Y0252*
X05521Y02519*
X05556*
X05561*
X05566Y0252*
X05578Y02522*
X05588Y02526*
X05598Y02533*
X05606Y02541*
X05613Y0255*
X05617Y02561*
X05619Y02572*
X0562Y02578*
Y04055*
X0562*
X05619Y0406*
X05617Y04072*
X05613Y04082*
X05606Y04092*
X05598Y041*
X05588Y04107*
X05578Y04111*
X05566Y04113*
X05561Y04114*
X04753*
X0474*
X04713Y04116*
X04686Y04122*
X04661Y0413*
X04636Y0414*
X04612Y04153*
X04589Y04168*
X04568Y04185*
X04549Y04204*
X04532Y04225*
X04517Y04247*
X04504Y04271*
X04494Y04296*
X04486Y04322*
X04481Y04349*
X04478Y04376*
Y04389*
Y05413*
X04478Y05419*
X04475Y0543*
X04471Y05441*
X04464Y0545*
X04456Y05459*
X04447Y05465*
X04436Y05469*
X04425Y05472*
X04419Y05472*
X04035*
X03976*
X0397*
X03959Y05474*
X03948Y05479*
X03938Y05485*
X0393Y05493*
X03924Y05503*
X03919Y05514*
X03917Y05525*
Y05531*
Y06466*
X03917Y06472*
X03914Y06483*
X0391Y06494*
X03903Y06504*
X03895Y06512*
X03886Y06518*
X03875Y06523*
X03864Y06525*
X03858Y06525*
X02185*
X02179Y06525*
X02167Y06523*
X02157Y06518*
X02147Y06512*
X02139Y06504*
X02133Y06494*
X02128Y06483*
X02126Y06472*
X02126Y06466*
Y05157*
Y05151*
X02123Y0514*
X02119Y05129*
X02112Y05119*
X02104Y05111*
X02094Y05105*
X02084Y051*
X02072Y05098*
X02066*
X01624*
X01618Y05098*
X01606Y05095*
X01596Y05091*
X01586Y05085*
X01578Y05076*
X01571Y05067*
X01567Y05056*
X01565Y05045*
X01565Y05039*
Y04173*
Y04133*
Y04128*
X01562Y04116*
X01558Y04105*
X01551Y04096*
X01543Y04088*
X01533Y04081*
X01523Y04077*
X01511Y04074*
X01505*
X006*
X00594Y04074*
X00583Y04072*
X00572Y04067*
X00562Y04061*
X00554Y04053*
X00548Y04043*
X00543Y04032*
X00541Y04021*
X00541Y04015*
Y02578*
X00541Y02573*
X00543Y02561*
X00548Y0255*
X00554Y02541*
X00562Y02533*
X00572Y02526*
X00583Y02522*
X00594Y0252*
X006Y02519*
X00629*
X00635Y0252*
X00647Y02522*
X00657Y02526*
X00667Y02533*
X00675Y02541*
X00682Y0255*
X00686Y02561*
X00688Y02573*
X00689Y02578*
Y02952*
X00689Y02957*
X0069Y02964*
X00693Y02971*
X00697Y02977*
X00703Y02983*
X00709Y02987*
X00716Y0299*
X00724Y02992*
X00728*
X00826*
X00831Y02992*
X00838Y0299*
X00845Y02987*
X00851Y02983*
X00857Y02977*
X00861Y02971*
X00864Y02964*
X00866Y02956*
Y02952*
Y02578*
X00866Y02573*
X00868Y02561*
X00873Y0255*
X00879Y02541*
X00887Y02533*
X00897Y02526*
X00908Y02522*
X00919Y0252*
X00925Y02519*
X01771*
X01777Y0252*
X01788Y02522*
X01799Y02526*
X01809Y02533*
X01817Y02541*
X01823Y0255*
X01828Y02561*
X0183Y02572*
X0183Y02578*
Y02883*
X0183Y02888*
X01832Y02895*
X01835Y02902*
X01839Y02909*
X01845Y02914*
X01851Y02918*
X01858Y02921*
X01866Y02923*
X0187*
X01948*
X01953Y02923*
X0196Y02921*
X01967Y02918*
X01973Y02914*
X01979Y02909*
X01983Y02902*
X01986Y02895*
X01988Y02887*
Y02883*
Y02066*
X01988Y0206*
X01991Y02046*
X01996Y02034*
X02003Y02023*
X02013Y02013*
X02024Y02006*
X02037Y02001*
X0205Y01998*
X02057Y01998*
X02253*
X02259*
X02271Y01995*
X02281Y01991*
X02291Y01984*
X02299Y01976*
X02306Y01967*
X0231Y01956*
X02313Y01944*
Y01939*
Y01525*
Y01476*
Y01437*
Y01433*
X02311Y01425*
X02308Y01418*
X02304Y01411*
X02298Y01406*
X02292Y01402*
X02285Y01399*
X02277Y01397*
X02273*
X02204*
X022*
X02193Y01399*
X02186Y01402*
X02179Y01406*
X02174Y01411*
X02169Y01418*
X02166Y01425*
X02165Y01433*
Y01437*
X02165Y0144*
X02163Y01448*
X0216Y01455*
X02156Y01462*
X02151Y01467*
X02144Y01471*
X02137Y01474*
X02129Y01476*
X02126Y01476*
X01624*
X01618*
X01606Y01478*
X01596Y01483*
X01586Y01489*
X01578Y01497*
X01571Y01507*
X01567Y01518*
X01565Y01529*
Y01535*
Y01791*
Y01968*
X01564Y01974*
X01562Y01985*
X01558Y01996*
X01551Y02006*
X01543Y02014*
X01533Y0202*
X01523Y02025*
X01511Y02027*
X01505Y02027*
X00541*
X00118*
X00112*
X001Y02029*
X0009Y02034*
X0008Y0204*
X00072Y02049*
X00065Y02058*
X00061Y02069*
X00059Y0208*
Y02086*
Y04493*
Y04498*
Y04503*
X00061Y04515*
X00065Y04526*
X00072Y04535*
X0008Y04543*
X0009Y0455*
X001Y04554*
X00112Y04557*
X00118*
X00821*
X00826*
X00832Y04557*
X00843Y04559*
X00854Y04564*
X00864Y0457*
X00872Y04578*
X00878Y04588*
X00883Y04599*
X00885Y0461*
X00885Y04616*
Y04665*
Y05694*
Y05698*
Y05704*
X00888Y05716*
X00892Y05726*
X00899Y05736*
X00907Y05744*
X00916Y05751*
X00927Y05755*
X00939Y05757*
X00944*
X01422*
X01422*
X01427*
X01433Y05758*
X01444Y0576*
X01455Y05764*
X01464Y05771*
X01472Y05779*
X01479Y05789*
X01483Y05799*
X01485Y05811*
X01486Y05816*
Y06427*
Y06486*
X01485Y06492*
X01483Y06503*
X01479Y06514*
X01472Y06523*
X01464Y06531*
X01455Y06538*
X01444Y06542*
X01433Y06545*
X01427Y06545*
X00925*
X00919*
X00908Y06547*
X00897Y06552*
X00887Y06558*
X00879Y06566*
X00872Y06576*
X00868Y06587*
X00866Y06598*
Y06604*
Y06653*
Y07736*
Y07742*
X00868Y07753*
X00872Y07764*
X00879Y07773*
X00887Y07782*
X00897Y07788*
X00908Y07793*
X00919Y07795*
X00925*
X02066*
X02072*
X02084Y07793*
X02094Y07788*
X02104Y07782*
X02112Y07773*
X02119Y07764*
X02123Y07753*
X02126Y07742*
Y07736*
Y07253*
X02126Y07248*
X02128Y07236*
X02133Y07226*
X02139Y07216*
X02147Y07208*
X02157Y07201*
X02167Y07197*
X02179Y07195*
X02185Y07194*
X03853*
X03858*
X03864Y07195*
X03875Y07197*
X03886Y07201*
X03895Y07208*
X03903Y07216*
X0391Y07226*
X03914Y07236*
X03917Y07248*
X03917Y07253*
Y07608*
X03917Y07614*
X03914Y07625*
X0391Y07636*
X03903Y07645*
X03895Y07653*
X03886Y0766*
X03875Y07664*
X03864Y07667*
X03858Y07667*
X03651*
X03647*
X0364Y07668*
X03632Y07671*
X03626Y07676*
X03621Y07681*
X03616Y07688*
X03613Y07695*
X03612Y07702*
Y07755*
Y07756*
X03612Y0776*
X03613Y07767*
X03616Y07774*
X03621Y07781*
X03626Y07786*
X03632Y0779*
X0364Y07793*
X03647Y07795*
X03651*
X03853*
X03858*
X03864Y07795*
X03875Y07797*
X03886Y07802*
X03895Y07808*
X03903Y07816*
X0391Y07826*
X03914Y07837*
X03917Y07848*
X03917Y07854*
Y08056*
Y08061*
Y08066*
X03919Y08078*
X03924Y08089*
X0393Y08098*
X03938Y08106*
X03948Y08113*
X03959Y08117*
X0397Y0812*
X03976*
G37*
G36*
X05383Y07972D02*
X05856D01*
X05862*
X05873Y0797*
X05884Y07965*
X05893Y07959*
X05902Y07951*
X05908Y07941*
X05913Y0793*
X05915Y07919*
Y07913*
Y0747*
Y07464*
X05913Y07453*
X05908Y07442*
X05902Y07432*
X05893Y07424*
X05884Y07418*
X05873Y07413*
X05862Y07411*
X05856*
X05383*
X05378*
X05366Y07413*
X05355Y07418*
X05346Y07424*
X05338Y07432*
X05331Y07442*
X05327Y07453*
X05324Y07464*
Y0747*
Y07908*
Y07913*
Y07919*
X05327Y0793*
X05331Y07941*
X05338Y07951*
X05346Y07959*
X05355Y07965*
X05366Y0797*
X05378Y07972*
X05383*
G37*
G36*
X06082Y07086D02*
D01*
X06088*
X06099Y07084*
X0611Y07079*
X0612Y07073*
X06128Y07065*
X06135Y07055*
X06139Y07044*
X06141Y07033*
Y07027*
Y05255*
Y0525*
X06139Y05238*
X06135Y05227*
X06128Y05218*
X0612Y0521*
X0611Y05203*
X06099Y05199*
X06088Y05196*
X06082*
X05826*
X05821*
X05809Y05199*
X05798Y05203*
X05789Y0521*
X0578Y05218*
X05774Y05227*
X0577Y05238*
X05767Y0525*
Y05255*
Y07027*
Y07033*
X0577Y07044*
X05774Y07055*
X0578Y07065*
X05789Y07073*
X05798Y07079*
X05809Y07084*
X05821Y07086*
X05826*
X06082*
G37*
G36*
X05265Y05324D02*
X05659D01*
X05665*
X05676Y05322*
X05687Y05318*
X05697Y05311*
X05705Y05303*
X05711Y05293*
X05716Y05283*
X05718Y05271*
Y05265*
Y04881*
Y04876*
X05716Y04864*
X05711Y04853*
X05705Y04844*
X05697Y04836*
X05687Y04829*
X05676Y04825*
X05665Y04822*
X05265*
X05259*
X05248Y04825*
X05237Y04829*
X05228Y04836*
X05219Y04844*
X05213Y04853*
X05209Y04864*
X05206Y04876*
Y04881*
Y05246*
Y05261*
Y05265*
Y05271*
X05209Y05283*
X05213Y05293*
X05219Y05303*
X05228Y05311*
X05237Y05318*
X05248Y05322*
X05259Y05324*
X05265*
G37*
G36*
X00745Y05293D02*
X00756Y05288D01*
X00766Y05282*
X00774Y05273*
X0078Y05264*
X00785Y05253*
X00787Y05242*
Y05236*
Y04704*
Y04698*
X00785Y04687*
X0078Y04676*
X00774Y04667*
X00766Y04658*
X00756Y04652*
X00745Y04647*
X00734Y04645*
X00728*
X00196*
X00191*
X00179Y04647*
X00168Y04652*
X00159Y04658*
X00151Y04667*
X00144Y04676*
X0014Y04687*
X00137Y04698*
Y04704*
Y05236*
Y05242*
X0014Y05253*
X00144Y05264*
X00151Y05273*
X00159Y05282*
X00168Y05288*
X00179Y05293*
X00191Y05295*
X00196*
X00196*
X00728*
X00734*
X00745Y05293*
G37*
G36*
X01338Y06456D02*
D01*
X01344*
X01355Y06454*
X01366Y0645*
X01376Y06443*
X01384Y06435*
X0139Y06425*
X01395Y06414*
X01397Y06403*
Y06397*
Y05915*
Y05908*
X01395Y05895*
X01389Y05882*
X01382Y05871*
X01372Y05861*
X01361Y05854*
X01348Y05849*
X01335Y05846*
X01328*
X00787*
X00781*
X0077Y05848*
X00759Y05853*
X00749Y05859*
X00741Y05867*
X00735Y05877*
X0073Y05888*
X00728Y05899*
Y05905*
Y06397*
Y06403*
X0073Y06414*
X00735Y06425*
X00741Y06435*
X00749Y06443*
X00759Y0645*
X0077Y06454*
X00781Y06456*
X00787*
X01338*
G37*
G36*
X02696Y06427D02*
X02992D01*
X02997*
X03009Y06424*
X0302Y0642*
X03029Y06414*
X03038Y06405*
X03044Y06396*
X03048Y06385*
X03051Y06373*
Y06368*
Y05305*
X03927*
X03936*
X03955Y05301*
X03973Y05293*
X03989Y05283*
X04003Y05269*
X04014Y05253*
X04021Y05235*
X04025Y05216*
Y05206*
Y04832*
X04025Y04826*
X04028Y04815*
X04032Y04804*
X04039Y04795*
X04047Y04787*
X04056Y0478*
X04067Y04776*
X04078Y04773*
X04084Y04773*
X04291*
X04298*
X04311Y04771*
X04324Y04765*
X04335Y04758*
X04344Y04748*
X04352Y04737*
X04357Y04724*
X0436Y04711*
Y04704*
Y04527*
Y04522*
X04358Y04513*
X04354Y04504*
X04349Y04496*
X04342Y04489*
X04334Y04483*
X04325Y0448*
X04315Y04478*
X04311*
X04025*
X0374*
X03734*
X03722Y0448*
X03712Y04485*
X03702Y04491*
X03694Y04499*
X03687Y04509*
X03683Y0452*
X03681Y04531*
Y04537*
Y04901*
X0368Y04906*
X03679Y04915*
X03675Y04924*
X03669Y04932*
X03663Y04939*
X03655Y04945*
X03646Y04948*
X03636Y0495*
X03631Y0495*
X02529*
X02525Y0495*
X02518Y04949*
X02511Y04946*
X02504Y04941*
X02499Y04936*
X02494Y0493*
X02491Y04922*
X0249Y04915*
X0249Y04911*
Y04537*
Y04531*
X02487Y0452*
X02483Y04509*
X02477Y04499*
X02468Y04491*
X02459Y04485*
X02448Y0448*
X02436Y04478*
X02431*
X02224*
X01761*
X01757*
X01747Y0448*
X01738Y04483*
X0173Y04489*
X01723Y04496*
X01718Y04504*
X01714Y04513*
X01712Y04522*
Y04527*
Y04719*
Y04724*
Y04729*
X01714Y04738*
X01718Y04747*
X01723Y04755*
X0173Y04762*
X01738Y04768*
X01747Y04771*
X01757Y04773*
X01761*
X02165*
X02171Y04773*
X02182Y04776*
X02193Y0478*
X02202Y04787*
X02211Y04795*
X02217Y04804*
X02221Y04815*
X02224Y04826*
X02224Y04832*
Y05211*
Y05216*
Y05225*
X02227Y05242*
X02234Y05258*
X02244Y05273*
X02256Y05285*
X02271Y05295*
X02287Y05301*
X02304Y05305*
X02313*
X02637*
Y06363*
Y06368*
Y06373*
X0264Y06385*
X02644Y06396*
X02651Y06405*
X02659Y06414*
X02668Y0642*
X02679Y06424*
X02691Y06427*
X02696*
G37*
G54D15*
X04479Y02785D03*
X04615D03*
X01652Y02716D03*
X01516D03*
G54D16*
X00354Y01507D03*
Y01444D03*
X05718Y01517D03*
Y01454D03*
G54D17*
X00726Y01279D03*
X00789D03*
X01448Y02726D03*
X01385D03*
X00716Y01033D03*
X00779D03*
X00336Y00629D03*
X00273D03*
X05421Y01269D03*
X05484D03*
X04702Y02805D03*
X04765D03*
X05421Y00954D03*
X05484D03*
X05815Y00649D03*
X05878D03*
G54D26*
X00738Y01378D02*
Y01437D01*
X00728Y01368D02*
X00738Y01378D01*
X00728Y01279D02*
Y01368D01*
X00866Y01338D02*
Y01437D01*
X00846Y01318D02*
X00866Y01338D01*
X00807Y01318D02*
X00846D01*
X00789Y01301D02*
X00807Y01318D01*
X00789Y01279D02*
Y01301D01*
Y01279D02*
X00866D01*
X00726D02*
X00728D01*
X00669D02*
X00726D01*
X00669D02*
Y01309D01*
X00649D02*
X00669D01*
X01545Y02923D02*
Y02971D01*
X01546Y02972*
X01485Y02924D02*
X01486Y02923D01*
X01485Y02924D02*
Y02972D01*
X05009Y02628D02*
X05029Y02608D01*
X04547Y02628D02*
X05009D01*
X05029Y02588D02*
Y02608D01*
X04968Y02586D02*
X0497Y02588D01*
X045Y02586D02*
X04968D01*
X04498Y02588D02*
X045Y02586D01*
X05551Y00954D02*
X0557Y00974D01*
X05484Y00954D02*
X05551D01*
X05334Y00974D02*
X05354Y00954D01*
X05421*
X05492Y00629D02*
X05511Y00649D01*
X05492Y00433D02*
Y00629D01*
X05505Y01342D02*
Y01427D01*
X05484Y0132D02*
X05505Y01342D01*
X05484Y01269D02*
Y0132D01*
X05421Y01269D02*
Y0132D01*
X05379Y01362D02*
X05421Y0132D01*
X05379Y01362D02*
Y01427D01*
X05329Y01269D02*
X05421D01*
X0557D02*
X0558Y01279D01*
X05484Y01269D02*
X0557D01*
X04744Y0301D02*
X04745Y03011D01*
X04744Y02952D02*
Y0301D01*
X04685Y02952D02*
Y0301D01*
X04684Y03011D02*
X04685Y0301D01*
G54D27*
X00876Y00856D02*
Y01033D01*
X00851Y00831D02*
X00876Y00856D01*
X00743Y00831D02*
X00851D01*
X00779Y01033D02*
X00876D01*
X006D02*
X00716D01*
X00777Y00964D02*
Y01033D01*
X00706Y00893D02*
X00777Y00964D01*
X00563Y00893D02*
X00706D01*
X00679Y00954D02*
X00718Y00994D01*
X00511Y00954D02*
X00679D01*
X00502Y00944D02*
X00511Y00954D01*
X00718Y00994D02*
Y01033D01*
X00356Y00649D02*
X00433D01*
X00336Y00629D02*
X00356Y00649D01*
X01448Y02726D02*
X01456D01*
X01385Y026D02*
Y02724D01*
X01692Y02588D02*
X01712Y02608D01*
X01397Y02588D02*
X01692D01*
X01385Y026D02*
X01397Y02588D01*
X05677Y017D02*
X05679Y01702D01*
X05372Y01868D02*
X05374Y0187D01*
X00411Y01318D02*
X00492D01*
X00411D02*
Y01444D01*
X00413Y01702D02*
X00492D01*
X00413D02*
D01*
X00401Y0169D02*
X00413Y01702D01*
X01653Y02785D02*
X01663Y02795D01*
X01653Y02725D02*
Y02785D01*
X01446Y02805D02*
X01448Y02803D01*
Y02726D02*
Y02803D01*
X01446Y02854D02*
X01466Y02874D01*
X01446Y02805D02*
Y02854D01*
X04751Y02677D02*
X04761Y02687D01*
X04517Y02677D02*
X04751D01*
X04478Y02716D02*
X04517Y02677D01*
X0495Y02864D02*
X0496Y02854D01*
X04478Y02716D02*
Y02754D01*
X05421Y00954D02*
X05423Y00952D01*
Y00905D02*
Y00952D01*
X05413Y00895D02*
X05423Y00905D01*
X05413Y00757D02*
Y00895D01*
Y00757D02*
X05433Y00738D01*
X056*
X05629Y00708*
X05484Y00923D02*
Y00954D01*
Y00838D02*
Y00923D01*
X05472Y00826D02*
X05484Y00838D01*
Y00923D02*
X05511Y00895D01*
X056*
X05505Y01427D02*
X05561D01*
X05305D02*
X05379D01*
X05295Y01437D02*
X05305Y01427D01*
X05679Y01299D02*
X05681Y01301D01*
Y01454*
X05679Y01279D02*
Y01299D01*
X05681Y01454D02*
X05718D01*
X05677Y01517D02*
X05718D01*
X05677D02*
Y017D01*
X05747Y01584D02*
X05807D01*
X05718Y01555D02*
X05747Y01584D01*
X05718Y01517D02*
Y01555D01*
X05741Y01384D02*
X05807D01*
X05718Y01407D02*
X05741Y01384D01*
X05718Y01407D02*
Y01454D01*
X05905Y00649D02*
X05909Y00645D01*
X05878Y00649D02*
X05905D01*
X05783Y0057D02*
Y00645D01*
X05787Y00649*
X05815*
X04765Y02805D02*
X04852D01*
X04478Y02754D02*
X04479Y02755D01*
X04675Y02864D02*
X0495D01*
X04655Y02844D02*
X04675Y02864D01*
X04655Y02805D02*
Y02844D01*
Y02805D02*
X04702D01*
X04765D02*
D01*
X00336Y00579D02*
X0037Y00546D01*
X00336Y00579D02*
Y00629D01*
X00244Y00546D02*
X00273Y00575D01*
Y00629*
X00177D02*
X00273D01*
X00236Y01565D02*
X00324D01*
X00354Y01535*
Y01507D02*
Y01535D01*
X00236Y01365D02*
X00312D01*
X00354Y01407*
Y01444*
X00411*
X00354Y01507D02*
X00401D01*
Y0169*
X01712Y02608D02*
Y02716D01*
X01673D02*
X01712D01*
X01663Y02706D02*
X01673Y02716D01*
X01466Y02874D02*
X01722D01*
X01742Y02854*
Y02795D02*
Y02854D01*
X01663Y02706D02*
Y02795D01*
G54D28*
X00364Y00787D02*
X00433D01*
X01456Y02726D02*
X01516D01*
X01456Y02647D02*
Y02726D01*
X01417Y0184D02*
Y01919D01*
X0124Y02726D02*
X01338D01*
X01385*
X01328Y02716D02*
X01338Y02726D01*
X0123Y02736D02*
X0124Y02726D01*
X01328Y02637D02*
Y02716D01*
X00964Y0184D02*
X01417D01*
X00698Y01919D02*
X01328D01*
X00876Y01437D02*
X00935D01*
X00669D02*
X00738D01*
X00744*
X00702Y0184D02*
X00964D01*
X00576Y01919D02*
X00698D01*
X00576Y01742D02*
Y01919D01*
X00702Y01742D02*
Y0184D01*
X05246Y0187D02*
X05374D01*
X0497D02*
X05246D01*
X05511Y01954D02*
X05732D01*
X04917D02*
X05511D01*
X05374Y0187D02*
X05606D01*
X00702Y01555D02*
Y01742D01*
X0061Y01555D02*
X00702D01*
X0058Y01437D02*
Y01525D01*
X0061Y01555*
X0057Y01653D02*
Y01736D01*
X00576Y01742*
X0123Y02736D02*
Y02795D01*
X04836Y02742D02*
X04862Y02716D01*
X04718Y02742D02*
X04836D01*
X04702Y02757D02*
X04718Y02742D01*
X04702Y02757D02*
Y02805D01*
X04911Y01948D02*
X04917Y01954D01*
X05659Y01771D02*
X05718D01*
X0561Y01722D02*
X05659Y01771D01*
X05718D02*
X05732Y01785D01*
Y0187D02*
Y01954D01*
X04479Y02785D02*
Y02843D01*
Y02755D02*
Y02785D01*
X04615D02*
Y02794D01*
Y02755D02*
Y02785D01*
X04419Y02844D02*
X04478D01*
X04479Y02843*
X05728Y0057D02*
X05783D01*
X05651Y01454D02*
X05681D01*
X0561Y01496D02*
X05651Y01454D01*
X0561Y01496D02*
Y01722D01*
X05732Y01785D02*
Y0187D01*
X0561Y01801D02*
Y01864D01*
X05899Y01106D02*
X05944D01*
X05877Y01084D02*
X05899Y01106D01*
X05807Y01084D02*
X05877D01*
X06019Y0098D02*
X06023Y00984D01*
X05944Y01106D02*
X06068D01*
X06092Y01082*
Y00915D02*
Y01082D01*
X06072Y00895D02*
X06092Y00915D01*
X05944Y0098D02*
X06019D01*
X05807Y00895D02*
X06072D01*
X05807Y00984D02*
X05811Y0098D01*
X05944*
X05909Y0057D02*
Y00645D01*
X05712Y00702D02*
X05891D01*
X05909Y00685*
Y00505D02*
Y0057D01*
X05886Y00482D02*
X05909Y00505D01*
X05886Y00433D02*
Y00482D01*
X05783Y00505D02*
Y0057D01*
Y00505D02*
X05807Y00482D01*
Y00433D02*
Y00482D01*
X04626Y02805D02*
X04655D01*
X04615Y02794D02*
X04626Y02805D01*
X00244Y00464D02*
X00275Y00433D01*
X00244Y00464D02*
Y00546D01*
X00354Y00433D02*
Y00442D01*
X0037Y00458*
Y00546*
X00364Y00787D02*
Y00867D01*
X00366Y00869*
X00167Y00787D02*
X0024D01*
Y00869*
X00236Y00965D02*
X00324D01*
X00366Y00923*
Y00869D02*
Y00923D01*
X00184Y00869D02*
X0024D01*
X00137Y00915D02*
X00184Y00869D01*
X00137Y00915D02*
Y01013D01*
X00189Y01065*
X00236*
X0561Y01864D02*
X05616Y0187D01*
X05909Y00645D02*
Y00685D01*
G54D29*
X04613Y00708D03*
X04813D03*
X02844Y06338D03*
Y06138D03*
X01365Y00669D03*
X01565D03*
X05954Y05354D03*
Y05554D03*
G54D30*
X00708Y02303D03*
Y03779D03*
X05472Y02204D03*
Y03681D03*
G54D31*
X02423Y05133D03*
Y0301D03*
X03793Y03014D03*
Y05137D03*
X02423Y02814D03*
Y0069D03*
X03793Y00694D03*
Y02817D03*
G54D32*
X01023Y04763D03*
Y07263D03*
X0495Y0499D03*
X04409Y06358D03*
X05078Y07755D03*
X01673Y06023D03*
G54D33*
X00629Y04763D03*
Y07263D03*
X05344Y0499D03*
X04803Y06358D03*
X05472Y07755D03*
X01279Y06023D03*
G54D34*
X04009Y02359D03*
Y02144D03*
X02202Y0193D03*
Y02144D03*
Y03465D03*
Y0368D03*
X04009Y03894D03*
Y0368D03*
G54D35*
X04009Y0193D03*
X02202Y02359D03*
Y03894D03*
X04009Y03465D03*
G54D36*
X05492Y00433D03*
X00669D03*
G54D37*
X0557Y00433D03*
X05649D03*
X05728D03*
X05807D03*
X05886D03*
X0059D03*
X00511D03*
X00433D03*
X00354D03*
X00275D03*
G54D38*
X06043Y05984D03*
X05846D03*
X05649D03*
X05452Y0685D03*
X05649D03*
X05846D03*
G54D39*
X05452Y05984D03*
X06043Y0685D03*
G54D40*
X00236Y00965D03*
X05807Y00984D03*
G54D41*
X00236Y01065D03*
Y01365D03*
Y01465D03*
Y01565D03*
X05807Y01084D03*
Y01384D03*
Y01484D03*
Y01584D03*
G54D43*
X0373Y07422D03*
Y07578D03*
Y07734D03*
G54D44*
X01283Y05063D03*
Y04984D03*
Y04905D03*
Y04826D03*
Y04748D03*
Y04669D03*
Y0459D03*
X01204Y05063D03*
Y04984D03*
Y04905D03*
Y04826D03*
Y04748D03*
Y04669D03*
Y0459D03*
X01126Y05063D03*
Y04984D03*
Y04905D03*
Y04826D03*
Y04748D03*
Y04669D03*
Y0459D03*
X01047Y05063D03*
Y04984D03*
Y04905D03*
Y0459D03*
X00968Y05063D03*
Y04984D03*
Y04905D03*
Y04669D03*
Y0459D03*
X04511Y06322D03*
Y06244D03*
Y06165D03*
X04433D03*
Y06007D03*
X04354Y06244D03*
Y06007D03*
X04275Y06165D03*
Y06086D03*
Y06007D03*
X04196Y06322D03*
Y06244D03*
X04511Y06401D03*
X04275Y06322D03*
X04433Y06244D03*
X04275D03*
X04354Y06165D03*
X04433Y06086D03*
X04354D03*
X04196Y06165D03*
Y06086D03*
Y06007D03*
X04374Y02563D03*
Y02503D03*
Y02444D03*
Y02267D03*
Y02208D03*
X04315Y02563D03*
Y02503D03*
Y02444D03*
Y02385D03*
Y02326D03*
Y02267D03*
Y02208D03*
X04255Y02563D03*
Y02503D03*
Y02444D03*
Y02385D03*
Y02326D03*
Y02267D03*
X04196Y02563D03*
Y02503D03*
Y02444D03*
Y02385D03*
Y02326D03*
X04137Y02563D03*
Y02503D03*
Y02444D03*
Y02385D03*
Y02326D03*
X04078Y02563D03*
Y02503D03*
Y02444D03*
Y02326D03*
X04019Y02563D03*
Y02503D03*
Y02444D03*
X0396Y02563D03*
Y02503D03*
Y02444D03*
X04984Y04748D03*
X04826Y05063D03*
Y04984D03*
Y04826D03*
Y04748D03*
X04748Y04984D03*
Y04905D03*
Y04826D03*
Y04748D03*
X04669Y04984D03*
Y04905D03*
X0459Y05063D03*
Y04905D03*
Y04826D03*
X04511Y04984D03*
Y04905D03*
X06086Y06165D03*
Y06086D03*
Y0585D03*
Y05771D03*
X06007Y06165D03*
Y06086D03*
Y0585D03*
Y05771D03*
X05929Y06165D03*
Y06086D03*
Y06007D03*
Y05929D03*
Y0585D03*
Y05771D03*
X0585Y06165D03*
Y06086D03*
Y0585D03*
Y05771D03*
X06086Y07031D03*
Y06952D03*
Y06716D03*
Y06637D03*
X06007Y07031D03*
Y06952D03*
Y06716D03*
Y06637D03*
X05929Y07031D03*
Y06952D03*
Y06874D03*
Y06795D03*
Y06716D03*
Y06637D03*
X0585Y07031D03*
Y06952D03*
Y06716D03*
Y06637D03*
X05692Y06165D03*
Y06086D03*
Y0585D03*
X05614Y06086D03*
Y0585D03*
X05535Y06086D03*
X05456D03*
Y0585D03*
X05378Y06086D03*
X05299Y06165D03*
Y06007D03*
Y05929D03*
Y0585D03*
X05141Y08055D03*
Y07661D03*
Y07425D03*
X05063Y08055D03*
Y07897D03*
Y07582D03*
Y07503D03*
X04984Y08055D03*
Y07661D03*
Y07425D03*
X04905Y07976D03*
Y07818D03*
Y07661D03*
Y07582D03*
X04826D03*
X04748Y07976D03*
Y0774D03*
Y07661D03*
Y07425D03*
X05692Y0522D03*
Y05063D03*
Y04984D03*
X05614Y05141D03*
Y05063D03*
X05535Y05299D03*
Y04905D03*
X05456Y0522D03*
Y04984D03*
Y04905D03*
X05378Y05299D03*
X05299D03*
Y0522D03*
Y05141D03*
Y06637D03*
X05063Y06559D03*
Y0648D03*
Y06401D03*
X04984Y0648D03*
Y06401D03*
X04905Y06637D03*
Y06559D03*
Y06322D03*
X04748Y06637D03*
Y06559D03*
X05692Y07031D03*
Y06952D03*
Y06716D03*
Y06637D03*
X05614Y07031D03*
Y06716D03*
X05535Y0711D03*
Y06952D03*
Y06874D03*
Y06716D03*
X05456Y06952D03*
Y06716D03*
X05378Y0711D03*
Y07031D03*
Y06795D03*
Y06716D03*
Y06637D03*
X05299Y0711D03*
Y07031D03*
Y06874D03*
Y06795D03*
Y06716D03*
X0585Y07897D03*
Y07818D03*
Y0774D03*
Y07661D03*
Y07503D03*
X05771Y07818D03*
Y07661D03*
X05692Y0774D03*
Y07582D03*
X05614Y0774D03*
Y07661D03*
Y07582D03*
Y07503D03*
X05456Y07897D03*
X05378D03*
Y07661D03*
Y07582D03*
Y07503D03*
X00866Y01279D03*
X00649Y01309D03*
X01545Y02923D03*
X01485Y02924D03*
X02897Y03448D03*
Y03389D03*
Y0333D03*
Y03271D03*
Y03212D03*
X02838Y03448D03*
Y03389D03*
Y0333D03*
Y03271D03*
Y03212D03*
X02779Y03448D03*
Y03389D03*
Y0333D03*
Y03271D03*
Y03212D03*
X0272Y03448D03*
Y03389D03*
Y0333D03*
Y03271D03*
Y03212D03*
X02661Y03448D03*
Y03389D03*
Y0333D03*
Y03271D03*
Y03212D03*
X02602Y03389D03*
Y0333D03*
Y03271D03*
X02543Y0333D03*
Y03271D03*
X02484Y03507D03*
Y03389D03*
Y0333D03*
Y03271D03*
X02425Y03507D03*
Y03389D03*
Y0333D03*
Y03271D03*
X02366Y03448D03*
Y03389D03*
Y0333D03*
Y03271D03*
X02307Y03448D03*
Y03389D03*
Y0333D03*
Y03271D03*
X02248Y03389D03*
Y0333D03*
Y03271D03*
X02189Y03389D03*
Y0333D03*
Y03271D03*
X02129Y03448D03*
Y0333D03*
Y03271D03*
X02248Y03744D03*
X02129D03*
Y03685D03*
X0207Y03744D03*
Y03685D03*
X02011Y03744D03*
Y03685D03*
X01952Y03744D03*
Y03685D03*
Y03626D03*
X01893Y03744D03*
Y03685D03*
Y03626D03*
X01834Y03744D03*
Y03685D03*
Y03626D03*
X01775Y03744D03*
Y03685D03*
Y03626D03*
X05029Y02588D03*
X0497D03*
X04498D03*
X04547Y02628D03*
X04744Y02952D03*
X05456Y0396D03*
X05378D03*
Y03881D03*
X05299Y0396D03*
Y03645D03*
X0522Y03881D03*
Y03724D03*
Y03645D03*
X05141Y0396D03*
Y03881D03*
Y03803D03*
X04984Y03881D03*
Y03724D03*
Y03645D03*
X04905Y03881D03*
Y03724D03*
Y03645D03*
X04826Y0396D03*
Y03881D03*
Y03803D03*
X04748Y03881D03*
X04669Y03724D03*
X01519Y03881D03*
Y03803D03*
Y03724D03*
Y03645D03*
X0144Y0396D03*
Y03803D03*
Y03645D03*
X01362Y0396D03*
Y03803D03*
Y03724D03*
Y03645D03*
X01283Y0396D03*
Y03881D03*
Y03724D03*
Y03645D03*
X01204Y03803D03*
Y03724D03*
Y03645D03*
X01126Y0396D03*
Y03803D03*
Y03645D03*
X01047Y0396D03*
Y03803D03*
Y03645D03*
X00968Y03881D03*
Y03724D03*
X00889Y0396D03*
Y03881D03*
Y03803D03*
Y03724D03*
Y03645D03*
X00811Y0396D03*
Y03881D03*
Y03803D03*
X00732Y03881D03*
Y03645D03*
X00653D03*
X02129Y02149D03*
Y02208D03*
X02248D03*
X02307Y02149D03*
Y02208D03*
X02366Y02149D03*
Y02208D03*
Y02267D03*
Y02326D03*
Y02385D03*
Y02444D03*
Y02503D03*
X02425Y02208D03*
Y02267D03*
Y02326D03*
Y02385D03*
Y02444D03*
Y02503D03*
Y02563D03*
X02484Y02208D03*
Y02267D03*
Y02326D03*
Y02385D03*
Y02444D03*
Y02503D03*
Y02563D03*
X02543Y02149D03*
Y02208D03*
Y02267D03*
Y02326D03*
Y02385D03*
Y02444D03*
Y02503D03*
Y02563D03*
X02602Y0209D03*
Y02149D03*
Y02208D03*
Y02267D03*
Y02326D03*
Y02385D03*
Y02444D03*
Y02503D03*
Y02563D03*
X02661Y0209D03*
Y02149D03*
Y02208D03*
Y02267D03*
Y02326D03*
Y02385D03*
Y02444D03*
Y02503D03*
Y02563D03*
Y02622D03*
X0272Y0209D03*
Y02149D03*
Y02208D03*
Y02267D03*
Y02326D03*
Y02385D03*
Y02444D03*
Y02503D03*
Y02563D03*
Y02622D03*
X02779Y0209D03*
Y02149D03*
Y02208D03*
Y02267D03*
Y02326D03*
Y02385D03*
Y02444D03*
Y02503D03*
Y02563D03*
Y02622D03*
X02838Y0209D03*
Y02149D03*
Y02208D03*
Y02267D03*
Y02326D03*
Y02385D03*
Y02444D03*
Y02503D03*
Y02563D03*
Y02622D03*
X02897Y0209D03*
Y02149D03*
Y02208D03*
Y02267D03*
Y02326D03*
Y02385D03*
Y02444D03*
Y02503D03*
Y02563D03*
Y02622D03*
X01244Y00407D03*
Y00486D03*
Y00565D03*
Y00643D03*
Y00722D03*
Y00801D03*
Y00879D03*
Y00958D03*
Y01037D03*
Y01116D03*
Y01194D03*
Y01273D03*
Y01352D03*
X01322Y00328D03*
Y00407D03*
Y00486D03*
Y00565D03*
Y00801D03*
Y00879D03*
Y00958D03*
Y01037D03*
Y01116D03*
Y01194D03*
Y01273D03*
Y01352D03*
X01401Y00328D03*
Y00486D03*
Y00565D03*
Y00801D03*
Y00879D03*
Y00958D03*
Y01037D03*
Y01116D03*
Y01194D03*
Y01273D03*
Y01352D03*
X0148Y00328D03*
Y00486D03*
Y00565D03*
Y00801D03*
Y00879D03*
Y00958D03*
Y01037D03*
Y01116D03*
Y01194D03*
Y01273D03*
Y01352D03*
X01559Y00328D03*
Y00407D03*
Y00486D03*
Y00565D03*
Y00801D03*
Y00879D03*
Y00958D03*
Y01037D03*
Y01116D03*
Y01194D03*
Y01273D03*
Y01352D03*
X01637Y00328D03*
Y00407D03*
Y00486D03*
Y00565D03*
Y00643D03*
Y00722D03*
Y00801D03*
Y00879D03*
Y00958D03*
Y01037D03*
Y01116D03*
Y01194D03*
Y01273D03*
Y01352D03*
X01716Y00328D03*
Y00407D03*
Y00486D03*
X03606Y04098D03*
Y04157D03*
Y04216D03*
Y04275D03*
X03665Y04157D03*
Y04275D03*
X03724Y04098D03*
Y04216D03*
Y04275D03*
X03783Y04157D03*
Y04275D03*
X03842Y03921D03*
Y04039D03*
Y04098D03*
Y04157D03*
X03901Y04216D03*
X0396Y04098D03*
X04019Y0398D03*
Y04039D03*
Y04098D03*
X04078Y03862D03*
Y0398D03*
X03133Y0333D03*
Y03389D03*
X03192Y03271D03*
Y03507D03*
Y03566D03*
Y03626D03*
X03252Y03566D03*
X03311Y03212D03*
Y03389D03*
Y03448D03*
Y03507D03*
Y03566D03*
Y03626D03*
X0337Y03271D03*
Y03389D03*
Y03448D03*
Y03507D03*
Y03566D03*
X03429Y03271D03*
X03547D03*
X03133Y01854D03*
Y02031D03*
Y02149D03*
Y02208D03*
Y02267D03*
X03192Y02031D03*
Y02208D03*
Y02267D03*
X03252Y01972D03*
Y02267D03*
Y02444D03*
Y02563D03*
X03311Y01972D03*
Y02031D03*
Y02149D03*
Y02267D03*
Y02326D03*
Y02385D03*
Y02444D03*
Y02503D03*
Y02622D03*
X0337Y01854D03*
Y0209D03*
Y02149D03*
Y02208D03*
Y02267D03*
Y02326D03*
Y02385D03*
Y02503D03*
Y02563D03*
Y02622D03*
X03429Y01913D03*
Y01972D03*
Y02031D03*
Y0209D03*
X03488Y01854D03*
Y0209D03*
X03547Y01854D03*
Y0209D03*
X03606Y01854D03*
Y01913D03*
Y02031D03*
X03665Y01913D03*
Y01972D03*
Y02031D03*
Y0209D03*
X03724Y01854D03*
Y01913D03*
Y01972D03*
X03783D03*
X03842Y01854D03*
X03901Y0209D03*
Y02149D03*
X04078Y0209D03*
X04137Y02149D03*
X0396Y04157D03*
X03901Y04098D03*
Y04157D03*
X04078Y04039D03*
X0396D03*
X03901Y0398D03*
Y04039D03*
X03842Y04275D03*
Y04216D03*
X03783D03*
Y04039D03*
Y04098D03*
X0396Y0398D03*
X03901Y03921D03*
X04137Y0209D03*
X04078Y02149D03*
X03842Y0398D03*
X03901Y03862D03*
X03842Y0209D03*
X03783Y02031D03*
X03842Y01972D03*
Y02031D03*
Y01913D03*
X03783D03*
X03724Y04157D03*
X03665Y04216D03*
X03724Y04039D03*
X03665Y04098D03*
Y04039D03*
X03606Y0398D03*
Y04039D03*
X03488Y03271D03*
X03724Y02031D03*
X03606Y0209D03*
Y01972D03*
X03547Y03212D03*
Y02031D03*
X03488Y03212D03*
X03547Y01972D03*
X03488Y02031D03*
X03547Y01913D03*
X03488Y01972D03*
Y01913D03*
X03783Y01854D03*
X03665D03*
X0337Y03626D03*
X03252Y03507D03*
X0337Y03212D03*
X03429D03*
X0337Y0333D03*
X03311Y03271D03*
Y0333D03*
Y02563D03*
X03252Y03448D03*
Y03626D03*
X03192Y03448D03*
X03133Y03566D03*
Y03626D03*
Y03448D03*
Y03507D03*
X03252Y03389D03*
Y03271D03*
Y0333D03*
X03192D03*
Y03212D03*
X03252D03*
Y02622D03*
Y02503D03*
X03192D03*
Y03389D03*
X03133Y03271D03*
Y03212D03*
X03192Y02622D03*
Y02563D03*
X03133Y02622D03*
Y02563D03*
Y02503D03*
X0337Y02444D03*
X03429Y02149D03*
X0337Y01972D03*
Y02031D03*
X03252Y02385D03*
X03311Y02208D03*
Y0209D03*
X03252Y02149D03*
X03429Y01854D03*
X0337Y01913D03*
X03311Y01854D03*
Y01913D03*
X03252Y02326D03*
X03192Y02444D03*
Y02326D03*
Y02385D03*
X03252Y0209D03*
Y02208D03*
Y01913D03*
Y02031D03*
X03192Y02149D03*
Y0209D03*
X03133Y02385D03*
Y02444D03*
Y02326D03*
X03192Y01913D03*
Y01972D03*
X03133Y0209D03*
Y01972D03*
X03252Y01854D03*
X03192D03*
X03133Y01913D03*
X01893Y01736D03*
Y01795D03*
Y01854D03*
Y01913D03*
Y01972D03*
Y02031D03*
Y0209D03*
X01952Y01736D03*
Y01795D03*
Y01854D03*
Y01913D03*
Y01972D03*
Y02031D03*
Y0209D03*
X02011Y01736D03*
Y01795D03*
Y01854D03*
Y01913D03*
Y01972D03*
X0207Y01736D03*
Y01795D03*
Y01854D03*
Y01913D03*
Y01972D03*
X02129Y01736D03*
Y01795D03*
Y01854D03*
Y01913D03*
Y01972D03*
X02189Y01736D03*
Y01795D03*
Y01854D03*
X04511Y00338D03*
Y00417D03*
Y00496D03*
Y00574D03*
Y00653D03*
Y00732D03*
Y00811D03*
Y00889D03*
Y00968D03*
Y01047D03*
Y01126D03*
X0459Y00338D03*
Y00417D03*
Y00496D03*
Y00574D03*
Y00811D03*
Y00889D03*
Y00968D03*
Y01047D03*
Y01126D03*
X04669Y00338D03*
Y00417D03*
Y00574D03*
Y00653D03*
Y00811D03*
Y00889D03*
Y00968D03*
Y01047D03*
Y01126D03*
X04748Y00338D03*
Y00417D03*
Y00574D03*
Y00653D03*
Y00811D03*
Y00889D03*
Y00968D03*
Y01047D03*
Y01126D03*
X04826Y00338D03*
Y00417D03*
Y00496D03*
Y00574D03*
Y00811D03*
Y00889D03*
Y00968D03*
Y01047D03*
Y01126D03*
X04905Y00338D03*
Y00417D03*
Y00496D03*
Y00574D03*
Y00653D03*
Y00732D03*
Y00811D03*
Y00889D03*
Y00968D03*
Y01047D03*
Y01126D03*
X03783Y03566D03*
X03842D03*
Y03626D03*
X03901D03*
Y03685D03*
X04078Y03626D03*
Y03685D03*
X04137Y03626D03*
Y03685D03*
X04196Y03566D03*
Y03626D03*
Y03685D03*
X04255Y03566D03*
Y03626D03*
Y03685D03*
Y03744D03*
X04315Y03566D03*
Y03626D03*
Y03685D03*
Y03744D03*
X04374Y03566D03*
Y03626D03*
Y03685D03*
Y03744D03*
X04433Y03566D03*
Y03626D03*
Y03685D03*
Y03744D03*
X04685Y02952D03*
X02543Y03389D03*
X02602Y03448D03*
X02484Y03566D03*
X02425D03*
X02543Y03448D03*
X02484D03*
X02425D03*
X05141Y07976D03*
X05063D03*
X05141Y07897D03*
Y07582D03*
X04984Y07976D03*
Y07897D03*
X04905D03*
X04984Y07818D03*
Y07582D03*
X04905Y0774D03*
X05614Y06244D03*
X05378D03*
X05535D03*
X05456D03*
X05614Y06165D03*
X05535D03*
X05141Y07503D03*
X04984D03*
X05063Y07425D03*
X04905Y08055D03*
X04826Y07897D03*
Y07976D03*
Y07818D03*
X04905Y07503D03*
X04826Y08055D03*
X04748D03*
Y07897D03*
Y07818D03*
X04826Y0774D03*
Y07661D03*
X04748Y07582D03*
X04905Y07425D03*
X04826Y07503D03*
Y07425D03*
X04748Y07503D03*
X05535Y06007D03*
Y05929D03*
Y0585D03*
X05299Y06086D03*
X05378Y0585D03*
X04748Y05063D03*
X04984Y04826D03*
X04905D03*
X04826Y04905D03*
X04905Y04748D03*
X04669D03*
Y05063D03*
X04511D03*
X0459Y04984D03*
X04669Y04826D03*
X0459Y04748D03*
X04511Y04826D03*
Y04748D03*
X05771Y07897D03*
X05692D03*
X0585Y07582D03*
X05771Y0774D03*
Y07582D03*
X05692Y07818D03*
X05614Y07897D03*
Y07818D03*
X05535Y07897D03*
X05692Y07661D03*
X05535Y07582D03*
X05771Y07503D03*
X05692D03*
Y0711D03*
X05535Y07503D03*
X05614Y0711D03*
X05535Y07031D03*
X05614Y06952D03*
Y06637D03*
X05535Y06795D03*
Y06637D03*
X05456Y07503D03*
Y07582D03*
Y07031D03*
Y0711D03*
X05299Y06952D03*
X05378D03*
X05456Y06637D03*
X05063D03*
X04984D03*
Y06559D03*
Y06322D03*
X04826Y06637D03*
X04905Y0648D03*
Y06401D03*
X04826Y0648D03*
Y06559D03*
X04748Y0648D03*
X05614Y05299D03*
Y0522D03*
X05535D03*
X05692Y05141D03*
X05535D03*
X05456Y05299D03*
X05535Y05063D03*
X05456Y05141D03*
Y05063D03*
X05378Y05141D03*
Y0522D03*
X05614Y04984D03*
X05535D03*
X05614Y04905D03*
X05692D03*
X05456Y03803D03*
Y03881D03*
X05378Y03803D03*
X05299Y03881D03*
X05378Y03724D03*
X05299Y03803D03*
X05378Y03645D03*
X05299Y03724D03*
X0522Y0396D03*
X05063Y06322D03*
Y0396D03*
X04984D03*
X05063Y03881D03*
X0522Y03803D03*
X05063D03*
X04984D03*
X04905Y0396D03*
X04669D03*
X04748D03*
X04669Y03881D03*
X05063Y03724D03*
X05141D03*
X04905Y03803D03*
X05063Y03645D03*
X05141D03*
X04748Y03803D03*
X04669D03*
X04826Y03724D03*
X04748D03*
X04669Y03645D03*
X04826D03*
X04748D03*
X00968Y0396D03*
X01519D03*
X0144Y03724D03*
Y03881D03*
X01204Y0396D03*
X01362Y03881D03*
X01204D03*
X01126D03*
X01047D03*
X00732Y0396D03*
X00653Y03881D03*
X01283Y03803D03*
X01047Y03724D03*
X01126D03*
X00968Y03803D03*
X00811Y03724D03*
X00653D03*
X00968Y03645D03*
X00811D03*
X00181Y04748D03*
Y04826D03*
Y04905D03*
Y04984D03*
Y05063D03*
Y05141D03*
Y07189D03*
Y07267D03*
Y07346D03*
Y07425D03*
Y07503D03*
Y07582D03*
X00259Y04748D03*
Y04826D03*
Y04905D03*
Y04984D03*
Y05063D03*
Y05141D03*
Y0711D03*
Y07189D03*
Y07267D03*
Y07346D03*
Y07425D03*
Y07503D03*
Y07582D03*
Y07661D03*
X00338Y04748D03*
Y04826D03*
Y04905D03*
Y04984D03*
Y05063D03*
Y05141D03*
Y0522D03*
Y0711D03*
Y07189D03*
Y07267D03*
Y07346D03*
Y07425D03*
Y07503D03*
Y07582D03*
Y07661D03*
X00417Y04748D03*
Y04826D03*
Y04905D03*
Y04984D03*
Y05063D03*
Y05141D03*
Y0522D03*
Y0711D03*
Y07189D03*
Y07267D03*
Y07346D03*
Y07425D03*
Y07503D03*
Y07582D03*
Y07661D03*
X00496Y04748D03*
Y04826D03*
Y04905D03*
Y04984D03*
Y05063D03*
Y05141D03*
Y0522D03*
Y0711D03*
Y07189D03*
Y07267D03*
Y07346D03*
Y07425D03*
Y07503D03*
Y07582D03*
Y07661D03*
X00574Y04905D03*
Y04984D03*
Y05063D03*
Y05141D03*
Y0522D03*
Y0711D03*
Y07425D03*
Y07503D03*
Y07582D03*
Y07661D03*
X00653Y04905D03*
Y04984D03*
Y05063D03*
Y05141D03*
Y0522D03*
Y0711D03*
Y07425D03*
Y07503D03*
Y07582D03*
Y07661D03*
X00732Y04748D03*
Y04826D03*
Y04905D03*
Y04984D03*
Y05063D03*
Y05141D03*
Y0522D03*
Y07189D03*
Y07267D03*
Y07346D03*
Y07425D03*
Y07503D03*
Y07582D03*
X00811Y05929D03*
Y06007D03*
Y06086D03*
Y06165D03*
Y06244D03*
Y06322D03*
Y06401D03*
X00889Y05929D03*
Y06007D03*
Y06086D03*
Y06165D03*
Y06244D03*
Y06322D03*
Y06401D03*
X00968Y05929D03*
Y06007D03*
Y06086D03*
Y06165D03*
Y06244D03*
Y06322D03*
Y06401D03*
X01047Y05929D03*
Y06007D03*
Y06086D03*
Y06165D03*
Y06244D03*
Y06322D03*
Y06401D03*
X01126Y05929D03*
Y06007D03*
Y06086D03*
Y06165D03*
Y06244D03*
Y06322D03*
Y06401D03*
X01204Y06165D03*
Y06244D03*
Y06322D03*
Y06401D03*
X01283Y05929D03*
Y06165D03*
Y06244D03*
Y06322D03*
Y06401D03*
X01362Y06165D03*
Y06244D03*
Y06322D03*
Y06401D03*
X00968Y07425D03*
Y07503D03*
Y07582D03*
Y07661D03*
X01047Y07425D03*
Y07503D03*
Y07582D03*
Y07661D03*
X01126Y07189D03*
Y07267D03*
Y07346D03*
Y07425D03*
Y07503D03*
Y07582D03*
Y07661D03*
X01204Y07189D03*
Y07267D03*
Y07346D03*
Y07425D03*
Y07503D03*
Y07582D03*
Y07661D03*
X01283Y07189D03*
Y07267D03*
Y07346D03*
Y07425D03*
Y07503D03*
Y07582D03*
Y07661D03*
X01598Y05771D03*
Y0585D03*
Y05929D03*
Y06165D03*
Y06244D03*
Y06322D03*
X01677Y05771D03*
Y0585D03*
Y05929D03*
Y06165D03*
Y06244D03*
Y06322D03*
X01755Y05771D03*
Y0585D03*
Y05929D03*
Y06086D03*
Y06165D03*
Y06244D03*
Y06322D03*
X01834Y05771D03*
Y0585D03*
Y05929D03*
Y06007D03*
Y06086D03*
Y06165D03*
Y06244D03*
Y06322D03*
X01913Y05771D03*
Y0585D03*
Y05929D03*
Y06007D03*
Y06086D03*
Y06165D03*
Y06244D03*
Y06322D03*
G54D45*
X00743Y00831D03*
X00876Y01033D03*
X006D03*
X00563Y00893D03*
X00502Y00944D03*
X00433Y00649D03*
Y00787D03*
X01456Y02647D03*
X01417Y01919D03*
X01328Y02637D03*
Y01919D03*
X00935Y01437D03*
X00669D03*
X00964Y0184D03*
X00698Y01919D03*
X05246Y0187D03*
X05511Y01954D03*
X05679Y01702D03*
X0057Y01653D03*
X0058Y01437D03*
X00492Y01318D03*
Y01702D03*
X0123Y02795D03*
X01663D03*
X01446Y02805D03*
X0496Y02854D03*
X04761Y02687D03*
X04862Y02716D03*
X0497Y0187D03*
X04911Y01948D03*
X04616Y02746D03*
X04419Y02844D03*
X05629Y00708D03*
X05472Y00826D03*
X056Y00895D03*
X0557Y00974D03*
X05334D03*
X05511Y00649D03*
X05728Y0057D03*
X05561Y01427D03*
X05295Y01437D03*
X05329Y01269D03*
X05679Y01279D03*
X0561Y01801D03*
X0558Y01279D03*
X06023Y00984D03*
X05807Y00895D03*
X05712Y00702D03*
X04852Y02805D03*
X04655D03*
X00177Y00629D03*
X00167Y00787D03*
X01742Y02795D03*
G54D46*
X03789Y02568D03*
Y02333D03*
X0373Y04005D03*
Y0377D03*
X02608Y03543D03*
Y03778D03*
G54D47*
X02244Y01781D03*
X02479D03*
G54D48*
X01485Y02972D03*
X01546D03*
X04684Y03011D03*
X04745D03*
G54D49*
X04532Y01673D03*
X04306D03*
G54D50*
X04212Y04306D03*
Y04532D03*
X0186Y04296D03*
Y04522D03*
X01948Y01348D03*
Y01574D03*
G54D51*
X04261Y02833D03*
Y03012D03*
X05374Y02853D03*
Y03032D03*
X01909Y02882D03*
Y03062D03*
X00777Y02941D03*
Y03121D03*
G54D52*
X0245Y01947D03*
Y02107D03*
X03762Y02252D03*
Y02093D03*
X02421Y03946D03*
Y03787D03*
G54D53*
X03601Y03484D03*
X0376D03*
G54D54*
X0037Y00546D03*
X00244D03*
X00366Y00869D03*
X0024D03*
X00744Y01437D03*
X0087D03*
X05783Y0057D03*
X05909D03*
X05606Y0187D03*
X05732D03*
X05379Y01427D03*
X05505D03*
X00576Y01742D03*
X00702D03*
G54D55*
X05944Y0098D03*
Y01106D03*
G54D56*
X02455Y01558D03*
X02229D03*
G54D57*
X03563Y02327D03*
Y02554D03*
X03513Y03735D03*
Y03961D03*
X02834Y03774D03*
Y03548D03*
M02*