%FSTAX23Y23*%
%MOIN*%
%SFA1B1*%

%IPPOS*%
%ADD58C,0.023600*%
%ADD59C,0.009800*%
%ADD60C,0.005000*%
%ADD61C,0.008000*%
%ADD62C,0.010000*%
%ADD63C,0.007900*%
%ADD64C,0.003900*%
%ADD65C,0.015700*%
%ADD66C,0.006000*%
%ADD67C,0.007900*%
%ADD68C,0.005900*%
%ADD69R,1.574800X0.590600*%
%ADD70R,0.649600X0.332700*%
%LNr100.230.010.000-00_invertor-1*%
%LPD*%
G54D58*
X01376Y02948D02*
D01*
X01375Y02949*
X01375Y0295*
X01375Y02951*
X01375Y02952*
X01375Y02952*
X01374Y02953*
X01374Y02954*
X01374Y02955*
X01373Y02955*
X01373Y02956*
X01372Y02956*
X01372Y02957*
X01371Y02958*
X0137Y02958*
X0137Y02959*
X01369Y02959*
X01368Y02959*
X01367Y0296*
X01367Y0296*
X01366Y0296*
X01365Y0296*
X01364Y0296*
X01363*
X01362Y0296*
X01362Y0296*
X01361Y0296*
X0136Y0296*
X01359Y02959*
X01359Y02959*
X01358Y02959*
X01357Y02958*
X01356Y02958*
X01356Y02957*
X01355Y02956*
X01355Y02956*
X01354Y02955*
X01354Y02955*
X01353Y02954*
X01353Y02953*
X01353Y02952*
X01352Y02952*
X01352Y02951*
X01352Y0295*
X01352Y02949*
X01352Y02948*
X01352Y02947*
X01352Y02947*
X01352Y02946*
X01352Y02945*
X01353Y02944*
X01353Y02944*
X01353Y02943*
X01354Y02942*
X01354Y02941*
X01355Y02941*
X01355Y0294*
X01356Y0294*
X01356Y02939*
X01357Y02939*
X01358Y02938*
X01359Y02938*
X01359Y02937*
X0136Y02937*
X01361Y02937*
X01362Y02937*
X01362Y02937*
X01363Y02937*
X01364*
X01365Y02937*
X01366Y02937*
X01367Y02937*
X01367Y02937*
X01368Y02937*
X01369Y02938*
X0137Y02938*
X0137Y02939*
X01371Y02939*
X01372Y0294*
X01372Y0294*
X01373Y02941*
X01373Y02941*
X01374Y02942*
X01374Y02943*
X01374Y02944*
X01375Y02944*
X01375Y02945*
X01375Y02946*
X01375Y02947*
X01375Y02947*
X01376Y02948*
X04565Y02988D02*
D01*
X04564Y02989*
X04564Y02989*
X04564Y0299*
X04564Y02991*
X04564Y02992*
X04563Y02992*
X04563Y02993*
X04563Y02994*
X04562Y02995*
X04562Y02995*
X04561Y02996*
X04561Y02996*
X0456Y02997*
X04559Y02997*
X04559Y02998*
X04558Y02998*
X04557Y02999*
X04556Y02999*
X04556Y02999*
X04555Y02999*
X04554Y02999*
X04553Y02999*
X04552*
X04551Y02999*
X04551Y02999*
X0455Y02999*
X04549Y02999*
X04548Y02999*
X04548Y02998*
X04547Y02998*
X04546Y02997*
X04545Y02997*
X04545Y02996*
X04544Y02996*
X04544Y02995*
X04543Y02995*
X04543Y02994*
X04542Y02993*
X04542Y02992*
X04542Y02992*
X04541Y02991*
X04541Y0299*
X04541Y02989*
X04541Y02989*
X04541Y02988*
X04541Y02987*
X04541Y02986*
X04541Y02985*
X04541Y02984*
X04542Y02984*
X04542Y02983*
X04542Y02982*
X04543Y02981*
X04543Y02981*
X04544Y0298*
X04544Y0298*
X04545Y02979*
X04545Y02978*
X04546Y02978*
X04547Y02977*
X04548Y02977*
X04548Y02977*
X04549Y02976*
X0455Y02976*
X04551Y02976*
X04551Y02976*
X04552Y02976*
X04553*
X04554Y02976*
X04555Y02976*
X04556Y02976*
X04556Y02976*
X04557Y02977*
X04558Y02977*
X04559Y02977*
X04559Y02978*
X0456Y02978*
X04561Y02979*
X04561Y0298*
X04562Y0298*
X04562Y02981*
X04563Y02981*
X04563Y02982*
X04563Y02983*
X04564Y02984*
X04564Y02984*
X04564Y02985*
X04564Y02986*
X04564Y02987*
X04565Y02988*
X007Y01128D02*
D01*
X007Y01128*
X007Y01129*
X007Y0113*
X007Y01131*
X007Y01132*
X00699Y01132*
X00699Y01133*
X00699Y01134*
X00698Y01134*
X00698Y01135*
X00697Y01136*
X00696Y01136*
X00696Y01137*
X00695Y01137*
X00694Y01138*
X00694Y01138*
X00693Y01138*
X00692Y01139*
X00691Y01139*
X00691Y01139*
X0069Y01139*
X00689Y01139*
X00688*
X00687Y01139*
X00686Y01139*
X00686Y01139*
X00685Y01139*
X00684Y01138*
X00683Y01138*
X00683Y01138*
X00682Y01137*
X00681Y01137*
X00681Y01136*
X0068Y01136*
X00679Y01135*
X00679Y01134*
X00678Y01134*
X00678Y01133*
X00678Y01132*
X00677Y01132*
X00677Y01131*
X00677Y0113*
X00677Y01129*
X00677Y01128*
X00677Y01128*
X00677Y01127*
X00677Y01126*
X00677Y01125*
X00677Y01124*
X00677Y01123*
X00678Y01123*
X00678Y01122*
X00678Y01121*
X00679Y01121*
X00679Y0112*
X0068Y01119*
X00681Y01119*
X00681Y01118*
X00682Y01118*
X00683Y01117*
X00683Y01117*
X00684Y01117*
X00685Y01116*
X00686Y01116*
X00686Y01116*
X00687Y01116*
X00688Y01116*
X00689*
X0069Y01116*
X00691Y01116*
X00691Y01116*
X00692Y01116*
X00693Y01117*
X00694Y01117*
X00694Y01117*
X00695Y01118*
X00696Y01118*
X00696Y01119*
X00697Y01119*
X00698Y0112*
X00698Y01121*
X00699Y01121*
X00699Y01122*
X00699Y01123*
X007Y01123*
X007Y01124*
X007Y01125*
X007Y01126*
X007Y01127*
X007Y01128*
X05405Y01137D02*
D01*
X05405Y01138*
X05405Y01139*
X05405Y0114*
X05405Y01141*
X05404Y01141*
X05404Y01142*
X05404Y01143*
X05403Y01144*
X05403Y01144*
X05402Y01145*
X05402Y01145*
X05401Y01146*
X054Y01147*
X054Y01147*
X05399Y01148*
X05398Y01148*
X05398Y01148*
X05397Y01149*
X05396Y01149*
X05395Y01149*
X05394Y01149*
X05394Y01149*
X05393*
X05392Y01149*
X05391Y01149*
X0539Y01149*
X0539Y01149*
X05389Y01148*
X05388Y01148*
X05387Y01148*
X05387Y01147*
X05386Y01147*
X05385Y01146*
X05385Y01145*
X05384Y01145*
X05384Y01144*
X05383Y01144*
X05383Y01143*
X05382Y01142*
X05382Y01141*
X05382Y01141*
X05382Y0114*
X05382Y01139*
X05381Y01138*
X05381Y01137*
X05381Y01136*
X05382Y01136*
X05382Y01135*
X05382Y01134*
X05382Y01133*
X05382Y01133*
X05383Y01132*
X05383Y01131*
X05384Y0113*
X05384Y0113*
X05385Y01129*
X05385Y01129*
X05386Y01128*
X05387Y01128*
X05387Y01127*
X05388Y01127*
X05389Y01126*
X0539Y01126*
X0539Y01126*
X05391Y01126*
X05392Y01126*
X05393Y01126*
X05394*
X05394Y01126*
X05395Y01126*
X05396Y01126*
X05397Y01126*
X05398Y01126*
X05398Y01127*
X05399Y01127*
X054Y01128*
X054Y01128*
X05401Y01129*
X05402Y01129*
X05402Y0113*
X05403Y0113*
X05403Y01131*
X05404Y01132*
X05404Y01133*
X05404Y01133*
X05405Y01134*
X05405Y01135*
X05405Y01136*
X05405Y01136*
X05405Y01137*
G54D59*
X01317Y02865D02*
D01*
X01317Y02865*
X01317Y02865*
X01317Y02866*
X01317Y02866*
X01317Y02866*
X01317Y02867*
X01316Y02867*
X01316Y02867*
X01316Y02868*
X01316Y02868*
X01316Y02868*
X01315Y02868*
X01315Y02869*
X01315Y02869*
X01315Y02869*
X01314Y02869*
X01314Y02869*
X01314Y02869*
X01313Y02869*
X01313Y0287*
X01313Y0287*
X01312Y0287*
X01312*
X01312Y0287*
X01311Y0287*
X01311Y02869*
X01311Y02869*
X0131Y02869*
X0131Y02869*
X0131Y02869*
X01309Y02869*
X01309Y02869*
X01309Y02868*
X01309Y02868*
X01308Y02868*
X01308Y02868*
X01308Y02867*
X01308Y02867*
X01308Y02867*
X01307Y02866*
X01307Y02866*
X01307Y02866*
X01307Y02865*
X01307Y02865*
X01307Y02865*
X01307Y02864*
X01307Y02864*
X01307Y02864*
X01307Y02863*
X01307Y02863*
X01308Y02863*
X01308Y02862*
X01308Y02862*
X01308Y02862*
X01308Y02862*
X01309Y02861*
X01309Y02861*
X01309Y02861*
X01309Y02861*
X0131Y0286*
X0131Y0286*
X0131Y0286*
X01311Y0286*
X01311Y0286*
X01311Y0286*
X01312Y0286*
X01312Y0286*
X01312*
X01313Y0286*
X01313Y0286*
X01313Y0286*
X01314Y0286*
X01314Y0286*
X01314Y0286*
X01315Y0286*
X01315Y02861*
X01315Y02861*
X01315Y02861*
X01316Y02861*
X01316Y02862*
X01316Y02862*
X01316Y02862*
X01316Y02862*
X01317Y02863*
X01317Y02863*
X01317Y02863*
X01317Y02864*
X01317Y02864*
X01317Y02864*
X01317Y02865*
X04506Y02904D02*
D01*
X04506Y02904*
X04506Y02905*
X04506Y02905*
X04506Y02905*
X04506Y02906*
X04506Y02906*
X04505Y02906*
X04505Y02907*
X04505Y02907*
X04505Y02907*
X04505Y02907*
X04504Y02908*
X04504Y02908*
X04504Y02908*
X04504Y02908*
X04503Y02908*
X04503Y02909*
X04503Y02909*
X04502Y02909*
X04502Y02909*
X04502Y02909*
X04501Y02909*
X04501*
X04501Y02909*
X045Y02909*
X045Y02909*
X045Y02909*
X04499Y02909*
X04499Y02908*
X04499Y02908*
X04498Y02908*
X04498Y02908*
X04498Y02908*
X04498Y02907*
X04497Y02907*
X04497Y02907*
X04497Y02907*
X04497Y02906*
X04497Y02906*
X04496Y02906*
X04496Y02905*
X04496Y02905*
X04496Y02905*
X04496Y02904*
X04496Y02904*
X04496Y02904*
X04496Y02903*
X04496Y02903*
X04496Y02903*
X04496Y02902*
X04497Y02902*
X04497Y02902*
X04497Y02901*
X04497Y02901*
X04497Y02901*
X04498Y02901*
X04498Y029*
X04498Y029*
X04498Y029*
X04499Y029*
X04499Y029*
X04499Y02899*
X045Y02899*
X045Y02899*
X045Y02899*
X04501Y02899*
X04501Y02899*
X04501*
X04502Y02899*
X04502Y02899*
X04502Y02899*
X04503Y02899*
X04503Y02899*
X04503Y029*
X04504Y029*
X04504Y029*
X04504Y029*
X04504Y029*
X04505Y02901*
X04505Y02901*
X04505Y02901*
X04505Y02901*
X04505Y02902*
X04506Y02902*
X04506Y02902*
X04506Y02903*
X04506Y02903*
X04506Y02903*
X04506Y02904*
X04506Y02904*
X00953Y0169D02*
D01*
X00953Y01691*
X00953Y01691*
X00953Y01691*
X00953Y01692*
X00953Y01692*
X00953Y01692*
X00953Y01693*
X00952Y01693*
X00952Y01693*
X00952Y01694*
X00952Y01694*
X00952Y01694*
X00951Y01694*
X00951Y01694*
X00951Y01695*
X0095Y01695*
X0095Y01695*
X0095Y01695*
X00949Y01695*
X00949Y01695*
X00949Y01695*
X00948Y01695*
X00948*
X00948Y01695*
X00947Y01695*
X00947Y01695*
X00947Y01695*
X00946Y01695*
X00946Y01695*
X00946Y01695*
X00946Y01694*
X00945Y01694*
X00945Y01694*
X00945Y01694*
X00945Y01694*
X00944Y01693*
X00944Y01693*
X00944Y01693*
X00944Y01692*
X00944Y01692*
X00944Y01692*
X00944Y01691*
X00943Y01691*
X00943Y01691*
X00943Y0169*
X00943Y0169*
X00943Y0169*
X00944Y01689*
X00944Y01689*
X00944Y01689*
X00944Y01688*
X00944Y01688*
X00944Y01688*
X00944Y01688*
X00945Y01687*
X00945Y01687*
X00945Y01687*
X00945Y01687*
X00946Y01686*
X00946Y01686*
X00946Y01686*
X00946Y01686*
X00947Y01686*
X00947Y01686*
X00947Y01686*
X00948Y01686*
X00948Y01686*
X00948*
X00949Y01686*
X00949Y01686*
X00949Y01686*
X0095Y01686*
X0095Y01686*
X0095Y01686*
X00951Y01686*
X00951Y01686*
X00951Y01687*
X00952Y01687*
X00952Y01687*
X00952Y01687*
X00952Y01688*
X00952Y01688*
X00953Y01688*
X00953Y01688*
X00953Y01689*
X00953Y01689*
X00953Y01689*
X00953Y0169*
X00953Y0169*
X00953Y0169*
X0553Y01759D02*
D01*
X0553Y0176*
X0553Y0176*
X0553Y0176*
X0553Y01761*
X0553Y01761*
X0553Y01761*
X05529Y01762*
X05529Y01762*
X05529Y01762*
X05529Y01762*
X05529Y01763*
X05528Y01763*
X05528Y01763*
X05528Y01763*
X05528Y01764*
X05527Y01764*
X05527Y01764*
X05527Y01764*
X05526Y01764*
X05526Y01764*
X05526Y01764*
X05525Y01764*
X05525*
X05525Y01764*
X05524Y01764*
X05524Y01764*
X05524Y01764*
X05523Y01764*
X05523Y01764*
X05523Y01764*
X05522Y01763*
X05522Y01763*
X05522Y01763*
X05522Y01763*
X05521Y01762*
X05521Y01762*
X05521Y01762*
X05521Y01762*
X05521Y01761*
X0552Y01761*
X0552Y01761*
X0552Y0176*
X0552Y0176*
X0552Y0176*
X0552Y01759*
X0552Y01759*
X0552Y01759*
X0552Y01758*
X0552Y01758*
X0552Y01758*
X05521Y01757*
X05521Y01757*
X05521Y01757*
X05521Y01756*
X05521Y01756*
X05522Y01756*
X05522Y01756*
X05522Y01755*
X05522Y01755*
X05523Y01755*
X05523Y01755*
X05523Y01755*
X05524Y01755*
X05524Y01755*
X05524Y01754*
X05525Y01754*
X05525Y01754*
X05525*
X05526Y01754*
X05526Y01754*
X05526Y01755*
X05527Y01755*
X05527Y01755*
X05527Y01755*
X05528Y01755*
X05528Y01755*
X05528Y01755*
X05528Y01756*
X05529Y01756*
X05529Y01756*
X05529Y01756*
X05529Y01757*
X05529Y01757*
X0553Y01757*
X0553Y01758*
X0553Y01758*
X0553Y01758*
X0553Y01759*
X0553Y01759*
X0553Y01759*
X00644Y01044D02*
D01*
X00644Y01044*
X00644Y01044*
X00644Y01045*
X00644Y01045*
X00644Y01045*
X00644Y01046*
X00643Y01046*
X00643Y01046*
X00643Y01047*
X00643Y01047*
X00643Y01047*
X00642Y01047*
X00642Y01048*
X00642Y01048*
X00642Y01048*
X00641Y01048*
X00641Y01048*
X00641Y01048*
X0064Y01049*
X0064Y01049*
X0064Y01049*
X00639Y01049*
X00639*
X00639Y01049*
X00638Y01049*
X00638Y01049*
X00638Y01048*
X00637Y01048*
X00637Y01048*
X00637Y01048*
X00636Y01048*
X00636Y01048*
X00636Y01047*
X00636Y01047*
X00635Y01047*
X00635Y01047*
X00635Y01046*
X00635Y01046*
X00635Y01046*
X00634Y01045*
X00634Y01045*
X00634Y01045*
X00634Y01044*
X00634Y01044*
X00634Y01044*
X00634Y01043*
X00634Y01043*
X00634Y01043*
X00634Y01042*
X00634Y01042*
X00635Y01042*
X00635Y01041*
X00635Y01041*
X00635Y01041*
X00635Y01041*
X00636Y0104*
X00636Y0104*
X00636Y0104*
X00636Y0104*
X00637Y0104*
X00637Y01039*
X00637Y01039*
X00638Y01039*
X00638Y01039*
X00638Y01039*
X00639Y01039*
X00639Y01039*
X00639*
X0064Y01039*
X0064Y01039*
X0064Y01039*
X00641Y01039*
X00641Y01039*
X00641Y01039*
X00642Y0104*
X00642Y0104*
X00642Y0104*
X00642Y0104*
X00643Y0104*
X00643Y01041*
X00643Y01041*
X00643Y01041*
X00643Y01041*
X00644Y01042*
X00644Y01042*
X00644Y01042*
X00644Y01043*
X00644Y01043*
X00644Y01043*
X00644Y01044*
X05349Y01054D02*
D01*
X05349Y01054*
X05349Y01054*
X05349Y01055*
X05349Y01055*
X05348Y01055*
X05348Y01056*
X05348Y01056*
X05348Y01056*
X05348Y01056*
X05348Y01057*
X05347Y01057*
X05347Y01057*
X05347Y01057*
X05347Y01058*
X05346Y01058*
X05346Y01058*
X05346Y01058*
X05345Y01058*
X05345Y01058*
X05345Y01058*
X05344Y01058*
X05344Y01058*
X05344*
X05343Y01058*
X05343Y01058*
X05343Y01058*
X05342Y01058*
X05342Y01058*
X05342Y01058*
X05341Y01058*
X05341Y01058*
X05341Y01057*
X05341Y01057*
X0534Y01057*
X0534Y01057*
X0534Y01056*
X0534Y01056*
X05339Y01056*
X05339Y01056*
X05339Y01055*
X05339Y01055*
X05339Y01055*
X05339Y01054*
X05339Y01054*
X05339Y01054*
X05339Y01053*
X05339Y01053*
X05339Y01053*
X05339Y01052*
X05339Y01052*
X05339Y01052*
X05339Y01051*
X0534Y01051*
X0534Y01051*
X0534Y0105*
X0534Y0105*
X05341Y0105*
X05341Y0105*
X05341Y0105*
X05341Y01049*
X05342Y01049*
X05342Y01049*
X05342Y01049*
X05343Y01049*
X05343Y01049*
X05343Y01049*
X05344Y01049*
X05344*
X05344Y01049*
X05345Y01049*
X05345Y01049*
X05345Y01049*
X05346Y01049*
X05346Y01049*
X05346Y01049*
X05347Y0105*
X05347Y0105*
X05347Y0105*
X05347Y0105*
X05348Y0105*
X05348Y01051*
X05348Y01051*
X05348Y01051*
X05348Y01052*
X05348Y01052*
X05349Y01052*
X05349Y01053*
X05349Y01053*
X05349Y01053*
X05349Y01054*
X02529Y08157D02*
X0251D01*
X025Y08147*
Y08108*
X0251Y08098*
X02529*
X02539Y08108*
Y08147*
X02529Y08157*
X02559D02*
Y08098D01*
X02598*
X02618Y08157D02*
X02657D01*
X02637*
Y08098*
X02716Y08157D02*
X02677D01*
Y08098*
X02716*
X02677Y08127D02*
X02696D01*
X02775Y08147D02*
X02765Y08157D01*
X02746*
X02736Y08147*
Y08137*
X02746Y08127*
X02765*
X02775Y08118*
Y08108*
X02765Y08098*
X02746*
X02736Y08108*
X02795Y08157D02*
X02834D01*
X02815*
Y08098*
X02913D02*
X02933D01*
X02923*
Y08157*
X02913Y08147*
X02962Y08098D02*
X02982D01*
X02972*
Y08157*
X02962Y08147*
X03011Y08098D02*
Y08108D01*
X03021*
Y08098*
X03011*
X03061Y08147D02*
X0307Y08157D01*
X0309*
X031Y08147*
Y08108*
X0309Y08098*
X0307*
X03061Y08108*
Y08147*
X03149Y08098D02*
Y08157D01*
X0312Y08127*
X03159*
X03179Y08098D02*
Y08108D01*
X03188*
Y08098*
X03179*
X03267D02*
X03228D01*
X03267Y08137*
Y08147*
X03257Y08157*
X03238*
X03228Y08147*
X03287D02*
X03297Y08157D01*
X03316*
X03326Y08147*
Y08108*
X03316Y08098*
X03297*
X03287Y08108*
Y08147*
X03346Y08098D02*
X03366D01*
X03356*
Y08157*
X03346Y08147*
X03395Y08108D02*
X03405Y08098D01*
X03425*
X03434Y08108*
Y08147*
X03425Y08157*
X03405*
X03395Y08147*
Y08137*
X03405Y08127*
X03434*
X02411Y07862D02*
Y07921D01*
X0244*
X0245Y07911*
Y07891*
X0244Y07881*
X02411*
X02431D02*
X0245Y07862D01*
X0247D02*
X0249D01*
X0248*
Y07921*
X0247Y07911*
X02519D02*
X02529Y07921D01*
X02549*
X02559Y07911*
Y07872*
X02549Y07862*
X02529*
X02519Y07872*
Y07911*
X02578D02*
X02588Y07921D01*
X02608*
X02618Y07911*
Y07872*
X02608Y07862*
X02588*
X02578Y07872*
Y07911*
X02637Y07862D02*
Y07872D01*
X02647*
Y07862*
X02637*
X02726D02*
X02686D01*
X02726Y07901*
Y07911*
X02716Y07921*
X02696*
X02686Y07911*
X02746D02*
X02755Y07921D01*
X02775*
X02785Y07911*
Y07901*
X02775Y07891*
X02765*
X02775*
X02785Y07881*
Y07872*
X02775Y07862*
X02755*
X02746Y07872*
X02805Y07911D02*
X02814Y07921D01*
X02834*
X02844Y07911*
Y07872*
X02834Y07862*
X02814*
X02805Y07872*
Y07911*
X02864Y07862D02*
Y07872D01*
X02873*
Y07862*
X02864*
X02913Y07911D02*
X02923Y07921D01*
X02942*
X02952Y07911*
Y07872*
X02942Y07862*
X02923*
X02913Y07872*
Y07911*
X02972Y07862D02*
X02991D01*
X02982*
Y07921*
X02972Y07911*
X03021D02*
X03031Y07921D01*
X03051*
X0306Y07911*
Y07872*
X03051Y07862*
X03031*
X03021Y07872*
Y07911*
X0308Y07862D02*
Y07872D01*
X0309*
Y07862*
X0308*
X03129Y07911D02*
X03139Y07921D01*
X03159*
X03169Y07911*
Y07872*
X03159Y07862*
X03139*
X03129Y07872*
Y07911*
X03188D02*
X03198Y07921D01*
X03218*
X03228Y07911*
Y07872*
X03218Y07862*
X03198*
X03188Y07872*
Y07911*
X03247D02*
X03257Y07921D01*
X03277*
X03287Y07911*
Y07872*
X03277Y07862*
X03257*
X03247Y07872*
Y07911*
X03306Y07891D02*
X03346D01*
X03365Y07911D02*
X03375Y07921D01*
X03395*
X03405Y07911*
Y07872*
X03395Y07862*
X03375*
X03365Y07872*
Y07911*
X03424D02*
X03434Y07921D01*
X03454*
X03464Y07911*
Y07872*
X03454Y07862*
X03434*
X03424Y07872*
Y07911*
X02657Y08045D02*
X02677D01*
X02667*
Y07986*
X02657*
X02677*
X02706D02*
Y08026D01*
X02736*
X02746Y08016*
Y07986*
X02765Y08026D02*
X02785Y07986D01*
X02805Y08026*
X02854Y07986D02*
X02834D01*
X02824Y07996*
Y08016*
X02834Y08026*
X02854*
X02864Y08016*
Y08006*
X02824*
X02883Y08026D02*
Y07986D01*
Y08006*
X02893Y08016*
X02903Y08026*
X02913*
X02952Y08036D02*
Y08026D01*
X02942*
X02962*
X02952*
Y07996*
X02962Y07986*
X03002D02*
X03021D01*
X03031Y07996*
Y08016*
X03021Y08026*
X03002*
X02992Y08016*
Y07996*
X03002Y07986*
X03051Y08026D02*
Y07986D01*
Y08006*
X03061Y08016*
X0307Y08026*
X0308*
X0311Y07976D02*
X03149D01*
X03169Y08026D02*
X03188Y07986D01*
X03208Y08026*
X03228Y07986D02*
X03247D01*
X03238*
Y08045*
X03228Y08036*
G54D60*
X01515Y04763D02*
D01*
X01514Y04811*
X01508Y04859*
X015Y04907*
X01489Y04953*
X01474Y04999*
X01456Y05044*
X01435Y05087*
X01411Y05128*
X01384Y05168*
X01354Y05206*
X01322Y05242*
X01287Y05275*
X0125Y05306*
X01211Y05335*
X01171Y0536*
X01128Y05383*
X01084Y05402*
X01039Y05419*
X00993Y05432*
X00946Y05442*
X00898Y05449*
X0085Y05452*
X00802*
X00754Y05449*
X00707Y05442*
X0066Y05432*
X00613Y05419*
X00568Y05402*
X00524Y05383*
X00482Y0536*
X00441Y05335*
X00402Y05306*
X00365Y05275*
X00331Y05242*
X00298Y05206*
X00269Y05168*
X00242Y05128*
X00218Y05087*
X00197Y05044*
X00179Y04999*
X00164Y04953*
X00152Y04907*
X00144Y04859*
X00139Y04811*
X00137Y04763*
X00139Y04715*
X00144Y04667*
X00152Y0462*
X00164Y04573*
X00179Y04528*
X00197Y04483*
X00218Y0444*
X00242Y04398*
X00269Y04358*
X00298Y0432*
X00331Y04285*
X00365Y04251*
X00402Y0422*
X00441Y04192*
X00482Y04167*
X00524Y04144*
X00568Y04124*
X00613Y04108*
X0066Y04095*
X00707Y04085*
X00754Y04078*
X00802Y04075*
X0085*
X00898Y04078*
X00946Y04085*
X00993Y04095*
X01039Y04108*
X01084Y04124*
X01128Y04144*
X01171Y04167*
X01211Y04192*
X0125Y0422*
X01287Y04251*
X01322Y04285*
X01354Y0432*
X01384Y04358*
X01411Y04398*
X01435Y0444*
X01456Y04483*
X01474Y04528*
X01489Y04573*
X015Y0462*
X01508Y04667*
X01514Y04715*
X01515Y04763*
Y07263D02*
D01*
X01514Y07311*
X01508Y07359*
X015Y07407*
X01489Y07453*
X01474Y07499*
X01456Y07544*
X01435Y07587*
X01411Y07628*
X01384Y07668*
X01354Y07706*
X01322Y07742*
X01287Y07775*
X0125Y07806*
X01211Y07835*
X01171Y0786*
X01128Y07883*
X01084Y07902*
X01039Y07919*
X00993Y07932*
X00946Y07942*
X00898Y07949*
X0085Y07952*
X00802*
X00754Y07949*
X00707Y07942*
X0066Y07932*
X00613Y07919*
X00568Y07902*
X00524Y07883*
X00482Y0786*
X00441Y07835*
X00402Y07806*
X00365Y07775*
X00331Y07742*
X00298Y07706*
X00269Y07668*
X00242Y07628*
X00218Y07587*
X00197Y07544*
X00179Y07499*
X00164Y07453*
X00152Y07407*
X00144Y07359*
X00139Y07311*
X00137Y07263*
X00139Y07215*
X00144Y07167*
X00152Y0712*
X00164Y07073*
X00179Y07028*
X00197Y06983*
X00218Y0694*
X00242Y06898*
X00269Y06858*
X00298Y0682*
X00331Y06785*
X00365Y06751*
X00402Y0672*
X00441Y06692*
X00482Y06667*
X00524Y06644*
X00568Y06624*
X00613Y06608*
X0066Y06595*
X00707Y06585*
X00754Y06578*
X00802Y06575*
X0085*
X00898Y06578*
X00946Y06585*
X00993Y06595*
X01039Y06608*
X01084Y06624*
X01128Y06644*
X01171Y06667*
X01211Y06692*
X0125Y0672*
X01287Y06751*
X01322Y06785*
X01354Y0682*
X01384Y06858*
X01411Y06898*
X01435Y0694*
X01456Y06983*
X01474Y07028*
X01489Y07073*
X015Y0712*
X01508Y07167*
X01514Y07215*
X01515Y07263*
X05836Y0499D02*
D01*
X05834Y05038*
X05829Y05086*
X05821Y05133*
X05809Y0518*
X05795Y05225*
X05777Y0527*
X05755Y05313*
X05731Y05355*
X05705Y05395*
X05675Y05433*
X05643Y05468*
X05608Y05502*
X05571Y05533*
X05532Y05561*
X05492Y05586*
X05449Y05609*
X05405Y05629*
X0536Y05645*
X05314Y05658*
X05267Y05668*
X05219Y05675*
X05171Y05678*
X05123*
X05075Y05675*
X05027Y05668*
X0498Y05658*
X04934Y05645*
X04889Y05629*
X04845Y05609*
X04803Y05586*
X04762Y05561*
X04723Y05533*
X04686Y05502*
X04651Y05468*
X04619Y05433*
X0459Y05395*
X04563Y05355*
X04539Y05313*
X04518Y0527*
X045Y05225*
X04485Y0518*
X04473Y05133*
X04465Y05086*
X0446Y05038*
X04458Y0499*
X0446Y04942*
X04465Y04894*
X04473Y04846*
X04485Y048*
X045Y04754*
X04518Y04709*
X04539Y04666*
X04563Y04625*
X0459Y04585*
X04619Y04547*
X04651Y04511*
X04686Y04478*
X04723Y04447*
X04762Y04418*
X04803Y04393*
X04845Y0437*
X04889Y04351*
X04934Y04334*
X0498Y04321*
X05027Y04311*
X05075Y04304*
X05123Y04301*
X05171*
X05219Y04304*
X05267Y04311*
X05314Y04321*
X0536Y04334*
X05405Y04351*
X05449Y0437*
X05492Y04393*
X05532Y04418*
X05571Y04447*
X05608Y04478*
X05643Y04511*
X05675Y04547*
X05705Y04585*
X05731Y04625*
X05755Y04666*
X05777Y04709*
X05795Y04754*
X05809Y048*
X05821Y04846*
X05829Y04894*
X05834Y04942*
X05836Y0499*
X05295Y06358D02*
D01*
X05293Y06406*
X05288Y06454*
X0528Y06501*
X05268Y06548*
X05253Y06593*
X05235Y06638*
X05214Y06681*
X0519Y06723*
X05163Y06763*
X05134Y06801*
X05101Y06836*
X05067Y0687*
X0503Y06901*
X04991Y06929*
X0495Y06954*
X04908Y06977*
X04864Y06997*
X04819Y07013*
X04772Y07026*
X04725Y07036*
X04678Y07043*
X0463Y07046*
X04582*
X04534Y07043*
X04486Y07036*
X04439Y07026*
X04393Y07013*
X04348Y06997*
X04304Y06977*
X04261Y06954*
X04221Y06929*
X04182Y06901*
X04145Y0687*
X0411Y06836*
X04078Y06801*
X04048Y06763*
X04021Y06723*
X03997Y06681*
X03976Y06638*
X03958Y06593*
X03943Y06548*
X03932Y06501*
X03924Y06454*
X03918Y06406*
X03917Y06358*
X03918Y0631*
X03924Y06262*
X03932Y06215*
X03943Y06168*
X03958Y06122*
X03976Y06078*
X03997Y06034*
X04021Y05993*
X04048Y05953*
X04078Y05915*
X0411Y05879*
X04145Y05846*
X04182Y05815*
X04221Y05787*
X04261Y05761*
X04304Y05739*
X04348Y05719*
X04393Y05703*
X04439Y05689*
X04486Y05679*
X04534Y05673*
X04582Y05669*
X0463*
X04678Y05673*
X04725Y05679*
X04772Y05689*
X04819Y05703*
X04864Y05719*
X04908Y05739*
X0495Y05761*
X04991Y05787*
X0503Y05815*
X05067Y05846*
X05101Y05879*
X05134Y05915*
X05163Y05953*
X0519Y05993*
X05214Y06034*
X05235Y06078*
X05253Y06122*
X05268Y06168*
X0528Y06215*
X05288Y06262*
X05293Y0631*
X05295Y06358*
X05964Y07755D02*
D01*
X05962Y07803*
X05957Y07851*
X05949Y07899*
X05937Y07945*
X05923Y07991*
X05905Y08036*
X05883Y08079*
X05859Y08121*
X05833Y0816*
X05803Y08198*
X05771Y08234*
X05736Y08267*
X05699Y08298*
X0566Y08327*
X0562Y08352*
X05577Y08375*
X05533Y08394*
X05488Y08411*
X05442Y08424*
X05395Y08434*
X05347Y08441*
X05299Y08444*
X05251*
X05203Y08441*
X05155Y08434*
X05108Y08424*
X05062Y08411*
X05017Y08394*
X04973Y08375*
X04931Y08352*
X0489Y08327*
X04851Y08298*
X04814Y08267*
X04779Y08234*
X04747Y08198*
X04718Y0816*
X04691Y08121*
X04667Y08079*
X04646Y08036*
X04628Y07991*
X04613Y07945*
X04601Y07899*
X04593Y07851*
X04588Y07803*
X04586Y07755*
X04588Y07707*
X04593Y0766*
X04601Y07612*
X04613Y07565*
X04628Y0752*
X04646Y07475*
X04667Y07432*
X04691Y0739*
X04718Y0735*
X04747Y07313*
X04779Y07277*
X04814Y07243*
X04851Y07212*
X0489Y07184*
X04931Y07159*
X04973Y07136*
X05017Y07117*
X05062Y071*
X05108Y07087*
X05155Y07077*
X05203Y0707*
X05251Y07067*
X05299*
X05347Y0707*
X05395Y07077*
X05442Y07087*
X05488Y071*
X05533Y07117*
X05577Y07136*
X0562Y07159*
X0566Y07184*
X05699Y07212*
X05736Y07243*
X05771Y07277*
X05803Y07313*
X05833Y0735*
X05859Y0739*
X05883Y07432*
X05905Y07475*
X05923Y0752*
X05937Y07565*
X05949Y07612*
X05957Y0766*
X05962Y07707*
X05964Y07755*
X02165Y06023D02*
D01*
X02163Y06071*
X02158Y06119*
X0215Y06166*
X02138Y06213*
X02123Y06259*
X02105Y06303*
X02084Y06347*
X0206Y06388*
X02033Y06428*
X02004Y06466*
X01972Y06502*
X01937Y06535*
X019Y06566*
X01861Y06594*
X0182Y0662*
X01778Y06642*
X01734Y06662*
X01689Y06678*
X01643Y06692*
X01596Y06702*
X01548Y06708*
X015Y06712*
X01452*
X01404Y06708*
X01356Y06702*
X01309Y06692*
X01263Y06678*
X01218Y06662*
X01174Y06642*
X01131Y0662*
X01091Y06594*
X01052Y06566*
X01015Y06535*
X0098Y06502*
X00948Y06466*
X00918Y06428*
X00892Y06388*
X00868Y06347*
X00846Y06303*
X00828Y06259*
X00814Y06213*
X00802Y06166*
X00794Y06119*
X00789Y06071*
X00787Y06023*
X00789Y05975*
X00794Y05927*
X00802Y0588*
X00814Y05833*
X00828Y05787*
X00846Y05743*
X00868Y057*
X00892Y05658*
X00918Y05618*
X00948Y0558*
X0098Y05544*
X01015Y05511*
X01052Y0548*
X01091Y05452*
X01131Y05426*
X01174Y05404*
X01218Y05384*
X01263Y05368*
X01309Y05355*
X01356Y05345*
X01404Y05338*
X01452Y05335*
X015*
X01548Y05338*
X01596Y05345*
X01643Y05355*
X01689Y05368*
X01734Y05384*
X01778Y05404*
X0182Y05426*
X01861Y05452*
X019Y0548*
X01937Y05511*
X01972Y05544*
X02004Y0558*
X02033Y05618*
X0206Y05658*
X02084Y057*
X02105Y05743*
X02123Y05787*
X02138Y05833*
X0215Y0588*
X02158Y05927*
X02163Y05975*
X02165Y06023*
X00629Y04849D02*
Y04899D01*
X00604Y04874D02*
X00654D01*
X00629Y07349D02*
Y07399D01*
X00604Y07374D02*
X00654D01*
X05344Y04854D02*
Y04904D01*
X05319Y04879D02*
X05369D01*
X04803Y06222D02*
Y06272D01*
X04778Y06247D02*
X04828D01*
X05472Y0762D02*
Y0767D01*
X05447Y07645D02*
X05497D01*
X01279Y06109D02*
Y06159D01*
X01254Y06134D02*
X01304D01*
X01349Y03187D02*
Y0331D01*
Y03187D02*
X01544D01*
Y0331*
X01349D02*
X01544D01*
X04538Y03226D02*
Y03349D01*
Y03226D02*
X04733D01*
Y03349*
X04538D02*
X04733D01*
X05606Y00498D02*
X05768D01*
X05606D02*
Y00525D01*
X05768*
Y00498D02*
Y00525D01*
X05564D02*
X05816D01*
X05564D02*
Y00572D01*
X05816*
Y00525D02*
Y00572D01*
X00393Y00368D02*
X00554D01*
Y0034D02*
Y00368D01*
X00393Y0034D02*
X00554D01*
X00393D02*
Y00368D01*
X00344Y0034D02*
X00596D01*
Y00293D02*
Y0034D01*
X00344Y00293D02*
X00596D01*
X00344D02*
Y0034D01*
X00447Y01338D02*
X00536D01*
Y01535*
X00447D02*
X00536D01*
X00447Y01338D02*
Y01535D01*
X05644Y01318D02*
X05733D01*
Y01515*
X05644D02*
X05733D01*
X05644Y01318D02*
Y01515D01*
X0353Y07422D02*
X036D01*
X0353D02*
Y07737D01*
X036*
Y07422D02*
Y07737D01*
G54D61*
X04873Y00648D02*
Y00768D01*
X04553Y00648D02*
X04873D01*
X04553D02*
Y00768D01*
X04873*
X02784Y06078D02*
X02904D01*
X02784D02*
Y06398D01*
X02904*
Y06078D02*
Y06398D01*
X01625Y00609D02*
Y00729D01*
X01305Y00609D02*
X01625D01*
X01305D02*
Y00729D01*
X01625*
X05894Y05614D02*
X06014D01*
Y05294D02*
Y05614D01*
X05894Y05294D02*
X06014D01*
X05894D02*
Y05614D01*
X036Y07381D02*
X03649D01*
X036D02*
Y07777D01*
X03649*
Y07381D02*
Y07777D01*
X0392Y07346D02*
Y07812D01*
X0365D02*
X0392D01*
X0365Y07346D02*
Y07812D01*
Y07346D02*
X0392D01*
G54D62*
X01102Y02224D02*
Y03858D01*
X00688D02*
X01102D01*
X00315D02*
X00688D01*
X00315Y02224D02*
Y03858D01*
Y02224D02*
X01102D01*
X05866Y02126D02*
Y03759D01*
X05452D02*
X05866D01*
X05078D02*
X05452D01*
X05078Y02126D02*
Y03759D01*
Y02126D02*
X05866D01*
X01842Y02932D02*
Y05215D01*
X02525*
X01842Y02932D02*
X02526D01*
Y05215*
Y02932D02*
X03102D01*
Y05215*
X02526D02*
X03102D01*
X04374Y02933D02*
Y05216D01*
X0369Y02933D02*
X04374D01*
X0369Y05216D02*
X04374D01*
X0369Y02933D02*
Y05216D01*
X03114D02*
X0369D01*
X03114Y02933D02*
Y05216D01*
Y02933D02*
X0369D01*
X01842Y00612D02*
Y02895D01*
X02525*
X01842Y00612D02*
X02526D01*
Y02895*
Y00612D02*
X03102D01*
Y02895*
X02526D02*
X03102D01*
X04374Y00613D02*
Y02896D01*
X0369Y00613D02*
X04374D01*
X0369Y02896D02*
X04374D01*
X0369Y00613D02*
Y02896D01*
X03114D02*
X0369D01*
X03114Y00613D02*
Y02896D01*
Y00613D02*
X0369D01*
X00072Y04756D02*
X00122D01*
X00097Y04731D02*
Y0478D01*
X00072Y07256D02*
X00122D01*
X00097Y07231D02*
Y0728D01*
X05852Y04997D02*
X05901D01*
X05877Y04973D02*
Y05022D01*
X05311Y06365D02*
X0536D01*
X05335Y06341D02*
Y0639D01*
X0598Y07762D02*
X06029D01*
X06004Y07739D02*
Y07788D01*
X00722Y06016D02*
X00771D01*
X00747Y05991D02*
Y0604D01*
X05494Y00306D02*
X05533Y00266D01*
X05454D02*
X05533D01*
X05454D02*
X05494Y00306D01*
X00627Y00599D02*
X00667Y0056D01*
X00627Y00599D02*
X00706D01*
X00667Y0056D02*
X00706Y00599D01*
X01646Y03828D02*
Y03927D01*
X01181Y03127D02*
X01279D01*
X01712Y03107D02*
X01811D01*
X01646Y02352D02*
Y0245D01*
X04475Y03336D02*
Y03435D01*
X0437Y03156D02*
X04468D01*
X04911D02*
X05009D01*
X04554Y01899D02*
Y01998D01*
X05354Y05787D02*
Y06122D01*
Y05787D02*
X06132D01*
Y06122*
X05354D02*
X06132D01*
X05413Y06063D02*
Y06122D01*
Y06063D02*
X0607D01*
Y06122*
X05436Y06131D02*
X05475Y06171D01*
X05396D02*
X05475D01*
X05396D02*
X05436Y06131D01*
X06141Y06712D02*
Y07047D01*
X05363D02*
X06141D01*
X05363Y06712D02*
Y07047D01*
Y06712D02*
X06141D01*
X06082D02*
Y06771D01*
X05425D02*
X06082D01*
X05425Y06712D02*
Y06771D01*
X0602Y06663D02*
X0606Y06702D01*
X0602Y06663D02*
X06099D01*
X0606Y06702D02*
X06099Y06663D01*
X00436Y00865D02*
Y01595D01*
X00176Y00865D02*
X00436D01*
X00176D02*
Y01655D01*
X00436*
Y01595D02*
Y01655D01*
X06007Y00884D02*
Y01614D01*
X05747Y00884D02*
X06007D01*
X05747D02*
Y01674D01*
X06007*
Y01614D02*
Y01674D01*
X03931Y07419D02*
X0397Y07459D01*
Y0738D02*
Y07459D01*
X03931Y07419D02*
X0397Y0738D01*
G54D63*
X01667Y02909D02*
Y03035D01*
X01324Y02909D02*
Y03035D01*
X01667*
X01324Y02909D02*
X01667D01*
X04856Y02948D02*
Y03074D01*
X04513Y02948D02*
Y03074D01*
X04856*
X04513Y02948D02*
X04856D01*
X03903Y02457D02*
X04112D01*
X03903Y01831D02*
X04112D01*
Y02457*
X03903Y01831D02*
Y02457D01*
X03923Y01831D02*
Y02457D01*
X021Y01831D02*
X02309D01*
X021Y02457D02*
X02309D01*
X021Y01831D02*
Y02457D01*
X02309Y01831D02*
Y02457D01*
X02289Y01831D02*
Y02457D01*
X021Y03367D02*
X02309D01*
X021Y03993D02*
X02309D01*
X021Y03367D02*
Y03993D01*
X02309Y03367D02*
Y03993D01*
X02289Y03367D02*
Y03993D01*
X03903D02*
X04112D01*
X03903Y03367D02*
X04112D01*
Y03993*
X03903Y03367D02*
Y03993D01*
X03923Y03367D02*
Y03993D01*
X01417Y03299D02*
X01476D01*
X01417Y03196D02*
X01476D01*
X04606Y03338D02*
X04665D01*
X04606Y03236D02*
X04665D01*
X00685Y01626D02*
X00948D01*
X00685Y01523D02*
X00948D01*
Y01626*
X00685Y01523D02*
Y01626D01*
X05261Y01694D02*
X05525D01*
X05261Y01592D02*
X05525D01*
Y01694*
X05261Y01592D02*
Y01694D01*
X01687Y03924D02*
Y03933D01*
X01895Y03924D02*
Y03933D01*
X01687Y03822D02*
Y03831D01*
X01895Y03822D02*
Y03831D01*
X01687Y03933D02*
X01895D01*
X01687Y03822D02*
X01895D01*
X01276Y03086D02*
X01285D01*
X01276Y02878D02*
X01285D01*
X01175Y03086D02*
X01184D01*
X01175Y02878D02*
X01184D01*
X01285D02*
Y03086D01*
X01175Y02878D02*
Y03086D01*
X01808Y03066D02*
X01816D01*
X01808Y02858D02*
X01816D01*
X01706Y03066D02*
X01715D01*
X01706Y02858D02*
X01715D01*
X01816D02*
Y03066D01*
X01706Y02858D02*
Y03066D01*
X01687Y02447D02*
Y02456D01*
X01895Y02447D02*
Y02456D01*
X01687Y02346D02*
Y02355D01*
X01895Y02346D02*
Y02355D01*
X01687Y02456D02*
X01895D01*
X01687Y02346D02*
X01895D01*
X04435Y0333D02*
Y03339D01*
X04226Y0333D02*
Y03339D01*
X04435Y03432D02*
Y0344D01*
X04226Y03432D02*
Y0344D01*
Y0333D02*
X04435D01*
X04226Y0344D02*
X04435D01*
X04465Y03116D02*
X04474D01*
X04465Y02907D02*
X04474D01*
X04364Y03116D02*
X04373D01*
X04364Y02907D02*
X04373D01*
X04474D02*
Y03116D01*
X04364Y02907D02*
Y03116D01*
X05006D02*
X05015D01*
X05006Y02907D02*
X05015D01*
X04905Y03116D02*
X04914D01*
X04905Y02907D02*
X04914D01*
X05015D02*
Y03116D01*
X04905Y02907D02*
Y03116D01*
X04513Y01893D02*
Y01902D01*
X04305Y01893D02*
Y01902D01*
X04513Y01995D02*
Y02003D01*
X04305Y01995D02*
Y02003D01*
Y01893D02*
X04513D01*
X04305Y02003D02*
X04513D01*
X00649Y01088D02*
X00846D01*
X00649Y01214D02*
X00846D01*
X00649Y01088D02*
Y01214D01*
X00846Y01088D02*
Y01214D01*
X05354Y01098D02*
X05551D01*
X05354Y01224D02*
X05551D01*
X05354Y01098D02*
Y01224D01*
X05551Y01098D02*
Y01224D01*
G54D64*
X01783Y04018D02*
X01818D01*
X01783Y03953D02*
X01818D01*
X0171Y03943D02*
Y04028D01*
Y03943D02*
X01891D01*
Y04028*
X0171D02*
X01891D01*
X01862Y03438D02*
X01897D01*
X01862Y03373D02*
X01897D01*
X01789Y03363D02*
Y03447D01*
Y03363D02*
X0197D01*
Y03447*
X01789D02*
X0197D01*
X01793Y02296D02*
X01828D01*
X01793Y02231D02*
X01828D01*
X0172Y02221D02*
Y02306D01*
Y02221D02*
X01901D01*
Y02306*
X0172D02*
X01901D01*
X01753Y01961D02*
X01789D01*
X01753Y01896D02*
X01789D01*
X01681Y01886D02*
Y01971D01*
Y01886D02*
X01862D01*
Y01971*
X01681D02*
X01862D01*
X04283Y03235D02*
X04318D01*
X04283Y033D02*
X04318D01*
X04391Y03225D02*
Y0331D01*
X0421D02*
X04391D01*
X0421Y03225D02*
Y0331D01*
Y03225D02*
X04391D01*
X0445Y03904D02*
X04486D01*
X0445Y03969D02*
X04486D01*
X04559Y03894D02*
Y03979D01*
X04378D02*
X04559D01*
X04378Y03894D02*
Y03979D01*
Y03894D02*
X04559D01*
X04372Y02034D02*
X04407D01*
X04372Y02099D02*
X04407D01*
X0448Y02024D02*
Y02109D01*
X04299D02*
X0448D01*
X04299Y02024D02*
Y02109D01*
Y02024D02*
X0448D01*
X0445Y02329D02*
X04486D01*
X0445Y02394D02*
X04486D01*
X04559Y02319D02*
Y02404D01*
X04378D02*
X04559D01*
X04378Y02319D02*
Y02404D01*
Y02319D02*
X04559D01*
X05725Y01528D02*
Y0166D01*
X05652Y01528D02*
X05725D01*
X05652D02*
Y0166D01*
X05725*
X05714Y01578D02*
Y0161D01*
X05663Y01578D02*
Y0161D01*
X00528Y01548D02*
Y0168D01*
X00455Y01548D02*
X00528D01*
X00455D02*
Y0168D01*
X00528*
X00517Y01598D02*
Y01629D01*
X00466Y01598D02*
Y01629D01*
X00672Y00722D02*
Y00726D01*
Y0071D02*
Y00714D01*
X00705Y0071D02*
Y00726D01*
X00672Y00714D02*
Y00722D01*
X00662Y00666D02*
X00715D01*
Y0077*
X00662D02*
X00715D01*
X00662Y00666D02*
Y0077D01*
X0076Y00722D02*
Y00726D01*
Y0071D02*
Y00714D01*
X00794Y0071D02*
Y00726D01*
X0076Y00714D02*
Y00722D01*
X00751Y00666D02*
X00804D01*
Y0077*
X00751D02*
X00804D01*
X00751Y00666D02*
Y0077D01*
X05416Y00732D02*
Y00736D01*
Y0072D02*
Y00724D01*
X05449Y0072D02*
Y00736D01*
X05416Y00724D02*
Y00732D01*
X05406Y00676D02*
X05459D01*
Y0078*
X05406D02*
X05459D01*
X05406Y00676D02*
Y0078D01*
X05504Y00732D02*
Y00736D01*
Y0072D02*
Y00724D01*
X05538Y0072D02*
Y00736D01*
X05504Y00724D02*
Y00732D01*
X05495Y00676D02*
X05548D01*
Y0078*
X05495D02*
X05548D01*
X05495Y00676D02*
Y0078D01*
X00736Y00858D02*
Y00972D01*
X00681Y00858D02*
X00736D01*
X00681D02*
Y00972D01*
X00736*
X00692Y00909D02*
Y00921D01*
X00724Y00909D02*
Y00921D01*
X00805Y00858D02*
Y00972D01*
X0075Y00858D02*
X00805D01*
X0075D02*
Y00972D01*
X00805*
X00761Y00909D02*
Y00921D01*
X00793Y00909D02*
Y00921D01*
X00779Y01862D02*
X00893D01*
X00779D02*
Y01917D01*
X00893*
Y01862D02*
Y01917D01*
X0083Y01905D02*
X00842D01*
X0083Y01874D02*
X00842D01*
X0545Y00858D02*
Y00972D01*
X05395Y00858D02*
X0545D01*
X05395D02*
Y00972D01*
X0545*
X05407Y00909D02*
Y00921D01*
X05439Y00909D02*
Y00921D01*
X05519Y00858D02*
Y00972D01*
X05464Y00858D02*
X05519D01*
X05464D02*
Y00972D01*
X05519*
X05476Y00909D02*
Y00921D01*
X05508Y00909D02*
Y00921D01*
X05346Y01881D02*
X0546D01*
X05346D02*
Y01937D01*
X0546*
Y01881D02*
Y01937D01*
X05397Y01925D02*
X05409D01*
X05397Y01893D02*
X05409D01*
X00474Y00706D02*
X00588D01*
Y00651D02*
Y00706D01*
X00474Y00651D02*
X00588D01*
X00474D02*
Y00706D01*
X00525Y00663D02*
X00537D01*
X00525Y00694D02*
X00537D01*
X05543Y00572D02*
X05657D01*
X05543D02*
Y00628D01*
X05657*
Y00572D02*
Y00628D01*
X05594Y00616D02*
X05606D01*
X05594Y00584D02*
X05606D01*
G54D65*
X00437Y00636D02*
Y00794D01*
X06Y00649D02*
Y00807D01*
G54D66*
X00189Y00845D02*
X00416D01*
X00189Y00586D02*
Y00845D01*
X00416Y00586D02*
Y00845D01*
X00189Y00586D02*
X00416D01*
X05752Y00858D02*
X05979D01*
X05752Y00599D02*
Y00858D01*
X05979Y00599D02*
Y00858D01*
X05752Y00599D02*
X05979D01*
X0195Y03877D02*
X0193D01*
X0194Y03867D02*
Y03887D01*
X0123Y02822D02*
Y02842D01*
X0122Y02832D02*
X0124D01*
X01761Y02803D02*
Y02823D01*
X01751Y02813D02*
X01771D01*
X0195Y02401D02*
X0193D01*
X0194Y02391D02*
Y02411D01*
X04171Y03386D02*
X04191D01*
X04181Y03396D02*
Y03376D01*
X04419Y02852D02*
Y02872D01*
X04409Y02862D02*
X04429D01*
X0496Y02852D02*
Y02872D01*
X0495Y02862D02*
X0497D01*
X0425Y01949D02*
X0427D01*
X0426Y01959D02*
Y01939D01*
X00489Y01306D02*
Y01326D01*
X00479Y01316D02*
X00499D01*
X05686Y01286D02*
Y01306D01*
X05676Y01296D02*
X05696D01*
G54D67*
X0597Y00316D02*
Y00533D01*
X05904D02*
X0597D01*
X05904Y00498D02*
Y00533D01*
X0582Y00498D02*
X05904Y00498D01*
X05478Y00498D02*
X0582D01*
X05478D02*
Y00533D01*
X05407D02*
X05478D01*
X05407Y00316D02*
Y00533D01*
Y00316D02*
X0597D01*
X00191Y00332D02*
Y00549D01*
Y00332D02*
X00257D01*
Y00368*
X0034*
X00683*
Y00332D02*
Y00368D01*
Y00332D02*
X00753D01*
Y00549*
X00191D02*
X00753D01*
G54D68*
X04543Y00228D02*
X0453D01*
X04523Y00222*
Y00195*
X0453Y00189*
X04543*
X04549Y00195*
Y00222*
X04543Y00228*
X04562Y00215D02*
Y00195D01*
X04569Y00189*
X04589*
Y00215*
X04608Y00222D02*
Y00215D01*
X04602*
X04615*
X04608*
Y00195*
X04615Y00189*
X04635Y00182D02*
X04661D01*
X047Y00189D02*
X04674D01*
X047Y00215*
Y00222*
X04694Y00228*
X0468*
X04674Y00222*
X02211Y06282D02*
X02204Y06289D01*
X02191*
X02185Y06282*
Y06256*
X02191Y0625*
X02204*
X02211Y06256*
X02224Y0625D02*
X02237D01*
X02231*
Y06289*
X02224Y06282*
X02257Y0625D02*
X0227D01*
X02263*
Y06289*
X02257Y06282*
X00442Y01692D02*
X00403D01*
Y01712*
X0041Y01719*
X00423*
X00429Y01712*
Y01692*
Y01706D02*
X00442Y01719D01*
Y01758D02*
Y01732D01*
X00416Y01758*
X0041*
X00403Y01751*
Y01738*
X0041Y01732*
X00442Y01771D02*
Y01784D01*
Y01778*
X00403*
X0041Y01771*
X00413Y00255D02*
X00439Y00216D01*
Y00255D02*
X00413Y00216D01*
X00452Y00255D02*
X00479D01*
Y00249*
X00452Y00223*
Y00216*
X05439Y00593D02*
X05433Y006D01*
X05419*
X05413Y00593*
Y00567*
X05419Y00561*
X05433*
X05439Y00567*
X05479Y006D02*
X05465Y00593D01*
X05452Y0058*
Y00567*
X05459Y00561*
X05472*
X05479Y00567*
Y00574*
X05472Y0058*
X05452*
X05492Y00593D02*
X05498Y006D01*
X05511*
X05518Y00593*
Y00587*
X05511Y0058*
X05505*
X05511*
X05518Y00574*
Y00567*
X05511Y00561*
X05498*
X05492Y00567*
X00498Y00761D02*
X00492Y00767D01*
X00479*
X00472Y00761*
Y00734*
X00479Y00728*
X00492*
X00498Y00734*
X00538Y00767D02*
X00524Y00761D01*
X00511Y00748*
Y00734*
X00518Y00728*
X00531*
X00538Y00734*
Y00741*
X00531Y00748*
X00511*
X00577Y00728D02*
X00551D01*
X00577Y00754*
Y00761*
X0057Y00767*
X00557*
X00551Y00761*
X05689Y00275D02*
X05715Y00236D01*
Y00275D02*
X05689Y00236D01*
X05728Y00269D02*
X05734Y00275D01*
X05748*
X05754Y00269*
Y00262*
X05748Y00255*
X05754Y00249*
Y00242*
X05748Y00236*
X05734*
X05728Y00242*
Y00249*
X05734Y00255*
X05728Y00262*
Y00269*
X05734Y00255D02*
X05748D01*
X0559Y01358D02*
X05616D01*
X05629Y01371*
X05616Y01384*
X0559*
Y01397D02*
X05629D01*
Y01417*
X05623Y01423*
X05597*
X0559Y01417*
Y01397*
X05629Y01437D02*
Y0145D01*
Y01443*
X0559*
X05597Y01437*
X05623Y01469D02*
X05629Y01476D01*
Y01489*
X05623Y01496*
X05597*
X0559Y01489*
Y01476*
X05597Y01469*
X05603*
X0561Y01476*
Y01496*
X04409Y0187D02*
Y01843D01*
X04422Y0183*
X04435Y01843*
Y0187*
X04448D02*
Y0183D01*
X04468*
X04475Y01837*
Y01863*
X04468Y0187*
X04448*
X04488Y0183D02*
X04501D01*
X04494*
Y0187*
X04488Y01863*
X04521D02*
X04527Y0187D01*
X0454*
X04547Y01863*
Y01856*
X0454Y0185*
X04547Y01843*
Y01837*
X0454Y0183*
X04527*
X04521Y01837*
Y01843*
X04527Y0185*
X04521Y01856*
Y01863*
X04527Y0185D02*
X0454D01*
X05Y02696D02*
X05026D01*
X05039Y0271*
X05026Y02723*
X05*
Y02736D02*
X05039D01*
Y02755*
X05032Y02762*
X05006*
X05Y02755*
Y02736*
X05039Y02775D02*
Y02788D01*
Y02782*
X05*
X05006Y02775*
X05Y02808D02*
Y02834D01*
X05006*
X05032Y02808*
X05039*
X04202Y03061D02*
Y03034D01*
X04215Y03021*
X04229Y03034*
Y03061*
X04242D02*
Y03021D01*
X04261*
X04268Y03028*
Y03054*
X04261Y03061*
X04242*
X04281Y03021D02*
X04294D01*
X04288*
Y03061*
X04281Y03054*
X0434Y03061D02*
X04327Y03054D01*
X04314Y03041*
Y03028*
X0432Y03021*
X04333*
X0434Y03028*
Y03034*
X04333Y03041*
X04314*
X04216Y03515D02*
Y03489D01*
X04229Y03476*
X04242Y03489*
Y03515*
X04255D02*
Y03476D01*
X04275*
X04282Y03482*
Y03509*
X04275Y03515*
X04255*
X04295Y03476D02*
X04308D01*
X04301*
Y03515*
X04295Y03509*
X04354Y03515D02*
X04328D01*
Y03496*
X04341Y03502*
X04347*
X04354Y03496*
Y03482*
X04347Y03476*
X04334*
X04328Y03482*
X0057Y01259D02*
X00597D01*
X0061Y01273*
X00597Y01286*
X0057*
Y01299D02*
X0061D01*
Y01318*
X00603Y01325*
X00577*
X0057Y01318*
Y01299*
X0061Y01338D02*
Y01351D01*
Y01345*
X0057*
X00577Y01338*
X0061Y01391D02*
X0057D01*
X0059Y01371*
Y01397*
X01647Y02532D02*
Y02506D01*
X0166Y02493*
X01673Y02506*
Y02532*
X01687D02*
Y02493D01*
X01706*
X01713Y025*
Y02526*
X01706Y02532*
X01687*
X01726Y02493D02*
X01739D01*
X01732*
Y02532*
X01726Y02526*
X01759D02*
X01765Y02532D01*
X01778*
X01785Y02526*
Y02519*
X01778Y02513*
X01772*
X01778*
X01785Y02506*
Y025*
X01778Y02493*
X01765*
X01759Y025*
X01742Y03139D02*
X01768D01*
X01781Y03152*
X01768Y03166*
X01742*
Y03179D02*
X01781D01*
Y03198*
X01774Y03205*
X01748*
X01742Y03198*
Y03179*
X01781Y03218D02*
Y03231D01*
Y03225*
X01742*
X01748Y03218*
X01781Y03277D02*
Y03251D01*
X01755Y03277*
X01748*
X01742Y03271*
Y03257*
X01748Y03251*
X01151Y03198D02*
Y03172D01*
X01164Y03159*
X01177Y03172*
Y03198*
X0119D02*
Y03159D01*
X0121*
X01217Y03166*
Y03192*
X0121Y03198*
X0119*
X0123Y03159D02*
X01243D01*
X01236*
Y03198*
X0123Y03192*
X01263Y03159D02*
X01276D01*
X01269*
Y03198*
X01263Y03192*
X01663Y03809D02*
Y03782D01*
X01676Y03769*
X01689Y03782*
Y03809*
X01702D02*
Y03769D01*
X01722*
X01729Y03776*
Y03802*
X01722Y03809*
X01702*
X01742Y03769D02*
X01755D01*
X01748*
Y03809*
X01742Y03802*
X01774D02*
X01781Y03809D01*
X01794*
X01801Y03802*
Y03776*
X01794Y03769*
X01781*
X01774Y03776*
Y03802*
X04439Y02253D02*
Y02293D01*
X04458*
X04465Y02286*
Y02273*
X04458Y02267*
X04439*
X04452D02*
X04465Y02253D01*
X04478Y02286D02*
X04484Y02293D01*
X04498*
X04504Y02286*
Y0228*
X04498Y02273*
X04491*
X04498*
X04504Y02267*
Y0226*
X04498Y02253*
X04484*
X04478Y0226*
X04543Y02253D02*
X04517D01*
X04543Y0228*
Y02286*
X04537Y02293*
X04524*
X04517Y02286*
X04409Y02126D02*
Y02165D01*
X04429*
X04435Y02158*
Y02145*
X04429Y02139*
X04409*
X04422D02*
X04435Y02126D01*
X04448Y02158D02*
X04455Y02165D01*
X04468*
X04475Y02158*
Y02152*
X04468Y02145*
X04461*
X04468*
X04475Y02139*
Y02132*
X04468Y02126*
X04455*
X04448Y02132*
X04488Y02126D02*
X04501D01*
X04494*
Y02165*
X04488Y02158*
X0562Y01545D02*
X0558D01*
Y01565*
X05587Y01571*
X056*
X05607Y01565*
Y01545*
Y01558D02*
X0562Y01571D01*
Y0161D02*
Y01584D01*
X05593Y0161*
X05587*
X0558Y01604*
Y01591*
X05587Y01584*
X05613Y01624D02*
X0562Y0163D01*
Y01643*
X05613Y0165*
X05587*
X0558Y01643*
Y0163*
X05587Y01624*
X05593*
X056Y0163*
Y0165*
X04409Y04005D02*
Y04045D01*
X04429*
X04435Y04038*
Y04025*
X04429Y04019*
X04409*
X04422D02*
X04435Y04005D01*
X04475D02*
X04448D01*
X04475Y04032*
Y04038*
X04468Y04045*
X04455*
X04448Y04038*
X04488D02*
X04494Y04045D01*
X04507*
X04514Y04038*
Y04032*
X04507Y04025*
X04514Y04019*
Y04012*
X04507Y04005*
X04494*
X04488Y04012*
Y04019*
X04494Y04025*
X04488Y04032*
Y04038*
X04494Y04025D02*
X04507D01*
X04232Y03159D02*
Y03198D01*
X04252*
X04258Y03192*
Y03179*
X04252Y03172*
X04232*
X04245D02*
X04258Y03159D01*
X04297D02*
X04271D01*
X04297Y03185*
Y03192*
X04291Y03198*
X04278*
X04271Y03192*
X04311Y03198D02*
X04337D01*
Y03192*
X04311Y03166*
Y03159*
X056Y00669D02*
X05561D01*
Y00689*
X05567Y00695*
X0558*
X05587Y00689*
Y00669*
Y00682D02*
X056Y00695D01*
Y00734D02*
Y00708D01*
X05574Y00734*
X05567*
X05561Y00728*
Y00715*
X05567Y00708*
X05561Y00774D02*
X05567Y00761D01*
X0558Y00748*
X05593*
X056Y00754*
Y00767*
X05593Y00774*
X05587*
X0558Y00767*
Y00748*
X05393Y00659D02*
X05354D01*
Y00679*
X0536Y00685*
X05374*
X0538Y00679*
Y00659*
Y00672D02*
X05393Y00685D01*
Y00725D02*
Y00698D01*
X05367Y00725*
X0536*
X05354Y00718*
Y00705*
X0536Y00698*
X05354Y00764D02*
Y00738D01*
X05374*
X05367Y00751*
Y00757*
X05374Y00764*
X05387*
X05393Y00757*
Y00744*
X05387Y00738*
X01722Y01811D02*
Y0185D01*
X01742*
X01748Y01843*
Y0183*
X01742Y01824*
X01722*
X01735D02*
X01748Y01811D01*
X01788D02*
X01761D01*
X01788Y01837*
Y01843*
X01781Y0185*
X01768*
X01761Y01843*
X0182Y01811D02*
Y0185D01*
X01801Y0183*
X01827*
X01702Y02155D02*
Y02194D01*
X01722*
X01729Y02188*
Y02175*
X01722Y02168*
X01702*
X01715D02*
X01729Y02155D01*
X01768D02*
X01742D01*
X01768Y02181*
Y02188*
X01761Y02194*
X01748*
X01742Y02188*
X01781D02*
X01788Y02194D01*
X01801*
X01807Y02188*
Y02181*
X01801Y02175*
X01794*
X01801*
X01807Y02168*
Y02162*
X01801Y02155*
X01788*
X01781Y02162*
X01879Y03297D02*
Y03336D01*
X01899*
X01906Y0333*
Y03316*
X01899Y0331*
X01879*
X01893D02*
X01906Y03297D01*
X01945D02*
X01919D01*
X01945Y03323*
Y0333*
X01939Y03336*
X01925*
X01919Y0333*
X01958D02*
X01965Y03336D01*
X01978*
X01984Y0333*
Y03303*
X01978Y03297*
X01965*
X01958Y03303*
Y0333*
X01742Y04045D02*
Y04084D01*
X01761*
X01768Y04078*
Y04065*
X01761Y04058*
X01742*
X01755D02*
X01768Y04045D01*
X01781D02*
X01794D01*
X01788*
Y04084*
X01781Y04078*
X01814Y04051D02*
X0182Y04045D01*
X01834*
X0184Y04051*
Y04078*
X01834Y04084*
X0182*
X01814Y04078*
Y04071*
X0182Y04065*
X0184*
X00885Y00669D02*
X00846D01*
Y00689*
X00853Y00695*
X00866*
X00872Y00689*
Y00669*
Y00682D02*
X00885Y00695D01*
Y00708D02*
Y00721D01*
Y00715*
X00846*
X00853Y00708*
Y00741D02*
X00846Y00748D01*
Y00761*
X00853Y00767*
X00859*
X00866Y00761*
X00872Y00767*
X00879*
X00885Y00761*
Y00748*
X00879Y00741*
X00872*
X00866Y00748*
X00859Y00741*
X00853*
X00866Y00748D02*
Y00761D01*
X00649Y00649D02*
X0061D01*
Y00669*
X00616Y00675*
X00629*
X00636Y00669*
Y00649*
Y00662D02*
X00649Y00675D01*
Y00689D02*
Y00702D01*
Y00695*
X0061*
X00616Y00689*
X0061Y00721D02*
Y00748D01*
X00616*
X00643Y00721*
X00649*
X06023Y00689D02*
X06063D01*
Y00715*
Y00728D02*
Y00741D01*
Y00734*
X06023*
X0603Y00728*
Y00761D02*
X06023Y00767D01*
Y0078*
X0603Y00787*
X06056*
X06063Y0078*
Y00767*
X06056Y00761*
X0603*
X00088Y00718D02*
Y00679D01*
X00114*
X00127Y00685D02*
X00134Y00679D01*
X00147*
X00154Y00685*
Y00711*
X00147Y00718*
X00134*
X00127Y00711*
Y00705*
X00134Y00698*
X00154*
X05196Y0122D02*
Y01181D01*
X05216*
X05223Y01187*
Y01213*
X05216Y0122*
X05196*
X05236D02*
Y01181D01*
X05255*
X05262Y01187*
Y01213*
X05255Y0122*
X05236*
X05301Y01181D02*
X05275D01*
X05301Y01207*
Y01213*
X05295Y0122*
X05282*
X05275Y01213*
X00866Y0124D02*
Y012D01*
X00885*
X00892Y01207*
Y01233*
X00885Y0124*
X00866*
X00905D02*
Y012D01*
X00925*
X00931Y01207*
Y01233*
X00925Y0124*
X00905*
X00944Y012D02*
X00958D01*
X00951*
Y0124*
X00944Y01233*
X05187Y01584D02*
X05226D01*
Y01604*
X05219Y0161*
X05193*
X05187Y01604*
Y01584*
X05226Y01624D02*
X052D01*
X05187Y01637*
X052Y0165*
X05226*
X05206*
Y01624*
X05187Y01689D02*
X05193Y01676D01*
X05206Y01663*
X05219*
X05226Y01669*
Y01683*
X05219Y01689*
X05213*
X05206Y01683*
Y01663*
X05826Y01752D02*
Y01712D01*
X05846*
X05853Y01719*
Y01745*
X05846Y01752*
X05826*
X05866D02*
Y01712D01*
X05885*
X05892Y01719*
Y01745*
X05885Y01752*
X05866*
X05925Y01712D02*
Y01752D01*
X05905Y01732*
X05931*
X04748Y03236D02*
Y03196D01*
X04767*
X04774Y03203*
Y03229*
X04767Y03236*
X04748*
X04787Y03196D02*
Y03223D01*
X048Y03236*
X04813Y03223*
Y03196*
Y03216*
X04787*
X04846Y03196D02*
Y03236D01*
X04826Y03216*
X04853*
X00974Y01594D02*
Y01555D01*
X00994*
X01Y01561*
Y01587*
X00994Y01594*
X00974*
X01013Y01555D02*
Y01581D01*
X01026Y01594*
X0104Y01581*
Y01555*
Y01574*
X01013*
X01053Y01587D02*
X01059Y01594D01*
X01072*
X01079Y01587*
Y01581*
X01072Y01574*
X01066*
X01072*
X01079Y01568*
Y01561*
X01072Y01555*
X01059*
X01053Y01561*
X00226Y01712D02*
Y01673D01*
X00246*
X00252Y01679*
Y01706*
X00246Y01712*
X00226*
X00265D02*
Y01673D01*
X00285*
X00292Y01679*
Y01706*
X00285Y01712*
X00265*
X00305Y01706D02*
X00311Y01712D01*
X00324*
X00331Y01706*
Y01699*
X00324Y01692*
X00318*
X00324*
X00331Y01686*
Y01679*
X00324Y01673*
X00311*
X00305Y01679*
X01584Y03208D02*
Y03169D01*
X01604*
X0161Y03175*
Y03202*
X01604Y03208*
X01584*
X01624Y03169D02*
Y03195D01*
X01637Y03208*
X0165Y03195*
Y03169*
Y03189*
X01624*
X01663Y03169D02*
X01676D01*
X01669*
Y03208*
X01663Y03202*
X0538Y01991D02*
X05374Y01998D01*
X0536*
X05354Y01991*
Y01965*
X0536Y01958*
X05374*
X0538Y01965*
X05419Y01998D02*
X05406Y01991D01*
X05393Y01978*
Y01965*
X054Y01958*
X05413*
X05419Y01965*
Y01971*
X05413Y01978*
X05393*
X05433Y01958D02*
X05446D01*
X05439*
Y01998*
X05433Y01991*
X04603Y03408D02*
X04596Y03415D01*
X04583*
X04576Y03408*
Y03382*
X04583Y03376*
X04596*
X04603Y03382*
X04642Y03415D02*
X04616D01*
Y03395*
X04629Y03402*
X04635*
X04642Y03395*
Y03382*
X04635Y03376*
X04622*
X04616Y03382*
X04655Y03408D02*
X04662Y03415D01*
X04675*
X04681Y03408*
Y03382*
X04675Y03376*
X04662*
X04655Y03382*
Y03408*
X05538Y00853D02*
X05531Y00846D01*
Y00833*
X05538Y00826*
X05564*
X0557Y00833*
Y00846*
X05564Y00853*
X0557Y00885D02*
X05531D01*
X05551Y00866*
Y00892*
X05564Y00905D02*
X0557Y00912D01*
Y00925*
X05564Y00931*
X05538*
X05531Y00925*
Y00912*
X05538Y00905*
X05544*
X05551Y00912*
Y00931*
X05351Y00843D02*
X05344Y00836D01*
Y00823*
X05351Y00816*
X05377*
X05383Y00823*
Y00836*
X05377Y00843*
X05383Y00876D02*
X05344D01*
X05364Y00856*
Y00882*
X05351Y00895D02*
X05344Y00902D01*
Y00915*
X05351Y00921*
X05357*
X05364Y00915*
X0537Y00921*
X05377*
X05383Y00915*
Y00902*
X05377Y00895*
X0537*
X05364Y00902*
X05357Y00895*
X05351*
X05364Y00902D02*
Y00915D01*
X00813Y01961D02*
X00807Y01968D01*
X00794*
X00787Y01961*
Y01935*
X00794Y01929*
X00807*
X00813Y01935*
X00846Y01929D02*
Y01968D01*
X00826Y01948*
X00853*
X00866Y01968D02*
X00892D01*
Y01961*
X00866Y01935*
Y01929*
X01392Y0338D02*
X01385Y03386D01*
X01372*
X01366Y0338*
Y03354*
X01372Y03347*
X01385*
X01392Y03354*
X01405Y0338D02*
X01412Y03386D01*
X01425*
X01431Y0338*
Y03373*
X01425Y03367*
X01418*
X01425*
X01431Y0336*
Y03354*
X01425Y03347*
X01412*
X01405Y03354*
X01471Y03386D02*
X01458Y0338D01*
X01444Y03367*
Y03354*
X01451Y03347*
X01464*
X01471Y03354*
Y0336*
X01464Y03367*
X01444*
X00823Y00892D02*
X00816Y00885D01*
Y00872*
X00823Y00866*
X00849*
X00856Y00872*
Y00885*
X00849Y00892*
X00823Y00905D02*
X00816Y00912D01*
Y00925*
X00823Y00931*
X0083*
X00836Y00925*
Y00918*
Y00925*
X00843Y00931*
X00849*
X00856Y00925*
Y00912*
X00849Y00905*
X00816Y00971D02*
Y00944D01*
X00836*
X0083Y00958*
Y00964*
X00836Y00971*
X00849*
X00856Y00964*
Y00951*
X00849Y00944*
X00636Y00892D02*
X00629Y00885D01*
Y00872*
X00636Y00866*
X00662*
X00669Y00872*
Y00885*
X00662Y00892*
X00636Y00905D02*
X00629Y00912D01*
Y00925*
X00636Y00931*
X00643*
X00649Y00925*
Y00918*
Y00925*
X00656Y00931*
X00662*
X00669Y00925*
Y00912*
X00662Y00905*
X00669Y00964D02*
X00629D01*
X00649Y00944*
Y00971*
X05971Y07473D02*
X05964Y0748D01*
X05951*
X05944Y07473*
Y07447*
X05951Y0744*
X05964*
X05971Y07447*
X0601Y0748D02*
X05997Y07473D01*
X05984Y0746*
Y07447*
X0599Y0744*
X06003*
X0601Y07447*
Y07454*
X06003Y0746*
X05984*
X04372Y06351D02*
X04366Y06358D01*
X04353*
X04346Y06351*
Y06325*
X04353Y06318*
X04366*
X04372Y06325*
X04385Y06351D02*
X04392Y06358D01*
X04405*
X04412Y06351*
Y06345*
X04405Y06338*
X04412Y06332*
Y06325*
X04405Y06318*
X04392*
X04385Y06325*
Y06332*
X04392Y06338*
X04385Y06345*
Y06351*
X04392Y06338D02*
X04405D01*
X05921Y04895D02*
X05915Y04901D01*
X05902*
X05895Y04895*
Y04868*
X05902Y04862*
X05915*
X05921Y04868*
X05935D02*
X05941Y04862D01*
X05954*
X05961Y04868*
Y04895*
X05954Y04901*
X05941*
X05935Y04895*
Y04888*
X05941Y04881*
X05961*
X00843Y08008D02*
X00836Y08002D01*
Y07988*
X00843Y07982*
X00869*
X00876Y07988*
Y08002*
X00869Y08008*
X00876Y08021D02*
Y08034D01*
Y08028*
X00836*
X00843Y08021*
Y08054D02*
X00836Y08061D01*
Y08074*
X00843Y0808*
X00869*
X00876Y08074*
Y08061*
X00869Y08054*
X00843*
X00055Y05016D02*
X00049Y05009D01*
Y04996*
X00055Y0499*
X00082*
X00088Y04996*
Y05009*
X00082Y05016*
X00088Y05029D02*
Y05042D01*
Y05036*
X00049*
X00055Y05029*
X00088Y05088D02*
Y05062D01*
X00062Y05088*
X00055*
X00049Y05082*
Y05068*
X00055Y05062*
X04986Y03421D02*
X0498Y03415D01*
Y03402*
X04986Y03395*
X05013*
X05019Y03402*
Y03415*
X05013Y03421*
X05019Y03435D02*
Y03448D01*
Y03441*
X0498*
X04986Y03435*
X0498Y03494D02*
Y03467D01*
X05*
X04993Y0348*
Y03487*
X05Y03494*
X05013*
X05019Y03487*
Y03474*
X05013Y03467*
X01158Y02339D02*
X01151Y02332D01*
Y02319*
X01158Y02313*
X01184*
X0119Y02319*
Y02332*
X01184Y02339*
X0119Y02352D02*
Y02365D01*
Y02358*
X01151*
X01158Y02352*
X01151Y02385D02*
Y02411D01*
X01158*
X01184Y02385*
X0119*
X04409Y02785D02*
Y02746D01*
Y02765*
X04435*
Y02785*
Y02746*
X04475Y02778D02*
X04468Y02785D01*
X04455*
X04448Y02778*
Y02772*
X04455Y02765*
X04468*
X04475Y02759*
Y02752*
X04468Y02746*
X04455*
X04448Y02752*
X04488Y02746D02*
X04501D01*
X04494*
Y02785*
X04488Y02778*
X01692Y02696D02*
Y02657D01*
Y02677*
X01719*
Y02696*
Y02657*
X01758Y0269D02*
X01751Y02696D01*
X01738*
X01732Y0269*
Y02683*
X01738Y02677*
X01751*
X01758Y0267*
Y02664*
X01751Y02657*
X01738*
X01732Y02664*
X01797Y02657D02*
X01771D01*
X01797Y02683*
Y0269*
X01791Y02696*
X01778*
X01771Y0269*
X04133Y05314D02*
Y05275D01*
Y05295*
X0416*
Y05314*
Y05275*
X04199Y05308D02*
X04192Y05314D01*
X04179*
X04173Y05308*
Y05301*
X04179Y05295*
X04192*
X04199Y05288*
Y05282*
X04192Y05275*
X04179*
X04173Y05282*
X04212Y05308D02*
X04219Y05314D01*
X04232*
X04238Y05308*
Y05301*
X04232Y05295*
X04225*
X04232*
X04238Y05288*
Y05282*
X04232Y05275*
X04219*
X04212Y05282*
X02017Y05324D02*
Y05285D01*
Y05305*
X02044*
Y05324*
Y05285*
X02083Y05318D02*
X02076Y05324D01*
X02063*
X02057Y05318*
Y05311*
X02063Y05305*
X02076*
X02083Y05298*
Y05292*
X02076Y05285*
X02063*
X02057Y05292*
X02116Y05285D02*
Y05324D01*
X02096Y05305*
X02122*
X04133Y04025D02*
Y03999D01*
X04147Y03986*
X0416Y03999*
Y04025*
X04173D02*
X04199D01*
X04186*
Y03986*
X04238D02*
X04212D01*
X04238Y04012*
Y04019*
X04232Y04025*
X04219*
X04212Y04019*
X02145Y04084D02*
Y04058D01*
X02158Y04045*
X02171Y04058*
Y04084*
X02185D02*
X02211D01*
X02198*
Y04045*
X02224D02*
X02237D01*
X0223*
Y04084*
X02224Y04078*
X02116Y02539D02*
Y02513D01*
X02129Y025*
X02142Y02513*
Y02539*
X02155D02*
X02181D01*
X02168*
Y025*
X02194Y02532D02*
X02201Y02539D01*
X02214*
X02221Y02532*
Y02526*
X02214Y02519*
X02208*
X02214*
X02221Y02513*
Y02506*
X02214Y025*
X02201*
X02194Y02506*
X03976Y01791D02*
Y01765D01*
X03989Y01752*
X04002Y01765*
Y01791*
X04015D02*
X04042D01*
X04028*
Y01752*
X04074D02*
Y01791D01*
X04055Y01771*
X04081*
X05984Y07126D02*
X06023Y07152D01*
X05984D02*
X06023Y07126D01*
Y07165D02*
Y07178D01*
Y07171*
X05984*
X0599Y07165*
X05944Y05088D02*
X05984Y05114D01*
X05944D02*
X05984Y05088D01*
X05951Y05127D02*
X05944Y05134D01*
Y05147*
X05951Y05154*
X05958*
X05964Y05147*
Y05141*
Y05147*
X05971Y05154*
X05977*
X05984Y05147*
Y05134*
X05977Y05127*
X0557Y05669D02*
X0561Y05695D01*
X0557D02*
X0561Y05669D01*
Y05734D02*
Y05708D01*
X05584Y05734*
X05577*
X0557Y05728*
Y05715*
X05577Y05708*
X0372Y07972D02*
X03746Y07933D01*
Y07972D02*
X0372Y07933D01*
X03779D02*
Y07972D01*
X03759Y07952*
X03786*
X01417Y00433D02*
X01443Y00393D01*
Y00433D02*
X01417Y00393D01*
X01482Y00433D02*
X01456D01*
Y00413*
X01469Y00419*
X01476*
X01482Y00413*
Y004*
X01476Y00393*
X01463*
X01456Y004*
X02786Y06468D02*
X02813Y06428D01*
Y06468D02*
X02786Y06428D01*
X02826Y06435D02*
X02832Y06428D01*
X02845*
X02852Y06435*
Y06461*
X02845Y06468*
X02832*
X02826Y06461*
Y06455*
X02832Y06448*
X02852*
X04685Y00511D02*
X04711Y00472D01*
Y00511D02*
X04685Y00472D01*
X0475Y00511D02*
X04737Y00505D01*
X04724Y00492*
Y00479*
X04731Y00472*
X04744*
X0475Y00479*
Y00485*
X04744Y00492*
X04724*
X01358Y00236D02*
X01345D01*
X01338Y00229*
Y00203*
X01345Y00196*
X01358*
X01364Y00203*
Y00229*
X01358Y00236*
X01377Y00223D02*
Y00203D01*
X01384Y00196*
X01404*
Y00223*
X01423Y00229D02*
Y00223D01*
X01417*
X0143*
X01423*
Y00203*
X0143Y00196*
X0145Y0019D02*
X01476D01*
X01489Y00196D02*
X01502D01*
X01496*
Y00236*
X01489Y00229*
X0413Y02378D02*
Y02339D01*
X0419*
Y02378*
X0416Y02339D02*
Y02358D01*
X0414Y02164D02*
X0413Y02154D01*
Y02134*
X0414Y02124*
X0418*
X0419Y02134*
Y02154*
X0418Y02164*
X0414Y01969D02*
X0413Y01959D01*
Y0194*
X0414Y0193*
X0418*
X0419Y0194*
Y01959*
X0418Y01969*
X0416*
Y01949*
X02081Y0191D02*
Y0195D01*
X02022*
Y0191*
X02052Y0195D02*
Y0193D01*
X02071Y02125D02*
X02081Y02135D01*
Y02154*
X02071Y02164*
X02032*
X02022Y02154*
Y02135*
X02032Y02125*
X02071Y02319D02*
X02081Y02329D01*
Y02349*
X02071Y02359*
X02032*
X02022Y02349*
Y02329*
X02032Y02319*
X02052*
Y02339*
X02081Y03446D02*
Y03485D01*
X02022*
Y03446*
X02052Y03485D02*
Y03465D01*
X02071Y0366D02*
X02081Y0367D01*
Y0369*
X02071Y037*
X02032*
X02022Y0369*
Y0367*
X02032Y0366*
X02071Y03855D02*
X02081Y03865D01*
Y03884*
X02071Y03894*
X02032*
X02022Y03884*
Y03865*
X02032Y03855*
X02052*
Y03875*
X0413Y03914D02*
Y03874D01*
X0419*
Y03914*
X0416Y03874D02*
Y03894D01*
X0414Y03699D02*
X0413Y03689D01*
Y0367*
X0414Y0366*
X0418*
X0419Y0367*
Y03689*
X0418Y03699*
X0414Y03504D02*
X0413Y03495D01*
Y03475*
X0414Y03465*
X0418*
X0419Y03475*
Y03495*
X0418Y03504*
X0416*
Y03485*
X05341Y06528D02*
X05334Y06535D01*
X05321*
X05315Y06528*
Y06502*
X05321Y06496*
X05334*
X05341Y06502*
X05354Y06528D02*
X0536Y06535D01*
X05374*
X0538Y06528*
Y06522*
X05374Y06515*
X0538Y06509*
Y06502*
X05374Y06496*
X0536*
X05354Y06502*
Y06509*
X0536Y06515*
X05354Y06522*
Y06528*
X0536Y06515D02*
X05374D01*
X00267Y00153D02*
Y00114D01*
X00287*
X00294Y0012*
Y00147*
X00287Y00153*
X00267*
X00307Y0014D02*
Y00114D01*
Y00127*
X00313Y00133*
X0032Y0014*
X00326*
X00346Y00114D02*
X00359D01*
X00353*
Y0014*
X00346*
X00379D02*
X00392Y00114D01*
X00405Y0014*
X00438Y00114D02*
X00425D01*
X00418Y0012*
Y00133*
X00425Y0014*
X00438*
X00444Y00133*
Y00127*
X00418*
X00457Y0014D02*
Y00114D01*
Y00127*
X00464Y00133*
X00471Y0014*
X00477*
X00536Y00153D02*
X00549D01*
X00543*
Y00114*
X00536*
X00549*
X00569D02*
Y0014D01*
X00589*
X00595Y00133*
Y00114*
X00608Y0014D02*
X00621Y00114D01*
X00635Y0014*
X00667Y00114D02*
X00654D01*
X00648Y0012*
Y00133*
X00654Y0014*
X00667*
X00674Y00133*
Y00127*
X00648*
X00687Y0014D02*
Y00114D01*
Y00127*
X00694Y00133*
X007Y0014*
X00707*
X00733Y00147D02*
Y0014D01*
X00726*
X0074*
X00733*
Y0012*
X0074Y00114*
X00766D02*
X00779D01*
X00785Y0012*
Y00133*
X00779Y0014*
X00766*
X00759Y00133*
Y0012*
X00766Y00114*
X00799Y00101D02*
Y0014D01*
X00818*
X00825Y00133*
Y0012*
X00818Y00114*
X00799*
X05385Y00173D02*
Y00133D01*
X05405*
X05412Y0014*
Y00166*
X05405Y00173*
X05385*
X05425Y0016D02*
Y00133D01*
Y00147*
X05431Y00153*
X05438Y0016*
X05444*
X05464Y00133D02*
X05477D01*
X05471*
Y0016*
X05464*
X05497D02*
X0551Y00133D01*
X05523Y0016*
X05556Y00133D02*
X05543D01*
X05536Y0014*
Y00153*
X05543Y0016*
X05556*
X05562Y00153*
Y00147*
X05536*
X05576Y0016D02*
Y00133D01*
Y00147*
X05582Y00153*
X05589Y0016*
X05595*
X05654Y00173D02*
X05667D01*
X05661*
Y00133*
X05654*
X05667*
X05687D02*
Y0016D01*
X05707*
X05713Y00153*
Y00133*
X05726Y0016D02*
X0574Y00133D01*
X05753Y0016*
X05786Y00133D02*
X05772D01*
X05766Y0014*
Y00153*
X05772Y0016*
X05786*
X05792Y00153*
Y00147*
X05766*
X05805Y0016D02*
Y00133D01*
Y00147*
X05812Y00153*
X05818Y0016*
X05825*
X05851Y00166D02*
Y0016D01*
X05845*
X05858*
X05851*
Y0014*
X05858Y00133*
X05884D02*
X05897D01*
X05904Y0014*
Y00153*
X05897Y0016*
X05884*
X05877Y00153*
Y0014*
X05884Y00133*
X05917Y0012D02*
Y0016D01*
X05936*
X05943Y00153*
Y0014*
X05936Y00133*
X05917*
X06108Y05419D02*
X06102Y05413D01*
Y054*
X06108Y05393*
X06135*
X06141Y054*
Y05413*
X06135Y05419*
X06122*
Y05406*
X06141Y05433D02*
X06102D01*
X06141Y05459*
X06102*
Y05472D02*
X06141D01*
Y05492*
X06135Y05498*
X06108*
X06102Y05492*
Y05472*
X05629Y06614D02*
X05643D01*
X05636*
Y06574*
X05629*
X05643*
X05662D02*
Y06601D01*
X05682*
X05689Y06594*
Y06574*
X05702Y06568D02*
X05728D01*
X05741Y06594D02*
X05767D01*
X05754Y06607D02*
Y06581D01*
X05807Y06574D02*
X0578D01*
X05807Y06601*
Y06607*
X058Y06614*
X05787*
X0578Y06607*
X0582D02*
X05826Y06614D01*
X05839*
X05846Y06607*
Y06581*
X05839Y06574*
X05826*
X0582Y06581*
Y06607*
X05859D02*
X05866Y06614D01*
X05879*
X05885Y06607*
Y06581*
X05879Y06574*
X05866*
X05859Y06581*
Y06607*
X05898Y06614D02*
Y06587D01*
X05912Y06574*
X05925Y06587*
Y06614*
X05669Y06259D02*
X05682D01*
X05675*
Y0622*
X05669*
X05682*
X05702D02*
Y06246D01*
X05721*
X05728Y0624*
Y0622*
X05741Y06213D02*
X05767D01*
X0578Y0624D02*
X05807D01*
X05846Y0622D02*
X0582D01*
X05846Y06246*
Y06253*
X05839Y06259*
X05826*
X0582Y06253*
X05859D02*
X05866Y06259D01*
X05879*
X05885Y06253*
Y06227*
X05879Y0622*
X05866*
X05859Y06227*
Y06253*
X05898D02*
X05905Y06259D01*
X05918*
X05925Y06253*
Y06227*
X05918Y0622*
X05905*
X05898Y06227*
Y06253*
X05938Y06259D02*
Y06233D01*
X05951Y0622*
X05964Y06233*
Y06259*
X03661Y07893D02*
X03648D01*
X03641Y07887*
Y0786*
X03648Y07854*
X03661*
X03668Y0786*
Y07887*
X03661Y07893*
X03681Y0788D02*
X03694Y07854D01*
X03707Y0788*
X0374Y07854D02*
X03727D01*
X0372Y0786*
Y07874*
X03727Y0788*
X0374*
X03746Y07874*
Y07867*
X0372*
X03759Y0788D02*
Y07854D01*
Y07867*
X03766Y07874*
X03772Y0788*
X03779*
X03799Y07847D02*
X03825D01*
X03838Y07893D02*
Y0786D01*
X03845Y07854*
X03858*
X03864Y0786*
Y07893*
X03136Y06194D02*
X03129Y062D01*
X03116*
X0311Y06194*
Y06168*
X03116Y06161*
X03129*
X03136Y06168*
Y06181*
X03123*
X03149Y06161D02*
Y062D01*
X03175Y06161*
Y062*
X03189D02*
Y06161D01*
X03208*
X03215Y06168*
Y06194*
X03208Y062*
X03189*
G54D69*
X0311Y0557D03*
G54D70*
X02952Y07558D03*
M02*